G04 #@! TF.FileFunction,Legend,Top*
%FSLAX46Y46*%
G04 Gerber Fmt 4.6, Leading zero omitted, Abs format (unit mm)*
G04 Created by KiCad (PCBNEW 4.0.6) date 06/14/17 16:25:36*
%MOMM*%
%LPD*%
G01*
G04 APERTURE LIST*
%ADD10C,0.100000*%
%ADD11C,0.150000*%
%ADD12C,0.120000*%
G04 APERTURE END LIST*
D10*
D11*
X147566667Y-64497619D02*
X147200001Y-63973810D01*
X146938096Y-64497619D02*
X146938096Y-63397619D01*
X147357143Y-63397619D01*
X147461905Y-63450000D01*
X147514286Y-63502381D01*
X147566667Y-63607143D01*
X147566667Y-63764286D01*
X147514286Y-63869048D01*
X147461905Y-63921429D01*
X147357143Y-63973810D01*
X146938096Y-63973810D01*
X147933334Y-63397619D02*
X148666667Y-64497619D01*
X148666667Y-63397619D02*
X147933334Y-64497619D01*
X144211905Y-63397619D02*
X144840476Y-63397619D01*
X144526191Y-64497619D02*
X144526191Y-63397619D01*
X145102381Y-63397619D02*
X145835714Y-64497619D01*
X145835714Y-63397619D02*
X145102381Y-64497619D01*
X142185715Y-63452381D02*
X142238096Y-63400000D01*
X142342858Y-63347619D01*
X142604762Y-63347619D01*
X142709524Y-63400000D01*
X142761905Y-63452381D01*
X142814286Y-63557143D01*
X142814286Y-63661905D01*
X142761905Y-63819048D01*
X142133334Y-64447619D01*
X142814286Y-64447619D01*
X139433334Y-63347619D02*
X140114286Y-63347619D01*
X139747620Y-63766667D01*
X139904762Y-63766667D01*
X140009524Y-63819048D01*
X140061905Y-63871429D01*
X140114286Y-63976190D01*
X140114286Y-64238095D01*
X140061905Y-64342857D01*
X140009524Y-64395238D01*
X139904762Y-64447619D01*
X139590477Y-64447619D01*
X139485715Y-64395238D01*
X139433334Y-64342857D01*
X137459524Y-63714286D02*
X137459524Y-64447619D01*
X137197620Y-63295238D02*
X136935715Y-64080952D01*
X137616667Y-64080952D01*
X135161905Y-63297619D02*
X134638096Y-63297619D01*
X134585715Y-63821429D01*
X134638096Y-63769048D01*
X134742858Y-63716667D01*
X135004762Y-63716667D01*
X135109524Y-63769048D01*
X135161905Y-63821429D01*
X135214286Y-63926190D01*
X135214286Y-64188095D01*
X135161905Y-64292857D01*
X135109524Y-64345238D01*
X135004762Y-64397619D01*
X134742858Y-64397619D01*
X134638096Y-64345238D01*
X134585715Y-64292857D01*
X132559524Y-63297619D02*
X132350001Y-63297619D01*
X132245239Y-63350000D01*
X132192858Y-63402381D01*
X132088096Y-63559524D01*
X132035715Y-63769048D01*
X132035715Y-64188095D01*
X132088096Y-64292857D01*
X132140477Y-64345238D01*
X132245239Y-64397619D01*
X132454762Y-64397619D01*
X132559524Y-64345238D01*
X132611905Y-64292857D01*
X132664286Y-64188095D01*
X132664286Y-63926190D01*
X132611905Y-63821429D01*
X132559524Y-63769048D01*
X132454762Y-63716667D01*
X132245239Y-63716667D01*
X132140477Y-63769048D01*
X132088096Y-63821429D01*
X132035715Y-63926190D01*
X129433334Y-63347619D02*
X130166667Y-63347619D01*
X129695239Y-64447619D01*
X125695239Y-63869048D02*
X125590477Y-63816667D01*
X125538096Y-63764286D01*
X125485715Y-63659524D01*
X125485715Y-63607143D01*
X125538096Y-63502381D01*
X125590477Y-63450000D01*
X125695239Y-63397619D01*
X125904762Y-63397619D01*
X126009524Y-63450000D01*
X126061905Y-63502381D01*
X126114286Y-63607143D01*
X126114286Y-63659524D01*
X126061905Y-63764286D01*
X126009524Y-63816667D01*
X125904762Y-63869048D01*
X125695239Y-63869048D01*
X125590477Y-63921429D01*
X125538096Y-63973810D01*
X125485715Y-64078571D01*
X125485715Y-64288095D01*
X125538096Y-64392857D01*
X125590477Y-64445238D01*
X125695239Y-64497619D01*
X125904762Y-64497619D01*
X126009524Y-64445238D01*
X126061905Y-64392857D01*
X126114286Y-64288095D01*
X126114286Y-64078571D01*
X126061905Y-63973810D01*
X126009524Y-63921429D01*
X125904762Y-63869048D01*
X123190477Y-64397619D02*
X123400001Y-64397619D01*
X123504762Y-64345238D01*
X123557143Y-64292857D01*
X123661905Y-64135714D01*
X123714286Y-63926190D01*
X123714286Y-63507143D01*
X123661905Y-63402381D01*
X123609524Y-63350000D01*
X123504762Y-63297619D01*
X123295239Y-63297619D01*
X123190477Y-63350000D01*
X123138096Y-63402381D01*
X123085715Y-63507143D01*
X123085715Y-63769048D01*
X123138096Y-63873810D01*
X123190477Y-63926190D01*
X123295239Y-63978571D01*
X123504762Y-63978571D01*
X123609524Y-63926190D01*
X123661905Y-63873810D01*
X123714286Y-63769048D01*
X120540476Y-64397619D02*
X119911905Y-64397619D01*
X120226191Y-64397619D02*
X120226191Y-63297619D01*
X120121429Y-63454762D01*
X120016667Y-63559524D01*
X119911905Y-63611905D01*
X121221429Y-63297619D02*
X121326190Y-63297619D01*
X121430952Y-63350000D01*
X121483333Y-63402381D01*
X121535714Y-63507143D01*
X121588095Y-63716667D01*
X121588095Y-63978571D01*
X121535714Y-64188095D01*
X121483333Y-64292857D01*
X121430952Y-64345238D01*
X121326190Y-64397619D01*
X121221429Y-64397619D01*
X121116667Y-64345238D01*
X121064286Y-64292857D01*
X121011905Y-64188095D01*
X120959524Y-63978571D01*
X120959524Y-63716667D01*
X121011905Y-63507143D01*
X121064286Y-63402381D01*
X121116667Y-63350000D01*
X121221429Y-63297619D01*
X117990476Y-64397619D02*
X117361905Y-64397619D01*
X117676191Y-64397619D02*
X117676191Y-63297619D01*
X117571429Y-63454762D01*
X117466667Y-63559524D01*
X117361905Y-63611905D01*
X119038095Y-64397619D02*
X118409524Y-64397619D01*
X118723810Y-64397619D02*
X118723810Y-63297619D01*
X118619048Y-63454762D01*
X118514286Y-63559524D01*
X118409524Y-63611905D01*
X115390476Y-64397619D02*
X114761905Y-64397619D01*
X115076191Y-64397619D02*
X115076191Y-63297619D01*
X114971429Y-63454762D01*
X114866667Y-63559524D01*
X114761905Y-63611905D01*
X115809524Y-63402381D02*
X115861905Y-63350000D01*
X115966667Y-63297619D01*
X116228571Y-63297619D01*
X116333333Y-63350000D01*
X116385714Y-63402381D01*
X116438095Y-63507143D01*
X116438095Y-63611905D01*
X116385714Y-63769048D01*
X115757143Y-64397619D01*
X116438095Y-64397619D01*
X106469048Y-64083333D02*
X106992857Y-64083333D01*
X106364286Y-64397619D02*
X106730953Y-63297619D01*
X107097619Y-64397619D01*
X108092857Y-64397619D02*
X107726191Y-63873810D01*
X107464286Y-64397619D02*
X107464286Y-63297619D01*
X107883333Y-63297619D01*
X107988095Y-63350000D01*
X108040476Y-63402381D01*
X108092857Y-63507143D01*
X108092857Y-63664286D01*
X108040476Y-63769048D01*
X107988095Y-63821429D01*
X107883333Y-63873810D01*
X107464286Y-63873810D01*
X108564286Y-63821429D02*
X108930952Y-63821429D01*
X109088095Y-64397619D02*
X108564286Y-64397619D01*
X108564286Y-63297619D01*
X109088095Y-63297619D01*
X109926190Y-63821429D02*
X109559524Y-63821429D01*
X109559524Y-64397619D02*
X109559524Y-63297619D01*
X110083333Y-63297619D01*
X112940476Y-64397619D02*
X112311905Y-64397619D01*
X112626191Y-64397619D02*
X112626191Y-63297619D01*
X112521429Y-63454762D01*
X112416667Y-63559524D01*
X112311905Y-63611905D01*
X113307143Y-63297619D02*
X113988095Y-63297619D01*
X113621429Y-63716667D01*
X113778571Y-63716667D01*
X113883333Y-63769048D01*
X113935714Y-63821429D01*
X113988095Y-63926190D01*
X113988095Y-64188095D01*
X113935714Y-64292857D01*
X113883333Y-64345238D01*
X113778571Y-64397619D01*
X113464286Y-64397619D01*
X113359524Y-64345238D01*
X113307143Y-64292857D01*
X104364286Y-64133333D02*
X104888095Y-64133333D01*
X104259524Y-64447619D02*
X104626191Y-63347619D01*
X104992857Y-64447619D01*
X105830952Y-63714286D02*
X105830952Y-64447619D01*
X105569048Y-63295238D02*
X105307143Y-64080952D01*
X105988095Y-64080952D01*
X101914286Y-64083333D02*
X102438095Y-64083333D01*
X101809524Y-64397619D02*
X102176191Y-63297619D01*
X102542857Y-64397619D01*
X103433333Y-63297619D02*
X102909524Y-63297619D01*
X102857143Y-63821429D01*
X102909524Y-63769048D01*
X103014286Y-63716667D01*
X103276190Y-63716667D01*
X103380952Y-63769048D01*
X103433333Y-63821429D01*
X103485714Y-63926190D01*
X103485714Y-64188095D01*
X103433333Y-64292857D01*
X103380952Y-64345238D01*
X103276190Y-64397619D01*
X103014286Y-64397619D01*
X102909524Y-64345238D01*
X102857143Y-64292857D01*
X160240477Y-117245238D02*
X160397620Y-117297619D01*
X160659524Y-117297619D01*
X160764286Y-117245238D01*
X160816667Y-117192857D01*
X160869048Y-117088095D01*
X160869048Y-116983333D01*
X160816667Y-116878571D01*
X160764286Y-116826190D01*
X160659524Y-116773810D01*
X160450001Y-116721429D01*
X160345239Y-116669048D01*
X160292858Y-116616667D01*
X160240477Y-116511905D01*
X160240477Y-116407143D01*
X160292858Y-116302381D01*
X160345239Y-116250000D01*
X160450001Y-116197619D01*
X160711905Y-116197619D01*
X160869048Y-116250000D01*
X161969048Y-117192857D02*
X161916667Y-117245238D01*
X161759524Y-117297619D01*
X161654762Y-117297619D01*
X161497620Y-117245238D01*
X161392858Y-117140476D01*
X161340477Y-117035714D01*
X161288096Y-116826190D01*
X161288096Y-116669048D01*
X161340477Y-116459524D01*
X161392858Y-116354762D01*
X161497620Y-116250000D01*
X161654762Y-116197619D01*
X161759524Y-116197619D01*
X161916667Y-116250000D01*
X161969048Y-116302381D01*
X162964286Y-117297619D02*
X162440477Y-117297619D01*
X162440477Y-116197619D01*
X157064286Y-117195238D02*
X157221429Y-117247619D01*
X157483333Y-117247619D01*
X157588095Y-117195238D01*
X157640476Y-117142857D01*
X157692857Y-117038095D01*
X157692857Y-116933333D01*
X157640476Y-116828571D01*
X157588095Y-116776190D01*
X157483333Y-116723810D01*
X157273810Y-116671429D01*
X157169048Y-116619048D01*
X157116667Y-116566667D01*
X157064286Y-116461905D01*
X157064286Y-116357143D01*
X157116667Y-116252381D01*
X157169048Y-116200000D01*
X157273810Y-116147619D01*
X157535714Y-116147619D01*
X157692857Y-116200000D01*
X158164286Y-117247619D02*
X158164286Y-116147619D01*
X158426191Y-116147619D01*
X158583333Y-116200000D01*
X158688095Y-116304762D01*
X158740476Y-116409524D01*
X158792857Y-116619048D01*
X158792857Y-116776190D01*
X158740476Y-116985714D01*
X158688095Y-117090476D01*
X158583333Y-117195238D01*
X158426191Y-117247619D01*
X158164286Y-117247619D01*
X159211905Y-116933333D02*
X159735714Y-116933333D01*
X159107143Y-117247619D02*
X159473810Y-116147619D01*
X159840476Y-117247619D01*
X155490476Y-116147619D02*
X154966667Y-116147619D01*
X154914286Y-116671429D01*
X154966667Y-116619048D01*
X155071429Y-116566667D01*
X155333333Y-116566667D01*
X155438095Y-116619048D01*
X155490476Y-116671429D01*
X155542857Y-116776190D01*
X155542857Y-117038095D01*
X155490476Y-117142857D01*
X155438095Y-117195238D01*
X155333333Y-117247619D01*
X155071429Y-117247619D01*
X154966667Y-117195238D01*
X154914286Y-117142857D01*
X155857143Y-116147619D02*
X156223810Y-117247619D01*
X156590476Y-116147619D01*
X151942857Y-116150000D02*
X151838095Y-116097619D01*
X151680952Y-116097619D01*
X151523810Y-116150000D01*
X151419048Y-116254762D01*
X151366667Y-116359524D01*
X151314286Y-116569048D01*
X151314286Y-116726190D01*
X151366667Y-116935714D01*
X151419048Y-117040476D01*
X151523810Y-117145238D01*
X151680952Y-117197619D01*
X151785714Y-117197619D01*
X151942857Y-117145238D01*
X151995238Y-117092857D01*
X151995238Y-116726190D01*
X151785714Y-116726190D01*
X152466667Y-116464286D02*
X152466667Y-117197619D01*
X152466667Y-116569048D02*
X152519048Y-116516667D01*
X152623810Y-116464286D01*
X152780952Y-116464286D01*
X152885714Y-116516667D01*
X152938095Y-116621429D01*
X152938095Y-117197619D01*
X153933333Y-117197619D02*
X153933333Y-116097619D01*
X153933333Y-117145238D02*
X153828571Y-117197619D01*
X153619048Y-117197619D01*
X153514286Y-117145238D01*
X153461905Y-117092857D01*
X153409524Y-116988095D01*
X153409524Y-116673810D01*
X153461905Y-116569048D01*
X153514286Y-116516667D01*
X153619048Y-116464286D01*
X153828571Y-116464286D01*
X153933333Y-116516667D01*
X148173810Y-103545238D02*
X148330953Y-103597619D01*
X148592857Y-103597619D01*
X148697619Y-103545238D01*
X148750000Y-103492857D01*
X148802381Y-103388095D01*
X148802381Y-103283333D01*
X148750000Y-103178571D01*
X148697619Y-103126190D01*
X148592857Y-103073810D01*
X148383334Y-103021429D01*
X148278572Y-102969048D01*
X148226191Y-102916667D01*
X148173810Y-102811905D01*
X148173810Y-102707143D01*
X148226191Y-102602381D01*
X148278572Y-102550000D01*
X148383334Y-102497619D01*
X148645238Y-102497619D01*
X148802381Y-102550000D01*
X149692857Y-103545238D02*
X149588095Y-103597619D01*
X149378572Y-103597619D01*
X149273810Y-103545238D01*
X149221429Y-103440476D01*
X149221429Y-103021429D01*
X149273810Y-102916667D01*
X149378572Y-102864286D01*
X149588095Y-102864286D01*
X149692857Y-102916667D01*
X149745238Y-103021429D01*
X149745238Y-103126190D01*
X149221429Y-103230952D01*
X150216667Y-103597619D02*
X150216667Y-102864286D01*
X150216667Y-103073810D02*
X150269048Y-102969048D01*
X150321429Y-102916667D01*
X150426191Y-102864286D01*
X150530952Y-102864286D01*
X147859525Y-105397619D02*
X147859525Y-104297619D01*
X148278572Y-104297619D01*
X148383334Y-104350000D01*
X148435715Y-104402381D01*
X148488096Y-104507143D01*
X148488096Y-104664286D01*
X148435715Y-104769048D01*
X148383334Y-104821429D01*
X148278572Y-104873810D01*
X147859525Y-104873810D01*
X149116668Y-105397619D02*
X149011906Y-105345238D01*
X148959525Y-105292857D01*
X148907144Y-105188095D01*
X148907144Y-104873810D01*
X148959525Y-104769048D01*
X149011906Y-104716667D01*
X149116668Y-104664286D01*
X149273810Y-104664286D01*
X149378572Y-104716667D01*
X149430953Y-104769048D01*
X149483334Y-104873810D01*
X149483334Y-105188095D01*
X149430953Y-105292857D01*
X149378572Y-105345238D01*
X149273810Y-105397619D01*
X149116668Y-105397619D01*
X149954763Y-105397619D02*
X149954763Y-104664286D01*
X149954763Y-104873810D02*
X150007144Y-104769048D01*
X150059525Y-104716667D01*
X150164287Y-104664286D01*
X150269048Y-104664286D01*
X150478572Y-104664286D02*
X150897620Y-104664286D01*
X150635715Y-104297619D02*
X150635715Y-105240476D01*
X150688096Y-105345238D01*
X150792858Y-105397619D01*
X150897620Y-105397619D01*
X149576191Y-114947619D02*
X149576191Y-113847619D01*
X150047620Y-113952381D02*
X150100001Y-113900000D01*
X150204763Y-113847619D01*
X150466667Y-113847619D01*
X150571429Y-113900000D01*
X150623810Y-113952381D01*
X150676191Y-114057143D01*
X150676191Y-114161905D01*
X150623810Y-114319048D01*
X149995239Y-114947619D01*
X150676191Y-114947619D01*
X151776191Y-114842857D02*
X151723810Y-114895238D01*
X151566667Y-114947619D01*
X151461905Y-114947619D01*
X151304763Y-114895238D01*
X151200001Y-114790476D01*
X151147620Y-114685714D01*
X151095239Y-114476190D01*
X151095239Y-114319048D01*
X151147620Y-114109524D01*
X151200001Y-114004762D01*
X151304763Y-113900000D01*
X151461905Y-113847619D01*
X151566667Y-113847619D01*
X151723810Y-113900000D01*
X151776191Y-113952381D01*
X150959524Y-111414286D02*
X150959524Y-112147619D01*
X150697620Y-110995238D02*
X150435715Y-111780952D01*
X151116667Y-111780952D01*
X151111905Y-108697619D02*
X150588096Y-108697619D01*
X150535715Y-109221429D01*
X150588096Y-109169048D01*
X150692858Y-109116667D01*
X150954762Y-109116667D01*
X151059524Y-109169048D01*
X151111905Y-109221429D01*
X151164286Y-109326190D01*
X151164286Y-109588095D01*
X151111905Y-109692857D01*
X151059524Y-109745238D01*
X150954762Y-109797619D01*
X150692858Y-109797619D01*
X150588096Y-109745238D01*
X150535715Y-109692857D01*
X151159524Y-106197619D02*
X150950001Y-106197619D01*
X150845239Y-106250000D01*
X150792858Y-106302381D01*
X150688096Y-106459524D01*
X150635715Y-106669048D01*
X150635715Y-107088095D01*
X150688096Y-107192857D01*
X150740477Y-107245238D01*
X150845239Y-107297619D01*
X151054762Y-107297619D01*
X151159524Y-107245238D01*
X151211905Y-107192857D01*
X151264286Y-107088095D01*
X151264286Y-106826190D01*
X151211905Y-106721429D01*
X151159524Y-106669048D01*
X151054762Y-106616667D01*
X150845239Y-106616667D01*
X150740477Y-106669048D01*
X150688096Y-106721429D01*
X150635715Y-106826190D01*
X160995238Y-104697619D02*
X160628572Y-104173810D01*
X160366667Y-104697619D02*
X160366667Y-103597619D01*
X160785714Y-103597619D01*
X160890476Y-103650000D01*
X160942857Y-103702381D01*
X160995238Y-103807143D01*
X160995238Y-103964286D01*
X160942857Y-104069048D01*
X160890476Y-104121429D01*
X160785714Y-104173810D01*
X160366667Y-104173810D01*
X161361905Y-104697619D02*
X161938095Y-103964286D01*
X161361905Y-103964286D02*
X161938095Y-104697619D01*
X157890477Y-103597619D02*
X158519048Y-103597619D01*
X158204763Y-104697619D02*
X158204763Y-103597619D01*
X158780953Y-104697619D02*
X159357143Y-103964286D01*
X158780953Y-103964286D02*
X159357143Y-104697619D01*
X152192857Y-103500000D02*
X152088095Y-103447619D01*
X151930952Y-103447619D01*
X151773810Y-103500000D01*
X151669048Y-103604762D01*
X151616667Y-103709524D01*
X151564286Y-103919048D01*
X151564286Y-104076190D01*
X151616667Y-104285714D01*
X151669048Y-104390476D01*
X151773810Y-104495238D01*
X151930952Y-104547619D01*
X152035714Y-104547619D01*
X152192857Y-104495238D01*
X152245238Y-104442857D01*
X152245238Y-104076190D01*
X152035714Y-104076190D01*
X152716667Y-103814286D02*
X152716667Y-104547619D01*
X152716667Y-103919048D02*
X152769048Y-103866667D01*
X152873810Y-103814286D01*
X153030952Y-103814286D01*
X153135714Y-103866667D01*
X153188095Y-103971429D01*
X153188095Y-104547619D01*
X154183333Y-104547619D02*
X154183333Y-103447619D01*
X154183333Y-104495238D02*
X154078571Y-104547619D01*
X153869048Y-104547619D01*
X153764286Y-104495238D01*
X153711905Y-104442857D01*
X153659524Y-104338095D01*
X153659524Y-104023810D01*
X153711905Y-103919048D01*
X153764286Y-103866667D01*
X153869048Y-103814286D01*
X154078571Y-103814286D01*
X154183333Y-103866667D01*
X154745239Y-104597619D02*
X154745239Y-103497619D01*
X155164286Y-103497619D01*
X155269048Y-103550000D01*
X155321429Y-103602381D01*
X155373810Y-103707143D01*
X155373810Y-103864286D01*
X155321429Y-103969048D01*
X155269048Y-104021429D01*
X155164286Y-104073810D01*
X154745239Y-104073810D01*
X155740477Y-103864286D02*
X155950001Y-104597619D01*
X156159524Y-104073810D01*
X156369048Y-104597619D01*
X156578572Y-103864286D01*
X156997620Y-104597619D02*
X156997620Y-103864286D01*
X156997620Y-104073810D02*
X157050001Y-103969048D01*
X157102382Y-103916667D01*
X157207144Y-103864286D01*
X157311905Y-103864286D01*
X191938095Y-82697619D02*
X191414286Y-82697619D01*
X191361905Y-83221429D01*
X191414286Y-83169048D01*
X191519048Y-83116667D01*
X191780952Y-83116667D01*
X191885714Y-83169048D01*
X191938095Y-83221429D01*
X191990476Y-83326190D01*
X191990476Y-83588095D01*
X191938095Y-83692857D01*
X191885714Y-83745238D01*
X191780952Y-83797619D01*
X191519048Y-83797619D01*
X191414286Y-83745238D01*
X191361905Y-83692857D01*
X192933333Y-82697619D02*
X192723810Y-82697619D01*
X192619048Y-82750000D01*
X192566667Y-82802381D01*
X192461905Y-82959524D01*
X192409524Y-83169048D01*
X192409524Y-83588095D01*
X192461905Y-83692857D01*
X192514286Y-83745238D01*
X192619048Y-83797619D01*
X192828571Y-83797619D01*
X192933333Y-83745238D01*
X192985714Y-83692857D01*
X193038095Y-83588095D01*
X193038095Y-83326190D01*
X192985714Y-83221429D01*
X192933333Y-83169048D01*
X192828571Y-83116667D01*
X192619048Y-83116667D01*
X192514286Y-83169048D01*
X192461905Y-83221429D01*
X192409524Y-83326190D01*
X189338095Y-82697619D02*
X188814286Y-82697619D01*
X188761905Y-83221429D01*
X188814286Y-83169048D01*
X188919048Y-83116667D01*
X189180952Y-83116667D01*
X189285714Y-83169048D01*
X189338095Y-83221429D01*
X189390476Y-83326190D01*
X189390476Y-83588095D01*
X189338095Y-83692857D01*
X189285714Y-83745238D01*
X189180952Y-83797619D01*
X188919048Y-83797619D01*
X188814286Y-83745238D01*
X188761905Y-83692857D01*
X190333333Y-82697619D02*
X190123810Y-82697619D01*
X190019048Y-82750000D01*
X189966667Y-82802381D01*
X189861905Y-82959524D01*
X189809524Y-83169048D01*
X189809524Y-83588095D01*
X189861905Y-83692857D01*
X189914286Y-83745238D01*
X190019048Y-83797619D01*
X190228571Y-83797619D01*
X190333333Y-83745238D01*
X190385714Y-83692857D01*
X190438095Y-83588095D01*
X190438095Y-83326190D01*
X190385714Y-83221429D01*
X190333333Y-83169048D01*
X190228571Y-83116667D01*
X190019048Y-83116667D01*
X189914286Y-83169048D01*
X189861905Y-83221429D01*
X189809524Y-83326190D01*
X186838095Y-82697619D02*
X186314286Y-82697619D01*
X186261905Y-83221429D01*
X186314286Y-83169048D01*
X186419048Y-83116667D01*
X186680952Y-83116667D01*
X186785714Y-83169048D01*
X186838095Y-83221429D01*
X186890476Y-83326190D01*
X186890476Y-83588095D01*
X186838095Y-83692857D01*
X186785714Y-83745238D01*
X186680952Y-83797619D01*
X186419048Y-83797619D01*
X186314286Y-83745238D01*
X186261905Y-83692857D01*
X187885714Y-82697619D02*
X187361905Y-82697619D01*
X187309524Y-83221429D01*
X187361905Y-83169048D01*
X187466667Y-83116667D01*
X187728571Y-83116667D01*
X187833333Y-83169048D01*
X187885714Y-83221429D01*
X187938095Y-83326190D01*
X187938095Y-83588095D01*
X187885714Y-83692857D01*
X187833333Y-83745238D01*
X187728571Y-83797619D01*
X187466667Y-83797619D01*
X187361905Y-83745238D01*
X187309524Y-83692857D01*
X184338095Y-82697619D02*
X183814286Y-82697619D01*
X183761905Y-83221429D01*
X183814286Y-83169048D01*
X183919048Y-83116667D01*
X184180952Y-83116667D01*
X184285714Y-83169048D01*
X184338095Y-83221429D01*
X184390476Y-83326190D01*
X184390476Y-83588095D01*
X184338095Y-83692857D01*
X184285714Y-83745238D01*
X184180952Y-83797619D01*
X183919048Y-83797619D01*
X183814286Y-83745238D01*
X183761905Y-83692857D01*
X185333333Y-83064286D02*
X185333333Y-83797619D01*
X185071429Y-82645238D02*
X184809524Y-83430952D01*
X185490476Y-83430952D01*
X181638095Y-82697619D02*
X181114286Y-82697619D01*
X181061905Y-83221429D01*
X181114286Y-83169048D01*
X181219048Y-83116667D01*
X181480952Y-83116667D01*
X181585714Y-83169048D01*
X181638095Y-83221429D01*
X181690476Y-83326190D01*
X181690476Y-83588095D01*
X181638095Y-83692857D01*
X181585714Y-83745238D01*
X181480952Y-83797619D01*
X181219048Y-83797619D01*
X181114286Y-83745238D01*
X181061905Y-83692857D01*
X182057143Y-82697619D02*
X182738095Y-82697619D01*
X182371429Y-83116667D01*
X182528571Y-83116667D01*
X182633333Y-83169048D01*
X182685714Y-83221429D01*
X182738095Y-83326190D01*
X182738095Y-83588095D01*
X182685714Y-83692857D01*
X182633333Y-83745238D01*
X182528571Y-83797619D01*
X182214286Y-83797619D01*
X182109524Y-83745238D01*
X182057143Y-83692857D01*
X176088095Y-82747619D02*
X175564286Y-82747619D01*
X175511905Y-83271429D01*
X175564286Y-83219048D01*
X175669048Y-83166667D01*
X175930952Y-83166667D01*
X176035714Y-83219048D01*
X176088095Y-83271429D01*
X176140476Y-83376190D01*
X176140476Y-83638095D01*
X176088095Y-83742857D01*
X176035714Y-83795238D01*
X175930952Y-83847619D01*
X175669048Y-83847619D01*
X175564286Y-83795238D01*
X175511905Y-83742857D01*
X176559524Y-82852381D02*
X176611905Y-82800000D01*
X176716667Y-82747619D01*
X176978571Y-82747619D01*
X177083333Y-82800000D01*
X177135714Y-82852381D01*
X177188095Y-82957143D01*
X177188095Y-83061905D01*
X177135714Y-83219048D01*
X176507143Y-83847619D01*
X177188095Y-83847619D01*
X173488095Y-82747619D02*
X172964286Y-82747619D01*
X172911905Y-83271429D01*
X172964286Y-83219048D01*
X173069048Y-83166667D01*
X173330952Y-83166667D01*
X173435714Y-83219048D01*
X173488095Y-83271429D01*
X173540476Y-83376190D01*
X173540476Y-83638095D01*
X173488095Y-83742857D01*
X173435714Y-83795238D01*
X173330952Y-83847619D01*
X173069048Y-83847619D01*
X172964286Y-83795238D01*
X172911905Y-83742857D01*
X174588095Y-83847619D02*
X173959524Y-83847619D01*
X174273810Y-83847619D02*
X174273810Y-82747619D01*
X174169048Y-82904762D01*
X174064286Y-83009524D01*
X173959524Y-83061905D01*
X170935714Y-83114286D02*
X170935714Y-83847619D01*
X170673810Y-82695238D02*
X170411905Y-83480952D01*
X171092857Y-83480952D01*
X171983333Y-82747619D02*
X171773810Y-82747619D01*
X171669048Y-82800000D01*
X171616667Y-82852381D01*
X171511905Y-83009524D01*
X171459524Y-83219048D01*
X171459524Y-83638095D01*
X171511905Y-83742857D01*
X171564286Y-83795238D01*
X171669048Y-83847619D01*
X171878571Y-83847619D01*
X171983333Y-83795238D01*
X172035714Y-83742857D01*
X172088095Y-83638095D01*
X172088095Y-83376190D01*
X172035714Y-83271429D01*
X171983333Y-83219048D01*
X171878571Y-83166667D01*
X171669048Y-83166667D01*
X171564286Y-83219048D01*
X171511905Y-83271429D01*
X171459524Y-83376190D01*
X168235714Y-83114286D02*
X168235714Y-83847619D01*
X167973810Y-82695238D02*
X167711905Y-83480952D01*
X168392857Y-83480952D01*
X169283333Y-83114286D02*
X169283333Y-83847619D01*
X169021429Y-82695238D02*
X168759524Y-83480952D01*
X169440476Y-83480952D01*
X165735714Y-83114286D02*
X165735714Y-83847619D01*
X165473810Y-82695238D02*
X165211905Y-83480952D01*
X165892857Y-83480952D01*
X166207143Y-82747619D02*
X166888095Y-82747619D01*
X166521429Y-83166667D01*
X166678571Y-83166667D01*
X166783333Y-83219048D01*
X166835714Y-83271429D01*
X166888095Y-83376190D01*
X166888095Y-83638095D01*
X166835714Y-83742857D01*
X166783333Y-83795238D01*
X166678571Y-83847619D01*
X166364286Y-83847619D01*
X166259524Y-83795238D01*
X166207143Y-83742857D01*
X191785714Y-93614286D02*
X191785714Y-94347619D01*
X191523810Y-93195238D02*
X191261905Y-93980952D01*
X191942857Y-93980952D01*
X192309524Y-93352381D02*
X192361905Y-93300000D01*
X192466667Y-93247619D01*
X192728571Y-93247619D01*
X192833333Y-93300000D01*
X192885714Y-93352381D01*
X192938095Y-93457143D01*
X192938095Y-93561905D01*
X192885714Y-93719048D01*
X192257143Y-94347619D01*
X192938095Y-94347619D01*
X189185714Y-93614286D02*
X189185714Y-94347619D01*
X188923810Y-93195238D02*
X188661905Y-93980952D01*
X189342857Y-93980952D01*
X190338095Y-94347619D02*
X189709524Y-94347619D01*
X190023810Y-94347619D02*
X190023810Y-93247619D01*
X189919048Y-93404762D01*
X189814286Y-93509524D01*
X189709524Y-93561905D01*
X186785714Y-93614286D02*
X186785714Y-94347619D01*
X186523810Y-93195238D02*
X186261905Y-93980952D01*
X186942857Y-93980952D01*
X187571429Y-93247619D02*
X187676190Y-93247619D01*
X187780952Y-93300000D01*
X187833333Y-93352381D01*
X187885714Y-93457143D01*
X187938095Y-93666667D01*
X187938095Y-93928571D01*
X187885714Y-94138095D01*
X187833333Y-94242857D01*
X187780952Y-94295238D01*
X187676190Y-94347619D01*
X187571429Y-94347619D01*
X187466667Y-94295238D01*
X187414286Y-94242857D01*
X187361905Y-94138095D01*
X187309524Y-93928571D01*
X187309524Y-93666667D01*
X187361905Y-93457143D01*
X187414286Y-93352381D01*
X187466667Y-93300000D01*
X187571429Y-93247619D01*
X183609524Y-93247619D02*
X184290476Y-93247619D01*
X183923810Y-93666667D01*
X184080952Y-93666667D01*
X184185714Y-93719048D01*
X184238095Y-93771429D01*
X184290476Y-93876190D01*
X184290476Y-94138095D01*
X184238095Y-94242857D01*
X184185714Y-94295238D01*
X184080952Y-94347619D01*
X183766667Y-94347619D01*
X183661905Y-94295238D01*
X183609524Y-94242857D01*
X184971429Y-93247619D02*
X185076190Y-93247619D01*
X185180952Y-93300000D01*
X185233333Y-93352381D01*
X185285714Y-93457143D01*
X185338095Y-93666667D01*
X185338095Y-93928571D01*
X185285714Y-94138095D01*
X185233333Y-94242857D01*
X185180952Y-94295238D01*
X185076190Y-94347619D01*
X184971429Y-94347619D01*
X184866667Y-94295238D01*
X184814286Y-94242857D01*
X184761905Y-94138095D01*
X184709524Y-93928571D01*
X184709524Y-93666667D01*
X184761905Y-93457143D01*
X184814286Y-93352381D01*
X184866667Y-93300000D01*
X184971429Y-93247619D01*
X180861905Y-93352381D02*
X180914286Y-93300000D01*
X181019048Y-93247619D01*
X181280952Y-93247619D01*
X181385714Y-93300000D01*
X181438095Y-93352381D01*
X181490476Y-93457143D01*
X181490476Y-93561905D01*
X181438095Y-93719048D01*
X180809524Y-94347619D01*
X181490476Y-94347619D01*
X182014286Y-94347619D02*
X182223810Y-94347619D01*
X182328571Y-94295238D01*
X182380952Y-94242857D01*
X182485714Y-94085714D01*
X182538095Y-93876190D01*
X182538095Y-93457143D01*
X182485714Y-93352381D01*
X182433333Y-93300000D01*
X182328571Y-93247619D01*
X182119048Y-93247619D01*
X182014286Y-93300000D01*
X181961905Y-93352381D01*
X181909524Y-93457143D01*
X181909524Y-93719048D01*
X181961905Y-93823810D01*
X182014286Y-93876190D01*
X182119048Y-93928571D01*
X182328571Y-93928571D01*
X182433333Y-93876190D01*
X182485714Y-93823810D01*
X182538095Y-93719048D01*
X175711905Y-93202381D02*
X175764286Y-93150000D01*
X175869048Y-93097619D01*
X176130952Y-93097619D01*
X176235714Y-93150000D01*
X176288095Y-93202381D01*
X176340476Y-93307143D01*
X176340476Y-93411905D01*
X176288095Y-93569048D01*
X175659524Y-94197619D01*
X176340476Y-94197619D01*
X176969048Y-93569048D02*
X176864286Y-93516667D01*
X176811905Y-93464286D01*
X176759524Y-93359524D01*
X176759524Y-93307143D01*
X176811905Y-93202381D01*
X176864286Y-93150000D01*
X176969048Y-93097619D01*
X177178571Y-93097619D01*
X177283333Y-93150000D01*
X177335714Y-93202381D01*
X177388095Y-93307143D01*
X177388095Y-93359524D01*
X177335714Y-93464286D01*
X177283333Y-93516667D01*
X177178571Y-93569048D01*
X176969048Y-93569048D01*
X176864286Y-93621429D01*
X176811905Y-93673810D01*
X176759524Y-93778571D01*
X176759524Y-93988095D01*
X176811905Y-94092857D01*
X176864286Y-94145238D01*
X176969048Y-94197619D01*
X177178571Y-94197619D01*
X177283333Y-94145238D01*
X177335714Y-94092857D01*
X177388095Y-93988095D01*
X177388095Y-93778571D01*
X177335714Y-93673810D01*
X177283333Y-93621429D01*
X177178571Y-93569048D01*
X173011905Y-93202381D02*
X173064286Y-93150000D01*
X173169048Y-93097619D01*
X173430952Y-93097619D01*
X173535714Y-93150000D01*
X173588095Y-93202381D01*
X173640476Y-93307143D01*
X173640476Y-93411905D01*
X173588095Y-93569048D01*
X172959524Y-94197619D01*
X173640476Y-94197619D01*
X174007143Y-93097619D02*
X174740476Y-93097619D01*
X174269048Y-94197619D01*
X170411905Y-93202381D02*
X170464286Y-93150000D01*
X170569048Y-93097619D01*
X170830952Y-93097619D01*
X170935714Y-93150000D01*
X170988095Y-93202381D01*
X171040476Y-93307143D01*
X171040476Y-93411905D01*
X170988095Y-93569048D01*
X170359524Y-94197619D01*
X171040476Y-94197619D01*
X171983333Y-93097619D02*
X171773810Y-93097619D01*
X171669048Y-93150000D01*
X171616667Y-93202381D01*
X171511905Y-93359524D01*
X171459524Y-93569048D01*
X171459524Y-93988095D01*
X171511905Y-94092857D01*
X171564286Y-94145238D01*
X171669048Y-94197619D01*
X171878571Y-94197619D01*
X171983333Y-94145238D01*
X172035714Y-94092857D01*
X172088095Y-93988095D01*
X172088095Y-93726190D01*
X172035714Y-93621429D01*
X171983333Y-93569048D01*
X171878571Y-93516667D01*
X171669048Y-93516667D01*
X171564286Y-93569048D01*
X171511905Y-93621429D01*
X171459524Y-93726190D01*
X167911905Y-93202381D02*
X167964286Y-93150000D01*
X168069048Y-93097619D01*
X168330952Y-93097619D01*
X168435714Y-93150000D01*
X168488095Y-93202381D01*
X168540476Y-93307143D01*
X168540476Y-93411905D01*
X168488095Y-93569048D01*
X167859524Y-94197619D01*
X168540476Y-94197619D01*
X169535714Y-93097619D02*
X169011905Y-93097619D01*
X168959524Y-93621429D01*
X169011905Y-93569048D01*
X169116667Y-93516667D01*
X169378571Y-93516667D01*
X169483333Y-93569048D01*
X169535714Y-93621429D01*
X169588095Y-93726190D01*
X169588095Y-93988095D01*
X169535714Y-94092857D01*
X169483333Y-94145238D01*
X169378571Y-94197619D01*
X169116667Y-94197619D01*
X169011905Y-94145238D01*
X168959524Y-94092857D01*
X165211905Y-93202381D02*
X165264286Y-93150000D01*
X165369048Y-93097619D01*
X165630952Y-93097619D01*
X165735714Y-93150000D01*
X165788095Y-93202381D01*
X165840476Y-93307143D01*
X165840476Y-93411905D01*
X165788095Y-93569048D01*
X165159524Y-94197619D01*
X165840476Y-94197619D01*
X166783333Y-93464286D02*
X166783333Y-94197619D01*
X166521429Y-93045238D02*
X166259524Y-93830952D01*
X166940476Y-93830952D01*
X187416667Y-103390477D02*
X187416667Y-103914286D01*
X187102381Y-103285715D02*
X188202381Y-103652382D01*
X187102381Y-104019048D01*
X188097619Y-104333334D02*
X188150000Y-104385715D01*
X188202381Y-104490477D01*
X188202381Y-104752381D01*
X188150000Y-104857143D01*
X188097619Y-104909524D01*
X187992857Y-104961905D01*
X187888095Y-104961905D01*
X187730952Y-104909524D01*
X187102381Y-104280953D01*
X187102381Y-104961905D01*
X187835714Y-105904762D02*
X187102381Y-105904762D01*
X188254762Y-105642858D02*
X187469048Y-105380953D01*
X187469048Y-106061905D01*
X192516667Y-103390477D02*
X192516667Y-103914286D01*
X192202381Y-103285715D02*
X193302381Y-103652382D01*
X192202381Y-104019048D01*
X193197619Y-104333334D02*
X193250000Y-104385715D01*
X193302381Y-104490477D01*
X193302381Y-104752381D01*
X193250000Y-104857143D01*
X193197619Y-104909524D01*
X193092857Y-104961905D01*
X192988095Y-104961905D01*
X192830952Y-104909524D01*
X192202381Y-104280953D01*
X192202381Y-104961905D01*
X193302381Y-105904762D02*
X193302381Y-105695239D01*
X193250000Y-105590477D01*
X193197619Y-105538096D01*
X193040476Y-105433334D01*
X192830952Y-105380953D01*
X192411905Y-105380953D01*
X192307143Y-105433334D01*
X192254762Y-105485715D01*
X192202381Y-105590477D01*
X192202381Y-105800000D01*
X192254762Y-105904762D01*
X192307143Y-105957143D01*
X192411905Y-106009524D01*
X192673810Y-106009524D01*
X192778571Y-105957143D01*
X192830952Y-105904762D01*
X192883333Y-105800000D01*
X192883333Y-105590477D01*
X192830952Y-105485715D01*
X192778571Y-105433334D01*
X192673810Y-105380953D01*
X190016667Y-103390477D02*
X190016667Y-103914286D01*
X189702381Y-103285715D02*
X190802381Y-103652382D01*
X189702381Y-104019048D01*
X190697619Y-104333334D02*
X190750000Y-104385715D01*
X190802381Y-104490477D01*
X190802381Y-104752381D01*
X190750000Y-104857143D01*
X190697619Y-104909524D01*
X190592857Y-104961905D01*
X190488095Y-104961905D01*
X190330952Y-104909524D01*
X189702381Y-104280953D01*
X189702381Y-104961905D01*
X190802381Y-105957143D02*
X190802381Y-105433334D01*
X190278571Y-105380953D01*
X190330952Y-105433334D01*
X190383333Y-105538096D01*
X190383333Y-105800000D01*
X190330952Y-105904762D01*
X190278571Y-105957143D01*
X190173810Y-106009524D01*
X189911905Y-106009524D01*
X189807143Y-105957143D01*
X189754762Y-105904762D01*
X189702381Y-105800000D01*
X189702381Y-105538096D01*
X189754762Y-105433334D01*
X189807143Y-105380953D01*
X184916667Y-103290477D02*
X184916667Y-103814286D01*
X184602381Y-103185715D02*
X185702381Y-103552382D01*
X184602381Y-103919048D01*
X185597619Y-104233334D02*
X185650000Y-104285715D01*
X185702381Y-104390477D01*
X185702381Y-104652381D01*
X185650000Y-104757143D01*
X185597619Y-104809524D01*
X185492857Y-104861905D01*
X185388095Y-104861905D01*
X185230952Y-104809524D01*
X184602381Y-104180953D01*
X184602381Y-104861905D01*
X185702381Y-105228572D02*
X185702381Y-105909524D01*
X185283333Y-105542858D01*
X185283333Y-105700000D01*
X185230952Y-105804762D01*
X185178571Y-105857143D01*
X185073810Y-105909524D01*
X184811905Y-105909524D01*
X184707143Y-105857143D01*
X184654762Y-105804762D01*
X184602381Y-105700000D01*
X184602381Y-105385715D01*
X184654762Y-105280953D01*
X184707143Y-105228572D01*
X182316667Y-103390477D02*
X182316667Y-103914286D01*
X182002381Y-103285715D02*
X183102381Y-103652382D01*
X182002381Y-104019048D01*
X182997619Y-104333334D02*
X183050000Y-104385715D01*
X183102381Y-104490477D01*
X183102381Y-104752381D01*
X183050000Y-104857143D01*
X182997619Y-104909524D01*
X182892857Y-104961905D01*
X182788095Y-104961905D01*
X182630952Y-104909524D01*
X182002381Y-104280953D01*
X182002381Y-104961905D01*
X182997619Y-105380953D02*
X183050000Y-105433334D01*
X183102381Y-105538096D01*
X183102381Y-105800000D01*
X183050000Y-105904762D01*
X182997619Y-105957143D01*
X182892857Y-106009524D01*
X182788095Y-106009524D01*
X182630952Y-105957143D01*
X182002381Y-105328572D01*
X182002381Y-106009524D01*
X179816667Y-103390477D02*
X179816667Y-103914286D01*
X179502381Y-103285715D02*
X180602381Y-103652382D01*
X179502381Y-104019048D01*
X180497619Y-104333334D02*
X180550000Y-104385715D01*
X180602381Y-104490477D01*
X180602381Y-104752381D01*
X180550000Y-104857143D01*
X180497619Y-104909524D01*
X180392857Y-104961905D01*
X180288095Y-104961905D01*
X180130952Y-104909524D01*
X179502381Y-104280953D01*
X179502381Y-104961905D01*
X179502381Y-106009524D02*
X179502381Y-105380953D01*
X179502381Y-105695239D02*
X180602381Y-105695239D01*
X180445238Y-105590477D01*
X180340476Y-105485715D01*
X180288095Y-105380953D01*
X175716667Y-103340477D02*
X175716667Y-103864286D01*
X175402381Y-103235715D02*
X176502381Y-103602382D01*
X175402381Y-103969048D01*
X175402381Y-104911905D02*
X175402381Y-104283334D01*
X175402381Y-104597620D02*
X176502381Y-104597620D01*
X176345238Y-104492858D01*
X176240476Y-104388096D01*
X176188095Y-104283334D01*
X176502381Y-105907143D02*
X176502381Y-105383334D01*
X175978571Y-105330953D01*
X176030952Y-105383334D01*
X176083333Y-105488096D01*
X176083333Y-105750000D01*
X176030952Y-105854762D01*
X175978571Y-105907143D01*
X175873810Y-105959524D01*
X175611905Y-105959524D01*
X175507143Y-105907143D01*
X175454762Y-105854762D01*
X175402381Y-105750000D01*
X175402381Y-105488096D01*
X175454762Y-105383334D01*
X175507143Y-105330953D01*
X173116667Y-103340477D02*
X173116667Y-103864286D01*
X172802381Y-103235715D02*
X173902381Y-103602382D01*
X172802381Y-103969048D01*
X172802381Y-104911905D02*
X172802381Y-104283334D01*
X172802381Y-104597620D02*
X173902381Y-104597620D01*
X173745238Y-104492858D01*
X173640476Y-104388096D01*
X173588095Y-104283334D01*
X173535714Y-105854762D02*
X172802381Y-105854762D01*
X173954762Y-105592858D02*
X173169048Y-105330953D01*
X173169048Y-106011905D01*
X170516667Y-103340477D02*
X170516667Y-103864286D01*
X170202381Y-103235715D02*
X171302381Y-103602382D01*
X170202381Y-103969048D01*
X170202381Y-104911905D02*
X170202381Y-104283334D01*
X170202381Y-104597620D02*
X171302381Y-104597620D01*
X171145238Y-104492858D01*
X171040476Y-104388096D01*
X170988095Y-104283334D01*
X171302381Y-105278572D02*
X171302381Y-105959524D01*
X170883333Y-105592858D01*
X170883333Y-105750000D01*
X170830952Y-105854762D01*
X170778571Y-105907143D01*
X170673810Y-105959524D01*
X170411905Y-105959524D01*
X170307143Y-105907143D01*
X170254762Y-105854762D01*
X170202381Y-105750000D01*
X170202381Y-105435715D01*
X170254762Y-105330953D01*
X170307143Y-105278572D01*
X167916667Y-103340477D02*
X167916667Y-103864286D01*
X167602381Y-103235715D02*
X168702381Y-103602382D01*
X167602381Y-103969048D01*
X167602381Y-104911905D02*
X167602381Y-104283334D01*
X167602381Y-104597620D02*
X168702381Y-104597620D01*
X168545238Y-104492858D01*
X168440476Y-104388096D01*
X168388095Y-104283334D01*
X168597619Y-105330953D02*
X168650000Y-105383334D01*
X168702381Y-105488096D01*
X168702381Y-105750000D01*
X168650000Y-105854762D01*
X168597619Y-105907143D01*
X168492857Y-105959524D01*
X168388095Y-105959524D01*
X168230952Y-105907143D01*
X167602381Y-105278572D01*
X167602381Y-105959524D01*
X165216667Y-103340477D02*
X165216667Y-103864286D01*
X164902381Y-103235715D02*
X166002381Y-103602382D01*
X164902381Y-103969048D01*
X164902381Y-104911905D02*
X164902381Y-104283334D01*
X164902381Y-104597620D02*
X166002381Y-104597620D01*
X165845238Y-104492858D01*
X165740476Y-104388096D01*
X165688095Y-104283334D01*
X164902381Y-105959524D02*
X164902381Y-105330953D01*
X164902381Y-105645239D02*
X166002381Y-105645239D01*
X165845238Y-105540477D01*
X165740476Y-105435715D01*
X165688095Y-105330953D01*
X189440477Y-116033333D02*
X189964286Y-116033333D01*
X189335715Y-116347619D02*
X189702382Y-115247619D01*
X190069048Y-116347619D01*
X191011905Y-116347619D02*
X190383334Y-116347619D01*
X190697620Y-116347619D02*
X190697620Y-115247619D01*
X190592858Y-115404762D01*
X190488096Y-115509524D01*
X190383334Y-115561905D01*
X191692858Y-115247619D02*
X191797619Y-115247619D01*
X191902381Y-115300000D01*
X191954762Y-115352381D01*
X192007143Y-115457143D01*
X192059524Y-115666667D01*
X192059524Y-115928571D01*
X192007143Y-116138095D01*
X191954762Y-116242857D01*
X191902381Y-116295238D01*
X191797619Y-116347619D01*
X191692858Y-116347619D01*
X191588096Y-116295238D01*
X191535715Y-116242857D01*
X191483334Y-116138095D01*
X191430953Y-115928571D01*
X191430953Y-115666667D01*
X191483334Y-115457143D01*
X191535715Y-115352381D01*
X191588096Y-115300000D01*
X191692858Y-115247619D01*
X187164286Y-116033333D02*
X187688095Y-116033333D01*
X187059524Y-116347619D02*
X187426191Y-115247619D01*
X187792857Y-116347619D01*
X188211905Y-116347619D02*
X188421429Y-116347619D01*
X188526190Y-116295238D01*
X188578571Y-116242857D01*
X188683333Y-116085714D01*
X188735714Y-115876190D01*
X188735714Y-115457143D01*
X188683333Y-115352381D01*
X188630952Y-115300000D01*
X188526190Y-115247619D01*
X188316667Y-115247619D01*
X188211905Y-115300000D01*
X188159524Y-115352381D01*
X188107143Y-115457143D01*
X188107143Y-115719048D01*
X188159524Y-115823810D01*
X188211905Y-115876190D01*
X188316667Y-115928571D01*
X188526190Y-115928571D01*
X188630952Y-115876190D01*
X188683333Y-115823810D01*
X188735714Y-115719048D01*
X184564286Y-116133333D02*
X185088095Y-116133333D01*
X184459524Y-116447619D02*
X184826191Y-115347619D01*
X185192857Y-116447619D01*
X185716667Y-115819048D02*
X185611905Y-115766667D01*
X185559524Y-115714286D01*
X185507143Y-115609524D01*
X185507143Y-115557143D01*
X185559524Y-115452381D01*
X185611905Y-115400000D01*
X185716667Y-115347619D01*
X185926190Y-115347619D01*
X186030952Y-115400000D01*
X186083333Y-115452381D01*
X186135714Y-115557143D01*
X186135714Y-115609524D01*
X186083333Y-115714286D01*
X186030952Y-115766667D01*
X185926190Y-115819048D01*
X185716667Y-115819048D01*
X185611905Y-115871429D01*
X185559524Y-115923810D01*
X185507143Y-116028571D01*
X185507143Y-116238095D01*
X185559524Y-116342857D01*
X185611905Y-116395238D01*
X185716667Y-116447619D01*
X185926190Y-116447619D01*
X186030952Y-116395238D01*
X186083333Y-116342857D01*
X186135714Y-116238095D01*
X186135714Y-116028571D01*
X186083333Y-115923810D01*
X186030952Y-115871429D01*
X185926190Y-115819048D01*
X182264286Y-116133333D02*
X182788095Y-116133333D01*
X182159524Y-116447619D02*
X182526191Y-115347619D01*
X182892857Y-116447619D01*
X183154762Y-115347619D02*
X183888095Y-115347619D01*
X183416667Y-116447619D01*
X179464286Y-116033333D02*
X179988095Y-116033333D01*
X179359524Y-116347619D02*
X179726191Y-115247619D01*
X180092857Y-116347619D01*
X180930952Y-115247619D02*
X180721429Y-115247619D01*
X180616667Y-115300000D01*
X180564286Y-115352381D01*
X180459524Y-115509524D01*
X180407143Y-115719048D01*
X180407143Y-116138095D01*
X180459524Y-116242857D01*
X180511905Y-116295238D01*
X180616667Y-116347619D01*
X180826190Y-116347619D01*
X180930952Y-116295238D01*
X180983333Y-116242857D01*
X181035714Y-116138095D01*
X181035714Y-115876190D01*
X180983333Y-115771429D01*
X180930952Y-115719048D01*
X180826190Y-115666667D01*
X180616667Y-115666667D01*
X180511905Y-115719048D01*
X180459524Y-115771429D01*
X180407143Y-115876190D01*
X175064286Y-116033333D02*
X175588095Y-116033333D01*
X174959524Y-116347619D02*
X175326191Y-115247619D01*
X175692857Y-116347619D01*
X176530952Y-115247619D02*
X176321429Y-115247619D01*
X176216667Y-115300000D01*
X176164286Y-115352381D01*
X176059524Y-115509524D01*
X176007143Y-115719048D01*
X176007143Y-116138095D01*
X176059524Y-116242857D01*
X176111905Y-116295238D01*
X176216667Y-116347619D01*
X176426190Y-116347619D01*
X176530952Y-116295238D01*
X176583333Y-116242857D01*
X176635714Y-116138095D01*
X176635714Y-115876190D01*
X176583333Y-115771429D01*
X176530952Y-115719048D01*
X176426190Y-115666667D01*
X176216667Y-115666667D01*
X176111905Y-115719048D01*
X176059524Y-115771429D01*
X176007143Y-115876190D01*
X172664286Y-116033333D02*
X173188095Y-116033333D01*
X172559524Y-116347619D02*
X172926191Y-115247619D01*
X173292857Y-116347619D01*
X174130952Y-115247619D02*
X173921429Y-115247619D01*
X173816667Y-115300000D01*
X173764286Y-115352381D01*
X173659524Y-115509524D01*
X173607143Y-115719048D01*
X173607143Y-116138095D01*
X173659524Y-116242857D01*
X173711905Y-116295238D01*
X173816667Y-116347619D01*
X174026190Y-116347619D01*
X174130952Y-116295238D01*
X174183333Y-116242857D01*
X174235714Y-116138095D01*
X174235714Y-115876190D01*
X174183333Y-115771429D01*
X174130952Y-115719048D01*
X174026190Y-115666667D01*
X173816667Y-115666667D01*
X173711905Y-115719048D01*
X173659524Y-115771429D01*
X173607143Y-115876190D01*
X169864286Y-116133333D02*
X170388095Y-116133333D01*
X169759524Y-116447619D02*
X170126191Y-115347619D01*
X170492857Y-116447619D01*
X171330952Y-115347619D02*
X171121429Y-115347619D01*
X171016667Y-115400000D01*
X170964286Y-115452381D01*
X170859524Y-115609524D01*
X170807143Y-115819048D01*
X170807143Y-116238095D01*
X170859524Y-116342857D01*
X170911905Y-116395238D01*
X171016667Y-116447619D01*
X171226190Y-116447619D01*
X171330952Y-116395238D01*
X171383333Y-116342857D01*
X171435714Y-116238095D01*
X171435714Y-115976190D01*
X171383333Y-115871429D01*
X171330952Y-115819048D01*
X171226190Y-115766667D01*
X171016667Y-115766667D01*
X170911905Y-115819048D01*
X170859524Y-115871429D01*
X170807143Y-115976190D01*
X167364286Y-116133333D02*
X167888095Y-116133333D01*
X167259524Y-116447619D02*
X167626191Y-115347619D01*
X167992857Y-116447619D01*
X168254762Y-115347619D02*
X168988095Y-115347619D01*
X168516667Y-116447619D01*
X164764286Y-116233333D02*
X165288095Y-116233333D01*
X164659524Y-116547619D02*
X165026191Y-115447619D01*
X165392857Y-116547619D01*
X166230952Y-115447619D02*
X166021429Y-115447619D01*
X165916667Y-115500000D01*
X165864286Y-115552381D01*
X165759524Y-115709524D01*
X165707143Y-115919048D01*
X165707143Y-116338095D01*
X165759524Y-116442857D01*
X165811905Y-116495238D01*
X165916667Y-116547619D01*
X166126190Y-116547619D01*
X166230952Y-116495238D01*
X166283333Y-116442857D01*
X166335714Y-116338095D01*
X166335714Y-116076190D01*
X166283333Y-115971429D01*
X166230952Y-115919048D01*
X166126190Y-115866667D01*
X165916667Y-115866667D01*
X165811905Y-115919048D01*
X165759524Y-115971429D01*
X165707143Y-116076190D01*
X147316667Y-110614286D02*
X147316667Y-111138095D01*
X147002381Y-110509524D02*
X148102381Y-110876191D01*
X147002381Y-111242857D01*
X148102381Y-112133333D02*
X148102381Y-111609524D01*
X147578571Y-111557143D01*
X147630952Y-111609524D01*
X147683333Y-111714286D01*
X147683333Y-111976190D01*
X147630952Y-112080952D01*
X147578571Y-112133333D01*
X147473810Y-112185714D01*
X147211905Y-112185714D01*
X147107143Y-112133333D01*
X147054762Y-112080952D01*
X147002381Y-111976190D01*
X147002381Y-111714286D01*
X147054762Y-111609524D01*
X147107143Y-111557143D01*
X144616667Y-110614286D02*
X144616667Y-111138095D01*
X144302381Y-110509524D02*
X145402381Y-110876191D01*
X144302381Y-111242857D01*
X145035714Y-112080952D02*
X144302381Y-112080952D01*
X145454762Y-111819048D02*
X144669048Y-111557143D01*
X144669048Y-112238095D01*
X142216667Y-110614286D02*
X142216667Y-111138095D01*
X141902381Y-110509524D02*
X143002381Y-110876191D01*
X141902381Y-111242857D01*
X143002381Y-111504762D02*
X143002381Y-112185714D01*
X142583333Y-111819048D01*
X142583333Y-111976190D01*
X142530952Y-112080952D01*
X142478571Y-112133333D01*
X142373810Y-112185714D01*
X142111905Y-112185714D01*
X142007143Y-112133333D01*
X141954762Y-112080952D01*
X141902381Y-111976190D01*
X141902381Y-111661905D01*
X141954762Y-111557143D01*
X142007143Y-111504762D01*
X139816667Y-110614286D02*
X139816667Y-111138095D01*
X139502381Y-110509524D02*
X140602381Y-110876191D01*
X139502381Y-111242857D01*
X140497619Y-111557143D02*
X140550000Y-111609524D01*
X140602381Y-111714286D01*
X140602381Y-111976190D01*
X140550000Y-112080952D01*
X140497619Y-112133333D01*
X140392857Y-112185714D01*
X140288095Y-112185714D01*
X140130952Y-112133333D01*
X139502381Y-111504762D01*
X139502381Y-112185714D01*
X137316667Y-110614286D02*
X137316667Y-111138095D01*
X137002381Y-110509524D02*
X138102381Y-110876191D01*
X137002381Y-111242857D01*
X137002381Y-112185714D02*
X137002381Y-111557143D01*
X137002381Y-111871429D02*
X138102381Y-111871429D01*
X137945238Y-111766667D01*
X137840476Y-111661905D01*
X137788095Y-111557143D01*
X134516667Y-110514286D02*
X134516667Y-111038095D01*
X134202381Y-110409524D02*
X135302381Y-110776191D01*
X134202381Y-111142857D01*
X135302381Y-111719048D02*
X135302381Y-111823809D01*
X135250000Y-111928571D01*
X135197619Y-111980952D01*
X135092857Y-112033333D01*
X134883333Y-112085714D01*
X134621429Y-112085714D01*
X134411905Y-112033333D01*
X134307143Y-111980952D01*
X134254762Y-111928571D01*
X134202381Y-111823809D01*
X134202381Y-111719048D01*
X134254762Y-111614286D01*
X134307143Y-111561905D01*
X134411905Y-111509524D01*
X134621429Y-111457143D01*
X134883333Y-111457143D01*
X135092857Y-111509524D01*
X135197619Y-111561905D01*
X135250000Y-111614286D01*
X135302381Y-111719048D01*
X130302381Y-110295238D02*
X129202381Y-110661905D01*
X130302381Y-111028571D01*
X129202381Y-111395238D02*
X130302381Y-111395238D01*
X129202381Y-111919048D02*
X130302381Y-111919048D01*
X129202381Y-112547619D01*
X130302381Y-112547619D01*
X127450000Y-110161905D02*
X127502381Y-110057143D01*
X127502381Y-109900000D01*
X127450000Y-109742858D01*
X127345238Y-109638096D01*
X127240476Y-109585715D01*
X127030952Y-109533334D01*
X126873810Y-109533334D01*
X126664286Y-109585715D01*
X126559524Y-109638096D01*
X126454762Y-109742858D01*
X126402381Y-109900000D01*
X126402381Y-110004762D01*
X126454762Y-110161905D01*
X126507143Y-110214286D01*
X126873810Y-110214286D01*
X126873810Y-110004762D01*
X126402381Y-110685715D02*
X127502381Y-110685715D01*
X126402381Y-111314286D01*
X127502381Y-111314286D01*
X126402381Y-111838096D02*
X127502381Y-111838096D01*
X127502381Y-112100001D01*
X127450000Y-112257143D01*
X127345238Y-112361905D01*
X127240476Y-112414286D01*
X127030952Y-112466667D01*
X126873810Y-112466667D01*
X126664286Y-112414286D01*
X126559524Y-112361905D01*
X126454762Y-112257143D01*
X126402381Y-112100001D01*
X126402381Y-111838096D01*
X125150000Y-110161905D02*
X125202381Y-110057143D01*
X125202381Y-109900000D01*
X125150000Y-109742858D01*
X125045238Y-109638096D01*
X124940476Y-109585715D01*
X124730952Y-109533334D01*
X124573810Y-109533334D01*
X124364286Y-109585715D01*
X124259524Y-109638096D01*
X124154762Y-109742858D01*
X124102381Y-109900000D01*
X124102381Y-110004762D01*
X124154762Y-110161905D01*
X124207143Y-110214286D01*
X124573810Y-110214286D01*
X124573810Y-110004762D01*
X124102381Y-110685715D02*
X125202381Y-110685715D01*
X124102381Y-111314286D01*
X125202381Y-111314286D01*
X124102381Y-111838096D02*
X125202381Y-111838096D01*
X125202381Y-112100001D01*
X125150000Y-112257143D01*
X125045238Y-112361905D01*
X124940476Y-112414286D01*
X124730952Y-112466667D01*
X124573810Y-112466667D01*
X124364286Y-112414286D01*
X124259524Y-112361905D01*
X124154762Y-112257143D01*
X124102381Y-112100001D01*
X124102381Y-111838096D01*
X122702381Y-111390476D02*
X122702381Y-110866667D01*
X122178571Y-110814286D01*
X122230952Y-110866667D01*
X122283333Y-110971429D01*
X122283333Y-111233333D01*
X122230952Y-111338095D01*
X122178571Y-111390476D01*
X122073810Y-111442857D01*
X121811905Y-111442857D01*
X121707143Y-111390476D01*
X121654762Y-111338095D01*
X121602381Y-111233333D01*
X121602381Y-110971429D01*
X121654762Y-110866667D01*
X121707143Y-110814286D01*
X122702381Y-111757143D02*
X121602381Y-112123810D01*
X122702381Y-112490476D01*
X120202381Y-110661905D02*
X120202381Y-111342857D01*
X119783333Y-110976191D01*
X119783333Y-111133333D01*
X119730952Y-111238095D01*
X119678571Y-111290476D01*
X119573810Y-111342857D01*
X119311905Y-111342857D01*
X119207143Y-111290476D01*
X119154762Y-111238095D01*
X119102381Y-111133333D01*
X119102381Y-110819048D01*
X119154762Y-110714286D01*
X119207143Y-110661905D01*
X120202381Y-111657143D02*
X119102381Y-112023810D01*
X120202381Y-112390476D01*
X116602381Y-108602381D02*
X117126190Y-108235715D01*
X116602381Y-107973810D02*
X117702381Y-107973810D01*
X117702381Y-108392857D01*
X117650000Y-108497619D01*
X117597619Y-108550000D01*
X117492857Y-108602381D01*
X117335714Y-108602381D01*
X117230952Y-108550000D01*
X117178571Y-108497619D01*
X117126190Y-108392857D01*
X117126190Y-107973810D01*
X117178571Y-109073810D02*
X117178571Y-109440476D01*
X116602381Y-109597619D02*
X116602381Y-109073810D01*
X117702381Y-109073810D01*
X117702381Y-109597619D01*
X116654762Y-110016667D02*
X116602381Y-110173810D01*
X116602381Y-110435714D01*
X116654762Y-110540476D01*
X116707143Y-110592857D01*
X116811905Y-110645238D01*
X116916667Y-110645238D01*
X117021429Y-110592857D01*
X117073810Y-110540476D01*
X117126190Y-110435714D01*
X117178571Y-110226191D01*
X117230952Y-110121429D01*
X117283333Y-110069048D01*
X117388095Y-110016667D01*
X117492857Y-110016667D01*
X117597619Y-110069048D01*
X117650000Y-110121429D01*
X117702381Y-110226191D01*
X117702381Y-110488095D01*
X117650000Y-110645238D01*
X117178571Y-111116667D02*
X117178571Y-111483333D01*
X116602381Y-111640476D02*
X116602381Y-111116667D01*
X117702381Y-111116667D01*
X117702381Y-111640476D01*
X117702381Y-111954762D02*
X117702381Y-112583333D01*
X116602381Y-112269048D02*
X117702381Y-112269048D01*
X114002381Y-108304762D02*
X115102381Y-108304762D01*
X115102381Y-109038096D02*
X115102381Y-109247619D01*
X115050000Y-109352381D01*
X114945238Y-109457143D01*
X114735714Y-109509524D01*
X114369048Y-109509524D01*
X114159524Y-109457143D01*
X114054762Y-109352381D01*
X114002381Y-109247619D01*
X114002381Y-109038096D01*
X114054762Y-108933334D01*
X114159524Y-108828572D01*
X114369048Y-108776191D01*
X114735714Y-108776191D01*
X114945238Y-108828572D01*
X115050000Y-108933334D01*
X115102381Y-109038096D01*
X114002381Y-110609524D02*
X114526190Y-110242858D01*
X114002381Y-109980953D02*
X115102381Y-109980953D01*
X115102381Y-110400000D01*
X115050000Y-110504762D01*
X114997619Y-110557143D01*
X114892857Y-110609524D01*
X114735714Y-110609524D01*
X114630952Y-110557143D01*
X114578571Y-110504762D01*
X114526190Y-110400000D01*
X114526190Y-109980953D01*
X114578571Y-111080953D02*
X114578571Y-111447619D01*
X114002381Y-111604762D02*
X114002381Y-111080953D01*
X115102381Y-111080953D01*
X115102381Y-111604762D01*
X114578571Y-112442857D02*
X114578571Y-112076191D01*
X114002381Y-112076191D02*
X115102381Y-112076191D01*
X115102381Y-112600000D01*
X111402381Y-109790477D02*
X112502381Y-109790477D01*
X112502381Y-110052382D01*
X112450000Y-110209524D01*
X112345238Y-110314286D01*
X112240476Y-110366667D01*
X112030952Y-110419048D01*
X111873810Y-110419048D01*
X111664286Y-110366667D01*
X111559524Y-110314286D01*
X111454762Y-110209524D01*
X111402381Y-110052382D01*
X111402381Y-109790477D01*
X111716667Y-110838096D02*
X111716667Y-111361905D01*
X111402381Y-110733334D02*
X112502381Y-111100001D01*
X111402381Y-111466667D01*
X111507143Y-112461905D02*
X111454762Y-112409524D01*
X111402381Y-112252381D01*
X111402381Y-112147619D01*
X111454762Y-111990477D01*
X111559524Y-111885715D01*
X111664286Y-111833334D01*
X111873810Y-111780953D01*
X112030952Y-111780953D01*
X112240476Y-111833334D01*
X112345238Y-111885715D01*
X112450000Y-111990477D01*
X112502381Y-112147619D01*
X112502381Y-112252381D01*
X112450000Y-112409524D01*
X112397619Y-112461905D01*
X131770381Y-116300285D02*
X131770381Y-116871714D01*
X131770381Y-116586000D02*
X130770381Y-116586000D01*
X130913238Y-116681238D01*
X131008476Y-116776476D01*
X131056095Y-116871714D01*
X201168000Y-115316000D02*
X201168000Y-69596000D01*
X196088000Y-69596000D02*
X196088000Y-112776000D01*
X201168000Y-69596000D02*
X196088000Y-69596000D01*
X201168000Y-115316000D02*
X198628000Y-115316000D01*
X195808000Y-114046000D02*
X195808000Y-115596000D01*
X198628000Y-115316000D02*
X198628000Y-112776000D01*
X198628000Y-112776000D02*
X196088000Y-112776000D01*
X195808000Y-115596000D02*
X197358000Y-115596000D01*
X132588000Y-120396000D02*
X150368000Y-120396000D01*
X150368000Y-120396000D02*
X150368000Y-117856000D01*
X150368000Y-117856000D02*
X132588000Y-117856000D01*
X129768000Y-120676000D02*
X131318000Y-120676000D01*
X132588000Y-120396000D02*
X132588000Y-117856000D01*
X131318000Y-117576000D02*
X129768000Y-117576000D01*
X129768000Y-117576000D02*
X129768000Y-120676000D01*
X155448000Y-120396000D02*
X173228000Y-120396000D01*
X173228000Y-120396000D02*
X173228000Y-117856000D01*
X173228000Y-117856000D02*
X155448000Y-117856000D01*
X152628000Y-120676000D02*
X154178000Y-120676000D01*
X155448000Y-120396000D02*
X155448000Y-117856000D01*
X154178000Y-117576000D02*
X152628000Y-117576000D01*
X152628000Y-117576000D02*
X152628000Y-120676000D01*
X178308000Y-120396000D02*
X196088000Y-120396000D01*
X196088000Y-120396000D02*
X196088000Y-117856000D01*
X196088000Y-117856000D02*
X178308000Y-117856000D01*
X175488000Y-120676000D02*
X177038000Y-120676000D01*
X178308000Y-120396000D02*
X178308000Y-117856000D01*
X177038000Y-117576000D02*
X175488000Y-117576000D01*
X175488000Y-117576000D02*
X175488000Y-120676000D01*
X123444000Y-72136000D02*
X146304000Y-72136000D01*
X146304000Y-72136000D02*
X146304000Y-69596000D01*
X146304000Y-69596000D02*
X123444000Y-69596000D01*
X120624000Y-72416000D02*
X122174000Y-72416000D01*
X123444000Y-72136000D02*
X123444000Y-69596000D01*
X122174000Y-69316000D02*
X120624000Y-69316000D01*
X120624000Y-69316000D02*
X120624000Y-72416000D01*
X150368000Y-72136000D02*
X168148000Y-72136000D01*
X168148000Y-72136000D02*
X168148000Y-69596000D01*
X168148000Y-69596000D02*
X150368000Y-69596000D01*
X147548000Y-72416000D02*
X149098000Y-72416000D01*
X150368000Y-72136000D02*
X150368000Y-69596000D01*
X149098000Y-69316000D02*
X147548000Y-69316000D01*
X147548000Y-69316000D02*
X147548000Y-72416000D01*
X173228000Y-72136000D02*
X191008000Y-72136000D01*
X191008000Y-72136000D02*
X191008000Y-69596000D01*
X191008000Y-69596000D02*
X173228000Y-69596000D01*
X170408000Y-72416000D02*
X171958000Y-72416000D01*
X173228000Y-72136000D02*
X173228000Y-69596000D01*
X171958000Y-69316000D02*
X170408000Y-69316000D01*
X170408000Y-69316000D02*
X170408000Y-72416000D01*
X113290000Y-115970000D02*
X131070000Y-115970000D01*
X131070000Y-115970000D02*
X131070000Y-113430000D01*
X131070000Y-113430000D02*
X113290000Y-113430000D01*
X110470000Y-116250000D02*
X112020000Y-116250000D01*
X113290000Y-115970000D02*
X113290000Y-113430000D01*
X112020000Y-113150000D02*
X110470000Y-113150000D01*
X110470000Y-113150000D02*
X110470000Y-116250000D01*
X136170000Y-115970000D02*
X148870000Y-115970000D01*
X148870000Y-115970000D02*
X148870000Y-113430000D01*
X148870000Y-113430000D02*
X136170000Y-113430000D01*
X133350000Y-116250000D02*
X134900000Y-116250000D01*
X136170000Y-115970000D02*
X136170000Y-113430000D01*
X134900000Y-113150000D02*
X133350000Y-113150000D01*
X133350000Y-113150000D02*
X133350000Y-116250000D01*
X104350000Y-67770000D02*
X127210000Y-67770000D01*
X127210000Y-67770000D02*
X127210000Y-65230000D01*
X127210000Y-65230000D02*
X104350000Y-65230000D01*
X101530000Y-68050000D02*
X103080000Y-68050000D01*
X104350000Y-67770000D02*
X104350000Y-65230000D01*
X103080000Y-64950000D02*
X101530000Y-64950000D01*
X101530000Y-64950000D02*
X101530000Y-68050000D01*
X131130000Y-67770000D02*
X148910000Y-67770000D01*
X148910000Y-67770000D02*
X148910000Y-65230000D01*
X148910000Y-65230000D02*
X131130000Y-65230000D01*
X128310000Y-68050000D02*
X129860000Y-68050000D01*
X131130000Y-67770000D02*
X131130000Y-65230000D01*
X129860000Y-64950000D02*
X128310000Y-64950000D01*
X128310000Y-64950000D02*
X128310000Y-68050000D01*
D12*
X166880000Y-114780000D02*
X177100000Y-114780000D01*
X177100000Y-114780000D02*
X177100000Y-112120000D01*
X177100000Y-112120000D02*
X166880000Y-112120000D01*
X166880000Y-112120000D02*
X166880000Y-114780000D01*
X165610000Y-114780000D02*
X164280000Y-114780000D01*
X164280000Y-114780000D02*
X164280000Y-113450000D01*
X181480000Y-114880000D02*
X191700000Y-114880000D01*
X191700000Y-114880000D02*
X191700000Y-112220000D01*
X191700000Y-112220000D02*
X181480000Y-112220000D01*
X181480000Y-112220000D02*
X181480000Y-114880000D01*
X180210000Y-114880000D02*
X178880000Y-114880000D01*
X178880000Y-114880000D02*
X178880000Y-113550000D01*
X166750000Y-102980000D02*
X176970000Y-102980000D01*
X176970000Y-102980000D02*
X176970000Y-100320000D01*
X176970000Y-100320000D02*
X166750000Y-100320000D01*
X166750000Y-100320000D02*
X166750000Y-102980000D01*
X165480000Y-102980000D02*
X164150000Y-102980000D01*
X164150000Y-102980000D02*
X164150000Y-101650000D01*
X181130000Y-103030000D02*
X193890000Y-103030000D01*
X193890000Y-103030000D02*
X193890000Y-100370000D01*
X193890000Y-100370000D02*
X181130000Y-100370000D01*
X181130000Y-100370000D02*
X181130000Y-103030000D01*
X179860000Y-103030000D02*
X178530000Y-103030000D01*
X178530000Y-103030000D02*
X178530000Y-101700000D01*
X167420000Y-92430000D02*
X177640000Y-92430000D01*
X177640000Y-92430000D02*
X177640000Y-89770000D01*
X177640000Y-89770000D02*
X167420000Y-89770000D01*
X167420000Y-89770000D02*
X167420000Y-92430000D01*
X166150000Y-92430000D02*
X164820000Y-92430000D01*
X164820000Y-92430000D02*
X164820000Y-91100000D01*
X182990000Y-92480000D02*
X193210000Y-92480000D01*
X193210000Y-92480000D02*
X193210000Y-89820000D01*
X193210000Y-89820000D02*
X182990000Y-89820000D01*
X182990000Y-89820000D02*
X182990000Y-92480000D01*
X181720000Y-92480000D02*
X180390000Y-92480000D01*
X180390000Y-92480000D02*
X180390000Y-91150000D01*
X167470000Y-82230000D02*
X177690000Y-82230000D01*
X177690000Y-82230000D02*
X177690000Y-79570000D01*
X177690000Y-79570000D02*
X167470000Y-79570000D01*
X167470000Y-79570000D02*
X167470000Y-82230000D01*
X166200000Y-82230000D02*
X164870000Y-82230000D01*
X164870000Y-82230000D02*
X164870000Y-80900000D01*
X183080000Y-82080000D02*
X193300000Y-82080000D01*
X193300000Y-82080000D02*
X193300000Y-79420000D01*
X193300000Y-79420000D02*
X183080000Y-79420000D01*
X183080000Y-79420000D02*
X183080000Y-82080000D01*
X181810000Y-82080000D02*
X180480000Y-82080000D01*
X180480000Y-82080000D02*
X180480000Y-80750000D01*
X166860000Y-112280000D02*
X177080000Y-112280000D01*
X177080000Y-112280000D02*
X177080000Y-109620000D01*
X177080000Y-109620000D02*
X166860000Y-109620000D01*
X166860000Y-109620000D02*
X166860000Y-112280000D01*
X165590000Y-112280000D02*
X164260000Y-112280000D01*
X164260000Y-112280000D02*
X164260000Y-110950000D01*
X181460000Y-112380000D02*
X191680000Y-112380000D01*
X191680000Y-112380000D02*
X191680000Y-109720000D01*
X191680000Y-109720000D02*
X181460000Y-109720000D01*
X181460000Y-109720000D02*
X181460000Y-112380000D01*
X180190000Y-112380000D02*
X178860000Y-112380000D01*
X178860000Y-112380000D02*
X178860000Y-111050000D01*
X166790000Y-100380000D02*
X177010000Y-100380000D01*
X177010000Y-100380000D02*
X177010000Y-97720000D01*
X177010000Y-97720000D02*
X166790000Y-97720000D01*
X166790000Y-97720000D02*
X166790000Y-100380000D01*
X165520000Y-100380000D02*
X164190000Y-100380000D01*
X164190000Y-100380000D02*
X164190000Y-99050000D01*
X181150000Y-100530000D02*
X193910000Y-100530000D01*
X193910000Y-100530000D02*
X193910000Y-97870000D01*
X193910000Y-97870000D02*
X181150000Y-97870000D01*
X181150000Y-97870000D02*
X181150000Y-100530000D01*
X179880000Y-100530000D02*
X178550000Y-100530000D01*
X178550000Y-100530000D02*
X178550000Y-99200000D01*
X175040000Y-87270000D02*
X164820000Y-87270000D01*
X164820000Y-87270000D02*
X164820000Y-89930000D01*
X164820000Y-89930000D02*
X175040000Y-89930000D01*
X175040000Y-89930000D02*
X175040000Y-87270000D01*
X176310000Y-87270000D02*
X177640000Y-87270000D01*
X177640000Y-87270000D02*
X177640000Y-88600000D01*
X182970000Y-89980000D02*
X193190000Y-89980000D01*
X193190000Y-89980000D02*
X193190000Y-87320000D01*
X193190000Y-87320000D02*
X182970000Y-87320000D01*
X182970000Y-87320000D02*
X182970000Y-89980000D01*
X181700000Y-89980000D02*
X180370000Y-89980000D01*
X180370000Y-89980000D02*
X180370000Y-88650000D01*
X183020000Y-79580000D02*
X193240000Y-79580000D01*
X193240000Y-79580000D02*
X193240000Y-76920000D01*
X193240000Y-76920000D02*
X183020000Y-76920000D01*
X183020000Y-76920000D02*
X183020000Y-79580000D01*
X181750000Y-79580000D02*
X180420000Y-79580000D01*
X180420000Y-79580000D02*
X180420000Y-78250000D01*
X167470000Y-79730000D02*
X177690000Y-79730000D01*
X177690000Y-79730000D02*
X177690000Y-77070000D01*
X177690000Y-77070000D02*
X167470000Y-77070000D01*
X167470000Y-77070000D02*
X167470000Y-79730000D01*
X166200000Y-79730000D02*
X164870000Y-79730000D01*
X164870000Y-79730000D02*
X164870000Y-78400000D01*
X166880000Y-109680000D02*
X177100000Y-109680000D01*
X177100000Y-109680000D02*
X177100000Y-107020000D01*
X177100000Y-107020000D02*
X166880000Y-107020000D01*
X166880000Y-107020000D02*
X166880000Y-109680000D01*
X165610000Y-109680000D02*
X164280000Y-109680000D01*
X164280000Y-109680000D02*
X164280000Y-108350000D01*
X181520000Y-109780000D02*
X191740000Y-109780000D01*
X191740000Y-109780000D02*
X191740000Y-107120000D01*
X191740000Y-107120000D02*
X181520000Y-107120000D01*
X181520000Y-107120000D02*
X181520000Y-109780000D01*
X180250000Y-109780000D02*
X178920000Y-109780000D01*
X178920000Y-109780000D02*
X178920000Y-108450000D01*
X166790000Y-97780000D02*
X177010000Y-97780000D01*
X177010000Y-97780000D02*
X177010000Y-95120000D01*
X177010000Y-95120000D02*
X166790000Y-95120000D01*
X166790000Y-95120000D02*
X166790000Y-97780000D01*
X165520000Y-97780000D02*
X164190000Y-97780000D01*
X164190000Y-97780000D02*
X164190000Y-96450000D01*
X181150000Y-98030000D02*
X193910000Y-98030000D01*
X193910000Y-98030000D02*
X193910000Y-95370000D01*
X193910000Y-95370000D02*
X181150000Y-95370000D01*
X181150000Y-95370000D02*
X181150000Y-98030000D01*
X179880000Y-98030000D02*
X178550000Y-98030000D01*
X178550000Y-98030000D02*
X178550000Y-96700000D01*
X167420000Y-87430000D02*
X177640000Y-87430000D01*
X177640000Y-87430000D02*
X177640000Y-84770000D01*
X177640000Y-84770000D02*
X167420000Y-84770000D01*
X167420000Y-84770000D02*
X167420000Y-87430000D01*
X166150000Y-87430000D02*
X164820000Y-87430000D01*
X164820000Y-87430000D02*
X164820000Y-86100000D01*
X182970000Y-87480000D02*
X193190000Y-87480000D01*
X193190000Y-87480000D02*
X193190000Y-84820000D01*
X193190000Y-84820000D02*
X182970000Y-84820000D01*
X182970000Y-84820000D02*
X182970000Y-87480000D01*
X181700000Y-87480000D02*
X180370000Y-87480000D01*
X180370000Y-87480000D02*
X180370000Y-86150000D01*
X183020000Y-77080000D02*
X193240000Y-77080000D01*
X193240000Y-77080000D02*
X193240000Y-74420000D01*
X193240000Y-74420000D02*
X183020000Y-74420000D01*
X183020000Y-74420000D02*
X183020000Y-77080000D01*
X181750000Y-77080000D02*
X180420000Y-77080000D01*
X180420000Y-77080000D02*
X180420000Y-75750000D01*
X167470000Y-77230000D02*
X177690000Y-77230000D01*
X177690000Y-77230000D02*
X177690000Y-74570000D01*
X177690000Y-74570000D02*
X167470000Y-74570000D01*
X167470000Y-74570000D02*
X167470000Y-77230000D01*
X166200000Y-77230000D02*
X164870000Y-77230000D01*
X164870000Y-77230000D02*
X164870000Y-75900000D01*
X105580000Y-102730000D02*
X105580000Y-97590000D01*
X105580000Y-97590000D02*
X102920000Y-97590000D01*
X102920000Y-97590000D02*
X102920000Y-102730000D01*
X102920000Y-102730000D02*
X105580000Y-102730000D01*
X105580000Y-104000000D02*
X105580000Y-105330000D01*
X105580000Y-105330000D02*
X104250000Y-105330000D01*
X106080000Y-115130000D02*
X106080000Y-109990000D01*
X106080000Y-109990000D02*
X103420000Y-109990000D01*
X103420000Y-109990000D02*
X103420000Y-115130000D01*
X103420000Y-115130000D02*
X106080000Y-115130000D01*
X106080000Y-116400000D02*
X106080000Y-117730000D01*
X106080000Y-117730000D02*
X104750000Y-117730000D01*
X146480000Y-88020000D02*
X146480000Y-93160000D01*
X146480000Y-93160000D02*
X151680000Y-93160000D01*
X151680000Y-93160000D02*
X151680000Y-85420000D01*
X151680000Y-85420000D02*
X149080000Y-85420000D01*
X149080000Y-85420000D02*
X149080000Y-88020000D01*
X149080000Y-88020000D02*
X146480000Y-88020000D01*
X146480000Y-86750000D02*
X146480000Y-85420000D01*
X146480000Y-85420000D02*
X147810000Y-85420000D01*
X151954455Y-108073605D02*
X151954455Y-115753605D01*
X151954455Y-115753605D02*
X154614455Y-115753605D01*
X154614455Y-115753605D02*
X154614455Y-108073605D01*
X154614455Y-108073605D02*
X151954455Y-108073605D01*
X151954455Y-106803605D02*
X151954455Y-105473605D01*
X151954455Y-105473605D02*
X153284455Y-105473605D01*
X154554455Y-108113605D02*
X154554455Y-115793605D01*
X154554455Y-115793605D02*
X157214455Y-115793605D01*
X157214455Y-115793605D02*
X157214455Y-108113605D01*
X157214455Y-108113605D02*
X154554455Y-108113605D01*
X154554455Y-106843605D02*
X154554455Y-105513605D01*
X154554455Y-105513605D02*
X155884455Y-105513605D01*
X157154455Y-108133605D02*
X157154455Y-115813605D01*
X157154455Y-115813605D02*
X159814455Y-115813605D01*
X159814455Y-115813605D02*
X159814455Y-108133605D01*
X159814455Y-108133605D02*
X157154455Y-108133605D01*
X157154455Y-106863605D02*
X157154455Y-105533605D01*
X157154455Y-105533605D02*
X158484455Y-105533605D01*
X159754455Y-108113605D02*
X159754455Y-115793605D01*
X159754455Y-115793605D02*
X162414455Y-115793605D01*
X162414455Y-115793605D02*
X162414455Y-108113605D01*
X162414455Y-108113605D02*
X159754455Y-108113605D01*
X159754455Y-106843605D02*
X159754455Y-105513605D01*
X159754455Y-105513605D02*
X161084455Y-105513605D01*
D11*
X195016381Y-93194095D02*
X194016381Y-93194095D01*
X194016381Y-92813142D01*
X194064000Y-92717904D01*
X194111619Y-92670285D01*
X194206857Y-92622666D01*
X194349714Y-92622666D01*
X194444952Y-92670285D01*
X194492571Y-92717904D01*
X194540190Y-92813142D01*
X194540190Y-93194095D01*
X195016381Y-91670285D02*
X195016381Y-92241714D01*
X195016381Y-91956000D02*
X194016381Y-91956000D01*
X194159238Y-92051238D01*
X194254476Y-92146476D01*
X194302095Y-92241714D01*
X128852381Y-119738095D02*
X127852381Y-119738095D01*
X127852381Y-119357142D01*
X127900000Y-119261904D01*
X127947619Y-119214285D01*
X128042857Y-119166666D01*
X128185714Y-119166666D01*
X128280952Y-119214285D01*
X128328571Y-119261904D01*
X128376190Y-119357142D01*
X128376190Y-119738095D01*
X127947619Y-118785714D02*
X127900000Y-118738095D01*
X127852381Y-118642857D01*
X127852381Y-118404761D01*
X127900000Y-118309523D01*
X127947619Y-118261904D01*
X128042857Y-118214285D01*
X128138095Y-118214285D01*
X128280952Y-118261904D01*
X128852381Y-118833333D01*
X128852381Y-118214285D01*
X152052381Y-119938095D02*
X151052381Y-119938095D01*
X151052381Y-119557142D01*
X151100000Y-119461904D01*
X151147619Y-119414285D01*
X151242857Y-119366666D01*
X151385714Y-119366666D01*
X151480952Y-119414285D01*
X151528571Y-119461904D01*
X151576190Y-119557142D01*
X151576190Y-119938095D01*
X151052381Y-119033333D02*
X151052381Y-118414285D01*
X151433333Y-118747619D01*
X151433333Y-118604761D01*
X151480952Y-118509523D01*
X151528571Y-118461904D01*
X151623810Y-118414285D01*
X151861905Y-118414285D01*
X151957143Y-118461904D01*
X152004762Y-118509523D01*
X152052381Y-118604761D01*
X152052381Y-118890476D01*
X152004762Y-118985714D01*
X151957143Y-119033333D01*
X175152381Y-119938095D02*
X174152381Y-119938095D01*
X174152381Y-119557142D01*
X174200000Y-119461904D01*
X174247619Y-119414285D01*
X174342857Y-119366666D01*
X174485714Y-119366666D01*
X174580952Y-119414285D01*
X174628571Y-119461904D01*
X174676190Y-119557142D01*
X174676190Y-119938095D01*
X174485714Y-118509523D02*
X175152381Y-118509523D01*
X174104762Y-118747619D02*
X174819048Y-118985714D01*
X174819048Y-118366666D01*
X132865905Y-74112381D02*
X132865905Y-73112381D01*
X133246858Y-73112381D01*
X133342096Y-73160000D01*
X133389715Y-73207619D01*
X133437334Y-73302857D01*
X133437334Y-73445714D01*
X133389715Y-73540952D01*
X133342096Y-73588571D01*
X133246858Y-73636190D01*
X132865905Y-73636190D01*
X134342096Y-73112381D02*
X133865905Y-73112381D01*
X133818286Y-73588571D01*
X133865905Y-73540952D01*
X133961143Y-73493333D01*
X134199239Y-73493333D01*
X134294477Y-73540952D01*
X134342096Y-73588571D01*
X134389715Y-73683810D01*
X134389715Y-73921905D01*
X134342096Y-74017143D01*
X134294477Y-74064762D01*
X134199239Y-74112381D01*
X133961143Y-74112381D01*
X133865905Y-74064762D01*
X133818286Y-74017143D01*
X157249905Y-74112381D02*
X157249905Y-73112381D01*
X157630858Y-73112381D01*
X157726096Y-73160000D01*
X157773715Y-73207619D01*
X157821334Y-73302857D01*
X157821334Y-73445714D01*
X157773715Y-73540952D01*
X157726096Y-73588571D01*
X157630858Y-73636190D01*
X157249905Y-73636190D01*
X158678477Y-73112381D02*
X158488000Y-73112381D01*
X158392762Y-73160000D01*
X158345143Y-73207619D01*
X158249905Y-73350476D01*
X158202286Y-73540952D01*
X158202286Y-73921905D01*
X158249905Y-74017143D01*
X158297524Y-74064762D01*
X158392762Y-74112381D01*
X158583239Y-74112381D01*
X158678477Y-74064762D01*
X158726096Y-74017143D01*
X158773715Y-73921905D01*
X158773715Y-73683810D01*
X158726096Y-73588571D01*
X158678477Y-73540952D01*
X158583239Y-73493333D01*
X158392762Y-73493333D01*
X158297524Y-73540952D01*
X158249905Y-73588571D01*
X158202286Y-73683810D01*
X178161905Y-73852381D02*
X178161905Y-72852381D01*
X178542858Y-72852381D01*
X178638096Y-72900000D01*
X178685715Y-72947619D01*
X178733334Y-73042857D01*
X178733334Y-73185714D01*
X178685715Y-73280952D01*
X178638096Y-73328571D01*
X178542858Y-73376190D01*
X178161905Y-73376190D01*
X179066667Y-72852381D02*
X179733334Y-72852381D01*
X179304762Y-73852381D01*
X109552381Y-115414286D02*
X108552381Y-115414286D01*
X108552381Y-115033333D01*
X108600000Y-114938095D01*
X108647619Y-114890476D01*
X108742857Y-114842857D01*
X108885714Y-114842857D01*
X108980952Y-114890476D01*
X109028571Y-114938095D01*
X109076190Y-115033333D01*
X109076190Y-115414286D01*
X109552381Y-113890476D02*
X109552381Y-114461905D01*
X109552381Y-114176191D02*
X108552381Y-114176191D01*
X108695238Y-114271429D01*
X108790476Y-114366667D01*
X108838095Y-114461905D01*
X108885714Y-113033333D02*
X109552381Y-113033333D01*
X108504762Y-113271429D02*
X109219048Y-113509524D01*
X109219048Y-112890476D01*
X132752381Y-115914286D02*
X131752381Y-115914286D01*
X131752381Y-115533333D01*
X131800000Y-115438095D01*
X131847619Y-115390476D01*
X131942857Y-115342857D01*
X132085714Y-115342857D01*
X132180952Y-115390476D01*
X132228571Y-115438095D01*
X132276190Y-115533333D01*
X132276190Y-115914286D01*
X132752381Y-114390476D02*
X132752381Y-114961905D01*
X132752381Y-114676191D02*
X131752381Y-114676191D01*
X131895238Y-114771429D01*
X131990476Y-114866667D01*
X132038095Y-114961905D01*
X131752381Y-113485714D02*
X131752381Y-113961905D01*
X132228571Y-114009524D01*
X132180952Y-113961905D01*
X132133333Y-113866667D01*
X132133333Y-113628571D01*
X132180952Y-113533333D01*
X132228571Y-113485714D01*
X132323810Y-113438095D01*
X132561905Y-113438095D01*
X132657143Y-113485714D01*
X132704762Y-113533333D01*
X132752381Y-113628571D01*
X132752381Y-113866667D01*
X132704762Y-113961905D01*
X132657143Y-114009524D01*
X101835714Y-69352381D02*
X101835714Y-68352381D01*
X102216667Y-68352381D01*
X102311905Y-68400000D01*
X102359524Y-68447619D01*
X102407143Y-68542857D01*
X102407143Y-68685714D01*
X102359524Y-68780952D01*
X102311905Y-68828571D01*
X102216667Y-68876190D01*
X101835714Y-68876190D01*
X103359524Y-69352381D02*
X102788095Y-69352381D01*
X103073809Y-69352381D02*
X103073809Y-68352381D01*
X102978571Y-68495238D01*
X102883333Y-68590476D01*
X102788095Y-68638095D01*
X104216667Y-68352381D02*
X104026190Y-68352381D01*
X103930952Y-68400000D01*
X103883333Y-68447619D01*
X103788095Y-68590476D01*
X103740476Y-68780952D01*
X103740476Y-69161905D01*
X103788095Y-69257143D01*
X103835714Y-69304762D01*
X103930952Y-69352381D01*
X104121429Y-69352381D01*
X104216667Y-69304762D01*
X104264286Y-69257143D01*
X104311905Y-69161905D01*
X104311905Y-68923810D01*
X104264286Y-68828571D01*
X104216667Y-68780952D01*
X104121429Y-68733333D01*
X103930952Y-68733333D01*
X103835714Y-68780952D01*
X103788095Y-68828571D01*
X103740476Y-68923810D01*
X151785714Y-67952381D02*
X151785714Y-66952381D01*
X152166667Y-66952381D01*
X152261905Y-67000000D01*
X152309524Y-67047619D01*
X152357143Y-67142857D01*
X152357143Y-67285714D01*
X152309524Y-67380952D01*
X152261905Y-67428571D01*
X152166667Y-67476190D01*
X151785714Y-67476190D01*
X153309524Y-67952381D02*
X152738095Y-67952381D01*
X153023809Y-67952381D02*
X153023809Y-66952381D01*
X152928571Y-67095238D01*
X152833333Y-67190476D01*
X152738095Y-67238095D01*
X153642857Y-66952381D02*
X154309524Y-66952381D01*
X153880952Y-67952381D01*
X162732381Y-113783333D02*
X163446667Y-113783333D01*
X163589524Y-113830953D01*
X163684762Y-113926191D01*
X163732381Y-114069048D01*
X163732381Y-114164286D01*
X163732381Y-112783333D02*
X163732381Y-113354762D01*
X163732381Y-113069048D02*
X162732381Y-113069048D01*
X162875238Y-113164286D01*
X162970476Y-113259524D01*
X163018095Y-113354762D01*
X177332381Y-113883333D02*
X178046667Y-113883333D01*
X178189524Y-113930953D01*
X178284762Y-114026191D01*
X178332381Y-114169048D01*
X178332381Y-114264286D01*
X177427619Y-113454762D02*
X177380000Y-113407143D01*
X177332381Y-113311905D01*
X177332381Y-113073809D01*
X177380000Y-112978571D01*
X177427619Y-112930952D01*
X177522857Y-112883333D01*
X177618095Y-112883333D01*
X177760952Y-112930952D01*
X178332381Y-113502381D01*
X178332381Y-112883333D01*
X162602381Y-101983333D02*
X163316667Y-101983333D01*
X163459524Y-102030953D01*
X163554762Y-102126191D01*
X163602381Y-102269048D01*
X163602381Y-102364286D01*
X162602381Y-101602381D02*
X162602381Y-100983333D01*
X162983333Y-101316667D01*
X162983333Y-101173809D01*
X163030952Y-101078571D01*
X163078571Y-101030952D01*
X163173810Y-100983333D01*
X163411905Y-100983333D01*
X163507143Y-101030952D01*
X163554762Y-101078571D01*
X163602381Y-101173809D01*
X163602381Y-101459524D01*
X163554762Y-101554762D01*
X163507143Y-101602381D01*
X176982381Y-102033333D02*
X177696667Y-102033333D01*
X177839524Y-102080953D01*
X177934762Y-102176191D01*
X177982381Y-102319048D01*
X177982381Y-102414286D01*
X177315714Y-101128571D02*
X177982381Y-101128571D01*
X176934762Y-101366667D02*
X177649048Y-101604762D01*
X177649048Y-100985714D01*
X163272381Y-91433333D02*
X163986667Y-91433333D01*
X164129524Y-91480953D01*
X164224762Y-91576191D01*
X164272381Y-91719048D01*
X164272381Y-91814286D01*
X163272381Y-90480952D02*
X163272381Y-90957143D01*
X163748571Y-91004762D01*
X163700952Y-90957143D01*
X163653333Y-90861905D01*
X163653333Y-90623809D01*
X163700952Y-90528571D01*
X163748571Y-90480952D01*
X163843810Y-90433333D01*
X164081905Y-90433333D01*
X164177143Y-90480952D01*
X164224762Y-90528571D01*
X164272381Y-90623809D01*
X164272381Y-90861905D01*
X164224762Y-90957143D01*
X164177143Y-91004762D01*
X178842381Y-91483333D02*
X179556667Y-91483333D01*
X179699524Y-91530953D01*
X179794762Y-91626191D01*
X179842381Y-91769048D01*
X179842381Y-91864286D01*
X178842381Y-90578571D02*
X178842381Y-90769048D01*
X178890000Y-90864286D01*
X178937619Y-90911905D01*
X179080476Y-91007143D01*
X179270952Y-91054762D01*
X179651905Y-91054762D01*
X179747143Y-91007143D01*
X179794762Y-90959524D01*
X179842381Y-90864286D01*
X179842381Y-90673809D01*
X179794762Y-90578571D01*
X179747143Y-90530952D01*
X179651905Y-90483333D01*
X179413810Y-90483333D01*
X179318571Y-90530952D01*
X179270952Y-90578571D01*
X179223333Y-90673809D01*
X179223333Y-90864286D01*
X179270952Y-90959524D01*
X179318571Y-91007143D01*
X179413810Y-91054762D01*
X163322381Y-81233333D02*
X164036667Y-81233333D01*
X164179524Y-81280953D01*
X164274762Y-81376191D01*
X164322381Y-81519048D01*
X164322381Y-81614286D01*
X163322381Y-80852381D02*
X163322381Y-80185714D01*
X164322381Y-80614286D01*
X178932381Y-81083333D02*
X179646667Y-81083333D01*
X179789524Y-81130953D01*
X179884762Y-81226191D01*
X179932381Y-81369048D01*
X179932381Y-81464286D01*
X179360952Y-80464286D02*
X179313333Y-80559524D01*
X179265714Y-80607143D01*
X179170476Y-80654762D01*
X179122857Y-80654762D01*
X179027619Y-80607143D01*
X178980000Y-80559524D01*
X178932381Y-80464286D01*
X178932381Y-80273809D01*
X178980000Y-80178571D01*
X179027619Y-80130952D01*
X179122857Y-80083333D01*
X179170476Y-80083333D01*
X179265714Y-80130952D01*
X179313333Y-80178571D01*
X179360952Y-80273809D01*
X179360952Y-80464286D01*
X179408571Y-80559524D01*
X179456190Y-80607143D01*
X179551429Y-80654762D01*
X179741905Y-80654762D01*
X179837143Y-80607143D01*
X179884762Y-80559524D01*
X179932381Y-80464286D01*
X179932381Y-80273809D01*
X179884762Y-80178571D01*
X179837143Y-80130952D01*
X179741905Y-80083333D01*
X179551429Y-80083333D01*
X179456190Y-80130952D01*
X179408571Y-80178571D01*
X179360952Y-80273809D01*
X162712381Y-111283333D02*
X163426667Y-111283333D01*
X163569524Y-111330953D01*
X163664762Y-111426191D01*
X163712381Y-111569048D01*
X163712381Y-111664286D01*
X163712381Y-110759524D02*
X163712381Y-110569048D01*
X163664762Y-110473809D01*
X163617143Y-110426190D01*
X163474286Y-110330952D01*
X163283810Y-110283333D01*
X162902857Y-110283333D01*
X162807619Y-110330952D01*
X162760000Y-110378571D01*
X162712381Y-110473809D01*
X162712381Y-110664286D01*
X162760000Y-110759524D01*
X162807619Y-110807143D01*
X162902857Y-110854762D01*
X163140952Y-110854762D01*
X163236190Y-110807143D01*
X163283810Y-110759524D01*
X163331429Y-110664286D01*
X163331429Y-110473809D01*
X163283810Y-110378571D01*
X163236190Y-110330952D01*
X163140952Y-110283333D01*
X177312381Y-111859523D02*
X178026667Y-111859523D01*
X178169524Y-111907143D01*
X178264762Y-112002381D01*
X178312381Y-112145238D01*
X178312381Y-112240476D01*
X178312381Y-110859523D02*
X178312381Y-111430952D01*
X178312381Y-111145238D02*
X177312381Y-111145238D01*
X177455238Y-111240476D01*
X177550476Y-111335714D01*
X177598095Y-111430952D01*
X177312381Y-110240476D02*
X177312381Y-110145237D01*
X177360000Y-110049999D01*
X177407619Y-110002380D01*
X177502857Y-109954761D01*
X177693333Y-109907142D01*
X177931429Y-109907142D01*
X178121905Y-109954761D01*
X178217143Y-110002380D01*
X178264762Y-110049999D01*
X178312381Y-110145237D01*
X178312381Y-110240476D01*
X178264762Y-110335714D01*
X178217143Y-110383333D01*
X178121905Y-110430952D01*
X177931429Y-110478571D01*
X177693333Y-110478571D01*
X177502857Y-110430952D01*
X177407619Y-110383333D01*
X177360000Y-110335714D01*
X177312381Y-110240476D01*
X162642381Y-99859523D02*
X163356667Y-99859523D01*
X163499524Y-99907143D01*
X163594762Y-100002381D01*
X163642381Y-100145238D01*
X163642381Y-100240476D01*
X163642381Y-98859523D02*
X163642381Y-99430952D01*
X163642381Y-99145238D02*
X162642381Y-99145238D01*
X162785238Y-99240476D01*
X162880476Y-99335714D01*
X162928095Y-99430952D01*
X163642381Y-97907142D02*
X163642381Y-98478571D01*
X163642381Y-98192857D02*
X162642381Y-98192857D01*
X162785238Y-98288095D01*
X162880476Y-98383333D01*
X162928095Y-98478571D01*
X177002381Y-100009523D02*
X177716667Y-100009523D01*
X177859524Y-100057143D01*
X177954762Y-100152381D01*
X178002381Y-100295238D01*
X178002381Y-100390476D01*
X178002381Y-99009523D02*
X178002381Y-99580952D01*
X178002381Y-99295238D02*
X177002381Y-99295238D01*
X177145238Y-99390476D01*
X177240476Y-99485714D01*
X177288095Y-99580952D01*
X177097619Y-98628571D02*
X177050000Y-98580952D01*
X177002381Y-98485714D01*
X177002381Y-98247618D01*
X177050000Y-98152380D01*
X177097619Y-98104761D01*
X177192857Y-98057142D01*
X177288095Y-98057142D01*
X177430952Y-98104761D01*
X178002381Y-98676190D01*
X178002381Y-98057142D01*
X178092381Y-89409523D02*
X178806667Y-89409523D01*
X178949524Y-89457143D01*
X179044762Y-89552381D01*
X179092381Y-89695238D01*
X179092381Y-89790476D01*
X179092381Y-88409523D02*
X179092381Y-88980952D01*
X179092381Y-88695238D02*
X178092381Y-88695238D01*
X178235238Y-88790476D01*
X178330476Y-88885714D01*
X178378095Y-88980952D01*
X178092381Y-88076190D02*
X178092381Y-87457142D01*
X178473333Y-87790476D01*
X178473333Y-87647618D01*
X178520952Y-87552380D01*
X178568571Y-87504761D01*
X178663810Y-87457142D01*
X178901905Y-87457142D01*
X178997143Y-87504761D01*
X179044762Y-87552380D01*
X179092381Y-87647618D01*
X179092381Y-87933333D01*
X179044762Y-88028571D01*
X178997143Y-88076190D01*
X178822381Y-89459523D02*
X179536667Y-89459523D01*
X179679524Y-89507143D01*
X179774762Y-89602381D01*
X179822381Y-89745238D01*
X179822381Y-89840476D01*
X179822381Y-88459523D02*
X179822381Y-89030952D01*
X179822381Y-88745238D02*
X178822381Y-88745238D01*
X178965238Y-88840476D01*
X179060476Y-88935714D01*
X179108095Y-89030952D01*
X179155714Y-87602380D02*
X179822381Y-87602380D01*
X178774762Y-87840476D02*
X179489048Y-88078571D01*
X179489048Y-87459523D01*
X178872381Y-79059523D02*
X179586667Y-79059523D01*
X179729524Y-79107143D01*
X179824762Y-79202381D01*
X179872381Y-79345238D01*
X179872381Y-79440476D01*
X179872381Y-78059523D02*
X179872381Y-78630952D01*
X179872381Y-78345238D02*
X178872381Y-78345238D01*
X179015238Y-78440476D01*
X179110476Y-78535714D01*
X179158095Y-78630952D01*
X178872381Y-77154761D02*
X178872381Y-77630952D01*
X179348571Y-77678571D01*
X179300952Y-77630952D01*
X179253333Y-77535714D01*
X179253333Y-77297618D01*
X179300952Y-77202380D01*
X179348571Y-77154761D01*
X179443810Y-77107142D01*
X179681905Y-77107142D01*
X179777143Y-77154761D01*
X179824762Y-77202380D01*
X179872381Y-77297618D01*
X179872381Y-77535714D01*
X179824762Y-77630952D01*
X179777143Y-77678571D01*
X163322381Y-79209523D02*
X164036667Y-79209523D01*
X164179524Y-79257143D01*
X164274762Y-79352381D01*
X164322381Y-79495238D01*
X164322381Y-79590476D01*
X164322381Y-78209523D02*
X164322381Y-78780952D01*
X164322381Y-78495238D02*
X163322381Y-78495238D01*
X163465238Y-78590476D01*
X163560476Y-78685714D01*
X163608095Y-78780952D01*
X163322381Y-77352380D02*
X163322381Y-77542857D01*
X163370000Y-77638095D01*
X163417619Y-77685714D01*
X163560476Y-77780952D01*
X163750952Y-77828571D01*
X164131905Y-77828571D01*
X164227143Y-77780952D01*
X164274762Y-77733333D01*
X164322381Y-77638095D01*
X164322381Y-77447618D01*
X164274762Y-77352380D01*
X164227143Y-77304761D01*
X164131905Y-77257142D01*
X163893810Y-77257142D01*
X163798571Y-77304761D01*
X163750952Y-77352380D01*
X163703333Y-77447618D01*
X163703333Y-77638095D01*
X163750952Y-77733333D01*
X163798571Y-77780952D01*
X163893810Y-77828571D01*
X162732381Y-109159523D02*
X163446667Y-109159523D01*
X163589524Y-109207143D01*
X163684762Y-109302381D01*
X163732381Y-109445238D01*
X163732381Y-109540476D01*
X163732381Y-108159523D02*
X163732381Y-108730952D01*
X163732381Y-108445238D02*
X162732381Y-108445238D01*
X162875238Y-108540476D01*
X162970476Y-108635714D01*
X163018095Y-108730952D01*
X162732381Y-107826190D02*
X162732381Y-107159523D01*
X163732381Y-107588095D01*
X177372381Y-109259523D02*
X178086667Y-109259523D01*
X178229524Y-109307143D01*
X178324762Y-109402381D01*
X178372381Y-109545238D01*
X178372381Y-109640476D01*
X178372381Y-108259523D02*
X178372381Y-108830952D01*
X178372381Y-108545238D02*
X177372381Y-108545238D01*
X177515238Y-108640476D01*
X177610476Y-108735714D01*
X177658095Y-108830952D01*
X177800952Y-107688095D02*
X177753333Y-107783333D01*
X177705714Y-107830952D01*
X177610476Y-107878571D01*
X177562857Y-107878571D01*
X177467619Y-107830952D01*
X177420000Y-107783333D01*
X177372381Y-107688095D01*
X177372381Y-107497618D01*
X177420000Y-107402380D01*
X177467619Y-107354761D01*
X177562857Y-107307142D01*
X177610476Y-107307142D01*
X177705714Y-107354761D01*
X177753333Y-107402380D01*
X177800952Y-107497618D01*
X177800952Y-107688095D01*
X177848571Y-107783333D01*
X177896190Y-107830952D01*
X177991429Y-107878571D01*
X178181905Y-107878571D01*
X178277143Y-107830952D01*
X178324762Y-107783333D01*
X178372381Y-107688095D01*
X178372381Y-107497618D01*
X178324762Y-107402380D01*
X178277143Y-107354761D01*
X178181905Y-107307142D01*
X177991429Y-107307142D01*
X177896190Y-107354761D01*
X177848571Y-107402380D01*
X177800952Y-107497618D01*
X162642381Y-97259523D02*
X163356667Y-97259523D01*
X163499524Y-97307143D01*
X163594762Y-97402381D01*
X163642381Y-97545238D01*
X163642381Y-97640476D01*
X163642381Y-96259523D02*
X163642381Y-96830952D01*
X163642381Y-96545238D02*
X162642381Y-96545238D01*
X162785238Y-96640476D01*
X162880476Y-96735714D01*
X162928095Y-96830952D01*
X163642381Y-95783333D02*
X163642381Y-95592857D01*
X163594762Y-95497618D01*
X163547143Y-95449999D01*
X163404286Y-95354761D01*
X163213810Y-95307142D01*
X162832857Y-95307142D01*
X162737619Y-95354761D01*
X162690000Y-95402380D01*
X162642381Y-95497618D01*
X162642381Y-95688095D01*
X162690000Y-95783333D01*
X162737619Y-95830952D01*
X162832857Y-95878571D01*
X163070952Y-95878571D01*
X163166190Y-95830952D01*
X163213810Y-95783333D01*
X163261429Y-95688095D01*
X163261429Y-95497618D01*
X163213810Y-95402380D01*
X163166190Y-95354761D01*
X163070952Y-95307142D01*
X177002381Y-97509523D02*
X177716667Y-97509523D01*
X177859524Y-97557143D01*
X177954762Y-97652381D01*
X178002381Y-97795238D01*
X178002381Y-97890476D01*
X177097619Y-97080952D02*
X177050000Y-97033333D01*
X177002381Y-96938095D01*
X177002381Y-96699999D01*
X177050000Y-96604761D01*
X177097619Y-96557142D01*
X177192857Y-96509523D01*
X177288095Y-96509523D01*
X177430952Y-96557142D01*
X178002381Y-97128571D01*
X178002381Y-96509523D01*
X177002381Y-95890476D02*
X177002381Y-95795237D01*
X177050000Y-95699999D01*
X177097619Y-95652380D01*
X177192857Y-95604761D01*
X177383333Y-95557142D01*
X177621429Y-95557142D01*
X177811905Y-95604761D01*
X177907143Y-95652380D01*
X177954762Y-95699999D01*
X178002381Y-95795237D01*
X178002381Y-95890476D01*
X177954762Y-95985714D01*
X177907143Y-96033333D01*
X177811905Y-96080952D01*
X177621429Y-96128571D01*
X177383333Y-96128571D01*
X177192857Y-96080952D01*
X177097619Y-96033333D01*
X177050000Y-95985714D01*
X177002381Y-95890476D01*
X163272381Y-86909523D02*
X163986667Y-86909523D01*
X164129524Y-86957143D01*
X164224762Y-87052381D01*
X164272381Y-87195238D01*
X164272381Y-87290476D01*
X163367619Y-86480952D02*
X163320000Y-86433333D01*
X163272381Y-86338095D01*
X163272381Y-86099999D01*
X163320000Y-86004761D01*
X163367619Y-85957142D01*
X163462857Y-85909523D01*
X163558095Y-85909523D01*
X163700952Y-85957142D01*
X164272381Y-86528571D01*
X164272381Y-85909523D01*
X164272381Y-84957142D02*
X164272381Y-85528571D01*
X164272381Y-85242857D02*
X163272381Y-85242857D01*
X163415238Y-85338095D01*
X163510476Y-85433333D01*
X163558095Y-85528571D01*
X178822381Y-86959523D02*
X179536667Y-86959523D01*
X179679524Y-87007143D01*
X179774762Y-87102381D01*
X179822381Y-87245238D01*
X179822381Y-87340476D01*
X178917619Y-86530952D02*
X178870000Y-86483333D01*
X178822381Y-86388095D01*
X178822381Y-86149999D01*
X178870000Y-86054761D01*
X178917619Y-86007142D01*
X179012857Y-85959523D01*
X179108095Y-85959523D01*
X179250952Y-86007142D01*
X179822381Y-86578571D01*
X179822381Y-85959523D01*
X178917619Y-85578571D02*
X178870000Y-85530952D01*
X178822381Y-85435714D01*
X178822381Y-85197618D01*
X178870000Y-85102380D01*
X178917619Y-85054761D01*
X179012857Y-85007142D01*
X179108095Y-85007142D01*
X179250952Y-85054761D01*
X179822381Y-85626190D01*
X179822381Y-85007142D01*
X178872381Y-76559523D02*
X179586667Y-76559523D01*
X179729524Y-76607143D01*
X179824762Y-76702381D01*
X179872381Y-76845238D01*
X179872381Y-76940476D01*
X178967619Y-76130952D02*
X178920000Y-76083333D01*
X178872381Y-75988095D01*
X178872381Y-75749999D01*
X178920000Y-75654761D01*
X178967619Y-75607142D01*
X179062857Y-75559523D01*
X179158095Y-75559523D01*
X179300952Y-75607142D01*
X179872381Y-76178571D01*
X179872381Y-75559523D01*
X178872381Y-75226190D02*
X178872381Y-74607142D01*
X179253333Y-74940476D01*
X179253333Y-74797618D01*
X179300952Y-74702380D01*
X179348571Y-74654761D01*
X179443810Y-74607142D01*
X179681905Y-74607142D01*
X179777143Y-74654761D01*
X179824762Y-74702380D01*
X179872381Y-74797618D01*
X179872381Y-75083333D01*
X179824762Y-75178571D01*
X179777143Y-75226190D01*
X163322381Y-76709523D02*
X164036667Y-76709523D01*
X164179524Y-76757143D01*
X164274762Y-76852381D01*
X164322381Y-76995238D01*
X164322381Y-77090476D01*
X163417619Y-76280952D02*
X163370000Y-76233333D01*
X163322381Y-76138095D01*
X163322381Y-75899999D01*
X163370000Y-75804761D01*
X163417619Y-75757142D01*
X163512857Y-75709523D01*
X163608095Y-75709523D01*
X163750952Y-75757142D01*
X164322381Y-76328571D01*
X164322381Y-75709523D01*
X163655714Y-74852380D02*
X164322381Y-74852380D01*
X163274762Y-75090476D02*
X163989048Y-75328571D01*
X163989048Y-74709523D01*
X103440477Y-105782381D02*
X103440477Y-106496667D01*
X103392857Y-106639524D01*
X103297619Y-106734762D01*
X103154762Y-106782381D01*
X103059524Y-106782381D01*
X103869048Y-105877619D02*
X103916667Y-105830000D01*
X104011905Y-105782381D01*
X104250001Y-105782381D01*
X104345239Y-105830000D01*
X104392858Y-105877619D01*
X104440477Y-105972857D01*
X104440477Y-106068095D01*
X104392858Y-106210952D01*
X103821429Y-106782381D01*
X104440477Y-106782381D01*
X105345239Y-105782381D02*
X104869048Y-105782381D01*
X104821429Y-106258571D01*
X104869048Y-106210952D01*
X104964286Y-106163333D01*
X105202382Y-106163333D01*
X105297620Y-106210952D01*
X105345239Y-106258571D01*
X105392858Y-106353810D01*
X105392858Y-106591905D01*
X105345239Y-106687143D01*
X105297620Y-106734762D01*
X105202382Y-106782381D01*
X104964286Y-106782381D01*
X104869048Y-106734762D01*
X104821429Y-106687143D01*
X103940477Y-118182381D02*
X103940477Y-118896667D01*
X103892857Y-119039524D01*
X103797619Y-119134762D01*
X103654762Y-119182381D01*
X103559524Y-119182381D01*
X104369048Y-118277619D02*
X104416667Y-118230000D01*
X104511905Y-118182381D01*
X104750001Y-118182381D01*
X104845239Y-118230000D01*
X104892858Y-118277619D01*
X104940477Y-118372857D01*
X104940477Y-118468095D01*
X104892858Y-118610952D01*
X104321429Y-119182381D01*
X104940477Y-119182381D01*
X105797620Y-118182381D02*
X105607143Y-118182381D01*
X105511905Y-118230000D01*
X105464286Y-118277619D01*
X105369048Y-118420476D01*
X105321429Y-118610952D01*
X105321429Y-118991905D01*
X105369048Y-119087143D01*
X105416667Y-119134762D01*
X105511905Y-119182381D01*
X105702382Y-119182381D01*
X105797620Y-119134762D01*
X105845239Y-119087143D01*
X105892858Y-118991905D01*
X105892858Y-118753810D01*
X105845239Y-118658571D01*
X105797620Y-118610952D01*
X105702382Y-118563333D01*
X105511905Y-118563333D01*
X105416667Y-118610952D01*
X105369048Y-118658571D01*
X105321429Y-118753810D01*
X148270477Y-83872381D02*
X148270477Y-84586667D01*
X148222857Y-84729524D01*
X148127619Y-84824762D01*
X147984762Y-84872381D01*
X147889524Y-84872381D01*
X148699048Y-83967619D02*
X148746667Y-83920000D01*
X148841905Y-83872381D01*
X149080001Y-83872381D01*
X149175239Y-83920000D01*
X149222858Y-83967619D01*
X149270477Y-84062857D01*
X149270477Y-84158095D01*
X149222858Y-84300952D01*
X148651429Y-84872381D01*
X149270477Y-84872381D01*
X149603810Y-83872381D02*
X150270477Y-83872381D01*
X149841905Y-84872381D01*
X152390477Y-101852381D02*
X152390477Y-102566667D01*
X152342857Y-102709524D01*
X152247619Y-102804762D01*
X152104762Y-102852381D01*
X152009524Y-102852381D01*
X152819048Y-101947619D02*
X152866667Y-101900000D01*
X152961905Y-101852381D01*
X153200001Y-101852381D01*
X153295239Y-101900000D01*
X153342858Y-101947619D01*
X153390477Y-102042857D01*
X153390477Y-102138095D01*
X153342858Y-102280952D01*
X152771429Y-102852381D01*
X153390477Y-102852381D01*
X153961905Y-102280952D02*
X153866667Y-102233333D01*
X153819048Y-102185714D01*
X153771429Y-102090476D01*
X153771429Y-102042857D01*
X153819048Y-101947619D01*
X153866667Y-101900000D01*
X153961905Y-101852381D01*
X154152382Y-101852381D01*
X154247620Y-101900000D01*
X154295239Y-101947619D01*
X154342858Y-102042857D01*
X154342858Y-102090476D01*
X154295239Y-102185714D01*
X154247620Y-102233333D01*
X154152382Y-102280952D01*
X153961905Y-102280952D01*
X153866667Y-102328571D01*
X153819048Y-102376190D01*
X153771429Y-102471429D01*
X153771429Y-102661905D01*
X153819048Y-102757143D01*
X153866667Y-102804762D01*
X153961905Y-102852381D01*
X154152382Y-102852381D01*
X154247620Y-102804762D01*
X154295239Y-102757143D01*
X154342858Y-102661905D01*
X154342858Y-102471429D01*
X154295239Y-102376190D01*
X154247620Y-102328571D01*
X154152382Y-102280952D01*
X154990477Y-101802381D02*
X154990477Y-102516667D01*
X154942857Y-102659524D01*
X154847619Y-102754762D01*
X154704762Y-102802381D01*
X154609524Y-102802381D01*
X155419048Y-101897619D02*
X155466667Y-101850000D01*
X155561905Y-101802381D01*
X155800001Y-101802381D01*
X155895239Y-101850000D01*
X155942858Y-101897619D01*
X155990477Y-101992857D01*
X155990477Y-102088095D01*
X155942858Y-102230952D01*
X155371429Y-102802381D01*
X155990477Y-102802381D01*
X156466667Y-102802381D02*
X156657143Y-102802381D01*
X156752382Y-102754762D01*
X156800001Y-102707143D01*
X156895239Y-102564286D01*
X156942858Y-102373810D01*
X156942858Y-101992857D01*
X156895239Y-101897619D01*
X156847620Y-101850000D01*
X156752382Y-101802381D01*
X156561905Y-101802381D01*
X156466667Y-101850000D01*
X156419048Y-101897619D01*
X156371429Y-101992857D01*
X156371429Y-102230952D01*
X156419048Y-102326190D01*
X156466667Y-102373810D01*
X156561905Y-102421429D01*
X156752382Y-102421429D01*
X156847620Y-102373810D01*
X156895239Y-102326190D01*
X156942858Y-102230952D01*
X157640477Y-101802381D02*
X157640477Y-102516667D01*
X157592857Y-102659524D01*
X157497619Y-102754762D01*
X157354762Y-102802381D01*
X157259524Y-102802381D01*
X158021429Y-101802381D02*
X158640477Y-101802381D01*
X158307143Y-102183333D01*
X158450001Y-102183333D01*
X158545239Y-102230952D01*
X158592858Y-102278571D01*
X158640477Y-102373810D01*
X158640477Y-102611905D01*
X158592858Y-102707143D01*
X158545239Y-102754762D01*
X158450001Y-102802381D01*
X158164286Y-102802381D01*
X158069048Y-102754762D01*
X158021429Y-102707143D01*
X159259524Y-101802381D02*
X159354763Y-101802381D01*
X159450001Y-101850000D01*
X159497620Y-101897619D01*
X159545239Y-101992857D01*
X159592858Y-102183333D01*
X159592858Y-102421429D01*
X159545239Y-102611905D01*
X159497620Y-102707143D01*
X159450001Y-102754762D01*
X159354763Y-102802381D01*
X159259524Y-102802381D01*
X159164286Y-102754762D01*
X159116667Y-102707143D01*
X159069048Y-102611905D01*
X159021429Y-102421429D01*
X159021429Y-102183333D01*
X159069048Y-101992857D01*
X159116667Y-101897619D01*
X159164286Y-101850000D01*
X159259524Y-101802381D01*
X160290477Y-101752381D02*
X160290477Y-102466667D01*
X160242857Y-102609524D01*
X160147619Y-102704762D01*
X160004762Y-102752381D01*
X159909524Y-102752381D01*
X160671429Y-101752381D02*
X161290477Y-101752381D01*
X160957143Y-102133333D01*
X161100001Y-102133333D01*
X161195239Y-102180952D01*
X161242858Y-102228571D01*
X161290477Y-102323810D01*
X161290477Y-102561905D01*
X161242858Y-102657143D01*
X161195239Y-102704762D01*
X161100001Y-102752381D01*
X160814286Y-102752381D01*
X160719048Y-102704762D01*
X160671429Y-102657143D01*
X162242858Y-102752381D02*
X161671429Y-102752381D01*
X161957143Y-102752381D02*
X161957143Y-101752381D01*
X161861905Y-101895238D01*
X161766667Y-101990476D01*
X161671429Y-102038095D01*
M02*
