G04 #@! TF.FileFunction,Legend,Top*
%FSLAX46Y46*%
G04 Gerber Fmt 4.6, Leading zero omitted, Abs format (unit mm)*
G04 Created by KiCad (PCBNEW 4.0.4-stable) date 01/06/17 20:42:19*
%MOMM*%
%LPD*%
G01*
G04 APERTURE LIST*
%ADD10C,0.100000*%
%ADD11C,0.300000*%
%ADD12C,0.150000*%
G04 APERTURE END LIST*
D10*
D11*
X72168000Y-96167571D02*
X72168000Y-94667571D01*
X72739428Y-94667571D01*
X72882286Y-94739000D01*
X72953714Y-94810429D01*
X73025143Y-94953286D01*
X73025143Y-95167571D01*
X72953714Y-95310429D01*
X72882286Y-95381857D01*
X72739428Y-95453286D01*
X72168000Y-95453286D01*
X73525143Y-94667571D02*
X73882286Y-96167571D01*
X74168000Y-95096143D01*
X74453714Y-96167571D01*
X74810857Y-94667571D01*
X76239429Y-96167571D02*
X75739429Y-95453286D01*
X75382286Y-96167571D02*
X75382286Y-94667571D01*
X75953714Y-94667571D01*
X76096572Y-94739000D01*
X76168000Y-94810429D01*
X76239429Y-94953286D01*
X76239429Y-95167571D01*
X76168000Y-95310429D01*
X76096572Y-95381857D01*
X75953714Y-95453286D01*
X75382286Y-95453286D01*
X73025143Y-97289000D02*
X72882286Y-97217571D01*
X72668000Y-97217571D01*
X72453715Y-97289000D01*
X72310857Y-97431857D01*
X72239429Y-97574714D01*
X72168000Y-97860429D01*
X72168000Y-98074714D01*
X72239429Y-98360429D01*
X72310857Y-98503286D01*
X72453715Y-98646143D01*
X72668000Y-98717571D01*
X72810857Y-98717571D01*
X73025143Y-98646143D01*
X73096572Y-98574714D01*
X73096572Y-98074714D01*
X72810857Y-98074714D01*
X73739429Y-98717571D02*
X73739429Y-97217571D01*
X74596572Y-98717571D01*
X74596572Y-97217571D01*
X75310858Y-98717571D02*
X75310858Y-97217571D01*
X75668001Y-97217571D01*
X75882286Y-97289000D01*
X76025144Y-97431857D01*
X76096572Y-97574714D01*
X76168001Y-97860429D01*
X76168001Y-98074714D01*
X76096572Y-98360429D01*
X76025144Y-98503286D01*
X75882286Y-98646143D01*
X75668001Y-98717571D01*
X75310858Y-98717571D01*
X72060857Y-101267571D02*
X72060857Y-99767571D01*
X72632285Y-99767571D01*
X72775143Y-99839000D01*
X72846571Y-99910429D01*
X72918000Y-100053286D01*
X72918000Y-100267571D01*
X72846571Y-100410429D01*
X72775143Y-100481857D01*
X72632285Y-100553286D01*
X72060857Y-100553286D01*
X73418000Y-99767571D02*
X73775143Y-101267571D01*
X74060857Y-100196143D01*
X74346571Y-101267571D01*
X74703714Y-99767571D01*
X75275143Y-101267571D02*
X75275143Y-99767571D01*
X75775143Y-100839000D01*
X76275143Y-99767571D01*
X76275143Y-101267571D01*
X74025143Y-103817571D02*
X73525143Y-103103286D01*
X73168000Y-103817571D02*
X73168000Y-102317571D01*
X73739428Y-102317571D01*
X73882286Y-102389000D01*
X73953714Y-102460429D01*
X74025143Y-102603286D01*
X74025143Y-102817571D01*
X73953714Y-102960429D01*
X73882286Y-103031857D01*
X73739428Y-103103286D01*
X73168000Y-103103286D01*
X74525143Y-103817571D02*
X75310857Y-102817571D01*
X74525143Y-102817571D02*
X75310857Y-103817571D01*
X45656572Y-102977143D02*
X46799429Y-102977143D01*
X46228000Y-103548571D02*
X46228000Y-102405714D01*
X50176857Y-91442000D02*
X50034000Y-91370571D01*
X49819714Y-91370571D01*
X49605429Y-91442000D01*
X49462571Y-91584857D01*
X49391143Y-91727714D01*
X49319714Y-92013429D01*
X49319714Y-92227714D01*
X49391143Y-92513429D01*
X49462571Y-92656286D01*
X49605429Y-92799143D01*
X49819714Y-92870571D01*
X49962571Y-92870571D01*
X50176857Y-92799143D01*
X50248286Y-92727714D01*
X50248286Y-92227714D01*
X49962571Y-92227714D01*
X49391143Y-95420571D02*
X49391143Y-93920571D01*
X49748286Y-93920571D01*
X49962571Y-93992000D01*
X50105429Y-94134857D01*
X50176857Y-94277714D01*
X50248286Y-94563429D01*
X50248286Y-94777714D01*
X50176857Y-95063429D01*
X50105429Y-95206286D01*
X49962571Y-95349143D01*
X49748286Y-95420571D01*
X49391143Y-95420571D01*
X49355429Y-97899143D02*
X49569715Y-97970571D01*
X49926858Y-97970571D01*
X50069715Y-97899143D01*
X50141144Y-97827714D01*
X50212572Y-97684857D01*
X50212572Y-97542000D01*
X50141144Y-97399143D01*
X50069715Y-97327714D01*
X49926858Y-97256286D01*
X49641144Y-97184857D01*
X49498286Y-97113429D01*
X49426858Y-97042000D01*
X49355429Y-96899143D01*
X49355429Y-96756286D01*
X49426858Y-96613429D01*
X49498286Y-96542000D01*
X49641144Y-96470571D01*
X49998286Y-96470571D01*
X50212572Y-96542000D01*
D12*
X44964000Y-99232000D02*
X40464000Y-99232000D01*
X40464000Y-99232000D02*
X40464000Y-89332000D01*
X40464000Y-89332000D02*
X44964000Y-89332000D01*
X44964000Y-89332000D02*
X44964000Y-99232000D01*
X40464000Y-96782000D02*
X40964000Y-96782000D01*
X40964000Y-96782000D02*
X40964000Y-98732000D01*
X40964000Y-98732000D02*
X44464000Y-98732000D01*
X44464000Y-98732000D02*
X44464000Y-89832000D01*
X44464000Y-89832000D02*
X40964000Y-89832000D01*
X40964000Y-89832000D02*
X40964000Y-91782000D01*
X40964000Y-91782000D02*
X40464000Y-91782000D01*
X41664000Y-99232000D02*
X41664000Y-98732000D01*
X42964000Y-99232000D02*
X42964000Y-98732000D01*
X41664000Y-89832000D02*
X41664000Y-89332000D01*
X42964000Y-89832000D02*
X42964000Y-89332000D01*
X40464000Y-97582000D02*
X40264000Y-97582000D01*
X40264000Y-97582000D02*
X40264000Y-97882000D01*
X40264000Y-97882000D02*
X40464000Y-97882000D01*
X40364000Y-97582000D02*
X40364000Y-97882000D01*
X44464000Y-96382000D02*
X43964000Y-96382000D01*
X43964000Y-96382000D02*
X43964000Y-96182000D01*
X43964000Y-96182000D02*
X44464000Y-96182000D01*
X44464000Y-96282000D02*
X43964000Y-96282000D01*
X44464000Y-94382000D02*
X43964000Y-94382000D01*
X43964000Y-94382000D02*
X43964000Y-94182000D01*
X43964000Y-94182000D02*
X44464000Y-94182000D01*
X44464000Y-94282000D02*
X43964000Y-94282000D01*
X44464000Y-92382000D02*
X43964000Y-92382000D01*
X43964000Y-92382000D02*
X43964000Y-92182000D01*
X43964000Y-92182000D02*
X44464000Y-92182000D01*
X44464000Y-92282000D02*
X43964000Y-92282000D01*
X44964000Y-108122000D02*
X40464000Y-108122000D01*
X40464000Y-108122000D02*
X40464000Y-102222000D01*
X40464000Y-102222000D02*
X44964000Y-102222000D01*
X44964000Y-102222000D02*
X44964000Y-108122000D01*
X40464000Y-105672000D02*
X40964000Y-105672000D01*
X40964000Y-105672000D02*
X40964000Y-107622000D01*
X40964000Y-107622000D02*
X44464000Y-107622000D01*
X44464000Y-107622000D02*
X44464000Y-102722000D01*
X44464000Y-102722000D02*
X40964000Y-102722000D01*
X40964000Y-102722000D02*
X40964000Y-104672000D01*
X40964000Y-104672000D02*
X40464000Y-104672000D01*
X41664000Y-108122000D02*
X41664000Y-107622000D01*
X42964000Y-108122000D02*
X42964000Y-107622000D01*
X41664000Y-102722000D02*
X41664000Y-102222000D01*
X42964000Y-102722000D02*
X42964000Y-102222000D01*
X40464000Y-106472000D02*
X40264000Y-106472000D01*
X40264000Y-106472000D02*
X40264000Y-106772000D01*
X40264000Y-106772000D02*
X40464000Y-106772000D01*
X40364000Y-106472000D02*
X40364000Y-106772000D01*
X44464000Y-105272000D02*
X43964000Y-105272000D01*
X43964000Y-105272000D02*
X43964000Y-105072000D01*
X43964000Y-105072000D02*
X44464000Y-105072000D01*
X44464000Y-105172000D02*
X43964000Y-105172000D01*
X76678000Y-93954000D02*
X76678000Y-95504000D01*
X77978000Y-93954000D02*
X76678000Y-93954000D01*
X82169000Y-95377000D02*
X88011000Y-95377000D01*
X88011000Y-95377000D02*
X88011000Y-95631000D01*
X88011000Y-95631000D02*
X82169000Y-95631000D01*
X82169000Y-95631000D02*
X82169000Y-95504000D01*
X82169000Y-95504000D02*
X88011000Y-95504000D01*
X79502000Y-95250000D02*
X79121000Y-95250000D01*
X79502000Y-95758000D02*
X79121000Y-95758000D01*
X79502000Y-97790000D02*
X79121000Y-97790000D01*
X79502000Y-98298000D02*
X79121000Y-98298000D01*
X79502000Y-100330000D02*
X79121000Y-100330000D01*
X79502000Y-100838000D02*
X79121000Y-100838000D01*
X79502000Y-103378000D02*
X79121000Y-103378000D01*
X79502000Y-102870000D02*
X79121000Y-102870000D01*
X79502000Y-94234000D02*
X82042000Y-94234000D01*
X79502000Y-96774000D02*
X82042000Y-96774000D01*
X79502000Y-96774000D02*
X79502000Y-99314000D01*
X79502000Y-99314000D02*
X82042000Y-99314000D01*
X82042000Y-97790000D02*
X88138000Y-97790000D01*
X88138000Y-97790000D02*
X88138000Y-98298000D01*
X88138000Y-98298000D02*
X82042000Y-98298000D01*
X82042000Y-99314000D02*
X82042000Y-96774000D01*
X82042000Y-96774000D02*
X82042000Y-94234000D01*
X88138000Y-95758000D02*
X82042000Y-95758000D01*
X88138000Y-95250000D02*
X88138000Y-95758000D01*
X82042000Y-95250000D02*
X88138000Y-95250000D01*
X79502000Y-96774000D02*
X82042000Y-96774000D01*
X79502000Y-94234000D02*
X79502000Y-96774000D01*
X79502000Y-101854000D02*
X82042000Y-101854000D01*
X79502000Y-101854000D02*
X79502000Y-104394000D01*
X79502000Y-104394000D02*
X82042000Y-104394000D01*
X82042000Y-102870000D02*
X88138000Y-102870000D01*
X88138000Y-102870000D02*
X88138000Y-103378000D01*
X88138000Y-103378000D02*
X82042000Y-103378000D01*
X82042000Y-104394000D02*
X82042000Y-101854000D01*
X82042000Y-101854000D02*
X82042000Y-99314000D01*
X88138000Y-100838000D02*
X82042000Y-100838000D01*
X88138000Y-100330000D02*
X88138000Y-100838000D01*
X82042000Y-100330000D02*
X88138000Y-100330000D01*
X79502000Y-101854000D02*
X82042000Y-101854000D01*
X79502000Y-99314000D02*
X79502000Y-101854000D01*
X79502000Y-99314000D02*
X82042000Y-99314000D01*
X66802000Y-104394000D02*
X68199000Y-104394000D01*
X62357000Y-104394000D02*
X60833000Y-104394000D01*
X62738000Y-103632000D02*
X62738000Y-105156000D01*
X62484000Y-103632000D02*
X62484000Y-105156000D01*
X62230000Y-104394000D02*
X62230000Y-105156000D01*
X62230000Y-105156000D02*
X66802000Y-105156000D01*
X66802000Y-105156000D02*
X66802000Y-103632000D01*
X66802000Y-103632000D02*
X62230000Y-103632000D01*
X62230000Y-103632000D02*
X62230000Y-104394000D01*
X61976000Y-91440000D02*
X67056000Y-91440000D01*
X67056000Y-91440000D02*
X67056000Y-93980000D01*
X67056000Y-93980000D02*
X61976000Y-93980000D01*
X61976000Y-93980000D02*
X61976000Y-91440000D01*
X61976000Y-92710000D02*
X60706000Y-92710000D01*
X67056000Y-92710000D02*
X68326000Y-92710000D01*
X51308000Y-91694000D02*
X51308000Y-98298000D01*
X52324000Y-91694000D02*
X50927000Y-91694000D01*
X50927000Y-91694000D02*
X50927000Y-98298000D01*
X50927000Y-98298000D02*
X53467000Y-98298000D01*
X53467000Y-98298000D02*
X53467000Y-91694000D01*
X53467000Y-91694000D02*
X52324000Y-91694000D01*
X39774762Y-96630857D02*
X39822381Y-96488000D01*
X39822381Y-96249904D01*
X39774762Y-96154666D01*
X39727143Y-96107047D01*
X39631905Y-96059428D01*
X39536667Y-96059428D01*
X39441429Y-96107047D01*
X39393810Y-96154666D01*
X39346190Y-96249904D01*
X39298571Y-96440381D01*
X39250952Y-96535619D01*
X39203333Y-96583238D01*
X39108095Y-96630857D01*
X39012857Y-96630857D01*
X38917619Y-96583238D01*
X38870000Y-96535619D01*
X38822381Y-96440381D01*
X38822381Y-96202285D01*
X38870000Y-96059428D01*
X39822381Y-95630857D02*
X39155714Y-95630857D01*
X38822381Y-95630857D02*
X38870000Y-95678476D01*
X38917619Y-95630857D01*
X38870000Y-95583238D01*
X38822381Y-95630857D01*
X38917619Y-95630857D01*
X39155714Y-94726095D02*
X39965238Y-94726095D01*
X40060476Y-94773714D01*
X40108095Y-94821333D01*
X40155714Y-94916572D01*
X40155714Y-95059429D01*
X40108095Y-95154667D01*
X39774762Y-94726095D02*
X39822381Y-94821333D01*
X39822381Y-95011810D01*
X39774762Y-95107048D01*
X39727143Y-95154667D01*
X39631905Y-95202286D01*
X39346190Y-95202286D01*
X39250952Y-95154667D01*
X39203333Y-95107048D01*
X39155714Y-95011810D01*
X39155714Y-94821333D01*
X39203333Y-94726095D01*
X39155714Y-94249905D02*
X39822381Y-94249905D01*
X39250952Y-94249905D02*
X39203333Y-94202286D01*
X39155714Y-94107048D01*
X39155714Y-93964190D01*
X39203333Y-93868952D01*
X39298571Y-93821333D01*
X39822381Y-93821333D01*
X39822381Y-92916571D02*
X39298571Y-92916571D01*
X39203333Y-92964190D01*
X39155714Y-93059428D01*
X39155714Y-93249905D01*
X39203333Y-93345143D01*
X39774762Y-92916571D02*
X39822381Y-93011809D01*
X39822381Y-93249905D01*
X39774762Y-93345143D01*
X39679524Y-93392762D01*
X39584286Y-93392762D01*
X39489048Y-93345143D01*
X39441429Y-93249905D01*
X39441429Y-93011809D01*
X39393810Y-92916571D01*
X39822381Y-92297524D02*
X39774762Y-92392762D01*
X39679524Y-92440381D01*
X38822381Y-92440381D01*
X40076381Y-106735334D02*
X39076381Y-106735334D01*
X39790667Y-106402000D01*
X39076381Y-106068667D01*
X40076381Y-106068667D01*
X40076381Y-105449620D02*
X40028762Y-105544858D01*
X39981143Y-105592477D01*
X39885905Y-105640096D01*
X39600190Y-105640096D01*
X39504952Y-105592477D01*
X39457333Y-105544858D01*
X39409714Y-105449620D01*
X39409714Y-105306762D01*
X39457333Y-105211524D01*
X39504952Y-105163905D01*
X39600190Y-105116286D01*
X39885905Y-105116286D01*
X39981143Y-105163905D01*
X40028762Y-105211524D01*
X40076381Y-105306762D01*
X40076381Y-105449620D01*
X39409714Y-104830572D02*
X39409714Y-104449620D01*
X39076381Y-104687715D02*
X39933524Y-104687715D01*
X40028762Y-104640096D01*
X40076381Y-104544858D01*
X40076381Y-104449620D01*
X40076381Y-103973429D02*
X40028762Y-104068667D01*
X39981143Y-104116286D01*
X39885905Y-104163905D01*
X39600190Y-104163905D01*
X39504952Y-104116286D01*
X39457333Y-104068667D01*
X39409714Y-103973429D01*
X39409714Y-103830571D01*
X39457333Y-103735333D01*
X39504952Y-103687714D01*
X39600190Y-103640095D01*
X39885905Y-103640095D01*
X39981143Y-103687714D01*
X40028762Y-103735333D01*
X40076381Y-103830571D01*
X40076381Y-103973429D01*
X40076381Y-103211524D02*
X39409714Y-103211524D01*
X39600190Y-103211524D02*
X39504952Y-103163905D01*
X39457333Y-103116286D01*
X39409714Y-103021048D01*
X39409714Y-102925809D01*
X77509905Y-92813143D02*
X77462286Y-92860762D01*
X77319429Y-92908381D01*
X77224191Y-92908381D01*
X77081333Y-92860762D01*
X76986095Y-92765524D01*
X76938476Y-92670286D01*
X76890857Y-92479810D01*
X76890857Y-92336952D01*
X76938476Y-92146476D01*
X76986095Y-92051238D01*
X77081333Y-91956000D01*
X77224191Y-91908381D01*
X77319429Y-91908381D01*
X77462286Y-91956000D01*
X77509905Y-92003619D01*
X78128952Y-91908381D02*
X78319429Y-91908381D01*
X78414667Y-91956000D01*
X78509905Y-92051238D01*
X78557524Y-92241714D01*
X78557524Y-92575048D01*
X78509905Y-92765524D01*
X78414667Y-92860762D01*
X78319429Y-92908381D01*
X78128952Y-92908381D01*
X78033714Y-92860762D01*
X77938476Y-92765524D01*
X77890857Y-92575048D01*
X77890857Y-92241714D01*
X77938476Y-92051238D01*
X78033714Y-91956000D01*
X78128952Y-91908381D01*
X78986095Y-92908381D02*
X78986095Y-91908381D01*
X79557524Y-92908381D01*
X79557524Y-91908381D01*
X80033714Y-92908381D02*
X80033714Y-91908381D01*
X80605143Y-92908381D01*
X80605143Y-91908381D01*
X81605143Y-92908381D02*
X81033714Y-92908381D01*
X81319428Y-92908381D02*
X81319428Y-91908381D01*
X81224190Y-92051238D01*
X81128952Y-92146476D01*
X81033714Y-92194095D01*
X64031905Y-103068381D02*
X64031905Y-102068381D01*
X64270000Y-102068381D01*
X64412858Y-102116000D01*
X64508096Y-102211238D01*
X64555715Y-102306476D01*
X64603334Y-102496952D01*
X64603334Y-102639810D01*
X64555715Y-102830286D01*
X64508096Y-102925524D01*
X64412858Y-103020762D01*
X64270000Y-103068381D01*
X64031905Y-103068381D01*
X65555715Y-103068381D02*
X64984286Y-103068381D01*
X65270000Y-103068381D02*
X65270000Y-102068381D01*
X65174762Y-102211238D01*
X65079524Y-102306476D01*
X64984286Y-102354095D01*
X64598254Y-90622381D02*
X64264920Y-90146190D01*
X64026825Y-90622381D02*
X64026825Y-89622381D01*
X64407778Y-89622381D01*
X64503016Y-89670000D01*
X64550635Y-89717619D01*
X64598254Y-89812857D01*
X64598254Y-89955714D01*
X64550635Y-90050952D01*
X64503016Y-90098571D01*
X64407778Y-90146190D01*
X64026825Y-90146190D01*
X65550635Y-90622381D02*
X64979206Y-90622381D01*
X65264920Y-90622381D02*
X65264920Y-89622381D01*
X65169682Y-89765238D01*
X65074444Y-89860476D01*
X64979206Y-89908095D01*
X55001381Y-95890333D02*
X54525190Y-96223667D01*
X55001381Y-96461762D02*
X54001381Y-96461762D01*
X54001381Y-96080809D01*
X54049000Y-95985571D01*
X54096619Y-95937952D01*
X54191857Y-95890333D01*
X54334714Y-95890333D01*
X54429952Y-95937952D01*
X54477571Y-95985571D01*
X54525190Y-96080809D01*
X54525190Y-96461762D01*
X54477571Y-95461762D02*
X54477571Y-95128428D01*
X55001381Y-94985571D02*
X55001381Y-95461762D01*
X54001381Y-95461762D01*
X54001381Y-94985571D01*
X54477571Y-94223666D02*
X54477571Y-94557000D01*
X55001381Y-94557000D02*
X54001381Y-94557000D01*
X54001381Y-94080809D01*
X54001381Y-93557000D02*
X54239476Y-93557000D01*
X54144238Y-93795095D02*
X54239476Y-93557000D01*
X54144238Y-93318904D01*
X54429952Y-93699857D02*
X54239476Y-93557000D01*
X54429952Y-93414142D01*
X54001381Y-92795095D02*
X54239476Y-92795095D01*
X54144238Y-93033190D02*
X54239476Y-92795095D01*
X54144238Y-92556999D01*
X54429952Y-92937952D02*
X54239476Y-92795095D01*
X54429952Y-92652237D01*
M02*
