G04 #@! TF.FileFunction,Copper,L2,Bot,Signal*
%FSLAX46Y46*%
G04 Gerber Fmt 4.6, Leading zero omitted, Abs format (unit mm)*
G04 Created by KiCad (PCBNEW 4.0.4-stable) date 01/06/17 20:42:19*
%MOMM*%
%LPD*%
G01*
G04 APERTURE LIST*
%ADD10C,0.100000*%
%ADD11R,1.700000X1.200000*%
%ADD12O,1.700000X1.200000*%
%ADD13R,2.032000X1.727200*%
%ADD14O,2.032000X1.727200*%
%ADD15C,1.699260*%
%ADD16R,1.699260X1.699260*%
%ADD17C,1.998980*%
%ADD18C,1.651000*%
%ADD19C,0.250000*%
G04 APERTURE END LIST*
D10*
D11*
X42164000Y-97282000D03*
D12*
X42164000Y-95282000D03*
X42164000Y-93282000D03*
X42164000Y-91282000D03*
D11*
X42164000Y-106172000D03*
D12*
X42164000Y-104172000D03*
D13*
X77978000Y-95504000D03*
D14*
X77978000Y-98044000D03*
X77978000Y-100584000D03*
X77978000Y-103124000D03*
D15*
X69596000Y-104394000D03*
D16*
X59436000Y-104394000D03*
D17*
X59436000Y-92710000D03*
X69596000Y-92710000D03*
D18*
X52324000Y-94996000D03*
X52324000Y-92710000D03*
X52324000Y-97282000D03*
D19*
X42164000Y-106172000D02*
X44704000Y-106172000D01*
X48260000Y-102616000D02*
X48260000Y-99060000D01*
X44704000Y-106172000D02*
X48260000Y-102616000D01*
X48260000Y-99060000D02*
X52324000Y-94996000D01*
X63737489Y-93709489D02*
X70612000Y-100584000D01*
X70612000Y-100584000D02*
X77978000Y-100584000D01*
X59436000Y-92710000D02*
X60435489Y-93709489D01*
X60435489Y-93709489D02*
X63737489Y-93709489D01*
X52324000Y-94996000D02*
X60198000Y-94996000D01*
X60198000Y-94996000D02*
X69596000Y-104394000D01*
X42418000Y-104902000D02*
X42164000Y-104902000D01*
X77978000Y-98044000D02*
X74930000Y-98044000D01*
X74930000Y-98044000D02*
X69596000Y-92710000D01*
X42164000Y-97282000D02*
X41064000Y-97282000D01*
X77978000Y-95504000D02*
X77978000Y-94390400D01*
X77978000Y-98044000D02*
X76712000Y-98044000D01*
X77470000Y-100584000D02*
X77978000Y-100584000D01*
M02*
