G04 #@! TF.FileFunction,Copper,L1,Top,Signal*
%FSLAX46Y46*%
G04 Gerber Fmt 4.6, Leading zero omitted, Abs format (unit mm)*
G04 Created by KiCad (PCBNEW 4.0.6) date 06/20/17 12:27:10*
%MOMM*%
%LPD*%
G01*
G04 APERTURE LIST*
%ADD10C,0.100000*%
%ADD11C,4.064000*%
%ADD12O,1.727200X2.032000*%
%ADD13R,1.700000X1.700000*%
%ADD14O,1.700000X1.700000*%
%ADD15R,2.400000X2.400000*%
%ADD16O,2.400000X2.400000*%
%ADD17C,0.600000*%
%ADD18C,0.250000*%
G04 APERTURE END LIST*
D10*
D11*
X177038000Y-118745000D03*
D12*
X138938000Y-123825000D03*
X141478000Y-123825000D03*
X144018000Y-123825000D03*
X146558000Y-123825000D03*
X149098000Y-123825000D03*
X151638000Y-123825000D03*
X154178000Y-123825000D03*
X156718000Y-123825000D03*
X161798000Y-123825000D03*
X164338000Y-123825000D03*
X166878000Y-123825000D03*
X169418000Y-123825000D03*
X171958000Y-123825000D03*
X174498000Y-123825000D03*
X129794000Y-75565000D03*
X132334000Y-75565000D03*
X134874000Y-75565000D03*
X137414000Y-75565000D03*
X139954000Y-75565000D03*
X142494000Y-75565000D03*
X145034000Y-75565000D03*
X147574000Y-75565000D03*
X150114000Y-75565000D03*
X152654000Y-75565000D03*
X156718000Y-75565000D03*
X159258000Y-75565000D03*
X161798000Y-75565000D03*
X164338000Y-75565000D03*
X166878000Y-75565000D03*
X169418000Y-75565000D03*
X171958000Y-75565000D03*
X174498000Y-75565000D03*
D11*
X124968000Y-123825000D03*
X126238000Y-75565000D03*
D13*
X133988000Y-88007000D03*
D14*
X136528000Y-88007000D03*
X139068000Y-88007000D03*
X141608000Y-88007000D03*
X144148000Y-88007000D03*
X146688000Y-88007000D03*
X149228000Y-88007000D03*
X151768000Y-88007000D03*
X154308000Y-88007000D03*
X156848000Y-88007000D03*
X159388000Y-88007000D03*
X161928000Y-88007000D03*
X164468000Y-88007000D03*
X167008000Y-88007000D03*
D13*
X172698000Y-99315000D03*
D14*
X172698000Y-96775000D03*
X172698000Y-94235000D03*
X172698000Y-91695000D03*
D13*
X167008000Y-100707000D03*
D14*
X167008000Y-98167000D03*
X167008000Y-95627000D03*
X167008000Y-93087000D03*
X167008000Y-90547000D03*
D13*
X133988000Y-103247000D03*
D14*
X136528000Y-103247000D03*
X139068000Y-103247000D03*
X141608000Y-103247000D03*
X144148000Y-103247000D03*
X146688000Y-103247000D03*
X149228000Y-103247000D03*
X151768000Y-103247000D03*
X154308000Y-103247000D03*
X156848000Y-103247000D03*
X159388000Y-103247000D03*
X161928000Y-103247000D03*
X164468000Y-103247000D03*
X167008000Y-103247000D03*
D13*
X129148000Y-99965000D03*
D14*
X129148000Y-97425000D03*
X129148000Y-94885000D03*
X129148000Y-92345000D03*
D13*
X115117000Y-91523200D03*
D14*
X115117000Y-88983200D03*
X115117000Y-86443200D03*
X115117000Y-83903200D03*
D13*
X115117000Y-100667000D03*
D14*
X115117000Y-98127000D03*
D13*
X115117000Y-114383000D03*
D14*
X115117000Y-111843000D03*
X115117000Y-109303000D03*
X115117000Y-106763000D03*
D13*
X126498000Y-115405000D03*
D14*
X126498000Y-112865000D03*
X126498000Y-110325000D03*
D13*
X115458000Y-122365000D03*
D14*
X117998000Y-122365000D03*
D15*
X154998000Y-117115000D03*
D16*
X165158000Y-117115000D03*
D15*
X154888000Y-112765000D03*
D16*
X165048000Y-112765000D03*
D17*
X163198000Y-100943300D03*
X158525600Y-95607400D03*
X130411700Y-91698400D03*
X128327000Y-91051900D03*
D18*
X150286900Y-123304900D02*
X150286900Y-123825000D01*
X151230500Y-122361300D02*
X150286900Y-123304900D01*
X153926400Y-122361300D02*
X151230500Y-122361300D01*
X163522700Y-112765000D02*
X153926400Y-122361300D01*
X165048000Y-112765000D02*
X163522700Y-112765000D01*
X149098000Y-123825000D02*
X150286900Y-123825000D01*
X133522900Y-76085100D02*
X133522900Y-75565000D01*
X143502000Y-86064200D02*
X133522900Y-76085100D01*
X151557200Y-86064200D02*
X143502000Y-86064200D01*
X153132700Y-87639700D02*
X151557200Y-86064200D01*
X153132700Y-88007000D02*
X153132700Y-87639700D01*
X154308000Y-88007000D02*
X153132700Y-88007000D01*
X132334000Y-75565000D02*
X133522900Y-75565000D01*
X130982900Y-76085100D02*
X130982900Y-75565000D01*
X141729500Y-86831700D02*
X130982900Y-76085100D01*
X149761200Y-86831700D02*
X141729500Y-86831700D01*
X150592700Y-87663200D02*
X149761200Y-86831700D01*
X150592700Y-88007000D02*
X150592700Y-87663200D01*
X151768000Y-88007000D02*
X150592700Y-88007000D01*
X129794000Y-75565000D02*
X130982900Y-75565000D01*
X163198000Y-106124700D02*
X163198000Y-100943300D01*
X174498000Y-117424700D02*
X163198000Y-106124700D01*
X174498000Y-123825000D02*
X174498000Y-117424700D01*
X154308000Y-99825000D02*
X158525600Y-95607400D01*
X154308000Y-103247000D02*
X154308000Y-99825000D01*
X141142900Y-76085100D02*
X141142900Y-75565000D01*
X143201400Y-78143600D02*
X141142900Y-76085100D01*
X156336600Y-78143600D02*
X143201400Y-78143600D01*
X165832700Y-87639700D02*
X156336600Y-78143600D01*
X165832700Y-88007000D02*
X165832700Y-87639700D01*
X167008000Y-88007000D02*
X165832700Y-88007000D01*
X139954000Y-75565000D02*
X141142900Y-75565000D01*
X172698000Y-96775000D02*
X171522700Y-96775000D01*
X133695400Y-94982100D02*
X130411700Y-91698400D01*
X158784700Y-94982100D02*
X133695400Y-94982100D01*
X160638600Y-96836000D02*
X158784700Y-94982100D01*
X171461700Y-96836000D02*
X160638600Y-96836000D01*
X171522700Y-96775000D02*
X171461700Y-96836000D01*
X172698000Y-94235000D02*
X171522700Y-94235000D01*
X130848400Y-91051900D02*
X128327000Y-91051900D01*
X134092500Y-94296000D02*
X130848400Y-91051900D01*
X171461700Y-94296000D02*
X134092500Y-94296000D01*
X171522700Y-94235000D02*
X171461700Y-94296000D01*
X169193900Y-89366200D02*
X171522700Y-91695000D01*
X118449300Y-89366200D02*
X169193900Y-89366200D01*
X116292300Y-91523200D02*
X118449300Y-89366200D01*
X115117000Y-91523200D02*
X116292300Y-91523200D01*
X172698000Y-91695000D02*
X171522700Y-91695000D01*
X128153700Y-114229600D02*
X137749100Y-123825000D01*
X125027800Y-114229600D02*
X128153700Y-114229600D01*
X118831200Y-108033000D02*
X125027800Y-114229600D01*
X114674200Y-108033000D02*
X118831200Y-108033000D01*
X113894300Y-107253100D02*
X114674200Y-108033000D01*
X113894300Y-103065000D02*
X113894300Y-107253100D01*
X115117000Y-101842300D02*
X113894300Y-103065000D01*
X115117000Y-100667000D02*
X115117000Y-101842300D01*
X138938000Y-123825000D02*
X137749100Y-123825000D01*
X115117000Y-100667000D02*
X116292300Y-100667000D01*
X167008000Y-90547000D02*
X165832700Y-90547000D01*
X126559200Y-90400100D02*
X116292300Y-100667000D01*
X165685800Y-90400100D02*
X126559200Y-90400100D01*
X165832700Y-90547000D02*
X165685800Y-90400100D01*
X152989100Y-124345100D02*
X152989100Y-123825000D01*
X152149000Y-125185200D02*
X152989100Y-124345100D01*
X148563500Y-125185200D02*
X152149000Y-125185200D01*
X147828000Y-124449700D02*
X148563500Y-125185200D01*
X147828000Y-123255100D02*
X147828000Y-124449700D01*
X147015400Y-122442500D02*
X147828000Y-123255100D01*
X137250800Y-122442500D02*
X147015400Y-122442500D01*
X127673300Y-112865000D02*
X137250800Y-122442500D01*
X126498000Y-112865000D02*
X127673300Y-112865000D01*
X154178000Y-123825000D02*
X152989100Y-123825000D01*
X123226000Y-115405000D02*
X126498000Y-115405000D01*
X116633300Y-121997700D02*
X123226000Y-115405000D01*
X116633300Y-122365000D02*
X116633300Y-121997700D01*
X115458000Y-122365000D02*
X116633300Y-122365000D01*
X131656900Y-114308600D02*
X127673300Y-110325000D01*
X158150400Y-114308600D02*
X131656900Y-114308600D01*
X161258300Y-111200700D02*
X158150400Y-114308600D01*
X165646100Y-111200700D02*
X161258300Y-111200700D01*
X166622400Y-112177000D02*
X165646100Y-111200700D01*
X166622400Y-114125300D02*
X166622400Y-112177000D01*
X165158000Y-115589700D02*
X166622400Y-114125300D01*
X165158000Y-117115000D02*
X165158000Y-115589700D01*
X126498000Y-110325000D02*
X127673300Y-110325000D01*
X128708900Y-83903200D02*
X132812700Y-88007000D01*
X115117000Y-83903200D02*
X128708900Y-83903200D01*
X133988000Y-88007000D02*
X132812700Y-88007000D01*
X127972700Y-92732000D02*
X127972700Y-92345000D01*
X115117000Y-105587700D02*
X127972700Y-92732000D01*
X115117000Y-106763000D02*
X115117000Y-105587700D01*
X129148000Y-92345000D02*
X127972700Y-92345000D01*
X139385200Y-101406900D02*
X130323300Y-92345000D01*
X144024800Y-101406900D02*
X139385200Y-101406900D01*
X145418000Y-102800100D02*
X144024800Y-101406900D01*
X145418000Y-104820300D02*
X145418000Y-102800100D01*
X153362700Y-112765000D02*
X145418000Y-104820300D01*
X154888000Y-112765000D02*
X153362700Y-112765000D01*
X129148000Y-92345000D02*
X130323300Y-92345000D01*
M02*
