G04 #@! TF.FileFunction,Legend,Top*
%FSLAX46Y46*%
G04 Gerber Fmt 4.6, Leading zero omitted, Abs format (unit mm)*
G04 Created by KiCad (PCBNEW 4.0.6) date 06/20/17 12:27:10*
%MOMM*%
%LPD*%
G01*
G04 APERTURE LIST*
%ADD10C,0.100000*%
%ADD11C,0.200000*%
%ADD12C,0.300000*%
%ADD13C,0.150000*%
%ADD14C,0.120000*%
G04 APERTURE END LIST*
D10*
D11*
X175407524Y-92540000D02*
X175283715Y-92478095D01*
X175098000Y-92478095D01*
X174912286Y-92540000D01*
X174788477Y-92663810D01*
X174726572Y-92787619D01*
X174664667Y-93035238D01*
X174664667Y-93220952D01*
X174726572Y-93468571D01*
X174788477Y-93592381D01*
X174912286Y-93716190D01*
X175098000Y-93778095D01*
X175221810Y-93778095D01*
X175407524Y-93716190D01*
X175469429Y-93654286D01*
X175469429Y-93220952D01*
X175221810Y-93220952D01*
X176026572Y-93778095D02*
X176026572Y-92478095D01*
X176769429Y-93778095D01*
X176769429Y-92478095D01*
X177388477Y-93778095D02*
X177388477Y-92478095D01*
X177698001Y-92478095D01*
X177883715Y-92540000D01*
X178007524Y-92663810D01*
X178069429Y-92787619D01*
X178131334Y-93035238D01*
X178131334Y-93220952D01*
X178069429Y-93468571D01*
X178007524Y-93592381D01*
X177883715Y-93716190D01*
X177698001Y-93778095D01*
X177388477Y-93778095D01*
X174974190Y-95928095D02*
X174355143Y-95928095D01*
X174355143Y-94628095D01*
X176150381Y-95804286D02*
X176088476Y-95866190D01*
X175902762Y-95928095D01*
X175778952Y-95928095D01*
X175593238Y-95866190D01*
X175469429Y-95742381D01*
X175407524Y-95618571D01*
X175345619Y-95370952D01*
X175345619Y-95185238D01*
X175407524Y-94937619D01*
X175469429Y-94813810D01*
X175593238Y-94690000D01*
X175778952Y-94628095D01*
X175902762Y-94628095D01*
X176088476Y-94690000D01*
X176150381Y-94751905D01*
X177326571Y-95928095D02*
X176707524Y-95928095D01*
X176707524Y-94628095D01*
X177759905Y-95928095D02*
X177759905Y-94628095D01*
X178502762Y-95928095D02*
X177945619Y-95185238D01*
X178502762Y-94628095D02*
X177759905Y-95370952D01*
X175098000Y-98078095D02*
X174478953Y-98078095D01*
X174478953Y-96778095D01*
X175531334Y-98078095D02*
X175531334Y-96778095D01*
X175840858Y-96778095D01*
X176026572Y-96840000D01*
X176150381Y-96963810D01*
X176212286Y-97087619D01*
X176274191Y-97335238D01*
X176274191Y-97520952D01*
X176212286Y-97768571D01*
X176150381Y-97892381D01*
X176026572Y-98016190D01*
X175840858Y-98078095D01*
X175531334Y-98078095D01*
X176769429Y-97706667D02*
X177388477Y-97706667D01*
X176645620Y-98078095D02*
X177078953Y-96778095D01*
X177512286Y-98078095D01*
X177759906Y-96778095D02*
X178502763Y-96778095D01*
X178131334Y-98078095D02*
X178131334Y-96778095D01*
X176212286Y-98928095D02*
X175593239Y-98928095D01*
X175531334Y-99547143D01*
X175593239Y-99485238D01*
X175717048Y-99423333D01*
X176026572Y-99423333D01*
X176150382Y-99485238D01*
X176212286Y-99547143D01*
X176274191Y-99670952D01*
X176274191Y-99980476D01*
X176212286Y-100104286D01*
X176150382Y-100166190D01*
X176026572Y-100228095D01*
X175717048Y-100228095D01*
X175593239Y-100166190D01*
X175531334Y-100104286D01*
X176707524Y-99361429D02*
X177017048Y-100228095D01*
X177326572Y-99361429D01*
X120250381Y-84928095D02*
X119631334Y-84928095D01*
X119569429Y-85547143D01*
X119631334Y-85485238D01*
X119755143Y-85423333D01*
X120064667Y-85423333D01*
X120188477Y-85485238D01*
X120250381Y-85547143D01*
X120312286Y-85670952D01*
X120312286Y-85980476D01*
X120250381Y-86104286D01*
X120188477Y-86166190D01*
X120064667Y-86228095D01*
X119755143Y-86228095D01*
X119631334Y-86166190D01*
X119569429Y-86104286D01*
X120683715Y-84928095D02*
X121117048Y-86228095D01*
X121550381Y-84928095D01*
X117464667Y-88378095D02*
X116845620Y-88378095D01*
X116845620Y-87078095D01*
X117898001Y-87697143D02*
X118331334Y-87697143D01*
X118517048Y-88378095D02*
X117898001Y-88378095D01*
X117898001Y-87078095D01*
X118517048Y-87078095D01*
X119074191Y-88378095D02*
X119074191Y-87078095D01*
X119383715Y-87078095D01*
X119569429Y-87140000D01*
X119693238Y-87263810D01*
X119755143Y-87387619D01*
X119817048Y-87635238D01*
X119817048Y-87820952D01*
X119755143Y-88068571D01*
X119693238Y-88192381D01*
X119569429Y-88316190D01*
X119383715Y-88378095D01*
X119074191Y-88378095D01*
X120064667Y-88501905D02*
X121055143Y-88501905D01*
X121364667Y-88378095D02*
X121364667Y-87078095D01*
X121674191Y-87078095D01*
X121859905Y-87140000D01*
X121983714Y-87263810D01*
X122045619Y-87387619D01*
X122107524Y-87635238D01*
X122107524Y-87820952D01*
X122045619Y-88068571D01*
X121983714Y-88192381D01*
X121859905Y-88316190D01*
X121674191Y-88378095D01*
X121364667Y-88378095D01*
X122602762Y-88006667D02*
X123221810Y-88006667D01*
X122478953Y-88378095D02*
X122912286Y-87078095D01*
X123345619Y-88378095D01*
X123593239Y-87078095D02*
X124336096Y-87078095D01*
X123964667Y-88378095D02*
X123964667Y-87078095D01*
X117340857Y-90528095D02*
X116721810Y-90528095D01*
X116721810Y-89228095D01*
X117774191Y-89847143D02*
X118207524Y-89847143D01*
X118393238Y-90528095D02*
X117774191Y-90528095D01*
X117774191Y-89228095D01*
X118393238Y-89228095D01*
X118950381Y-90528095D02*
X118950381Y-89228095D01*
X119259905Y-89228095D01*
X119445619Y-89290000D01*
X119569428Y-89413810D01*
X119631333Y-89537619D01*
X119693238Y-89785238D01*
X119693238Y-89970952D01*
X119631333Y-90218571D01*
X119569428Y-90342381D01*
X119445619Y-90466190D01*
X119259905Y-90528095D01*
X118950381Y-90528095D01*
X119940857Y-90651905D02*
X120931333Y-90651905D01*
X121983714Y-90404286D02*
X121921809Y-90466190D01*
X121736095Y-90528095D01*
X121612285Y-90528095D01*
X121426571Y-90466190D01*
X121302762Y-90342381D01*
X121240857Y-90218571D01*
X121178952Y-89970952D01*
X121178952Y-89785238D01*
X121240857Y-89537619D01*
X121302762Y-89413810D01*
X121426571Y-89290000D01*
X121612285Y-89228095D01*
X121736095Y-89228095D01*
X121921809Y-89290000D01*
X121983714Y-89351905D01*
X123159904Y-90528095D02*
X122540857Y-90528095D01*
X122540857Y-89228095D01*
X123593238Y-90528095D02*
X123593238Y-89228095D01*
X124336095Y-90528095D02*
X123778952Y-89785238D01*
X124336095Y-89228095D02*
X123593238Y-89970952D01*
X119507524Y-91440000D02*
X119383715Y-91378095D01*
X119198000Y-91378095D01*
X119012286Y-91440000D01*
X118888477Y-91563810D01*
X118826572Y-91687619D01*
X118764667Y-91935238D01*
X118764667Y-92120952D01*
X118826572Y-92368571D01*
X118888477Y-92492381D01*
X119012286Y-92616190D01*
X119198000Y-92678095D01*
X119321810Y-92678095D01*
X119507524Y-92616190D01*
X119569429Y-92554286D01*
X119569429Y-92120952D01*
X119321810Y-92120952D01*
X120126572Y-92678095D02*
X120126572Y-91378095D01*
X120869429Y-92678095D01*
X120869429Y-91378095D01*
X121488477Y-92678095D02*
X121488477Y-91378095D01*
X121798001Y-91378095D01*
X121983715Y-91440000D01*
X122107524Y-91563810D01*
X122169429Y-91687619D01*
X122231334Y-91935238D01*
X122231334Y-92120952D01*
X122169429Y-92368571D01*
X122107524Y-92492381D01*
X121983715Y-92616190D01*
X121798001Y-92678095D01*
X121488477Y-92678095D01*
X118635853Y-106728095D02*
X118016806Y-106728095D01*
X117954901Y-107347143D01*
X118016806Y-107285238D01*
X118140615Y-107223333D01*
X118450139Y-107223333D01*
X118573949Y-107285238D01*
X118635853Y-107347143D01*
X118697758Y-107470952D01*
X118697758Y-107780476D01*
X118635853Y-107904286D01*
X118573949Y-107966190D01*
X118450139Y-108028095D01*
X118140615Y-108028095D01*
X118016806Y-107966190D01*
X117954901Y-107904286D01*
X119069187Y-106728095D02*
X119502520Y-108028095D01*
X119935853Y-106728095D01*
X117057282Y-110116190D02*
X117242996Y-110178095D01*
X117552520Y-110178095D01*
X117676330Y-110116190D01*
X117738234Y-110054286D01*
X117800139Y-109930476D01*
X117800139Y-109806667D01*
X117738234Y-109682857D01*
X117676330Y-109620952D01*
X117552520Y-109559048D01*
X117304901Y-109497143D01*
X117181092Y-109435238D01*
X117119187Y-109373333D01*
X117057282Y-109249524D01*
X117057282Y-109125714D01*
X117119187Y-109001905D01*
X117181092Y-108940000D01*
X117304901Y-108878095D01*
X117614425Y-108878095D01*
X117800139Y-108940000D01*
X118357282Y-110178095D02*
X118357282Y-108878095D01*
X118852520Y-108878095D01*
X118976329Y-108940000D01*
X119038234Y-109001905D01*
X119100139Y-109125714D01*
X119100139Y-109311429D01*
X119038234Y-109435238D01*
X118976329Y-109497143D01*
X118852520Y-109559048D01*
X118357282Y-109559048D01*
X119657282Y-109682857D02*
X120647758Y-109682857D01*
X117057282Y-112266190D02*
X117242996Y-112328095D01*
X117552520Y-112328095D01*
X117676330Y-112266190D01*
X117738234Y-112204286D01*
X117800139Y-112080476D01*
X117800139Y-111956667D01*
X117738234Y-111832857D01*
X117676330Y-111770952D01*
X117552520Y-111709048D01*
X117304901Y-111647143D01*
X117181092Y-111585238D01*
X117119187Y-111523333D01*
X117057282Y-111399524D01*
X117057282Y-111275714D01*
X117119187Y-111151905D01*
X117181092Y-111090000D01*
X117304901Y-111028095D01*
X117614425Y-111028095D01*
X117800139Y-111090000D01*
X118357282Y-112328095D02*
X118357282Y-111028095D01*
X118852520Y-111028095D01*
X118976329Y-111090000D01*
X119038234Y-111151905D01*
X119100139Y-111275714D01*
X119100139Y-111461429D01*
X119038234Y-111585238D01*
X118976329Y-111647143D01*
X118852520Y-111709048D01*
X118357282Y-111709048D01*
X119657282Y-111832857D02*
X120647758Y-111832857D01*
X120152520Y-112328095D02*
X120152520Y-111337619D01*
X117892996Y-113240000D02*
X117769187Y-113178095D01*
X117583472Y-113178095D01*
X117397758Y-113240000D01*
X117273949Y-113363810D01*
X117212044Y-113487619D01*
X117150139Y-113735238D01*
X117150139Y-113920952D01*
X117212044Y-114168571D01*
X117273949Y-114292381D01*
X117397758Y-114416190D01*
X117583472Y-114478095D01*
X117707282Y-114478095D01*
X117892996Y-114416190D01*
X117954901Y-114354286D01*
X117954901Y-113920952D01*
X117707282Y-113920952D01*
X118512044Y-114478095D02*
X118512044Y-113178095D01*
X119254901Y-114478095D01*
X119254901Y-113178095D01*
X119873949Y-114478095D02*
X119873949Y-113178095D01*
X120183473Y-113178095D01*
X120369187Y-113240000D01*
X120492996Y-113363810D01*
X120554901Y-113487619D01*
X120616806Y-113735238D01*
X120616806Y-113920952D01*
X120554901Y-114168571D01*
X120492996Y-114292381D01*
X120369187Y-114416190D01*
X120183473Y-114478095D01*
X119873949Y-114478095D01*
X117497758Y-98312819D02*
X118116806Y-98312819D01*
X117373949Y-98684247D02*
X117807282Y-97384247D01*
X118240615Y-98684247D01*
X119354901Y-97446152D02*
X119231092Y-97384247D01*
X119045377Y-97384247D01*
X118859663Y-97446152D01*
X118735854Y-97569962D01*
X118673949Y-97693771D01*
X118612044Y-97941390D01*
X118612044Y-98127104D01*
X118673949Y-98374723D01*
X118735854Y-98498533D01*
X118859663Y-98622342D01*
X119045377Y-98684247D01*
X119169187Y-98684247D01*
X119354901Y-98622342D01*
X119416806Y-98560438D01*
X119416806Y-98127104D01*
X119169187Y-98127104D01*
X119973949Y-97817581D02*
X119973949Y-98684247D01*
X119973949Y-97941390D02*
X120035854Y-97879485D01*
X120159663Y-97817581D01*
X120345377Y-97817581D01*
X120469187Y-97879485D01*
X120531092Y-98003295D01*
X120531092Y-98684247D01*
X121707282Y-98684247D02*
X121707282Y-97384247D01*
X121707282Y-98622342D02*
X121583472Y-98684247D01*
X121335853Y-98684247D01*
X121212044Y-98622342D01*
X121150139Y-98560438D01*
X121088234Y-98436628D01*
X121088234Y-98065200D01*
X121150139Y-97941390D01*
X121212044Y-97879485D01*
X121335853Y-97817581D01*
X121583472Y-97817581D01*
X121707282Y-97879485D01*
X117931091Y-100462819D02*
X118550139Y-100462819D01*
X117807282Y-100834247D02*
X118240615Y-99534247D01*
X118673948Y-100834247D01*
X118797758Y-100958057D02*
X119788234Y-100958057D01*
X120097758Y-100834247D02*
X120097758Y-99534247D01*
X120716806Y-99967581D02*
X120716806Y-100834247D01*
X120716806Y-100091390D02*
X120778711Y-100029485D01*
X120902520Y-99967581D01*
X121088234Y-99967581D01*
X121212044Y-100029485D01*
X121273949Y-100153295D01*
X121273949Y-100834247D01*
D12*
X123426572Y-115222143D02*
X124569429Y-115222143D01*
X123998000Y-115793571D02*
X123998000Y-114650714D01*
X114676572Y-119722143D02*
X115819429Y-119722143D01*
X115248000Y-120293571D02*
X115248000Y-119150714D01*
D11*
X133000381Y-92178095D02*
X132381334Y-92178095D01*
X132319429Y-92797143D01*
X132381334Y-92735238D01*
X132505143Y-92673333D01*
X132814667Y-92673333D01*
X132938477Y-92735238D01*
X133000381Y-92797143D01*
X133062286Y-92920952D01*
X133062286Y-93230476D01*
X133000381Y-93354286D01*
X132938477Y-93416190D01*
X132814667Y-93478095D01*
X132505143Y-93478095D01*
X132381334Y-93416190D01*
X132319429Y-93354286D01*
X133433715Y-92178095D02*
X133867048Y-93478095D01*
X134300381Y-92178095D01*
X131421810Y-95566190D02*
X131607524Y-95628095D01*
X131917048Y-95628095D01*
X132040858Y-95566190D01*
X132102762Y-95504286D01*
X132164667Y-95380476D01*
X132164667Y-95256667D01*
X132102762Y-95132857D01*
X132040858Y-95070952D01*
X131917048Y-95009048D01*
X131669429Y-94947143D01*
X131545620Y-94885238D01*
X131483715Y-94823333D01*
X131421810Y-94699524D01*
X131421810Y-94575714D01*
X131483715Y-94451905D01*
X131545620Y-94390000D01*
X131669429Y-94328095D01*
X131978953Y-94328095D01*
X132164667Y-94390000D01*
X132721810Y-95628095D02*
X132721810Y-94328095D01*
X133217048Y-94328095D01*
X133340857Y-94390000D01*
X133402762Y-94451905D01*
X133464667Y-94575714D01*
X133464667Y-94761429D01*
X133402762Y-94885238D01*
X133340857Y-94947143D01*
X133217048Y-95009048D01*
X132721810Y-95009048D01*
X134021810Y-95132857D02*
X135012286Y-95132857D01*
X131421810Y-97716190D02*
X131607524Y-97778095D01*
X131917048Y-97778095D01*
X132040858Y-97716190D01*
X132102762Y-97654286D01*
X132164667Y-97530476D01*
X132164667Y-97406667D01*
X132102762Y-97282857D01*
X132040858Y-97220952D01*
X131917048Y-97159048D01*
X131669429Y-97097143D01*
X131545620Y-97035238D01*
X131483715Y-96973333D01*
X131421810Y-96849524D01*
X131421810Y-96725714D01*
X131483715Y-96601905D01*
X131545620Y-96540000D01*
X131669429Y-96478095D01*
X131978953Y-96478095D01*
X132164667Y-96540000D01*
X132721810Y-97778095D02*
X132721810Y-96478095D01*
X133217048Y-96478095D01*
X133340857Y-96540000D01*
X133402762Y-96601905D01*
X133464667Y-96725714D01*
X133464667Y-96911429D01*
X133402762Y-97035238D01*
X133340857Y-97097143D01*
X133217048Y-97159048D01*
X132721810Y-97159048D01*
X134021810Y-97282857D02*
X135012286Y-97282857D01*
X134517048Y-97778095D02*
X134517048Y-96787619D01*
X132257524Y-98690000D02*
X132133715Y-98628095D01*
X131948000Y-98628095D01*
X131762286Y-98690000D01*
X131638477Y-98813810D01*
X131576572Y-98937619D01*
X131514667Y-99185238D01*
X131514667Y-99370952D01*
X131576572Y-99618571D01*
X131638477Y-99742381D01*
X131762286Y-99866190D01*
X131948000Y-99928095D01*
X132071810Y-99928095D01*
X132257524Y-99866190D01*
X132319429Y-99804286D01*
X132319429Y-99370952D01*
X132071810Y-99370952D01*
X132876572Y-99928095D02*
X132876572Y-98628095D01*
X133619429Y-99928095D01*
X133619429Y-98628095D01*
X134238477Y-99928095D02*
X134238477Y-98628095D01*
X134548001Y-98628095D01*
X134733715Y-98690000D01*
X134857524Y-98813810D01*
X134919429Y-98937619D01*
X134981334Y-99185238D01*
X134981334Y-99370952D01*
X134919429Y-99618571D01*
X134857524Y-99742381D01*
X134733715Y-99866190D01*
X134548001Y-99928095D01*
X134238477Y-99928095D01*
X165505095Y-109657857D02*
X164205095Y-109657857D01*
X165133667Y-109224524D01*
X164205095Y-108791191D01*
X165505095Y-108791191D01*
X164205095Y-107924524D02*
X164205095Y-107676905D01*
X164267000Y-107553096D01*
X164390810Y-107429286D01*
X164638429Y-107367381D01*
X165071762Y-107367381D01*
X165319381Y-107429286D01*
X165443190Y-107553096D01*
X165505095Y-107676905D01*
X165505095Y-107924524D01*
X165443190Y-108048334D01*
X165319381Y-108172143D01*
X165071762Y-108234048D01*
X164638429Y-108234048D01*
X164390810Y-108172143D01*
X164267000Y-108048334D01*
X164205095Y-107924524D01*
X165443190Y-106872143D02*
X165505095Y-106686429D01*
X165505095Y-106376905D01*
X165443190Y-106253095D01*
X165381286Y-106191191D01*
X165257476Y-106129286D01*
X165133667Y-106129286D01*
X165009857Y-106191191D01*
X164947952Y-106253095D01*
X164886048Y-106376905D01*
X164824143Y-106624524D01*
X164762238Y-106748333D01*
X164700333Y-106810238D01*
X164576524Y-106872143D01*
X164452714Y-106872143D01*
X164328905Y-106810238D01*
X164267000Y-106748333D01*
X164205095Y-106624524D01*
X164205095Y-106315000D01*
X164267000Y-106129286D01*
X165505095Y-105572143D02*
X164205095Y-105572143D01*
X167655095Y-109657857D02*
X166355095Y-109657857D01*
X167283667Y-109224524D01*
X166355095Y-108791191D01*
X167655095Y-108791191D01*
X167655095Y-108172143D02*
X166355095Y-108172143D01*
X167593190Y-107615000D02*
X167655095Y-107429286D01*
X167655095Y-107119762D01*
X167593190Y-106995952D01*
X167531286Y-106934048D01*
X167407476Y-106872143D01*
X167283667Y-106872143D01*
X167159857Y-106934048D01*
X167097952Y-106995952D01*
X167036048Y-107119762D01*
X166974143Y-107367381D01*
X166912238Y-107491190D01*
X166850333Y-107553095D01*
X166726524Y-107615000D01*
X166602714Y-107615000D01*
X166478905Y-107553095D01*
X166417000Y-107491190D01*
X166355095Y-107367381D01*
X166355095Y-107057857D01*
X166417000Y-106872143D01*
X166355095Y-106067381D02*
X166355095Y-105819762D01*
X166417000Y-105695953D01*
X166540810Y-105572143D01*
X166788429Y-105510238D01*
X167221762Y-105510238D01*
X167469381Y-105572143D01*
X167593190Y-105695953D01*
X167655095Y-105819762D01*
X167655095Y-106067381D01*
X167593190Y-106191191D01*
X167469381Y-106315000D01*
X167221762Y-106376905D01*
X166788429Y-106376905D01*
X166540810Y-106315000D01*
X166417000Y-106191191D01*
X166355095Y-106067381D01*
X147314667Y-112081666D02*
X147314667Y-111462618D01*
X147686095Y-112205475D02*
X146386095Y-111772142D01*
X147686095Y-111338809D01*
X147686095Y-110905475D02*
X146386095Y-110905475D01*
X147314667Y-110472142D01*
X146386095Y-110038809D01*
X147686095Y-110038809D01*
X147686095Y-109419761D02*
X146386095Y-109419761D01*
X146386095Y-108924523D01*
X146448000Y-108800714D01*
X146509905Y-108738809D01*
X146633714Y-108676904D01*
X146819429Y-108676904D01*
X146943238Y-108738809D01*
X147005143Y-108800714D01*
X147067048Y-108924523D01*
X147067048Y-109419761D01*
X147809905Y-108429285D02*
X147809905Y-107438809D01*
X147005143Y-107129285D02*
X147005143Y-106695952D01*
X147686095Y-106510238D02*
X147686095Y-107129285D01*
X146386095Y-107129285D01*
X146386095Y-106510238D01*
X147686095Y-105953095D02*
X146386095Y-105953095D01*
X147686095Y-105210238D01*
X146386095Y-105210238D01*
X149836095Y-112143570D02*
X148536095Y-112143570D01*
X149464667Y-111710237D01*
X148536095Y-111276904D01*
X149836095Y-111276904D01*
X149155143Y-110657856D02*
X149155143Y-110224523D01*
X149836095Y-110038809D02*
X149836095Y-110657856D01*
X148536095Y-110657856D01*
X148536095Y-110038809D01*
X149836095Y-109481666D02*
X148536095Y-109481666D01*
X149464667Y-109048333D01*
X148536095Y-108615000D01*
X149836095Y-108615000D01*
X149959905Y-108305476D02*
X149959905Y-107315000D01*
X149712286Y-106262619D02*
X149774190Y-106324524D01*
X149836095Y-106510238D01*
X149836095Y-106634048D01*
X149774190Y-106819762D01*
X149650381Y-106943571D01*
X149526571Y-107005476D01*
X149278952Y-107067381D01*
X149093238Y-107067381D01*
X148845619Y-107005476D01*
X148721810Y-106943571D01*
X148598000Y-106819762D01*
X148536095Y-106634048D01*
X148536095Y-106510238D01*
X148598000Y-106324524D01*
X148659905Y-106262619D01*
X149774190Y-105767381D02*
X149836095Y-105581667D01*
X149836095Y-105272143D01*
X149774190Y-105148333D01*
X149712286Y-105086429D01*
X149588476Y-105024524D01*
X149464667Y-105024524D01*
X149340857Y-105086429D01*
X149278952Y-105148333D01*
X149217048Y-105272143D01*
X149155143Y-105519762D01*
X149093238Y-105643571D01*
X149031333Y-105705476D01*
X148907524Y-105767381D01*
X148783714Y-105767381D01*
X148659905Y-105705476D01*
X148598000Y-105643571D01*
X148536095Y-105519762D01*
X148536095Y-105210238D01*
X148598000Y-105024524D01*
X151986095Y-111215000D02*
X151986095Y-111834047D01*
X150686095Y-111834047D01*
X151305143Y-110781666D02*
X151305143Y-110348333D01*
X151986095Y-110162619D02*
X151986095Y-110781666D01*
X150686095Y-110781666D01*
X150686095Y-110162619D01*
X151986095Y-109605476D02*
X150686095Y-109605476D01*
X150686095Y-109295952D01*
X150748000Y-109110238D01*
X150871810Y-108986429D01*
X150995619Y-108924524D01*
X151243238Y-108862619D01*
X151428952Y-108862619D01*
X151676571Y-108924524D01*
X151800381Y-108986429D01*
X151924190Y-109110238D01*
X151986095Y-109295952D01*
X151986095Y-109605476D01*
X152109905Y-108615000D02*
X152109905Y-107624524D01*
X151305143Y-107315000D02*
X151305143Y-106881667D01*
X151986095Y-106695953D02*
X151986095Y-107315000D01*
X150686095Y-107315000D01*
X150686095Y-106695953D01*
X151986095Y-106138810D02*
X150686095Y-106138810D01*
X151986095Y-105395953D01*
X150686095Y-105395953D01*
X142196095Y-108641952D02*
X140896095Y-108641952D01*
X142196095Y-107280047D02*
X141577048Y-107713380D01*
X142196095Y-108022904D02*
X140896095Y-108022904D01*
X140896095Y-107527666D01*
X140958000Y-107403857D01*
X141019905Y-107341952D01*
X141143714Y-107280047D01*
X141329429Y-107280047D01*
X141453238Y-107341952D01*
X141515143Y-107403857D01*
X141577048Y-107527666D01*
X141577048Y-108022904D01*
X142319905Y-105856238D02*
X142258000Y-105980047D01*
X142134190Y-106103857D01*
X141948476Y-106289571D01*
X141886571Y-106413380D01*
X141886571Y-106537190D01*
X142196095Y-106475285D02*
X142134190Y-106599095D01*
X142010381Y-106722904D01*
X141762762Y-106784809D01*
X141329429Y-106784809D01*
X141081810Y-106722904D01*
X140958000Y-106599095D01*
X140896095Y-106475285D01*
X140896095Y-106227666D01*
X140958000Y-106103857D01*
X141081810Y-105980047D01*
X141329429Y-105918142D01*
X141762762Y-105918142D01*
X142010381Y-105980047D01*
X142134190Y-106103857D01*
X142196095Y-106227666D01*
X142196095Y-106475285D01*
X133338000Y-108809476D02*
X133276095Y-108933285D01*
X133276095Y-109119000D01*
X133338000Y-109304714D01*
X133461810Y-109428523D01*
X133585619Y-109490428D01*
X133833238Y-109552333D01*
X134018952Y-109552333D01*
X134266571Y-109490428D01*
X134390381Y-109428523D01*
X134514190Y-109304714D01*
X134576095Y-109119000D01*
X134576095Y-108995190D01*
X134514190Y-108809476D01*
X134452286Y-108747571D01*
X134018952Y-108747571D01*
X134018952Y-108995190D01*
X134576095Y-108190428D02*
X133276095Y-108190428D01*
X134576095Y-107447571D01*
X133276095Y-107447571D01*
X134576095Y-106828523D02*
X133276095Y-106828523D01*
X133276095Y-106518999D01*
X133338000Y-106333285D01*
X133461810Y-106209476D01*
X133585619Y-106147571D01*
X133833238Y-106085666D01*
X134018952Y-106085666D01*
X134266571Y-106147571D01*
X134390381Y-106209476D01*
X134514190Y-106333285D01*
X134576095Y-106518999D01*
X134576095Y-106828523D01*
X167534190Y-86286428D02*
X167596095Y-86100714D01*
X167596095Y-85791190D01*
X167534190Y-85667380D01*
X167472286Y-85605476D01*
X167348476Y-85543571D01*
X167224667Y-85543571D01*
X167100857Y-85605476D01*
X167038952Y-85667380D01*
X166977048Y-85791190D01*
X166915143Y-86038809D01*
X166853238Y-86162618D01*
X166791333Y-86224523D01*
X166667524Y-86286428D01*
X166543714Y-86286428D01*
X166419905Y-86224523D01*
X166358000Y-86162618D01*
X166296095Y-86038809D01*
X166296095Y-85729285D01*
X166358000Y-85543571D01*
X167472286Y-84243571D02*
X167534190Y-84305476D01*
X167596095Y-84491190D01*
X167596095Y-84615000D01*
X167534190Y-84800714D01*
X167410381Y-84924523D01*
X167286571Y-84986428D01*
X167038952Y-85048333D01*
X166853238Y-85048333D01*
X166605619Y-84986428D01*
X166481810Y-84924523D01*
X166358000Y-84800714D01*
X166296095Y-84615000D01*
X166296095Y-84491190D01*
X166358000Y-84305476D01*
X166419905Y-84243571D01*
X167596095Y-83686428D02*
X166296095Y-83686428D01*
X167596095Y-82943571D02*
X166853238Y-83500714D01*
X166296095Y-82943571D02*
X167038952Y-83686428D01*
X152235190Y-86162619D02*
X152297095Y-85976905D01*
X152297095Y-85667381D01*
X152235190Y-85543571D01*
X152173286Y-85481667D01*
X152049476Y-85419762D01*
X151925667Y-85419762D01*
X151801857Y-85481667D01*
X151739952Y-85543571D01*
X151678048Y-85667381D01*
X151616143Y-85915000D01*
X151554238Y-86038809D01*
X151492333Y-86100714D01*
X151368524Y-86162619D01*
X151244714Y-86162619D01*
X151120905Y-86100714D01*
X151059000Y-86038809D01*
X150997095Y-85915000D01*
X150997095Y-85605476D01*
X151059000Y-85419762D01*
X152173286Y-84119762D02*
X152235190Y-84181667D01*
X152297095Y-84367381D01*
X152297095Y-84491191D01*
X152235190Y-84676905D01*
X152111381Y-84800714D01*
X151987571Y-84862619D01*
X151739952Y-84924524D01*
X151554238Y-84924524D01*
X151306619Y-84862619D01*
X151182810Y-84800714D01*
X151059000Y-84676905D01*
X150997095Y-84491191D01*
X150997095Y-84367381D01*
X151059000Y-84181667D01*
X151120905Y-84119762D01*
X152297095Y-82943572D02*
X152297095Y-83562619D01*
X150997095Y-83562619D01*
X154385190Y-86193571D02*
X154447095Y-86007857D01*
X154447095Y-85698333D01*
X154385190Y-85574523D01*
X154323286Y-85512619D01*
X154199476Y-85450714D01*
X154075667Y-85450714D01*
X153951857Y-85512619D01*
X153889952Y-85574523D01*
X153828048Y-85698333D01*
X153766143Y-85945952D01*
X153704238Y-86069761D01*
X153642333Y-86131666D01*
X153518524Y-86193571D01*
X153394714Y-86193571D01*
X153270905Y-86131666D01*
X153209000Y-86069761D01*
X153147095Y-85945952D01*
X153147095Y-85636428D01*
X153209000Y-85450714D01*
X154447095Y-84893571D02*
X153147095Y-84893571D01*
X153147095Y-84584047D01*
X153209000Y-84398333D01*
X153332810Y-84274524D01*
X153456619Y-84212619D01*
X153704238Y-84150714D01*
X153889952Y-84150714D01*
X154137571Y-84212619D01*
X154261381Y-84274524D01*
X154385190Y-84398333D01*
X154447095Y-84584047D01*
X154447095Y-84893571D01*
X154075667Y-83655476D02*
X154075667Y-83036428D01*
X154447095Y-83779285D02*
X153147095Y-83345952D01*
X154447095Y-82912619D01*
X133386095Y-85195952D02*
X134686095Y-84762619D01*
X133386095Y-84329286D01*
X134686095Y-83895952D02*
X133819429Y-83895952D01*
X133386095Y-83895952D02*
X133448000Y-83957857D01*
X133509905Y-83895952D01*
X133448000Y-83834047D01*
X133386095Y-83895952D01*
X133509905Y-83895952D01*
X133819429Y-83276904D02*
X134686095Y-83276904D01*
X133943238Y-83276904D02*
X133881333Y-83214999D01*
X133819429Y-83091190D01*
X133819429Y-82905476D01*
X133881333Y-82781666D01*
X134005143Y-82719761D01*
X134686095Y-82719761D01*
X136464667Y-86000714D02*
X136464667Y-85381666D01*
X136836095Y-86124523D02*
X135536095Y-85691190D01*
X136836095Y-85257857D01*
X135598000Y-84143571D02*
X135536095Y-84267380D01*
X135536095Y-84453095D01*
X135598000Y-84638809D01*
X135721810Y-84762618D01*
X135845619Y-84824523D01*
X136093238Y-84886428D01*
X136278952Y-84886428D01*
X136526571Y-84824523D01*
X136650381Y-84762618D01*
X136774190Y-84638809D01*
X136836095Y-84453095D01*
X136836095Y-84329285D01*
X136774190Y-84143571D01*
X136712286Y-84081666D01*
X136278952Y-84081666D01*
X136278952Y-84329285D01*
X135969429Y-83524523D02*
X136836095Y-83524523D01*
X136093238Y-83524523D02*
X136031333Y-83462618D01*
X135969429Y-83338809D01*
X135969429Y-83153095D01*
X136031333Y-83029285D01*
X136155143Y-82967380D01*
X136836095Y-82967380D01*
X136836095Y-81791190D02*
X135536095Y-81791190D01*
X136774190Y-81791190D02*
X136836095Y-81915000D01*
X136836095Y-82162619D01*
X136774190Y-82286428D01*
X136712286Y-82348333D01*
X136588476Y-82410238D01*
X136217048Y-82410238D01*
X136093238Y-82348333D01*
X136031333Y-82286428D01*
X135969429Y-82162619D01*
X135969429Y-81915000D01*
X136031333Y-81791190D01*
X137686095Y-84855476D02*
X137686095Y-84050714D01*
X138181333Y-84484047D01*
X138181333Y-84298333D01*
X138243238Y-84174523D01*
X138305143Y-84112619D01*
X138428952Y-84050714D01*
X138738476Y-84050714D01*
X138862286Y-84112619D01*
X138924190Y-84174523D01*
X138986095Y-84298333D01*
X138986095Y-84669761D01*
X138924190Y-84793571D01*
X138862286Y-84855476D01*
X137686095Y-83679285D02*
X138986095Y-83245952D01*
X137686095Y-82812619D01*
D13*
X139390381Y-120999285D02*
X139390381Y-121570714D01*
X139390381Y-121285000D02*
X138390381Y-121285000D01*
X138533238Y-121380238D01*
X138628476Y-121475476D01*
X138676095Y-121570714D01*
X179324000Y-118745000D02*
G75*
G03X179324000Y-118745000I-2286000J0D01*
G01*
X140208000Y-125095000D02*
X157988000Y-125095000D01*
X157988000Y-125095000D02*
X157988000Y-122555000D01*
X157988000Y-122555000D02*
X140208000Y-122555000D01*
X137388000Y-125375000D02*
X138938000Y-125375000D01*
X140208000Y-125095000D02*
X140208000Y-122555000D01*
X138938000Y-122275000D02*
X137388000Y-122275000D01*
X137388000Y-122275000D02*
X137388000Y-125375000D01*
X163068000Y-125095000D02*
X175768000Y-125095000D01*
X175768000Y-125095000D02*
X175768000Y-122555000D01*
X175768000Y-122555000D02*
X163068000Y-122555000D01*
X160248000Y-125375000D02*
X161798000Y-125375000D01*
X163068000Y-125095000D02*
X163068000Y-122555000D01*
X161798000Y-122275000D02*
X160248000Y-122275000D01*
X160248000Y-122275000D02*
X160248000Y-125375000D01*
X131064000Y-76835000D02*
X153924000Y-76835000D01*
X153924000Y-76835000D02*
X153924000Y-74295000D01*
X153924000Y-74295000D02*
X131064000Y-74295000D01*
X128244000Y-77115000D02*
X129794000Y-77115000D01*
X131064000Y-76835000D02*
X131064000Y-74295000D01*
X129794000Y-74015000D02*
X128244000Y-74015000D01*
X128244000Y-74015000D02*
X128244000Y-77115000D01*
X157988000Y-76835000D02*
X175768000Y-76835000D01*
X175768000Y-76835000D02*
X175768000Y-74295000D01*
X175768000Y-74295000D02*
X157988000Y-74295000D01*
X155168000Y-77115000D02*
X156718000Y-77115000D01*
X157988000Y-76835000D02*
X157988000Y-74295000D01*
X156718000Y-74015000D02*
X155168000Y-74015000D01*
X155168000Y-74015000D02*
X155168000Y-77115000D01*
X127254000Y-123825000D02*
G75*
G03X127254000Y-123825000I-2286000J0D01*
G01*
X128524000Y-75565000D02*
G75*
G03X128524000Y-75565000I-2286000J0D01*
G01*
D14*
X135258000Y-89337000D02*
X168338000Y-89337000D01*
X168338000Y-89337000D02*
X168338000Y-86677000D01*
X168338000Y-86677000D02*
X135258000Y-86677000D01*
X135258000Y-86677000D02*
X135258000Y-89337000D01*
X133988000Y-89337000D02*
X132658000Y-89337000D01*
X132658000Y-89337000D02*
X132658000Y-88007000D01*
X174028000Y-98045000D02*
X174028000Y-90365000D01*
X174028000Y-90365000D02*
X171368000Y-90365000D01*
X171368000Y-90365000D02*
X171368000Y-98045000D01*
X171368000Y-98045000D02*
X174028000Y-98045000D01*
X174028000Y-99315000D02*
X174028000Y-100645000D01*
X174028000Y-100645000D02*
X172698000Y-100645000D01*
X168338000Y-99437000D02*
X168338000Y-89217000D01*
X168338000Y-89217000D02*
X165678000Y-89217000D01*
X165678000Y-89217000D02*
X165678000Y-99437000D01*
X165678000Y-99437000D02*
X168338000Y-99437000D01*
X168338000Y-100707000D02*
X168338000Y-102037000D01*
X168338000Y-102037000D02*
X167008000Y-102037000D01*
X135258000Y-104577000D02*
X168338000Y-104577000D01*
X168338000Y-104577000D02*
X168338000Y-101917000D01*
X168338000Y-101917000D02*
X135258000Y-101917000D01*
X135258000Y-101917000D02*
X135258000Y-104577000D01*
X133988000Y-104577000D02*
X132658000Y-104577000D01*
X132658000Y-104577000D02*
X132658000Y-103247000D01*
X130478000Y-98695000D02*
X130478000Y-91015000D01*
X130478000Y-91015000D02*
X127818000Y-91015000D01*
X127818000Y-91015000D02*
X127818000Y-98695000D01*
X127818000Y-98695000D02*
X130478000Y-98695000D01*
X130478000Y-99965000D02*
X130478000Y-101295000D01*
X130478000Y-101295000D02*
X129148000Y-101295000D01*
X113777000Y-92853200D02*
X113777000Y-90253200D01*
X113777000Y-90253200D02*
X111157000Y-90253200D01*
X111157000Y-90253200D02*
X111157000Y-92853200D01*
X111157000Y-92853200D02*
X113777000Y-92853200D01*
X111157000Y-91903200D02*
X111157000Y-91143200D01*
X111157000Y-91143200D02*
X105157000Y-91143200D01*
X105157000Y-91143200D02*
X105157000Y-91903200D01*
X105157000Y-91903200D02*
X111157000Y-91903200D01*
X114207000Y-91903200D02*
X113777000Y-91903200D01*
X114207000Y-91143200D02*
X113777000Y-91143200D01*
X111157000Y-91783200D02*
X105157000Y-91783200D01*
X111157000Y-91663200D02*
X105157000Y-91663200D01*
X111157000Y-91543200D02*
X105157000Y-91543200D01*
X111157000Y-91423200D02*
X105157000Y-91423200D01*
X111157000Y-91303200D02*
X105157000Y-91303200D01*
X111157000Y-91183200D02*
X105157000Y-91183200D01*
X113777000Y-90253200D02*
X113777000Y-87713200D01*
X113777000Y-87713200D02*
X111157000Y-87713200D01*
X111157000Y-87713200D02*
X111157000Y-90253200D01*
X111157000Y-90253200D02*
X113777000Y-90253200D01*
X111157000Y-89363200D02*
X111157000Y-88603200D01*
X111157000Y-88603200D02*
X105157000Y-88603200D01*
X105157000Y-88603200D02*
X105157000Y-89363200D01*
X105157000Y-89363200D02*
X111157000Y-89363200D01*
X114207000Y-89363200D02*
X113777000Y-89363200D01*
X114207000Y-88603200D02*
X113777000Y-88603200D01*
X113777000Y-87713200D02*
X113777000Y-85173200D01*
X113777000Y-85173200D02*
X111157000Y-85173200D01*
X111157000Y-85173200D02*
X111157000Y-87713200D01*
X111157000Y-87713200D02*
X113777000Y-87713200D01*
X111157000Y-86823200D02*
X111157000Y-86063200D01*
X111157000Y-86063200D02*
X105157000Y-86063200D01*
X105157000Y-86063200D02*
X105157000Y-86823200D01*
X105157000Y-86823200D02*
X111157000Y-86823200D01*
X114207000Y-86823200D02*
X113777000Y-86823200D01*
X114207000Y-86063200D02*
X113777000Y-86063200D01*
X113777000Y-85173200D02*
X113777000Y-82573200D01*
X113777000Y-82573200D02*
X111157000Y-82573200D01*
X111157000Y-82573200D02*
X111157000Y-85173200D01*
X111157000Y-85173200D02*
X113777000Y-85173200D01*
X111157000Y-84283200D02*
X111157000Y-83523200D01*
X111157000Y-83523200D02*
X105157000Y-83523200D01*
X105157000Y-83523200D02*
X105157000Y-84283200D01*
X105157000Y-84283200D02*
X111157000Y-84283200D01*
X114207000Y-84283200D02*
X113777000Y-84283200D01*
X114207000Y-83523200D02*
X113777000Y-83523200D01*
X116387000Y-91523200D02*
X116387000Y-92793200D01*
X116387000Y-92793200D02*
X115117000Y-92793200D01*
X113777000Y-101997000D02*
X113777000Y-99397000D01*
X113777000Y-99397000D02*
X111157000Y-99397000D01*
X111157000Y-99397000D02*
X111157000Y-101997000D01*
X111157000Y-101997000D02*
X113777000Y-101997000D01*
X111157000Y-101047000D02*
X111157000Y-100287000D01*
X111157000Y-100287000D02*
X105157000Y-100287000D01*
X105157000Y-100287000D02*
X105157000Y-101047000D01*
X105157000Y-101047000D02*
X111157000Y-101047000D01*
X114207000Y-101047000D02*
X113777000Y-101047000D01*
X114207000Y-100287000D02*
X113777000Y-100287000D01*
X111157000Y-100927000D02*
X105157000Y-100927000D01*
X111157000Y-100807000D02*
X105157000Y-100807000D01*
X111157000Y-100687000D02*
X105157000Y-100687000D01*
X111157000Y-100567000D02*
X105157000Y-100567000D01*
X111157000Y-100447000D02*
X105157000Y-100447000D01*
X111157000Y-100327000D02*
X105157000Y-100327000D01*
X113777000Y-99397000D02*
X113777000Y-96797000D01*
X113777000Y-96797000D02*
X111157000Y-96797000D01*
X111157000Y-96797000D02*
X111157000Y-99397000D01*
X111157000Y-99397000D02*
X113777000Y-99397000D01*
X111157000Y-98507000D02*
X111157000Y-97747000D01*
X111157000Y-97747000D02*
X105157000Y-97747000D01*
X105157000Y-97747000D02*
X105157000Y-98507000D01*
X105157000Y-98507000D02*
X111157000Y-98507000D01*
X114207000Y-98507000D02*
X113777000Y-98507000D01*
X114207000Y-97747000D02*
X113777000Y-97747000D01*
X116387000Y-100667000D02*
X116387000Y-101937000D01*
X116387000Y-101937000D02*
X115117000Y-101937000D01*
X113777000Y-115713000D02*
X113777000Y-113113000D01*
X113777000Y-113113000D02*
X111157000Y-113113000D01*
X111157000Y-113113000D02*
X111157000Y-115713000D01*
X111157000Y-115713000D02*
X113777000Y-115713000D01*
X111157000Y-114763000D02*
X111157000Y-114003000D01*
X111157000Y-114003000D02*
X105157000Y-114003000D01*
X105157000Y-114003000D02*
X105157000Y-114763000D01*
X105157000Y-114763000D02*
X111157000Y-114763000D01*
X114207000Y-114763000D02*
X113777000Y-114763000D01*
X114207000Y-114003000D02*
X113777000Y-114003000D01*
X111157000Y-114643000D02*
X105157000Y-114643000D01*
X111157000Y-114523000D02*
X105157000Y-114523000D01*
X111157000Y-114403000D02*
X105157000Y-114403000D01*
X111157000Y-114283000D02*
X105157000Y-114283000D01*
X111157000Y-114163000D02*
X105157000Y-114163000D01*
X111157000Y-114043000D02*
X105157000Y-114043000D01*
X113777000Y-113113000D02*
X113777000Y-110573000D01*
X113777000Y-110573000D02*
X111157000Y-110573000D01*
X111157000Y-110573000D02*
X111157000Y-113113000D01*
X111157000Y-113113000D02*
X113777000Y-113113000D01*
X111157000Y-112223000D02*
X111157000Y-111463000D01*
X111157000Y-111463000D02*
X105157000Y-111463000D01*
X105157000Y-111463000D02*
X105157000Y-112223000D01*
X105157000Y-112223000D02*
X111157000Y-112223000D01*
X114207000Y-112223000D02*
X113777000Y-112223000D01*
X114207000Y-111463000D02*
X113777000Y-111463000D01*
X113777000Y-110573000D02*
X113777000Y-108033000D01*
X113777000Y-108033000D02*
X111157000Y-108033000D01*
X111157000Y-108033000D02*
X111157000Y-110573000D01*
X111157000Y-110573000D02*
X113777000Y-110573000D01*
X111157000Y-109683000D02*
X111157000Y-108923000D01*
X111157000Y-108923000D02*
X105157000Y-108923000D01*
X105157000Y-108923000D02*
X105157000Y-109683000D01*
X105157000Y-109683000D02*
X111157000Y-109683000D01*
X114207000Y-109683000D02*
X113777000Y-109683000D01*
X114207000Y-108923000D02*
X113777000Y-108923000D01*
X113777000Y-108033000D02*
X113777000Y-105433000D01*
X113777000Y-105433000D02*
X111157000Y-105433000D01*
X111157000Y-105433000D02*
X111157000Y-108033000D01*
X111157000Y-108033000D02*
X113777000Y-108033000D01*
X111157000Y-107143000D02*
X111157000Y-106383000D01*
X111157000Y-106383000D02*
X105157000Y-106383000D01*
X105157000Y-106383000D02*
X105157000Y-107143000D01*
X105157000Y-107143000D02*
X111157000Y-107143000D01*
X114207000Y-107143000D02*
X113777000Y-107143000D01*
X114207000Y-106383000D02*
X113777000Y-106383000D01*
X116387000Y-114383000D02*
X116387000Y-115653000D01*
X116387000Y-115653000D02*
X115117000Y-115653000D01*
X127828000Y-114135000D02*
X127828000Y-108995000D01*
X127828000Y-108995000D02*
X125168000Y-108995000D01*
X125168000Y-108995000D02*
X125168000Y-114135000D01*
X125168000Y-114135000D02*
X127828000Y-114135000D01*
X127828000Y-115405000D02*
X127828000Y-116735000D01*
X127828000Y-116735000D02*
X126498000Y-116735000D01*
X116728000Y-123695000D02*
X119328000Y-123695000D01*
X119328000Y-123695000D02*
X119328000Y-121035000D01*
X119328000Y-121035000D02*
X116728000Y-121035000D01*
X116728000Y-121035000D02*
X116728000Y-123695000D01*
X115458000Y-123695000D02*
X114128000Y-123695000D01*
X114128000Y-123695000D02*
X114128000Y-122365000D01*
X156218000Y-115735000D02*
X156218000Y-115255000D01*
X156218000Y-115255000D02*
X163938000Y-115255000D01*
X163938000Y-115255000D02*
X163938000Y-115735000D01*
X156218000Y-118495000D02*
X156218000Y-118975000D01*
X156218000Y-118975000D02*
X163938000Y-118975000D01*
X163938000Y-118975000D02*
X163938000Y-118495000D01*
X157418000Y-115255000D02*
X157418000Y-118975000D01*
X156108000Y-111385000D02*
X156108000Y-110905000D01*
X156108000Y-110905000D02*
X163828000Y-110905000D01*
X163828000Y-110905000D02*
X163828000Y-111385000D01*
X156108000Y-114145000D02*
X156108000Y-114625000D01*
X156108000Y-114625000D02*
X163828000Y-114625000D01*
X163828000Y-114625000D02*
X163828000Y-114145000D01*
X157308000Y-110905000D02*
X157308000Y-114625000D01*
D13*
X147089905Y-121737381D02*
X147089905Y-120737381D01*
X147470858Y-120737381D01*
X147566096Y-120785000D01*
X147613715Y-120832619D01*
X147661334Y-120927857D01*
X147661334Y-121070714D01*
X147613715Y-121165952D01*
X147566096Y-121213571D01*
X147470858Y-121261190D01*
X147089905Y-121261190D01*
X148613715Y-121737381D02*
X148042286Y-121737381D01*
X148328000Y-121737381D02*
X148328000Y-120737381D01*
X148232762Y-120880238D01*
X148137524Y-120975476D01*
X148042286Y-121023095D01*
X167663905Y-121737381D02*
X167663905Y-120737381D01*
X168044858Y-120737381D01*
X168140096Y-120785000D01*
X168187715Y-120832619D01*
X168235334Y-120927857D01*
X168235334Y-121070714D01*
X168187715Y-121165952D01*
X168140096Y-121213571D01*
X168044858Y-121261190D01*
X167663905Y-121261190D01*
X168616286Y-120832619D02*
X168663905Y-120785000D01*
X168759143Y-120737381D01*
X168997239Y-120737381D01*
X169092477Y-120785000D01*
X169140096Y-120832619D01*
X169187715Y-120927857D01*
X169187715Y-121023095D01*
X169140096Y-121165952D01*
X168568667Y-121737381D01*
X169187715Y-121737381D01*
X140485905Y-78811381D02*
X140485905Y-77811381D01*
X140866858Y-77811381D01*
X140962096Y-77859000D01*
X141009715Y-77906619D01*
X141057334Y-78001857D01*
X141057334Y-78144714D01*
X141009715Y-78239952D01*
X140962096Y-78287571D01*
X140866858Y-78335190D01*
X140485905Y-78335190D01*
X141390667Y-77811381D02*
X142009715Y-77811381D01*
X141676381Y-78192333D01*
X141819239Y-78192333D01*
X141914477Y-78239952D01*
X141962096Y-78287571D01*
X142009715Y-78382810D01*
X142009715Y-78620905D01*
X141962096Y-78716143D01*
X141914477Y-78763762D01*
X141819239Y-78811381D01*
X141533524Y-78811381D01*
X141438286Y-78763762D01*
X141390667Y-78716143D01*
X164869905Y-78811381D02*
X164869905Y-77811381D01*
X165250858Y-77811381D01*
X165346096Y-77859000D01*
X165393715Y-77906619D01*
X165441334Y-78001857D01*
X165441334Y-78144714D01*
X165393715Y-78239952D01*
X165346096Y-78287571D01*
X165250858Y-78335190D01*
X164869905Y-78335190D01*
X166298477Y-78144714D02*
X166298477Y-78811381D01*
X166060381Y-77763762D02*
X165822286Y-78478048D01*
X166441334Y-78478048D01*
X131110381Y-88340333D02*
X131824667Y-88340333D01*
X131967524Y-88387953D01*
X132062762Y-88483191D01*
X132110381Y-88626048D01*
X132110381Y-88721286D01*
X132110381Y-87340333D02*
X132110381Y-87911762D01*
X132110381Y-87626048D02*
X131110381Y-87626048D01*
X131253238Y-87721286D01*
X131348476Y-87816524D01*
X131396095Y-87911762D01*
X172364667Y-101097381D02*
X172364667Y-101811667D01*
X172317047Y-101954524D01*
X172221809Y-102049762D01*
X172078952Y-102097381D01*
X171983714Y-102097381D01*
X172793238Y-101192619D02*
X172840857Y-101145000D01*
X172936095Y-101097381D01*
X173174191Y-101097381D01*
X173269429Y-101145000D01*
X173317048Y-101192619D01*
X173364667Y-101287857D01*
X173364667Y-101383095D01*
X173317048Y-101525952D01*
X172745619Y-102097381D01*
X173364667Y-102097381D01*
X166674667Y-102489381D02*
X166674667Y-103203667D01*
X166627047Y-103346524D01*
X166531809Y-103441762D01*
X166388952Y-103489381D01*
X166293714Y-103489381D01*
X167055619Y-102489381D02*
X167674667Y-102489381D01*
X167341333Y-102870333D01*
X167484191Y-102870333D01*
X167579429Y-102917952D01*
X167627048Y-102965571D01*
X167674667Y-103060810D01*
X167674667Y-103298905D01*
X167627048Y-103394143D01*
X167579429Y-103441762D01*
X167484191Y-103489381D01*
X167198476Y-103489381D01*
X167103238Y-103441762D01*
X167055619Y-103394143D01*
X131110381Y-103580333D02*
X131824667Y-103580333D01*
X131967524Y-103627953D01*
X132062762Y-103723191D01*
X132110381Y-103866048D01*
X132110381Y-103961286D01*
X131110381Y-102627952D02*
X131110381Y-103104143D01*
X131586571Y-103151762D01*
X131538952Y-103104143D01*
X131491333Y-103008905D01*
X131491333Y-102770809D01*
X131538952Y-102675571D01*
X131586571Y-102627952D01*
X131681810Y-102580333D01*
X131919905Y-102580333D01*
X132015143Y-102627952D01*
X132062762Y-102675571D01*
X132110381Y-102770809D01*
X132110381Y-103008905D01*
X132062762Y-103104143D01*
X132015143Y-103151762D01*
X128814667Y-101747381D02*
X128814667Y-102461667D01*
X128767047Y-102604524D01*
X128671809Y-102699762D01*
X128528952Y-102747381D01*
X128433714Y-102747381D01*
X129719429Y-101747381D02*
X129528952Y-101747381D01*
X129433714Y-101795000D01*
X129386095Y-101842619D01*
X129290857Y-101985476D01*
X129243238Y-102175952D01*
X129243238Y-102556905D01*
X129290857Y-102652143D01*
X129338476Y-102699762D01*
X129433714Y-102747381D01*
X129624191Y-102747381D01*
X129719429Y-102699762D01*
X129767048Y-102652143D01*
X129814667Y-102556905D01*
X129814667Y-102318810D01*
X129767048Y-102223571D01*
X129719429Y-102175952D01*
X129624191Y-102128333D01*
X129433714Y-102128333D01*
X129338476Y-102175952D01*
X129290857Y-102223571D01*
X129243238Y-102318810D01*
X110468667Y-93245581D02*
X110468667Y-93959867D01*
X110421047Y-94102724D01*
X110325809Y-94197962D01*
X110182952Y-94245581D01*
X110087714Y-94245581D01*
X110849619Y-93245581D02*
X111516286Y-93245581D01*
X111087714Y-94245581D01*
X110468667Y-102389381D02*
X110468667Y-103103667D01*
X110421047Y-103246524D01*
X110325809Y-103341762D01*
X110182952Y-103389381D01*
X110087714Y-103389381D01*
X111087714Y-102817952D02*
X110992476Y-102770333D01*
X110944857Y-102722714D01*
X110897238Y-102627476D01*
X110897238Y-102579857D01*
X110944857Y-102484619D01*
X110992476Y-102437000D01*
X111087714Y-102389381D01*
X111278191Y-102389381D01*
X111373429Y-102437000D01*
X111421048Y-102484619D01*
X111468667Y-102579857D01*
X111468667Y-102627476D01*
X111421048Y-102722714D01*
X111373429Y-102770333D01*
X111278191Y-102817952D01*
X111087714Y-102817952D01*
X110992476Y-102865571D01*
X110944857Y-102913190D01*
X110897238Y-103008429D01*
X110897238Y-103198905D01*
X110944857Y-103294143D01*
X110992476Y-103341762D01*
X111087714Y-103389381D01*
X111278191Y-103389381D01*
X111373429Y-103341762D01*
X111421048Y-103294143D01*
X111468667Y-103198905D01*
X111468667Y-103008429D01*
X111421048Y-102913190D01*
X111373429Y-102865571D01*
X111278191Y-102817952D01*
X110468667Y-116105381D02*
X110468667Y-116819667D01*
X110421047Y-116962524D01*
X110325809Y-117057762D01*
X110182952Y-117105381D01*
X110087714Y-117105381D01*
X111373429Y-116438714D02*
X111373429Y-117105381D01*
X111135333Y-116057762D02*
X110897238Y-116772048D01*
X111516286Y-116772048D01*
X126164667Y-117187381D02*
X126164667Y-117901667D01*
X126117047Y-118044524D01*
X126021809Y-118139762D01*
X125878952Y-118187381D01*
X125783714Y-118187381D01*
X126688476Y-118187381D02*
X126878952Y-118187381D01*
X126974191Y-118139762D01*
X127021810Y-118092143D01*
X127117048Y-117949286D01*
X127164667Y-117758810D01*
X127164667Y-117377857D01*
X127117048Y-117282619D01*
X127069429Y-117235000D01*
X126974191Y-117187381D01*
X126783714Y-117187381D01*
X126688476Y-117235000D01*
X126640857Y-117282619D01*
X126593238Y-117377857D01*
X126593238Y-117615952D01*
X126640857Y-117711190D01*
X126688476Y-117758810D01*
X126783714Y-117806429D01*
X126974191Y-117806429D01*
X127069429Y-117758810D01*
X127117048Y-117711190D01*
X127164667Y-117615952D01*
X112580381Y-123174523D02*
X113294667Y-123174523D01*
X113437524Y-123222143D01*
X113532762Y-123317381D01*
X113580381Y-123460238D01*
X113580381Y-123555476D01*
X113580381Y-122174523D02*
X113580381Y-122745952D01*
X113580381Y-122460238D02*
X112580381Y-122460238D01*
X112723238Y-122555476D01*
X112818476Y-122650714D01*
X112866095Y-122745952D01*
X112580381Y-121555476D02*
X112580381Y-121460237D01*
X112628000Y-121364999D01*
X112675619Y-121317380D01*
X112770857Y-121269761D01*
X112961333Y-121222142D01*
X113199429Y-121222142D01*
X113389905Y-121269761D01*
X113485143Y-121317380D01*
X113532762Y-121364999D01*
X113580381Y-121460237D01*
X113580381Y-121555476D01*
X113532762Y-121650714D01*
X113485143Y-121698333D01*
X113389905Y-121745952D01*
X113199429Y-121793571D01*
X112961333Y-121793571D01*
X112770857Y-121745952D01*
X112675619Y-121698333D01*
X112628000Y-121650714D01*
X112580381Y-121555476D01*
X159339905Y-114707381D02*
X159339905Y-113707381D01*
X159578000Y-113707381D01*
X159720858Y-113755000D01*
X159816096Y-113850238D01*
X159863715Y-113945476D01*
X159911334Y-114135952D01*
X159911334Y-114278810D01*
X159863715Y-114469286D01*
X159816096Y-114564524D01*
X159720858Y-114659762D01*
X159578000Y-114707381D01*
X159339905Y-114707381D01*
X160768477Y-114040714D02*
X160768477Y-114707381D01*
X160530381Y-113659762D02*
X160292286Y-114374048D01*
X160911334Y-114374048D01*
X159229905Y-110357381D02*
X159229905Y-109357381D01*
X159468000Y-109357381D01*
X159610858Y-109405000D01*
X159706096Y-109500238D01*
X159753715Y-109595476D01*
X159801334Y-109785952D01*
X159801334Y-109928810D01*
X159753715Y-110119286D01*
X159706096Y-110214524D01*
X159610858Y-110309762D01*
X159468000Y-110357381D01*
X159229905Y-110357381D01*
X160134667Y-109357381D02*
X160753715Y-109357381D01*
X160420381Y-109738333D01*
X160563239Y-109738333D01*
X160658477Y-109785952D01*
X160706096Y-109833571D01*
X160753715Y-109928810D01*
X160753715Y-110166905D01*
X160706096Y-110262143D01*
X160658477Y-110309762D01*
X160563239Y-110357381D01*
X160277524Y-110357381D01*
X160182286Y-110309762D01*
X160134667Y-110262143D01*
M02*
