G04 #@! TF.FileFunction,Other,User*
%FSLAX46Y46*%
G04 Gerber Fmt 4.6, Leading zero omitted, Abs format (unit mm)*
G04 Created by KiCad (PCBNEW 4.0.6) date 06/20/17 12:27:10*
%MOMM*%
%LPD*%
G01*
G04 APERTURE LIST*
%ADD10C,0.100000*%
%ADD11C,0.050000*%
G04 APERTURE END LIST*
D10*
D11*
X137188000Y-122075000D02*
X137188000Y-125575000D01*
X158488000Y-122075000D02*
X158488000Y-125575000D01*
X137188000Y-122075000D02*
X158488000Y-122075000D01*
X137188000Y-125575000D02*
X158488000Y-125575000D01*
X160048000Y-122075000D02*
X160048000Y-125575000D01*
X176248000Y-122075000D02*
X176248000Y-125575000D01*
X160048000Y-122075000D02*
X176248000Y-122075000D01*
X160048000Y-125575000D02*
X176248000Y-125575000D01*
X128044000Y-73815000D02*
X128044000Y-77315000D01*
X154444000Y-73815000D02*
X154444000Y-77315000D01*
X128044000Y-73815000D02*
X154444000Y-73815000D01*
X128044000Y-77315000D02*
X154444000Y-77315000D01*
X154968000Y-73815000D02*
X154968000Y-77315000D01*
X176268000Y-73815000D02*
X176268000Y-77315000D01*
X154968000Y-73815000D02*
X176268000Y-73815000D01*
X154968000Y-77315000D02*
X176268000Y-77315000D01*
X132188000Y-89807000D02*
X168788000Y-89807000D01*
X168788000Y-89807000D02*
X168788000Y-86207000D01*
X168788000Y-86207000D02*
X132188000Y-86207000D01*
X132188000Y-86207000D02*
X132188000Y-89807000D01*
X174498000Y-101115000D02*
X174498000Y-89915000D01*
X174498000Y-89915000D02*
X170898000Y-89915000D01*
X170898000Y-89915000D02*
X170898000Y-101115000D01*
X170898000Y-101115000D02*
X174498000Y-101115000D01*
X168808000Y-102507000D02*
X168808000Y-88757000D01*
X168808000Y-88757000D02*
X165208000Y-88757000D01*
X165208000Y-88757000D02*
X165208000Y-102507000D01*
X165208000Y-102507000D02*
X168808000Y-102507000D01*
X132188000Y-105047000D02*
X168788000Y-105047000D01*
X168788000Y-105047000D02*
X168788000Y-101447000D01*
X168788000Y-101447000D02*
X132188000Y-101447000D01*
X132188000Y-101447000D02*
X132188000Y-105047000D01*
X130948000Y-101765000D02*
X130948000Y-90565000D01*
X130948000Y-90565000D02*
X127348000Y-90565000D01*
X127348000Y-90565000D02*
X127348000Y-101765000D01*
X127348000Y-101765000D02*
X130948000Y-101765000D01*
X116917000Y-93323200D02*
X116917000Y-82123200D01*
X116917000Y-82123200D02*
X104717000Y-82123200D01*
X104717000Y-82123200D02*
X104717000Y-93323200D01*
X104717000Y-93323200D02*
X116917000Y-93323200D01*
X116917000Y-102467000D02*
X116917000Y-96317000D01*
X116917000Y-96317000D02*
X104717000Y-96317000D01*
X104717000Y-96317000D02*
X104717000Y-102467000D01*
X104717000Y-102467000D02*
X116917000Y-102467000D01*
X116917000Y-116183000D02*
X116917000Y-104983000D01*
X116917000Y-104983000D02*
X104717000Y-104983000D01*
X104717000Y-104983000D02*
X104717000Y-116183000D01*
X104717000Y-116183000D02*
X116917000Y-116183000D01*
X128298000Y-117205000D02*
X128298000Y-108555000D01*
X128298000Y-108555000D02*
X124698000Y-108555000D01*
X124698000Y-108555000D02*
X124698000Y-117205000D01*
X124698000Y-117205000D02*
X128298000Y-117205000D01*
X113658000Y-124165000D02*
X119808000Y-124165000D01*
X119808000Y-124165000D02*
X119808000Y-120565000D01*
X119808000Y-120565000D02*
X113658000Y-120565000D01*
X113658000Y-120565000D02*
X113658000Y-124165000D01*
X153548000Y-114965000D02*
X153548000Y-119265000D01*
X153548000Y-119265000D02*
X166648000Y-119265000D01*
X166648000Y-119265000D02*
X166648000Y-114965000D01*
X166648000Y-114965000D02*
X153548000Y-114965000D01*
X153438000Y-110615000D02*
X153438000Y-114915000D01*
X153438000Y-114915000D02*
X166538000Y-114915000D01*
X166538000Y-114915000D02*
X166538000Y-110615000D01*
X166538000Y-110615000D02*
X153438000Y-110615000D01*
M02*
