G04 #@! TF.FileFunction,Other,Fab,Top*
%FSLAX46Y46*%
G04 Gerber Fmt 4.6, Leading zero omitted, Abs format (unit mm)*
G04 Created by KiCad (PCBNEW 4.0.6) date 06/20/17 12:27:11*
%MOMM*%
%LPD*%
G01*
G04 APERTURE LIST*
%ADD10C,0.100000*%
%ADD11C,0.150000*%
G04 APERTURE END LIST*
D10*
X132718000Y-89277000D02*
X168278000Y-89277000D01*
X168278000Y-89277000D02*
X168278000Y-86737000D01*
X168278000Y-86737000D02*
X132718000Y-86737000D01*
X132718000Y-86737000D02*
X132718000Y-89277000D01*
X173968000Y-100585000D02*
X173968000Y-90425000D01*
X173968000Y-90425000D02*
X171428000Y-90425000D01*
X171428000Y-90425000D02*
X171428000Y-100585000D01*
X171428000Y-100585000D02*
X173968000Y-100585000D01*
X168278000Y-101977000D02*
X168278000Y-89277000D01*
X168278000Y-89277000D02*
X165738000Y-89277000D01*
X165738000Y-89277000D02*
X165738000Y-101977000D01*
X165738000Y-101977000D02*
X168278000Y-101977000D01*
X132718000Y-104517000D02*
X168278000Y-104517000D01*
X168278000Y-104517000D02*
X168278000Y-101977000D01*
X168278000Y-101977000D02*
X132718000Y-101977000D01*
X132718000Y-101977000D02*
X132718000Y-104517000D01*
X130418000Y-101235000D02*
X130418000Y-91075000D01*
X130418000Y-91075000D02*
X127878000Y-91075000D01*
X127878000Y-91075000D02*
X127878000Y-101235000D01*
X127878000Y-101235000D02*
X130418000Y-101235000D01*
X113717000Y-92793200D02*
X113717000Y-90253200D01*
X113717000Y-90253200D02*
X111217000Y-90253200D01*
X111217000Y-90253200D02*
X111217000Y-92793200D01*
X111217000Y-92793200D02*
X113717000Y-92793200D01*
X115117000Y-91843200D02*
X115117000Y-91203200D01*
X115117000Y-91203200D02*
X105217000Y-91203200D01*
X105217000Y-91203200D02*
X105217000Y-91843200D01*
X105217000Y-91843200D02*
X115117000Y-91843200D01*
X113717000Y-90253200D02*
X113717000Y-87713200D01*
X113717000Y-87713200D02*
X111217000Y-87713200D01*
X111217000Y-87713200D02*
X111217000Y-90253200D01*
X111217000Y-90253200D02*
X113717000Y-90253200D01*
X115117000Y-89303200D02*
X115117000Y-88663200D01*
X115117000Y-88663200D02*
X105217000Y-88663200D01*
X105217000Y-88663200D02*
X105217000Y-89303200D01*
X105217000Y-89303200D02*
X115117000Y-89303200D01*
X113717000Y-87713200D02*
X113717000Y-85173200D01*
X113717000Y-85173200D02*
X111217000Y-85173200D01*
X111217000Y-85173200D02*
X111217000Y-87713200D01*
X111217000Y-87713200D02*
X113717000Y-87713200D01*
X115117000Y-86763200D02*
X115117000Y-86123200D01*
X115117000Y-86123200D02*
X105217000Y-86123200D01*
X105217000Y-86123200D02*
X105217000Y-86763200D01*
X105217000Y-86763200D02*
X115117000Y-86763200D01*
X113717000Y-85173200D02*
X113717000Y-82633200D01*
X113717000Y-82633200D02*
X111217000Y-82633200D01*
X111217000Y-82633200D02*
X111217000Y-85173200D01*
X111217000Y-85173200D02*
X113717000Y-85173200D01*
X115117000Y-84223200D02*
X115117000Y-83583200D01*
X115117000Y-83583200D02*
X105217000Y-83583200D01*
X105217000Y-83583200D02*
X105217000Y-84223200D01*
X105217000Y-84223200D02*
X115117000Y-84223200D01*
X113717000Y-101937000D02*
X113717000Y-99397000D01*
X113717000Y-99397000D02*
X111217000Y-99397000D01*
X111217000Y-99397000D02*
X111217000Y-101937000D01*
X111217000Y-101937000D02*
X113717000Y-101937000D01*
X115117000Y-100987000D02*
X115117000Y-100347000D01*
X115117000Y-100347000D02*
X105217000Y-100347000D01*
X105217000Y-100347000D02*
X105217000Y-100987000D01*
X105217000Y-100987000D02*
X115117000Y-100987000D01*
X113717000Y-99397000D02*
X113717000Y-96857000D01*
X113717000Y-96857000D02*
X111217000Y-96857000D01*
X111217000Y-96857000D02*
X111217000Y-99397000D01*
X111217000Y-99397000D02*
X113717000Y-99397000D01*
X115117000Y-98447000D02*
X115117000Y-97807000D01*
X115117000Y-97807000D02*
X105217000Y-97807000D01*
X105217000Y-97807000D02*
X105217000Y-98447000D01*
X105217000Y-98447000D02*
X115117000Y-98447000D01*
X113717000Y-115653000D02*
X113717000Y-113113000D01*
X113717000Y-113113000D02*
X111217000Y-113113000D01*
X111217000Y-113113000D02*
X111217000Y-115653000D01*
X111217000Y-115653000D02*
X113717000Y-115653000D01*
X115117000Y-114703000D02*
X115117000Y-114063000D01*
X115117000Y-114063000D02*
X105217000Y-114063000D01*
X105217000Y-114063000D02*
X105217000Y-114703000D01*
X105217000Y-114703000D02*
X115117000Y-114703000D01*
X113717000Y-113113000D02*
X113717000Y-110573000D01*
X113717000Y-110573000D02*
X111217000Y-110573000D01*
X111217000Y-110573000D02*
X111217000Y-113113000D01*
X111217000Y-113113000D02*
X113717000Y-113113000D01*
X115117000Y-112163000D02*
X115117000Y-111523000D01*
X115117000Y-111523000D02*
X105217000Y-111523000D01*
X105217000Y-111523000D02*
X105217000Y-112163000D01*
X105217000Y-112163000D02*
X115117000Y-112163000D01*
X113717000Y-110573000D02*
X113717000Y-108033000D01*
X113717000Y-108033000D02*
X111217000Y-108033000D01*
X111217000Y-108033000D02*
X111217000Y-110573000D01*
X111217000Y-110573000D02*
X113717000Y-110573000D01*
X115117000Y-109623000D02*
X115117000Y-108983000D01*
X115117000Y-108983000D02*
X105217000Y-108983000D01*
X105217000Y-108983000D02*
X105217000Y-109623000D01*
X105217000Y-109623000D02*
X115117000Y-109623000D01*
X113717000Y-108033000D02*
X113717000Y-105493000D01*
X113717000Y-105493000D02*
X111217000Y-105493000D01*
X111217000Y-105493000D02*
X111217000Y-108033000D01*
X111217000Y-108033000D02*
X113717000Y-108033000D01*
X115117000Y-107083000D02*
X115117000Y-106443000D01*
X115117000Y-106443000D02*
X105217000Y-106443000D01*
X105217000Y-106443000D02*
X105217000Y-107083000D01*
X105217000Y-107083000D02*
X115117000Y-107083000D01*
X127768000Y-116675000D02*
X127768000Y-109055000D01*
X127768000Y-109055000D02*
X125228000Y-109055000D01*
X125228000Y-109055000D02*
X125228000Y-116675000D01*
X125228000Y-116675000D02*
X127768000Y-116675000D01*
X114188000Y-123635000D02*
X119268000Y-123635000D01*
X119268000Y-123635000D02*
X119268000Y-121095000D01*
X119268000Y-121095000D02*
X114188000Y-121095000D01*
X114188000Y-121095000D02*
X114188000Y-123635000D01*
X156278000Y-115315000D02*
X156278000Y-118915000D01*
X156278000Y-118915000D02*
X163878000Y-118915000D01*
X163878000Y-118915000D02*
X163878000Y-115315000D01*
X163878000Y-115315000D02*
X156278000Y-115315000D01*
X154998000Y-117115000D02*
X156278000Y-117115000D01*
X165158000Y-117115000D02*
X163878000Y-117115000D01*
X157418000Y-115315000D02*
X157418000Y-118915000D01*
X156168000Y-110965000D02*
X156168000Y-114565000D01*
X156168000Y-114565000D02*
X163768000Y-114565000D01*
X163768000Y-114565000D02*
X163768000Y-110965000D01*
X163768000Y-110965000D02*
X156168000Y-110965000D01*
X154888000Y-112765000D02*
X156168000Y-112765000D01*
X165048000Y-112765000D02*
X163768000Y-112765000D01*
X157308000Y-110965000D02*
X157308000Y-114565000D01*
D11*
X145851809Y-120213381D02*
X145851809Y-119213381D01*
X146232762Y-119213381D01*
X146328000Y-119261000D01*
X146375619Y-119308619D01*
X146423238Y-119403857D01*
X146423238Y-119546714D01*
X146375619Y-119641952D01*
X146328000Y-119689571D01*
X146232762Y-119737190D01*
X145851809Y-119737190D01*
X146994666Y-120213381D02*
X146899428Y-120165762D01*
X146851809Y-120118143D01*
X146804190Y-120022905D01*
X146804190Y-119737190D01*
X146851809Y-119641952D01*
X146899428Y-119594333D01*
X146994666Y-119546714D01*
X147137524Y-119546714D01*
X147232762Y-119594333D01*
X147280381Y-119641952D01*
X147328000Y-119737190D01*
X147328000Y-120022905D01*
X147280381Y-120118143D01*
X147232762Y-120165762D01*
X147137524Y-120213381D01*
X146994666Y-120213381D01*
X147661333Y-119546714D02*
X147851809Y-120213381D01*
X148042286Y-119737190D01*
X148232762Y-120213381D01*
X148423238Y-119546714D01*
X149185143Y-120165762D02*
X149089905Y-120213381D01*
X148899428Y-120213381D01*
X148804190Y-120165762D01*
X148756571Y-120070524D01*
X148756571Y-119689571D01*
X148804190Y-119594333D01*
X148899428Y-119546714D01*
X149089905Y-119546714D01*
X149185143Y-119594333D01*
X149232762Y-119689571D01*
X149232762Y-119784810D01*
X148756571Y-119880048D01*
X149661333Y-120213381D02*
X149661333Y-119546714D01*
X149661333Y-119737190D02*
X149708952Y-119641952D01*
X149756571Y-119594333D01*
X149851809Y-119546714D01*
X149947048Y-119546714D01*
X166092476Y-119927667D02*
X166568667Y-119927667D01*
X165997238Y-120213381D02*
X166330571Y-119213381D01*
X166663905Y-120213381D01*
X166997238Y-119546714D02*
X166997238Y-120213381D01*
X166997238Y-119641952D02*
X167044857Y-119594333D01*
X167140095Y-119546714D01*
X167282953Y-119546714D01*
X167378191Y-119594333D01*
X167425810Y-119689571D01*
X167425810Y-120213381D01*
X168330572Y-120213381D02*
X168330572Y-119689571D01*
X168282953Y-119594333D01*
X168187715Y-119546714D01*
X167997238Y-119546714D01*
X167902000Y-119594333D01*
X168330572Y-120165762D02*
X168235334Y-120213381D01*
X167997238Y-120213381D01*
X167902000Y-120165762D01*
X167854381Y-120070524D01*
X167854381Y-119975286D01*
X167902000Y-119880048D01*
X167997238Y-119832429D01*
X168235334Y-119832429D01*
X168330572Y-119784810D01*
X168949619Y-120213381D02*
X168854381Y-120165762D01*
X168806762Y-120070524D01*
X168806762Y-119213381D01*
X169473429Y-120213381D02*
X169378191Y-120165762D01*
X169330572Y-120118143D01*
X169282953Y-120022905D01*
X169282953Y-119737190D01*
X169330572Y-119641952D01*
X169378191Y-119594333D01*
X169473429Y-119546714D01*
X169616287Y-119546714D01*
X169711525Y-119594333D01*
X169759144Y-119641952D01*
X169806763Y-119737190D01*
X169806763Y-120022905D01*
X169759144Y-120118143D01*
X169711525Y-120165762D01*
X169616287Y-120213381D01*
X169473429Y-120213381D01*
X170663906Y-119546714D02*
X170663906Y-120356238D01*
X170616287Y-120451476D01*
X170568668Y-120499095D01*
X170473429Y-120546714D01*
X170330572Y-120546714D01*
X170235334Y-120499095D01*
X170663906Y-120165762D02*
X170568668Y-120213381D01*
X170378191Y-120213381D01*
X170282953Y-120165762D01*
X170235334Y-120118143D01*
X170187715Y-120022905D01*
X170187715Y-119737190D01*
X170235334Y-119641952D01*
X170282953Y-119594333D01*
X170378191Y-119546714D01*
X170568668Y-119546714D01*
X170663906Y-119594333D01*
X139033524Y-80335381D02*
X139033524Y-79335381D01*
X139271619Y-79335381D01*
X139414477Y-79383000D01*
X139509715Y-79478238D01*
X139557334Y-79573476D01*
X139604953Y-79763952D01*
X139604953Y-79906810D01*
X139557334Y-80097286D01*
X139509715Y-80192524D01*
X139414477Y-80287762D01*
X139271619Y-80335381D01*
X139033524Y-80335381D01*
X140033524Y-80335381D02*
X140033524Y-79668714D01*
X140033524Y-79335381D02*
X139985905Y-79383000D01*
X140033524Y-79430619D01*
X140081143Y-79383000D01*
X140033524Y-79335381D01*
X140033524Y-79430619D01*
X140938286Y-79668714D02*
X140938286Y-80478238D01*
X140890667Y-80573476D01*
X140843048Y-80621095D01*
X140747809Y-80668714D01*
X140604952Y-80668714D01*
X140509714Y-80621095D01*
X140938286Y-80287762D02*
X140843048Y-80335381D01*
X140652571Y-80335381D01*
X140557333Y-80287762D01*
X140509714Y-80240143D01*
X140462095Y-80144905D01*
X140462095Y-79859190D01*
X140509714Y-79763952D01*
X140557333Y-79716333D01*
X140652571Y-79668714D01*
X140843048Y-79668714D01*
X140938286Y-79716333D01*
X141414476Y-80335381D02*
X141414476Y-79668714D01*
X141414476Y-79335381D02*
X141366857Y-79383000D01*
X141414476Y-79430619D01*
X141462095Y-79383000D01*
X141414476Y-79335381D01*
X141414476Y-79430619D01*
X141747809Y-79668714D02*
X142128761Y-79668714D01*
X141890666Y-79335381D02*
X141890666Y-80192524D01*
X141938285Y-80287762D01*
X142033523Y-80335381D01*
X142128761Y-80335381D01*
X142890667Y-80335381D02*
X142890667Y-79811571D01*
X142843048Y-79716333D01*
X142747810Y-79668714D01*
X142557333Y-79668714D01*
X142462095Y-79716333D01*
X142890667Y-80287762D02*
X142795429Y-80335381D01*
X142557333Y-80335381D01*
X142462095Y-80287762D01*
X142414476Y-80192524D01*
X142414476Y-80097286D01*
X142462095Y-80002048D01*
X142557333Y-79954429D01*
X142795429Y-79954429D01*
X142890667Y-79906810D01*
X143509714Y-80335381D02*
X143414476Y-80287762D01*
X143366857Y-80192524D01*
X143366857Y-79335381D01*
X163417524Y-80335381D02*
X163417524Y-79335381D01*
X163655619Y-79335381D01*
X163798477Y-79383000D01*
X163893715Y-79478238D01*
X163941334Y-79573476D01*
X163988953Y-79763952D01*
X163988953Y-79906810D01*
X163941334Y-80097286D01*
X163893715Y-80192524D01*
X163798477Y-80287762D01*
X163655619Y-80335381D01*
X163417524Y-80335381D01*
X164417524Y-80335381D02*
X164417524Y-79668714D01*
X164417524Y-79335381D02*
X164369905Y-79383000D01*
X164417524Y-79430619D01*
X164465143Y-79383000D01*
X164417524Y-79335381D01*
X164417524Y-79430619D01*
X165322286Y-79668714D02*
X165322286Y-80478238D01*
X165274667Y-80573476D01*
X165227048Y-80621095D01*
X165131809Y-80668714D01*
X164988952Y-80668714D01*
X164893714Y-80621095D01*
X165322286Y-80287762D02*
X165227048Y-80335381D01*
X165036571Y-80335381D01*
X164941333Y-80287762D01*
X164893714Y-80240143D01*
X164846095Y-80144905D01*
X164846095Y-79859190D01*
X164893714Y-79763952D01*
X164941333Y-79716333D01*
X165036571Y-79668714D01*
X165227048Y-79668714D01*
X165322286Y-79716333D01*
X165798476Y-80335381D02*
X165798476Y-79668714D01*
X165798476Y-79335381D02*
X165750857Y-79383000D01*
X165798476Y-79430619D01*
X165846095Y-79383000D01*
X165798476Y-79335381D01*
X165798476Y-79430619D01*
X166131809Y-79668714D02*
X166512761Y-79668714D01*
X166274666Y-79335381D02*
X166274666Y-80192524D01*
X166322285Y-80287762D01*
X166417523Y-80335381D01*
X166512761Y-80335381D01*
X167274667Y-80335381D02*
X167274667Y-79811571D01*
X167227048Y-79716333D01*
X167131810Y-79668714D01*
X166941333Y-79668714D01*
X166846095Y-79716333D01*
X167274667Y-80287762D02*
X167179429Y-80335381D01*
X166941333Y-80335381D01*
X166846095Y-80287762D01*
X166798476Y-80192524D01*
X166798476Y-80097286D01*
X166846095Y-80002048D01*
X166941333Y-79954429D01*
X167179429Y-79954429D01*
X167274667Y-79906810D01*
X167893714Y-80335381D02*
X167798476Y-80287762D01*
X167750857Y-80192524D01*
X167750857Y-79335381D01*
X169695143Y-92030809D02*
X169742762Y-92078428D01*
X169790381Y-92221285D01*
X169790381Y-92316523D01*
X169742762Y-92459381D01*
X169647524Y-92554619D01*
X169552286Y-92602238D01*
X169361810Y-92649857D01*
X169218952Y-92649857D01*
X169028476Y-92602238D01*
X168933238Y-92554619D01*
X168838000Y-92459381D01*
X168790381Y-92316523D01*
X168790381Y-92221285D01*
X168838000Y-92078428D01*
X168885619Y-92030809D01*
X168790381Y-91411762D02*
X168790381Y-91221285D01*
X168838000Y-91126047D01*
X168933238Y-91030809D01*
X169123714Y-90983190D01*
X169457048Y-90983190D01*
X169647524Y-91030809D01*
X169742762Y-91126047D01*
X169790381Y-91221285D01*
X169790381Y-91411762D01*
X169742762Y-91507000D01*
X169647524Y-91602238D01*
X169457048Y-91649857D01*
X169123714Y-91649857D01*
X168933238Y-91602238D01*
X168838000Y-91507000D01*
X168790381Y-91411762D01*
X169790381Y-90554619D02*
X168790381Y-90554619D01*
X169790381Y-89983190D01*
X168790381Y-89983190D01*
X169790381Y-89507000D02*
X168790381Y-89507000D01*
X169790381Y-88935571D01*
X168790381Y-88935571D01*
X169885619Y-88697476D02*
X169885619Y-87935571D01*
X168790381Y-87507000D02*
X168790381Y-87411761D01*
X168838000Y-87316523D01*
X168885619Y-87268904D01*
X168980857Y-87221285D01*
X169171333Y-87173666D01*
X169409429Y-87173666D01*
X169599905Y-87221285D01*
X169695143Y-87268904D01*
X169742762Y-87316523D01*
X169790381Y-87411761D01*
X169790381Y-87507000D01*
X169742762Y-87602238D01*
X169695143Y-87649857D01*
X169599905Y-87697476D01*
X169409429Y-87745095D01*
X169171333Y-87745095D01*
X168980857Y-87697476D01*
X168885619Y-87649857D01*
X168838000Y-87602238D01*
X168790381Y-87507000D01*
X169790381Y-86221285D02*
X169790381Y-86792714D01*
X169790381Y-86507000D02*
X168790381Y-86507000D01*
X168933238Y-86602238D01*
X169028476Y-86697476D01*
X169076095Y-86792714D01*
X168790381Y-85887952D02*
X169790381Y-85221285D01*
X168790381Y-85221285D02*
X169790381Y-85887952D01*
X169790381Y-84316523D02*
X169790381Y-84887952D01*
X169790381Y-84602238D02*
X168790381Y-84602238D01*
X168933238Y-84697476D01*
X169028476Y-84792714D01*
X169076095Y-84887952D01*
X169123714Y-83459380D02*
X169790381Y-83459380D01*
X168742762Y-83697476D02*
X169457048Y-83935571D01*
X169457048Y-83316523D01*
X131110381Y-88340333D02*
X131824667Y-88340333D01*
X131967524Y-88387953D01*
X132062762Y-88483191D01*
X132110381Y-88626048D01*
X132110381Y-88721286D01*
X132110381Y-87340333D02*
X132110381Y-87911762D01*
X132110381Y-87626048D02*
X131110381Y-87626048D01*
X131253238Y-87721286D01*
X131348476Y-87816524D01*
X131396095Y-87911762D01*
X168674191Y-89722143D02*
X168626572Y-89769762D01*
X168483715Y-89817381D01*
X168388477Y-89817381D01*
X168245619Y-89769762D01*
X168150381Y-89674524D01*
X168102762Y-89579286D01*
X168055143Y-89388810D01*
X168055143Y-89245952D01*
X168102762Y-89055476D01*
X168150381Y-88960238D01*
X168245619Y-88865000D01*
X168388477Y-88817381D01*
X168483715Y-88817381D01*
X168626572Y-88865000D01*
X168674191Y-88912619D01*
X169293238Y-88817381D02*
X169483715Y-88817381D01*
X169578953Y-88865000D01*
X169674191Y-88960238D01*
X169721810Y-89150714D01*
X169721810Y-89484048D01*
X169674191Y-89674524D01*
X169578953Y-89769762D01*
X169483715Y-89817381D01*
X169293238Y-89817381D01*
X169198000Y-89769762D01*
X169102762Y-89674524D01*
X169055143Y-89484048D01*
X169055143Y-89150714D01*
X169102762Y-88960238D01*
X169198000Y-88865000D01*
X169293238Y-88817381D01*
X170150381Y-89817381D02*
X170150381Y-88817381D01*
X170721810Y-89817381D01*
X170721810Y-88817381D01*
X171198000Y-89817381D02*
X171198000Y-88817381D01*
X171769429Y-89817381D01*
X171769429Y-88817381D01*
X172007524Y-89912619D02*
X172769429Y-89912619D01*
X173198000Y-88817381D02*
X173293239Y-88817381D01*
X173388477Y-88865000D01*
X173436096Y-88912619D01*
X173483715Y-89007857D01*
X173531334Y-89198333D01*
X173531334Y-89436429D01*
X173483715Y-89626905D01*
X173436096Y-89722143D01*
X173388477Y-89769762D01*
X173293239Y-89817381D01*
X173198000Y-89817381D01*
X173102762Y-89769762D01*
X173055143Y-89722143D01*
X173007524Y-89626905D01*
X172959905Y-89436429D01*
X172959905Y-89198333D01*
X173007524Y-89007857D01*
X173055143Y-88912619D01*
X173102762Y-88865000D01*
X173198000Y-88817381D01*
X174483715Y-89817381D02*
X173912286Y-89817381D01*
X174198000Y-89817381D02*
X174198000Y-88817381D01*
X174102762Y-88960238D01*
X174007524Y-89055476D01*
X173912286Y-89103095D01*
X174817048Y-88817381D02*
X175483715Y-89817381D01*
X175483715Y-88817381D02*
X174817048Y-89817381D01*
X176055143Y-88817381D02*
X176150382Y-88817381D01*
X176245620Y-88865000D01*
X176293239Y-88912619D01*
X176340858Y-89007857D01*
X176388477Y-89198333D01*
X176388477Y-89436429D01*
X176340858Y-89626905D01*
X176293239Y-89722143D01*
X176245620Y-89769762D01*
X176150382Y-89817381D01*
X176055143Y-89817381D01*
X175959905Y-89769762D01*
X175912286Y-89722143D01*
X175864667Y-89626905D01*
X175817048Y-89436429D01*
X175817048Y-89198333D01*
X175864667Y-89007857D01*
X175912286Y-88912619D01*
X175959905Y-88865000D01*
X176055143Y-88817381D01*
X177245620Y-89150714D02*
X177245620Y-89817381D01*
X177007524Y-88769762D02*
X176769429Y-89484048D01*
X177388477Y-89484048D01*
X172364667Y-101097381D02*
X172364667Y-101811667D01*
X172317047Y-101954524D01*
X172221809Y-102049762D01*
X172078952Y-102097381D01*
X171983714Y-102097381D01*
X172793238Y-101192619D02*
X172840857Y-101145000D01*
X172936095Y-101097381D01*
X173174191Y-101097381D01*
X173269429Y-101145000D01*
X173317048Y-101192619D01*
X173364667Y-101287857D01*
X173364667Y-101383095D01*
X173317048Y-101525952D01*
X172745619Y-102097381D01*
X173364667Y-102097381D01*
X162984191Y-88574143D02*
X162936572Y-88621762D01*
X162793715Y-88669381D01*
X162698477Y-88669381D01*
X162555619Y-88621762D01*
X162460381Y-88526524D01*
X162412762Y-88431286D01*
X162365143Y-88240810D01*
X162365143Y-88097952D01*
X162412762Y-87907476D01*
X162460381Y-87812238D01*
X162555619Y-87717000D01*
X162698477Y-87669381D01*
X162793715Y-87669381D01*
X162936572Y-87717000D01*
X162984191Y-87764619D01*
X163603238Y-87669381D02*
X163793715Y-87669381D01*
X163888953Y-87717000D01*
X163984191Y-87812238D01*
X164031810Y-88002714D01*
X164031810Y-88336048D01*
X163984191Y-88526524D01*
X163888953Y-88621762D01*
X163793715Y-88669381D01*
X163603238Y-88669381D01*
X163508000Y-88621762D01*
X163412762Y-88526524D01*
X163365143Y-88336048D01*
X163365143Y-88002714D01*
X163412762Y-87812238D01*
X163508000Y-87717000D01*
X163603238Y-87669381D01*
X164460381Y-88669381D02*
X164460381Y-87669381D01*
X165031810Y-88669381D01*
X165031810Y-87669381D01*
X165508000Y-88669381D02*
X165508000Y-87669381D01*
X166079429Y-88669381D01*
X166079429Y-87669381D01*
X166317524Y-88764619D02*
X167079429Y-88764619D01*
X167508000Y-87669381D02*
X167603239Y-87669381D01*
X167698477Y-87717000D01*
X167746096Y-87764619D01*
X167793715Y-87859857D01*
X167841334Y-88050333D01*
X167841334Y-88288429D01*
X167793715Y-88478905D01*
X167746096Y-88574143D01*
X167698477Y-88621762D01*
X167603239Y-88669381D01*
X167508000Y-88669381D01*
X167412762Y-88621762D01*
X167365143Y-88574143D01*
X167317524Y-88478905D01*
X167269905Y-88288429D01*
X167269905Y-88050333D01*
X167317524Y-87859857D01*
X167365143Y-87764619D01*
X167412762Y-87717000D01*
X167508000Y-87669381D01*
X168793715Y-88669381D02*
X168222286Y-88669381D01*
X168508000Y-88669381D02*
X168508000Y-87669381D01*
X168412762Y-87812238D01*
X168317524Y-87907476D01*
X168222286Y-87955095D01*
X169127048Y-87669381D02*
X169793715Y-88669381D01*
X169793715Y-87669381D02*
X169127048Y-88669381D01*
X170365143Y-87669381D02*
X170460382Y-87669381D01*
X170555620Y-87717000D01*
X170603239Y-87764619D01*
X170650858Y-87859857D01*
X170698477Y-88050333D01*
X170698477Y-88288429D01*
X170650858Y-88478905D01*
X170603239Y-88574143D01*
X170555620Y-88621762D01*
X170460382Y-88669381D01*
X170365143Y-88669381D01*
X170269905Y-88621762D01*
X170222286Y-88574143D01*
X170174667Y-88478905D01*
X170127048Y-88288429D01*
X170127048Y-88050333D01*
X170174667Y-87859857D01*
X170222286Y-87764619D01*
X170269905Y-87717000D01*
X170365143Y-87669381D01*
X171603239Y-87669381D02*
X171127048Y-87669381D01*
X171079429Y-88145571D01*
X171127048Y-88097952D01*
X171222286Y-88050333D01*
X171460382Y-88050333D01*
X171555620Y-88097952D01*
X171603239Y-88145571D01*
X171650858Y-88240810D01*
X171650858Y-88478905D01*
X171603239Y-88574143D01*
X171555620Y-88621762D01*
X171460382Y-88669381D01*
X171222286Y-88669381D01*
X171127048Y-88621762D01*
X171079429Y-88574143D01*
X166674667Y-102489381D02*
X166674667Y-103203667D01*
X166627047Y-103346524D01*
X166531809Y-103441762D01*
X166388952Y-103489381D01*
X166293714Y-103489381D01*
X167055619Y-102489381D02*
X167674667Y-102489381D01*
X167341333Y-102870333D01*
X167484191Y-102870333D01*
X167579429Y-102917952D01*
X167627048Y-102965571D01*
X167674667Y-103060810D01*
X167674667Y-103298905D01*
X167627048Y-103394143D01*
X167579429Y-103441762D01*
X167484191Y-103489381D01*
X167198476Y-103489381D01*
X167103238Y-103441762D01*
X167055619Y-103394143D01*
X169695143Y-107270809D02*
X169742762Y-107318428D01*
X169790381Y-107461285D01*
X169790381Y-107556523D01*
X169742762Y-107699381D01*
X169647524Y-107794619D01*
X169552286Y-107842238D01*
X169361810Y-107889857D01*
X169218952Y-107889857D01*
X169028476Y-107842238D01*
X168933238Y-107794619D01*
X168838000Y-107699381D01*
X168790381Y-107556523D01*
X168790381Y-107461285D01*
X168838000Y-107318428D01*
X168885619Y-107270809D01*
X168790381Y-106651762D02*
X168790381Y-106461285D01*
X168838000Y-106366047D01*
X168933238Y-106270809D01*
X169123714Y-106223190D01*
X169457048Y-106223190D01*
X169647524Y-106270809D01*
X169742762Y-106366047D01*
X169790381Y-106461285D01*
X169790381Y-106651762D01*
X169742762Y-106747000D01*
X169647524Y-106842238D01*
X169457048Y-106889857D01*
X169123714Y-106889857D01*
X168933238Y-106842238D01*
X168838000Y-106747000D01*
X168790381Y-106651762D01*
X169790381Y-105794619D02*
X168790381Y-105794619D01*
X169790381Y-105223190D01*
X168790381Y-105223190D01*
X169790381Y-104747000D02*
X168790381Y-104747000D01*
X169790381Y-104175571D01*
X168790381Y-104175571D01*
X169885619Y-103937476D02*
X169885619Y-103175571D01*
X168790381Y-102747000D02*
X168790381Y-102651761D01*
X168838000Y-102556523D01*
X168885619Y-102508904D01*
X168980857Y-102461285D01*
X169171333Y-102413666D01*
X169409429Y-102413666D01*
X169599905Y-102461285D01*
X169695143Y-102508904D01*
X169742762Y-102556523D01*
X169790381Y-102651761D01*
X169790381Y-102747000D01*
X169742762Y-102842238D01*
X169695143Y-102889857D01*
X169599905Y-102937476D01*
X169409429Y-102985095D01*
X169171333Y-102985095D01*
X168980857Y-102937476D01*
X168885619Y-102889857D01*
X168838000Y-102842238D01*
X168790381Y-102747000D01*
X169790381Y-101461285D02*
X169790381Y-102032714D01*
X169790381Y-101747000D02*
X168790381Y-101747000D01*
X168933238Y-101842238D01*
X169028476Y-101937476D01*
X169076095Y-102032714D01*
X168790381Y-101127952D02*
X169790381Y-100461285D01*
X168790381Y-100461285D02*
X169790381Y-101127952D01*
X169790381Y-99556523D02*
X169790381Y-100127952D01*
X169790381Y-99842238D02*
X168790381Y-99842238D01*
X168933238Y-99937476D01*
X169028476Y-100032714D01*
X169076095Y-100127952D01*
X169123714Y-98699380D02*
X169790381Y-98699380D01*
X168742762Y-98937476D02*
X169457048Y-99175571D01*
X169457048Y-98556523D01*
X131110381Y-103580333D02*
X131824667Y-103580333D01*
X131967524Y-103627953D01*
X132062762Y-103723191D01*
X132110381Y-103866048D01*
X132110381Y-103961286D01*
X131110381Y-102627952D02*
X131110381Y-103104143D01*
X131586571Y-103151762D01*
X131538952Y-103104143D01*
X131491333Y-103008905D01*
X131491333Y-102770809D01*
X131538952Y-102675571D01*
X131586571Y-102627952D01*
X131681810Y-102580333D01*
X131919905Y-102580333D01*
X132015143Y-102627952D01*
X132062762Y-102675571D01*
X132110381Y-102770809D01*
X132110381Y-103008905D01*
X132062762Y-103104143D01*
X132015143Y-103151762D01*
X125124191Y-90372143D02*
X125076572Y-90419762D01*
X124933715Y-90467381D01*
X124838477Y-90467381D01*
X124695619Y-90419762D01*
X124600381Y-90324524D01*
X124552762Y-90229286D01*
X124505143Y-90038810D01*
X124505143Y-89895952D01*
X124552762Y-89705476D01*
X124600381Y-89610238D01*
X124695619Y-89515000D01*
X124838477Y-89467381D01*
X124933715Y-89467381D01*
X125076572Y-89515000D01*
X125124191Y-89562619D01*
X125743238Y-89467381D02*
X125933715Y-89467381D01*
X126028953Y-89515000D01*
X126124191Y-89610238D01*
X126171810Y-89800714D01*
X126171810Y-90134048D01*
X126124191Y-90324524D01*
X126028953Y-90419762D01*
X125933715Y-90467381D01*
X125743238Y-90467381D01*
X125648000Y-90419762D01*
X125552762Y-90324524D01*
X125505143Y-90134048D01*
X125505143Y-89800714D01*
X125552762Y-89610238D01*
X125648000Y-89515000D01*
X125743238Y-89467381D01*
X126600381Y-90467381D02*
X126600381Y-89467381D01*
X127171810Y-90467381D01*
X127171810Y-89467381D01*
X127648000Y-90467381D02*
X127648000Y-89467381D01*
X128219429Y-90467381D01*
X128219429Y-89467381D01*
X128457524Y-90562619D02*
X129219429Y-90562619D01*
X129648000Y-89467381D02*
X129743239Y-89467381D01*
X129838477Y-89515000D01*
X129886096Y-89562619D01*
X129933715Y-89657857D01*
X129981334Y-89848333D01*
X129981334Y-90086429D01*
X129933715Y-90276905D01*
X129886096Y-90372143D01*
X129838477Y-90419762D01*
X129743239Y-90467381D01*
X129648000Y-90467381D01*
X129552762Y-90419762D01*
X129505143Y-90372143D01*
X129457524Y-90276905D01*
X129409905Y-90086429D01*
X129409905Y-89848333D01*
X129457524Y-89657857D01*
X129505143Y-89562619D01*
X129552762Y-89515000D01*
X129648000Y-89467381D01*
X130933715Y-90467381D02*
X130362286Y-90467381D01*
X130648000Y-90467381D02*
X130648000Y-89467381D01*
X130552762Y-89610238D01*
X130457524Y-89705476D01*
X130362286Y-89753095D01*
X131267048Y-89467381D02*
X131933715Y-90467381D01*
X131933715Y-89467381D02*
X131267048Y-90467381D01*
X132505143Y-89467381D02*
X132600382Y-89467381D01*
X132695620Y-89515000D01*
X132743239Y-89562619D01*
X132790858Y-89657857D01*
X132838477Y-89848333D01*
X132838477Y-90086429D01*
X132790858Y-90276905D01*
X132743239Y-90372143D01*
X132695620Y-90419762D01*
X132600382Y-90467381D01*
X132505143Y-90467381D01*
X132409905Y-90419762D01*
X132362286Y-90372143D01*
X132314667Y-90276905D01*
X132267048Y-90086429D01*
X132267048Y-89848333D01*
X132314667Y-89657857D01*
X132362286Y-89562619D01*
X132409905Y-89515000D01*
X132505143Y-89467381D01*
X133695620Y-89800714D02*
X133695620Y-90467381D01*
X133457524Y-89419762D02*
X133219429Y-90134048D01*
X133838477Y-90134048D01*
X128814667Y-101747381D02*
X128814667Y-102461667D01*
X128767047Y-102604524D01*
X128671809Y-102699762D01*
X128528952Y-102747381D01*
X128433714Y-102747381D01*
X129719429Y-101747381D02*
X129528952Y-101747381D01*
X129433714Y-101795000D01*
X129386095Y-101842619D01*
X129290857Y-101985476D01*
X129243238Y-102175952D01*
X129243238Y-102556905D01*
X129290857Y-102652143D01*
X129338476Y-102699762D01*
X129433714Y-102747381D01*
X129624191Y-102747381D01*
X129719429Y-102699762D01*
X129767048Y-102652143D01*
X129814667Y-102556905D01*
X129814667Y-102318810D01*
X129767048Y-102223571D01*
X129719429Y-102175952D01*
X129624191Y-102128333D01*
X129433714Y-102128333D01*
X129338476Y-102175952D01*
X129290857Y-102223571D01*
X129243238Y-102318810D01*
X106778191Y-81990343D02*
X106730572Y-82037962D01*
X106587715Y-82085581D01*
X106492477Y-82085581D01*
X106349619Y-82037962D01*
X106254381Y-81942724D01*
X106206762Y-81847486D01*
X106159143Y-81657010D01*
X106159143Y-81514152D01*
X106206762Y-81323676D01*
X106254381Y-81228438D01*
X106349619Y-81133200D01*
X106492477Y-81085581D01*
X106587715Y-81085581D01*
X106730572Y-81133200D01*
X106778191Y-81180819D01*
X107397238Y-81085581D02*
X107587715Y-81085581D01*
X107682953Y-81133200D01*
X107778191Y-81228438D01*
X107825810Y-81418914D01*
X107825810Y-81752248D01*
X107778191Y-81942724D01*
X107682953Y-82037962D01*
X107587715Y-82085581D01*
X107397238Y-82085581D01*
X107302000Y-82037962D01*
X107206762Y-81942724D01*
X107159143Y-81752248D01*
X107159143Y-81418914D01*
X107206762Y-81228438D01*
X107302000Y-81133200D01*
X107397238Y-81085581D01*
X108254381Y-82085581D02*
X108254381Y-81085581D01*
X108825810Y-82085581D01*
X108825810Y-81085581D01*
X109302000Y-82085581D02*
X109302000Y-81085581D01*
X109873429Y-82085581D01*
X109873429Y-81085581D01*
X110111524Y-82180819D02*
X110873429Y-82180819D01*
X111302000Y-81085581D02*
X111397239Y-81085581D01*
X111492477Y-81133200D01*
X111540096Y-81180819D01*
X111587715Y-81276057D01*
X111635334Y-81466533D01*
X111635334Y-81704629D01*
X111587715Y-81895105D01*
X111540096Y-81990343D01*
X111492477Y-82037962D01*
X111397239Y-82085581D01*
X111302000Y-82085581D01*
X111206762Y-82037962D01*
X111159143Y-81990343D01*
X111111524Y-81895105D01*
X111063905Y-81704629D01*
X111063905Y-81466533D01*
X111111524Y-81276057D01*
X111159143Y-81180819D01*
X111206762Y-81133200D01*
X111302000Y-81085581D01*
X112587715Y-82085581D02*
X112016286Y-82085581D01*
X112302000Y-82085581D02*
X112302000Y-81085581D01*
X112206762Y-81228438D01*
X112111524Y-81323676D01*
X112016286Y-81371295D01*
X112921048Y-81085581D02*
X113587715Y-82085581D01*
X113587715Y-81085581D02*
X112921048Y-82085581D01*
X114159143Y-81085581D02*
X114254382Y-81085581D01*
X114349620Y-81133200D01*
X114397239Y-81180819D01*
X114444858Y-81276057D01*
X114492477Y-81466533D01*
X114492477Y-81704629D01*
X114444858Y-81895105D01*
X114397239Y-81990343D01*
X114349620Y-82037962D01*
X114254382Y-82085581D01*
X114159143Y-82085581D01*
X114063905Y-82037962D01*
X114016286Y-81990343D01*
X113968667Y-81895105D01*
X113921048Y-81704629D01*
X113921048Y-81466533D01*
X113968667Y-81276057D01*
X114016286Y-81180819D01*
X114063905Y-81133200D01*
X114159143Y-81085581D01*
X115349620Y-81418914D02*
X115349620Y-82085581D01*
X115111524Y-81037962D02*
X114873429Y-81752248D01*
X115492477Y-81752248D01*
X110468667Y-93245581D02*
X110468667Y-93959867D01*
X110421047Y-94102724D01*
X110325809Y-94197962D01*
X110182952Y-94245581D01*
X110087714Y-94245581D01*
X110849619Y-93245581D02*
X111516286Y-93245581D01*
X111087714Y-94245581D01*
X106778191Y-96214143D02*
X106730572Y-96261762D01*
X106587715Y-96309381D01*
X106492477Y-96309381D01*
X106349619Y-96261762D01*
X106254381Y-96166524D01*
X106206762Y-96071286D01*
X106159143Y-95880810D01*
X106159143Y-95737952D01*
X106206762Y-95547476D01*
X106254381Y-95452238D01*
X106349619Y-95357000D01*
X106492477Y-95309381D01*
X106587715Y-95309381D01*
X106730572Y-95357000D01*
X106778191Y-95404619D01*
X107397238Y-95309381D02*
X107587715Y-95309381D01*
X107682953Y-95357000D01*
X107778191Y-95452238D01*
X107825810Y-95642714D01*
X107825810Y-95976048D01*
X107778191Y-96166524D01*
X107682953Y-96261762D01*
X107587715Y-96309381D01*
X107397238Y-96309381D01*
X107302000Y-96261762D01*
X107206762Y-96166524D01*
X107159143Y-95976048D01*
X107159143Y-95642714D01*
X107206762Y-95452238D01*
X107302000Y-95357000D01*
X107397238Y-95309381D01*
X108254381Y-96309381D02*
X108254381Y-95309381D01*
X108825810Y-96309381D01*
X108825810Y-95309381D01*
X109302000Y-96309381D02*
X109302000Y-95309381D01*
X109873429Y-96309381D01*
X109873429Y-95309381D01*
X110111524Y-96404619D02*
X110873429Y-96404619D01*
X111302000Y-95309381D02*
X111397239Y-95309381D01*
X111492477Y-95357000D01*
X111540096Y-95404619D01*
X111587715Y-95499857D01*
X111635334Y-95690333D01*
X111635334Y-95928429D01*
X111587715Y-96118905D01*
X111540096Y-96214143D01*
X111492477Y-96261762D01*
X111397239Y-96309381D01*
X111302000Y-96309381D01*
X111206762Y-96261762D01*
X111159143Y-96214143D01*
X111111524Y-96118905D01*
X111063905Y-95928429D01*
X111063905Y-95690333D01*
X111111524Y-95499857D01*
X111159143Y-95404619D01*
X111206762Y-95357000D01*
X111302000Y-95309381D01*
X112587715Y-96309381D02*
X112016286Y-96309381D01*
X112302000Y-96309381D02*
X112302000Y-95309381D01*
X112206762Y-95452238D01*
X112111524Y-95547476D01*
X112016286Y-95595095D01*
X112921048Y-95309381D02*
X113587715Y-96309381D01*
X113587715Y-95309381D02*
X112921048Y-96309381D01*
X114159143Y-95309381D02*
X114254382Y-95309381D01*
X114349620Y-95357000D01*
X114397239Y-95404619D01*
X114444858Y-95499857D01*
X114492477Y-95690333D01*
X114492477Y-95928429D01*
X114444858Y-96118905D01*
X114397239Y-96214143D01*
X114349620Y-96261762D01*
X114254382Y-96309381D01*
X114159143Y-96309381D01*
X114063905Y-96261762D01*
X114016286Y-96214143D01*
X113968667Y-96118905D01*
X113921048Y-95928429D01*
X113921048Y-95690333D01*
X113968667Y-95499857D01*
X114016286Y-95404619D01*
X114063905Y-95357000D01*
X114159143Y-95309381D01*
X114873429Y-95404619D02*
X114921048Y-95357000D01*
X115016286Y-95309381D01*
X115254382Y-95309381D01*
X115349620Y-95357000D01*
X115397239Y-95404619D01*
X115444858Y-95499857D01*
X115444858Y-95595095D01*
X115397239Y-95737952D01*
X114825810Y-96309381D01*
X115444858Y-96309381D01*
X110468667Y-102389381D02*
X110468667Y-103103667D01*
X110421047Y-103246524D01*
X110325809Y-103341762D01*
X110182952Y-103389381D01*
X110087714Y-103389381D01*
X111087714Y-102817952D02*
X110992476Y-102770333D01*
X110944857Y-102722714D01*
X110897238Y-102627476D01*
X110897238Y-102579857D01*
X110944857Y-102484619D01*
X110992476Y-102437000D01*
X111087714Y-102389381D01*
X111278191Y-102389381D01*
X111373429Y-102437000D01*
X111421048Y-102484619D01*
X111468667Y-102579857D01*
X111468667Y-102627476D01*
X111421048Y-102722714D01*
X111373429Y-102770333D01*
X111278191Y-102817952D01*
X111087714Y-102817952D01*
X110992476Y-102865571D01*
X110944857Y-102913190D01*
X110897238Y-103008429D01*
X110897238Y-103198905D01*
X110944857Y-103294143D01*
X110992476Y-103341762D01*
X111087714Y-103389381D01*
X111278191Y-103389381D01*
X111373429Y-103341762D01*
X111421048Y-103294143D01*
X111468667Y-103198905D01*
X111468667Y-103008429D01*
X111421048Y-102913190D01*
X111373429Y-102865571D01*
X111278191Y-102817952D01*
X106778191Y-104850143D02*
X106730572Y-104897762D01*
X106587715Y-104945381D01*
X106492477Y-104945381D01*
X106349619Y-104897762D01*
X106254381Y-104802524D01*
X106206762Y-104707286D01*
X106159143Y-104516810D01*
X106159143Y-104373952D01*
X106206762Y-104183476D01*
X106254381Y-104088238D01*
X106349619Y-103993000D01*
X106492477Y-103945381D01*
X106587715Y-103945381D01*
X106730572Y-103993000D01*
X106778191Y-104040619D01*
X107397238Y-103945381D02*
X107587715Y-103945381D01*
X107682953Y-103993000D01*
X107778191Y-104088238D01*
X107825810Y-104278714D01*
X107825810Y-104612048D01*
X107778191Y-104802524D01*
X107682953Y-104897762D01*
X107587715Y-104945381D01*
X107397238Y-104945381D01*
X107302000Y-104897762D01*
X107206762Y-104802524D01*
X107159143Y-104612048D01*
X107159143Y-104278714D01*
X107206762Y-104088238D01*
X107302000Y-103993000D01*
X107397238Y-103945381D01*
X108254381Y-104945381D02*
X108254381Y-103945381D01*
X108825810Y-104945381D01*
X108825810Y-103945381D01*
X109302000Y-104945381D02*
X109302000Y-103945381D01*
X109873429Y-104945381D01*
X109873429Y-103945381D01*
X110111524Y-105040619D02*
X110873429Y-105040619D01*
X111302000Y-103945381D02*
X111397239Y-103945381D01*
X111492477Y-103993000D01*
X111540096Y-104040619D01*
X111587715Y-104135857D01*
X111635334Y-104326333D01*
X111635334Y-104564429D01*
X111587715Y-104754905D01*
X111540096Y-104850143D01*
X111492477Y-104897762D01*
X111397239Y-104945381D01*
X111302000Y-104945381D01*
X111206762Y-104897762D01*
X111159143Y-104850143D01*
X111111524Y-104754905D01*
X111063905Y-104564429D01*
X111063905Y-104326333D01*
X111111524Y-104135857D01*
X111159143Y-104040619D01*
X111206762Y-103993000D01*
X111302000Y-103945381D01*
X112587715Y-104945381D02*
X112016286Y-104945381D01*
X112302000Y-104945381D02*
X112302000Y-103945381D01*
X112206762Y-104088238D01*
X112111524Y-104183476D01*
X112016286Y-104231095D01*
X112921048Y-103945381D02*
X113587715Y-104945381D01*
X113587715Y-103945381D02*
X112921048Y-104945381D01*
X114159143Y-103945381D02*
X114254382Y-103945381D01*
X114349620Y-103993000D01*
X114397239Y-104040619D01*
X114444858Y-104135857D01*
X114492477Y-104326333D01*
X114492477Y-104564429D01*
X114444858Y-104754905D01*
X114397239Y-104850143D01*
X114349620Y-104897762D01*
X114254382Y-104945381D01*
X114159143Y-104945381D01*
X114063905Y-104897762D01*
X114016286Y-104850143D01*
X113968667Y-104754905D01*
X113921048Y-104564429D01*
X113921048Y-104326333D01*
X113968667Y-104135857D01*
X114016286Y-104040619D01*
X114063905Y-103993000D01*
X114159143Y-103945381D01*
X115349620Y-104278714D02*
X115349620Y-104945381D01*
X115111524Y-103897762D02*
X114873429Y-104612048D01*
X115492477Y-104612048D01*
X110468667Y-116105381D02*
X110468667Y-116819667D01*
X110421047Y-116962524D01*
X110325809Y-117057762D01*
X110182952Y-117105381D01*
X110087714Y-117105381D01*
X111373429Y-116438714D02*
X111373429Y-117105381D01*
X111135333Y-116057762D02*
X110897238Y-116772048D01*
X111516286Y-116772048D01*
X122474191Y-107972143D02*
X122426572Y-108019762D01*
X122283715Y-108067381D01*
X122188477Y-108067381D01*
X122045619Y-108019762D01*
X121950381Y-107924524D01*
X121902762Y-107829286D01*
X121855143Y-107638810D01*
X121855143Y-107495952D01*
X121902762Y-107305476D01*
X121950381Y-107210238D01*
X122045619Y-107115000D01*
X122188477Y-107067381D01*
X122283715Y-107067381D01*
X122426572Y-107115000D01*
X122474191Y-107162619D01*
X123093238Y-107067381D02*
X123283715Y-107067381D01*
X123378953Y-107115000D01*
X123474191Y-107210238D01*
X123521810Y-107400714D01*
X123521810Y-107734048D01*
X123474191Y-107924524D01*
X123378953Y-108019762D01*
X123283715Y-108067381D01*
X123093238Y-108067381D01*
X122998000Y-108019762D01*
X122902762Y-107924524D01*
X122855143Y-107734048D01*
X122855143Y-107400714D01*
X122902762Y-107210238D01*
X122998000Y-107115000D01*
X123093238Y-107067381D01*
X123950381Y-108067381D02*
X123950381Y-107067381D01*
X124521810Y-108067381D01*
X124521810Y-107067381D01*
X124998000Y-108067381D02*
X124998000Y-107067381D01*
X125569429Y-108067381D01*
X125569429Y-107067381D01*
X125807524Y-108162619D02*
X126569429Y-108162619D01*
X126998000Y-107067381D02*
X127093239Y-107067381D01*
X127188477Y-107115000D01*
X127236096Y-107162619D01*
X127283715Y-107257857D01*
X127331334Y-107448333D01*
X127331334Y-107686429D01*
X127283715Y-107876905D01*
X127236096Y-107972143D01*
X127188477Y-108019762D01*
X127093239Y-108067381D01*
X126998000Y-108067381D01*
X126902762Y-108019762D01*
X126855143Y-107972143D01*
X126807524Y-107876905D01*
X126759905Y-107686429D01*
X126759905Y-107448333D01*
X126807524Y-107257857D01*
X126855143Y-107162619D01*
X126902762Y-107115000D01*
X126998000Y-107067381D01*
X128283715Y-108067381D02*
X127712286Y-108067381D01*
X127998000Y-108067381D02*
X127998000Y-107067381D01*
X127902762Y-107210238D01*
X127807524Y-107305476D01*
X127712286Y-107353095D01*
X128617048Y-107067381D02*
X129283715Y-108067381D01*
X129283715Y-107067381D02*
X128617048Y-108067381D01*
X129855143Y-107067381D02*
X129950382Y-107067381D01*
X130045620Y-107115000D01*
X130093239Y-107162619D01*
X130140858Y-107257857D01*
X130188477Y-107448333D01*
X130188477Y-107686429D01*
X130140858Y-107876905D01*
X130093239Y-107972143D01*
X130045620Y-108019762D01*
X129950382Y-108067381D01*
X129855143Y-108067381D01*
X129759905Y-108019762D01*
X129712286Y-107972143D01*
X129664667Y-107876905D01*
X129617048Y-107686429D01*
X129617048Y-107448333D01*
X129664667Y-107257857D01*
X129712286Y-107162619D01*
X129759905Y-107115000D01*
X129855143Y-107067381D01*
X130521810Y-107067381D02*
X131140858Y-107067381D01*
X130807524Y-107448333D01*
X130950382Y-107448333D01*
X131045620Y-107495952D01*
X131093239Y-107543571D01*
X131140858Y-107638810D01*
X131140858Y-107876905D01*
X131093239Y-107972143D01*
X131045620Y-108019762D01*
X130950382Y-108067381D01*
X130664667Y-108067381D01*
X130569429Y-108019762D01*
X130521810Y-107972143D01*
X126164667Y-117187381D02*
X126164667Y-117901667D01*
X126117047Y-118044524D01*
X126021809Y-118139762D01*
X125878952Y-118187381D01*
X125783714Y-118187381D01*
X126688476Y-118187381D02*
X126878952Y-118187381D01*
X126974191Y-118139762D01*
X127021810Y-118092143D01*
X127117048Y-117949286D01*
X127164667Y-117758810D01*
X127164667Y-117377857D01*
X127117048Y-117282619D01*
X127069429Y-117235000D01*
X126974191Y-117187381D01*
X126783714Y-117187381D01*
X126688476Y-117235000D01*
X126640857Y-117282619D01*
X126593238Y-117377857D01*
X126593238Y-117615952D01*
X126640857Y-117711190D01*
X126688476Y-117758810D01*
X126783714Y-117806429D01*
X126974191Y-117806429D01*
X127069429Y-117758810D01*
X127117048Y-117711190D01*
X127164667Y-117615952D01*
X120685143Y-126388809D02*
X120732762Y-126436428D01*
X120780381Y-126579285D01*
X120780381Y-126674523D01*
X120732762Y-126817381D01*
X120637524Y-126912619D01*
X120542286Y-126960238D01*
X120351810Y-127007857D01*
X120208952Y-127007857D01*
X120018476Y-126960238D01*
X119923238Y-126912619D01*
X119828000Y-126817381D01*
X119780381Y-126674523D01*
X119780381Y-126579285D01*
X119828000Y-126436428D01*
X119875619Y-126388809D01*
X119780381Y-125769762D02*
X119780381Y-125579285D01*
X119828000Y-125484047D01*
X119923238Y-125388809D01*
X120113714Y-125341190D01*
X120447048Y-125341190D01*
X120637524Y-125388809D01*
X120732762Y-125484047D01*
X120780381Y-125579285D01*
X120780381Y-125769762D01*
X120732762Y-125865000D01*
X120637524Y-125960238D01*
X120447048Y-126007857D01*
X120113714Y-126007857D01*
X119923238Y-125960238D01*
X119828000Y-125865000D01*
X119780381Y-125769762D01*
X120780381Y-124912619D02*
X119780381Y-124912619D01*
X120780381Y-124341190D01*
X119780381Y-124341190D01*
X120780381Y-123865000D02*
X119780381Y-123865000D01*
X120780381Y-123293571D01*
X119780381Y-123293571D01*
X120875619Y-123055476D02*
X120875619Y-122293571D01*
X119780381Y-121865000D02*
X119780381Y-121769761D01*
X119828000Y-121674523D01*
X119875619Y-121626904D01*
X119970857Y-121579285D01*
X120161333Y-121531666D01*
X120399429Y-121531666D01*
X120589905Y-121579285D01*
X120685143Y-121626904D01*
X120732762Y-121674523D01*
X120780381Y-121769761D01*
X120780381Y-121865000D01*
X120732762Y-121960238D01*
X120685143Y-122007857D01*
X120589905Y-122055476D01*
X120399429Y-122103095D01*
X120161333Y-122103095D01*
X119970857Y-122055476D01*
X119875619Y-122007857D01*
X119828000Y-121960238D01*
X119780381Y-121865000D01*
X120780381Y-120579285D02*
X120780381Y-121150714D01*
X120780381Y-120865000D02*
X119780381Y-120865000D01*
X119923238Y-120960238D01*
X120018476Y-121055476D01*
X120066095Y-121150714D01*
X119780381Y-120245952D02*
X120780381Y-119579285D01*
X119780381Y-119579285D02*
X120780381Y-120245952D01*
X119780381Y-119007857D02*
X119780381Y-118912618D01*
X119828000Y-118817380D01*
X119875619Y-118769761D01*
X119970857Y-118722142D01*
X120161333Y-118674523D01*
X120399429Y-118674523D01*
X120589905Y-118722142D01*
X120685143Y-118769761D01*
X120732762Y-118817380D01*
X120780381Y-118912618D01*
X120780381Y-119007857D01*
X120732762Y-119103095D01*
X120685143Y-119150714D01*
X120589905Y-119198333D01*
X120399429Y-119245952D01*
X120161333Y-119245952D01*
X119970857Y-119198333D01*
X119875619Y-119150714D01*
X119828000Y-119103095D01*
X119780381Y-119007857D01*
X119875619Y-118293571D02*
X119828000Y-118245952D01*
X119780381Y-118150714D01*
X119780381Y-117912618D01*
X119828000Y-117817380D01*
X119875619Y-117769761D01*
X119970857Y-117722142D01*
X120066095Y-117722142D01*
X120208952Y-117769761D01*
X120780381Y-118341190D01*
X120780381Y-117722142D01*
X112580381Y-123174523D02*
X113294667Y-123174523D01*
X113437524Y-123222143D01*
X113532762Y-123317381D01*
X113580381Y-123460238D01*
X113580381Y-123555476D01*
X113580381Y-122174523D02*
X113580381Y-122745952D01*
X113580381Y-122460238D02*
X112580381Y-122460238D01*
X112723238Y-122555476D01*
X112818476Y-122650714D01*
X112866095Y-122745952D01*
X112580381Y-121555476D02*
X112580381Y-121460237D01*
X112628000Y-121364999D01*
X112675619Y-121317380D01*
X112770857Y-121269761D01*
X112961333Y-121222142D01*
X113199429Y-121222142D01*
X113389905Y-121269761D01*
X113485143Y-121317380D01*
X113532762Y-121364999D01*
X113580381Y-121460237D01*
X113580381Y-121555476D01*
X113532762Y-121650714D01*
X113485143Y-121698333D01*
X113389905Y-121745952D01*
X113199429Y-121793571D01*
X112961333Y-121793571D01*
X112770857Y-121745952D01*
X112675619Y-121698333D01*
X112628000Y-121650714D01*
X112580381Y-121555476D01*
X156268475Y-120427381D02*
X156268475Y-119427381D01*
X156506570Y-119427381D01*
X156649428Y-119475000D01*
X156744666Y-119570238D01*
X156792285Y-119665476D01*
X156839904Y-119855952D01*
X156839904Y-119998810D01*
X156792285Y-120189286D01*
X156744666Y-120284524D01*
X156649428Y-120379762D01*
X156506570Y-120427381D01*
X156268475Y-120427381D01*
X157030380Y-120522619D02*
X157792285Y-120522619D01*
X157982761Y-120379762D02*
X158125618Y-120427381D01*
X158363714Y-120427381D01*
X158458952Y-120379762D01*
X158506571Y-120332143D01*
X158554190Y-120236905D01*
X158554190Y-120141667D01*
X158506571Y-120046429D01*
X158458952Y-119998810D01*
X158363714Y-119951190D01*
X158173237Y-119903571D01*
X158077999Y-119855952D01*
X158030380Y-119808333D01*
X157982761Y-119713095D01*
X157982761Y-119617857D01*
X158030380Y-119522619D01*
X158077999Y-119475000D01*
X158173237Y-119427381D01*
X158411333Y-119427381D01*
X158554190Y-119475000D01*
X159411333Y-120379762D02*
X159316095Y-120427381D01*
X159125618Y-120427381D01*
X159030380Y-120379762D01*
X158982761Y-120332143D01*
X158935142Y-120236905D01*
X158935142Y-119951190D01*
X158982761Y-119855952D01*
X159030380Y-119808333D01*
X159125618Y-119760714D01*
X159316095Y-119760714D01*
X159411333Y-119808333D01*
X159839904Y-120427381D02*
X159839904Y-119427381D01*
X160268476Y-120427381D02*
X160268476Y-119903571D01*
X160220857Y-119808333D01*
X160125619Y-119760714D01*
X159982761Y-119760714D01*
X159887523Y-119808333D01*
X159839904Y-119855952D01*
X160887523Y-120427381D02*
X160792285Y-120379762D01*
X160744666Y-120332143D01*
X160697047Y-120236905D01*
X160697047Y-119951190D01*
X160744666Y-119855952D01*
X160792285Y-119808333D01*
X160887523Y-119760714D01*
X161030381Y-119760714D01*
X161125619Y-119808333D01*
X161173238Y-119855952D01*
X161220857Y-119951190D01*
X161220857Y-120236905D01*
X161173238Y-120332143D01*
X161125619Y-120379762D01*
X161030381Y-120427381D01*
X160887523Y-120427381D01*
X161506571Y-119760714D02*
X161887523Y-119760714D01*
X161649428Y-119427381D02*
X161649428Y-120284524D01*
X161697047Y-120379762D01*
X161792285Y-120427381D01*
X161887523Y-120427381D01*
X162078000Y-119760714D02*
X162458952Y-119760714D01*
X162220857Y-119427381D02*
X162220857Y-120284524D01*
X162268476Y-120379762D01*
X162363714Y-120427381D01*
X162458952Y-120427381D01*
X162792286Y-120427381D02*
X162792286Y-119427381D01*
X162887524Y-120046429D02*
X163173239Y-120427381D01*
X163173239Y-119760714D02*
X162792286Y-120141667D01*
X163506572Y-119760714D02*
X163744667Y-120427381D01*
X163982763Y-119760714D02*
X163744667Y-120427381D01*
X163649429Y-120665476D01*
X163601810Y-120713095D01*
X163506572Y-120760714D01*
X159339905Y-117567381D02*
X159339905Y-116567381D01*
X159578000Y-116567381D01*
X159720858Y-116615000D01*
X159816096Y-116710238D01*
X159863715Y-116805476D01*
X159911334Y-116995952D01*
X159911334Y-117138810D01*
X159863715Y-117329286D01*
X159816096Y-117424524D01*
X159720858Y-117519762D01*
X159578000Y-117567381D01*
X159339905Y-117567381D01*
X160768477Y-116900714D02*
X160768477Y-117567381D01*
X160530381Y-116519762D02*
X160292286Y-117234048D01*
X160911334Y-117234048D01*
X156158475Y-116077381D02*
X156158475Y-115077381D01*
X156396570Y-115077381D01*
X156539428Y-115125000D01*
X156634666Y-115220238D01*
X156682285Y-115315476D01*
X156729904Y-115505952D01*
X156729904Y-115648810D01*
X156682285Y-115839286D01*
X156634666Y-115934524D01*
X156539428Y-116029762D01*
X156396570Y-116077381D01*
X156158475Y-116077381D01*
X156920380Y-116172619D02*
X157682285Y-116172619D01*
X157872761Y-116029762D02*
X158015618Y-116077381D01*
X158253714Y-116077381D01*
X158348952Y-116029762D01*
X158396571Y-115982143D01*
X158444190Y-115886905D01*
X158444190Y-115791667D01*
X158396571Y-115696429D01*
X158348952Y-115648810D01*
X158253714Y-115601190D01*
X158063237Y-115553571D01*
X157967999Y-115505952D01*
X157920380Y-115458333D01*
X157872761Y-115363095D01*
X157872761Y-115267857D01*
X157920380Y-115172619D01*
X157967999Y-115125000D01*
X158063237Y-115077381D01*
X158301333Y-115077381D01*
X158444190Y-115125000D01*
X159301333Y-116029762D02*
X159206095Y-116077381D01*
X159015618Y-116077381D01*
X158920380Y-116029762D01*
X158872761Y-115982143D01*
X158825142Y-115886905D01*
X158825142Y-115601190D01*
X158872761Y-115505952D01*
X158920380Y-115458333D01*
X159015618Y-115410714D01*
X159206095Y-115410714D01*
X159301333Y-115458333D01*
X159729904Y-116077381D02*
X159729904Y-115077381D01*
X160158476Y-116077381D02*
X160158476Y-115553571D01*
X160110857Y-115458333D01*
X160015619Y-115410714D01*
X159872761Y-115410714D01*
X159777523Y-115458333D01*
X159729904Y-115505952D01*
X160777523Y-116077381D02*
X160682285Y-116029762D01*
X160634666Y-115982143D01*
X160587047Y-115886905D01*
X160587047Y-115601190D01*
X160634666Y-115505952D01*
X160682285Y-115458333D01*
X160777523Y-115410714D01*
X160920381Y-115410714D01*
X161015619Y-115458333D01*
X161063238Y-115505952D01*
X161110857Y-115601190D01*
X161110857Y-115886905D01*
X161063238Y-115982143D01*
X161015619Y-116029762D01*
X160920381Y-116077381D01*
X160777523Y-116077381D01*
X161396571Y-115410714D02*
X161777523Y-115410714D01*
X161539428Y-115077381D02*
X161539428Y-115934524D01*
X161587047Y-116029762D01*
X161682285Y-116077381D01*
X161777523Y-116077381D01*
X161968000Y-115410714D02*
X162348952Y-115410714D01*
X162110857Y-115077381D02*
X162110857Y-115934524D01*
X162158476Y-116029762D01*
X162253714Y-116077381D01*
X162348952Y-116077381D01*
X162682286Y-116077381D02*
X162682286Y-115077381D01*
X162777524Y-115696429D02*
X163063239Y-116077381D01*
X163063239Y-115410714D02*
X162682286Y-115791667D01*
X163396572Y-115410714D02*
X163634667Y-116077381D01*
X163872763Y-115410714D02*
X163634667Y-116077381D01*
X163539429Y-116315476D01*
X163491810Y-116363095D01*
X163396572Y-116410714D01*
X159229905Y-113217381D02*
X159229905Y-112217381D01*
X159468000Y-112217381D01*
X159610858Y-112265000D01*
X159706096Y-112360238D01*
X159753715Y-112455476D01*
X159801334Y-112645952D01*
X159801334Y-112788810D01*
X159753715Y-112979286D01*
X159706096Y-113074524D01*
X159610858Y-113169762D01*
X159468000Y-113217381D01*
X159229905Y-113217381D01*
X160134667Y-112217381D02*
X160753715Y-112217381D01*
X160420381Y-112598333D01*
X160563239Y-112598333D01*
X160658477Y-112645952D01*
X160706096Y-112693571D01*
X160753715Y-112788810D01*
X160753715Y-113026905D01*
X160706096Y-113122143D01*
X160658477Y-113169762D01*
X160563239Y-113217381D01*
X160277524Y-113217381D01*
X160182286Y-113169762D01*
X160134667Y-113122143D01*
M02*
