M48
;DRILL file {KiCad 4.0.6} date 06/20/17 12:27:14
;FORMAT={-:-/ absolute / metric / decimal}
FMAT,2
METRIC,TZ
T1C0.400
T2C1.000
T3C1.016
T4C1.200
T5C3.048
%
G90
G05
M71
T1
X128.327Y-91.052
X130.412Y-91.698
X158.526Y-95.607
X163.198Y-100.943
T2
X115.117Y-83.903
X115.117Y-86.443
X115.117Y-88.983
X115.117Y-91.523
X115.117Y-98.127
X115.117Y-100.667
X115.117Y-106.763
X115.117Y-109.303
X115.117Y-111.843
X115.117Y-114.383
X115.458Y-122.365
X117.998Y-122.365
X126.498Y-110.325
X126.498Y-112.865
X126.498Y-115.405
X129.148Y-92.345
X129.148Y-94.885
X129.148Y-97.425
X129.148Y-99.965
X133.988Y-88.007
X133.988Y-103.247
X136.528Y-88.007
X136.528Y-103.247
X139.068Y-88.007
X139.068Y-103.247
X141.608Y-88.007
X141.608Y-103.247
X144.148Y-88.007
X144.148Y-103.247
X146.688Y-88.007
X146.688Y-103.247
X149.228Y-88.007
X149.228Y-103.247
X151.768Y-88.007
X151.768Y-103.247
X154.308Y-88.007
X154.308Y-103.247
X156.848Y-88.007
X156.848Y-103.247
X159.388Y-88.007
X159.388Y-103.247
X161.928Y-88.007
X161.928Y-103.247
X164.468Y-88.007
X164.468Y-103.247
X167.008Y-88.007
X167.008Y-90.547
X167.008Y-93.087
X167.008Y-95.627
X167.008Y-98.167
X167.008Y-100.707
X167.008Y-103.247
X172.698Y-91.695
X172.698Y-94.235
X172.698Y-96.775
X172.698Y-99.315
T3
X129.794Y-75.565
X132.334Y-75.565
X134.874Y-75.565
X137.414Y-75.565
X138.938Y-123.825
X139.954Y-75.565
X141.478Y-123.825
X142.494Y-75.565
X144.018Y-123.825
X145.034Y-75.565
X146.558Y-123.825
X147.574Y-75.565
X149.098Y-123.825
X150.114Y-75.565
X151.638Y-123.825
X152.654Y-75.565
X154.178Y-123.825
X156.718Y-75.565
X156.718Y-123.825
X159.258Y-75.565
X161.798Y-75.565
X161.798Y-123.825
X164.338Y-75.565
X164.338Y-123.825
X166.878Y-75.565
X166.878Y-123.825
X169.418Y-75.565
X169.418Y-123.825
X171.958Y-75.565
X171.958Y-123.825
X174.498Y-75.565
X174.498Y-123.825
T4
X154.888Y-112.765
X154.998Y-117.115
X165.048Y-112.765
X165.158Y-117.115
T5
X124.968Y-123.825
X126.238Y-75.565
X177.038Y-118.745
T0
M30
