G04 #@! TF.FileFunction,Copper,L2,Bot,Signal*
%FSLAX46Y46*%
G04 Gerber Fmt 4.6, Leading zero omitted, Abs format (unit mm)*
G04 Created by KiCad (PCBNEW 4.0.6) date 06/14/17 16:45:23*
%MOMM*%
%LPD*%
G01*
G04 APERTURE LIST*
%ADD10C,0.100000*%
%ADD11C,4.064000*%
%ADD12O,1.727200X2.032000*%
%ADD13R,1.700000X1.700000*%
%ADD14O,1.700000X1.700000*%
%ADD15C,0.600000*%
%ADD16C,0.250000*%
G04 APERTURE END LIST*
D10*
D11*
X177038000Y-118745000D03*
D12*
X138938000Y-123825000D03*
X141478000Y-123825000D03*
X144018000Y-123825000D03*
X146558000Y-123825000D03*
X149098000Y-123825000D03*
X151638000Y-123825000D03*
X154178000Y-123825000D03*
X156718000Y-123825000D03*
X161798000Y-123825000D03*
X164338000Y-123825000D03*
X166878000Y-123825000D03*
X169418000Y-123825000D03*
X171958000Y-123825000D03*
X174498000Y-123825000D03*
X129794000Y-75565000D03*
X132334000Y-75565000D03*
X134874000Y-75565000D03*
X137414000Y-75565000D03*
X139954000Y-75565000D03*
X142494000Y-75565000D03*
X145034000Y-75565000D03*
X147574000Y-75565000D03*
X150114000Y-75565000D03*
X152654000Y-75565000D03*
X156718000Y-75565000D03*
X159258000Y-75565000D03*
X161798000Y-75565000D03*
X164338000Y-75565000D03*
X166878000Y-75565000D03*
X169418000Y-75565000D03*
X171958000Y-75565000D03*
X174498000Y-75565000D03*
D11*
X124968000Y-123825000D03*
X126238000Y-75565000D03*
D13*
X133988000Y-88007000D03*
D14*
X136528000Y-88007000D03*
X139068000Y-88007000D03*
X141608000Y-88007000D03*
X144148000Y-88007000D03*
X146688000Y-88007000D03*
X149228000Y-88007000D03*
X151768000Y-88007000D03*
X154308000Y-88007000D03*
X156848000Y-88007000D03*
X159388000Y-88007000D03*
X161928000Y-88007000D03*
X164468000Y-88007000D03*
X167008000Y-88007000D03*
D13*
X172098000Y-100105000D03*
D14*
X172098000Y-97565000D03*
X172098000Y-95025000D03*
X172098000Y-92485000D03*
D13*
X167008000Y-100707000D03*
D14*
X167008000Y-98167000D03*
X167008000Y-95627000D03*
X167008000Y-93087000D03*
X167008000Y-90547000D03*
D13*
X133988000Y-103247000D03*
D14*
X136528000Y-103247000D03*
X139068000Y-103247000D03*
X141608000Y-103247000D03*
X144148000Y-103247000D03*
X146688000Y-103247000D03*
X149228000Y-103247000D03*
X151768000Y-103247000D03*
X154308000Y-103247000D03*
X156848000Y-103247000D03*
X159388000Y-103247000D03*
X161928000Y-103247000D03*
X164468000Y-103247000D03*
X167008000Y-103247000D03*
D13*
X129148000Y-99965000D03*
D14*
X129148000Y-97425000D03*
X129148000Y-94885000D03*
X129148000Y-92345000D03*
D13*
X115117000Y-91523200D03*
D14*
X115117000Y-88983200D03*
X115117000Y-86443200D03*
X115117000Y-83903200D03*
D13*
X115117000Y-100667000D03*
D14*
X115117000Y-98127000D03*
D13*
X115117000Y-114383000D03*
D14*
X115117000Y-111843000D03*
X115117000Y-109303000D03*
X115117000Y-106763000D03*
D13*
X126498000Y-115405000D03*
D14*
X126498000Y-112865000D03*
X126498000Y-110325000D03*
D13*
X115458000Y-122365000D03*
D14*
X117998000Y-122365000D03*
D15*
X162428400Y-96101700D03*
X151997300Y-80906300D03*
X161311600Y-110362400D03*
D16*
X170769100Y-122636100D02*
X170769100Y-123825000D01*
X155483300Y-107350300D02*
X170769100Y-122636100D01*
X155483300Y-90357600D02*
X155483300Y-107350300D01*
X154308000Y-89182300D02*
X155483300Y-90357600D01*
X154308000Y-88007000D02*
X154308000Y-89182300D01*
X171958000Y-123825000D02*
X170769100Y-123825000D01*
X151768000Y-88007000D02*
X152943300Y-88007000D01*
X174498000Y-123825000D02*
X173309100Y-123825000D01*
X173309100Y-123244200D02*
X173309100Y-123825000D01*
X160686300Y-110621400D02*
X173309100Y-123244200D01*
X160686300Y-93789200D02*
X160686300Y-110621400D01*
X155483300Y-88586200D02*
X160686300Y-93789200D01*
X155483300Y-87513800D02*
X155483300Y-88586200D01*
X154786200Y-86816700D02*
X155483300Y-87513800D01*
X153766300Y-86816700D02*
X154786200Y-86816700D01*
X152943300Y-87639700D02*
X153766300Y-86816700D01*
X152943300Y-88007000D02*
X152943300Y-87639700D01*
X156718000Y-75565000D02*
X155529100Y-75565000D01*
X154308000Y-103247000D02*
X154308000Y-102071700D01*
X150592700Y-98356400D02*
X154308000Y-102071700D01*
X150592700Y-81426600D02*
X150592700Y-98356400D01*
X155529100Y-76490200D02*
X150592700Y-81426600D01*
X155529100Y-75565000D02*
X155529100Y-76490200D01*
X151768000Y-103247000D02*
X151768000Y-102071700D01*
X159258000Y-75565000D02*
X158069100Y-75565000D01*
X158069100Y-75044900D02*
X158069100Y-75565000D01*
X157227000Y-74202800D02*
X158069100Y-75044900D01*
X156246300Y-74202800D02*
X157227000Y-74202800D01*
X154781500Y-75667600D02*
X156246300Y-74202800D01*
X154781500Y-76304500D02*
X154781500Y-75667600D01*
X148047900Y-83038100D02*
X154781500Y-76304500D01*
X148047900Y-98351600D02*
X148047900Y-83038100D01*
X151768000Y-102071700D02*
X148047900Y-98351600D01*
X160609100Y-75044900D02*
X160609100Y-75565000D01*
X159281300Y-73717100D02*
X160609100Y-75044900D01*
X156040400Y-73717100D02*
X159281300Y-73717100D01*
X153927800Y-75829700D02*
X156040400Y-73717100D01*
X153927800Y-76203000D02*
X153927800Y-75829700D01*
X145493100Y-84637700D02*
X153927800Y-76203000D01*
X145493100Y-98336800D02*
X145493100Y-84637700D01*
X149228000Y-102071700D02*
X145493100Y-98336800D01*
X149228000Y-103247000D02*
X149228000Y-102071700D01*
X161798000Y-75565000D02*
X160609100Y-75565000D01*
X168229100Y-76753900D02*
X168229100Y-75565000D01*
X165738000Y-79245000D02*
X168229100Y-76753900D01*
X165738000Y-89571800D02*
X165738000Y-79245000D01*
X162428400Y-92881400D02*
X165738000Y-89571800D01*
X162428400Y-96101700D02*
X162428400Y-92881400D01*
X169418000Y-75565000D02*
X168229100Y-75565000D01*
X145369100Y-122636100D02*
X145369100Y-123825000D01*
X140243300Y-117510300D02*
X145369100Y-122636100D01*
X140243300Y-90357600D02*
X140243300Y-117510300D01*
X139068000Y-89182300D02*
X140243300Y-90357600D01*
X139068000Y-88007000D02*
X139068000Y-89182300D01*
X146558000Y-123825000D02*
X145369100Y-123825000D01*
X164468000Y-103247000D02*
X164468000Y-102071700D01*
X161803100Y-99406800D02*
X164468000Y-102071700D01*
X161803100Y-93474900D02*
X161803100Y-99406800D01*
X158118000Y-89789800D02*
X161803100Y-93474900D01*
X158118000Y-87027000D02*
X158118000Y-89789800D01*
X151997300Y-80906300D02*
X158118000Y-87027000D01*
X135352700Y-88815000D02*
X135352700Y-88007000D01*
X130458100Y-93709600D02*
X135352700Y-88815000D01*
X120709700Y-93709600D02*
X130458100Y-93709600D01*
X116292300Y-98127000D02*
X120709700Y-93709600D01*
X115117000Y-98127000D02*
X116292300Y-98127000D01*
X136528000Y-88007000D02*
X135352700Y-88007000D01*
X166640600Y-91722300D02*
X167008000Y-91722300D01*
X165832700Y-92530200D02*
X166640600Y-91722300D01*
X165832700Y-105841300D02*
X165832700Y-92530200D01*
X161311600Y-110362400D02*
X165832700Y-105841300D01*
X167008000Y-90547000D02*
X167008000Y-91722300D01*
X127972700Y-100746100D02*
X127972700Y-99965000D01*
X115511100Y-113207700D02*
X127972700Y-100746100D01*
X115117000Y-113207700D02*
X115511100Y-113207700D01*
X115117000Y-114383000D02*
X115117000Y-113207700D01*
X129148000Y-99965000D02*
X127972700Y-99965000D01*
X127972700Y-98206100D02*
X127972700Y-97425000D01*
X115511100Y-110667700D02*
X127972700Y-98206100D01*
X115117000Y-110667700D02*
X115511100Y-110667700D01*
X115117000Y-111843000D02*
X115117000Y-110667700D01*
X129148000Y-97425000D02*
X127972700Y-97425000D01*
X127972700Y-95666100D02*
X127972700Y-94885000D01*
X115511100Y-108127700D02*
X127972700Y-95666100D01*
X115117000Y-108127700D02*
X115511100Y-108127700D01*
X115117000Y-109303000D02*
X115117000Y-108127700D01*
X129148000Y-94885000D02*
X127972700Y-94885000D01*
X125322700Y-113865000D02*
X125322700Y-112865000D01*
X117998000Y-121189700D02*
X125322700Y-113865000D01*
X117998000Y-122365000D02*
X117998000Y-121189700D01*
X126498000Y-112865000D02*
X125910400Y-112865000D01*
X125910400Y-112865000D02*
X125322700Y-112865000D01*
X154178000Y-123825000D02*
X152989100Y-123825000D01*
X129275600Y-109134700D02*
X133988000Y-104422300D01*
X129275600Y-109753800D02*
X129275600Y-109134700D01*
X129021600Y-109753800D02*
X129275600Y-109753800D01*
X125910400Y-112865000D02*
X129021600Y-109753800D01*
X152989100Y-124345100D02*
X152989100Y-123825000D01*
X152153700Y-125180500D02*
X152989100Y-124345100D01*
X143489600Y-125180500D02*
X152153700Y-125180500D01*
X142748000Y-124438900D02*
X143489600Y-125180500D01*
X142748000Y-123226200D02*
X142748000Y-124438900D01*
X129275600Y-109753800D02*
X142748000Y-123226200D01*
X133988000Y-103247000D02*
X133988000Y-104422300D01*
X133486000Y-89182300D02*
X133988000Y-89182300D01*
X130323300Y-92345000D02*
X133486000Y-89182300D01*
X129148000Y-92345000D02*
X130323300Y-92345000D01*
X133988000Y-88007000D02*
X133988000Y-89182300D01*
X119530900Y-83903200D02*
X127972700Y-92345000D01*
X115117000Y-83903200D02*
X119530900Y-83903200D01*
X129148000Y-92345000D02*
X127972700Y-92345000D01*
M02*
