G04 #@! TF.FileFunction,Copper,L1,Top,Signal*
%FSLAX46Y46*%
G04 Gerber Fmt 4.6, Leading zero omitted, Abs format (unit mm)*
G04 Created by KiCad (PCBNEW 4.0.4-stable) date 01/06/17 20:42:41*
%MOMM*%
%LPD*%
G01*
G04 APERTURE LIST*
%ADD10C,0.100000*%
%ADD11R,1.727200X2.032000*%
%ADD12O,1.727200X2.032000*%
%ADD13C,4.064000*%
%ADD14C,2.499360*%
%ADD15R,2.032000X1.727200*%
%ADD16O,2.032000X1.727200*%
%ADD17R,2.235200X2.235200*%
%ADD18R,2.032000X2.032000*%
%ADD19O,2.032000X2.032000*%
%ADD20C,1.397000*%
%ADD21C,0.600000*%
%ADD22C,0.250000*%
G04 APERTURE END LIST*
D10*
D11*
X57658000Y-116205000D03*
D12*
X60198000Y-116205000D03*
X62738000Y-116205000D03*
X65278000Y-116205000D03*
X67818000Y-116205000D03*
X70358000Y-116205000D03*
X72898000Y-116205000D03*
X75438000Y-116205000D03*
X77978000Y-116205000D03*
X80518000Y-116205000D03*
X83058000Y-116205000D03*
X85598000Y-116205000D03*
X88138000Y-116205000D03*
X90678000Y-116205000D03*
X93218000Y-116205000D03*
X95758000Y-116205000D03*
X98298000Y-116205000D03*
X100838000Y-116205000D03*
X103378000Y-116205000D03*
X105918000Y-116205000D03*
X108458000Y-116205000D03*
X110998000Y-116205000D03*
X113538000Y-116205000D03*
X116078000Y-116205000D03*
X133858000Y-123825000D03*
X136398000Y-123825000D03*
X138938000Y-123825000D03*
X141478000Y-123825000D03*
X144018000Y-123825000D03*
X146558000Y-123825000D03*
X149098000Y-123825000D03*
X151638000Y-123825000D03*
X156718000Y-123825000D03*
X159258000Y-123825000D03*
X161798000Y-123825000D03*
X164338000Y-123825000D03*
X166878000Y-123825000D03*
X169418000Y-123825000D03*
X124714000Y-75565000D03*
X127254000Y-75565000D03*
X129794000Y-75565000D03*
X132334000Y-75565000D03*
X134874000Y-75565000D03*
X137414000Y-75565000D03*
X139954000Y-75565000D03*
X142494000Y-75565000D03*
X145034000Y-75565000D03*
X147574000Y-75565000D03*
X151638000Y-75565000D03*
X154178000Y-75565000D03*
X156718000Y-75565000D03*
X159258000Y-75565000D03*
X161798000Y-75565000D03*
X164338000Y-75565000D03*
X166878000Y-75565000D03*
X169418000Y-75565000D03*
D13*
X74168000Y-131445000D03*
X175768000Y-121285000D03*
X65278000Y-71755000D03*
X175768000Y-80645000D03*
D14*
X48127920Y-127556260D03*
X44328080Y-122555000D03*
X48127920Y-117553740D03*
D11*
X95758000Y-121285000D03*
D12*
X98298000Y-121285000D03*
X100838000Y-121285000D03*
X103378000Y-121285000D03*
X105918000Y-121285000D03*
X108458000Y-121285000D03*
X110998000Y-121285000D03*
X113538000Y-121285000D03*
X116078000Y-121285000D03*
D11*
X95758000Y-118745000D03*
D12*
X98298000Y-118745000D03*
X100838000Y-118745000D03*
X103378000Y-118745000D03*
X105918000Y-118745000D03*
X108458000Y-118745000D03*
X110998000Y-118745000D03*
X113538000Y-118745000D03*
X116078000Y-118745000D03*
D11*
X60198000Y-121285000D03*
D12*
X62738000Y-121285000D03*
X65278000Y-121285000D03*
X67818000Y-121285000D03*
X70358000Y-121285000D03*
X72898000Y-121285000D03*
X75438000Y-121285000D03*
X77978000Y-121285000D03*
X80518000Y-121285000D03*
X83058000Y-121285000D03*
X85598000Y-121285000D03*
X88138000Y-121285000D03*
X90678000Y-121285000D03*
D11*
X95758000Y-84455000D03*
D12*
X98298000Y-84455000D03*
X100838000Y-84455000D03*
X103378000Y-84455000D03*
X105918000Y-84455000D03*
X108458000Y-84455000D03*
X110998000Y-84455000D03*
X113538000Y-84455000D03*
X116078000Y-84455000D03*
D11*
X60198000Y-118745000D03*
D12*
X62738000Y-118745000D03*
X65278000Y-118745000D03*
X67818000Y-118745000D03*
X70358000Y-118745000D03*
X72898000Y-118745000D03*
X75438000Y-118745000D03*
X77978000Y-118745000D03*
X80518000Y-118745000D03*
X83058000Y-118745000D03*
X85598000Y-118745000D03*
X88138000Y-118745000D03*
X90678000Y-118745000D03*
D11*
X95758000Y-81915000D03*
D12*
X98298000Y-81915000D03*
X100838000Y-81915000D03*
X103378000Y-81915000D03*
X105918000Y-81915000D03*
X108458000Y-81915000D03*
X110998000Y-81915000D03*
X113538000Y-81915000D03*
X116078000Y-81915000D03*
D11*
X57658000Y-108585000D03*
D12*
X60198000Y-108585000D03*
X62738000Y-108585000D03*
X65278000Y-108585000D03*
X67818000Y-108585000D03*
X70358000Y-108585000D03*
X72898000Y-108585000D03*
X75438000Y-108585000D03*
X77978000Y-108585000D03*
X80518000Y-108585000D03*
X83058000Y-108585000D03*
X85598000Y-108585000D03*
X88138000Y-108585000D03*
X90678000Y-108585000D03*
X93218000Y-108585000D03*
X95758000Y-108585000D03*
X98298000Y-108585000D03*
X100838000Y-108585000D03*
X103378000Y-108585000D03*
X105918000Y-108585000D03*
X108458000Y-108585000D03*
X110998000Y-108585000D03*
X113538000Y-108585000D03*
X116078000Y-108585000D03*
D15*
X103378000Y-95885000D03*
D16*
X103378000Y-98425000D03*
X103378000Y-100965000D03*
X103378000Y-103505000D03*
X103378000Y-106045000D03*
D11*
X65278000Y-95885000D03*
D12*
X67818000Y-95885000D03*
X70358000Y-95885000D03*
D15*
X47498000Y-78105000D03*
D16*
X47498000Y-80645000D03*
X47498000Y-83185000D03*
D17*
X60198000Y-95885000D03*
D11*
X57658000Y-93345000D03*
D12*
X60198000Y-93345000D03*
X62738000Y-93345000D03*
X65278000Y-93345000D03*
X67818000Y-93345000D03*
X70358000Y-93345000D03*
X72898000Y-93345000D03*
X75438000Y-93345000D03*
X77978000Y-93345000D03*
X80518000Y-93345000D03*
X83058000Y-93345000D03*
X85598000Y-93345000D03*
X88138000Y-93345000D03*
X90678000Y-93345000D03*
X93218000Y-93345000D03*
X95758000Y-93345000D03*
X98298000Y-93345000D03*
X100838000Y-93345000D03*
X103378000Y-93345000D03*
X105918000Y-93345000D03*
X108458000Y-93345000D03*
X110998000Y-93345000D03*
X113538000Y-93345000D03*
X116078000Y-93345000D03*
D18*
X52578000Y-71755000D03*
D19*
X55118000Y-71755000D03*
D11*
X57658000Y-86995000D03*
D12*
X60198000Y-86995000D03*
X62738000Y-86995000D03*
X65278000Y-86995000D03*
X67818000Y-86995000D03*
X70358000Y-86995000D03*
X72898000Y-86995000D03*
X75438000Y-86995000D03*
X77978000Y-86995000D03*
X80518000Y-86995000D03*
X83058000Y-86995000D03*
X85598000Y-86995000D03*
X88138000Y-86995000D03*
X90678000Y-86995000D03*
X93218000Y-86995000D03*
X95758000Y-86995000D03*
X98298000Y-86995000D03*
X100838000Y-86995000D03*
X103378000Y-86995000D03*
X105918000Y-86995000D03*
X108458000Y-86995000D03*
X110998000Y-86995000D03*
X113538000Y-86995000D03*
X116078000Y-86995000D03*
D11*
X60198000Y-84455000D03*
D12*
X62738000Y-84455000D03*
X65278000Y-84455000D03*
X67818000Y-84455000D03*
X70358000Y-84455000D03*
X72898000Y-84455000D03*
X75438000Y-84455000D03*
X77978000Y-84455000D03*
X80518000Y-84455000D03*
X83058000Y-84455000D03*
X85598000Y-84455000D03*
X88138000Y-84455000D03*
X90678000Y-84455000D03*
D11*
X60198000Y-81915000D03*
D12*
X62738000Y-81915000D03*
X65278000Y-81915000D03*
X67818000Y-81915000D03*
X70358000Y-81915000D03*
X72898000Y-81915000D03*
X75438000Y-81915000D03*
X77978000Y-81915000D03*
X80518000Y-81915000D03*
X83058000Y-81915000D03*
X85598000Y-81915000D03*
X88138000Y-81915000D03*
X90678000Y-81915000D03*
D20*
X112268000Y-70485000D03*
X112268000Y-75565000D03*
X104648000Y-70485000D03*
X104648000Y-75565000D03*
X98298000Y-70485000D03*
X98298000Y-75565000D03*
X90678000Y-70485000D03*
X90678000Y-75565000D03*
D21*
X144780000Y-101981000D03*
X133604000Y-88011000D03*
X129032000Y-83355264D03*
X125222000Y-79121000D03*
X100838000Y-79121000D03*
X128140000Y-94686400D03*
X129428000Y-92124100D03*
X131287000Y-91491400D03*
X114061000Y-105865000D03*
X109104000Y-107074000D03*
X140030000Y-78287600D03*
X115570000Y-72517000D03*
X94488000Y-72517000D03*
X98233100Y-101121000D03*
D22*
X149397999Y-102280999D02*
X156718000Y-109601000D01*
X156718000Y-109601000D02*
X156718000Y-123825000D01*
X144780000Y-101981000D02*
X145079999Y-102280999D01*
X145079999Y-102280999D02*
X149397999Y-102280999D01*
X129032000Y-83355264D02*
X133604000Y-87927264D01*
X133604000Y-87927264D02*
X133604000Y-88011000D01*
X100838000Y-79121000D02*
X125222000Y-79121000D01*
X87608200Y-94686400D02*
X128140000Y-94686400D01*
X86786900Y-93865100D02*
X87608200Y-94686400D01*
X86786900Y-93345000D02*
X86786900Y-93865100D01*
X85598000Y-93345000D02*
X86786900Y-93345000D01*
X129302000Y-91997400D02*
X129428000Y-92124100D01*
X85074400Y-91997400D02*
X129302000Y-91997400D01*
X84246900Y-92824900D02*
X85074400Y-91997400D01*
X84246900Y-93345000D02*
X84246900Y-92824900D01*
X83058000Y-93345000D02*
X84246900Y-93345000D01*
X83040400Y-91491400D02*
X131287000Y-91491400D01*
X81706900Y-92824900D02*
X83040400Y-91491400D01*
X81706900Y-93345000D02*
X81706900Y-92824900D01*
X80518000Y-93345000D02*
X81706900Y-93345000D01*
X111867000Y-105865000D02*
X114061000Y-105865000D01*
X109647000Y-108086000D02*
X111867000Y-105865000D01*
X109647000Y-109240000D02*
X109647000Y-108086000D01*
X108944000Y-109944000D02*
X109647000Y-109240000D01*
X85085400Y-109944000D02*
X108944000Y-109944000D01*
X84246900Y-109105000D02*
X85085400Y-109944000D01*
X84246900Y-108585000D02*
X84246900Y-109105000D01*
X83058000Y-108585000D02*
X84246900Y-108585000D01*
X76626900Y-108585000D02*
X75438000Y-108585000D01*
X76626900Y-109105000D02*
X76626900Y-108585000D01*
X77915900Y-110394000D02*
X76626900Y-109105000D01*
X118680000Y-110394000D02*
X77915900Y-110394000D01*
X152989000Y-76085100D02*
X118680000Y-110394000D01*
X152989000Y-75565000D02*
X152989000Y-76085100D01*
X154178000Y-75565000D02*
X152989000Y-75565000D01*
X155529000Y-75565000D02*
X156718000Y-75565000D01*
X155529000Y-75044900D02*
X155529000Y-75565000D01*
X154706000Y-74222300D02*
X155529000Y-75044900D01*
X150900000Y-74222300D02*
X154706000Y-74222300D01*
X122888000Y-102235000D02*
X150900000Y-74222300D01*
X79916800Y-102235000D02*
X122888000Y-102235000D01*
X74086900Y-108065000D02*
X79916800Y-102235000D01*
X74086900Y-108585000D02*
X74086900Y-108065000D01*
X72898000Y-108585000D02*
X74086900Y-108585000D01*
X71546900Y-108585000D02*
X70358000Y-108585000D01*
X71546900Y-109105000D02*
X71546900Y-108585000D01*
X73288900Y-110847000D02*
X71546900Y-109105000D01*
X123307000Y-110847000D02*
X73288900Y-110847000D01*
X158069000Y-76085100D02*
X123307000Y-110847000D01*
X158069000Y-75565000D02*
X158069000Y-76085100D01*
X159258000Y-75565000D02*
X158069000Y-75565000D01*
X160609000Y-75565000D02*
X161798000Y-75565000D01*
X160609000Y-76085100D02*
X160609000Y-75565000D01*
X125394000Y-111300000D02*
X160609000Y-76085100D01*
X71202000Y-111300000D02*
X125394000Y-111300000D01*
X69006900Y-109105000D02*
X71202000Y-111300000D01*
X69006900Y-108585000D02*
X69006900Y-109105000D01*
X67818000Y-108585000D02*
X69006900Y-108585000D01*
X63926900Y-108585000D02*
X62738000Y-108585000D01*
X63926900Y-108065000D02*
X63926900Y-108585000D01*
X74836800Y-97155000D02*
X63926900Y-108065000D01*
X126556000Y-97155000D02*
X74836800Y-97155000D01*
X146304000Y-77407200D02*
X126556000Y-97155000D01*
X146304000Y-74998000D02*
X146304000Y-77407200D01*
X147550000Y-73752300D02*
X146304000Y-74998000D01*
X164396000Y-73752300D02*
X147550000Y-73752300D01*
X165689000Y-75044900D02*
X164396000Y-73752300D01*
X165689000Y-75565000D02*
X165689000Y-75044900D01*
X166878000Y-75565000D02*
X165689000Y-75565000D01*
X168229000Y-75565000D02*
X169418000Y-75565000D01*
X168229000Y-76085100D02*
X168229000Y-75565000D01*
X130665000Y-113650000D02*
X168229000Y-76085100D01*
X63422300Y-113650000D02*
X130665000Y-113650000D01*
X61386900Y-115685000D02*
X63422300Y-113650000D01*
X61386900Y-116205000D02*
X61386900Y-115685000D01*
X60198000Y-116205000D02*
X61386900Y-116205000D01*
X133685000Y-75565000D02*
X134874000Y-75565000D01*
X133685000Y-75044900D02*
X133685000Y-75565000D01*
X132817000Y-74177200D02*
X133685000Y-75044900D01*
X117060000Y-74177200D02*
X132817000Y-74177200D01*
X114314000Y-76923500D02*
X117060000Y-74177200D01*
X97674500Y-76923500D02*
X114314000Y-76923500D01*
X91866900Y-82731100D02*
X97674500Y-76923500D01*
X91866900Y-86995000D02*
X91866900Y-82731100D01*
X90678000Y-86995000D02*
X91866900Y-86995000D01*
X108944000Y-107234000D02*
X109104000Y-107074000D01*
X87617800Y-107234000D02*
X108944000Y-107234000D01*
X86786900Y-108065000D02*
X87617800Y-107234000D01*
X86786900Y-108585000D02*
X86786900Y-108065000D01*
X85598000Y-108585000D02*
X86786900Y-108585000D01*
X137414000Y-76906300D02*
X137414000Y-75565000D01*
X138649000Y-76906300D02*
X137414000Y-76906300D01*
X140030000Y-78287600D02*
X138649000Y-76906300D01*
X90678000Y-75565000D02*
X90678000Y-81915000D01*
X98298000Y-75565000D02*
X99285828Y-75565000D01*
X99285828Y-75565000D02*
X104648000Y-75565000D01*
X51816000Y-88616600D02*
X51816000Y-101477000D01*
X51816000Y-101477000D02*
X57658000Y-107319000D01*
X57658000Y-107319000D02*
X57658000Y-108585000D01*
X47498000Y-83185000D02*
X47498000Y-84298600D01*
X47498000Y-84298600D02*
X51816000Y-88616600D01*
X70358000Y-80645000D02*
X70358000Y-81915000D01*
X62738000Y-121285000D02*
X60198000Y-121285000D01*
X149098000Y-123825000D02*
X146558000Y-123825000D01*
X116078000Y-121285000D02*
X113538000Y-121285000D01*
X145369000Y-123825000D02*
X146558000Y-123825000D01*
X145369000Y-124345000D02*
X145369000Y-123825000D01*
X144545000Y-125169000D02*
X145369000Y-124345000D01*
X121151000Y-125169000D02*
X144545000Y-125169000D01*
X117267000Y-121285000D02*
X121151000Y-125169000D01*
X116078000Y-121285000D02*
X117267000Y-121285000D01*
X46949200Y-119934000D02*
X44328100Y-122555000D01*
X57658000Y-119934000D02*
X46949200Y-119934000D01*
X59009100Y-121285000D02*
X60198000Y-121285000D01*
X57658000Y-119934000D02*
X59009100Y-121285000D01*
X113538000Y-121285000D02*
X110998000Y-121285000D01*
X67818000Y-121285000D02*
X65278000Y-121285000D01*
X65278000Y-121285000D02*
X62738000Y-121285000D01*
X100838000Y-121285000D02*
X98298000Y-121285000D01*
X98298000Y-121285000D02*
X95758000Y-121285000D01*
X77978000Y-121285000D02*
X75438000Y-121285000D01*
X75438000Y-121285000D02*
X72898000Y-121285000D01*
X105918000Y-121285000D02*
X103378000Y-121285000D01*
X103378000Y-121285000D02*
X100838000Y-121285000D01*
X83058000Y-121285000D02*
X80518000Y-121285000D01*
X80518000Y-121285000D02*
X77978000Y-121285000D01*
X110998000Y-121285000D02*
X108458000Y-121285000D01*
X108458000Y-121285000D02*
X105918000Y-121285000D01*
X88138000Y-121285000D02*
X85598000Y-121285000D01*
X85598000Y-121285000D02*
X83058000Y-121285000D01*
X88138000Y-121285000D02*
X90678000Y-121285000D01*
X90678000Y-121285000D02*
X95758000Y-121285000D01*
X72898000Y-121285000D02*
X70358000Y-121285000D01*
X70358000Y-121285000D02*
X67818000Y-121285000D01*
X57658000Y-116205000D02*
X57658000Y-119934000D01*
X57739100Y-83185000D02*
X47498000Y-83185000D01*
X59009100Y-81915000D02*
X57739100Y-83185000D01*
X60198000Y-81915000D02*
X59009100Y-81915000D01*
X116078000Y-81915000D02*
X113538000Y-81915000D01*
X75438000Y-81915000D02*
X72898000Y-81915000D01*
X103378000Y-81915000D02*
X100838000Y-81915000D01*
X72898000Y-81915000D02*
X70358000Y-81915000D01*
X70358000Y-81915000D02*
X67818000Y-81915000D01*
X80518000Y-81915000D02*
X77978000Y-81915000D01*
X77978000Y-81915000D02*
X75438000Y-81915000D01*
X108458000Y-81915000D02*
X105918000Y-81915000D01*
X105918000Y-81915000D02*
X103378000Y-81915000D01*
X85598000Y-81915000D02*
X83058000Y-81915000D01*
X83058000Y-81915000D02*
X80518000Y-81915000D01*
X113538000Y-81915000D02*
X110998000Y-81915000D01*
X110998000Y-81915000D02*
X108458000Y-81915000D01*
X90678000Y-81915000D02*
X88138000Y-81915000D01*
X88138000Y-81915000D02*
X85598000Y-81915000D01*
X100838000Y-81915000D02*
X98298000Y-81915000D01*
X98298000Y-81915000D02*
X95758000Y-81915000D01*
X67818000Y-81915000D02*
X65278000Y-81915000D01*
X65278000Y-81915000D02*
X62738000Y-81915000D01*
X62738000Y-81915000D02*
X60198000Y-81915000D01*
X104648000Y-75565000D02*
X112268000Y-75565000D01*
X90678000Y-75565000D02*
X98298000Y-75565000D01*
X94406900Y-116205000D02*
X93730400Y-116205000D01*
X94406900Y-115685000D02*
X94406900Y-116205000D01*
X95229800Y-114862000D02*
X94406900Y-115685000D01*
X131846000Y-114862000D02*
X95229800Y-114862000D01*
X140289000Y-123305000D02*
X131846000Y-114862000D01*
X140289000Y-123825000D02*
X140289000Y-123305000D01*
X141478000Y-123825000D02*
X140289000Y-123825000D01*
X93730400Y-116205000D02*
X93218000Y-116205000D01*
X113538000Y-118745000D02*
X116078000Y-118745000D01*
X113538000Y-84455000D02*
X116078000Y-84455000D01*
X122775000Y-84455000D02*
X116078000Y-84455000D01*
X131145000Y-76085100D02*
X122775000Y-84455000D01*
X131145000Y-75565000D02*
X131145000Y-76085100D01*
X132334000Y-75565000D02*
X131145000Y-75565000D01*
X62738000Y-84455000D02*
X60198000Y-84455000D01*
X59009100Y-84455000D02*
X60198000Y-84455000D01*
X59009100Y-86832800D02*
X59009100Y-84455000D01*
X58846900Y-86995000D02*
X59009100Y-86832800D01*
X57658000Y-86995000D02*
X58846900Y-86995000D01*
X113538000Y-118745000D02*
X110998000Y-118745000D01*
X113538000Y-84455000D02*
X110998000Y-84455000D01*
X105918000Y-84455000D02*
X103378000Y-84455000D01*
X77978000Y-118745000D02*
X75438000Y-118745000D01*
X75438000Y-118745000D02*
X72898000Y-118745000D01*
X72898000Y-118745000D02*
X70358000Y-118745000D01*
X88138000Y-118745000D02*
X85598000Y-118745000D01*
X85598000Y-118745000D02*
X83058000Y-118745000D01*
X110998000Y-84455000D02*
X108458000Y-84455000D01*
X108458000Y-84455000D02*
X105918000Y-84455000D01*
X83058000Y-118745000D02*
X80518000Y-118745000D01*
X80518000Y-118745000D02*
X77978000Y-118745000D01*
X70358000Y-118745000D02*
X67818000Y-118745000D01*
X75438000Y-84455000D02*
X72898000Y-84455000D01*
X72898000Y-84455000D02*
X70358000Y-84455000D01*
X100838000Y-118745000D02*
X98298000Y-118745000D01*
X98298000Y-118745000D02*
X95758000Y-118745000D01*
X80518000Y-84455000D02*
X77978000Y-84455000D01*
X77978000Y-84455000D02*
X75438000Y-84455000D01*
X103378000Y-84455000D02*
X100838000Y-84455000D01*
X100838000Y-84455000D02*
X98298000Y-84455000D01*
X105918000Y-118745000D02*
X103378000Y-118745000D01*
X103378000Y-118745000D02*
X100838000Y-118745000D01*
X85598000Y-84455000D02*
X83058000Y-84455000D01*
X83058000Y-84455000D02*
X80518000Y-84455000D01*
X110998000Y-118745000D02*
X108458000Y-118745000D01*
X108458000Y-118745000D02*
X105918000Y-118745000D01*
X90678000Y-84455000D02*
X88138000Y-84455000D01*
X88138000Y-84455000D02*
X85598000Y-84455000D01*
X88138000Y-118745000D02*
X90678000Y-118745000D01*
X90678000Y-118745000D02*
X95758000Y-118745000D01*
X70358000Y-84455000D02*
X67818000Y-84455000D01*
X67818000Y-84455000D02*
X65278000Y-84455000D01*
X65278000Y-84455000D02*
X62738000Y-84455000D01*
X67818000Y-118745000D02*
X65278000Y-118745000D01*
X65278000Y-118745000D02*
X62738000Y-118745000D01*
X62738000Y-118745000D02*
X60198000Y-118745000D01*
X94488000Y-72517000D02*
X115570000Y-72517000D01*
X147574000Y-76906300D02*
X147574000Y-75565000D01*
X124785000Y-99695000D02*
X147574000Y-76906300D01*
X99658800Y-99695000D02*
X124785000Y-99695000D01*
X98233100Y-101121000D02*
X99658800Y-99695000D01*
X150449000Y-75565000D02*
X151638000Y-75565000D01*
X121158000Y-104856000D02*
X150449000Y-75565000D01*
X82375800Y-104856000D02*
X121158000Y-104856000D01*
X79166900Y-108065000D02*
X82375800Y-104856000D01*
X79166900Y-108585000D02*
X79166900Y-108065000D01*
X77978000Y-108585000D02*
X79166900Y-108585000D01*
X90678000Y-70485000D02*
X98298000Y-70485000D01*
X66466900Y-95885000D02*
X65278000Y-95885000D01*
X66466900Y-92819100D02*
X66466900Y-95885000D01*
X70334200Y-88951800D02*
X66466900Y-92819100D01*
X93098000Y-88951800D02*
X70334200Y-88951800D01*
X94467300Y-87582500D02*
X93098000Y-88951800D01*
X94467300Y-80790500D02*
X94467300Y-87582500D01*
X97107700Y-78150100D02*
X94467300Y-80790500D01*
X126540000Y-78150100D02*
X97107700Y-78150100D01*
X128605000Y-76085100D02*
X126540000Y-78150100D01*
X128605000Y-75565000D02*
X128605000Y-76085100D01*
X129794000Y-75565000D02*
X128605000Y-75565000D01*
X66466900Y-108585000D02*
X65278000Y-108585000D01*
X66466900Y-109105000D02*
X66466900Y-108585000D01*
X69123000Y-111761000D02*
X66466900Y-109105000D01*
X127473000Y-111761000D02*
X69123000Y-111761000D01*
X163149000Y-76085100D02*
X127473000Y-111761000D01*
X163149000Y-75565000D02*
X163149000Y-76085100D01*
X164338000Y-75565000D02*
X163149000Y-75565000D01*
M02*
