G04 #@! TF.FileFunction,Legend,Top*
%FSLAX46Y46*%
G04 Gerber Fmt 4.6, Leading zero omitted, Abs format (unit mm)*
G04 Created by KiCad (PCBNEW 4.0.4-stable) date 01/06/17 20:42:42*
%MOMM*%
%LPD*%
G01*
G04 APERTURE LIST*
%ADD10C,0.100000*%
%ADD11C,0.300000*%
%ADD12C,0.150000*%
%ADD13C,0.299720*%
%ADD14C,0.010160*%
%ADD15C,0.074930*%
%ADD16C,0.076200*%
G04 APERTURE END LIST*
D10*
D11*
X56721571Y-80502143D02*
X58221571Y-80002143D01*
X56721571Y-79502143D01*
X58221571Y-79002143D02*
X57221571Y-79002143D01*
X56721571Y-79002143D02*
X56793000Y-79073572D01*
X56864429Y-79002143D01*
X56793000Y-78930715D01*
X56721571Y-79002143D01*
X56864429Y-79002143D01*
X57221571Y-78287857D02*
X58221571Y-78287857D01*
X57364429Y-78287857D02*
X57293000Y-78216429D01*
X57221571Y-78073571D01*
X57221571Y-77859286D01*
X57293000Y-77716429D01*
X57435857Y-77645000D01*
X58221571Y-77645000D01*
X61821571Y-80430714D02*
X61821571Y-79502143D01*
X62393000Y-80002143D01*
X62393000Y-79787857D01*
X62464429Y-79645000D01*
X62535857Y-79573571D01*
X62678714Y-79502143D01*
X63035857Y-79502143D01*
X63178714Y-79573571D01*
X63250143Y-79645000D01*
X63321571Y-79787857D01*
X63321571Y-80216429D01*
X63250143Y-80359286D01*
X63178714Y-80430714D01*
X63178714Y-78859286D02*
X63250143Y-78787858D01*
X63321571Y-78859286D01*
X63250143Y-78930715D01*
X63178714Y-78859286D01*
X63321571Y-78859286D01*
X61821571Y-78287857D02*
X61821571Y-77359286D01*
X62393000Y-77859286D01*
X62393000Y-77645000D01*
X62464429Y-77502143D01*
X62535857Y-77430714D01*
X62678714Y-77359286D01*
X63035857Y-77359286D01*
X63178714Y-77430714D01*
X63250143Y-77502143D01*
X63321571Y-77645000D01*
X63321571Y-78073572D01*
X63250143Y-78216429D01*
X63178714Y-78287857D01*
X61821571Y-76930715D02*
X63321571Y-76430715D01*
X61821571Y-75930715D01*
X65443000Y-80359286D02*
X65443000Y-79645000D01*
X65871571Y-80502143D02*
X64371571Y-80002143D01*
X65871571Y-79502143D01*
X65871571Y-78930715D02*
X65871571Y-78645000D01*
X65800143Y-78502143D01*
X65728714Y-78430715D01*
X65514429Y-78287857D01*
X65228714Y-78216429D01*
X64657286Y-78216429D01*
X64514429Y-78287857D01*
X64443000Y-78359286D01*
X64371571Y-78502143D01*
X64371571Y-78787857D01*
X64443000Y-78930715D01*
X64514429Y-79002143D01*
X64657286Y-79073572D01*
X65014429Y-79073572D01*
X65157286Y-79002143D01*
X65228714Y-78930715D01*
X65300143Y-78787857D01*
X65300143Y-78502143D01*
X65228714Y-78359286D01*
X65157286Y-78287857D01*
X65014429Y-78216429D01*
X67993000Y-80359286D02*
X67993000Y-79645000D01*
X68421571Y-80502143D02*
X66921571Y-80002143D01*
X68421571Y-79502143D01*
X67564429Y-78787857D02*
X67493000Y-78930715D01*
X67421571Y-79002143D01*
X67278714Y-79073572D01*
X67207286Y-79073572D01*
X67064429Y-79002143D01*
X66993000Y-78930715D01*
X66921571Y-78787857D01*
X66921571Y-78502143D01*
X66993000Y-78359286D01*
X67064429Y-78287857D01*
X67207286Y-78216429D01*
X67278714Y-78216429D01*
X67421571Y-78287857D01*
X67493000Y-78359286D01*
X67564429Y-78502143D01*
X67564429Y-78787857D01*
X67635857Y-78930715D01*
X67707286Y-79002143D01*
X67850143Y-79073572D01*
X68135857Y-79073572D01*
X68278714Y-79002143D01*
X68350143Y-78930715D01*
X68421571Y-78787857D01*
X68421571Y-78502143D01*
X68350143Y-78359286D01*
X68278714Y-78287857D01*
X68135857Y-78216429D01*
X67850143Y-78216429D01*
X67707286Y-78287857D01*
X67635857Y-78359286D01*
X67564429Y-78502143D01*
X70543000Y-80359286D02*
X70543000Y-79645000D01*
X70971571Y-80502143D02*
X69471571Y-80002143D01*
X70971571Y-79502143D01*
X69471571Y-79145000D02*
X69471571Y-78145000D01*
X70971571Y-78787857D01*
X73093000Y-80359286D02*
X73093000Y-79645000D01*
X73521571Y-80502143D02*
X72021571Y-80002143D01*
X73521571Y-79502143D01*
X72021571Y-78359286D02*
X72021571Y-78645000D01*
X72093000Y-78787857D01*
X72164429Y-78859286D01*
X72378714Y-79002143D01*
X72664429Y-79073572D01*
X73235857Y-79073572D01*
X73378714Y-79002143D01*
X73450143Y-78930715D01*
X73521571Y-78787857D01*
X73521571Y-78502143D01*
X73450143Y-78359286D01*
X73378714Y-78287857D01*
X73235857Y-78216429D01*
X72878714Y-78216429D01*
X72735857Y-78287857D01*
X72664429Y-78359286D01*
X72593000Y-78502143D01*
X72593000Y-78787857D01*
X72664429Y-78930715D01*
X72735857Y-79002143D01*
X72878714Y-79073572D01*
X76000143Y-80359286D02*
X76071571Y-80145000D01*
X76071571Y-79787857D01*
X76000143Y-79645000D01*
X75928714Y-79573571D01*
X75785857Y-79502143D01*
X75643000Y-79502143D01*
X75500143Y-79573571D01*
X75428714Y-79645000D01*
X75357286Y-79787857D01*
X75285857Y-80073571D01*
X75214429Y-80216429D01*
X75143000Y-80287857D01*
X75000143Y-80359286D01*
X74857286Y-80359286D01*
X74714429Y-80287857D01*
X74643000Y-80216429D01*
X74571571Y-80073571D01*
X74571571Y-79716429D01*
X74643000Y-79502143D01*
X75928714Y-78002143D02*
X76000143Y-78073572D01*
X76071571Y-78287858D01*
X76071571Y-78430715D01*
X76000143Y-78645000D01*
X75857286Y-78787858D01*
X75714429Y-78859286D01*
X75428714Y-78930715D01*
X75214429Y-78930715D01*
X74928714Y-78859286D01*
X74785857Y-78787858D01*
X74643000Y-78645000D01*
X74571571Y-78430715D01*
X74571571Y-78287858D01*
X74643000Y-78073572D01*
X74714429Y-78002143D01*
X76071571Y-76645000D02*
X76071571Y-77359286D01*
X74571571Y-77359286D01*
X74571571Y-75859286D02*
X74571571Y-75716429D01*
X74643000Y-75573572D01*
X74714429Y-75502143D01*
X74857286Y-75430714D01*
X75143000Y-75359286D01*
X75500143Y-75359286D01*
X75785857Y-75430714D01*
X75928714Y-75502143D01*
X76000143Y-75573572D01*
X76071571Y-75716429D01*
X76071571Y-75859286D01*
X76000143Y-76002143D01*
X75928714Y-76073572D01*
X75785857Y-76145000D01*
X75500143Y-76216429D01*
X75143000Y-76216429D01*
X74857286Y-76145000D01*
X74714429Y-76073572D01*
X74643000Y-76002143D01*
X74571571Y-75859286D01*
X78550143Y-80359286D02*
X78621571Y-80145000D01*
X78621571Y-79787857D01*
X78550143Y-79645000D01*
X78478714Y-79573571D01*
X78335857Y-79502143D01*
X78193000Y-79502143D01*
X78050143Y-79573571D01*
X77978714Y-79645000D01*
X77907286Y-79787857D01*
X77835857Y-80073571D01*
X77764429Y-80216429D01*
X77693000Y-80287857D01*
X77550143Y-80359286D01*
X77407286Y-80359286D01*
X77264429Y-80287857D01*
X77193000Y-80216429D01*
X77121571Y-80073571D01*
X77121571Y-79716429D01*
X77193000Y-79502143D01*
X78621571Y-78859286D02*
X77121571Y-78859286D01*
X77121571Y-78502143D01*
X77193000Y-78287858D01*
X77335857Y-78145000D01*
X77478714Y-78073572D01*
X77764429Y-78002143D01*
X77978714Y-78002143D01*
X78264429Y-78073572D01*
X78407286Y-78145000D01*
X78550143Y-78287858D01*
X78621571Y-78502143D01*
X78621571Y-78859286D01*
X78193000Y-77430715D02*
X78193000Y-76716429D01*
X78621571Y-77573572D02*
X77121571Y-77073572D01*
X78621571Y-76573572D01*
X77121571Y-75787858D02*
X77121571Y-75645001D01*
X77193000Y-75502144D01*
X77264429Y-75430715D01*
X77407286Y-75359286D01*
X77693000Y-75287858D01*
X78050143Y-75287858D01*
X78335857Y-75359286D01*
X78478714Y-75430715D01*
X78550143Y-75502144D01*
X78621571Y-75645001D01*
X78621571Y-75787858D01*
X78550143Y-75930715D01*
X78478714Y-76002144D01*
X78335857Y-76073572D01*
X78050143Y-76145001D01*
X77693000Y-76145001D01*
X77407286Y-76073572D01*
X77264429Y-76002144D01*
X77193000Y-75930715D01*
X77121571Y-75787858D01*
X80743000Y-80359286D02*
X80743000Y-79645000D01*
X81171571Y-80502143D02*
X79671571Y-80002143D01*
X81171571Y-79502143D01*
X79671571Y-79145000D02*
X79671571Y-78216429D01*
X80243000Y-78716429D01*
X80243000Y-78502143D01*
X80314429Y-78359286D01*
X80385857Y-78287857D01*
X80528714Y-78216429D01*
X80885857Y-78216429D01*
X81028714Y-78287857D01*
X81100143Y-78359286D01*
X81171571Y-78502143D01*
X81171571Y-78930715D01*
X81100143Y-79073572D01*
X81028714Y-79145000D01*
X83293000Y-80359286D02*
X83293000Y-79645000D01*
X83721571Y-80502143D02*
X82221571Y-80002143D01*
X83721571Y-79502143D01*
X82364429Y-79073572D02*
X82293000Y-79002143D01*
X82221571Y-78859286D01*
X82221571Y-78502143D01*
X82293000Y-78359286D01*
X82364429Y-78287857D01*
X82507286Y-78216429D01*
X82650143Y-78216429D01*
X82864429Y-78287857D01*
X83721571Y-79145000D01*
X83721571Y-78216429D01*
X85843000Y-80359286D02*
X85843000Y-79645000D01*
X86271571Y-80502143D02*
X84771571Y-80002143D01*
X86271571Y-79502143D01*
X86271571Y-78216429D02*
X86271571Y-79073572D01*
X86271571Y-78645000D02*
X84771571Y-78645000D01*
X84985857Y-78787857D01*
X85128714Y-78930715D01*
X85200143Y-79073572D01*
X88393000Y-80359286D02*
X88393000Y-79645000D01*
X88821571Y-80502143D02*
X87321571Y-80002143D01*
X88821571Y-79502143D01*
X87321571Y-78716429D02*
X87321571Y-78573572D01*
X87393000Y-78430715D01*
X87464429Y-78359286D01*
X87607286Y-78287857D01*
X87893000Y-78216429D01*
X88250143Y-78216429D01*
X88535857Y-78287857D01*
X88678714Y-78359286D01*
X88750143Y-78430715D01*
X88821571Y-78573572D01*
X88821571Y-78716429D01*
X88750143Y-78859286D01*
X88678714Y-78930715D01*
X88535857Y-79002143D01*
X88250143Y-79073572D01*
X87893000Y-79073572D01*
X87607286Y-79002143D01*
X87464429Y-78930715D01*
X87393000Y-78859286D01*
X87321571Y-78716429D01*
X91371571Y-80073571D02*
X91300143Y-80216429D01*
X91157286Y-80287857D01*
X89871571Y-80287857D01*
X91300143Y-78930715D02*
X91371571Y-79073572D01*
X91371571Y-79359286D01*
X91300143Y-79502143D01*
X91157286Y-79573572D01*
X90585857Y-79573572D01*
X90443000Y-79502143D01*
X90371571Y-79359286D01*
X90371571Y-79073572D01*
X90443000Y-78930715D01*
X90585857Y-78859286D01*
X90728714Y-78859286D01*
X90871571Y-79573572D01*
X91371571Y-77573572D02*
X89871571Y-77573572D01*
X91300143Y-77573572D02*
X91371571Y-77716429D01*
X91371571Y-78002143D01*
X91300143Y-78145001D01*
X91228714Y-78216429D01*
X91085857Y-78287858D01*
X90657286Y-78287858D01*
X90514429Y-78216429D01*
X90443000Y-78145001D01*
X90371571Y-78002143D01*
X90371571Y-77716429D01*
X90443000Y-77573572D01*
X92493000Y-79502143D02*
X92421571Y-79645000D01*
X92421571Y-79859286D01*
X92493000Y-80073571D01*
X92635857Y-80216429D01*
X92778714Y-80287857D01*
X93064429Y-80359286D01*
X93278714Y-80359286D01*
X93564429Y-80287857D01*
X93707286Y-80216429D01*
X93850143Y-80073571D01*
X93921571Y-79859286D01*
X93921571Y-79716429D01*
X93850143Y-79502143D01*
X93778714Y-79430714D01*
X93278714Y-79430714D01*
X93278714Y-79716429D01*
X92921571Y-78787857D02*
X93921571Y-78787857D01*
X93064429Y-78787857D02*
X92993000Y-78716429D01*
X92921571Y-78573571D01*
X92921571Y-78359286D01*
X92993000Y-78216429D01*
X93135857Y-78145000D01*
X93921571Y-78145000D01*
X93921571Y-76787857D02*
X92421571Y-76787857D01*
X93850143Y-76787857D02*
X93921571Y-76930714D01*
X93921571Y-77216428D01*
X93850143Y-77359286D01*
X93778714Y-77430714D01*
X93635857Y-77502143D01*
X93207286Y-77502143D01*
X93064429Y-77430714D01*
X92993000Y-77359286D01*
X92921571Y-77216428D01*
X92921571Y-76930714D01*
X92993000Y-76787857D01*
X96471571Y-80287857D02*
X94971571Y-80287857D01*
X94971571Y-79930714D01*
X95043000Y-79716429D01*
X95185857Y-79573571D01*
X95328714Y-79502143D01*
X95614429Y-79430714D01*
X95828714Y-79430714D01*
X96114429Y-79502143D01*
X96257286Y-79573571D01*
X96400143Y-79716429D01*
X96471571Y-79930714D01*
X96471571Y-80287857D01*
X96328714Y-77930714D02*
X96400143Y-78002143D01*
X96471571Y-78216429D01*
X96471571Y-78359286D01*
X96400143Y-78573571D01*
X96257286Y-78716429D01*
X96114429Y-78787857D01*
X95828714Y-78859286D01*
X95614429Y-78859286D01*
X95328714Y-78787857D01*
X95185857Y-78716429D01*
X95043000Y-78573571D01*
X94971571Y-78359286D01*
X94971571Y-78216429D01*
X95043000Y-78002143D01*
X95114429Y-77930714D01*
X96471571Y-76502143D02*
X96471571Y-77359286D01*
X96471571Y-76930714D02*
X94971571Y-76930714D01*
X95185857Y-77073571D01*
X95328714Y-77216429D01*
X95400143Y-77359286D01*
X99021571Y-80287857D02*
X97521571Y-80287857D01*
X97521571Y-79930714D01*
X97593000Y-79716429D01*
X97735857Y-79573571D01*
X97878714Y-79502143D01*
X98164429Y-79430714D01*
X98378714Y-79430714D01*
X98664429Y-79502143D01*
X98807286Y-79573571D01*
X98950143Y-79716429D01*
X99021571Y-79930714D01*
X99021571Y-80287857D01*
X98878714Y-77930714D02*
X98950143Y-78002143D01*
X99021571Y-78216429D01*
X99021571Y-78359286D01*
X98950143Y-78573571D01*
X98807286Y-78716429D01*
X98664429Y-78787857D01*
X98378714Y-78859286D01*
X98164429Y-78859286D01*
X97878714Y-78787857D01*
X97735857Y-78716429D01*
X97593000Y-78573571D01*
X97521571Y-78359286D01*
X97521571Y-78216429D01*
X97593000Y-78002143D01*
X97664429Y-77930714D01*
X97521571Y-77002143D02*
X97521571Y-76859286D01*
X97593000Y-76716429D01*
X97664429Y-76645000D01*
X97807286Y-76573571D01*
X98093000Y-76502143D01*
X98450143Y-76502143D01*
X98735857Y-76573571D01*
X98878714Y-76645000D01*
X98950143Y-76716429D01*
X99021571Y-76859286D01*
X99021571Y-77002143D01*
X98950143Y-77145000D01*
X98878714Y-77216429D01*
X98735857Y-77287857D01*
X98450143Y-77359286D01*
X98093000Y-77359286D01*
X97807286Y-77287857D01*
X97664429Y-77216429D01*
X97593000Y-77145000D01*
X97521571Y-77002143D01*
X104050143Y-80359286D02*
X104121571Y-80145000D01*
X104121571Y-79787857D01*
X104050143Y-79645000D01*
X103978714Y-79573571D01*
X103835857Y-79502143D01*
X103693000Y-79502143D01*
X103550143Y-79573571D01*
X103478714Y-79645000D01*
X103407286Y-79787857D01*
X103335857Y-80073571D01*
X103264429Y-80216429D01*
X103193000Y-80287857D01*
X103050143Y-80359286D01*
X102907286Y-80359286D01*
X102764429Y-80287857D01*
X102693000Y-80216429D01*
X102621571Y-80073571D01*
X102621571Y-79716429D01*
X102693000Y-79502143D01*
X104121571Y-78859286D02*
X102621571Y-78859286D01*
X102621571Y-78502143D01*
X102693000Y-78287858D01*
X102835857Y-78145000D01*
X102978714Y-78073572D01*
X103264429Y-78002143D01*
X103478714Y-78002143D01*
X103764429Y-78073572D01*
X103907286Y-78145000D01*
X104050143Y-78287858D01*
X104121571Y-78502143D01*
X104121571Y-78859286D01*
X103693000Y-77430715D02*
X103693000Y-76716429D01*
X104121571Y-77573572D02*
X102621571Y-77073572D01*
X104121571Y-76573572D01*
X104121571Y-75287858D02*
X104121571Y-76145001D01*
X104121571Y-75716429D02*
X102621571Y-75716429D01*
X102835857Y-75859286D01*
X102978714Y-76002144D01*
X103050143Y-76145001D01*
X106600143Y-80359286D02*
X106671571Y-80145000D01*
X106671571Y-79787857D01*
X106600143Y-79645000D01*
X106528714Y-79573571D01*
X106385857Y-79502143D01*
X106243000Y-79502143D01*
X106100143Y-79573571D01*
X106028714Y-79645000D01*
X105957286Y-79787857D01*
X105885857Y-80073571D01*
X105814429Y-80216429D01*
X105743000Y-80287857D01*
X105600143Y-80359286D01*
X105457286Y-80359286D01*
X105314429Y-80287857D01*
X105243000Y-80216429D01*
X105171571Y-80073571D01*
X105171571Y-79716429D01*
X105243000Y-79502143D01*
X106528714Y-78002143D02*
X106600143Y-78073572D01*
X106671571Y-78287858D01*
X106671571Y-78430715D01*
X106600143Y-78645000D01*
X106457286Y-78787858D01*
X106314429Y-78859286D01*
X106028714Y-78930715D01*
X105814429Y-78930715D01*
X105528714Y-78859286D01*
X105385857Y-78787858D01*
X105243000Y-78645000D01*
X105171571Y-78430715D01*
X105171571Y-78287858D01*
X105243000Y-78073572D01*
X105314429Y-78002143D01*
X106671571Y-76645000D02*
X106671571Y-77359286D01*
X105171571Y-77359286D01*
X106671571Y-75359286D02*
X106671571Y-76216429D01*
X106671571Y-75787857D02*
X105171571Y-75787857D01*
X105385857Y-75930714D01*
X105528714Y-76073572D01*
X105600143Y-76216429D01*
X114321571Y-79430714D02*
X113607286Y-79930714D01*
X114321571Y-80287857D02*
X112821571Y-80287857D01*
X112821571Y-79716429D01*
X112893000Y-79573571D01*
X112964429Y-79502143D01*
X113107286Y-79430714D01*
X113321571Y-79430714D01*
X113464429Y-79502143D01*
X113535857Y-79573571D01*
X113607286Y-79716429D01*
X113607286Y-80287857D01*
X114321571Y-78930714D02*
X113321571Y-78145000D01*
X113321571Y-78930714D02*
X114321571Y-78145000D01*
X112821571Y-76859285D02*
X112821571Y-77573571D01*
X113535857Y-77645000D01*
X113464429Y-77573571D01*
X113393000Y-77430714D01*
X113393000Y-77073571D01*
X113464429Y-76930714D01*
X113535857Y-76859285D01*
X113678714Y-76787857D01*
X114035857Y-76787857D01*
X114178714Y-76859285D01*
X114250143Y-76930714D01*
X114321571Y-77073571D01*
X114321571Y-77430714D01*
X114250143Y-77573571D01*
X114178714Y-77645000D01*
X115371571Y-80502143D02*
X115371571Y-79645000D01*
X116871571Y-80073571D02*
X115371571Y-80073571D01*
X116871571Y-79287857D02*
X115871571Y-78502143D01*
X115871571Y-79287857D02*
X116871571Y-78502143D01*
X115371571Y-77216428D02*
X115371571Y-77930714D01*
X116085857Y-78002143D01*
X116014429Y-77930714D01*
X115943000Y-77787857D01*
X115943000Y-77430714D01*
X116014429Y-77287857D01*
X116085857Y-77216428D01*
X116228714Y-77145000D01*
X116585857Y-77145000D01*
X116728714Y-77216428D01*
X116800143Y-77287857D01*
X116871571Y-77430714D01*
X116871571Y-77787857D01*
X116800143Y-77930714D01*
X116728714Y-78002143D01*
X102786571Y-73755000D02*
X101286571Y-73755000D01*
X101286571Y-73183572D01*
X101358000Y-73040714D01*
X101429429Y-72969286D01*
X101572286Y-72897857D01*
X101786571Y-72897857D01*
X101929429Y-72969286D01*
X102000857Y-73040714D01*
X102072286Y-73183572D01*
X102072286Y-73755000D01*
X101358000Y-71469286D02*
X101286571Y-71612143D01*
X101286571Y-71826429D01*
X101358000Y-72040714D01*
X101500857Y-72183572D01*
X101643714Y-72255000D01*
X101929429Y-72326429D01*
X102143714Y-72326429D01*
X102429429Y-72255000D01*
X102572286Y-72183572D01*
X102715143Y-72040714D01*
X102786571Y-71826429D01*
X102786571Y-71683572D01*
X102715143Y-71469286D01*
X102643714Y-71397857D01*
X102143714Y-71397857D01*
X102143714Y-71683572D01*
X102786571Y-70755000D02*
X101286571Y-70755000D01*
X102358000Y-70255000D01*
X101286571Y-69755000D01*
X102786571Y-69755000D01*
X87546571Y-73846428D02*
X86832286Y-74346428D01*
X87546571Y-74703571D02*
X86046571Y-74703571D01*
X86046571Y-74132143D01*
X86118000Y-73989285D01*
X86189429Y-73917857D01*
X86332286Y-73846428D01*
X86546571Y-73846428D01*
X86689429Y-73917857D01*
X86760857Y-73989285D01*
X86832286Y-74132143D01*
X86832286Y-74703571D01*
X87475143Y-73275000D02*
X87546571Y-73060714D01*
X87546571Y-72703571D01*
X87475143Y-72560714D01*
X87403714Y-72489285D01*
X87260857Y-72417857D01*
X87118000Y-72417857D01*
X86975143Y-72489285D01*
X86903714Y-72560714D01*
X86832286Y-72703571D01*
X86760857Y-72989285D01*
X86689429Y-73132143D01*
X86618000Y-73203571D01*
X86475143Y-73275000D01*
X86332286Y-73275000D01*
X86189429Y-73203571D01*
X86118000Y-73132143D01*
X86046571Y-72989285D01*
X86046571Y-72632143D01*
X86118000Y-72417857D01*
X86046571Y-71989286D02*
X86046571Y-71132143D01*
X87546571Y-71560714D02*
X86046571Y-71560714D01*
X114211571Y-127222142D02*
X113497286Y-127722142D01*
X114211571Y-128079285D02*
X112711571Y-128079285D01*
X112711571Y-127507857D01*
X112783000Y-127364999D01*
X112854429Y-127293571D01*
X112997286Y-127222142D01*
X113211571Y-127222142D01*
X113354429Y-127293571D01*
X113425857Y-127364999D01*
X113497286Y-127507857D01*
X113497286Y-128079285D01*
X114211571Y-126722142D02*
X113211571Y-125936428D01*
X113211571Y-126722142D02*
X114211571Y-125936428D01*
X113211571Y-124722142D02*
X114211571Y-124722142D01*
X112640143Y-125079285D02*
X113711571Y-125436428D01*
X113711571Y-124507856D01*
X115261571Y-128115000D02*
X115261571Y-127257857D01*
X116761571Y-127686428D02*
X115261571Y-127686428D01*
X116761571Y-126900714D02*
X115761571Y-126115000D01*
X115761571Y-126900714D02*
X116761571Y-126115000D01*
X115761571Y-124900714D02*
X116761571Y-124900714D01*
X115190143Y-125257857D02*
X116261571Y-125615000D01*
X116261571Y-124686428D01*
X56838000Y-129032143D02*
X56766571Y-129175000D01*
X56766571Y-129389286D01*
X56838000Y-129603571D01*
X56980857Y-129746429D01*
X57123714Y-129817857D01*
X57409429Y-129889286D01*
X57623714Y-129889286D01*
X57909429Y-129817857D01*
X58052286Y-129746429D01*
X58195143Y-129603571D01*
X58266571Y-129389286D01*
X58266571Y-129246429D01*
X58195143Y-129032143D01*
X58123714Y-128960714D01*
X57623714Y-128960714D01*
X57623714Y-129246429D01*
X57266571Y-128317857D02*
X58266571Y-128317857D01*
X57409429Y-128317857D02*
X57338000Y-128246429D01*
X57266571Y-128103571D01*
X57266571Y-127889286D01*
X57338000Y-127746429D01*
X57480857Y-127675000D01*
X58266571Y-127675000D01*
X58266571Y-126317857D02*
X56766571Y-126317857D01*
X58195143Y-126317857D02*
X58266571Y-126460714D01*
X58266571Y-126746428D01*
X58195143Y-126889286D01*
X58123714Y-126960714D01*
X57980857Y-127032143D01*
X57552286Y-127032143D01*
X57409429Y-126960714D01*
X57338000Y-126889286D01*
X57266571Y-126746428D01*
X57266571Y-126460714D01*
X57338000Y-126317857D01*
X60816571Y-128960714D02*
X60102286Y-129460714D01*
X60816571Y-129817857D02*
X59316571Y-129817857D01*
X59316571Y-129246429D01*
X59388000Y-129103571D01*
X59459429Y-129032143D01*
X59602286Y-128960714D01*
X59816571Y-128960714D01*
X59959429Y-129032143D01*
X60030857Y-129103571D01*
X60102286Y-129246429D01*
X60102286Y-129817857D01*
X60816571Y-128460714D02*
X59816571Y-127675000D01*
X59816571Y-128460714D02*
X60816571Y-127675000D01*
X60816571Y-126317857D02*
X60816571Y-127175000D01*
X60816571Y-126746428D02*
X59316571Y-126746428D01*
X59530857Y-126889285D01*
X59673714Y-127032143D01*
X59745143Y-127175000D01*
X61866571Y-130032143D02*
X61866571Y-129175000D01*
X63366571Y-129603571D02*
X61866571Y-129603571D01*
X63366571Y-128817857D02*
X62366571Y-128032143D01*
X62366571Y-128817857D02*
X63366571Y-128032143D01*
X63366571Y-126675000D02*
X63366571Y-127532143D01*
X63366571Y-127103571D02*
X61866571Y-127103571D01*
X62080857Y-127246428D01*
X62223714Y-127389286D01*
X62295143Y-127532143D01*
X68395143Y-129889286D02*
X68466571Y-129675000D01*
X68466571Y-129317857D01*
X68395143Y-129175000D01*
X68323714Y-129103571D01*
X68180857Y-129032143D01*
X68038000Y-129032143D01*
X67895143Y-129103571D01*
X67823714Y-129175000D01*
X67752286Y-129317857D01*
X67680857Y-129603571D01*
X67609429Y-129746429D01*
X67538000Y-129817857D01*
X67395143Y-129889286D01*
X67252286Y-129889286D01*
X67109429Y-129817857D01*
X67038000Y-129746429D01*
X66966571Y-129603571D01*
X66966571Y-129246429D01*
X67038000Y-129032143D01*
X68323714Y-127532143D02*
X68395143Y-127603572D01*
X68466571Y-127817858D01*
X68466571Y-127960715D01*
X68395143Y-128175000D01*
X68252286Y-128317858D01*
X68109429Y-128389286D01*
X67823714Y-128460715D01*
X67609429Y-128460715D01*
X67323714Y-128389286D01*
X67180857Y-128317858D01*
X67038000Y-128175000D01*
X66966571Y-127960715D01*
X66966571Y-127817858D01*
X67038000Y-127603572D01*
X67109429Y-127532143D01*
X68466571Y-126175000D02*
X68466571Y-126889286D01*
X66966571Y-126889286D01*
X67109429Y-125746429D02*
X67038000Y-125675000D01*
X66966571Y-125532143D01*
X66966571Y-125175000D01*
X67038000Y-125032143D01*
X67109429Y-124960714D01*
X67252286Y-124889286D01*
X67395143Y-124889286D01*
X67609429Y-124960714D01*
X68466571Y-125817857D01*
X68466571Y-124889286D01*
X70945143Y-129889286D02*
X71016571Y-129675000D01*
X71016571Y-129317857D01*
X70945143Y-129175000D01*
X70873714Y-129103571D01*
X70730857Y-129032143D01*
X70588000Y-129032143D01*
X70445143Y-129103571D01*
X70373714Y-129175000D01*
X70302286Y-129317857D01*
X70230857Y-129603571D01*
X70159429Y-129746429D01*
X70088000Y-129817857D01*
X69945143Y-129889286D01*
X69802286Y-129889286D01*
X69659429Y-129817857D01*
X69588000Y-129746429D01*
X69516571Y-129603571D01*
X69516571Y-129246429D01*
X69588000Y-129032143D01*
X71016571Y-128389286D02*
X69516571Y-128389286D01*
X69516571Y-128032143D01*
X69588000Y-127817858D01*
X69730857Y-127675000D01*
X69873714Y-127603572D01*
X70159429Y-127532143D01*
X70373714Y-127532143D01*
X70659429Y-127603572D01*
X70802286Y-127675000D01*
X70945143Y-127817858D01*
X71016571Y-128032143D01*
X71016571Y-128389286D01*
X70588000Y-126960715D02*
X70588000Y-126246429D01*
X71016571Y-127103572D02*
X69516571Y-126603572D01*
X71016571Y-126103572D01*
X69659429Y-125675001D02*
X69588000Y-125603572D01*
X69516571Y-125460715D01*
X69516571Y-125103572D01*
X69588000Y-124960715D01*
X69659429Y-124889286D01*
X69802286Y-124817858D01*
X69945143Y-124817858D01*
X70159429Y-124889286D01*
X71016571Y-125746429D01*
X71016571Y-124817858D01*
X78666571Y-128960714D02*
X77952286Y-129460714D01*
X78666571Y-129817857D02*
X77166571Y-129817857D01*
X77166571Y-129246429D01*
X77238000Y-129103571D01*
X77309429Y-129032143D01*
X77452286Y-128960714D01*
X77666571Y-128960714D01*
X77809429Y-129032143D01*
X77880857Y-129103571D01*
X77952286Y-129246429D01*
X77952286Y-129817857D01*
X78666571Y-128460714D02*
X77666571Y-127675000D01*
X77666571Y-128460714D02*
X78666571Y-127675000D01*
X77166571Y-127246428D02*
X77166571Y-126317857D01*
X77738000Y-126817857D01*
X77738000Y-126603571D01*
X77809429Y-126460714D01*
X77880857Y-126389285D01*
X78023714Y-126317857D01*
X78380857Y-126317857D01*
X78523714Y-126389285D01*
X78595143Y-126460714D01*
X78666571Y-126603571D01*
X78666571Y-127032143D01*
X78595143Y-127175000D01*
X78523714Y-127246428D01*
X79716571Y-130032143D02*
X79716571Y-129175000D01*
X81216571Y-129603571D02*
X79716571Y-129603571D01*
X81216571Y-128817857D02*
X80216571Y-128032143D01*
X80216571Y-128817857D02*
X81216571Y-128032143D01*
X79716571Y-127603571D02*
X79716571Y-126675000D01*
X80288000Y-127175000D01*
X80288000Y-126960714D01*
X80359429Y-126817857D01*
X80430857Y-126746428D01*
X80573714Y-126675000D01*
X80930857Y-126675000D01*
X81073714Y-126746428D01*
X81145143Y-126817857D01*
X81216571Y-126960714D01*
X81216571Y-127389286D01*
X81145143Y-127532143D01*
X81073714Y-127603571D01*
X83766571Y-128960714D02*
X83052286Y-129460714D01*
X83766571Y-129817857D02*
X82266571Y-129817857D01*
X82266571Y-129246429D01*
X82338000Y-129103571D01*
X82409429Y-129032143D01*
X82552286Y-128960714D01*
X82766571Y-128960714D01*
X82909429Y-129032143D01*
X82980857Y-129103571D01*
X83052286Y-129246429D01*
X83052286Y-129817857D01*
X83766571Y-128460714D02*
X82766571Y-127675000D01*
X82766571Y-128460714D02*
X83766571Y-127675000D01*
X82409429Y-127175000D02*
X82338000Y-127103571D01*
X82266571Y-126960714D01*
X82266571Y-126603571D01*
X82338000Y-126460714D01*
X82409429Y-126389285D01*
X82552286Y-126317857D01*
X82695143Y-126317857D01*
X82909429Y-126389285D01*
X83766571Y-127246428D01*
X83766571Y-126317857D01*
X86173714Y-128960714D02*
X86245143Y-129032143D01*
X86316571Y-129246429D01*
X86316571Y-129389286D01*
X86245143Y-129603571D01*
X86102286Y-129746429D01*
X85959429Y-129817857D01*
X85673714Y-129889286D01*
X85459429Y-129889286D01*
X85173714Y-129817857D01*
X85030857Y-129746429D01*
X84888000Y-129603571D01*
X84816571Y-129389286D01*
X84816571Y-129246429D01*
X84888000Y-129032143D01*
X84959429Y-128960714D01*
X86245143Y-128389286D02*
X86316571Y-128175000D01*
X86316571Y-127817857D01*
X86245143Y-127675000D01*
X86173714Y-127603571D01*
X86030857Y-127532143D01*
X85888000Y-127532143D01*
X85745143Y-127603571D01*
X85673714Y-127675000D01*
X85602286Y-127817857D01*
X85530857Y-128103571D01*
X85459429Y-128246429D01*
X85388000Y-128317857D01*
X85245143Y-128389286D01*
X85102286Y-128389286D01*
X84959429Y-128317857D01*
X84888000Y-128246429D01*
X84816571Y-128103571D01*
X84816571Y-127746429D01*
X84888000Y-127532143D01*
X84816571Y-126603572D02*
X84816571Y-126460715D01*
X84888000Y-126317858D01*
X84959429Y-126246429D01*
X85102286Y-126175000D01*
X85388000Y-126103572D01*
X85745143Y-126103572D01*
X86030857Y-126175000D01*
X86173714Y-126246429D01*
X86245143Y-126317858D01*
X86316571Y-126460715D01*
X86316571Y-126603572D01*
X86245143Y-126746429D01*
X86173714Y-126817858D01*
X86030857Y-126889286D01*
X85745143Y-126960715D01*
X85388000Y-126960715D01*
X85102286Y-126889286D01*
X84959429Y-126817858D01*
X84888000Y-126746429D01*
X84816571Y-126603572D01*
X88866571Y-129817857D02*
X87366571Y-129817857D01*
X88438000Y-129317857D01*
X87366571Y-128817857D01*
X88866571Y-128817857D01*
X87366571Y-127817857D02*
X87366571Y-127532143D01*
X87438000Y-127389285D01*
X87580857Y-127246428D01*
X87866571Y-127175000D01*
X88366571Y-127175000D01*
X88652286Y-127246428D01*
X88795143Y-127389285D01*
X88866571Y-127532143D01*
X88866571Y-127817857D01*
X88795143Y-127960714D01*
X88652286Y-128103571D01*
X88366571Y-128175000D01*
X87866571Y-128175000D01*
X87580857Y-128103571D01*
X87438000Y-127960714D01*
X87366571Y-127817857D01*
X88795143Y-126603571D02*
X88866571Y-126389285D01*
X88866571Y-126032142D01*
X88795143Y-125889285D01*
X88723714Y-125817856D01*
X88580857Y-125746428D01*
X88438000Y-125746428D01*
X88295143Y-125817856D01*
X88223714Y-125889285D01*
X88152286Y-126032142D01*
X88080857Y-126317856D01*
X88009429Y-126460714D01*
X87938000Y-126532142D01*
X87795143Y-126603571D01*
X87652286Y-126603571D01*
X87509429Y-126532142D01*
X87438000Y-126460714D01*
X87366571Y-126317856D01*
X87366571Y-125960714D01*
X87438000Y-125746428D01*
X88866571Y-125103571D02*
X87366571Y-125103571D01*
X87366571Y-124103571D02*
X87366571Y-123960714D01*
X87438000Y-123817857D01*
X87509429Y-123746428D01*
X87652286Y-123674999D01*
X87938000Y-123603571D01*
X88295143Y-123603571D01*
X88580857Y-123674999D01*
X88723714Y-123746428D01*
X88795143Y-123817857D01*
X88866571Y-123960714D01*
X88866571Y-124103571D01*
X88795143Y-124246428D01*
X88723714Y-124317857D01*
X88580857Y-124389285D01*
X88295143Y-124460714D01*
X87938000Y-124460714D01*
X87652286Y-124389285D01*
X87509429Y-124317857D01*
X87438000Y-124246428D01*
X87366571Y-124103571D01*
X91416571Y-129817857D02*
X89916571Y-129817857D01*
X90988000Y-129317857D01*
X89916571Y-128817857D01*
X91416571Y-128817857D01*
X91416571Y-128103571D02*
X89916571Y-128103571D01*
X91345143Y-127460714D02*
X91416571Y-127246428D01*
X91416571Y-126889285D01*
X91345143Y-126746428D01*
X91273714Y-126674999D01*
X91130857Y-126603571D01*
X90988000Y-126603571D01*
X90845143Y-126674999D01*
X90773714Y-126746428D01*
X90702286Y-126889285D01*
X90630857Y-127174999D01*
X90559429Y-127317857D01*
X90488000Y-127389285D01*
X90345143Y-127460714D01*
X90202286Y-127460714D01*
X90059429Y-127389285D01*
X89988000Y-127317857D01*
X89916571Y-127174999D01*
X89916571Y-126817857D01*
X89988000Y-126603571D01*
X89916571Y-125675000D02*
X89916571Y-125389286D01*
X89988000Y-125246428D01*
X90130857Y-125103571D01*
X90416571Y-125032143D01*
X90916571Y-125032143D01*
X91202286Y-125103571D01*
X91345143Y-125246428D01*
X91416571Y-125389286D01*
X91416571Y-125675000D01*
X91345143Y-125817857D01*
X91202286Y-125960714D01*
X90916571Y-126032143D01*
X90416571Y-126032143D01*
X90130857Y-125960714D01*
X89988000Y-125817857D01*
X89916571Y-125675000D01*
X89916571Y-124103571D02*
X89916571Y-123960714D01*
X89988000Y-123817857D01*
X90059429Y-123746428D01*
X90202286Y-123674999D01*
X90488000Y-123603571D01*
X90845143Y-123603571D01*
X91130857Y-123674999D01*
X91273714Y-123746428D01*
X91345143Y-123817857D01*
X91416571Y-123960714D01*
X91416571Y-124103571D01*
X91345143Y-124246428D01*
X91273714Y-124317857D01*
X91130857Y-124389285D01*
X90845143Y-124460714D01*
X90488000Y-124460714D01*
X90202286Y-124389285D01*
X90059429Y-124317857D01*
X89988000Y-124246428D01*
X89916571Y-124103571D01*
X92466571Y-129960714D02*
X92466571Y-129032143D01*
X93038000Y-129532143D01*
X93038000Y-129317857D01*
X93109429Y-129175000D01*
X93180857Y-129103571D01*
X93323714Y-129032143D01*
X93680857Y-129032143D01*
X93823714Y-129103571D01*
X93895143Y-129175000D01*
X93966571Y-129317857D01*
X93966571Y-129746429D01*
X93895143Y-129889286D01*
X93823714Y-129960714D01*
X93823714Y-128389286D02*
X93895143Y-128317858D01*
X93966571Y-128389286D01*
X93895143Y-128460715D01*
X93823714Y-128389286D01*
X93966571Y-128389286D01*
X92466571Y-127817857D02*
X92466571Y-126889286D01*
X93038000Y-127389286D01*
X93038000Y-127175000D01*
X93109429Y-127032143D01*
X93180857Y-126960714D01*
X93323714Y-126889286D01*
X93680857Y-126889286D01*
X93823714Y-126960714D01*
X93895143Y-127032143D01*
X93966571Y-127175000D01*
X93966571Y-127603572D01*
X93895143Y-127746429D01*
X93823714Y-127817857D01*
X92466571Y-126460715D02*
X93966571Y-125960715D01*
X92466571Y-125460715D01*
X156943000Y-128706428D02*
X156943000Y-127992142D01*
X157371571Y-128849285D02*
X155871571Y-128349285D01*
X157371571Y-127849285D01*
X155871571Y-127063571D02*
X155871571Y-126920714D01*
X155943000Y-126777857D01*
X156014429Y-126706428D01*
X156157286Y-126634999D01*
X156443000Y-126563571D01*
X156800143Y-126563571D01*
X157085857Y-126634999D01*
X157228714Y-126706428D01*
X157300143Y-126777857D01*
X157371571Y-126920714D01*
X157371571Y-127063571D01*
X157300143Y-127206428D01*
X157228714Y-127277857D01*
X157085857Y-127349285D01*
X156800143Y-127420714D01*
X156443000Y-127420714D01*
X156157286Y-127349285D01*
X156014429Y-127277857D01*
X155943000Y-127206428D01*
X155871571Y-127063571D01*
X159493000Y-128706428D02*
X159493000Y-127992142D01*
X159921571Y-128849285D02*
X158421571Y-128349285D01*
X159921571Y-127849285D01*
X159921571Y-126563571D02*
X159921571Y-127420714D01*
X159921571Y-126992142D02*
X158421571Y-126992142D01*
X158635857Y-127134999D01*
X158778714Y-127277857D01*
X158850143Y-127420714D01*
X162043000Y-128706428D02*
X162043000Y-127992142D01*
X162471571Y-128849285D02*
X160971571Y-128349285D01*
X162471571Y-127849285D01*
X161114429Y-127420714D02*
X161043000Y-127349285D01*
X160971571Y-127206428D01*
X160971571Y-126849285D01*
X161043000Y-126706428D01*
X161114429Y-126634999D01*
X161257286Y-126563571D01*
X161400143Y-126563571D01*
X161614429Y-126634999D01*
X162471571Y-127492142D01*
X162471571Y-126563571D01*
X164593000Y-128706428D02*
X164593000Y-127992142D01*
X165021571Y-128849285D02*
X163521571Y-128349285D01*
X165021571Y-127849285D01*
X163521571Y-127492142D02*
X163521571Y-126563571D01*
X164093000Y-127063571D01*
X164093000Y-126849285D01*
X164164429Y-126706428D01*
X164235857Y-126634999D01*
X164378714Y-126563571D01*
X164735857Y-126563571D01*
X164878714Y-126634999D01*
X164950143Y-126706428D01*
X165021571Y-126849285D01*
X165021571Y-127277857D01*
X164950143Y-127420714D01*
X164878714Y-127492142D01*
X167143000Y-128706428D02*
X167143000Y-127992142D01*
X167571571Y-128849285D02*
X166071571Y-128349285D01*
X167571571Y-127849285D01*
X166571571Y-126706428D02*
X167571571Y-126706428D01*
X166000143Y-127063571D02*
X167071571Y-127420714D01*
X167071571Y-126492142D01*
X169693000Y-128706428D02*
X169693000Y-127992142D01*
X170121571Y-128849285D02*
X168621571Y-128349285D01*
X170121571Y-127849285D01*
X168621571Y-126634999D02*
X168621571Y-127349285D01*
X169335857Y-127420714D01*
X169264429Y-127349285D01*
X169193000Y-127206428D01*
X169193000Y-126849285D01*
X169264429Y-126706428D01*
X169335857Y-126634999D01*
X169478714Y-126563571D01*
X169835857Y-126563571D01*
X169978714Y-126634999D01*
X170050143Y-126706428D01*
X170121571Y-126849285D01*
X170121571Y-127206428D01*
X170050143Y-127349285D01*
X169978714Y-127420714D01*
X137046571Y-130083571D02*
X135546571Y-130083571D01*
X137046571Y-129226428D01*
X135546571Y-129226428D01*
X136903714Y-127654999D02*
X136975143Y-127726428D01*
X137046571Y-127940714D01*
X137046571Y-128083571D01*
X136975143Y-128297856D01*
X136832286Y-128440714D01*
X136689429Y-128512142D01*
X136403714Y-128583571D01*
X136189429Y-128583571D01*
X135903714Y-128512142D01*
X135760857Y-128440714D01*
X135618000Y-128297856D01*
X135546571Y-128083571D01*
X135546571Y-127940714D01*
X135618000Y-127726428D01*
X135689429Y-127654999D01*
X139596571Y-130083571D02*
X138096571Y-130083571D01*
X139596571Y-129226428D01*
X138096571Y-129226428D01*
X139453714Y-127654999D02*
X139525143Y-127726428D01*
X139596571Y-127940714D01*
X139596571Y-128083571D01*
X139525143Y-128297856D01*
X139382286Y-128440714D01*
X139239429Y-128512142D01*
X138953714Y-128583571D01*
X138739429Y-128583571D01*
X138453714Y-128512142D01*
X138310857Y-128440714D01*
X138168000Y-128297856D01*
X138096571Y-128083571D01*
X138096571Y-127940714D01*
X138168000Y-127726428D01*
X138239429Y-127654999D01*
X140646571Y-131119285D02*
X140646571Y-130190714D01*
X141218000Y-130690714D01*
X141218000Y-130476428D01*
X141289429Y-130333571D01*
X141360857Y-130262142D01*
X141503714Y-130190714D01*
X141860857Y-130190714D01*
X142003714Y-130262142D01*
X142075143Y-130333571D01*
X142146571Y-130476428D01*
X142146571Y-130905000D01*
X142075143Y-131047857D01*
X142003714Y-131119285D01*
X142003714Y-129547857D02*
X142075143Y-129476429D01*
X142146571Y-129547857D01*
X142075143Y-129619286D01*
X142003714Y-129547857D01*
X142146571Y-129547857D01*
X140646571Y-128976428D02*
X140646571Y-128047857D01*
X141218000Y-128547857D01*
X141218000Y-128333571D01*
X141289429Y-128190714D01*
X141360857Y-128119285D01*
X141503714Y-128047857D01*
X141860857Y-128047857D01*
X142003714Y-128119285D01*
X142075143Y-128190714D01*
X142146571Y-128333571D01*
X142146571Y-128762143D01*
X142075143Y-128905000D01*
X142003714Y-128976428D01*
X140646571Y-127619286D02*
X142146571Y-127119286D01*
X140646571Y-126619286D01*
X143196571Y-128047856D02*
X143196571Y-128762142D01*
X143910857Y-128833571D01*
X143839429Y-128762142D01*
X143768000Y-128619285D01*
X143768000Y-128262142D01*
X143839429Y-128119285D01*
X143910857Y-128047856D01*
X144053714Y-127976428D01*
X144410857Y-127976428D01*
X144553714Y-128047856D01*
X144625143Y-128119285D01*
X144696571Y-128262142D01*
X144696571Y-128619285D01*
X144625143Y-128762142D01*
X144553714Y-128833571D01*
X143196571Y-127547857D02*
X144696571Y-127047857D01*
X143196571Y-126547857D01*
X145818000Y-129869286D02*
X145746571Y-130012143D01*
X145746571Y-130226429D01*
X145818000Y-130440714D01*
X145960857Y-130583572D01*
X146103714Y-130655000D01*
X146389429Y-130726429D01*
X146603714Y-130726429D01*
X146889429Y-130655000D01*
X147032286Y-130583572D01*
X147175143Y-130440714D01*
X147246571Y-130226429D01*
X147246571Y-130083572D01*
X147175143Y-129869286D01*
X147103714Y-129797857D01*
X146603714Y-129797857D01*
X146603714Y-130083572D01*
X146246571Y-129155000D02*
X147246571Y-129155000D01*
X146389429Y-129155000D02*
X146318000Y-129083572D01*
X146246571Y-128940714D01*
X146246571Y-128726429D01*
X146318000Y-128583572D01*
X146460857Y-128512143D01*
X147246571Y-128512143D01*
X147246571Y-127155000D02*
X145746571Y-127155000D01*
X147175143Y-127155000D02*
X147246571Y-127297857D01*
X147246571Y-127583571D01*
X147175143Y-127726429D01*
X147103714Y-127797857D01*
X146960857Y-127869286D01*
X146532286Y-127869286D01*
X146389429Y-127797857D01*
X146318000Y-127726429D01*
X146246571Y-127583571D01*
X146246571Y-127297857D01*
X146318000Y-127155000D01*
X148368000Y-129869286D02*
X148296571Y-130012143D01*
X148296571Y-130226429D01*
X148368000Y-130440714D01*
X148510857Y-130583572D01*
X148653714Y-130655000D01*
X148939429Y-130726429D01*
X149153714Y-130726429D01*
X149439429Y-130655000D01*
X149582286Y-130583572D01*
X149725143Y-130440714D01*
X149796571Y-130226429D01*
X149796571Y-130083572D01*
X149725143Y-129869286D01*
X149653714Y-129797857D01*
X149153714Y-129797857D01*
X149153714Y-130083572D01*
X148796571Y-129155000D02*
X149796571Y-129155000D01*
X148939429Y-129155000D02*
X148868000Y-129083572D01*
X148796571Y-128940714D01*
X148796571Y-128726429D01*
X148868000Y-128583572D01*
X149010857Y-128512143D01*
X149796571Y-128512143D01*
X149796571Y-127155000D02*
X148296571Y-127155000D01*
X149725143Y-127155000D02*
X149796571Y-127297857D01*
X149796571Y-127583571D01*
X149725143Y-127726429D01*
X149653714Y-127797857D01*
X149510857Y-127869286D01*
X149082286Y-127869286D01*
X148939429Y-127797857D01*
X148868000Y-127726429D01*
X148796571Y-127583571D01*
X148796571Y-127297857D01*
X148868000Y-127155000D01*
X150846571Y-129869286D02*
X152346571Y-129369286D01*
X150846571Y-128869286D01*
X152346571Y-128369286D02*
X151346571Y-128369286D01*
X150846571Y-128369286D02*
X150918000Y-128440715D01*
X150989429Y-128369286D01*
X150918000Y-128297858D01*
X150846571Y-128369286D01*
X150989429Y-128369286D01*
X151346571Y-127655000D02*
X152346571Y-127655000D01*
X151489429Y-127655000D02*
X151418000Y-127583572D01*
X151346571Y-127440714D01*
X151346571Y-127226429D01*
X151418000Y-127083572D01*
X151560857Y-127012143D01*
X152346571Y-127012143D01*
X150781571Y-71683571D02*
X150781571Y-70683571D01*
X152281571Y-71326428D01*
X154260143Y-73040714D02*
X154260143Y-71897857D01*
X153331571Y-70540714D02*
X153331571Y-70826428D01*
X153403000Y-70969285D01*
X153474429Y-71040714D01*
X153688714Y-71183571D01*
X153974429Y-71255000D01*
X154545857Y-71255000D01*
X154688714Y-71183571D01*
X154760143Y-71112143D01*
X154831571Y-70969285D01*
X154831571Y-70683571D01*
X154760143Y-70540714D01*
X154688714Y-70469285D01*
X154545857Y-70397857D01*
X154188714Y-70397857D01*
X154045857Y-70469285D01*
X153974429Y-70540714D01*
X153903000Y-70683571D01*
X153903000Y-70969285D01*
X153974429Y-71112143D01*
X154045857Y-71183571D01*
X154188714Y-71255000D01*
X156810143Y-73040714D02*
X156810143Y-71897857D01*
X155881571Y-70469285D02*
X155881571Y-71183571D01*
X156595857Y-71255000D01*
X156524429Y-71183571D01*
X156453000Y-71040714D01*
X156453000Y-70683571D01*
X156524429Y-70540714D01*
X156595857Y-70469285D01*
X156738714Y-70397857D01*
X157095857Y-70397857D01*
X157238714Y-70469285D01*
X157310143Y-70540714D01*
X157381571Y-70683571D01*
X157381571Y-71040714D01*
X157310143Y-71183571D01*
X157238714Y-71255000D01*
X158931571Y-70897857D02*
X159931571Y-70897857D01*
X158360143Y-71255000D02*
X159431571Y-71612143D01*
X159431571Y-70683571D01*
X161910143Y-73040714D02*
X161910143Y-71897857D01*
X160981571Y-71326428D02*
X160981571Y-70397857D01*
X161553000Y-70897857D01*
X161553000Y-70683571D01*
X161624429Y-70540714D01*
X161695857Y-70469285D01*
X161838714Y-70397857D01*
X162195857Y-70397857D01*
X162338714Y-70469285D01*
X162410143Y-70540714D01*
X162481571Y-70683571D01*
X162481571Y-71112143D01*
X162410143Y-71255000D01*
X162338714Y-71326428D01*
X163674429Y-71612143D02*
X163603000Y-71540714D01*
X163531571Y-71397857D01*
X163531571Y-71040714D01*
X163603000Y-70897857D01*
X163674429Y-70826428D01*
X163817286Y-70755000D01*
X163960143Y-70755000D01*
X164174429Y-70826428D01*
X165031571Y-71683571D01*
X165031571Y-70755000D01*
X167581571Y-70755000D02*
X167581571Y-71612143D01*
X167581571Y-71183571D02*
X166081571Y-71183571D01*
X166295857Y-71326428D01*
X166438714Y-71469286D01*
X166510143Y-71612143D01*
X168631571Y-71255000D02*
X168631571Y-71112143D01*
X168703000Y-70969286D01*
X168774429Y-70897857D01*
X168917286Y-70826428D01*
X169203000Y-70755000D01*
X169560143Y-70755000D01*
X169845857Y-70826428D01*
X169988714Y-70897857D01*
X170060143Y-70969286D01*
X170131571Y-71112143D01*
X170131571Y-71255000D01*
X170060143Y-71397857D01*
X169988714Y-71469286D01*
X169845857Y-71540714D01*
X169560143Y-71612143D01*
X169203000Y-71612143D01*
X168917286Y-71540714D01*
X168774429Y-71469286D01*
X168703000Y-71397857D01*
X168631571Y-71255000D01*
X125525143Y-73072143D02*
X125596571Y-72857857D01*
X125596571Y-72500714D01*
X125525143Y-72357857D01*
X125453714Y-72286428D01*
X125310857Y-72215000D01*
X125168000Y-72215000D01*
X125025143Y-72286428D01*
X124953714Y-72357857D01*
X124882286Y-72500714D01*
X124810857Y-72786428D01*
X124739429Y-72929286D01*
X124668000Y-73000714D01*
X124525143Y-73072143D01*
X124382286Y-73072143D01*
X124239429Y-73000714D01*
X124168000Y-72929286D01*
X124096571Y-72786428D01*
X124096571Y-72429286D01*
X124168000Y-72215000D01*
X125453714Y-70715000D02*
X125525143Y-70786429D01*
X125596571Y-71000715D01*
X125596571Y-71143572D01*
X125525143Y-71357857D01*
X125382286Y-71500715D01*
X125239429Y-71572143D01*
X124953714Y-71643572D01*
X124739429Y-71643572D01*
X124453714Y-71572143D01*
X124310857Y-71500715D01*
X124168000Y-71357857D01*
X124096571Y-71143572D01*
X124096571Y-71000715D01*
X124168000Y-70786429D01*
X124239429Y-70715000D01*
X125596571Y-69357857D02*
X125596571Y-70072143D01*
X124096571Y-70072143D01*
X128075143Y-73143571D02*
X128146571Y-72929285D01*
X128146571Y-72572142D01*
X128075143Y-72429285D01*
X128003714Y-72357856D01*
X127860857Y-72286428D01*
X127718000Y-72286428D01*
X127575143Y-72357856D01*
X127503714Y-72429285D01*
X127432286Y-72572142D01*
X127360857Y-72857856D01*
X127289429Y-73000714D01*
X127218000Y-73072142D01*
X127075143Y-73143571D01*
X126932286Y-73143571D01*
X126789429Y-73072142D01*
X126718000Y-73000714D01*
X126646571Y-72857856D01*
X126646571Y-72500714D01*
X126718000Y-72286428D01*
X128146571Y-71643571D02*
X126646571Y-71643571D01*
X126646571Y-71286428D01*
X126718000Y-71072143D01*
X126860857Y-70929285D01*
X127003714Y-70857857D01*
X127289429Y-70786428D01*
X127503714Y-70786428D01*
X127789429Y-70857857D01*
X127932286Y-70929285D01*
X128075143Y-71072143D01*
X128146571Y-71286428D01*
X128146571Y-71643571D01*
X127718000Y-70215000D02*
X127718000Y-69500714D01*
X128146571Y-70357857D02*
X126646571Y-69857857D01*
X128146571Y-69357857D01*
X130268000Y-73286428D02*
X130268000Y-72572142D01*
X130696571Y-73429285D02*
X129196571Y-72929285D01*
X130696571Y-72429285D01*
X130696571Y-71929285D02*
X129696571Y-71929285D01*
X129982286Y-71929285D02*
X129839429Y-71857857D01*
X129768000Y-71786428D01*
X129696571Y-71643571D01*
X129696571Y-71500714D01*
X130625143Y-70429286D02*
X130696571Y-70572143D01*
X130696571Y-70857857D01*
X130625143Y-71000714D01*
X130482286Y-71072143D01*
X129910857Y-71072143D01*
X129768000Y-71000714D01*
X129696571Y-70857857D01*
X129696571Y-70572143D01*
X129768000Y-70429286D01*
X129910857Y-70357857D01*
X130053714Y-70357857D01*
X130196571Y-71072143D01*
X129696571Y-69929286D02*
X129696571Y-69357857D01*
X130696571Y-69715000D02*
X129410857Y-69715000D01*
X129268000Y-69643572D01*
X129196571Y-69500714D01*
X129196571Y-69357857D01*
X131818000Y-72286429D02*
X131746571Y-72429286D01*
X131746571Y-72643572D01*
X131818000Y-72857857D01*
X131960857Y-73000715D01*
X132103714Y-73072143D01*
X132389429Y-73143572D01*
X132603714Y-73143572D01*
X132889429Y-73072143D01*
X133032286Y-73000715D01*
X133175143Y-72857857D01*
X133246571Y-72643572D01*
X133246571Y-72500715D01*
X133175143Y-72286429D01*
X133103714Y-72215000D01*
X132603714Y-72215000D01*
X132603714Y-72500715D01*
X132246571Y-71572143D02*
X133246571Y-71572143D01*
X132389429Y-71572143D02*
X132318000Y-71500715D01*
X132246571Y-71357857D01*
X132246571Y-71143572D01*
X132318000Y-71000715D01*
X132460857Y-70929286D01*
X133246571Y-70929286D01*
X133246571Y-69572143D02*
X131746571Y-69572143D01*
X133175143Y-69572143D02*
X133246571Y-69715000D01*
X133246571Y-70000714D01*
X133175143Y-70143572D01*
X133103714Y-70215000D01*
X132960857Y-70286429D01*
X132532286Y-70286429D01*
X132389429Y-70215000D01*
X132318000Y-70143572D01*
X132246571Y-70000714D01*
X132246571Y-69715000D01*
X132318000Y-69572143D01*
X135796571Y-70929285D02*
X135796571Y-71786428D01*
X135796571Y-71357856D02*
X134296571Y-71357856D01*
X134510857Y-71500713D01*
X134653714Y-71643571D01*
X134725143Y-71786428D01*
X134296571Y-70429285D02*
X134296571Y-69500714D01*
X134868000Y-70000714D01*
X134868000Y-69786428D01*
X134939429Y-69643571D01*
X135010857Y-69572142D01*
X135153714Y-69500714D01*
X135510857Y-69500714D01*
X135653714Y-69572142D01*
X135725143Y-69643571D01*
X135796571Y-69786428D01*
X135796571Y-70215000D01*
X135725143Y-70357857D01*
X135653714Y-70429285D01*
X138346571Y-70929285D02*
X138346571Y-71786428D01*
X138346571Y-71357856D02*
X136846571Y-71357856D01*
X137060857Y-71500713D01*
X137203714Y-71643571D01*
X137275143Y-71786428D01*
X136989429Y-70357857D02*
X136918000Y-70286428D01*
X136846571Y-70143571D01*
X136846571Y-69786428D01*
X136918000Y-69643571D01*
X136989429Y-69572142D01*
X137132286Y-69500714D01*
X137275143Y-69500714D01*
X137489429Y-69572142D01*
X138346571Y-70429285D01*
X138346571Y-69500714D01*
X140325143Y-73572142D02*
X140325143Y-72429285D01*
X140896571Y-70929285D02*
X140896571Y-71786428D01*
X140896571Y-71357856D02*
X139396571Y-71357856D01*
X139610857Y-71500713D01*
X139753714Y-71643571D01*
X139825143Y-71786428D01*
X140896571Y-69500714D02*
X140896571Y-70357857D01*
X140896571Y-69929285D02*
X139396571Y-69929285D01*
X139610857Y-70072142D01*
X139753714Y-70215000D01*
X139825143Y-70357857D01*
X142875143Y-73572142D02*
X142875143Y-72429285D01*
X143446571Y-70929285D02*
X143446571Y-71786428D01*
X143446571Y-71357856D02*
X141946571Y-71357856D01*
X142160857Y-71500713D01*
X142303714Y-71643571D01*
X142375143Y-71786428D01*
X141946571Y-70000714D02*
X141946571Y-69857857D01*
X142018000Y-69715000D01*
X142089429Y-69643571D01*
X142232286Y-69572142D01*
X142518000Y-69500714D01*
X142875143Y-69500714D01*
X143160857Y-69572142D01*
X143303714Y-69643571D01*
X143375143Y-69715000D01*
X143446571Y-69857857D01*
X143446571Y-70000714D01*
X143375143Y-70143571D01*
X143303714Y-70215000D01*
X143160857Y-70286428D01*
X142875143Y-70357857D01*
X142518000Y-70357857D01*
X142232286Y-70286428D01*
X142089429Y-70215000D01*
X142018000Y-70143571D01*
X141946571Y-70000714D01*
X145425143Y-73286428D02*
X145425143Y-72143571D01*
X145996571Y-70215000D02*
X145996571Y-69929285D01*
X145925143Y-69786428D01*
X145853714Y-69715000D01*
X145639429Y-69572142D01*
X145353714Y-69500714D01*
X144782286Y-69500714D01*
X144639429Y-69572142D01*
X144568000Y-69643571D01*
X144496571Y-69786428D01*
X144496571Y-70072142D01*
X144568000Y-70215000D01*
X144639429Y-70286428D01*
X144782286Y-70357857D01*
X145139429Y-70357857D01*
X145282286Y-70286428D01*
X145353714Y-70215000D01*
X145425143Y-70072142D01*
X145425143Y-69786428D01*
X145353714Y-69643571D01*
X145282286Y-69572142D01*
X145139429Y-69500714D01*
X147689429Y-70072142D02*
X147618000Y-70215000D01*
X147546571Y-70286428D01*
X147403714Y-70357857D01*
X147332286Y-70357857D01*
X147189429Y-70286428D01*
X147118000Y-70215000D01*
X147046571Y-70072142D01*
X147046571Y-69786428D01*
X147118000Y-69643571D01*
X147189429Y-69572142D01*
X147332286Y-69500714D01*
X147403714Y-69500714D01*
X147546571Y-69572142D01*
X147618000Y-69643571D01*
X147689429Y-69786428D01*
X147689429Y-70072142D01*
X147760857Y-70215000D01*
X147832286Y-70286428D01*
X147975143Y-70357857D01*
X148260857Y-70357857D01*
X148403714Y-70286428D01*
X148475143Y-70215000D01*
X148546571Y-70072142D01*
X148546571Y-69786428D01*
X148475143Y-69643571D01*
X148403714Y-69572142D01*
X148260857Y-69500714D01*
X147975143Y-69500714D01*
X147832286Y-69572142D01*
X147760857Y-69643571D01*
X147689429Y-69786428D01*
D12*
X134310381Y-120999285D02*
X134310381Y-121570714D01*
X134310381Y-121285000D02*
X133310381Y-121285000D01*
X133453238Y-121380238D01*
X133548476Y-121475476D01*
X133596095Y-121570714D01*
X58928000Y-114935000D02*
X117348000Y-114935000D01*
X58928000Y-117475000D02*
X117348000Y-117475000D01*
X117348000Y-117475000D02*
X117348000Y-114935000D01*
X56108000Y-114655000D02*
X57658000Y-114655000D01*
X58928000Y-114935000D02*
X58928000Y-117475000D01*
X57658000Y-117755000D02*
X56108000Y-117755000D01*
X56108000Y-117755000D02*
X56108000Y-114655000D01*
X135128000Y-125095000D02*
X152908000Y-125095000D01*
X152908000Y-125095000D02*
X152908000Y-122555000D01*
X152908000Y-122555000D02*
X135128000Y-122555000D01*
X132308000Y-125375000D02*
X133858000Y-125375000D01*
X135128000Y-125095000D02*
X135128000Y-122555000D01*
X133858000Y-122275000D02*
X132308000Y-122275000D01*
X132308000Y-122275000D02*
X132308000Y-125375000D01*
X157988000Y-125095000D02*
X170688000Y-125095000D01*
X170688000Y-125095000D02*
X170688000Y-122555000D01*
X170688000Y-122555000D02*
X157988000Y-122555000D01*
X155168000Y-125375000D02*
X156718000Y-125375000D01*
X157988000Y-125095000D02*
X157988000Y-122555000D01*
X156718000Y-122275000D02*
X155168000Y-122275000D01*
X155168000Y-122275000D02*
X155168000Y-125375000D01*
X125984000Y-76835000D02*
X148844000Y-76835000D01*
X148844000Y-76835000D02*
X148844000Y-74295000D01*
X148844000Y-74295000D02*
X125984000Y-74295000D01*
X123164000Y-77115000D02*
X124714000Y-77115000D01*
X125984000Y-76835000D02*
X125984000Y-74295000D01*
X124714000Y-74015000D02*
X123164000Y-74015000D01*
X123164000Y-74015000D02*
X123164000Y-77115000D01*
X152908000Y-76835000D02*
X170688000Y-76835000D01*
X170688000Y-76835000D02*
X170688000Y-74295000D01*
X170688000Y-74295000D02*
X152908000Y-74295000D01*
X150088000Y-77115000D02*
X151638000Y-77115000D01*
X152908000Y-76835000D02*
X152908000Y-74295000D01*
X151638000Y-74015000D02*
X150088000Y-74015000D01*
X150088000Y-74015000D02*
X150088000Y-77115000D01*
X76454000Y-131445000D02*
G75*
G03X76454000Y-131445000I-2286000J0D01*
G01*
X178054000Y-121285000D02*
G75*
G03X178054000Y-121285000I-2286000J0D01*
G01*
X67564000Y-71755000D02*
G75*
G03X67564000Y-71755000I-2286000J0D01*
G01*
X178054000Y-80645000D02*
G75*
G03X178054000Y-80645000I-2286000J0D01*
G01*
D13*
X49428400Y-116055140D02*
X49428400Y-129054860D01*
X43027600Y-116055140D02*
X43027600Y-129054860D01*
X49428400Y-129054860D02*
X43027600Y-129054860D01*
X49428400Y-116055140D02*
X43027600Y-116055140D01*
D14*
X43027600Y-133954520D02*
X43027600Y-111155480D01*
X43027600Y-111155480D02*
X49428400Y-111155480D01*
X49428400Y-111155480D02*
X49428400Y-133954520D01*
X49428400Y-133954520D02*
X43027600Y-133954520D01*
D12*
X97028000Y-120015000D02*
X117348000Y-120015000D01*
X117348000Y-120015000D02*
X117348000Y-122555000D01*
X117348000Y-122555000D02*
X97028000Y-122555000D01*
X94208000Y-119735000D02*
X95758000Y-119735000D01*
X97028000Y-120015000D02*
X97028000Y-122555000D01*
X95758000Y-122835000D02*
X94208000Y-122835000D01*
X94208000Y-122835000D02*
X94208000Y-119735000D01*
X97028000Y-117475000D02*
X117348000Y-117475000D01*
X117348000Y-117475000D02*
X117348000Y-120015000D01*
X117348000Y-120015000D02*
X97028000Y-120015000D01*
X94208000Y-117195000D02*
X95758000Y-117195000D01*
X97028000Y-117475000D02*
X97028000Y-120015000D01*
X95758000Y-120295000D02*
X94208000Y-120295000D01*
X94208000Y-120295000D02*
X94208000Y-117195000D01*
X61468000Y-122555000D02*
X91948000Y-122555000D01*
X91948000Y-122555000D02*
X91948000Y-120015000D01*
X91948000Y-120015000D02*
X61468000Y-120015000D01*
X58648000Y-119735000D02*
X60198000Y-119735000D01*
X61468000Y-120015000D02*
X61468000Y-122555000D01*
X60198000Y-122835000D02*
X58648000Y-122835000D01*
X58648000Y-122835000D02*
X58648000Y-119735000D01*
X97028000Y-83185000D02*
X117348000Y-83185000D01*
X117348000Y-83185000D02*
X117348000Y-85725000D01*
X117348000Y-85725000D02*
X97028000Y-85725000D01*
X94208000Y-82905000D02*
X95758000Y-82905000D01*
X97028000Y-83185000D02*
X97028000Y-85725000D01*
X95758000Y-86005000D02*
X94208000Y-86005000D01*
X94208000Y-86005000D02*
X94208000Y-82905000D01*
X61468000Y-120015000D02*
X91948000Y-120015000D01*
X91948000Y-120015000D02*
X91948000Y-117475000D01*
X91948000Y-117475000D02*
X61468000Y-117475000D01*
X58648000Y-117195000D02*
X60198000Y-117195000D01*
X61468000Y-117475000D02*
X61468000Y-120015000D01*
X60198000Y-120295000D02*
X58648000Y-120295000D01*
X58648000Y-120295000D02*
X58648000Y-117195000D01*
X97028000Y-80645000D02*
X117348000Y-80645000D01*
X117348000Y-80645000D02*
X117348000Y-83185000D01*
X117348000Y-83185000D02*
X97028000Y-83185000D01*
X94208000Y-80365000D02*
X95758000Y-80365000D01*
X97028000Y-80645000D02*
X97028000Y-83185000D01*
X95758000Y-83465000D02*
X94208000Y-83465000D01*
X94208000Y-83465000D02*
X94208000Y-80365000D01*
X58928000Y-109855000D02*
X117348000Y-109855000D01*
X58928000Y-107315000D02*
X117348000Y-107315000D01*
X117348000Y-107315000D02*
X117348000Y-109855000D01*
X56108000Y-110135000D02*
X57658000Y-110135000D01*
X58928000Y-109855000D02*
X58928000Y-107315000D01*
X57658000Y-107035000D02*
X56108000Y-107035000D01*
X56108000Y-107035000D02*
X56108000Y-110135000D01*
X102108000Y-97155000D02*
X102108000Y-107315000D01*
X102108000Y-107315000D02*
X104648000Y-107315000D01*
X104648000Y-107315000D02*
X104648000Y-97155000D01*
X101828000Y-94335000D02*
X101828000Y-95885000D01*
X102108000Y-97155000D02*
X104648000Y-97155000D01*
X104928000Y-95885000D02*
X104928000Y-94335000D01*
X104928000Y-94335000D02*
X101828000Y-94335000D01*
X65278000Y-94335000D02*
X63728000Y-94335000D01*
X63728000Y-94335000D02*
X63728000Y-97435000D01*
X63728000Y-97435000D02*
X65278000Y-97435000D01*
X66548000Y-94615000D02*
X71628000Y-94615000D01*
X71628000Y-94615000D02*
X71628000Y-97155000D01*
X71628000Y-97155000D02*
X66548000Y-97155000D01*
X66548000Y-97155000D02*
X66548000Y-94615000D01*
X46228000Y-79375000D02*
X46228000Y-84455000D01*
X46228000Y-84455000D02*
X48768000Y-84455000D01*
X48768000Y-84455000D02*
X48768000Y-79375000D01*
X49048000Y-76555000D02*
X49048000Y-78105000D01*
X48768000Y-79375000D02*
X46228000Y-79375000D01*
X45948000Y-78105000D02*
X45948000Y-76555000D01*
X45948000Y-76555000D02*
X49048000Y-76555000D01*
X61468000Y-97155000D02*
X61468000Y-94615000D01*
X58648000Y-94335000D02*
X60198000Y-94335000D01*
X58648000Y-94335000D02*
X58648000Y-97435000D01*
X58648000Y-97435000D02*
X60198000Y-97435000D01*
X58928000Y-94615000D02*
X117348000Y-94615000D01*
X58928000Y-92075000D02*
X117348000Y-92075000D01*
X117348000Y-92075000D02*
X117348000Y-94615000D01*
X56108000Y-94895000D02*
X57658000Y-94895000D01*
X58928000Y-94615000D02*
X58928000Y-92075000D01*
X57658000Y-91795000D02*
X56108000Y-91795000D01*
X56108000Y-91795000D02*
X56108000Y-94895000D01*
X53848000Y-70485000D02*
X56388000Y-70485000D01*
X51028000Y-70205000D02*
X52578000Y-70205000D01*
X53848000Y-70485000D02*
X53848000Y-73025000D01*
X52578000Y-73305000D02*
X51028000Y-73305000D01*
X51028000Y-73305000D02*
X51028000Y-70205000D01*
X53848000Y-73025000D02*
X56388000Y-73025000D01*
X56388000Y-73025000D02*
X56388000Y-70485000D01*
X58928000Y-85725000D02*
X117348000Y-85725000D01*
X58928000Y-88265000D02*
X117348000Y-88265000D01*
X117348000Y-88265000D02*
X117348000Y-85725000D01*
X56108000Y-85445000D02*
X57658000Y-85445000D01*
X58928000Y-85725000D02*
X58928000Y-88265000D01*
X57658000Y-88545000D02*
X56108000Y-88545000D01*
X56108000Y-88545000D02*
X56108000Y-85445000D01*
X61468000Y-85725000D02*
X91948000Y-85725000D01*
X91948000Y-85725000D02*
X91948000Y-83185000D01*
X91948000Y-83185000D02*
X61468000Y-83185000D01*
X58648000Y-82905000D02*
X60198000Y-82905000D01*
X61468000Y-83185000D02*
X61468000Y-85725000D01*
X60198000Y-86005000D02*
X58648000Y-86005000D01*
X58648000Y-86005000D02*
X58648000Y-82905000D01*
X61468000Y-83185000D02*
X91948000Y-83185000D01*
X91948000Y-83185000D02*
X91948000Y-80645000D01*
X91948000Y-80645000D02*
X61468000Y-80645000D01*
X58648000Y-80365000D02*
X60198000Y-80365000D01*
X61468000Y-80645000D02*
X61468000Y-83185000D01*
X60198000Y-83465000D02*
X58648000Y-83465000D01*
X58648000Y-83465000D02*
X58648000Y-80365000D01*
X110998000Y-73025000D02*
G75*
G03X110998000Y-73025000I-2540000J0D01*
G01*
X104648000Y-69215000D02*
X112268000Y-69215000D01*
X112268000Y-69215000D02*
X112268000Y-76835000D01*
X112268000Y-76835000D02*
X104648000Y-76835000D01*
X104648000Y-69215000D02*
X104648000Y-76835000D01*
X97028000Y-73025000D02*
G75*
G03X97028000Y-73025000I-2540000J0D01*
G01*
X90678000Y-69215000D02*
X98298000Y-69215000D01*
X98298000Y-69215000D02*
X98298000Y-76835000D01*
X98298000Y-76835000D02*
X90678000Y-76835000D01*
X90678000Y-69215000D02*
X90678000Y-76835000D01*
X53010381Y-117419286D02*
X52010381Y-117419286D01*
X52010381Y-117038333D01*
X52058000Y-116943095D01*
X52105619Y-116895476D01*
X52200857Y-116847857D01*
X52343714Y-116847857D01*
X52438952Y-116895476D01*
X52486571Y-116943095D01*
X52534190Y-117038333D01*
X52534190Y-117419286D01*
X53010381Y-115895476D02*
X53010381Y-116466905D01*
X53010381Y-116181191D02*
X52010381Y-116181191D01*
X52153238Y-116276429D01*
X52248476Y-116371667D01*
X52296095Y-116466905D01*
X53010381Y-114943095D02*
X53010381Y-115514524D01*
X53010381Y-115228810D02*
X52010381Y-115228810D01*
X52153238Y-115324048D01*
X52248476Y-115419286D01*
X52296095Y-115514524D01*
X142009905Y-121737381D02*
X142009905Y-120737381D01*
X142390858Y-120737381D01*
X142486096Y-120785000D01*
X142533715Y-120832619D01*
X142581334Y-120927857D01*
X142581334Y-121070714D01*
X142533715Y-121165952D01*
X142486096Y-121213571D01*
X142390858Y-121261190D01*
X142009905Y-121261190D01*
X143533715Y-121737381D02*
X142962286Y-121737381D01*
X143248000Y-121737381D02*
X143248000Y-120737381D01*
X143152762Y-120880238D01*
X143057524Y-120975476D01*
X142962286Y-121023095D01*
X162583905Y-121737381D02*
X162583905Y-120737381D01*
X162964858Y-120737381D01*
X163060096Y-120785000D01*
X163107715Y-120832619D01*
X163155334Y-120927857D01*
X163155334Y-121070714D01*
X163107715Y-121165952D01*
X163060096Y-121213571D01*
X162964858Y-121261190D01*
X162583905Y-121261190D01*
X163536286Y-120832619D02*
X163583905Y-120785000D01*
X163679143Y-120737381D01*
X163917239Y-120737381D01*
X164012477Y-120785000D01*
X164060096Y-120832619D01*
X164107715Y-120927857D01*
X164107715Y-121023095D01*
X164060096Y-121165952D01*
X163488667Y-121737381D01*
X164107715Y-121737381D01*
X135405905Y-78811381D02*
X135405905Y-77811381D01*
X135786858Y-77811381D01*
X135882096Y-77859000D01*
X135929715Y-77906619D01*
X135977334Y-78001857D01*
X135977334Y-78144714D01*
X135929715Y-78239952D01*
X135882096Y-78287571D01*
X135786858Y-78335190D01*
X135405905Y-78335190D01*
X136310667Y-77811381D02*
X136929715Y-77811381D01*
X136596381Y-78192333D01*
X136739239Y-78192333D01*
X136834477Y-78239952D01*
X136882096Y-78287571D01*
X136929715Y-78382810D01*
X136929715Y-78620905D01*
X136882096Y-78716143D01*
X136834477Y-78763762D01*
X136739239Y-78811381D01*
X136453524Y-78811381D01*
X136358286Y-78763762D01*
X136310667Y-78716143D01*
X159789905Y-78811381D02*
X159789905Y-77811381D01*
X160170858Y-77811381D01*
X160266096Y-77859000D01*
X160313715Y-77906619D01*
X160361334Y-78001857D01*
X160361334Y-78144714D01*
X160313715Y-78239952D01*
X160266096Y-78287571D01*
X160170858Y-78335190D01*
X159789905Y-78335190D01*
X161218477Y-78144714D02*
X161218477Y-78811381D01*
X160980381Y-77763762D02*
X160742286Y-78478048D01*
X161361334Y-78478048D01*
D15*
X47207351Y-122790494D02*
X47221624Y-122747677D01*
X47235896Y-122733405D01*
X47264441Y-122719133D01*
X47307258Y-122719133D01*
X47335803Y-122733405D01*
X47350075Y-122747677D01*
X47364348Y-122776222D01*
X47364348Y-122890401D01*
X47064628Y-122890401D01*
X47064628Y-122790494D01*
X47078900Y-122761950D01*
X47093172Y-122747677D01*
X47121717Y-122733405D01*
X47150262Y-122733405D01*
X47178807Y-122747677D01*
X47193079Y-122761950D01*
X47207351Y-122790494D01*
X47207351Y-122890401D01*
X47064628Y-122633498D02*
X47064628Y-122462230D01*
X47364348Y-122547864D02*
X47064628Y-122547864D01*
X47364348Y-122205327D02*
X47364348Y-122376595D01*
X47364348Y-122290961D02*
X47064628Y-122290961D01*
X47107445Y-122319506D01*
X47135990Y-122348051D01*
X47150262Y-122376595D01*
D16*
D15*
X46206591Y-123175848D02*
X46220864Y-123133031D01*
X46235136Y-123118759D01*
X46263681Y-123104487D01*
X46306498Y-123104487D01*
X46335043Y-123118759D01*
X46349315Y-123133031D01*
X46363588Y-123161576D01*
X46363588Y-123275755D01*
X46063868Y-123275755D01*
X46063868Y-123175848D01*
X46078140Y-123147304D01*
X46092412Y-123133031D01*
X46120957Y-123118759D01*
X46149502Y-123118759D01*
X46178047Y-123133031D01*
X46192319Y-123147304D01*
X46206591Y-123175848D01*
X46206591Y-123275755D01*
X46363588Y-122847584D02*
X46206591Y-122847584D01*
X46178047Y-122861856D01*
X46163774Y-122890401D01*
X46163774Y-122947490D01*
X46178047Y-122976035D01*
X46349315Y-122847584D02*
X46363588Y-122876128D01*
X46363588Y-122947490D01*
X46349315Y-122976035D01*
X46320770Y-122990307D01*
X46292226Y-122990307D01*
X46263681Y-122976035D01*
X46249409Y-122947490D01*
X46249409Y-122876128D01*
X46235136Y-122847584D01*
X46163774Y-122747677D02*
X46163774Y-122633498D01*
X46063868Y-122704860D02*
X46320770Y-122704860D01*
X46349315Y-122690588D01*
X46363588Y-122662043D01*
X46363588Y-122633498D01*
X46163774Y-122576408D02*
X46163774Y-122462229D01*
X46063868Y-122533591D02*
X46320770Y-122533591D01*
X46349315Y-122519319D01*
X46363588Y-122490774D01*
X46363588Y-122462229D01*
X46349315Y-122248143D02*
X46363588Y-122276688D01*
X46363588Y-122333777D01*
X46349315Y-122362322D01*
X46320770Y-122376594D01*
X46206591Y-122376594D01*
X46178047Y-122362322D01*
X46163774Y-122333777D01*
X46163774Y-122276688D01*
X46178047Y-122248143D01*
X46206591Y-122233871D01*
X46235136Y-122233871D01*
X46263681Y-122376594D01*
X46363588Y-122105419D02*
X46163774Y-122105419D01*
X46220864Y-122105419D02*
X46192319Y-122091147D01*
X46178047Y-122076874D01*
X46163774Y-122048330D01*
X46163774Y-122019785D01*
X46163774Y-121948423D02*
X46363588Y-121877061D01*
X46163774Y-121805699D02*
X46363588Y-121877061D01*
X46434950Y-121905606D01*
X46449222Y-121919878D01*
X46463494Y-121948423D01*
D16*
D12*
X91110381Y-122951667D02*
X90110381Y-122951667D01*
X90110381Y-122570714D01*
X90158000Y-122475476D01*
X90205619Y-122427857D01*
X90300857Y-122380238D01*
X90443714Y-122380238D01*
X90538952Y-122427857D01*
X90586571Y-122475476D01*
X90634190Y-122570714D01*
X90634190Y-122951667D01*
X91110381Y-121427857D02*
X91110381Y-121999286D01*
X91110381Y-121713572D02*
X90110381Y-121713572D01*
X90253238Y-121808810D01*
X90348476Y-121904048D01*
X90396095Y-121999286D01*
X91110381Y-120570714D02*
X90586571Y-120570714D01*
X90491333Y-120618333D01*
X90443714Y-120713571D01*
X90443714Y-120904048D01*
X90491333Y-120999286D01*
X91062762Y-120570714D02*
X91110381Y-120665952D01*
X91110381Y-120904048D01*
X91062762Y-120999286D01*
X90967524Y-121046905D01*
X90872286Y-121046905D01*
X90777048Y-120999286D01*
X90729429Y-120904048D01*
X90729429Y-120665952D01*
X90681810Y-120570714D01*
X91110381Y-119570714D02*
X91110381Y-120142143D01*
X91110381Y-119856429D02*
X90110381Y-119856429D01*
X90253238Y-119951667D01*
X90348476Y-120046905D01*
X90396095Y-120142143D01*
X91110381Y-120411667D02*
X90110381Y-120411667D01*
X90110381Y-120030714D01*
X90158000Y-119935476D01*
X90205619Y-119887857D01*
X90300857Y-119840238D01*
X90443714Y-119840238D01*
X90538952Y-119887857D01*
X90586571Y-119935476D01*
X90634190Y-120030714D01*
X90634190Y-120411667D01*
X90205619Y-119459286D02*
X90158000Y-119411667D01*
X90110381Y-119316429D01*
X90110381Y-119078333D01*
X90158000Y-118983095D01*
X90205619Y-118935476D01*
X90300857Y-118887857D01*
X90396095Y-118887857D01*
X90538952Y-118935476D01*
X91110381Y-119506905D01*
X91110381Y-118887857D01*
X91110381Y-118030714D02*
X90586571Y-118030714D01*
X90491333Y-118078333D01*
X90443714Y-118173571D01*
X90443714Y-118364048D01*
X90491333Y-118459286D01*
X91062762Y-118030714D02*
X91110381Y-118125952D01*
X91110381Y-118364048D01*
X91062762Y-118459286D01*
X90967524Y-118506905D01*
X90872286Y-118506905D01*
X90777048Y-118459286D01*
X90729429Y-118364048D01*
X90729429Y-118125952D01*
X90681810Y-118030714D01*
X91110381Y-117030714D02*
X91110381Y-117602143D01*
X91110381Y-117316429D02*
X90110381Y-117316429D01*
X90253238Y-117411667D01*
X90348476Y-117506905D01*
X90396095Y-117602143D01*
X55550381Y-122023095D02*
X54550381Y-122023095D01*
X54550381Y-121642142D01*
X54598000Y-121546904D01*
X54645619Y-121499285D01*
X54740857Y-121451666D01*
X54883714Y-121451666D01*
X54978952Y-121499285D01*
X55026571Y-121546904D01*
X55074190Y-121642142D01*
X55074190Y-122023095D01*
X55550381Y-120975476D02*
X55550381Y-120785000D01*
X55502762Y-120689761D01*
X55455143Y-120642142D01*
X55312286Y-120546904D01*
X55121810Y-120499285D01*
X54740857Y-120499285D01*
X54645619Y-120546904D01*
X54598000Y-120594523D01*
X54550381Y-120689761D01*
X54550381Y-120880238D01*
X54598000Y-120975476D01*
X54645619Y-121023095D01*
X54740857Y-121070714D01*
X54978952Y-121070714D01*
X55074190Y-121023095D01*
X55121810Y-120975476D01*
X55169429Y-120880238D01*
X55169429Y-120689761D01*
X55121810Y-120594523D01*
X55074190Y-120546904D01*
X54978952Y-120499285D01*
X91110381Y-86121667D02*
X90110381Y-86121667D01*
X90110381Y-85740714D01*
X90158000Y-85645476D01*
X90205619Y-85597857D01*
X90300857Y-85550238D01*
X90443714Y-85550238D01*
X90538952Y-85597857D01*
X90586571Y-85645476D01*
X90634190Y-85740714D01*
X90634190Y-86121667D01*
X91110381Y-85074048D02*
X91110381Y-84883572D01*
X91062762Y-84788333D01*
X91015143Y-84740714D01*
X90872286Y-84645476D01*
X90681810Y-84597857D01*
X90300857Y-84597857D01*
X90205619Y-84645476D01*
X90158000Y-84693095D01*
X90110381Y-84788333D01*
X90110381Y-84978810D01*
X90158000Y-85074048D01*
X90205619Y-85121667D01*
X90300857Y-85169286D01*
X90538952Y-85169286D01*
X90634190Y-85121667D01*
X90681810Y-85074048D01*
X90729429Y-84978810D01*
X90729429Y-84788333D01*
X90681810Y-84693095D01*
X90634190Y-84645476D01*
X90538952Y-84597857D01*
X91110381Y-83740714D02*
X90586571Y-83740714D01*
X90491333Y-83788333D01*
X90443714Y-83883571D01*
X90443714Y-84074048D01*
X90491333Y-84169286D01*
X91062762Y-83740714D02*
X91110381Y-83835952D01*
X91110381Y-84074048D01*
X91062762Y-84169286D01*
X90967524Y-84216905D01*
X90872286Y-84216905D01*
X90777048Y-84169286D01*
X90729429Y-84074048D01*
X90729429Y-83835952D01*
X90681810Y-83740714D01*
X91110381Y-82740714D02*
X91110381Y-83312143D01*
X91110381Y-83026429D02*
X90110381Y-83026429D01*
X90253238Y-83121667D01*
X90348476Y-83216905D01*
X90396095Y-83312143D01*
X55550381Y-119959286D02*
X54550381Y-119959286D01*
X54550381Y-119578333D01*
X54598000Y-119483095D01*
X54645619Y-119435476D01*
X54740857Y-119387857D01*
X54883714Y-119387857D01*
X54978952Y-119435476D01*
X55026571Y-119483095D01*
X55074190Y-119578333D01*
X55074190Y-119959286D01*
X55550381Y-118435476D02*
X55550381Y-119006905D01*
X55550381Y-118721191D02*
X54550381Y-118721191D01*
X54693238Y-118816429D01*
X54788476Y-118911667D01*
X54836095Y-119006905D01*
X54550381Y-117816429D02*
X54550381Y-117721190D01*
X54598000Y-117625952D01*
X54645619Y-117578333D01*
X54740857Y-117530714D01*
X54931333Y-117483095D01*
X55169429Y-117483095D01*
X55359905Y-117530714D01*
X55455143Y-117578333D01*
X55502762Y-117625952D01*
X55550381Y-117721190D01*
X55550381Y-117816429D01*
X55502762Y-117911667D01*
X55455143Y-117959286D01*
X55359905Y-118006905D01*
X55169429Y-118054524D01*
X54931333Y-118054524D01*
X54740857Y-118006905D01*
X54645619Y-117959286D01*
X54598000Y-117911667D01*
X54550381Y-117816429D01*
X91110381Y-84057857D02*
X90110381Y-84057857D01*
X90110381Y-83676904D01*
X90158000Y-83581666D01*
X90205619Y-83534047D01*
X90300857Y-83486428D01*
X90443714Y-83486428D01*
X90538952Y-83534047D01*
X90586571Y-83581666D01*
X90634190Y-83676904D01*
X90634190Y-84057857D01*
X91110381Y-82534047D02*
X91110381Y-83105476D01*
X91110381Y-82819762D02*
X90110381Y-82819762D01*
X90253238Y-82915000D01*
X90348476Y-83010238D01*
X90396095Y-83105476D01*
X90110381Y-81915000D02*
X90110381Y-81819761D01*
X90158000Y-81724523D01*
X90205619Y-81676904D01*
X90300857Y-81629285D01*
X90491333Y-81581666D01*
X90729429Y-81581666D01*
X90919905Y-81629285D01*
X91015143Y-81676904D01*
X91062762Y-81724523D01*
X91110381Y-81819761D01*
X91110381Y-81915000D01*
X91062762Y-82010238D01*
X91015143Y-82057857D01*
X90919905Y-82105476D01*
X90729429Y-82153095D01*
X90491333Y-82153095D01*
X90300857Y-82105476D01*
X90205619Y-82057857D01*
X90158000Y-82010238D01*
X90110381Y-81915000D01*
X91110381Y-80724523D02*
X90586571Y-80724523D01*
X90491333Y-80772142D01*
X90443714Y-80867380D01*
X90443714Y-81057857D01*
X90491333Y-81153095D01*
X91062762Y-80724523D02*
X91110381Y-80819761D01*
X91110381Y-81057857D01*
X91062762Y-81153095D01*
X90967524Y-81200714D01*
X90872286Y-81200714D01*
X90777048Y-81153095D01*
X90729429Y-81057857D01*
X90729429Y-80819761D01*
X90681810Y-80724523D01*
X91110381Y-79724523D02*
X91110381Y-80295952D01*
X91110381Y-80010238D02*
X90110381Y-80010238D01*
X90253238Y-80105476D01*
X90348476Y-80200714D01*
X90396095Y-80295952D01*
X56443714Y-103937381D02*
X56443714Y-102937381D01*
X56824667Y-102937381D01*
X56919905Y-102985000D01*
X56967524Y-103032619D01*
X57015143Y-103127857D01*
X57015143Y-103270714D01*
X56967524Y-103365952D01*
X56919905Y-103413571D01*
X56824667Y-103461190D01*
X56443714Y-103461190D01*
X57967524Y-103937381D02*
X57396095Y-103937381D01*
X57681809Y-103937381D02*
X57681809Y-102937381D01*
X57586571Y-103080238D01*
X57491333Y-103175476D01*
X57396095Y-103223095D01*
X58348476Y-103032619D02*
X58396095Y-102985000D01*
X58491333Y-102937381D01*
X58729429Y-102937381D01*
X58824667Y-102985000D01*
X58872286Y-103032619D01*
X58919905Y-103127857D01*
X58919905Y-103223095D01*
X58872286Y-103365952D01*
X58300857Y-103937381D01*
X58919905Y-103937381D01*
X108930381Y-97099286D02*
X107930381Y-97099286D01*
X107930381Y-96718333D01*
X107978000Y-96623095D01*
X108025619Y-96575476D01*
X108120857Y-96527857D01*
X108263714Y-96527857D01*
X108358952Y-96575476D01*
X108406571Y-96623095D01*
X108454190Y-96718333D01*
X108454190Y-97099286D01*
X108930381Y-95575476D02*
X108930381Y-96146905D01*
X108930381Y-95861191D02*
X107930381Y-95861191D01*
X108073238Y-95956429D01*
X108168476Y-96051667D01*
X108216095Y-96146905D01*
X107930381Y-95242143D02*
X107930381Y-94623095D01*
X108311333Y-94956429D01*
X108311333Y-94813571D01*
X108358952Y-94718333D01*
X108406571Y-94670714D01*
X108501810Y-94623095D01*
X108739905Y-94623095D01*
X108835143Y-94670714D01*
X108882762Y-94718333D01*
X108930381Y-94813571D01*
X108930381Y-95099286D01*
X108882762Y-95194524D01*
X108835143Y-95242143D01*
X64063714Y-91237381D02*
X64063714Y-90237381D01*
X64444667Y-90237381D01*
X64539905Y-90285000D01*
X64587524Y-90332619D01*
X64635143Y-90427857D01*
X64635143Y-90570714D01*
X64587524Y-90665952D01*
X64539905Y-90713571D01*
X64444667Y-90761190D01*
X64063714Y-90761190D01*
X65587524Y-91237381D02*
X65016095Y-91237381D01*
X65301809Y-91237381D02*
X65301809Y-90237381D01*
X65206571Y-90380238D01*
X65111333Y-90475476D01*
X65016095Y-90523095D01*
X66444667Y-90570714D02*
X66444667Y-91237381D01*
X66206571Y-90189762D02*
X65968476Y-90904048D01*
X66587524Y-90904048D01*
X46283714Y-73457381D02*
X46283714Y-72457381D01*
X46664667Y-72457381D01*
X46759905Y-72505000D01*
X46807524Y-72552619D01*
X46855143Y-72647857D01*
X46855143Y-72790714D01*
X46807524Y-72885952D01*
X46759905Y-72933571D01*
X46664667Y-72981190D01*
X46283714Y-72981190D01*
X47807524Y-73457381D02*
X47236095Y-73457381D01*
X47521809Y-73457381D02*
X47521809Y-72457381D01*
X47426571Y-72600238D01*
X47331333Y-72695476D01*
X47236095Y-72743095D01*
X48712286Y-72457381D02*
X48236095Y-72457381D01*
X48188476Y-72933571D01*
X48236095Y-72885952D01*
X48331333Y-72838333D01*
X48569429Y-72838333D01*
X48664667Y-72885952D01*
X48712286Y-72933571D01*
X48759905Y-73028810D01*
X48759905Y-73266905D01*
X48712286Y-73362143D01*
X48664667Y-73409762D01*
X48569429Y-73457381D01*
X48331333Y-73457381D01*
X48236095Y-73409762D01*
X48188476Y-73362143D01*
X58983714Y-91237381D02*
X58983714Y-90237381D01*
X59364667Y-90237381D01*
X59459905Y-90285000D01*
X59507524Y-90332619D01*
X59555143Y-90427857D01*
X59555143Y-90570714D01*
X59507524Y-90665952D01*
X59459905Y-90713571D01*
X59364667Y-90761190D01*
X58983714Y-90761190D01*
X60507524Y-91237381D02*
X59936095Y-91237381D01*
X60221809Y-91237381D02*
X60221809Y-90237381D01*
X60126571Y-90380238D01*
X60031333Y-90475476D01*
X59936095Y-90523095D01*
X61364667Y-90237381D02*
X61174190Y-90237381D01*
X61078952Y-90285000D01*
X61031333Y-90332619D01*
X60936095Y-90475476D01*
X60888476Y-90665952D01*
X60888476Y-91046905D01*
X60936095Y-91142143D01*
X60983714Y-91189762D01*
X61078952Y-91237381D01*
X61269429Y-91237381D01*
X61364667Y-91189762D01*
X61412286Y-91142143D01*
X61459905Y-91046905D01*
X61459905Y-90808810D01*
X61412286Y-90713571D01*
X61364667Y-90665952D01*
X61269429Y-90618333D01*
X61078952Y-90618333D01*
X60983714Y-90665952D01*
X60936095Y-90713571D01*
X60888476Y-90808810D01*
X56443714Y-88697381D02*
X56443714Y-87697381D01*
X56824667Y-87697381D01*
X56919905Y-87745000D01*
X56967524Y-87792619D01*
X57015143Y-87887857D01*
X57015143Y-88030714D01*
X56967524Y-88125952D01*
X56919905Y-88173571D01*
X56824667Y-88221190D01*
X56443714Y-88221190D01*
X57967524Y-88697381D02*
X57396095Y-88697381D01*
X57681809Y-88697381D02*
X57681809Y-87697381D01*
X57586571Y-87840238D01*
X57491333Y-87935476D01*
X57396095Y-87983095D01*
X58300857Y-87697381D02*
X58967524Y-87697381D01*
X58538952Y-88697381D01*
X47930381Y-72969286D02*
X46930381Y-72969286D01*
X46930381Y-72588333D01*
X46978000Y-72493095D01*
X47025619Y-72445476D01*
X47120857Y-72397857D01*
X47263714Y-72397857D01*
X47358952Y-72445476D01*
X47406571Y-72493095D01*
X47454190Y-72588333D01*
X47454190Y-72969286D01*
X47930381Y-71445476D02*
X47930381Y-72016905D01*
X47930381Y-71731191D02*
X46930381Y-71731191D01*
X47073238Y-71826429D01*
X47168476Y-71921667D01*
X47216095Y-72016905D01*
X47358952Y-70874048D02*
X47311333Y-70969286D01*
X47263714Y-71016905D01*
X47168476Y-71064524D01*
X47120857Y-71064524D01*
X47025619Y-71016905D01*
X46978000Y-70969286D01*
X46930381Y-70874048D01*
X46930381Y-70683571D01*
X46978000Y-70588333D01*
X47025619Y-70540714D01*
X47120857Y-70493095D01*
X47168476Y-70493095D01*
X47263714Y-70540714D01*
X47311333Y-70588333D01*
X47358952Y-70683571D01*
X47358952Y-70874048D01*
X47406571Y-70969286D01*
X47454190Y-71016905D01*
X47549429Y-71064524D01*
X47739905Y-71064524D01*
X47835143Y-71016905D01*
X47882762Y-70969286D01*
X47930381Y-70874048D01*
X47930381Y-70683571D01*
X47882762Y-70588333D01*
X47835143Y-70540714D01*
X47739905Y-70493095D01*
X47549429Y-70493095D01*
X47454190Y-70540714D01*
X47406571Y-70588333D01*
X47358952Y-70683571D01*
X53010381Y-88209286D02*
X52010381Y-88209286D01*
X52010381Y-87828333D01*
X52058000Y-87733095D01*
X52105619Y-87685476D01*
X52200857Y-87637857D01*
X52343714Y-87637857D01*
X52438952Y-87685476D01*
X52486571Y-87733095D01*
X52534190Y-87828333D01*
X52534190Y-88209286D01*
X53010381Y-86685476D02*
X53010381Y-87256905D01*
X53010381Y-86971191D02*
X52010381Y-86971191D01*
X52153238Y-87066429D01*
X52248476Y-87161667D01*
X52296095Y-87256905D01*
X53010381Y-86209286D02*
X53010381Y-86018810D01*
X52962762Y-85923571D01*
X52915143Y-85875952D01*
X52772286Y-85780714D01*
X52581810Y-85733095D01*
X52200857Y-85733095D01*
X52105619Y-85780714D01*
X52058000Y-85828333D01*
X52010381Y-85923571D01*
X52010381Y-86114048D01*
X52058000Y-86209286D01*
X52105619Y-86256905D01*
X52200857Y-86304524D01*
X52438952Y-86304524D01*
X52534190Y-86256905D01*
X52581810Y-86209286D01*
X52629429Y-86114048D01*
X52629429Y-85923571D01*
X52581810Y-85828333D01*
X52534190Y-85780714D01*
X52438952Y-85733095D01*
X55550381Y-85669286D02*
X54550381Y-85669286D01*
X54550381Y-85288333D01*
X54598000Y-85193095D01*
X54645619Y-85145476D01*
X54740857Y-85097857D01*
X54883714Y-85097857D01*
X54978952Y-85145476D01*
X55026571Y-85193095D01*
X55074190Y-85288333D01*
X55074190Y-85669286D01*
X54645619Y-84716905D02*
X54598000Y-84669286D01*
X54550381Y-84574048D01*
X54550381Y-84335952D01*
X54598000Y-84240714D01*
X54645619Y-84193095D01*
X54740857Y-84145476D01*
X54836095Y-84145476D01*
X54978952Y-84193095D01*
X55550381Y-84764524D01*
X55550381Y-84145476D01*
X54550381Y-83526429D02*
X54550381Y-83431190D01*
X54598000Y-83335952D01*
X54645619Y-83288333D01*
X54740857Y-83240714D01*
X54931333Y-83193095D01*
X55169429Y-83193095D01*
X55359905Y-83240714D01*
X55455143Y-83288333D01*
X55502762Y-83335952D01*
X55550381Y-83431190D01*
X55550381Y-83526429D01*
X55502762Y-83621667D01*
X55455143Y-83669286D01*
X55359905Y-83716905D01*
X55169429Y-83764524D01*
X54931333Y-83764524D01*
X54740857Y-83716905D01*
X54645619Y-83669286D01*
X54598000Y-83621667D01*
X54550381Y-83526429D01*
X55550381Y-83129286D02*
X54550381Y-83129286D01*
X54550381Y-82748333D01*
X54598000Y-82653095D01*
X54645619Y-82605476D01*
X54740857Y-82557857D01*
X54883714Y-82557857D01*
X54978952Y-82605476D01*
X55026571Y-82653095D01*
X55074190Y-82748333D01*
X55074190Y-83129286D01*
X54645619Y-82176905D02*
X54598000Y-82129286D01*
X54550381Y-82034048D01*
X54550381Y-81795952D01*
X54598000Y-81700714D01*
X54645619Y-81653095D01*
X54740857Y-81605476D01*
X54836095Y-81605476D01*
X54978952Y-81653095D01*
X55550381Y-82224524D01*
X55550381Y-81605476D01*
X55550381Y-80653095D02*
X55550381Y-81224524D01*
X55550381Y-80938810D02*
X54550381Y-80938810D01*
X54693238Y-81034048D01*
X54788476Y-81129286D01*
X54836095Y-81224524D01*
X107124667Y-72667762D02*
X107267524Y-72715381D01*
X107505620Y-72715381D01*
X107600858Y-72667762D01*
X107648477Y-72620143D01*
X107696096Y-72524905D01*
X107696096Y-72429667D01*
X107648477Y-72334429D01*
X107600858Y-72286810D01*
X107505620Y-72239190D01*
X107315143Y-72191571D01*
X107219905Y-72143952D01*
X107172286Y-72096333D01*
X107124667Y-72001095D01*
X107124667Y-71905857D01*
X107172286Y-71810619D01*
X107219905Y-71763000D01*
X107315143Y-71715381D01*
X107553239Y-71715381D01*
X107696096Y-71763000D01*
X108029429Y-71715381D02*
X108267524Y-72715381D01*
X108458001Y-72001095D01*
X108648477Y-72715381D01*
X108886572Y-71715381D01*
X109791334Y-72715381D02*
X109219905Y-72715381D01*
X109505619Y-72715381D02*
X109505619Y-71715381D01*
X109410381Y-71858238D01*
X109315143Y-71953476D01*
X109219905Y-72001095D01*
X93154667Y-72667762D02*
X93297524Y-72715381D01*
X93535620Y-72715381D01*
X93630858Y-72667762D01*
X93678477Y-72620143D01*
X93726096Y-72524905D01*
X93726096Y-72429667D01*
X93678477Y-72334429D01*
X93630858Y-72286810D01*
X93535620Y-72239190D01*
X93345143Y-72191571D01*
X93249905Y-72143952D01*
X93202286Y-72096333D01*
X93154667Y-72001095D01*
X93154667Y-71905857D01*
X93202286Y-71810619D01*
X93249905Y-71763000D01*
X93345143Y-71715381D01*
X93583239Y-71715381D01*
X93726096Y-71763000D01*
X94059429Y-71715381D02*
X94297524Y-72715381D01*
X94488001Y-72001095D01*
X94678477Y-72715381D01*
X94916572Y-71715381D01*
X95249905Y-71810619D02*
X95297524Y-71763000D01*
X95392762Y-71715381D01*
X95630858Y-71715381D01*
X95726096Y-71763000D01*
X95773715Y-71810619D01*
X95821334Y-71905857D01*
X95821334Y-72001095D01*
X95773715Y-72143952D01*
X95202286Y-72715381D01*
X95821334Y-72715381D01*
M02*
