G04 #@! TF.FileFunction,Other,User*
%FSLAX46Y46*%
G04 Gerber Fmt 4.6, Leading zero omitted, Abs format (unit mm)*
G04 Created by KiCad (PCBNEW 4.0.4-stable) date 01/06/17 20:42:42*
%MOMM*%
%LPD*%
G01*
G04 APERTURE LIST*
%ADD10C,0.100000*%
%ADD11C,0.050000*%
G04 APERTURE END LIST*
D10*
D11*
X55908000Y-117955000D02*
X117858000Y-117955000D01*
X55908000Y-114455000D02*
X117858000Y-114455000D01*
X55908000Y-117955000D02*
X55908000Y-114455000D01*
X117858000Y-117955000D02*
X117858000Y-114455000D01*
X132108000Y-122075000D02*
X132108000Y-125575000D01*
X153408000Y-122075000D02*
X153408000Y-125575000D01*
X132108000Y-122075000D02*
X153408000Y-122075000D01*
X132108000Y-125575000D02*
X153408000Y-125575000D01*
X154968000Y-122075000D02*
X154968000Y-125575000D01*
X171168000Y-122075000D02*
X171168000Y-125575000D01*
X154968000Y-122075000D02*
X171168000Y-122075000D01*
X154968000Y-125575000D02*
X171168000Y-125575000D01*
X122964000Y-73815000D02*
X122964000Y-77315000D01*
X149364000Y-73815000D02*
X149364000Y-77315000D01*
X122964000Y-73815000D02*
X149364000Y-73815000D01*
X122964000Y-77315000D02*
X149364000Y-77315000D01*
X149888000Y-73815000D02*
X149888000Y-77315000D01*
X171188000Y-73815000D02*
X171188000Y-77315000D01*
X149888000Y-73815000D02*
X171188000Y-73815000D01*
X149888000Y-77315000D02*
X171188000Y-77315000D01*
X94008000Y-123035000D02*
X117858000Y-123035000D01*
X94008000Y-119535000D02*
X117858000Y-119535000D01*
X94008000Y-123035000D02*
X94008000Y-119535000D01*
X117858000Y-123035000D02*
X117858000Y-119535000D01*
X94008000Y-120495000D02*
X117858000Y-120495000D01*
X94008000Y-116995000D02*
X117858000Y-116995000D01*
X94008000Y-120495000D02*
X94008000Y-116995000D01*
X117858000Y-120495000D02*
X117858000Y-116995000D01*
X58448000Y-123035000D02*
X92448000Y-123035000D01*
X58448000Y-119535000D02*
X92448000Y-119535000D01*
X58448000Y-123035000D02*
X58448000Y-119535000D01*
X92448000Y-123035000D02*
X92448000Y-119535000D01*
X94008000Y-86205000D02*
X117858000Y-86205000D01*
X94008000Y-82705000D02*
X117858000Y-82705000D01*
X94008000Y-86205000D02*
X94008000Y-82705000D01*
X117858000Y-86205000D02*
X117858000Y-82705000D01*
X58448000Y-120495000D02*
X92448000Y-120495000D01*
X58448000Y-116995000D02*
X92448000Y-116995000D01*
X58448000Y-120495000D02*
X58448000Y-116995000D01*
X92448000Y-120495000D02*
X92448000Y-116995000D01*
X94008000Y-83665000D02*
X117858000Y-83665000D01*
X94008000Y-80165000D02*
X117858000Y-80165000D01*
X94008000Y-83665000D02*
X94008000Y-80165000D01*
X117858000Y-83665000D02*
X117858000Y-80165000D01*
X55908000Y-106835000D02*
X55908000Y-110335000D01*
X117858000Y-106835000D02*
X117858000Y-110335000D01*
X55908000Y-106835000D02*
X117858000Y-106835000D01*
X55908000Y-110335000D02*
X117858000Y-110335000D01*
X105128000Y-94135000D02*
X101628000Y-94135000D01*
X105128000Y-107835000D02*
X101628000Y-107835000D01*
X105128000Y-94135000D02*
X105128000Y-107835000D01*
X101628000Y-94135000D02*
X101628000Y-107835000D01*
X63528000Y-94135000D02*
X63528000Y-97635000D01*
X72128000Y-94135000D02*
X72128000Y-97635000D01*
X63528000Y-94135000D02*
X72128000Y-94135000D01*
X63528000Y-97635000D02*
X72128000Y-97635000D01*
X45748000Y-76355000D02*
X45748000Y-84955000D01*
X49248000Y-76355000D02*
X49248000Y-84955000D01*
X45748000Y-76355000D02*
X49248000Y-76355000D01*
X45748000Y-84955000D02*
X49248000Y-84955000D01*
X58448000Y-94135000D02*
X58448000Y-97635000D01*
X61948000Y-94135000D02*
X61948000Y-97635000D01*
X58448000Y-94135000D02*
X61948000Y-94135000D01*
X58448000Y-97635000D02*
X61948000Y-97635000D01*
X55908000Y-91595000D02*
X55908000Y-95095000D01*
X117858000Y-91595000D02*
X117858000Y-95095000D01*
X55908000Y-91595000D02*
X117858000Y-91595000D01*
X55908000Y-95095000D02*
X117858000Y-95095000D01*
X50828000Y-73505000D02*
X56878000Y-73505000D01*
X50828000Y-70005000D02*
X56878000Y-70005000D01*
X50828000Y-73505000D02*
X50828000Y-70005000D01*
X56878000Y-73505000D02*
X56878000Y-70005000D01*
X55908000Y-88745000D02*
X117858000Y-88745000D01*
X55908000Y-85245000D02*
X117858000Y-85245000D01*
X55908000Y-88745000D02*
X55908000Y-85245000D01*
X117858000Y-88745000D02*
X117858000Y-85245000D01*
X58448000Y-86205000D02*
X92448000Y-86205000D01*
X58448000Y-82705000D02*
X92448000Y-82705000D01*
X58448000Y-86205000D02*
X58448000Y-82705000D01*
X92448000Y-86205000D02*
X92448000Y-82705000D01*
X58448000Y-83665000D02*
X92448000Y-83665000D01*
X58448000Y-80165000D02*
X92448000Y-80165000D01*
X58448000Y-83665000D02*
X58448000Y-80165000D01*
X92448000Y-83665000D02*
X92448000Y-80165000D01*
M02*
