G04 #@! TF.FileFunction,Copper,L2,Bot,Signal*
%FSLAX46Y46*%
G04 Gerber Fmt 4.6, Leading zero omitted, Abs format (unit mm)*
G04 Created by KiCad (PCBNEW 4.0.4-stable) date 01/06/17 20:42:42*
%MOMM*%
%LPD*%
G01*
G04 APERTURE LIST*
%ADD10C,0.100000*%
%ADD11R,1.727200X2.032000*%
%ADD12O,1.727200X2.032000*%
%ADD13C,4.064000*%
%ADD14C,2.499360*%
%ADD15R,2.032000X1.727200*%
%ADD16O,2.032000X1.727200*%
%ADD17R,2.235200X2.235200*%
%ADD18R,2.032000X2.032000*%
%ADD19O,2.032000X2.032000*%
%ADD20C,1.397000*%
%ADD21C,0.600000*%
%ADD22C,0.250000*%
G04 APERTURE END LIST*
D10*
D11*
X57658000Y-116205000D03*
D12*
X60198000Y-116205000D03*
X62738000Y-116205000D03*
X65278000Y-116205000D03*
X67818000Y-116205000D03*
X70358000Y-116205000D03*
X72898000Y-116205000D03*
X75438000Y-116205000D03*
X77978000Y-116205000D03*
X80518000Y-116205000D03*
X83058000Y-116205000D03*
X85598000Y-116205000D03*
X88138000Y-116205000D03*
X90678000Y-116205000D03*
X93218000Y-116205000D03*
X95758000Y-116205000D03*
X98298000Y-116205000D03*
X100838000Y-116205000D03*
X103378000Y-116205000D03*
X105918000Y-116205000D03*
X108458000Y-116205000D03*
X110998000Y-116205000D03*
X113538000Y-116205000D03*
X116078000Y-116205000D03*
X133858000Y-123825000D03*
X136398000Y-123825000D03*
X138938000Y-123825000D03*
X141478000Y-123825000D03*
X144018000Y-123825000D03*
X146558000Y-123825000D03*
X149098000Y-123825000D03*
X151638000Y-123825000D03*
X156718000Y-123825000D03*
X159258000Y-123825000D03*
X161798000Y-123825000D03*
X164338000Y-123825000D03*
X166878000Y-123825000D03*
X169418000Y-123825000D03*
X124714000Y-75565000D03*
X127254000Y-75565000D03*
X129794000Y-75565000D03*
X132334000Y-75565000D03*
X134874000Y-75565000D03*
X137414000Y-75565000D03*
X139954000Y-75565000D03*
X142494000Y-75565000D03*
X145034000Y-75565000D03*
X147574000Y-75565000D03*
X151638000Y-75565000D03*
X154178000Y-75565000D03*
X156718000Y-75565000D03*
X159258000Y-75565000D03*
X161798000Y-75565000D03*
X164338000Y-75565000D03*
X166878000Y-75565000D03*
X169418000Y-75565000D03*
D13*
X74168000Y-131445000D03*
X175768000Y-121285000D03*
X65278000Y-71755000D03*
X175768000Y-80645000D03*
D14*
X48127920Y-127556260D03*
X44328080Y-122555000D03*
X48127920Y-117553740D03*
D11*
X95758000Y-121285000D03*
D12*
X98298000Y-121285000D03*
X100838000Y-121285000D03*
X103378000Y-121285000D03*
X105918000Y-121285000D03*
X108458000Y-121285000D03*
X110998000Y-121285000D03*
X113538000Y-121285000D03*
X116078000Y-121285000D03*
D11*
X95758000Y-118745000D03*
D12*
X98298000Y-118745000D03*
X100838000Y-118745000D03*
X103378000Y-118745000D03*
X105918000Y-118745000D03*
X108458000Y-118745000D03*
X110998000Y-118745000D03*
X113538000Y-118745000D03*
X116078000Y-118745000D03*
D11*
X60198000Y-121285000D03*
D12*
X62738000Y-121285000D03*
X65278000Y-121285000D03*
X67818000Y-121285000D03*
X70358000Y-121285000D03*
X72898000Y-121285000D03*
X75438000Y-121285000D03*
X77978000Y-121285000D03*
X80518000Y-121285000D03*
X83058000Y-121285000D03*
X85598000Y-121285000D03*
X88138000Y-121285000D03*
X90678000Y-121285000D03*
D11*
X95758000Y-84455000D03*
D12*
X98298000Y-84455000D03*
X100838000Y-84455000D03*
X103378000Y-84455000D03*
X105918000Y-84455000D03*
X108458000Y-84455000D03*
X110998000Y-84455000D03*
X113538000Y-84455000D03*
X116078000Y-84455000D03*
D11*
X60198000Y-118745000D03*
D12*
X62738000Y-118745000D03*
X65278000Y-118745000D03*
X67818000Y-118745000D03*
X70358000Y-118745000D03*
X72898000Y-118745000D03*
X75438000Y-118745000D03*
X77978000Y-118745000D03*
X80518000Y-118745000D03*
X83058000Y-118745000D03*
X85598000Y-118745000D03*
X88138000Y-118745000D03*
X90678000Y-118745000D03*
D11*
X95758000Y-81915000D03*
D12*
X98298000Y-81915000D03*
X100838000Y-81915000D03*
X103378000Y-81915000D03*
X105918000Y-81915000D03*
X108458000Y-81915000D03*
X110998000Y-81915000D03*
X113538000Y-81915000D03*
X116078000Y-81915000D03*
D11*
X57658000Y-108585000D03*
D12*
X60198000Y-108585000D03*
X62738000Y-108585000D03*
X65278000Y-108585000D03*
X67818000Y-108585000D03*
X70358000Y-108585000D03*
X72898000Y-108585000D03*
X75438000Y-108585000D03*
X77978000Y-108585000D03*
X80518000Y-108585000D03*
X83058000Y-108585000D03*
X85598000Y-108585000D03*
X88138000Y-108585000D03*
X90678000Y-108585000D03*
X93218000Y-108585000D03*
X95758000Y-108585000D03*
X98298000Y-108585000D03*
X100838000Y-108585000D03*
X103378000Y-108585000D03*
X105918000Y-108585000D03*
X108458000Y-108585000D03*
X110998000Y-108585000D03*
X113538000Y-108585000D03*
X116078000Y-108585000D03*
D15*
X103378000Y-95885000D03*
D16*
X103378000Y-98425000D03*
X103378000Y-100965000D03*
X103378000Y-103505000D03*
X103378000Y-106045000D03*
D11*
X65278000Y-95885000D03*
D12*
X67818000Y-95885000D03*
X70358000Y-95885000D03*
D15*
X47498000Y-78105000D03*
D16*
X47498000Y-80645000D03*
X47498000Y-83185000D03*
D17*
X60198000Y-95885000D03*
D11*
X57658000Y-93345000D03*
D12*
X60198000Y-93345000D03*
X62738000Y-93345000D03*
X65278000Y-93345000D03*
X67818000Y-93345000D03*
X70358000Y-93345000D03*
X72898000Y-93345000D03*
X75438000Y-93345000D03*
X77978000Y-93345000D03*
X80518000Y-93345000D03*
X83058000Y-93345000D03*
X85598000Y-93345000D03*
X88138000Y-93345000D03*
X90678000Y-93345000D03*
X93218000Y-93345000D03*
X95758000Y-93345000D03*
X98298000Y-93345000D03*
X100838000Y-93345000D03*
X103378000Y-93345000D03*
X105918000Y-93345000D03*
X108458000Y-93345000D03*
X110998000Y-93345000D03*
X113538000Y-93345000D03*
X116078000Y-93345000D03*
D18*
X52578000Y-71755000D03*
D19*
X55118000Y-71755000D03*
D11*
X57658000Y-86995000D03*
D12*
X60198000Y-86995000D03*
X62738000Y-86995000D03*
X65278000Y-86995000D03*
X67818000Y-86995000D03*
X70358000Y-86995000D03*
X72898000Y-86995000D03*
X75438000Y-86995000D03*
X77978000Y-86995000D03*
X80518000Y-86995000D03*
X83058000Y-86995000D03*
X85598000Y-86995000D03*
X88138000Y-86995000D03*
X90678000Y-86995000D03*
X93218000Y-86995000D03*
X95758000Y-86995000D03*
X98298000Y-86995000D03*
X100838000Y-86995000D03*
X103378000Y-86995000D03*
X105918000Y-86995000D03*
X108458000Y-86995000D03*
X110998000Y-86995000D03*
X113538000Y-86995000D03*
X116078000Y-86995000D03*
D11*
X60198000Y-84455000D03*
D12*
X62738000Y-84455000D03*
X65278000Y-84455000D03*
X67818000Y-84455000D03*
X70358000Y-84455000D03*
X72898000Y-84455000D03*
X75438000Y-84455000D03*
X77978000Y-84455000D03*
X80518000Y-84455000D03*
X83058000Y-84455000D03*
X85598000Y-84455000D03*
X88138000Y-84455000D03*
X90678000Y-84455000D03*
D11*
X60198000Y-81915000D03*
D12*
X62738000Y-81915000D03*
X65278000Y-81915000D03*
X67818000Y-81915000D03*
X70358000Y-81915000D03*
X72898000Y-81915000D03*
X75438000Y-81915000D03*
X77978000Y-81915000D03*
X80518000Y-81915000D03*
X83058000Y-81915000D03*
X85598000Y-81915000D03*
X88138000Y-81915000D03*
X90678000Y-81915000D03*
D20*
X112268000Y-70485000D03*
X112268000Y-75565000D03*
X104648000Y-70485000D03*
X104648000Y-75565000D03*
X98298000Y-70485000D03*
X98298000Y-75565000D03*
X90678000Y-70485000D03*
X90678000Y-75565000D03*
D21*
X144780000Y-101981000D03*
X133604000Y-88011000D03*
X129032000Y-83355264D03*
X125222000Y-79121000D03*
X100838000Y-79121000D03*
X128140000Y-94686400D03*
X129428000Y-92124100D03*
X131287000Y-91491400D03*
X114061000Y-105865000D03*
X109104000Y-107074000D03*
X140030000Y-78287600D03*
X115570000Y-72517000D03*
X94488000Y-72517000D03*
X98233100Y-101121000D03*
D22*
X79185400Y-114110000D02*
X79366800Y-114291400D01*
X133604000Y-88011000D02*
X133604000Y-90805000D01*
X133604000Y-90805000D02*
X144780000Y-101981000D01*
X125222000Y-79121000D02*
X125222000Y-79545264D01*
X125222000Y-79545264D02*
X129032000Y-83355264D01*
X89824780Y-79121000D02*
X100838000Y-79121000D01*
X89489390Y-79456390D02*
X89824780Y-79121000D01*
X89408000Y-85725000D02*
X89489390Y-85643610D01*
X89489390Y-85643610D02*
X89489390Y-79456390D01*
X88138000Y-86995000D02*
X89408000Y-85725000D01*
X88138000Y-86995000D02*
X88138000Y-86288348D01*
X88138000Y-93345000D02*
X88138000Y-86995000D01*
X85598000Y-86995000D02*
X85598000Y-93345000D01*
X129451000Y-94686400D02*
X128140000Y-94686400D01*
X158069000Y-123305000D02*
X129451000Y-94686400D01*
X158069000Y-123825000D02*
X158069000Y-123305000D01*
X159258000Y-123825000D02*
X158069000Y-123825000D01*
X83058000Y-86995000D02*
X83058000Y-93345000D01*
X160609000Y-123305000D02*
X129428000Y-92124100D01*
X160609000Y-123825000D02*
X160609000Y-123305000D01*
X161798000Y-123825000D02*
X160609000Y-123825000D01*
X80518000Y-86995000D02*
X80518000Y-93345000D01*
X131336000Y-91491400D02*
X131287000Y-91491400D01*
X163149000Y-123305000D02*
X131336000Y-91491400D01*
X163149000Y-123825000D02*
X163149000Y-123305000D01*
X164338000Y-123825000D02*
X163149000Y-123825000D01*
X75438000Y-93345000D02*
X75438000Y-86995000D01*
X123525000Y-75565000D02*
X124120000Y-75565000D01*
X116967000Y-69006500D02*
X123525000Y-75565000D01*
X88138500Y-69006500D02*
X116967000Y-69006500D01*
X76626900Y-80518100D02*
X88138500Y-69006500D01*
X76626900Y-86995000D02*
X76626900Y-80518100D01*
X75438000Y-86995000D02*
X76626900Y-86995000D01*
X169418000Y-95507600D02*
X169418000Y-123825000D01*
X147590000Y-73680100D02*
X169418000Y-95507600D01*
X126004000Y-73680100D02*
X147590000Y-73680100D01*
X124120000Y-75565000D02*
X126004000Y-73680100D01*
X124714000Y-75565000D02*
X124120000Y-75565000D01*
X83058000Y-116205000D02*
X83058000Y-108585000D01*
X143845000Y-76080900D02*
X114061000Y-105865000D01*
X143845000Y-75565000D02*
X143845000Y-76080900D01*
X145034000Y-75565000D02*
X143845000Y-75565000D01*
X75438000Y-116205000D02*
X75438000Y-108585000D01*
X72898000Y-108585000D02*
X72898000Y-116205000D01*
X70358000Y-108585000D02*
X70358000Y-116205000D01*
X67818000Y-116205000D02*
X67818000Y-108585000D01*
X62738000Y-108585000D02*
X62738000Y-116205000D01*
X60198000Y-108585000D02*
X60198000Y-116205000D01*
X90678000Y-93345000D02*
X90678000Y-86995000D01*
X85598000Y-116205000D02*
X85598000Y-108585000D01*
X110559000Y-105619000D02*
X109104000Y-107074000D01*
X111748000Y-105619000D02*
X110559000Y-105619000D01*
X141305000Y-76061500D02*
X111748000Y-105619000D01*
X141305000Y-75565000D02*
X141305000Y-76061500D01*
X142494000Y-75565000D02*
X141305000Y-75565000D01*
X111074000Y-107244000D02*
X140030000Y-78287600D01*
X110494000Y-107244000D02*
X111074000Y-107244000D01*
X109728000Y-108010000D02*
X110494000Y-107244000D01*
X109728000Y-121940000D02*
X109728000Y-108010000D01*
X109004000Y-122664000D02*
X109728000Y-121940000D01*
X94738600Y-122664000D02*
X109004000Y-122664000D01*
X93377300Y-121303000D02*
X94738600Y-122664000D01*
X93377300Y-118392000D02*
X93377300Y-121303000D01*
X90678000Y-115693000D02*
X93377300Y-118392000D01*
X90678000Y-108585000D02*
X90678000Y-115693000D01*
X90678000Y-115693000D02*
X90678000Y-116205000D01*
X88138000Y-116205000D02*
X88138000Y-108585000D01*
X138765000Y-75565000D02*
X139954000Y-75565000D01*
X138765000Y-76047800D02*
X138765000Y-75565000D01*
X107579000Y-107234000D02*
X138765000Y-76047800D01*
X90157900Y-107234000D02*
X107579000Y-107234000D01*
X89326900Y-108065000D02*
X90157900Y-107234000D01*
X89326900Y-108585000D02*
X89326900Y-108065000D01*
X88138000Y-108585000D02*
X89326900Y-108585000D01*
X86245400Y-106045000D02*
X103378000Y-106045000D01*
X84328000Y-107962000D02*
X86245400Y-106045000D01*
X84328000Y-121872000D02*
X84328000Y-107962000D01*
X81221400Y-124978000D02*
X84328000Y-121872000D01*
X48127900Y-124978000D02*
X81221400Y-124978000D01*
X48127900Y-117554000D02*
X48127900Y-124978000D01*
X48127900Y-117554000D02*
X48127900Y-117553700D01*
X48127900Y-124978000D02*
X48127900Y-127556000D01*
X48127900Y-127556000D02*
X48127900Y-127556300D01*
X57658000Y-108585000D02*
X57658000Y-116205000D01*
X90678000Y-81915000D02*
X95758000Y-81915000D01*
X90678000Y-84455000D02*
X95758000Y-84455000D01*
X98298000Y-84455000D02*
X95758000Y-84455000D01*
X59009100Y-118745000D02*
X60198000Y-118745000D01*
X59009100Y-102403000D02*
X59009100Y-118745000D01*
X57658000Y-101052000D02*
X59009100Y-102403000D01*
X57658000Y-93345000D02*
X57658000Y-101052000D01*
X145207000Y-123825000D02*
X144018000Y-123825000D01*
X145207000Y-123305000D02*
X145207000Y-123825000D01*
X146030000Y-122482000D02*
X145207000Y-123305000D01*
X149626000Y-122482000D02*
X146030000Y-122482000D01*
X150449000Y-123305000D02*
X149626000Y-122482000D01*
X150449000Y-123825000D02*
X150449000Y-123305000D01*
X151638000Y-123825000D02*
X150449000Y-123825000D01*
X57658000Y-86995000D02*
X57658000Y-93345000D01*
X138269000Y-118745000D02*
X116078000Y-118745000D01*
X142829000Y-123305000D02*
X138269000Y-118745000D01*
X142829000Y-123825000D02*
X142829000Y-123305000D01*
X144018000Y-123825000D02*
X142829000Y-123825000D01*
X56469100Y-86995000D02*
X57658000Y-86995000D01*
X47498000Y-78023900D02*
X56469100Y-86995000D01*
X47498000Y-77807700D02*
X47498000Y-78023900D01*
X52209400Y-73096300D02*
X47498000Y-77807700D01*
X52578000Y-73096300D02*
X52209400Y-73096300D01*
X52578000Y-71755000D02*
X52578000Y-73096300D01*
X47498000Y-78105000D02*
X47498000Y-78023900D01*
X47498000Y-78023900D02*
X47498000Y-77807700D01*
X115570000Y-72517000D02*
X120396000Y-77343000D01*
X120396000Y-77343000D02*
X125628400Y-77343000D01*
X125628400Y-77343000D02*
X127254000Y-75717400D01*
X127254000Y-75717400D02*
X127254000Y-75565000D01*
X87630000Y-72517000D02*
X94488000Y-72517000D01*
X166878000Y-123825000D02*
X165689000Y-123825000D01*
X165689000Y-122636000D02*
X146225000Y-103172000D01*
X146225000Y-74849800D02*
X145556000Y-74180900D01*
X165689000Y-123825000D02*
X165689000Y-122636000D01*
X146225000Y-103172000D02*
X146225000Y-74849800D01*
X145556000Y-74180900D02*
X127372100Y-74180900D01*
X127254000Y-74299000D02*
X127254000Y-75565000D01*
X127372100Y-74180900D02*
X127254000Y-74299000D01*
X77978000Y-86995000D02*
X79166900Y-86995000D01*
X79166900Y-86995000D02*
X79166900Y-80980100D01*
X79166900Y-80980100D02*
X87630000Y-72517000D01*
X77978000Y-93345000D02*
X77978000Y-86995000D01*
X126742000Y-75565000D02*
X127254000Y-75565000D01*
X93218000Y-93345000D02*
X93218000Y-86995000D01*
X80518000Y-116205000D02*
X80518000Y-108585000D01*
X88651100Y-101121000D02*
X98233100Y-101121000D01*
X81706900Y-108065000D02*
X88651100Y-101121000D01*
X81706900Y-108585000D02*
X81706900Y-108065000D01*
X80518000Y-108585000D02*
X81706900Y-108585000D01*
X77978000Y-108585000D02*
X77978000Y-116205000D01*
X95758000Y-108585000D02*
X95758000Y-116205000D01*
X98298000Y-108585000D02*
X98298000Y-116205000D01*
X100838000Y-108585000D02*
X100838000Y-116205000D01*
X103378000Y-108585000D02*
X103378000Y-116205000D01*
X105918000Y-108585000D02*
X105918000Y-116205000D01*
X108458000Y-108585000D02*
X108458000Y-116205000D01*
X110998000Y-108585000D02*
X110998000Y-116205000D01*
X113538000Y-108585000D02*
X113538000Y-116205000D01*
X116078000Y-108585000D02*
X116078000Y-116205000D01*
X102189000Y-74376100D02*
X98298000Y-70485000D01*
X102189000Y-94027400D02*
X102189000Y-74376100D01*
X102858000Y-94696100D02*
X102189000Y-94027400D01*
X103378000Y-94696100D02*
X102858000Y-94696100D01*
X103378000Y-95885000D02*
X103378000Y-94696100D01*
X104648000Y-70485000D02*
X105635828Y-70485000D01*
X105635828Y-70485000D02*
X112268000Y-70485000D01*
X103378000Y-98425000D02*
X103378000Y-97236100D01*
X103378000Y-97236100D02*
X104418000Y-97236100D01*
X104729000Y-96925400D02*
X104729000Y-77512000D01*
X104418000Y-97236100D02*
X104729000Y-96925400D01*
X104729000Y-77512000D02*
X103588000Y-76371400D01*
X103588000Y-76371400D02*
X103588000Y-71545000D01*
X103588000Y-71545000D02*
X104648000Y-70485000D01*
X58999400Y-94686400D02*
X60198000Y-95885000D01*
X58999400Y-76977700D02*
X58999400Y-94686400D01*
X55118000Y-73096300D02*
X58999400Y-76977700D01*
X55118000Y-71755000D02*
X55118000Y-73096300D01*
X60198000Y-93345000D02*
X60198000Y-86995000D01*
X62738000Y-93345000D02*
X62738000Y-86995000D01*
X65278000Y-93345000D02*
X65278000Y-86995000D01*
X67818000Y-93345000D02*
X67818000Y-86995000D01*
X70358000Y-93345000D02*
X70358000Y-86995000D01*
X72898000Y-93345000D02*
X72898000Y-86995000D01*
X95758000Y-93345000D02*
X95758000Y-86995000D01*
X98298000Y-93345000D02*
X98298000Y-86995000D01*
X100838000Y-93345000D02*
X100838000Y-86995000D01*
X103378000Y-93345000D02*
X103378000Y-86995000D01*
X105918000Y-93345000D02*
X105918000Y-86995000D01*
X108458000Y-93345000D02*
X108458000Y-86995000D01*
X110998000Y-93345000D02*
X110998000Y-86995000D01*
X113538000Y-93345000D02*
X113538000Y-86995000D01*
X116078000Y-93345000D02*
X116078000Y-86995000D01*
X65278000Y-108585000D02*
X65278000Y-116205000D01*
X93218000Y-108585000D02*
X93218000Y-116205000D01*
M02*
