M48
;DRILL file {KiCad 4.0.4-stable} date 01/06/17 20:42:47
;FORMAT={-:-/ absolute / metric / decimal}
FMAT,2
METRIC,TZ
T1C0.400
T2C0.813
T3C1.016
T4C1.300
T5C3.048
%
G90
G05
M71
T1
X94.488Y-72.517
X98.233Y-101.121
X100.838Y-79.121
X109.104Y-107.074
X114.061Y-105.865
X115.57Y-72.517
X125.222Y-79.121
X128.14Y-94.686
X129.032Y-83.355
X129.428Y-92.124
X131.287Y-91.491
X133.604Y-88.011
X140.03Y-78.288
X144.78Y-101.981
T2
X90.678Y-70.485
X90.678Y-75.565
X98.298Y-70.485
X98.298Y-75.565
X104.648Y-70.485
X104.648Y-75.565
X112.268Y-70.485
X112.268Y-75.565
T3
X47.498Y-78.105
X47.498Y-80.645
X47.498Y-83.185
X52.578Y-71.755
X55.118Y-71.755
X57.658Y-86.995
X57.658Y-93.345
X57.658Y-108.585
X57.658Y-116.205
X60.198Y-81.915
X60.198Y-84.455
X60.198Y-86.995
X60.198Y-93.345
X60.198Y-95.885
X60.198Y-108.585
X60.198Y-116.205
X60.198Y-118.745
X60.198Y-121.285
X62.738Y-81.915
X62.738Y-84.455
X62.738Y-86.995
X62.738Y-93.345
X62.738Y-108.585
X62.738Y-116.205
X62.738Y-118.745
X62.738Y-121.285
X65.278Y-81.915
X65.278Y-84.455
X65.278Y-86.995
X65.278Y-93.345
X65.278Y-95.885
X65.278Y-108.585
X65.278Y-116.205
X65.278Y-118.745
X65.278Y-121.285
X67.818Y-81.915
X67.818Y-84.455
X67.818Y-86.995
X67.818Y-93.345
X67.818Y-95.885
X67.818Y-108.585
X67.818Y-116.205
X67.818Y-118.745
X67.818Y-121.285
X70.358Y-81.915
X70.358Y-84.455
X70.358Y-86.995
X70.358Y-93.345
X70.358Y-95.885
X70.358Y-108.585
X70.358Y-116.205
X70.358Y-118.745
X70.358Y-121.285
X72.898Y-81.915
X72.898Y-84.455
X72.898Y-86.995
X72.898Y-93.345
X72.898Y-108.585
X72.898Y-116.205
X72.898Y-118.745
X72.898Y-121.285
X75.438Y-81.915
X75.438Y-84.455
X75.438Y-86.995
X75.438Y-93.345
X75.438Y-108.585
X75.438Y-116.205
X75.438Y-118.745
X75.438Y-121.285
X77.978Y-81.915
X77.978Y-84.455
X77.978Y-86.995
X77.978Y-93.345
X77.978Y-108.585
X77.978Y-116.205
X77.978Y-118.745
X77.978Y-121.285
X80.518Y-81.915
X80.518Y-84.455
X80.518Y-86.995
X80.518Y-93.345
X80.518Y-108.585
X80.518Y-116.205
X80.518Y-118.745
X80.518Y-121.285
X83.058Y-81.915
X83.058Y-84.455
X83.058Y-86.995
X83.058Y-93.345
X83.058Y-108.585
X83.058Y-116.205
X83.058Y-118.745
X83.058Y-121.285
X85.598Y-81.915
X85.598Y-84.455
X85.598Y-86.995
X85.598Y-93.345
X85.598Y-108.585
X85.598Y-116.205
X85.598Y-118.745
X85.598Y-121.285
X88.138Y-81.915
X88.138Y-84.455
X88.138Y-86.995
X88.138Y-93.345
X88.138Y-108.585
X88.138Y-116.205
X88.138Y-118.745
X88.138Y-121.285
X90.678Y-81.915
X90.678Y-84.455
X90.678Y-86.995
X90.678Y-93.345
X90.678Y-108.585
X90.678Y-116.205
X90.678Y-118.745
X90.678Y-121.285
X93.218Y-86.995
X93.218Y-93.345
X93.218Y-108.585
X93.218Y-116.205
X95.758Y-81.915
X95.758Y-84.455
X95.758Y-86.995
X95.758Y-93.345
X95.758Y-108.585
X95.758Y-116.205
X95.758Y-118.745
X95.758Y-121.285
X98.298Y-81.915
X98.298Y-84.455
X98.298Y-86.995
X98.298Y-93.345
X98.298Y-108.585
X98.298Y-116.205
X98.298Y-118.745
X98.298Y-121.285
X100.838Y-81.915
X100.838Y-84.455
X100.838Y-86.995
X100.838Y-93.345
X100.838Y-108.585
X100.838Y-116.205
X100.838Y-118.745
X100.838Y-121.285
X103.378Y-81.915
X103.378Y-84.455
X103.378Y-86.995
X103.378Y-93.345
X103.378Y-95.885
X103.378Y-98.425
X103.378Y-100.965
X103.378Y-103.505
X103.378Y-106.045
X103.378Y-108.585
X103.378Y-116.205
X103.378Y-118.745
X103.378Y-121.285
X105.918Y-81.915
X105.918Y-84.455
X105.918Y-86.995
X105.918Y-93.345
X105.918Y-108.585
X105.918Y-116.205
X105.918Y-118.745
X105.918Y-121.285
X108.458Y-81.915
X108.458Y-84.455
X108.458Y-86.995
X108.458Y-93.345
X108.458Y-108.585
X108.458Y-116.205
X108.458Y-118.745
X108.458Y-121.285
X110.998Y-81.915
X110.998Y-84.455
X110.998Y-86.995
X110.998Y-93.345
X110.998Y-108.585
X110.998Y-116.205
X110.998Y-118.745
X110.998Y-121.285
X113.538Y-81.915
X113.538Y-84.455
X113.538Y-86.995
X113.538Y-93.345
X113.538Y-108.585
X113.538Y-116.205
X113.538Y-118.745
X113.538Y-121.285
X116.078Y-81.915
X116.078Y-84.455
X116.078Y-86.995
X116.078Y-93.345
X116.078Y-108.585
X116.078Y-116.205
X116.078Y-118.745
X116.078Y-121.285
X124.714Y-75.565
X127.254Y-75.565
X129.794Y-75.565
X132.334Y-75.565
X133.858Y-123.825
X134.874Y-75.565
X136.398Y-123.825
X137.414Y-75.565
X138.938Y-123.825
X139.954Y-75.565
X141.478Y-123.825
X142.494Y-75.565
X144.018Y-123.825
X145.034Y-75.565
X146.558Y-123.825
X147.574Y-75.565
X149.098Y-123.825
X151.638Y-75.565
X151.638Y-123.825
X154.178Y-75.565
X156.718Y-75.565
X156.718Y-123.825
X159.258Y-75.565
X159.258Y-123.825
X161.798Y-75.565
X161.798Y-123.825
X164.338Y-75.565
X164.338Y-123.825
X166.878Y-75.565
X166.878Y-123.825
X169.418Y-75.565
X169.418Y-123.825
T4
X44.328Y-122.555
X48.128Y-117.554
X48.128Y-127.556
T5
X65.278Y-71.755
X74.168Y-131.445
X175.768Y-80.645
X175.768Y-121.285
T0
M30
