G04 #@! TF.FileFunction,Other,Fab,Top*
%FSLAX46Y46*%
G04 Gerber Fmt 4.6, Leading zero omitted, Abs format (unit mm)*
G04 Created by KiCad (PCBNEW 4.0.4-stable) date 01/06/17 20:42:42*
%MOMM*%
%LPD*%
G01*
G04 APERTURE LIST*
%ADD10C,0.100000*%
%ADD11C,0.150000*%
G04 APERTURE END LIST*
D10*
D11*
X140771809Y-120213381D02*
X140771809Y-119213381D01*
X141152762Y-119213381D01*
X141248000Y-119261000D01*
X141295619Y-119308619D01*
X141343238Y-119403857D01*
X141343238Y-119546714D01*
X141295619Y-119641952D01*
X141248000Y-119689571D01*
X141152762Y-119737190D01*
X140771809Y-119737190D01*
X141914666Y-120213381D02*
X141819428Y-120165762D01*
X141771809Y-120118143D01*
X141724190Y-120022905D01*
X141724190Y-119737190D01*
X141771809Y-119641952D01*
X141819428Y-119594333D01*
X141914666Y-119546714D01*
X142057524Y-119546714D01*
X142152762Y-119594333D01*
X142200381Y-119641952D01*
X142248000Y-119737190D01*
X142248000Y-120022905D01*
X142200381Y-120118143D01*
X142152762Y-120165762D01*
X142057524Y-120213381D01*
X141914666Y-120213381D01*
X142581333Y-119546714D02*
X142771809Y-120213381D01*
X142962286Y-119737190D01*
X143152762Y-120213381D01*
X143343238Y-119546714D01*
X144105143Y-120165762D02*
X144009905Y-120213381D01*
X143819428Y-120213381D01*
X143724190Y-120165762D01*
X143676571Y-120070524D01*
X143676571Y-119689571D01*
X143724190Y-119594333D01*
X143819428Y-119546714D01*
X144009905Y-119546714D01*
X144105143Y-119594333D01*
X144152762Y-119689571D01*
X144152762Y-119784810D01*
X143676571Y-119880048D01*
X144581333Y-120213381D02*
X144581333Y-119546714D01*
X144581333Y-119737190D02*
X144628952Y-119641952D01*
X144676571Y-119594333D01*
X144771809Y-119546714D01*
X144867048Y-119546714D01*
X161012476Y-119927667D02*
X161488667Y-119927667D01*
X160917238Y-120213381D02*
X161250571Y-119213381D01*
X161583905Y-120213381D01*
X161917238Y-119546714D02*
X161917238Y-120213381D01*
X161917238Y-119641952D02*
X161964857Y-119594333D01*
X162060095Y-119546714D01*
X162202953Y-119546714D01*
X162298191Y-119594333D01*
X162345810Y-119689571D01*
X162345810Y-120213381D01*
X163250572Y-120213381D02*
X163250572Y-119689571D01*
X163202953Y-119594333D01*
X163107715Y-119546714D01*
X162917238Y-119546714D01*
X162822000Y-119594333D01*
X163250572Y-120165762D02*
X163155334Y-120213381D01*
X162917238Y-120213381D01*
X162822000Y-120165762D01*
X162774381Y-120070524D01*
X162774381Y-119975286D01*
X162822000Y-119880048D01*
X162917238Y-119832429D01*
X163155334Y-119832429D01*
X163250572Y-119784810D01*
X163869619Y-120213381D02*
X163774381Y-120165762D01*
X163726762Y-120070524D01*
X163726762Y-119213381D01*
X164393429Y-120213381D02*
X164298191Y-120165762D01*
X164250572Y-120118143D01*
X164202953Y-120022905D01*
X164202953Y-119737190D01*
X164250572Y-119641952D01*
X164298191Y-119594333D01*
X164393429Y-119546714D01*
X164536287Y-119546714D01*
X164631525Y-119594333D01*
X164679144Y-119641952D01*
X164726763Y-119737190D01*
X164726763Y-120022905D01*
X164679144Y-120118143D01*
X164631525Y-120165762D01*
X164536287Y-120213381D01*
X164393429Y-120213381D01*
X165583906Y-119546714D02*
X165583906Y-120356238D01*
X165536287Y-120451476D01*
X165488668Y-120499095D01*
X165393429Y-120546714D01*
X165250572Y-120546714D01*
X165155334Y-120499095D01*
X165583906Y-120165762D02*
X165488668Y-120213381D01*
X165298191Y-120213381D01*
X165202953Y-120165762D01*
X165155334Y-120118143D01*
X165107715Y-120022905D01*
X165107715Y-119737190D01*
X165155334Y-119641952D01*
X165202953Y-119594333D01*
X165298191Y-119546714D01*
X165488668Y-119546714D01*
X165583906Y-119594333D01*
X133953524Y-80335381D02*
X133953524Y-79335381D01*
X134191619Y-79335381D01*
X134334477Y-79383000D01*
X134429715Y-79478238D01*
X134477334Y-79573476D01*
X134524953Y-79763952D01*
X134524953Y-79906810D01*
X134477334Y-80097286D01*
X134429715Y-80192524D01*
X134334477Y-80287762D01*
X134191619Y-80335381D01*
X133953524Y-80335381D01*
X134953524Y-80335381D02*
X134953524Y-79668714D01*
X134953524Y-79335381D02*
X134905905Y-79383000D01*
X134953524Y-79430619D01*
X135001143Y-79383000D01*
X134953524Y-79335381D01*
X134953524Y-79430619D01*
X135858286Y-79668714D02*
X135858286Y-80478238D01*
X135810667Y-80573476D01*
X135763048Y-80621095D01*
X135667809Y-80668714D01*
X135524952Y-80668714D01*
X135429714Y-80621095D01*
X135858286Y-80287762D02*
X135763048Y-80335381D01*
X135572571Y-80335381D01*
X135477333Y-80287762D01*
X135429714Y-80240143D01*
X135382095Y-80144905D01*
X135382095Y-79859190D01*
X135429714Y-79763952D01*
X135477333Y-79716333D01*
X135572571Y-79668714D01*
X135763048Y-79668714D01*
X135858286Y-79716333D01*
X136334476Y-80335381D02*
X136334476Y-79668714D01*
X136334476Y-79335381D02*
X136286857Y-79383000D01*
X136334476Y-79430619D01*
X136382095Y-79383000D01*
X136334476Y-79335381D01*
X136334476Y-79430619D01*
X136667809Y-79668714D02*
X137048761Y-79668714D01*
X136810666Y-79335381D02*
X136810666Y-80192524D01*
X136858285Y-80287762D01*
X136953523Y-80335381D01*
X137048761Y-80335381D01*
X137810667Y-80335381D02*
X137810667Y-79811571D01*
X137763048Y-79716333D01*
X137667810Y-79668714D01*
X137477333Y-79668714D01*
X137382095Y-79716333D01*
X137810667Y-80287762D02*
X137715429Y-80335381D01*
X137477333Y-80335381D01*
X137382095Y-80287762D01*
X137334476Y-80192524D01*
X137334476Y-80097286D01*
X137382095Y-80002048D01*
X137477333Y-79954429D01*
X137715429Y-79954429D01*
X137810667Y-79906810D01*
X138429714Y-80335381D02*
X138334476Y-80287762D01*
X138286857Y-80192524D01*
X138286857Y-79335381D01*
X158337524Y-80335381D02*
X158337524Y-79335381D01*
X158575619Y-79335381D01*
X158718477Y-79383000D01*
X158813715Y-79478238D01*
X158861334Y-79573476D01*
X158908953Y-79763952D01*
X158908953Y-79906810D01*
X158861334Y-80097286D01*
X158813715Y-80192524D01*
X158718477Y-80287762D01*
X158575619Y-80335381D01*
X158337524Y-80335381D01*
X159337524Y-80335381D02*
X159337524Y-79668714D01*
X159337524Y-79335381D02*
X159289905Y-79383000D01*
X159337524Y-79430619D01*
X159385143Y-79383000D01*
X159337524Y-79335381D01*
X159337524Y-79430619D01*
X160242286Y-79668714D02*
X160242286Y-80478238D01*
X160194667Y-80573476D01*
X160147048Y-80621095D01*
X160051809Y-80668714D01*
X159908952Y-80668714D01*
X159813714Y-80621095D01*
X160242286Y-80287762D02*
X160147048Y-80335381D01*
X159956571Y-80335381D01*
X159861333Y-80287762D01*
X159813714Y-80240143D01*
X159766095Y-80144905D01*
X159766095Y-79859190D01*
X159813714Y-79763952D01*
X159861333Y-79716333D01*
X159956571Y-79668714D01*
X160147048Y-79668714D01*
X160242286Y-79716333D01*
X160718476Y-80335381D02*
X160718476Y-79668714D01*
X160718476Y-79335381D02*
X160670857Y-79383000D01*
X160718476Y-79430619D01*
X160766095Y-79383000D01*
X160718476Y-79335381D01*
X160718476Y-79430619D01*
X161051809Y-79668714D02*
X161432761Y-79668714D01*
X161194666Y-79335381D02*
X161194666Y-80192524D01*
X161242285Y-80287762D01*
X161337523Y-80335381D01*
X161432761Y-80335381D01*
X162194667Y-80335381D02*
X162194667Y-79811571D01*
X162147048Y-79716333D01*
X162051810Y-79668714D01*
X161861333Y-79668714D01*
X161766095Y-79716333D01*
X162194667Y-80287762D02*
X162099429Y-80335381D01*
X161861333Y-80335381D01*
X161766095Y-80287762D01*
X161718476Y-80192524D01*
X161718476Y-80097286D01*
X161766095Y-80002048D01*
X161861333Y-79954429D01*
X162099429Y-79954429D01*
X162194667Y-79906810D01*
X162813714Y-80335381D02*
X162718476Y-80287762D01*
X162670857Y-80192524D01*
X162670857Y-79335381D01*
X93015143Y-122768809D02*
X93062762Y-122816428D01*
X93110381Y-122959285D01*
X93110381Y-123054523D01*
X93062762Y-123197381D01*
X92967524Y-123292619D01*
X92872286Y-123340238D01*
X92681810Y-123387857D01*
X92538952Y-123387857D01*
X92348476Y-123340238D01*
X92253238Y-123292619D01*
X92158000Y-123197381D01*
X92110381Y-123054523D01*
X92110381Y-122959285D01*
X92158000Y-122816428D01*
X92205619Y-122768809D01*
X92110381Y-122149762D02*
X92110381Y-121959285D01*
X92158000Y-121864047D01*
X92253238Y-121768809D01*
X92443714Y-121721190D01*
X92777048Y-121721190D01*
X92967524Y-121768809D01*
X93062762Y-121864047D01*
X93110381Y-121959285D01*
X93110381Y-122149762D01*
X93062762Y-122245000D01*
X92967524Y-122340238D01*
X92777048Y-122387857D01*
X92443714Y-122387857D01*
X92253238Y-122340238D01*
X92158000Y-122245000D01*
X92110381Y-122149762D01*
X93110381Y-121292619D02*
X92110381Y-121292619D01*
X93110381Y-120721190D01*
X92110381Y-120721190D01*
X93110381Y-120245000D02*
X92110381Y-120245000D01*
X93110381Y-119673571D01*
X92110381Y-119673571D01*
X93205619Y-119435476D02*
X93205619Y-118673571D01*
X92110381Y-118245000D02*
X92110381Y-118149761D01*
X92158000Y-118054523D01*
X92205619Y-118006904D01*
X92300857Y-117959285D01*
X92491333Y-117911666D01*
X92729429Y-117911666D01*
X92919905Y-117959285D01*
X93015143Y-118006904D01*
X93062762Y-118054523D01*
X93110381Y-118149761D01*
X93110381Y-118245000D01*
X93062762Y-118340238D01*
X93015143Y-118387857D01*
X92919905Y-118435476D01*
X92729429Y-118483095D01*
X92491333Y-118483095D01*
X92300857Y-118435476D01*
X92205619Y-118387857D01*
X92158000Y-118340238D01*
X92110381Y-118245000D01*
X93110381Y-116959285D02*
X93110381Y-117530714D01*
X93110381Y-117245000D02*
X92110381Y-117245000D01*
X92253238Y-117340238D01*
X92348476Y-117435476D01*
X92396095Y-117530714D01*
X92110381Y-116625952D02*
X93110381Y-115959285D01*
X92110381Y-115959285D02*
X93110381Y-116625952D01*
X92110381Y-115387857D02*
X92110381Y-115292618D01*
X92158000Y-115197380D01*
X92205619Y-115149761D01*
X92300857Y-115102142D01*
X92491333Y-115054523D01*
X92729429Y-115054523D01*
X92919905Y-115102142D01*
X93015143Y-115149761D01*
X93062762Y-115197380D01*
X93110381Y-115292618D01*
X93110381Y-115387857D01*
X93062762Y-115483095D01*
X93015143Y-115530714D01*
X92919905Y-115578333D01*
X92729429Y-115625952D01*
X92491333Y-115625952D01*
X92300857Y-115578333D01*
X92205619Y-115530714D01*
X92158000Y-115483095D01*
X92110381Y-115387857D01*
X93110381Y-114578333D02*
X93110381Y-114387857D01*
X93062762Y-114292618D01*
X93015143Y-114244999D01*
X92872286Y-114149761D01*
X92681810Y-114102142D01*
X92300857Y-114102142D01*
X92205619Y-114149761D01*
X92158000Y-114197380D01*
X92110381Y-114292618D01*
X92110381Y-114483095D01*
X92158000Y-114578333D01*
X92205619Y-114625952D01*
X92300857Y-114673571D01*
X92538952Y-114673571D01*
X92634190Y-114625952D01*
X92681810Y-114578333D01*
X92729429Y-114483095D01*
X92729429Y-114292618D01*
X92681810Y-114197380D01*
X92634190Y-114149761D01*
X92538952Y-114102142D01*
X93015143Y-85938809D02*
X93062762Y-85986428D01*
X93110381Y-86129285D01*
X93110381Y-86224523D01*
X93062762Y-86367381D01*
X92967524Y-86462619D01*
X92872286Y-86510238D01*
X92681810Y-86557857D01*
X92538952Y-86557857D01*
X92348476Y-86510238D01*
X92253238Y-86462619D01*
X92158000Y-86367381D01*
X92110381Y-86224523D01*
X92110381Y-86129285D01*
X92158000Y-85986428D01*
X92205619Y-85938809D01*
X92110381Y-85319762D02*
X92110381Y-85129285D01*
X92158000Y-85034047D01*
X92253238Y-84938809D01*
X92443714Y-84891190D01*
X92777048Y-84891190D01*
X92967524Y-84938809D01*
X93062762Y-85034047D01*
X93110381Y-85129285D01*
X93110381Y-85319762D01*
X93062762Y-85415000D01*
X92967524Y-85510238D01*
X92777048Y-85557857D01*
X92443714Y-85557857D01*
X92253238Y-85510238D01*
X92158000Y-85415000D01*
X92110381Y-85319762D01*
X93110381Y-84462619D02*
X92110381Y-84462619D01*
X93110381Y-83891190D01*
X92110381Y-83891190D01*
X93110381Y-83415000D02*
X92110381Y-83415000D01*
X93110381Y-82843571D01*
X92110381Y-82843571D01*
X93205619Y-82605476D02*
X93205619Y-81843571D01*
X92110381Y-81415000D02*
X92110381Y-81319761D01*
X92158000Y-81224523D01*
X92205619Y-81176904D01*
X92300857Y-81129285D01*
X92491333Y-81081666D01*
X92729429Y-81081666D01*
X92919905Y-81129285D01*
X93015143Y-81176904D01*
X93062762Y-81224523D01*
X93110381Y-81319761D01*
X93110381Y-81415000D01*
X93062762Y-81510238D01*
X93015143Y-81557857D01*
X92919905Y-81605476D01*
X92729429Y-81653095D01*
X92491333Y-81653095D01*
X92300857Y-81605476D01*
X92205619Y-81557857D01*
X92158000Y-81510238D01*
X92110381Y-81415000D01*
X93110381Y-80129285D02*
X93110381Y-80700714D01*
X93110381Y-80415000D02*
X92110381Y-80415000D01*
X92253238Y-80510238D01*
X92348476Y-80605476D01*
X92396095Y-80700714D01*
X92110381Y-79795952D02*
X93110381Y-79129285D01*
X92110381Y-79129285D02*
X93110381Y-79795952D01*
X93110381Y-78224523D02*
X93110381Y-78795952D01*
X93110381Y-78510238D02*
X92110381Y-78510238D01*
X92253238Y-78605476D01*
X92348476Y-78700714D01*
X92396095Y-78795952D01*
X92110381Y-77605476D02*
X92110381Y-77510237D01*
X92158000Y-77414999D01*
X92205619Y-77367380D01*
X92300857Y-77319761D01*
X92491333Y-77272142D01*
X92729429Y-77272142D01*
X92919905Y-77319761D01*
X93015143Y-77367380D01*
X93062762Y-77414999D01*
X93110381Y-77510237D01*
X93110381Y-77605476D01*
X93062762Y-77700714D01*
X93015143Y-77748333D01*
X92919905Y-77795952D01*
X92729429Y-77843571D01*
X92491333Y-77843571D01*
X92300857Y-77795952D01*
X92205619Y-77748333D01*
X92158000Y-77700714D01*
X92110381Y-77605476D01*
X53634191Y-105842143D02*
X53586572Y-105889762D01*
X53443715Y-105937381D01*
X53348477Y-105937381D01*
X53205619Y-105889762D01*
X53110381Y-105794524D01*
X53062762Y-105699286D01*
X53015143Y-105508810D01*
X53015143Y-105365952D01*
X53062762Y-105175476D01*
X53110381Y-105080238D01*
X53205619Y-104985000D01*
X53348477Y-104937381D01*
X53443715Y-104937381D01*
X53586572Y-104985000D01*
X53634191Y-105032619D01*
X54253238Y-104937381D02*
X54443715Y-104937381D01*
X54538953Y-104985000D01*
X54634191Y-105080238D01*
X54681810Y-105270714D01*
X54681810Y-105604048D01*
X54634191Y-105794524D01*
X54538953Y-105889762D01*
X54443715Y-105937381D01*
X54253238Y-105937381D01*
X54158000Y-105889762D01*
X54062762Y-105794524D01*
X54015143Y-105604048D01*
X54015143Y-105270714D01*
X54062762Y-105080238D01*
X54158000Y-104985000D01*
X54253238Y-104937381D01*
X55110381Y-105937381D02*
X55110381Y-104937381D01*
X55681810Y-105937381D01*
X55681810Y-104937381D01*
X56158000Y-105937381D02*
X56158000Y-104937381D01*
X56729429Y-105937381D01*
X56729429Y-104937381D01*
X56967524Y-106032619D02*
X57729429Y-106032619D01*
X58158000Y-104937381D02*
X58253239Y-104937381D01*
X58348477Y-104985000D01*
X58396096Y-105032619D01*
X58443715Y-105127857D01*
X58491334Y-105318333D01*
X58491334Y-105556429D01*
X58443715Y-105746905D01*
X58396096Y-105842143D01*
X58348477Y-105889762D01*
X58253239Y-105937381D01*
X58158000Y-105937381D01*
X58062762Y-105889762D01*
X58015143Y-105842143D01*
X57967524Y-105746905D01*
X57919905Y-105556429D01*
X57919905Y-105318333D01*
X57967524Y-105127857D01*
X58015143Y-105032619D01*
X58062762Y-104985000D01*
X58158000Y-104937381D01*
X59443715Y-105937381D02*
X58872286Y-105937381D01*
X59158000Y-105937381D02*
X59158000Y-104937381D01*
X59062762Y-105080238D01*
X58967524Y-105175476D01*
X58872286Y-105223095D01*
X59777048Y-104937381D02*
X60443715Y-105937381D01*
X60443715Y-104937381D02*
X59777048Y-105937381D01*
X60777048Y-105032619D02*
X60824667Y-104985000D01*
X60919905Y-104937381D01*
X61158001Y-104937381D01*
X61253239Y-104985000D01*
X61300858Y-105032619D01*
X61348477Y-105127857D01*
X61348477Y-105223095D01*
X61300858Y-105365952D01*
X60729429Y-105937381D01*
X61348477Y-105937381D01*
X62205620Y-105270714D02*
X62205620Y-105937381D01*
X61967524Y-104889762D02*
X61729429Y-105604048D01*
X62348477Y-105604048D01*
X56174191Y-93142143D02*
X56126572Y-93189762D01*
X55983715Y-93237381D01*
X55888477Y-93237381D01*
X55745619Y-93189762D01*
X55650381Y-93094524D01*
X55602762Y-92999286D01*
X55555143Y-92808810D01*
X55555143Y-92665952D01*
X55602762Y-92475476D01*
X55650381Y-92380238D01*
X55745619Y-92285000D01*
X55888477Y-92237381D01*
X55983715Y-92237381D01*
X56126572Y-92285000D01*
X56174191Y-92332619D01*
X56793238Y-92237381D02*
X56983715Y-92237381D01*
X57078953Y-92285000D01*
X57174191Y-92380238D01*
X57221810Y-92570714D01*
X57221810Y-92904048D01*
X57174191Y-93094524D01*
X57078953Y-93189762D01*
X56983715Y-93237381D01*
X56793238Y-93237381D01*
X56698000Y-93189762D01*
X56602762Y-93094524D01*
X56555143Y-92904048D01*
X56555143Y-92570714D01*
X56602762Y-92380238D01*
X56698000Y-92285000D01*
X56793238Y-92237381D01*
X57650381Y-93237381D02*
X57650381Y-92237381D01*
X58221810Y-93237381D01*
X58221810Y-92237381D01*
X58698000Y-93237381D02*
X58698000Y-92237381D01*
X59269429Y-93237381D01*
X59269429Y-92237381D01*
X59507524Y-93332619D02*
X60269429Y-93332619D01*
X60698000Y-92237381D02*
X60793239Y-92237381D01*
X60888477Y-92285000D01*
X60936096Y-92332619D01*
X60983715Y-92427857D01*
X61031334Y-92618333D01*
X61031334Y-92856429D01*
X60983715Y-93046905D01*
X60936096Y-93142143D01*
X60888477Y-93189762D01*
X60793239Y-93237381D01*
X60698000Y-93237381D01*
X60602762Y-93189762D01*
X60555143Y-93142143D01*
X60507524Y-93046905D01*
X60459905Y-92856429D01*
X60459905Y-92618333D01*
X60507524Y-92427857D01*
X60555143Y-92332619D01*
X60602762Y-92285000D01*
X60698000Y-92237381D01*
X61983715Y-93237381D02*
X61412286Y-93237381D01*
X61698000Y-93237381D02*
X61698000Y-92237381D01*
X61602762Y-92380238D01*
X61507524Y-92475476D01*
X61412286Y-92523095D01*
X62317048Y-92237381D02*
X62983715Y-93237381D01*
X62983715Y-92237381D02*
X62317048Y-93237381D01*
X63555143Y-92237381D02*
X63650382Y-92237381D01*
X63745620Y-92285000D01*
X63793239Y-92332619D01*
X63840858Y-92427857D01*
X63888477Y-92618333D01*
X63888477Y-92856429D01*
X63840858Y-93046905D01*
X63793239Y-93142143D01*
X63745620Y-93189762D01*
X63650382Y-93237381D01*
X63555143Y-93237381D01*
X63459905Y-93189762D01*
X63412286Y-93142143D01*
X63364667Y-93046905D01*
X63317048Y-92856429D01*
X63317048Y-92618333D01*
X63364667Y-92427857D01*
X63412286Y-92332619D01*
X63459905Y-92285000D01*
X63555143Y-92237381D01*
X64840858Y-93237381D02*
X64269429Y-93237381D01*
X64555143Y-93237381D02*
X64555143Y-92237381D01*
X64459905Y-92380238D01*
X64364667Y-92475476D01*
X64269429Y-92523095D01*
X57455143Y-85938809D02*
X57502762Y-85986428D01*
X57550381Y-86129285D01*
X57550381Y-86224523D01*
X57502762Y-86367381D01*
X57407524Y-86462619D01*
X57312286Y-86510238D01*
X57121810Y-86557857D01*
X56978952Y-86557857D01*
X56788476Y-86510238D01*
X56693238Y-86462619D01*
X56598000Y-86367381D01*
X56550381Y-86224523D01*
X56550381Y-86129285D01*
X56598000Y-85986428D01*
X56645619Y-85938809D01*
X56550381Y-85319762D02*
X56550381Y-85129285D01*
X56598000Y-85034047D01*
X56693238Y-84938809D01*
X56883714Y-84891190D01*
X57217048Y-84891190D01*
X57407524Y-84938809D01*
X57502762Y-85034047D01*
X57550381Y-85129285D01*
X57550381Y-85319762D01*
X57502762Y-85415000D01*
X57407524Y-85510238D01*
X57217048Y-85557857D01*
X56883714Y-85557857D01*
X56693238Y-85510238D01*
X56598000Y-85415000D01*
X56550381Y-85319762D01*
X57550381Y-84462619D02*
X56550381Y-84462619D01*
X57550381Y-83891190D01*
X56550381Y-83891190D01*
X57550381Y-83415000D02*
X56550381Y-83415000D01*
X57550381Y-82843571D01*
X56550381Y-82843571D01*
X57645619Y-82605476D02*
X57645619Y-81843571D01*
X56550381Y-81415000D02*
X56550381Y-81319761D01*
X56598000Y-81224523D01*
X56645619Y-81176904D01*
X56740857Y-81129285D01*
X56931333Y-81081666D01*
X57169429Y-81081666D01*
X57359905Y-81129285D01*
X57455143Y-81176904D01*
X57502762Y-81224523D01*
X57550381Y-81319761D01*
X57550381Y-81415000D01*
X57502762Y-81510238D01*
X57455143Y-81557857D01*
X57359905Y-81605476D01*
X57169429Y-81653095D01*
X56931333Y-81653095D01*
X56740857Y-81605476D01*
X56645619Y-81557857D01*
X56598000Y-81510238D01*
X56550381Y-81415000D01*
X57550381Y-80129285D02*
X57550381Y-80700714D01*
X57550381Y-80415000D02*
X56550381Y-80415000D01*
X56693238Y-80510238D01*
X56788476Y-80605476D01*
X56836095Y-80700714D01*
X56550381Y-79795952D02*
X57550381Y-79129285D01*
X56550381Y-79129285D02*
X57550381Y-79795952D01*
X57550381Y-78224523D02*
X57550381Y-78795952D01*
X57550381Y-78510238D02*
X56550381Y-78510238D01*
X56693238Y-78605476D01*
X56788476Y-78700714D01*
X56836095Y-78795952D01*
X56550381Y-77891190D02*
X56550381Y-77272142D01*
X56931333Y-77605476D01*
X56931333Y-77462618D01*
X56978952Y-77367380D01*
X57026571Y-77319761D01*
X57121810Y-77272142D01*
X57359905Y-77272142D01*
X57455143Y-77319761D01*
X57502762Y-77367380D01*
X57550381Y-77462618D01*
X57550381Y-77748333D01*
X57502762Y-77843571D01*
X57455143Y-77891190D01*
M02*
