G04 #@! TF.FileFunction,Copper,L2,Bot,Signal*
%FSLAX46Y46*%
G04 Gerber Fmt 4.6, Leading zero omitted, Abs format (unit mm)*
G04 Created by KiCad (PCBNEW 4.0.4-stable) date 11/26/16 14:06:43*
%MOMM*%
%LPD*%
G01*
G04 APERTURE LIST*
%ADD10C,0.100000*%
%ADD11C,2.499360*%
%ADD12R,2.032000X1.727200*%
%ADD13O,2.032000X1.727200*%
%ADD14R,1.727200X2.032000*%
%ADD15O,1.727200X2.032000*%
%ADD16R,1.727200X1.727200*%
%ADD17O,1.727200X1.727200*%
%ADD18R,2.235200X2.235200*%
%ADD19R,2.032000X2.032000*%
%ADD20O,2.032000X2.032000*%
%ADD21C,1.397000*%
%ADD22C,5.000000*%
%ADD23C,0.600000*%
%ADD24C,0.250000*%
G04 APERTURE END LIST*
D10*
D11*
X77627440Y-40640020D03*
X82628700Y-36840180D03*
X87629960Y-40640020D03*
D12*
X85090000Y-53340000D03*
D13*
X85090000Y-55880000D03*
X85090000Y-58420000D03*
X85090000Y-60960000D03*
X85090000Y-63500000D03*
X85090000Y-66040000D03*
X85090000Y-68580000D03*
X85090000Y-71120000D03*
X85090000Y-73660000D03*
X85090000Y-76200000D03*
X85090000Y-78740000D03*
X85090000Y-81280000D03*
X85090000Y-83820000D03*
D12*
X85090000Y-88900000D03*
D13*
X85090000Y-91440000D03*
X85090000Y-93980000D03*
X85090000Y-96520000D03*
X85090000Y-99060000D03*
X85090000Y-101600000D03*
X85090000Y-104140000D03*
X85090000Y-106680000D03*
X85090000Y-109220000D03*
D12*
X87630000Y-53340000D03*
D13*
X87630000Y-55880000D03*
X87630000Y-58420000D03*
X87630000Y-60960000D03*
X87630000Y-63500000D03*
X87630000Y-66040000D03*
X87630000Y-68580000D03*
X87630000Y-71120000D03*
X87630000Y-73660000D03*
X87630000Y-76200000D03*
X87630000Y-78740000D03*
X87630000Y-81280000D03*
X87630000Y-83820000D03*
D12*
X87630000Y-88900000D03*
D13*
X87630000Y-91440000D03*
X87630000Y-93980000D03*
X87630000Y-96520000D03*
X87630000Y-99060000D03*
X87630000Y-101600000D03*
X87630000Y-104140000D03*
X87630000Y-106680000D03*
X87630000Y-109220000D03*
D14*
X92710000Y-86360000D03*
D15*
X95250000Y-86360000D03*
X97790000Y-86360000D03*
D14*
X130810000Y-86360000D03*
D15*
X128270000Y-86360000D03*
X125730000Y-86360000D03*
D14*
X132080000Y-38100000D03*
D15*
X134620000Y-38100000D03*
X137160000Y-38100000D03*
D12*
X90170000Y-50800000D03*
D13*
X90170000Y-53340000D03*
X90170000Y-55880000D03*
X90170000Y-58420000D03*
X90170000Y-60960000D03*
X90170000Y-63500000D03*
X90170000Y-66040000D03*
X90170000Y-68580000D03*
X90170000Y-71120000D03*
X90170000Y-73660000D03*
X90170000Y-76200000D03*
X90170000Y-78740000D03*
X90170000Y-81280000D03*
X90170000Y-83820000D03*
X90170000Y-86360000D03*
X90170000Y-88900000D03*
X90170000Y-91440000D03*
X90170000Y-93980000D03*
X90170000Y-96520000D03*
X90170000Y-99060000D03*
X90170000Y-101600000D03*
X90170000Y-104140000D03*
X90170000Y-106680000D03*
X90170000Y-109220000D03*
D12*
X104140000Y-50800000D03*
D13*
X104140000Y-53340000D03*
X104140000Y-55880000D03*
X104140000Y-58420000D03*
X104140000Y-60960000D03*
X104140000Y-63500000D03*
X104140000Y-66040000D03*
X104140000Y-68580000D03*
X104140000Y-71120000D03*
X104140000Y-73660000D03*
X104140000Y-76200000D03*
X104140000Y-78740000D03*
X104140000Y-81280000D03*
X104140000Y-83820000D03*
X104140000Y-86360000D03*
X104140000Y-88900000D03*
X104140000Y-91440000D03*
X104140000Y-93980000D03*
X104140000Y-96520000D03*
X104140000Y-99060000D03*
X104140000Y-101600000D03*
X104140000Y-104140000D03*
X104140000Y-106680000D03*
X104140000Y-109220000D03*
D12*
X76200000Y-87630000D03*
D13*
X76200000Y-90170000D03*
X76200000Y-92710000D03*
D12*
X119380000Y-50800000D03*
D13*
X119380000Y-53340000D03*
X119380000Y-55880000D03*
X119380000Y-58420000D03*
X119380000Y-60960000D03*
X119380000Y-63500000D03*
X119380000Y-66040000D03*
X119380000Y-68580000D03*
X119380000Y-71120000D03*
X119380000Y-73660000D03*
X119380000Y-76200000D03*
X119380000Y-78740000D03*
X119380000Y-81280000D03*
X119380000Y-83820000D03*
X119380000Y-86360000D03*
X119380000Y-88900000D03*
X119380000Y-91440000D03*
X119380000Y-93980000D03*
X119380000Y-96520000D03*
X119380000Y-99060000D03*
X119380000Y-101600000D03*
X119380000Y-104140000D03*
X119380000Y-106680000D03*
X119380000Y-109220000D03*
D12*
X133350000Y-50800000D03*
D13*
X133350000Y-53340000D03*
X133350000Y-55880000D03*
X133350000Y-58420000D03*
X133350000Y-60960000D03*
X133350000Y-63500000D03*
X133350000Y-66040000D03*
X133350000Y-68580000D03*
X133350000Y-71120000D03*
X133350000Y-73660000D03*
X133350000Y-76200000D03*
X133350000Y-78740000D03*
X133350000Y-81280000D03*
X133350000Y-83820000D03*
X133350000Y-86360000D03*
X133350000Y-88900000D03*
X133350000Y-91440000D03*
X133350000Y-93980000D03*
X133350000Y-96520000D03*
X133350000Y-99060000D03*
X133350000Y-101600000D03*
X133350000Y-104140000D03*
X133350000Y-106680000D03*
X133350000Y-109220000D03*
D12*
X135890000Y-53340000D03*
D13*
X135890000Y-55880000D03*
X135890000Y-58420000D03*
X135890000Y-60960000D03*
X135890000Y-63500000D03*
X135890000Y-66040000D03*
X135890000Y-68580000D03*
X135890000Y-71120000D03*
X135890000Y-73660000D03*
X135890000Y-76200000D03*
X135890000Y-78740000D03*
X135890000Y-81280000D03*
X135890000Y-83820000D03*
D12*
X135890000Y-88900000D03*
D13*
X135890000Y-91440000D03*
X135890000Y-93980000D03*
X135890000Y-96520000D03*
X135890000Y-99060000D03*
X135890000Y-101600000D03*
X135890000Y-104140000D03*
X135890000Y-106680000D03*
X135890000Y-109220000D03*
D12*
X138430000Y-53340000D03*
D13*
X138430000Y-55880000D03*
X138430000Y-58420000D03*
X138430000Y-60960000D03*
X138430000Y-63500000D03*
X138430000Y-66040000D03*
X138430000Y-68580000D03*
X138430000Y-71120000D03*
X138430000Y-73660000D03*
X138430000Y-76200000D03*
X138430000Y-78740000D03*
X138430000Y-81280000D03*
X138430000Y-83820000D03*
D12*
X138430000Y-88900000D03*
D13*
X138430000Y-91440000D03*
X138430000Y-93980000D03*
X138430000Y-96520000D03*
X138430000Y-99060000D03*
X138430000Y-101600000D03*
X138430000Y-104140000D03*
X138430000Y-106680000D03*
X138430000Y-109220000D03*
D12*
X116840000Y-63500000D03*
D13*
X116840000Y-60960000D03*
X116840000Y-58420000D03*
D12*
X76200000Y-76200000D03*
D13*
X76200000Y-73660000D03*
X76200000Y-71120000D03*
X76200000Y-68580000D03*
D16*
X114300000Y-66040000D03*
D17*
X111760000Y-66040000D03*
X114300000Y-68580000D03*
X111760000Y-68580000D03*
X114300000Y-71120000D03*
X111760000Y-71120000D03*
X114300000Y-73660000D03*
X111760000Y-73660000D03*
D16*
X111760000Y-93980000D03*
D17*
X114300000Y-93980000D03*
X111760000Y-91440000D03*
X114300000Y-91440000D03*
X111760000Y-88900000D03*
X114300000Y-88900000D03*
D16*
X111760000Y-109220000D03*
D17*
X114300000Y-109220000D03*
X111760000Y-106680000D03*
X114300000Y-106680000D03*
X111760000Y-104140000D03*
X114300000Y-104140000D03*
X111760000Y-101600000D03*
X114300000Y-101600000D03*
X111760000Y-99060000D03*
X114300000Y-99060000D03*
D18*
X116840000Y-53340000D03*
D19*
X147320000Y-41910000D03*
D20*
X147320000Y-44450000D03*
D12*
X147320000Y-59690000D03*
D13*
X147320000Y-62230000D03*
X147320000Y-64770000D03*
X147320000Y-67310000D03*
X147320000Y-69850000D03*
X147320000Y-72390000D03*
X147320000Y-74930000D03*
D12*
X76200000Y-101600000D03*
D13*
X76200000Y-104140000D03*
X76200000Y-106680000D03*
X76200000Y-109220000D03*
X76200000Y-111760000D03*
D14*
X116840000Y-96520000D03*
D15*
X114300000Y-96520000D03*
X111760000Y-96520000D03*
X109220000Y-96520000D03*
X106680000Y-96520000D03*
D12*
X107950000Y-59690000D03*
D13*
X107950000Y-62230000D03*
X107950000Y-64770000D03*
X107950000Y-67310000D03*
D12*
X76200000Y-60960000D03*
D13*
X76200000Y-58420000D03*
X76200000Y-55880000D03*
X76200000Y-53340000D03*
D12*
X147320000Y-107950000D03*
D13*
X147320000Y-105410000D03*
X147320000Y-102870000D03*
X147320000Y-100330000D03*
X147320000Y-97790000D03*
D14*
X73660000Y-121920000D03*
D15*
X76200000Y-121920000D03*
X78740000Y-121920000D03*
X81280000Y-121920000D03*
X83820000Y-121920000D03*
X86360000Y-121920000D03*
X88900000Y-121920000D03*
X91440000Y-121920000D03*
X93980000Y-121920000D03*
X96520000Y-121920000D03*
D14*
X73660000Y-125730000D03*
D15*
X76200000Y-125730000D03*
X78740000Y-125730000D03*
X81280000Y-125730000D03*
X83820000Y-125730000D03*
X86360000Y-125730000D03*
X88900000Y-125730000D03*
X91440000Y-125730000D03*
X93980000Y-125730000D03*
X96520000Y-125730000D03*
D14*
X129540000Y-121920000D03*
D15*
X132080000Y-121920000D03*
X134620000Y-121920000D03*
X137160000Y-121920000D03*
X139700000Y-121920000D03*
X142240000Y-121920000D03*
X144780000Y-121920000D03*
X147320000Y-121920000D03*
X149860000Y-121920000D03*
X152400000Y-121920000D03*
D14*
X129540000Y-125730000D03*
D15*
X132080000Y-125730000D03*
X134620000Y-125730000D03*
X137160000Y-125730000D03*
X139700000Y-125730000D03*
X142240000Y-125730000D03*
X144780000Y-125730000D03*
X147320000Y-125730000D03*
X149860000Y-125730000D03*
X152400000Y-125730000D03*
D21*
X110490000Y-121920000D03*
X110490000Y-127000000D03*
X102870000Y-121920000D03*
X102870000Y-127000000D03*
X121920000Y-121920000D03*
X121920000Y-127000000D03*
X114300000Y-121920000D03*
X114300000Y-127000000D03*
D12*
X147320000Y-91440000D03*
D13*
X147320000Y-88900000D03*
X147320000Y-86360000D03*
D22*
X153670000Y-36830000D03*
X67310000Y-45720000D03*
X67310000Y-130810000D03*
X153670000Y-130810000D03*
D23*
X117347000Y-73487200D03*
D24*
X87630000Y-40640000D02*
X77627400Y-40640000D01*
X132080000Y-121920000D02*
X129540000Y-121920000D01*
X128351000Y-121920000D02*
X129540000Y-121920000D01*
X127326000Y-122946000D02*
X128351000Y-121920000D01*
X98734400Y-122946000D02*
X127326000Y-122946000D01*
X97708900Y-121920000D02*
X98734400Y-122946000D01*
X96520000Y-121920000D02*
X97708900Y-121920000D01*
X138430000Y-121920000D02*
X138430000Y-109220000D01*
X104140000Y-50800000D02*
X90170000Y-50800000D01*
X147320000Y-121920000D02*
X144780000Y-121920000D01*
X96520000Y-121920000D02*
X93980000Y-121920000D01*
X93980000Y-121920000D02*
X91440000Y-121920000D01*
X91440000Y-121920000D02*
X88900000Y-121920000D01*
X88900000Y-121920000D02*
X86360000Y-121920000D01*
X78740000Y-121920000D02*
X76200000Y-121920000D01*
X76200000Y-121920000D02*
X73660000Y-121920000D01*
X152400000Y-121920000D02*
X149860000Y-121920000D01*
X149860000Y-121920000D02*
X147320000Y-121920000D01*
X137160000Y-121920000D02*
X134620000Y-121920000D01*
X134620000Y-121920000D02*
X132080000Y-121920000D01*
X138430000Y-121920000D02*
X137160000Y-121920000D01*
X144780000Y-121920000D02*
X142240000Y-121920000D01*
X83820000Y-121920000D02*
X81280000Y-121920000D01*
X81280000Y-121920000D02*
X78740000Y-121920000D01*
X142240000Y-121920000D02*
X139700000Y-121920000D01*
X139700000Y-121920000D02*
X138430000Y-121920000D01*
X134620000Y-125730000D02*
X132080000Y-125730000D01*
X136559000Y-41910000D02*
X147320000Y-41910000D01*
X133269000Y-38620100D02*
X136559000Y-41910000D01*
X133269000Y-38100000D02*
X133269000Y-38620100D01*
X132080000Y-38100000D02*
X133269000Y-38100000D01*
X132080000Y-125730000D02*
X129540000Y-125730000D01*
X86360000Y-125730000D02*
X83820000Y-125730000D01*
X96520000Y-125730000D02*
X93980000Y-125730000D01*
X83820000Y-125730000D02*
X81280000Y-125730000D01*
X81280000Y-125730000D02*
X78740000Y-125730000D01*
X129540000Y-125730000D02*
X96520000Y-125730000D01*
X142240000Y-125730000D02*
X139700000Y-125730000D01*
X139700000Y-125730000D02*
X137160000Y-125730000D01*
X78740000Y-125730000D02*
X76200000Y-125730000D01*
X76200000Y-125730000D02*
X73660000Y-125730000D01*
X147320000Y-125730000D02*
X144780000Y-125730000D01*
X144780000Y-125730000D02*
X142240000Y-125730000D01*
X93980000Y-125730000D02*
X91440000Y-125730000D01*
X91440000Y-125730000D02*
X88900000Y-125730000D01*
X152400000Y-125730000D02*
X149860000Y-125730000D01*
X149860000Y-125730000D02*
X147320000Y-125730000D01*
X90170000Y-86360000D02*
X92710000Y-86360000D01*
X104140000Y-86360000D02*
X97790000Y-86360000D01*
X97790000Y-86360000D02*
X95250000Y-86360000D01*
X95250000Y-86360000D02*
X92710000Y-86360000D01*
X102870000Y-127000000D02*
X110490000Y-127000000D01*
X114300000Y-127000000D02*
X110490000Y-127000000D01*
X114300000Y-127000000D02*
X121920000Y-127000000D01*
X133350000Y-86360000D02*
X130810000Y-86360000D01*
X119380000Y-86360000D02*
X125730000Y-86360000D01*
X125730000Y-86360000D02*
X128270000Y-86360000D01*
X128270000Y-86360000D02*
X130810000Y-86360000D01*
X104140000Y-53340000D02*
X90170000Y-53340000D01*
X90170000Y-55880000D02*
X104140000Y-55880000D01*
X104140000Y-58420000D02*
X90170000Y-58420000D01*
X104140000Y-60960000D02*
X90170000Y-60960000D01*
X104140000Y-63500000D02*
X90170000Y-63500000D01*
X104140000Y-66040000D02*
X90170000Y-66040000D01*
X104140000Y-68580000D02*
X90170000Y-68580000D01*
X104140000Y-71120000D02*
X90170000Y-71120000D01*
X104140000Y-73660000D02*
X90170000Y-73660000D01*
X104140000Y-76200000D02*
X90170000Y-76200000D01*
X104140000Y-78740000D02*
X90170000Y-78740000D01*
X104140000Y-81280000D02*
X90170000Y-81280000D01*
X104140000Y-83820000D02*
X90170000Y-83820000D01*
X104140000Y-88900000D02*
X90170000Y-88900000D01*
X104140000Y-91440000D02*
X90170000Y-91440000D01*
X104140000Y-93980000D02*
X90170000Y-93980000D01*
X104140000Y-96520000D02*
X90170000Y-96520000D01*
X104140000Y-99060000D02*
X90170000Y-99060000D01*
X104140000Y-101600000D02*
X90170000Y-101600000D01*
X104140000Y-104140000D02*
X90170000Y-104140000D01*
X104140000Y-106680000D02*
X90170000Y-106680000D01*
X104140000Y-109220000D02*
X90170000Y-109220000D01*
X110571000Y-88900000D02*
X111760000Y-88900000D01*
X109382000Y-87711100D02*
X110571000Y-88900000D01*
X77622400Y-87711100D02*
X109382000Y-87711100D01*
X77541300Y-87630000D02*
X77622400Y-87711100D01*
X76200000Y-87630000D02*
X77541300Y-87630000D01*
X109301000Y-90170000D02*
X76200000Y-90170000D01*
X110571000Y-91440000D02*
X109301000Y-90170000D01*
X111760000Y-91440000D02*
X110571000Y-91440000D01*
X109301000Y-92710000D02*
X76200000Y-92710000D01*
X110571000Y-93980000D02*
X109301000Y-92710000D01*
X111760000Y-93980000D02*
X110571000Y-93980000D01*
X119380000Y-53340000D02*
X133350000Y-53340000D01*
X119380000Y-55880000D02*
X133350000Y-55880000D01*
X119380000Y-58420000D02*
X133350000Y-58420000D01*
X119380000Y-60960000D02*
X133350000Y-60960000D01*
X119380000Y-63500000D02*
X133350000Y-63500000D01*
X119380000Y-66040000D02*
X133350000Y-66040000D01*
X119380000Y-68580000D02*
X133350000Y-68580000D01*
X119380000Y-71120000D02*
X133350000Y-71120000D01*
X119380000Y-73660000D02*
X133350000Y-73660000D01*
X119380000Y-76200000D02*
X133350000Y-76200000D01*
X119380000Y-78740000D02*
X133350000Y-78740000D01*
X119380000Y-81280000D02*
X133350000Y-81280000D01*
X119380000Y-83820000D02*
X133350000Y-83820000D01*
X119380000Y-88900000D02*
X133350000Y-88900000D01*
X119380000Y-91440000D02*
X133350000Y-91440000D01*
X119380000Y-93980000D02*
X133350000Y-93980000D01*
X119380000Y-96520000D02*
X133350000Y-96520000D01*
X119380000Y-99060000D02*
X133350000Y-99060000D01*
X119380000Y-101600000D02*
X133350000Y-101600000D01*
X119380000Y-104140000D02*
X133350000Y-104140000D01*
X119380000Y-106680000D02*
X133350000Y-106680000D01*
X119380000Y-109220000D02*
X133350000Y-109220000D01*
X116921000Y-64770000D02*
X147320000Y-64770000D01*
X116840000Y-64688900D02*
X116921000Y-64770000D01*
X116840000Y-63500000D02*
X116840000Y-64688900D01*
X116921000Y-62230000D02*
X147320000Y-62230000D01*
X116840000Y-62148900D02*
X116921000Y-62230000D01*
X116840000Y-60960000D02*
X116840000Y-62148900D01*
X116921000Y-59690000D02*
X147320000Y-59690000D01*
X116840000Y-59608900D02*
X116921000Y-59690000D01*
X116840000Y-58420000D02*
X116840000Y-59608900D01*
X112949000Y-75011100D02*
X114300000Y-73660000D01*
X76200000Y-75011100D02*
X112949000Y-75011100D01*
X76200000Y-76200000D02*
X76200000Y-75011100D01*
X112949000Y-72471100D02*
X114300000Y-71120000D01*
X76200000Y-72471100D02*
X112949000Y-72471100D01*
X76200000Y-73660000D02*
X76200000Y-72471100D01*
X113111000Y-68580000D02*
X114300000Y-68580000D01*
X113111000Y-68951600D02*
X113111000Y-68580000D01*
X112132000Y-69931100D02*
X113111000Y-68951600D01*
X76200000Y-69931100D02*
X112132000Y-69931100D01*
X76200000Y-71120000D02*
X76200000Y-69931100D01*
X114300000Y-63688000D02*
X114300000Y-66040000D01*
X105141000Y-54529000D02*
X114300000Y-63688000D01*
X80144200Y-54529000D02*
X105141000Y-54529000D01*
X77749100Y-52133900D02*
X80144200Y-54529000D01*
X75490900Y-52133900D02*
X77749100Y-52133900D01*
X74858600Y-52766200D02*
X75490900Y-52133900D01*
X74858600Y-66049700D02*
X74858600Y-52766200D01*
X76200000Y-67391100D02*
X74858600Y-66049700D01*
X76200000Y-68580000D02*
X76200000Y-67391100D01*
X113327000Y-67310000D02*
X147320000Y-67310000D01*
X112949000Y-66931700D02*
X113327000Y-67310000D01*
X112949000Y-66040000D02*
X112949000Y-66931700D01*
X111760000Y-66040000D02*
X112949000Y-66040000D01*
X118790000Y-74930000D02*
X117347000Y-73487200D01*
X140819000Y-74930000D02*
X118790000Y-74930000D01*
X142027000Y-76138100D02*
X140819000Y-74930000D01*
X147989000Y-76138100D02*
X142027000Y-76138100D01*
X148696000Y-75431000D02*
X147989000Y-76138100D01*
X148696000Y-71225800D02*
X148696000Y-75431000D01*
X147320000Y-69850000D02*
X148696000Y-71225800D01*
X147320000Y-71201100D02*
X147320000Y-72390000D01*
X146131000Y-71201100D02*
X147320000Y-71201100D01*
X144861000Y-69931100D02*
X146131000Y-71201100D01*
X113766000Y-69931100D02*
X144861000Y-69931100D01*
X112949000Y-70748400D02*
X113766000Y-69931100D01*
X112949000Y-71120000D02*
X112949000Y-70748400D01*
X111760000Y-71120000D02*
X112949000Y-71120000D01*
X147320000Y-73741100D02*
X147320000Y-74930000D01*
X146131000Y-73741100D02*
X147320000Y-73741100D01*
X144857000Y-72467200D02*
X146131000Y-73741100D01*
X113811000Y-72467200D02*
X144857000Y-72467200D01*
X112949000Y-73329100D02*
X113811000Y-72467200D01*
X112949000Y-73660000D02*
X112949000Y-73329100D01*
X111760000Y-73660000D02*
X112949000Y-73660000D01*
X115489000Y-93980000D02*
X114300000Y-93980000D01*
X116840000Y-92628900D02*
X115489000Y-93980000D01*
X147320000Y-92628900D02*
X116840000Y-92628900D01*
X147320000Y-91440000D02*
X147320000Y-92628900D01*
X115489000Y-91440000D02*
X114300000Y-91440000D01*
X116840000Y-90088900D02*
X115489000Y-91440000D01*
X147320000Y-90088900D02*
X116840000Y-90088900D01*
X147320000Y-88900000D02*
X147320000Y-90088900D01*
X115489000Y-88900000D02*
X114300000Y-88900000D01*
X116678000Y-87711100D02*
X115489000Y-88900000D01*
X147158000Y-87711100D02*
X116678000Y-87711100D01*
X147320000Y-87548900D02*
X147158000Y-87711100D01*
X147320000Y-86360000D02*
X147320000Y-87548900D01*
X108031000Y-111760000D02*
X76200000Y-111760000D01*
X110571000Y-109220000D02*
X108031000Y-111760000D01*
X111760000Y-109220000D02*
X110571000Y-109220000D01*
X116759000Y-107950000D02*
X147320000Y-107950000D01*
X115489000Y-109220000D02*
X116759000Y-107950000D01*
X114300000Y-109220000D02*
X115489000Y-109220000D01*
X76200000Y-108031000D02*
X76200000Y-109220000D01*
X109220000Y-108031000D02*
X76200000Y-108031000D01*
X110571000Y-106680000D02*
X109220000Y-108031000D01*
X111760000Y-106680000D02*
X110571000Y-106680000D01*
X116759000Y-105410000D02*
X147320000Y-105410000D01*
X115489000Y-106680000D02*
X116759000Y-105410000D01*
X114300000Y-106680000D02*
X115489000Y-106680000D01*
X76200000Y-105491000D02*
X76200000Y-106680000D01*
X109220000Y-105491000D02*
X76200000Y-105491000D01*
X110571000Y-104140000D02*
X109220000Y-105491000D01*
X111760000Y-104140000D02*
X110571000Y-104140000D01*
X116759000Y-102870000D02*
X147320000Y-102870000D01*
X115489000Y-104140000D02*
X116759000Y-102870000D01*
X114300000Y-104140000D02*
X115489000Y-104140000D01*
X76200000Y-102951000D02*
X76200000Y-104140000D01*
X109220000Y-102951000D02*
X76200000Y-102951000D01*
X110571000Y-101600000D02*
X109220000Y-102951000D01*
X111760000Y-101600000D02*
X110571000Y-101600000D01*
X116759000Y-100330000D02*
X147320000Y-100330000D01*
X115489000Y-101600000D02*
X116759000Y-100330000D01*
X114300000Y-101600000D02*
X115489000Y-101600000D01*
X76200000Y-100411000D02*
X76200000Y-101600000D01*
X109220000Y-100411000D02*
X76200000Y-100411000D01*
X110571000Y-99060000D02*
X109220000Y-100411000D01*
X111760000Y-99060000D02*
X110571000Y-99060000D01*
X145979000Y-97790000D02*
X147320000Y-97790000D01*
X145898000Y-97871100D02*
X145979000Y-97790000D01*
X116678000Y-97871100D02*
X145898000Y-97871100D01*
X115489000Y-99060000D02*
X116678000Y-97871100D01*
X114300000Y-99060000D02*
X115489000Y-99060000D01*
X118191000Y-51989000D02*
X116840000Y-53340000D01*
X138440000Y-51989000D02*
X118191000Y-51989000D01*
X145979000Y-44450000D02*
X138440000Y-51989000D01*
X147320000Y-44450000D02*
X145979000Y-44450000D01*
X102870000Y-121920000D02*
X110490000Y-121920000D01*
X112949000Y-119461000D02*
X110490000Y-121920000D01*
X112949000Y-98698300D02*
X112949000Y-119461000D01*
X113781000Y-97866200D02*
X112949000Y-98698300D01*
X114825000Y-97866200D02*
X113781000Y-97866200D01*
X115651000Y-97040100D02*
X114825000Y-97866200D01*
X115651000Y-96520000D02*
X115651000Y-97040100D01*
X116840000Y-96520000D02*
X115651000Y-96520000D01*
X114300000Y-121920000D02*
X121920000Y-121920000D01*
X82550000Y-59690000D02*
X107950000Y-59690000D01*
X77388900Y-54528900D02*
X82550000Y-59690000D01*
X76200000Y-54528900D02*
X77388900Y-54528900D01*
X76200000Y-53340000D02*
X76200000Y-54528900D01*
X82550000Y-62230000D02*
X107950000Y-62230000D01*
X77388900Y-57068900D02*
X82550000Y-62230000D01*
X76200000Y-57068900D02*
X77388900Y-57068900D01*
X76200000Y-55880000D02*
X76200000Y-57068900D01*
X82550000Y-64770000D02*
X107950000Y-64770000D01*
X77388900Y-59608900D02*
X82550000Y-64770000D01*
X76200000Y-59608900D02*
X77388900Y-59608900D01*
X76200000Y-58420000D02*
X76200000Y-59608900D01*
X81361100Y-67310000D02*
X107950000Y-67310000D01*
X76200000Y-62148900D02*
X81361100Y-67310000D01*
X76200000Y-60960000D02*
X76200000Y-62148900D01*
M02*
