M48
;DRILL file {KiCad 4.0.6} date 06/23/17 17:57:33
;FORMAT={-:-/ absolute / metric / decimal}
FMAT,2
METRIC,TZ
T1C0.400
T2C1.000
T3C1.016
%
G90
G05
M71
T1
X136.849Y-101.033
X137.483Y-112.082
X145.687Y-117.003
X149.002Y-92.548
X149.563Y-105.438
X161.377Y-102.069
X161.858Y-100.586
X162.473Y-77.627
X163.176Y-100.373
X163.935Y-107.616
X166.773Y-74.193
X171.768Y-93.341
X174.24Y-100.234
X176.253Y-93.474
X178.306Y-79.558
X178.89Y-89.801
X178.982Y-107.231
X178.984Y-90.922
X178.995Y-93.203
X181.06Y-72.22
X181.519Y-82.539
X186.269Y-97.814
X186.805Y-100.436
X187.422Y-84.817
X188.135Y-87.249
X190.783Y-83.4
X194.16Y-80.171
X195.923Y-89.916
T2
X105.2Y-97.82
X105.2Y-100.36
X105.2Y-102.9
X105.2Y-110.71
X105.2Y-113.25
X105.2Y-115.79
X147.81Y-86.75
X147.81Y-89.29
X147.81Y-91.83
X150.35Y-86.75
X150.35Y-89.29
X150.35Y-91.83
X153.284Y-106.804
X153.284Y-109.344
X153.284Y-111.884
X153.284Y-114.424
X155.884Y-106.844
X155.884Y-109.384
X155.884Y-111.924
X155.884Y-114.464
X155.9Y-79.35
X155.9Y-81.89
X155.9Y-84.43
X155.9Y-86.97
X155.9Y-89.51
X155.9Y-92.05
X158.484Y-106.864
X158.484Y-109.404
X158.484Y-111.944
X158.484Y-114.484
X158.5Y-79.38
X158.5Y-81.92
X158.5Y-84.46
X158.5Y-87.
X158.5Y-89.54
X158.5Y-92.08
X161.084Y-106.844
X161.084Y-109.384
X161.084Y-111.924
X161.084Y-114.464
X161.1Y-79.38
X161.1Y-81.92
X161.1Y-84.46
X161.1Y-87.
X161.1Y-89.54
X161.1Y-92.08
X165.48Y-101.65
X165.52Y-96.45
X165.52Y-99.05
X165.59Y-110.95
X165.61Y-108.35
X165.61Y-113.45
X166.15Y-86.1
X166.15Y-88.6
X166.15Y-91.1
X166.2Y-75.9
X166.2Y-78.4
X166.2Y-80.9
X168.02Y-101.65
X168.06Y-96.45
X168.06Y-99.05
X168.13Y-110.95
X168.15Y-108.35
X168.15Y-113.45
X168.69Y-86.1
X168.69Y-88.6
X168.69Y-91.1
X168.74Y-75.9
X168.74Y-78.4
X168.74Y-80.9
X170.56Y-101.65
X170.6Y-96.45
X170.6Y-99.05
X170.67Y-110.95
X170.69Y-108.35
X170.69Y-113.45
X171.23Y-86.1
X171.23Y-88.6
X171.23Y-91.1
X171.28Y-75.9
X171.28Y-78.4
X171.28Y-80.9
X173.1Y-101.65
X173.14Y-96.45
X173.14Y-99.05
X173.21Y-110.95
X173.23Y-108.35
X173.23Y-113.45
X173.77Y-86.1
X173.77Y-88.6
X173.77Y-91.1
X173.82Y-75.9
X173.82Y-78.4
X173.82Y-80.9
X175.64Y-101.65
X175.68Y-96.45
X175.68Y-99.05
X175.75Y-110.95
X175.77Y-108.35
X175.77Y-113.45
X176.31Y-86.1
X176.31Y-88.6
X176.31Y-91.1
X176.36Y-75.9
X176.36Y-78.4
X176.36Y-80.9
X179.86Y-101.7
X179.88Y-96.7
X179.88Y-99.2
X180.19Y-111.05
X180.21Y-113.55
X180.25Y-108.45
X181.7Y-86.15
X181.7Y-88.65
X181.72Y-91.15
X181.75Y-75.75
X181.75Y-78.25
X181.81Y-80.75
X182.4Y-101.7
X182.42Y-96.7
X182.42Y-99.2
X182.73Y-111.05
X182.75Y-113.55
X182.79Y-108.45
X184.24Y-86.15
X184.24Y-88.65
X184.26Y-91.15
X184.29Y-75.75
X184.29Y-78.25
X184.35Y-80.75
X184.94Y-101.7
X184.96Y-96.7
X184.96Y-99.2
X185.27Y-111.05
X185.29Y-113.55
X185.33Y-108.45
X186.78Y-86.15
X186.78Y-88.65
X186.8Y-91.15
X186.83Y-75.75
X186.83Y-78.25
X186.89Y-80.75
X187.48Y-101.7
X187.5Y-96.7
X187.5Y-99.2
X187.81Y-111.05
X187.83Y-113.55
X187.87Y-108.45
X189.32Y-86.15
X189.32Y-88.65
X189.34Y-91.15
X189.37Y-75.75
X189.37Y-78.25
X189.43Y-80.75
X190.02Y-101.7
X190.04Y-96.7
X190.04Y-99.2
X190.35Y-111.05
X190.37Y-113.55
X190.41Y-108.45
X191.86Y-86.15
X191.86Y-88.65
X191.88Y-91.15
X191.91Y-75.75
X191.91Y-78.25
X191.97Y-80.75
X192.56Y-101.7
X192.58Y-96.7
X192.58Y-99.2
T3
X103.08Y-66.5
X105.62Y-66.5
X108.16Y-66.5
X110.7Y-66.5
X112.02Y-114.7
X113.24Y-66.5
X114.56Y-114.7
X115.78Y-66.5
X117.1Y-114.7
X118.32Y-66.5
X119.64Y-114.7
X120.86Y-66.5
X122.174Y-70.866
X122.18Y-114.7
X123.4Y-66.5
X124.714Y-70.866
X124.72Y-114.7
X125.94Y-66.5
X127.254Y-70.866
X127.26Y-114.7
X129.794Y-70.866
X129.8Y-114.7
X129.86Y-66.5
X131.318Y-119.126
X132.334Y-70.866
X132.4Y-66.5
X133.858Y-119.126
X134.874Y-70.866
X134.9Y-114.7
X134.94Y-66.5
X136.398Y-119.126
X137.414Y-70.866
X137.44Y-114.7
X137.48Y-66.5
X138.938Y-119.126
X139.954Y-70.866
X139.98Y-114.7
X140.02Y-66.5
X141.478Y-119.126
X142.494Y-70.866
X142.52Y-114.7
X142.56Y-66.5
X144.018Y-119.126
X145.034Y-70.866
X145.06Y-114.7
X145.1Y-66.5
X146.558Y-119.126
X147.6Y-114.7
X147.64Y-66.5
X149.098Y-70.866
X149.098Y-119.126
X151.638Y-70.866
X154.178Y-70.866
X154.178Y-119.126
X156.718Y-70.866
X156.718Y-119.126
X159.258Y-70.866
X159.258Y-119.126
X161.798Y-70.866
X161.798Y-119.126
X164.338Y-70.866
X164.338Y-119.126
X166.878Y-70.866
X166.878Y-119.126
X169.418Y-119.126
X171.958Y-70.866
X171.958Y-119.126
X174.498Y-70.866
X177.038Y-70.866
X177.038Y-119.126
X179.578Y-70.866
X179.578Y-119.126
X182.118Y-70.866
X182.118Y-119.126
X184.658Y-70.866
X184.658Y-119.126
X187.198Y-70.866
X187.198Y-119.126
X189.738Y-70.866
X189.738Y-119.126
X192.278Y-119.126
X194.818Y-119.126
X197.358Y-70.866
X197.358Y-73.406
X197.358Y-75.946
X197.358Y-78.486
X197.358Y-81.026
X197.358Y-83.566
X197.358Y-86.106
X197.358Y-88.646
X197.358Y-91.186
X197.358Y-93.726
X197.358Y-96.266
X197.358Y-98.806
X197.358Y-101.346
X197.358Y-103.886
X197.358Y-106.426
X197.358Y-108.966
X197.358Y-111.506
X197.358Y-114.046
X199.898Y-70.866
X199.898Y-73.406
X199.898Y-75.946
X199.898Y-78.486
X199.898Y-81.026
X199.898Y-83.566
X199.898Y-86.106
X199.898Y-88.646
X199.898Y-91.186
X199.898Y-93.726
X199.898Y-96.266
X199.898Y-98.806
X199.898Y-101.346
X199.898Y-103.886
X199.898Y-106.426
X199.898Y-108.966
X199.898Y-111.506
X199.898Y-114.046
T0
M30
