G04 #@! TF.FileFunction,Copper,L2,Bot,Signal*
%FSLAX46Y46*%
G04 Gerber Fmt 4.6, Leading zero omitted, Abs format (unit mm)*
G04 Created by KiCad (PCBNEW 4.0.6) date 06/23/17 17:57:28*
%MOMM*%
%LPD*%
G01*
G04 APERTURE LIST*
%ADD10C,0.100000*%
%ADD11C,1.727200*%
%ADD12O,1.727200X1.727200*%
%ADD13O,1.727200X2.032000*%
%ADD14R,1.700000X1.700000*%
%ADD15O,1.700000X1.700000*%
%ADD16C,0.600000*%
%ADD17C,0.250000*%
G04 APERTURE END LIST*
D10*
D11*
X197358000Y-114046000D03*
D12*
X199898000Y-114046000D03*
X197358000Y-111506000D03*
X199898000Y-111506000D03*
X197358000Y-108966000D03*
X199898000Y-108966000D03*
X197358000Y-106426000D03*
X199898000Y-106426000D03*
X197358000Y-103886000D03*
X199898000Y-103886000D03*
X197358000Y-101346000D03*
X199898000Y-101346000D03*
X197358000Y-98806000D03*
X199898000Y-98806000D03*
X197358000Y-96266000D03*
X199898000Y-96266000D03*
X197358000Y-93726000D03*
X199898000Y-93726000D03*
X197358000Y-91186000D03*
X199898000Y-91186000D03*
X197358000Y-88646000D03*
X199898000Y-88646000D03*
X197358000Y-86106000D03*
X199898000Y-86106000D03*
X197358000Y-83566000D03*
X199898000Y-83566000D03*
X197358000Y-81026000D03*
X199898000Y-81026000D03*
X197358000Y-78486000D03*
X199898000Y-78486000D03*
X197358000Y-75946000D03*
X199898000Y-75946000D03*
X197358000Y-73406000D03*
X199898000Y-73406000D03*
X197358000Y-70866000D03*
X199898000Y-70866000D03*
D13*
X131318000Y-119126000D03*
X133858000Y-119126000D03*
X136398000Y-119126000D03*
X138938000Y-119126000D03*
X141478000Y-119126000D03*
X144018000Y-119126000D03*
X146558000Y-119126000D03*
X149098000Y-119126000D03*
X154178000Y-119126000D03*
X156718000Y-119126000D03*
X159258000Y-119126000D03*
X161798000Y-119126000D03*
X164338000Y-119126000D03*
X166878000Y-119126000D03*
X169418000Y-119126000D03*
X171958000Y-119126000D03*
X177038000Y-119126000D03*
X179578000Y-119126000D03*
X182118000Y-119126000D03*
X184658000Y-119126000D03*
X187198000Y-119126000D03*
X189738000Y-119126000D03*
X192278000Y-119126000D03*
X194818000Y-119126000D03*
X122174000Y-70866000D03*
X124714000Y-70866000D03*
X127254000Y-70866000D03*
X129794000Y-70866000D03*
X132334000Y-70866000D03*
X134874000Y-70866000D03*
X137414000Y-70866000D03*
X139954000Y-70866000D03*
X142494000Y-70866000D03*
X145034000Y-70866000D03*
X149098000Y-70866000D03*
X151638000Y-70866000D03*
X154178000Y-70866000D03*
X156718000Y-70866000D03*
X159258000Y-70866000D03*
X161798000Y-70866000D03*
X164338000Y-70866000D03*
X166878000Y-70866000D03*
X171958000Y-70866000D03*
X174498000Y-70866000D03*
X177038000Y-70866000D03*
X179578000Y-70866000D03*
X182118000Y-70866000D03*
X184658000Y-70866000D03*
X187198000Y-70866000D03*
X189738000Y-70866000D03*
X112020000Y-114700000D03*
X114560000Y-114700000D03*
X117100000Y-114700000D03*
X119640000Y-114700000D03*
X122180000Y-114700000D03*
X124720000Y-114700000D03*
X127260000Y-114700000D03*
X129800000Y-114700000D03*
X134900000Y-114700000D03*
X137440000Y-114700000D03*
X139980000Y-114700000D03*
X142520000Y-114700000D03*
X145060000Y-114700000D03*
X147600000Y-114700000D03*
X103080000Y-66500000D03*
X105620000Y-66500000D03*
X108160000Y-66500000D03*
X110700000Y-66500000D03*
X113240000Y-66500000D03*
X115780000Y-66500000D03*
X118320000Y-66500000D03*
X120860000Y-66500000D03*
X123400000Y-66500000D03*
X125940000Y-66500000D03*
X129860000Y-66500000D03*
X132400000Y-66500000D03*
X134940000Y-66500000D03*
X137480000Y-66500000D03*
X140020000Y-66500000D03*
X142560000Y-66500000D03*
X145100000Y-66500000D03*
X147640000Y-66500000D03*
D14*
X165610000Y-113450000D03*
D15*
X168150000Y-113450000D03*
X170690000Y-113450000D03*
X173230000Y-113450000D03*
X175770000Y-113450000D03*
D14*
X180210000Y-113550000D03*
D15*
X182750000Y-113550000D03*
X185290000Y-113550000D03*
X187830000Y-113550000D03*
X190370000Y-113550000D03*
D14*
X165480000Y-101650000D03*
D15*
X168020000Y-101650000D03*
X170560000Y-101650000D03*
X173100000Y-101650000D03*
X175640000Y-101650000D03*
D14*
X179860000Y-101700000D03*
D15*
X182400000Y-101700000D03*
X184940000Y-101700000D03*
X187480000Y-101700000D03*
X190020000Y-101700000D03*
X192560000Y-101700000D03*
D14*
X166150000Y-91100000D03*
D15*
X168690000Y-91100000D03*
X171230000Y-91100000D03*
X173770000Y-91100000D03*
X176310000Y-91100000D03*
D14*
X181720000Y-91150000D03*
D15*
X184260000Y-91150000D03*
X186800000Y-91150000D03*
X189340000Y-91150000D03*
X191880000Y-91150000D03*
D14*
X166200000Y-80900000D03*
D15*
X168740000Y-80900000D03*
X171280000Y-80900000D03*
X173820000Y-80900000D03*
X176360000Y-80900000D03*
D14*
X181810000Y-80750000D03*
D15*
X184350000Y-80750000D03*
X186890000Y-80750000D03*
X189430000Y-80750000D03*
X191970000Y-80750000D03*
D14*
X165590000Y-110950000D03*
D15*
X168130000Y-110950000D03*
X170670000Y-110950000D03*
X173210000Y-110950000D03*
X175750000Y-110950000D03*
D14*
X180190000Y-111050000D03*
D15*
X182730000Y-111050000D03*
X185270000Y-111050000D03*
X187810000Y-111050000D03*
X190350000Y-111050000D03*
D14*
X165520000Y-99050000D03*
D15*
X168060000Y-99050000D03*
X170600000Y-99050000D03*
X173140000Y-99050000D03*
X175680000Y-99050000D03*
D14*
X179880000Y-99200000D03*
D15*
X182420000Y-99200000D03*
X184960000Y-99200000D03*
X187500000Y-99200000D03*
X190040000Y-99200000D03*
X192580000Y-99200000D03*
D14*
X176310000Y-88600000D03*
D15*
X173770000Y-88600000D03*
X171230000Y-88600000D03*
X168690000Y-88600000D03*
X166150000Y-88600000D03*
D14*
X181700000Y-88650000D03*
D15*
X184240000Y-88650000D03*
X186780000Y-88650000D03*
X189320000Y-88650000D03*
X191860000Y-88650000D03*
D14*
X181750000Y-78250000D03*
D15*
X184290000Y-78250000D03*
X186830000Y-78250000D03*
X189370000Y-78250000D03*
X191910000Y-78250000D03*
D14*
X166200000Y-78400000D03*
D15*
X168740000Y-78400000D03*
X171280000Y-78400000D03*
X173820000Y-78400000D03*
X176360000Y-78400000D03*
D14*
X165610000Y-108350000D03*
D15*
X168150000Y-108350000D03*
X170690000Y-108350000D03*
X173230000Y-108350000D03*
X175770000Y-108350000D03*
D14*
X180250000Y-108450000D03*
D15*
X182790000Y-108450000D03*
X185330000Y-108450000D03*
X187870000Y-108450000D03*
X190410000Y-108450000D03*
D14*
X165520000Y-96450000D03*
D15*
X168060000Y-96450000D03*
X170600000Y-96450000D03*
X173140000Y-96450000D03*
X175680000Y-96450000D03*
D14*
X179880000Y-96700000D03*
D15*
X182420000Y-96700000D03*
X184960000Y-96700000D03*
X187500000Y-96700000D03*
X190040000Y-96700000D03*
X192580000Y-96700000D03*
D14*
X166150000Y-86100000D03*
D15*
X168690000Y-86100000D03*
X171230000Y-86100000D03*
X173770000Y-86100000D03*
X176310000Y-86100000D03*
D14*
X181700000Y-86150000D03*
D15*
X184240000Y-86150000D03*
X186780000Y-86150000D03*
X189320000Y-86150000D03*
X191860000Y-86150000D03*
D14*
X181750000Y-75750000D03*
D15*
X184290000Y-75750000D03*
X186830000Y-75750000D03*
X189370000Y-75750000D03*
X191910000Y-75750000D03*
D14*
X166200000Y-75900000D03*
D15*
X168740000Y-75900000D03*
X171280000Y-75900000D03*
X173820000Y-75900000D03*
X176360000Y-75900000D03*
D14*
X105200000Y-115790000D03*
D15*
X105200000Y-113250000D03*
X105200000Y-110710000D03*
D14*
X105200000Y-102900000D03*
D15*
X105200000Y-100360000D03*
X105200000Y-97820000D03*
D14*
X147810000Y-86750000D03*
D15*
X150350000Y-86750000D03*
X147810000Y-89290000D03*
X150350000Y-89290000D03*
X147810000Y-91830000D03*
X150350000Y-91830000D03*
D14*
X153284000Y-106804000D03*
D15*
X153284000Y-109344000D03*
X153284000Y-111884000D03*
X153284000Y-114424000D03*
D14*
X155884000Y-106844000D03*
D15*
X155884000Y-109384000D03*
X155884000Y-111924000D03*
X155884000Y-114464000D03*
D14*
X158484000Y-106864000D03*
D15*
X158484000Y-109404000D03*
X158484000Y-111944000D03*
X158484000Y-114484000D03*
D14*
X161084000Y-106844000D03*
D15*
X161084000Y-109384000D03*
X161084000Y-111924000D03*
X161084000Y-114464000D03*
D14*
X161100000Y-79380000D03*
D15*
X161100000Y-81920000D03*
X161100000Y-84460000D03*
X161100000Y-87000000D03*
X161100000Y-89540000D03*
X161100000Y-92080000D03*
D14*
X158500000Y-79380000D03*
D15*
X158500000Y-81920000D03*
X158500000Y-84460000D03*
X158500000Y-87000000D03*
X158500000Y-89540000D03*
X158500000Y-92080000D03*
D14*
X155900000Y-79350000D03*
D15*
X155900000Y-81890000D03*
X155900000Y-84430000D03*
X155900000Y-86970000D03*
X155900000Y-89510000D03*
X155900000Y-92050000D03*
D16*
X187422200Y-84816800D03*
X190782800Y-83399600D03*
X178995400Y-93203400D03*
X174240200Y-100233900D03*
X136848500Y-101032700D03*
X145687300Y-117003300D03*
X149002400Y-92548500D03*
X149563100Y-105437500D03*
X161377500Y-102068500D03*
X163935200Y-107615800D03*
X137482700Y-112082000D03*
X163175700Y-100372900D03*
X166772700Y-74192600D03*
X161857800Y-100586100D03*
X162472600Y-77627300D03*
X171768100Y-93341400D03*
X178890400Y-89801400D03*
X178306000Y-79557600D03*
X186805500Y-100436300D03*
X181519100Y-82539000D03*
X176252800Y-93474000D03*
X186269400Y-97814400D03*
X178982000Y-107230900D03*
X178984000Y-90922300D03*
X188134600Y-87248700D03*
X194159900Y-80171300D03*
X195923200Y-89916000D03*
X181060400Y-72219700D03*
D17*
X153284000Y-111884000D02*
X153284000Y-109344000D01*
X155900000Y-92050000D02*
X155900000Y-89510000D01*
X155900000Y-89510000D02*
X155900000Y-86970000D01*
X155900000Y-86970000D02*
X155900000Y-84430000D01*
X155900000Y-84430000D02*
X155900000Y-81890000D01*
X155900000Y-81890000D02*
X155900000Y-79350000D01*
X176310000Y-86100000D02*
X176310000Y-84924700D01*
X176360000Y-75900000D02*
X176360000Y-77075300D01*
X155900000Y-92050000D02*
X155900000Y-93225300D01*
X153284000Y-106804000D02*
X153284000Y-105628700D01*
X129794000Y-72937700D02*
X129794000Y-70866000D01*
X147511000Y-90654700D02*
X129794000Y-72937700D01*
X148366800Y-90654700D02*
X147511000Y-90654700D01*
X149174700Y-91462600D02*
X148366800Y-90654700D01*
X149174700Y-91830000D02*
X149174700Y-91462600D01*
X150350000Y-91830000D02*
X149174700Y-91830000D01*
X176310000Y-83561600D02*
X176310000Y-84924700D01*
X177550500Y-82321100D02*
X176310000Y-83561600D01*
X177550500Y-77900500D02*
X177550500Y-82321100D01*
X176725300Y-77075300D02*
X177550500Y-77900500D01*
X176360000Y-77075300D02*
X176725300Y-77075300D01*
X164974600Y-94729300D02*
X165520000Y-95274700D01*
X164974600Y-88083400D02*
X164974600Y-94729300D01*
X165782700Y-87275300D02*
X164974600Y-88083400D01*
X166150000Y-87275300D02*
X165782700Y-87275300D01*
X166150000Y-86100000D02*
X166150000Y-87275300D01*
X165520000Y-96450000D02*
X165520000Y-95274700D01*
X153284000Y-95841300D02*
X155900000Y-93225300D01*
X153284000Y-105628700D02*
X153284000Y-95841300D01*
X144018000Y-119126000D02*
X145206900Y-119126000D01*
X153284000Y-111884000D02*
X153284000Y-114424000D01*
X145206900Y-118634400D02*
X145206900Y-119126000D01*
X146797000Y-117044300D02*
X145206900Y-118634400D01*
X149488400Y-117044300D02*
X146797000Y-117044300D01*
X152108700Y-114424000D02*
X149488400Y-117044300D01*
X153284000Y-114424000D02*
X152108700Y-114424000D01*
X112251200Y-102900000D02*
X105200000Y-102900000D01*
X123531100Y-114179900D02*
X112251200Y-102900000D01*
X123531100Y-114700000D02*
X123531100Y-114179900D01*
X124720000Y-114700000D02*
X123531100Y-114700000D01*
X196986400Y-84754900D02*
X197358000Y-84754900D01*
X196169100Y-85572200D02*
X196986400Y-84754900D01*
X196169100Y-86052900D02*
X196169100Y-85572200D01*
X192247300Y-89974700D02*
X196169100Y-86052900D01*
X191880000Y-89974700D02*
X192247300Y-89974700D01*
X191880000Y-91150000D02*
X191880000Y-89974700D01*
X197358000Y-83566000D02*
X197358000Y-84754900D01*
X188839400Y-83399600D02*
X190782800Y-83399600D01*
X187422200Y-84816800D02*
X188839400Y-83399600D01*
X187167400Y-89974700D02*
X186800000Y-89974700D01*
X187975300Y-89166800D02*
X187167400Y-89974700D01*
X187975300Y-88325400D02*
X187975300Y-89166800D01*
X188924500Y-87376200D02*
X187975300Y-88325400D01*
X189758000Y-87376200D02*
X188924500Y-87376200D01*
X190590000Y-86544200D02*
X189758000Y-87376200D01*
X190590000Y-85699800D02*
X190590000Y-86544200D01*
X196614900Y-79674900D02*
X190590000Y-85699800D01*
X197358000Y-79674900D02*
X196614900Y-79674900D01*
X197358000Y-78486000D02*
X197358000Y-79674900D01*
X186800000Y-91150000D02*
X186800000Y-89974700D01*
X189340000Y-91150000D02*
X189340000Y-89974700D01*
X197358000Y-81026000D02*
X197358000Y-82214900D01*
X189707400Y-89974700D02*
X189340000Y-89974700D01*
X190515300Y-89166800D02*
X189707400Y-89974700D01*
X190515300Y-88319200D02*
X190515300Y-89166800D01*
X191458500Y-87376000D02*
X190515300Y-88319200D01*
X192309400Y-87376000D02*
X191458500Y-87376000D01*
X193616100Y-86069300D02*
X192309400Y-87376000D01*
X193616100Y-85578600D02*
X193616100Y-86069300D01*
X196979800Y-82214900D02*
X193616100Y-85578600D01*
X197358000Y-82214900D02*
X196979800Y-82214900D01*
X196304000Y-77134900D02*
X197358000Y-77134900D01*
X193523600Y-79915300D02*
X196304000Y-77134900D01*
X193523600Y-80860000D02*
X193523600Y-79915300D01*
X191845600Y-82538000D02*
X193523600Y-80860000D01*
X188664500Y-82538000D02*
X191845600Y-82538000D01*
X185435300Y-85767200D02*
X188664500Y-82538000D01*
X185435300Y-89166800D02*
X185435300Y-85767200D01*
X184627400Y-89974700D02*
X185435300Y-89166800D01*
X184260000Y-89974700D02*
X184627400Y-89974700D01*
X184260000Y-91150000D02*
X184260000Y-89974700D01*
X197358000Y-75946000D02*
X197358000Y-77134900D01*
X199526400Y-110317100D02*
X199898000Y-110317100D01*
X198709100Y-109499800D02*
X199526400Y-110317100D01*
X198709100Y-108613800D02*
X198709100Y-109499800D01*
X197872300Y-107777000D02*
X198709100Y-108613800D01*
X194999400Y-107777000D02*
X197872300Y-107777000D01*
X193111500Y-109664900D02*
X194999400Y-107777000D01*
X189866100Y-109664900D02*
X193111500Y-109664900D01*
X189140000Y-108938800D02*
X189866100Y-109664900D01*
X189140000Y-108055800D02*
X189140000Y-108938800D01*
X184916900Y-103832700D02*
X189140000Y-108055800D01*
X182863100Y-103832700D02*
X184916900Y-103832700D01*
X181224300Y-102193900D02*
X182863100Y-103832700D01*
X181224300Y-95432300D02*
X181224300Y-102193900D01*
X178995400Y-93203400D02*
X181224300Y-95432300D01*
X199898000Y-111506000D02*
X199898000Y-110317100D01*
X192584300Y-73406000D02*
X197358000Y-73406000D01*
X190640000Y-75350300D02*
X192584300Y-73406000D01*
X190640000Y-76144200D02*
X190640000Y-75350300D01*
X189784000Y-77000200D02*
X190640000Y-76144200D01*
X188941500Y-77000200D02*
X189784000Y-77000200D01*
X188100000Y-77841700D02*
X188941500Y-77000200D01*
X188100000Y-78655900D02*
X188100000Y-77841700D01*
X187285900Y-79470000D02*
X188100000Y-78655900D01*
X186470300Y-79470000D02*
X187285900Y-79470000D01*
X185694600Y-80245700D02*
X186470300Y-79470000D01*
X185694600Y-82969400D02*
X185694600Y-80245700D01*
X182875400Y-85788600D02*
X185694600Y-82969400D01*
X182875400Y-89685900D02*
X182875400Y-85788600D01*
X182586600Y-89974700D02*
X182875400Y-89685900D01*
X181720000Y-89974700D02*
X182586600Y-89974700D01*
X181720000Y-91150000D02*
X181720000Y-89974700D01*
X174315400Y-100158700D02*
X174240200Y-100233900D01*
X174315400Y-92820700D02*
X174315400Y-100158700D01*
X173770000Y-92275300D02*
X174315400Y-92820700D01*
X173770000Y-91100000D02*
X173770000Y-92275300D01*
X141307000Y-117613700D02*
X141478000Y-117784700D01*
X141307000Y-104662400D02*
X141307000Y-117613700D01*
X151526600Y-94442800D02*
X141307000Y-104662400D01*
X151526600Y-87926600D02*
X151526600Y-94442800D01*
X150350000Y-86750000D02*
X151526600Y-87926600D01*
X141478000Y-119126000D02*
X141478000Y-118935300D01*
X141478000Y-118935300D02*
X141478000Y-117784700D01*
X105200000Y-115790000D02*
X106375300Y-115790000D01*
X106665800Y-116080500D02*
X106375300Y-115790000D01*
X118370000Y-116080500D02*
X106665800Y-116080500D01*
X123316000Y-121026500D02*
X118370000Y-116080500D01*
X139386800Y-121026500D02*
X123316000Y-121026500D01*
X141478000Y-118935300D02*
X139386800Y-121026500D01*
X120793900Y-113313900D02*
X122180000Y-114700000D01*
X119143500Y-113313900D02*
X120793900Y-113313900D01*
X118370000Y-114087400D02*
X119143500Y-113313900D01*
X118370000Y-116080500D02*
X118370000Y-114087400D01*
X137586900Y-117937100D02*
X137586900Y-119126000D01*
X138710000Y-116814000D02*
X137586900Y-117937100D01*
X138710000Y-102105300D02*
X138710000Y-116814000D01*
X147810000Y-93005300D02*
X138710000Y-102105300D01*
X147810000Y-91830000D02*
X147810000Y-93005300D01*
X136398000Y-119126000D02*
X137586900Y-119126000D01*
X134900000Y-102981200D02*
X136848500Y-101032700D01*
X134900000Y-114700000D02*
X134900000Y-102981200D01*
X161100000Y-81920000D02*
X161100000Y-80744700D01*
X161936900Y-80744700D02*
X161100000Y-80744700D01*
X162284000Y-80397600D02*
X161936900Y-80744700D01*
X162284000Y-78399700D02*
X162284000Y-80397600D01*
X161990700Y-78106400D02*
X162284000Y-78399700D01*
X154891000Y-78106400D02*
X161990700Y-78106400D01*
X154724600Y-78272800D02*
X154891000Y-78106400D01*
X154724600Y-92836900D02*
X154724600Y-78272800D01*
X152108600Y-95452900D02*
X154724600Y-92836900D01*
X152108600Y-112025300D02*
X152108600Y-95452900D01*
X147961600Y-116172300D02*
X152108600Y-112025300D01*
X146518300Y-116172300D02*
X147961600Y-116172300D01*
X145687300Y-117003300D02*
X146518300Y-116172300D01*
X139980000Y-101570900D02*
X149002400Y-92548500D01*
X139980000Y-114700000D02*
X139980000Y-101570900D01*
X142520000Y-114700000D02*
X143032400Y-114700000D01*
X160609100Y-119646100D02*
X160609100Y-119126000D01*
X159752100Y-120503100D02*
X160609100Y-119646100D01*
X143554700Y-120503100D02*
X159752100Y-120503100D01*
X142819100Y-119767500D02*
X143554700Y-120503100D01*
X142819100Y-114913300D02*
X142819100Y-119767500D01*
X143032400Y-114700000D02*
X142819100Y-114913300D01*
X161798000Y-119126000D02*
X160609100Y-119126000D01*
X149563100Y-108169300D02*
X143032400Y-114700000D01*
X149563100Y-105437500D02*
X149563100Y-108169300D01*
X163149100Y-118223300D02*
X163149100Y-119126000D01*
X159794000Y-114868200D02*
X163149100Y-118223300D01*
X159794000Y-114118500D02*
X159794000Y-114868200D01*
X158794900Y-113119400D02*
X159794000Y-114118500D01*
X157992300Y-113119400D02*
X158794900Y-113119400D01*
X157174000Y-112301100D02*
X157992300Y-113119400D01*
X157174000Y-111482700D02*
X157174000Y-112301100D01*
X156250700Y-110559400D02*
X157174000Y-111482700D01*
X155375800Y-110559400D02*
X156250700Y-110559400D01*
X154658600Y-109842200D02*
X155375800Y-110559400D01*
X154658600Y-103896300D02*
X154658600Y-109842200D01*
X159924700Y-98630200D02*
X154658600Y-103896300D01*
X159924700Y-91523200D02*
X159924700Y-98630200D01*
X160732600Y-90715300D02*
X159924700Y-91523200D01*
X161100000Y-90715300D02*
X160732600Y-90715300D01*
X161100000Y-89540000D02*
X161100000Y-90715300D01*
X164338000Y-119126000D02*
X163149100Y-119126000D01*
X161100000Y-101791000D02*
X161377500Y-102068500D01*
X161100000Y-93255300D02*
X161100000Y-101791000D01*
X165689100Y-117937100D02*
X165689100Y-119126000D01*
X163935200Y-116183200D02*
X165689100Y-117937100D01*
X163935200Y-107615800D02*
X163935200Y-116183200D01*
X166878000Y-119126000D02*
X165689100Y-119126000D01*
X161100000Y-92080000D02*
X161100000Y-93255300D01*
X168769400Y-117784700D02*
X169418000Y-117784700D01*
X165610000Y-114625300D02*
X168769400Y-117784700D01*
X165610000Y-113450000D02*
X165610000Y-114625300D01*
X169418000Y-119126000D02*
X169418000Y-117784700D01*
X171309400Y-117784700D02*
X171958000Y-117784700D01*
X168150000Y-114625300D02*
X171309400Y-117784700D01*
X168150000Y-113450000D02*
X168150000Y-114625300D01*
X171958000Y-119126000D02*
X171958000Y-117784700D01*
X171865300Y-115142200D02*
X175849100Y-119126000D01*
X171865300Y-113450000D02*
X171865300Y-115142200D01*
X170690000Y-113450000D02*
X171865300Y-113450000D01*
X177038000Y-119126000D02*
X175849100Y-119126000D01*
X178389100Y-117937100D02*
X178389100Y-119126000D01*
X174405300Y-113953300D02*
X178389100Y-117937100D01*
X174405300Y-113450000D02*
X174405300Y-113953300D01*
X173230000Y-113450000D02*
X174405300Y-113450000D01*
X179578000Y-119126000D02*
X178389100Y-119126000D01*
X180929100Y-117433800D02*
X180929100Y-119126000D01*
X176945300Y-113450000D02*
X180929100Y-117433800D01*
X175770000Y-113450000D02*
X176945300Y-113450000D01*
X182118000Y-119126000D02*
X180929100Y-119126000D01*
X183469100Y-117984400D02*
X183469100Y-119126000D01*
X180210000Y-114725300D02*
X183469100Y-117984400D01*
X180210000Y-113550000D02*
X180210000Y-114725300D01*
X184658000Y-119126000D02*
X183469100Y-119126000D01*
X186009100Y-117984400D02*
X186009100Y-119126000D01*
X182750000Y-114725300D02*
X186009100Y-117984400D01*
X182750000Y-113550000D02*
X182750000Y-114725300D01*
X187198000Y-119126000D02*
X186009100Y-119126000D01*
X188549100Y-117984400D02*
X188549100Y-119126000D01*
X185290000Y-114725300D02*
X188549100Y-117984400D01*
X185290000Y-113550000D02*
X185290000Y-114725300D01*
X189738000Y-119126000D02*
X188549100Y-119126000D01*
X191089100Y-117984400D02*
X191089100Y-119126000D01*
X187830000Y-114725300D02*
X191089100Y-117984400D01*
X187830000Y-113550000D02*
X187830000Y-114725300D01*
X192278000Y-119126000D02*
X191089100Y-119126000D01*
X193629100Y-117984400D02*
X193629100Y-119126000D01*
X190370000Y-114725300D02*
X193629100Y-117984400D01*
X190370000Y-113550000D02*
X190370000Y-114725300D01*
X194818000Y-119126000D02*
X193629100Y-119126000D01*
X126065100Y-70383200D02*
X126065100Y-70866000D01*
X125093200Y-69411300D02*
X126065100Y-70383200D01*
X111740100Y-69411300D02*
X125093200Y-69411300D01*
X109348900Y-67020100D02*
X111740100Y-69411300D01*
X109348900Y-66500000D02*
X109348900Y-67020100D01*
X108160000Y-66500000D02*
X109348900Y-66500000D01*
X127254000Y-70866000D02*
X126065100Y-70866000D01*
X146567700Y-69524600D02*
X147909100Y-70866000D01*
X133572300Y-69524600D02*
X146567700Y-69524600D01*
X131048900Y-67001200D02*
X133572300Y-69524600D01*
X131048900Y-66500000D02*
X131048900Y-67001200D01*
X129860000Y-66500000D02*
X131048900Y-66500000D01*
X149098000Y-70866000D02*
X147909100Y-70866000D01*
X132400000Y-66500000D02*
X133588900Y-66500000D01*
X151638000Y-70866000D02*
X150449100Y-70866000D01*
X133588900Y-67020100D02*
X133588900Y-66500000D01*
X135522500Y-68953700D02*
X133588900Y-67020100D01*
X149056900Y-68953700D02*
X135522500Y-68953700D01*
X150449100Y-70345900D02*
X149056900Y-68953700D01*
X150449100Y-70866000D02*
X150449100Y-70345900D01*
X152989100Y-70345900D02*
X152989100Y-70866000D01*
X151146600Y-68503400D02*
X152989100Y-70345900D01*
X137612200Y-68503400D02*
X151146600Y-68503400D01*
X136128900Y-67020100D02*
X137612200Y-68503400D01*
X136128900Y-66500000D02*
X136128900Y-67020100D01*
X134940000Y-66500000D02*
X136128900Y-66500000D01*
X154178000Y-70866000D02*
X152989100Y-70866000D01*
X155529100Y-70345900D02*
X155529100Y-70866000D01*
X153230300Y-68047100D02*
X155529100Y-70345900D01*
X139695900Y-68047100D02*
X153230300Y-68047100D01*
X138668900Y-67020100D02*
X139695900Y-68047100D01*
X138668900Y-66500000D02*
X138668900Y-67020100D01*
X137480000Y-66500000D02*
X138668900Y-66500000D01*
X156718000Y-70866000D02*
X155529100Y-70866000D01*
X119640000Y-114700000D02*
X120828900Y-114700000D01*
X120828900Y-115220100D02*
X120828900Y-114700000D01*
X126125900Y-120517100D02*
X120828900Y-115220100D01*
X137546900Y-120517100D02*
X126125900Y-120517100D01*
X138938000Y-119126000D02*
X137546900Y-120517100D01*
X106808900Y-67688900D02*
X106808900Y-66500000D01*
X137482700Y-98362700D02*
X106808900Y-67688900D01*
X137482700Y-112082000D02*
X137482700Y-98362700D01*
X105620000Y-66500000D02*
X106808900Y-66500000D01*
X147600000Y-114700000D02*
X148788900Y-114700000D01*
X189738000Y-70866000D02*
X188549100Y-70866000D01*
X157988000Y-71517500D02*
X159291100Y-72820600D01*
X157988000Y-70288600D02*
X157988000Y-71517500D01*
X152855300Y-65155900D02*
X157988000Y-70288600D01*
X105092900Y-65155900D02*
X152855300Y-65155900D01*
X104268900Y-65979900D02*
X105092900Y-65155900D01*
X104268900Y-66500000D02*
X104268900Y-65979900D01*
X103080000Y-66500000D02*
X104268900Y-66500000D01*
X159741400Y-72370300D02*
X159291100Y-72820600D01*
X167245700Y-72370300D02*
X159741400Y-72370300D01*
X170605400Y-69010600D02*
X167245700Y-72370300D01*
X187213800Y-69010600D02*
X170605400Y-69010600D01*
X188549100Y-70345900D02*
X187213800Y-69010600D01*
X188549100Y-70866000D02*
X188549100Y-70345900D01*
X152479200Y-79632500D02*
X159291100Y-72820600D01*
X152479200Y-94445400D02*
X152479200Y-79632500D01*
X150943900Y-95980700D02*
X152479200Y-94445400D01*
X150943900Y-112545000D02*
X150943900Y-95980700D01*
X148788900Y-114700000D02*
X150943900Y-112545000D01*
X113240000Y-66500000D02*
X114428900Y-66500000D01*
X114428900Y-67020100D02*
X114428900Y-66500000D01*
X116369700Y-68960900D02*
X114428900Y-67020100D01*
X129760100Y-68960900D02*
X116369700Y-68960900D01*
X131145100Y-70345900D02*
X129760100Y-68960900D01*
X131145100Y-70866000D02*
X131145100Y-70345900D01*
X132334000Y-70866000D02*
X131145100Y-70866000D01*
X132334000Y-73446700D02*
X132334000Y-70866000D01*
X147002000Y-88114700D02*
X132334000Y-73446700D01*
X147810000Y-88114700D02*
X147002000Y-88114700D01*
X147810000Y-89290000D02*
X147810000Y-88114700D01*
X115780000Y-66500000D02*
X116968900Y-66500000D01*
X134874000Y-70866000D02*
X133685100Y-70866000D01*
X133685100Y-70345900D02*
X133685100Y-70866000D01*
X131624800Y-68285600D02*
X133685100Y-70345900D01*
X118234400Y-68285600D02*
X131624800Y-68285600D01*
X116968900Y-67020100D02*
X118234400Y-68285600D01*
X116968900Y-66500000D02*
X116968900Y-67020100D01*
X134874000Y-72638700D02*
X134874000Y-70866000D01*
X147810000Y-85574700D02*
X134874000Y-72638700D01*
X147810000Y-86750000D02*
X147810000Y-85574700D01*
X138602900Y-72054900D02*
X138602900Y-70866000D01*
X149174700Y-82626700D02*
X138602900Y-72054900D01*
X149174700Y-87306800D02*
X149174700Y-82626700D01*
X149982600Y-88114700D02*
X149174700Y-87306800D01*
X150350000Y-88114700D02*
X149982600Y-88114700D01*
X150350000Y-89290000D02*
X150350000Y-88114700D01*
X137414000Y-70866000D02*
X138602900Y-70866000D01*
X165713100Y-74192600D02*
X166772700Y-74192600D01*
X163634900Y-76270800D02*
X165713100Y-74192600D01*
X163634900Y-81236400D02*
X163634900Y-76270800D01*
X163401000Y-81470300D02*
X163634900Y-81236400D01*
X163401000Y-100147600D02*
X163401000Y-81470300D01*
X163175700Y-100372900D02*
X163401000Y-100147600D01*
X161857800Y-95432900D02*
X161857800Y-100586100D01*
X162500400Y-94790300D02*
X161857800Y-95432900D01*
X162500400Y-81097100D02*
X162500400Y-94790300D01*
X162734300Y-80863200D02*
X162500400Y-81097100D01*
X162734300Y-77889000D02*
X162734300Y-80863200D01*
X162472600Y-77627300D02*
X162734300Y-77889000D01*
X200269600Y-77297100D02*
X199898000Y-77297100D01*
X201086900Y-76479800D02*
X200269600Y-77297100D01*
X201086900Y-75442200D02*
X201086900Y-76479800D01*
X200320700Y-74676000D02*
X201086900Y-75442200D01*
X199485600Y-74676000D02*
X200320700Y-74676000D01*
X198708800Y-73899200D02*
X199485600Y-74676000D01*
X198708800Y-73071000D02*
X198708800Y-73899200D01*
X197854800Y-72217000D02*
X198708800Y-73071000D01*
X188609500Y-72217000D02*
X197854800Y-72217000D01*
X185560000Y-75266500D02*
X188609500Y-72217000D01*
X185560000Y-76170900D02*
X185560000Y-75266500D01*
X184730900Y-77000000D02*
X185560000Y-76170900D01*
X183804200Y-77000000D02*
X184730900Y-77000000D01*
X183000000Y-77804200D02*
X183804200Y-77000000D01*
X183000000Y-79160100D02*
X183000000Y-77804200D01*
X182734800Y-79425300D02*
X183000000Y-79160100D01*
X180949200Y-79425300D02*
X182734800Y-79425300D01*
X179645300Y-80729200D02*
X180949200Y-79425300D01*
X179645300Y-83638100D02*
X179645300Y-80729200D01*
X178890400Y-84393000D02*
X179645300Y-83638100D01*
X178890400Y-89801400D02*
X178890400Y-84393000D01*
X171818700Y-93392000D02*
X171768100Y-93341400D01*
X171818700Y-99509800D02*
X171818700Y-93392000D01*
X170853800Y-100474700D02*
X171818700Y-99509800D01*
X170560000Y-100474700D02*
X170853800Y-100474700D01*
X170560000Y-101650000D02*
X170560000Y-100474700D01*
X199898000Y-78486000D02*
X199898000Y-77297100D01*
X173100000Y-101650000D02*
X173100000Y-102825300D01*
X176130900Y-102825300D02*
X173100000Y-102825300D01*
X177019200Y-101937000D02*
X176130900Y-102825300D01*
X177019200Y-92104700D02*
X177019200Y-101937000D01*
X177703200Y-91420700D02*
X177019200Y-92104700D01*
X177703200Y-82805300D02*
X177703200Y-91420700D01*
X178306000Y-82202500D02*
X177703200Y-82805300D01*
X178306000Y-79557600D02*
X178306000Y-82202500D01*
X199898000Y-83566000D02*
X199898000Y-84754900D01*
X199526400Y-84754900D02*
X199898000Y-84754900D01*
X198709100Y-85572200D02*
X199526400Y-84754900D01*
X198709100Y-89023400D02*
X198709100Y-85572200D01*
X197897500Y-89835000D02*
X198709100Y-89023400D01*
X196958100Y-89835000D02*
X197897500Y-89835000D01*
X191310000Y-95483100D02*
X196958100Y-89835000D01*
X191310000Y-97120900D02*
X191310000Y-95483100D01*
X190480900Y-97950000D02*
X191310000Y-97120900D01*
X189616900Y-97950000D02*
X190480900Y-97950000D01*
X188675400Y-98891500D02*
X189616900Y-97950000D01*
X188675400Y-99721300D02*
X188675400Y-98891500D01*
X187960400Y-100436300D02*
X188675400Y-99721300D01*
X186805500Y-100436300D02*
X187960400Y-100436300D01*
X179860000Y-101700000D02*
X179860000Y-100524700D01*
X178993400Y-100524700D02*
X179860000Y-100524700D01*
X178370100Y-99901400D02*
X178993400Y-100524700D01*
X178370100Y-92944400D02*
X178370100Y-99901400D01*
X179609900Y-91704600D02*
X178370100Y-92944400D01*
X179609900Y-84448200D02*
X179609900Y-91704600D01*
X181519100Y-82539000D02*
X179609900Y-84448200D01*
X200269600Y-89834900D02*
X199898000Y-89834900D01*
X201086900Y-90652200D02*
X200269600Y-89834900D01*
X201086900Y-99375500D02*
X201086900Y-90652200D01*
X200386400Y-100076000D02*
X201086900Y-99375500D01*
X199485600Y-100076000D02*
X200386400Y-100076000D01*
X198547000Y-101014600D02*
X199485600Y-100076000D01*
X198547000Y-101855600D02*
X198547000Y-101014600D01*
X197786600Y-102616000D02*
X198547000Y-101855600D01*
X196016000Y-102616000D02*
X197786600Y-102616000D01*
X195249700Y-103382300D02*
X196016000Y-102616000D01*
X184082300Y-103382300D02*
X195249700Y-103382300D01*
X182400000Y-101700000D02*
X184082300Y-103382300D01*
X199898000Y-88646000D02*
X199898000Y-89834900D01*
X198709100Y-94097600D02*
X198709100Y-93726000D01*
X197891800Y-94914900D02*
X198709100Y-94097600D01*
X196032200Y-94914900D02*
X197891800Y-94914900D01*
X192997100Y-97950000D02*
X196032200Y-94914900D01*
X192165800Y-97950000D02*
X192997100Y-97950000D01*
X191358500Y-98757300D02*
X192165800Y-97950000D01*
X191358500Y-99577400D02*
X191358500Y-98757300D01*
X190475900Y-100460000D02*
X191358500Y-99577400D01*
X189521500Y-100460000D02*
X190475900Y-100460000D01*
X188655300Y-101326200D02*
X189521500Y-100460000D01*
X188655300Y-101700000D02*
X188655300Y-101326200D01*
X187480000Y-101700000D02*
X188655300Y-101700000D01*
X199898000Y-93726000D02*
X198709100Y-93726000D01*
X198709100Y-96637600D02*
X198709100Y-96266000D01*
X197891800Y-97454900D02*
X198709100Y-96637600D01*
X196021600Y-97454900D02*
X197891800Y-97454900D01*
X192951800Y-100524700D02*
X196021600Y-97454900D01*
X192003200Y-100524700D02*
X192951800Y-100524700D01*
X191195300Y-101332600D02*
X192003200Y-100524700D01*
X191195300Y-101700000D02*
X191195300Y-101332600D01*
X190020000Y-101700000D02*
X191195300Y-101700000D01*
X199898000Y-96266000D02*
X198709100Y-96266000D01*
X195416100Y-100019200D02*
X193735300Y-101700000D01*
X197867400Y-100019200D02*
X195416100Y-100019200D01*
X198709100Y-99177500D02*
X197867400Y-100019200D01*
X198709100Y-98806000D02*
X198709100Y-99177500D01*
X199898000Y-98806000D02*
X198709100Y-98806000D01*
X192560000Y-101700000D02*
X193735300Y-101700000D01*
X175129100Y-92350300D02*
X176252800Y-93474000D01*
X175129100Y-83306200D02*
X175129100Y-92350300D01*
X176360000Y-82075300D02*
X175129100Y-83306200D01*
X176360000Y-80900000D02*
X176360000Y-82075300D01*
X181810000Y-80750000D02*
X181810000Y-81925300D01*
X197358000Y-101346000D02*
X196169100Y-101346000D01*
X182144400Y-82259700D02*
X181810000Y-81925300D01*
X182144400Y-82798100D02*
X182144400Y-82259700D01*
X180060200Y-84882300D02*
X182144400Y-82798100D01*
X180060200Y-92306100D02*
X180060200Y-84882300D01*
X183670000Y-95915900D02*
X180060200Y-92306100D01*
X183670000Y-102132600D02*
X183670000Y-95915900D01*
X184469300Y-102931900D02*
X183670000Y-102132600D01*
X194583200Y-102931900D02*
X184469300Y-102931900D01*
X196169100Y-101346000D02*
X194583200Y-102931900D01*
X186269400Y-96308800D02*
X186269400Y-97814400D01*
X184740000Y-94779400D02*
X186269400Y-96308800D01*
X183170400Y-94779400D02*
X184740000Y-94779400D01*
X180524600Y-92133600D02*
X183170400Y-94779400D01*
X180524600Y-85141800D02*
X180524600Y-92133600D01*
X183741100Y-81925300D02*
X180524600Y-85141800D01*
X184350000Y-81925300D02*
X183741100Y-81925300D01*
X184350000Y-80750000D02*
X184350000Y-81925300D01*
X188065300Y-80382600D02*
X188065300Y-80750000D01*
X188873200Y-79574700D02*
X188065300Y-80382600D01*
X189733200Y-79574700D02*
X188873200Y-79574700D01*
X190616600Y-78691300D02*
X189733200Y-79574700D01*
X190616600Y-77852500D02*
X190616600Y-78691300D01*
X191469100Y-77000000D02*
X190616600Y-77852500D01*
X193369600Y-77000000D02*
X191469100Y-77000000D01*
X195637600Y-74732000D02*
X193369600Y-77000000D01*
X197884700Y-74732000D02*
X195637600Y-74732000D01*
X198709000Y-75556300D02*
X197884700Y-74732000D01*
X198709000Y-81540300D02*
X198709000Y-75556300D01*
X199464700Y-82296000D02*
X198709000Y-81540300D01*
X200337800Y-82296000D02*
X199464700Y-82296000D01*
X201585100Y-83543300D02*
X200337800Y-82296000D01*
X201585100Y-101372700D02*
X201585100Y-83543300D01*
X200341800Y-102616000D02*
X201585100Y-101372700D01*
X199475200Y-102616000D02*
X200341800Y-102616000D01*
X198546900Y-103544300D02*
X199475200Y-102616000D01*
X198546900Y-104419800D02*
X198546900Y-103544300D01*
X197729600Y-105237100D02*
X198546900Y-104419800D01*
X197358000Y-105237100D02*
X197729600Y-105237100D01*
X197358000Y-106426000D02*
X197358000Y-105237100D01*
X186890000Y-80750000D02*
X188065300Y-80750000D01*
X194159900Y-80923300D02*
X194159900Y-80171300D01*
X191058300Y-84024900D02*
X194159900Y-80923300D01*
X189750700Y-84024900D02*
X191058300Y-84024900D01*
X188134600Y-85641000D02*
X189750700Y-84024900D01*
X188134600Y-87248700D02*
X188134600Y-85641000D01*
X177919800Y-106168700D02*
X178982000Y-107230900D01*
X177919800Y-92757800D02*
X177919800Y-106168700D01*
X178984000Y-91693600D02*
X177919800Y-92757800D01*
X178984000Y-90922300D02*
X178984000Y-91693600D01*
X195127800Y-89916000D02*
X195923200Y-89916000D01*
X188770000Y-96273800D02*
X195127800Y-89916000D01*
X188770000Y-97094200D02*
X188770000Y-96273800D01*
X187839600Y-98024600D02*
X188770000Y-97094200D01*
X186990100Y-98024600D02*
X187839600Y-98024600D01*
X186230000Y-98784700D02*
X186990100Y-98024600D01*
X186230000Y-99602000D02*
X186230000Y-98784700D01*
X185307300Y-100524700D02*
X186230000Y-99602000D01*
X184940000Y-100524700D02*
X185307300Y-100524700D01*
X184940000Y-101700000D02*
X184940000Y-100524700D01*
X158484000Y-106864000D02*
X158484000Y-105688700D01*
X171958000Y-70866000D02*
X170769100Y-70866000D01*
X167398000Y-74237100D02*
X170769100Y-70866000D01*
X167398000Y-81982400D02*
X167398000Y-74237100D01*
X163851300Y-85529100D02*
X167398000Y-81982400D01*
X163851300Y-101218600D02*
X163851300Y-85529100D01*
X159381200Y-105688700D02*
X163851300Y-101218600D01*
X158484000Y-105688700D02*
X159381200Y-105688700D01*
X174498000Y-70866000D02*
X173309100Y-70866000D01*
X161084000Y-106844000D02*
X161084000Y-105668700D01*
X173309100Y-72054900D02*
X173309100Y-70866000D01*
X170084600Y-75279400D02*
X173309100Y-72054900D01*
X170084600Y-81230300D02*
X170084600Y-75279400D01*
X166550700Y-84764200D02*
X170084600Y-81230300D01*
X165268300Y-84764200D02*
X166550700Y-84764200D01*
X164301600Y-85730900D02*
X165268300Y-84764200D01*
X164301600Y-102451100D02*
X164301600Y-85730900D01*
X161084000Y-105668700D02*
X164301600Y-102451100D01*
X175849100Y-72054900D02*
X175849100Y-70866000D01*
X172550000Y-75354000D02*
X175849100Y-72054900D01*
X172550000Y-82494700D02*
X172550000Y-75354000D01*
X169960000Y-85084700D02*
X172550000Y-82494700D01*
X169960000Y-92872600D02*
X169960000Y-85084700D01*
X166695400Y-96137200D02*
X169960000Y-92872600D01*
X166695400Y-102632800D02*
X166695400Y-96137200D01*
X162259400Y-107068800D02*
X166695400Y-102632800D01*
X162259400Y-107873700D02*
X162259400Y-107068800D01*
X162113700Y-108019400D02*
X162259400Y-107873700D01*
X160750100Y-108019400D02*
X162113700Y-108019400D01*
X159659300Y-109110200D02*
X160750100Y-108019400D01*
X159659300Y-109404000D02*
X159659300Y-109110200D01*
X158484000Y-109404000D02*
X159659300Y-109404000D01*
X177038000Y-70866000D02*
X175849100Y-70866000D01*
X179578000Y-70866000D02*
X178389100Y-70866000D01*
X161433900Y-109384000D02*
X161084000Y-109384000D01*
X162709800Y-108108100D02*
X161433900Y-109384000D01*
X162709800Y-107255300D02*
X162709800Y-108108100D01*
X166284700Y-103680400D02*
X162709800Y-107255300D01*
X167712100Y-103680400D02*
X166284700Y-103680400D01*
X169313600Y-102078900D02*
X167712100Y-103680400D01*
X169313600Y-94855800D02*
X169313600Y-102078900D01*
X172584200Y-91585200D02*
X169313600Y-94855800D01*
X172584200Y-85049100D02*
X172584200Y-91585200D01*
X175024100Y-82609200D02*
X172584200Y-85049100D01*
X175024100Y-75419900D02*
X175024100Y-82609200D01*
X178389100Y-72054900D02*
X175024100Y-75419900D01*
X178389100Y-70866000D02*
X178389100Y-72054900D01*
X182118000Y-70866000D02*
X180929100Y-70866000D01*
X158484000Y-111944000D02*
X158484000Y-110768700D01*
X180929100Y-70345900D02*
X180929100Y-70866000D01*
X180067100Y-69483900D02*
X180929100Y-70345900D01*
X170833200Y-69483900D02*
X180067100Y-69483900D01*
X167096400Y-73220700D02*
X170833200Y-69483900D01*
X166022800Y-73220700D02*
X167096400Y-73220700D01*
X163184600Y-76058900D02*
X166022800Y-73220700D01*
X163184600Y-81049800D02*
X163184600Y-76058900D01*
X162950700Y-81283700D02*
X163184600Y-81049800D01*
X162950700Y-95201900D02*
X162950700Y-81283700D01*
X162500400Y-95652200D02*
X162950700Y-95201900D01*
X162500400Y-101853000D02*
X162500400Y-95652200D01*
X159747900Y-104605500D02*
X162500400Y-101853000D01*
X158511800Y-104605500D02*
X159747900Y-104605500D01*
X157308700Y-105808600D02*
X158511800Y-104605500D01*
X157308700Y-109960800D02*
X157308700Y-105808600D01*
X158116600Y-110768700D02*
X157308700Y-109960800D01*
X158484000Y-110768700D02*
X158116600Y-110768700D01*
X161084000Y-111924000D02*
X161084000Y-110748700D01*
X161469600Y-110748700D02*
X161084000Y-110748700D01*
X163309900Y-108908400D02*
X161469600Y-110748700D01*
X163309900Y-107356800D02*
X163309900Y-108908400D01*
X163712800Y-106953900D02*
X163309900Y-107356800D01*
X172639200Y-106953900D02*
X163712800Y-106953900D01*
X177469500Y-102123600D02*
X172639200Y-106953900D01*
X177469500Y-92571200D02*
X177469500Y-102123600D01*
X178265100Y-91775600D02*
X177469500Y-92571200D01*
X178265100Y-82880300D02*
X178265100Y-91775600D01*
X179194900Y-81950500D02*
X178265100Y-82880300D01*
X179194900Y-74085200D02*
X179194900Y-81950500D01*
X181060400Y-72219700D02*
X179194900Y-74085200D01*
X104024700Y-108359400D02*
X105200000Y-109534700D01*
X104024700Y-99803300D02*
X104024700Y-108359400D01*
X104832700Y-98995300D02*
X104024700Y-99803300D01*
X105200000Y-98995300D02*
X104832700Y-98995300D01*
X105200000Y-97820000D02*
X105200000Y-98995300D01*
X105200000Y-110710000D02*
X105200000Y-109534700D01*
X155884000Y-114464000D02*
X155884000Y-111924000D01*
X155884000Y-109384000D02*
X155884000Y-106844000D01*
X158500000Y-87000000D02*
X158500000Y-84460000D01*
X158500000Y-84460000D02*
X158500000Y-81920000D01*
X158500000Y-81920000D02*
X158500000Y-79380000D01*
X158500000Y-87000000D02*
X158500000Y-89540000D01*
M02*
