G04 #@! TF.FileFunction,Copper,L1,Top,Signal*
%FSLAX46Y46*%
G04 Gerber Fmt 4.6, Leading zero omitted, Abs format (unit mm)*
G04 Created by KiCad (PCBNEW 4.0.6) date 07/22/17 16:53:04*
%MOMM*%
%LPD*%
G01*
G04 APERTURE LIST*
%ADD10C,0.100000*%
%ADD11C,1.727200*%
%ADD12O,1.727200X1.727200*%
%ADD13O,1.727200X2.032000*%
%ADD14R,1.700000X1.700000*%
%ADD15O,1.700000X1.700000*%
%ADD16R,1.800000X1.800000*%
%ADD17C,1.800000*%
%ADD18C,0.600000*%
%ADD19C,0.250000*%
G04 APERTURE END LIST*
D10*
D11*
X197358000Y-114046000D03*
D12*
X199898000Y-114046000D03*
X197358000Y-111506000D03*
X199898000Y-111506000D03*
X197358000Y-108966000D03*
X199898000Y-108966000D03*
X197358000Y-106426000D03*
X199898000Y-106426000D03*
X197358000Y-103886000D03*
X199898000Y-103886000D03*
X197358000Y-101346000D03*
X199898000Y-101346000D03*
X197358000Y-98806000D03*
X199898000Y-98806000D03*
X197358000Y-96266000D03*
X199898000Y-96266000D03*
X197358000Y-93726000D03*
X199898000Y-93726000D03*
X197358000Y-91186000D03*
X199898000Y-91186000D03*
X197358000Y-88646000D03*
X199898000Y-88646000D03*
X197358000Y-86106000D03*
X199898000Y-86106000D03*
X197358000Y-83566000D03*
X199898000Y-83566000D03*
X197358000Y-81026000D03*
X199898000Y-81026000D03*
X197358000Y-78486000D03*
X199898000Y-78486000D03*
X197358000Y-75946000D03*
X199898000Y-75946000D03*
X197358000Y-73406000D03*
X199898000Y-73406000D03*
X197358000Y-70866000D03*
X199898000Y-70866000D03*
D13*
X131318000Y-119126000D03*
X133858000Y-119126000D03*
X136398000Y-119126000D03*
X138938000Y-119126000D03*
X141478000Y-119126000D03*
X144018000Y-119126000D03*
X146558000Y-119126000D03*
X149098000Y-119126000D03*
X154178000Y-119126000D03*
X156718000Y-119126000D03*
X159258000Y-119126000D03*
X161798000Y-119126000D03*
X164338000Y-119126000D03*
X166878000Y-119126000D03*
X169418000Y-119126000D03*
X171958000Y-119126000D03*
X177038000Y-119126000D03*
X179578000Y-119126000D03*
X182118000Y-119126000D03*
X184658000Y-119126000D03*
X187198000Y-119126000D03*
X189738000Y-119126000D03*
X192278000Y-119126000D03*
X194818000Y-119126000D03*
X122174000Y-70866000D03*
X124714000Y-70866000D03*
X127254000Y-70866000D03*
X129794000Y-70866000D03*
X132334000Y-70866000D03*
X134874000Y-70866000D03*
X137414000Y-70866000D03*
X139954000Y-70866000D03*
X142494000Y-70866000D03*
X145034000Y-70866000D03*
X149098000Y-70866000D03*
X151638000Y-70866000D03*
X154178000Y-70866000D03*
X156718000Y-70866000D03*
X159258000Y-70866000D03*
X161798000Y-70866000D03*
X164338000Y-70866000D03*
X166878000Y-70866000D03*
X171958000Y-70866000D03*
X174498000Y-70866000D03*
X177038000Y-70866000D03*
X179578000Y-70866000D03*
X182118000Y-70866000D03*
X184658000Y-70866000D03*
X187198000Y-70866000D03*
X189738000Y-70866000D03*
X112020000Y-114700000D03*
X114560000Y-114700000D03*
X117100000Y-114700000D03*
X119640000Y-114700000D03*
X122180000Y-114700000D03*
X124720000Y-114700000D03*
X127260000Y-114700000D03*
X129800000Y-114700000D03*
X134900000Y-114700000D03*
X137440000Y-114700000D03*
X139980000Y-114700000D03*
X142520000Y-114700000D03*
X145060000Y-114700000D03*
X147600000Y-114700000D03*
X103080000Y-66500000D03*
X105620000Y-66500000D03*
X108160000Y-66500000D03*
X110700000Y-66500000D03*
X113240000Y-66500000D03*
X115780000Y-66500000D03*
X118320000Y-66500000D03*
X120860000Y-66500000D03*
X123400000Y-66500000D03*
X125940000Y-66500000D03*
X129860000Y-66500000D03*
X132400000Y-66500000D03*
X134940000Y-66500000D03*
X137480000Y-66500000D03*
X140020000Y-66500000D03*
X142560000Y-66500000D03*
X145100000Y-66500000D03*
X147640000Y-66500000D03*
D14*
X165610000Y-113450000D03*
D15*
X168150000Y-113450000D03*
X170690000Y-113450000D03*
X173230000Y-113450000D03*
X175770000Y-113450000D03*
D14*
X180210000Y-113550000D03*
D15*
X182750000Y-113550000D03*
X185290000Y-113550000D03*
X187830000Y-113550000D03*
X190370000Y-113550000D03*
D14*
X165480000Y-101650000D03*
D15*
X168020000Y-101650000D03*
X170560000Y-101650000D03*
X173100000Y-101650000D03*
X175640000Y-101650000D03*
D14*
X179860000Y-101700000D03*
D15*
X182400000Y-101700000D03*
X184940000Y-101700000D03*
X187480000Y-101700000D03*
X190020000Y-101700000D03*
X192560000Y-101700000D03*
D14*
X166150000Y-91100000D03*
D15*
X168690000Y-91100000D03*
X171230000Y-91100000D03*
X173770000Y-91100000D03*
X176310000Y-91100000D03*
D14*
X181720000Y-91150000D03*
D15*
X184260000Y-91150000D03*
X186800000Y-91150000D03*
X189340000Y-91150000D03*
X191880000Y-91150000D03*
D14*
X166200000Y-80900000D03*
D15*
X168740000Y-80900000D03*
X171280000Y-80900000D03*
X173820000Y-80900000D03*
X176360000Y-80900000D03*
D14*
X181810000Y-80750000D03*
D15*
X184350000Y-80750000D03*
X186890000Y-80750000D03*
X189430000Y-80750000D03*
X191970000Y-80750000D03*
D14*
X165590000Y-110950000D03*
D15*
X168130000Y-110950000D03*
X170670000Y-110950000D03*
X173210000Y-110950000D03*
X175750000Y-110950000D03*
D14*
X180190000Y-111050000D03*
D15*
X182730000Y-111050000D03*
X185270000Y-111050000D03*
X187810000Y-111050000D03*
X190350000Y-111050000D03*
D14*
X165520000Y-99050000D03*
D15*
X168060000Y-99050000D03*
X170600000Y-99050000D03*
X173140000Y-99050000D03*
X175680000Y-99050000D03*
D14*
X179880000Y-99200000D03*
D15*
X182420000Y-99200000D03*
X184960000Y-99200000D03*
X187500000Y-99200000D03*
X190040000Y-99200000D03*
X192580000Y-99200000D03*
D14*
X176310000Y-88600000D03*
D15*
X173770000Y-88600000D03*
X171230000Y-88600000D03*
X168690000Y-88600000D03*
X166150000Y-88600000D03*
D14*
X181700000Y-88650000D03*
D15*
X184240000Y-88650000D03*
X186780000Y-88650000D03*
X189320000Y-88650000D03*
X191860000Y-88650000D03*
D14*
X181750000Y-78250000D03*
D15*
X184290000Y-78250000D03*
X186830000Y-78250000D03*
X189370000Y-78250000D03*
X191910000Y-78250000D03*
D14*
X166200000Y-78400000D03*
D15*
X168740000Y-78400000D03*
X171280000Y-78400000D03*
X173820000Y-78400000D03*
X176360000Y-78400000D03*
D14*
X165610000Y-108350000D03*
D15*
X168150000Y-108350000D03*
X170690000Y-108350000D03*
X173230000Y-108350000D03*
X175770000Y-108350000D03*
D14*
X180250000Y-108450000D03*
D15*
X182790000Y-108450000D03*
X185330000Y-108450000D03*
X187870000Y-108450000D03*
X190410000Y-108450000D03*
D14*
X165520000Y-96450000D03*
D15*
X168060000Y-96450000D03*
X170600000Y-96450000D03*
X173140000Y-96450000D03*
X175680000Y-96450000D03*
D14*
X179880000Y-96700000D03*
D15*
X182420000Y-96700000D03*
X184960000Y-96700000D03*
X187500000Y-96700000D03*
X190040000Y-96700000D03*
X192580000Y-96700000D03*
D14*
X166150000Y-86100000D03*
D15*
X168690000Y-86100000D03*
X171230000Y-86100000D03*
X173770000Y-86100000D03*
X176310000Y-86100000D03*
D14*
X181700000Y-86150000D03*
D15*
X184240000Y-86150000D03*
X186780000Y-86150000D03*
X189320000Y-86150000D03*
X191860000Y-86150000D03*
D14*
X181750000Y-75750000D03*
D15*
X184290000Y-75750000D03*
X186830000Y-75750000D03*
X189370000Y-75750000D03*
X191910000Y-75750000D03*
D14*
X166200000Y-75900000D03*
D15*
X168740000Y-75900000D03*
X171280000Y-75900000D03*
X173820000Y-75900000D03*
X176360000Y-75900000D03*
D14*
X105200000Y-115790000D03*
D15*
X105200000Y-113250000D03*
X105200000Y-110710000D03*
D14*
X105200000Y-102900000D03*
D15*
X105200000Y-100360000D03*
X105200000Y-97820000D03*
D14*
X147810000Y-86750000D03*
D15*
X150350000Y-86750000D03*
X147810000Y-89290000D03*
X150350000Y-89290000D03*
X147810000Y-91830000D03*
X150350000Y-91830000D03*
D14*
X153284000Y-106804000D03*
D15*
X153284000Y-109344000D03*
X153284000Y-111884000D03*
X153284000Y-114424000D03*
D14*
X155884000Y-106844000D03*
D15*
X155884000Y-109384000D03*
X155884000Y-111924000D03*
X155884000Y-114464000D03*
D14*
X158484000Y-106864000D03*
D15*
X158484000Y-109404000D03*
X158484000Y-111944000D03*
X158484000Y-114484000D03*
D14*
X161084000Y-106844000D03*
D15*
X161084000Y-109384000D03*
X161084000Y-111924000D03*
X161084000Y-114464000D03*
D14*
X161100000Y-79380000D03*
D15*
X161100000Y-81920000D03*
X161100000Y-84460000D03*
X161100000Y-87000000D03*
X161100000Y-89540000D03*
X161100000Y-92080000D03*
D14*
X158500000Y-79380000D03*
D15*
X158500000Y-81920000D03*
X158500000Y-84460000D03*
X158500000Y-87000000D03*
X158500000Y-89540000D03*
X158500000Y-92080000D03*
D14*
X155900000Y-79350000D03*
D15*
X155900000Y-81890000D03*
X155900000Y-84430000D03*
X155900000Y-86970000D03*
X155900000Y-89510000D03*
X155900000Y-92050000D03*
D16*
X103600000Y-81550000D03*
D17*
X106140000Y-81550000D03*
D16*
X103760000Y-88350000D03*
D17*
X106300000Y-88350000D03*
D18*
X172952900Y-83962300D03*
X195419900Y-110115200D03*
X148419500Y-93504400D03*
X146401300Y-91295300D03*
X147121400Y-96992800D03*
X167224900Y-93234200D03*
X166235700Y-84019300D03*
X179937800Y-79425400D03*
X179346400Y-90325900D03*
X173945500Y-93109200D03*
X184792200Y-94559800D03*
X196050400Y-87295000D03*
X193519100Y-102891200D03*
X174453600Y-84871200D03*
X180357800Y-93209000D03*
X183263200Y-94124100D03*
X180007800Y-81368900D03*
X180055400Y-104104900D03*
X190430200Y-83457200D03*
X195970000Y-90978700D03*
X192029000Y-94731200D03*
X194616900Y-103248600D03*
X157324600Y-91305400D03*
X168710000Y-70425500D03*
X162772400Y-104196900D03*
X171753100Y-73486000D03*
D19*
X155900000Y-92050000D02*
X154724700Y-92050000D01*
X192580000Y-96700000D02*
X190040000Y-96700000D01*
X190040000Y-96700000D02*
X187500000Y-96700000D01*
X187500000Y-96700000D02*
X184960000Y-96700000D01*
X173820000Y-75900000D02*
X171280000Y-75900000D01*
X171280000Y-75900000D02*
X168740000Y-75900000D01*
X168740000Y-75900000D02*
X166200000Y-75900000D01*
X191910000Y-75750000D02*
X189370000Y-75750000D01*
X189370000Y-75750000D02*
X186830000Y-75750000D01*
X186830000Y-75750000D02*
X184290000Y-75750000D01*
X184290000Y-75750000D02*
X181750000Y-75750000D01*
X191860000Y-86150000D02*
X189320000Y-86150000D01*
X184240000Y-86150000D02*
X181700000Y-86150000D01*
X171230000Y-86100000D02*
X168690000Y-86100000D01*
X173140000Y-96450000D02*
X170600000Y-96450000D01*
X170600000Y-96450000D02*
X168060000Y-96450000D01*
X168060000Y-96450000D02*
X165520000Y-96450000D01*
X190410000Y-108450000D02*
X187870000Y-108450000D01*
X187870000Y-108450000D02*
X185330000Y-108450000D01*
X185330000Y-108450000D02*
X182790000Y-108450000D01*
X182790000Y-108450000D02*
X180250000Y-108450000D01*
X170690000Y-108350000D02*
X168150000Y-108350000D01*
X154504700Y-91830000D02*
X151525300Y-91830000D01*
X154724700Y-92050000D02*
X154504700Y-91830000D01*
X150350000Y-91830000D02*
X151525300Y-91830000D01*
X168150000Y-108350000D02*
X165610000Y-108350000D01*
X178974700Y-108350000D02*
X179074700Y-108450000D01*
X175770000Y-108350000D02*
X178974700Y-108350000D01*
X180250000Y-108450000D02*
X179074700Y-108450000D01*
X181700000Y-86150000D02*
X180524700Y-86150000D01*
X189320000Y-86150000D02*
X188144700Y-86150000D01*
X184240000Y-86150000D02*
X186780000Y-86150000D01*
X186780000Y-86150000D02*
X188144700Y-86150000D01*
X103600000Y-81550000D02*
X103600000Y-80324700D01*
X129794000Y-70866000D02*
X128605100Y-70866000D01*
X128605100Y-71386100D02*
X128605100Y-70866000D01*
X127743300Y-72247900D02*
X128605100Y-71386100D01*
X110700000Y-72247900D02*
X127743300Y-72247900D01*
X110700000Y-73224700D02*
X110700000Y-72247900D01*
X103600000Y-80324700D02*
X110700000Y-73224700D01*
X110700000Y-72247900D02*
X110700000Y-66500000D01*
X182420000Y-96700000D02*
X184960000Y-96700000D01*
X175770000Y-108350000D02*
X174594700Y-108350000D01*
X170690000Y-108350000D02*
X173230000Y-108350000D01*
X173230000Y-108350000D02*
X174594700Y-108350000D01*
X168690000Y-86100000D02*
X166150000Y-86100000D01*
X166150000Y-86100000D02*
X164974700Y-86100000D01*
X155900000Y-86970000D02*
X157075300Y-86970000D01*
X155900000Y-84430000D02*
X155900000Y-85605300D01*
X155990500Y-85605300D02*
X155900000Y-85605300D01*
X157075300Y-86690100D02*
X155990500Y-85605300D01*
X157942800Y-85822600D02*
X157075300Y-86690100D01*
X164697300Y-85822600D02*
X157942800Y-85822600D01*
X164974700Y-86100000D02*
X164697300Y-85822600D01*
X157075300Y-86690100D02*
X157075300Y-86970000D01*
X180474700Y-86100000D02*
X176310000Y-86100000D01*
X180524700Y-86150000D02*
X180474700Y-86100000D01*
X176310000Y-86100000D02*
X173770000Y-86100000D01*
X153284000Y-95841300D02*
X155900000Y-93225300D01*
X153284000Y-106804000D02*
X153284000Y-95841300D01*
X155900000Y-92050000D02*
X155900000Y-93225300D01*
X124720000Y-114700000D02*
X127260000Y-114700000D01*
X130744800Y-111884000D02*
X153284000Y-111884000D01*
X128448900Y-114179900D02*
X130744800Y-111884000D01*
X128448900Y-114700000D02*
X128448900Y-114179900D01*
X127260000Y-114700000D02*
X128448900Y-114700000D01*
X182420000Y-96700000D02*
X179880000Y-96700000D01*
X177105300Y-96700000D02*
X176855300Y-96450000D01*
X179880000Y-96700000D02*
X177105300Y-96700000D01*
X175680000Y-96450000D02*
X176855300Y-96450000D01*
X173820000Y-75900000D02*
X176360000Y-75900000D01*
X180424700Y-75900000D02*
X180574700Y-75750000D01*
X176360000Y-75900000D02*
X180424700Y-75900000D01*
X181750000Y-75750000D02*
X180574700Y-75750000D01*
X197150500Y-93726000D02*
X197358000Y-93726000D01*
X193834200Y-90409700D02*
X197150500Y-93726000D01*
X193834200Y-85748300D02*
X193834200Y-90409700D01*
X192249500Y-84163600D02*
X193834200Y-85748300D01*
X173154200Y-84163600D02*
X192249500Y-84163600D01*
X172952900Y-83962300D02*
X173154200Y-84163600D01*
X168740000Y-80900000D02*
X169915300Y-80900000D01*
X197358000Y-88646000D02*
X196169100Y-88646000D01*
X169915300Y-81267300D02*
X169915300Y-80900000D01*
X171474300Y-82826300D02*
X169915300Y-81267300D01*
X192186000Y-82826300D02*
X171474300Y-82826300D01*
X194894100Y-85534400D02*
X192186000Y-82826300D01*
X194894100Y-87371000D02*
X194894100Y-85534400D01*
X196169100Y-88646000D02*
X194894100Y-87371000D01*
X166200000Y-80900000D02*
X167375300Y-80900000D01*
X197358000Y-86106000D02*
X196169100Y-86106000D01*
X192439000Y-82375900D02*
X196169100Y-86106000D01*
X180123800Y-82375900D02*
X192439000Y-82375900D01*
X177452200Y-79704300D02*
X180123800Y-82375900D01*
X168203700Y-79704300D02*
X177452200Y-79704300D01*
X167375300Y-80532700D02*
X168203700Y-79704300D01*
X167375300Y-80900000D02*
X167375300Y-80532700D01*
X198709100Y-111134400D02*
X198709100Y-111506000D01*
X197891800Y-110317100D02*
X198709100Y-111134400D01*
X195621800Y-110317100D02*
X197891800Y-110317100D01*
X195419900Y-110115200D02*
X195621800Y-110317100D01*
X199898000Y-111506000D02*
X198709100Y-111506000D01*
X200269600Y-105237100D02*
X199898000Y-105237100D01*
X201086900Y-104419800D02*
X200269600Y-105237100D01*
X201086900Y-100844600D02*
X201086900Y-104419800D01*
X200285600Y-100043300D02*
X201086900Y-100844600D01*
X199448500Y-100043300D02*
X200285600Y-100043300D01*
X198547000Y-99141800D02*
X199448500Y-100043300D01*
X198547000Y-98291700D02*
X198547000Y-99141800D01*
X197791300Y-97536000D02*
X198547000Y-98291700D01*
X196866400Y-97536000D02*
X197791300Y-97536000D01*
X196077900Y-96747500D02*
X196866400Y-97536000D01*
X196077900Y-95933400D02*
X196077900Y-96747500D01*
X192728100Y-92583600D02*
X196077900Y-95933400D01*
X179990700Y-92583600D02*
X192728100Y-92583600D01*
X178815100Y-93759200D02*
X179990700Y-92583600D01*
X172713900Y-93759200D02*
X178815100Y-93759200D01*
X171230000Y-92275300D02*
X172713900Y-93759200D01*
X171230000Y-91100000D02*
X171230000Y-92275300D01*
X199898000Y-106426000D02*
X199898000Y-105237100D01*
X166150000Y-91100000D02*
X167325300Y-91100000D01*
X199898000Y-101346000D02*
X198709100Y-101346000D01*
X198709100Y-100974400D02*
X198709100Y-101346000D01*
X197891800Y-100157100D02*
X198709100Y-100974400D01*
X196987500Y-100157100D02*
X197891800Y-100157100D01*
X194656000Y-97825600D02*
X196987500Y-100157100D01*
X194656000Y-95785300D02*
X194656000Y-97825600D01*
X192354900Y-93484200D02*
X194656000Y-95785300D01*
X181972300Y-93484200D02*
X192354900Y-93484200D01*
X181227200Y-94229300D02*
X181972300Y-93484200D01*
X170087300Y-94229300D02*
X181227200Y-94229300D01*
X167325300Y-91467300D02*
X170087300Y-94229300D01*
X167325300Y-91100000D02*
X167325300Y-91467300D01*
X198709100Y-104257600D02*
X198709100Y-103886000D01*
X197891800Y-105074900D02*
X198709100Y-104257600D01*
X166020900Y-105074900D02*
X197891800Y-105074900D01*
X163443800Y-102497800D02*
X166020900Y-105074900D01*
X163443800Y-91640500D02*
X163443800Y-102497800D01*
X165159700Y-89924600D02*
X163443800Y-91640500D01*
X167514600Y-89924600D02*
X165159700Y-89924600D01*
X168690000Y-91100000D02*
X167514600Y-89924600D01*
X199898000Y-103886000D02*
X198709100Y-103886000D01*
X199898000Y-70866000D02*
X197358000Y-70866000D01*
X197358000Y-70866000D02*
X196169100Y-70866000D01*
X149982800Y-87925300D02*
X150350000Y-87925300D01*
X149174600Y-88733500D02*
X149982800Y-87925300D01*
X149174600Y-92749300D02*
X149174600Y-88733500D01*
X148419500Y-93504400D02*
X149174600Y-92749300D01*
X150350000Y-86750000D02*
X150350000Y-87925300D01*
X150350000Y-86750000D02*
X151525300Y-86750000D01*
X192923800Y-74111300D02*
X196169100Y-70866000D01*
X165166500Y-74111300D02*
X192923800Y-74111300D01*
X163356000Y-75921800D02*
X165166500Y-74111300D01*
X163356000Y-79286700D02*
X163356000Y-75921800D01*
X162087300Y-80555400D02*
X163356000Y-79286700D01*
X160721700Y-80555400D02*
X162087300Y-80555400D01*
X159675400Y-81601700D02*
X160721700Y-80555400D01*
X159675400Y-82446800D02*
X159675400Y-81601700D01*
X158932200Y-83190000D02*
X159675400Y-82446800D01*
X155085300Y-83190000D02*
X158932200Y-83190000D01*
X151525300Y-86750000D02*
X155085300Y-83190000D01*
X141478000Y-119126000D02*
X140289100Y-119126000D01*
X122180000Y-114700000D02*
X123368900Y-114700000D01*
X140289100Y-118605900D02*
X140289100Y-119126000D01*
X138282800Y-116599600D02*
X140289100Y-118605900D01*
X133052100Y-116599600D02*
X138282800Y-116599600D01*
X132841700Y-116389200D02*
X133052100Y-116599600D01*
X124538000Y-116389200D02*
X132841700Y-116389200D01*
X123368900Y-115220100D02*
X124538000Y-116389200D01*
X123368900Y-114700000D02*
X123368900Y-115220100D01*
X132669100Y-118642600D02*
X132669100Y-119126000D01*
X131766600Y-117740100D02*
X132669100Y-118642600D01*
X118268900Y-117740100D02*
X131766600Y-117740100D01*
X115748900Y-115220100D02*
X118268900Y-117740100D01*
X115748900Y-114700000D02*
X115748900Y-115220100D01*
X114560000Y-114700000D02*
X115748900Y-114700000D01*
X133858000Y-119126000D02*
X132669100Y-119126000D01*
X136398000Y-119126000D02*
X135209100Y-119126000D01*
X117100000Y-114700000D02*
X118288900Y-114700000D01*
X135209100Y-118605900D02*
X135209100Y-119126000D01*
X134343300Y-117740100D02*
X135209100Y-118605900D01*
X132861200Y-117740100D02*
X134343300Y-117740100D01*
X132410900Y-117289800D02*
X132861200Y-117740100D01*
X120358600Y-117289800D02*
X132410900Y-117289800D01*
X118288900Y-115220100D02*
X120358600Y-117289800D01*
X118288900Y-114700000D02*
X118288900Y-115220100D01*
X146401300Y-88985300D02*
X146401300Y-91295300D01*
X147461200Y-87925400D02*
X146401300Y-88985300D01*
X148838900Y-87925400D02*
X147461200Y-87925400D01*
X149080200Y-87684100D02*
X148838900Y-87925400D01*
X149080200Y-86295600D02*
X149080200Y-87684100D01*
X154820500Y-80555300D02*
X149080200Y-86295600D01*
X159557500Y-80555300D02*
X154820500Y-80555300D01*
X159924700Y-80188100D02*
X159557500Y-80555300D01*
X159924700Y-79380000D02*
X159924700Y-80188100D01*
X161100000Y-79380000D02*
X159924700Y-79380000D01*
X134900000Y-114700000D02*
X136088900Y-114700000D01*
X154178000Y-119126000D02*
X152989100Y-119126000D01*
X151647700Y-117784600D02*
X152989100Y-119126000D01*
X140322200Y-117784600D02*
X151647700Y-117784600D01*
X138579000Y-116041400D02*
X140322200Y-117784600D01*
X136910200Y-116041400D02*
X138579000Y-116041400D01*
X136088900Y-115220100D02*
X136910200Y-116041400D01*
X136088900Y-114700000D02*
X136088900Y-115220100D01*
X138628900Y-115236200D02*
X138628900Y-114700000D01*
X140726900Y-117334200D02*
X138628900Y-115236200D01*
X154257400Y-117334200D02*
X140726900Y-117334200D01*
X155529100Y-118605900D02*
X154257400Y-117334200D01*
X155529100Y-119126000D02*
X155529100Y-118605900D01*
X156718000Y-119126000D02*
X155529100Y-119126000D01*
X137440000Y-114700000D02*
X138628900Y-114700000D01*
X159258000Y-119126000D02*
X158069100Y-119126000D01*
X139980000Y-114700000D02*
X141168900Y-114700000D01*
X141168900Y-115182800D02*
X141168900Y-114700000D01*
X142838500Y-116852400D02*
X141168900Y-115182800D01*
X156315600Y-116852400D02*
X142838500Y-116852400D01*
X158069100Y-118605900D02*
X156315600Y-116852400D01*
X158069100Y-119126000D02*
X158069100Y-118605900D01*
X142520000Y-114700000D02*
X143708900Y-114700000D01*
X161798000Y-119126000D02*
X160609100Y-119126000D01*
X143708900Y-115220100D02*
X143708900Y-114700000D01*
X144643800Y-116155000D02*
X143708900Y-115220100D01*
X158158200Y-116155000D02*
X144643800Y-116155000D01*
X160609100Y-118605900D02*
X158158200Y-116155000D01*
X160609100Y-119126000D02*
X160609100Y-118605900D01*
X123400000Y-66500000D02*
X124588900Y-66500000D01*
X142494000Y-70866000D02*
X141305100Y-70866000D01*
X141305100Y-70345900D02*
X141305100Y-70866000D01*
X139469500Y-68510300D02*
X141305100Y-70345900D01*
X126079100Y-68510300D02*
X139469500Y-68510300D01*
X124588900Y-67020100D02*
X126079100Y-68510300D01*
X124588900Y-66500000D02*
X124588900Y-67020100D01*
X143845100Y-70383200D02*
X143845100Y-70866000D01*
X141521800Y-68059900D02*
X143845100Y-70383200D01*
X128688800Y-68059900D02*
X141521800Y-68059900D01*
X127128900Y-66500000D02*
X128688800Y-68059900D01*
X125940000Y-66500000D02*
X127128900Y-66500000D01*
X145034000Y-70866000D02*
X143845100Y-70866000D01*
X140020000Y-66500000D02*
X141208900Y-66500000D01*
X159258000Y-70866000D02*
X158069100Y-70866000D01*
X158069100Y-70345900D02*
X158069100Y-70866000D01*
X157152300Y-69429100D02*
X158069100Y-70345900D01*
X143637200Y-69429100D02*
X157152300Y-69429100D01*
X141208900Y-67000800D02*
X143637200Y-69429100D01*
X141208900Y-66500000D02*
X141208900Y-67000800D01*
X142560000Y-66500000D02*
X143748900Y-66500000D01*
X161798000Y-70866000D02*
X160609100Y-70866000D01*
X160609100Y-70345900D02*
X160609100Y-70866000D01*
X158791700Y-68528500D02*
X160609100Y-70345900D01*
X145277300Y-68528500D02*
X158791700Y-68528500D01*
X143748900Y-67000100D02*
X145277300Y-68528500D01*
X143748900Y-66500000D02*
X143748900Y-67000100D01*
X138938000Y-119126000D02*
X137749100Y-119126000D01*
X119640000Y-114700000D02*
X120828900Y-114700000D01*
X137749100Y-118642600D02*
X137749100Y-119126000D01*
X136396200Y-117289700D02*
X137749100Y-118642600D01*
X133105300Y-117289700D02*
X136396200Y-117289700D01*
X132655100Y-116839500D02*
X133105300Y-117289700D01*
X122448300Y-116839500D02*
X132655100Y-116839500D01*
X120828900Y-115220100D02*
X122448300Y-116839500D01*
X120828900Y-114700000D02*
X120828900Y-115220100D01*
X163149100Y-70345900D02*
X163149100Y-70866000D01*
X160881400Y-68078200D02*
X163149100Y-70345900D01*
X147347000Y-68078200D02*
X160881400Y-68078200D01*
X146288900Y-67020100D02*
X147347000Y-68078200D01*
X146288900Y-66500000D02*
X146288900Y-67020100D01*
X145100000Y-66500000D02*
X146288900Y-66500000D01*
X164338000Y-70866000D02*
X163149100Y-70866000D01*
X165689100Y-70345900D02*
X165689100Y-70866000D01*
X161843200Y-66500000D02*
X165689100Y-70345900D01*
X147640000Y-66500000D02*
X161843200Y-66500000D01*
X166878000Y-70866000D02*
X165689100Y-70866000D01*
X199898000Y-114046000D02*
X197358000Y-114046000D01*
X158484000Y-114484000D02*
X157308700Y-114484000D01*
X145060000Y-114700000D02*
X146248900Y-114700000D01*
X157308700Y-114190200D02*
X157308700Y-114484000D01*
X156354500Y-113236000D02*
X157308700Y-114190200D01*
X147192800Y-113236000D02*
X156354500Y-113236000D01*
X146248900Y-114179900D02*
X147192800Y-113236000D01*
X146248900Y-114700000D02*
X146248900Y-114179900D01*
X161084000Y-114464000D02*
X159908700Y-114464000D01*
X147600000Y-114700000D02*
X148788900Y-114700000D01*
X123525100Y-70345900D02*
X123525100Y-70866000D01*
X122656600Y-69477400D02*
X123525100Y-70345900D01*
X114336900Y-69477400D02*
X122656600Y-69477400D01*
X111970000Y-67110500D02*
X114336900Y-69477400D01*
X111970000Y-65892300D02*
X111970000Y-67110500D01*
X111178900Y-65101200D02*
X111970000Y-65892300D01*
X105147600Y-65101200D02*
X111178900Y-65101200D01*
X104268900Y-65979900D02*
X105147600Y-65101200D01*
X104268900Y-66500000D02*
X104268900Y-65979900D01*
X103080000Y-66500000D02*
X104268900Y-66500000D01*
X124714000Y-70866000D02*
X123525100Y-70866000D01*
X124714000Y-70866000D02*
X125902900Y-70866000D01*
X189738000Y-70866000D02*
X188549100Y-70866000D01*
X157946000Y-72657800D02*
X145114700Y-85489100D01*
X187277400Y-72657800D02*
X157946000Y-72657800D01*
X188549100Y-71386100D02*
X187277400Y-72657800D01*
X188549100Y-70866000D02*
X188549100Y-71386100D01*
X125902900Y-70345900D02*
X125902900Y-70866000D01*
X126771400Y-69477400D02*
X125902900Y-70345900D01*
X130244600Y-69477400D02*
X126771400Y-69477400D01*
X131064000Y-70296800D02*
X130244600Y-69477400D01*
X131064000Y-71438500D02*
X131064000Y-70296800D01*
X145114700Y-85489100D02*
X131064000Y-71438500D01*
X149748900Y-115660000D02*
X148788900Y-114700000D01*
X159006500Y-115660000D02*
X149748900Y-115660000D01*
X159908700Y-114757800D02*
X159006500Y-115660000D01*
X159908700Y-114464000D02*
X159908700Y-114757800D01*
X145114600Y-85489200D02*
X145114700Y-85489100D01*
X145114600Y-94986000D02*
X145114600Y-85489200D01*
X147121400Y-96992800D02*
X145114600Y-94986000D01*
X120860000Y-66500000D02*
X122048900Y-66500000D01*
X139954000Y-70866000D02*
X138765100Y-70866000D01*
X122048900Y-67020100D02*
X122048900Y-66500000D01*
X124055800Y-69027000D02*
X122048900Y-67020100D01*
X137408900Y-69027000D02*
X124055800Y-69027000D01*
X138765100Y-70383200D02*
X137408900Y-69027000D01*
X138765100Y-70866000D02*
X138765100Y-70383200D01*
X165818500Y-93234200D02*
X167224900Y-93234200D01*
X163894100Y-95158600D02*
X165818500Y-93234200D01*
X163894100Y-102242000D02*
X163894100Y-95158600D01*
X164509900Y-102857800D02*
X163894100Y-102242000D01*
X166444900Y-102857800D02*
X164509900Y-102857800D01*
X166844700Y-102458000D02*
X166444900Y-102857800D01*
X166844700Y-101650000D02*
X166844700Y-102458000D01*
X199898000Y-75946000D02*
X198709100Y-75946000D01*
X168020000Y-101650000D02*
X166844700Y-101650000D01*
X198709100Y-75574400D02*
X198709100Y-75946000D01*
X197891800Y-74757100D02*
X198709100Y-75574400D01*
X192579400Y-74757100D02*
X197891800Y-74757100D01*
X192383900Y-74561600D02*
X192579400Y-74757100D01*
X165358900Y-74561600D02*
X192383900Y-74561600D01*
X165014900Y-74905600D02*
X165358900Y-74561600D01*
X165014900Y-82798500D02*
X165014900Y-74905600D01*
X166235700Y-84019300D02*
X165014900Y-82798500D01*
X199898000Y-78486000D02*
X198709100Y-78486000D01*
X176563100Y-93109200D02*
X173945500Y-93109200D01*
X179346400Y-90325900D02*
X176563100Y-93109200D01*
X182739600Y-79425400D02*
X179937800Y-79425400D01*
X182925400Y-79239600D02*
X182739600Y-79425400D01*
X182925400Y-77890400D02*
X182925400Y-79239600D01*
X183741200Y-77074600D02*
X182925400Y-77890400D01*
X196805100Y-77074600D02*
X183741200Y-77074600D01*
X197027600Y-77297100D02*
X196805100Y-77074600D01*
X197891800Y-77297100D02*
X197027600Y-77297100D01*
X198709100Y-78114400D02*
X197891800Y-77297100D01*
X198709100Y-78486000D02*
X198709100Y-78114400D01*
X199898000Y-81026000D02*
X199898000Y-82214900D01*
X199526400Y-82214900D02*
X199898000Y-82214900D01*
X198709100Y-83032200D02*
X199526400Y-82214900D01*
X198709100Y-86489000D02*
X198709100Y-83032200D01*
X197903100Y-87295000D02*
X198709100Y-86489000D01*
X196050400Y-87295000D02*
X197903100Y-87295000D01*
X173100000Y-101650000D02*
X171924700Y-101650000D01*
X184080800Y-95271200D02*
X184792200Y-94559800D01*
X164498400Y-95271200D02*
X184080800Y-95271200D01*
X164344600Y-95425000D02*
X164498400Y-95271200D01*
X164344600Y-100086000D02*
X164344600Y-95425000D01*
X164733300Y-100474700D02*
X164344600Y-100086000D01*
X171116800Y-100474700D02*
X164733300Y-100474700D01*
X171924700Y-101282600D02*
X171116800Y-100474700D01*
X171924700Y-101650000D02*
X171924700Y-101282600D01*
X175640000Y-101650000D02*
X176815300Y-101650000D01*
X178056500Y-102891200D02*
X193519100Y-102891200D01*
X176815300Y-101650000D02*
X178056500Y-102891200D01*
X197358000Y-96266000D02*
X197358000Y-95077100D01*
X197027400Y-95077100D02*
X197358000Y-95077100D01*
X193290700Y-91340400D02*
X197027400Y-95077100D01*
X193290700Y-85842300D02*
X193290700Y-91340400D01*
X192319600Y-84871200D02*
X193290700Y-85842300D01*
X174453600Y-84871200D02*
X192319600Y-84871200D01*
X180532900Y-93033900D02*
X180357800Y-93209000D01*
X192541500Y-93033900D02*
X180532900Y-93033900D01*
X195432900Y-95925300D02*
X192541500Y-93033900D01*
X195432900Y-96880900D02*
X195432900Y-95925300D01*
X197358000Y-98806000D02*
X195432900Y-96880900D01*
X183452800Y-93934500D02*
X183263200Y-94124100D01*
X192168300Y-93934500D02*
X183452800Y-93934500D01*
X194205700Y-95971900D02*
X192168300Y-93934500D01*
X194205700Y-98193700D02*
X194205700Y-95971900D01*
X197358000Y-101346000D02*
X194205700Y-98193700D01*
X197358000Y-103886000D02*
X196169100Y-103886000D01*
X184350000Y-80750000D02*
X183174700Y-80750000D01*
X195950200Y-104104900D02*
X196169100Y-103886000D01*
X180055400Y-104104900D02*
X195950200Y-104104900D01*
X180564500Y-81925600D02*
X180007800Y-81368900D01*
X182807100Y-81925600D02*
X180564500Y-81925600D01*
X183174700Y-81558000D02*
X182807100Y-81925600D01*
X183174700Y-80750000D02*
X183174700Y-81558000D01*
X197358000Y-106426000D02*
X198546900Y-106426000D01*
X192180000Y-83457200D02*
X190430200Y-83457200D01*
X194443800Y-85721000D02*
X192180000Y-83457200D01*
X194443800Y-90339300D02*
X194443800Y-85721000D01*
X196641500Y-92537000D02*
X194443800Y-90339300D01*
X197872300Y-92537000D02*
X196641500Y-92537000D01*
X198709000Y-93373700D02*
X197872300Y-92537000D01*
X198709000Y-94240300D02*
X198709000Y-93373700D01*
X199464700Y-94996000D02*
X198709000Y-94240300D01*
X200313600Y-94996000D02*
X199464700Y-94996000D01*
X201584500Y-96266900D02*
X200313600Y-94996000D01*
X201584500Y-106471000D02*
X201584500Y-96266900D01*
X200440600Y-107614900D02*
X201584500Y-106471000D01*
X199364200Y-107614900D02*
X200440600Y-107614900D01*
X198546900Y-106797600D02*
X199364200Y-107614900D01*
X198546900Y-106426000D02*
X198546900Y-106797600D01*
X195970000Y-90870700D02*
X195970000Y-90978700D01*
X196924700Y-89916000D02*
X195970000Y-90870700D01*
X200323400Y-89916000D02*
X196924700Y-89916000D01*
X201109300Y-89130100D02*
X200323400Y-89916000D01*
X201109300Y-80438300D02*
X201109300Y-89130100D01*
X200427000Y-79756000D02*
X201109300Y-80438300D01*
X192638300Y-79756000D02*
X200427000Y-79756000D01*
X192419600Y-79537300D02*
X192638300Y-79756000D01*
X191450700Y-79537300D02*
X192419600Y-79537300D01*
X190605300Y-80382700D02*
X191450700Y-79537300D01*
X190605300Y-80750000D02*
X190605300Y-80382700D01*
X189430000Y-80750000D02*
X190605300Y-80750000D01*
X192029000Y-94731300D02*
X192029000Y-94731200D01*
X192328100Y-94731300D02*
X192029000Y-94731300D01*
X193755400Y-96158600D02*
X192328100Y-94731300D01*
X193755400Y-101917100D02*
X193755400Y-96158600D01*
X194616900Y-102778600D02*
X193755400Y-101917100D01*
X194616900Y-103248600D02*
X194616900Y-102778600D01*
X170328600Y-70425500D02*
X170769100Y-70866000D01*
X168710000Y-70425500D02*
X170328600Y-70425500D01*
X171958000Y-70866000D02*
X170769100Y-70866000D01*
X158484000Y-106864000D02*
X158484000Y-105688700D01*
X157324600Y-104529300D02*
X157324600Y-91305400D01*
X158484000Y-105688700D02*
X157324600Y-104529300D01*
X161300600Y-105668700D02*
X162772400Y-104196900D01*
X161084000Y-105668700D02*
X161300600Y-105668700D01*
X161084000Y-106844000D02*
X161084000Y-105668700D01*
X158855200Y-73486000D02*
X171753100Y-73486000D01*
X145724000Y-86617200D02*
X158855200Y-73486000D01*
X145724000Y-91513800D02*
X145724000Y-86617200D01*
X147794100Y-93583900D02*
X145724000Y-91513800D01*
X147794100Y-103518000D02*
X147794100Y-93583900D01*
X152350100Y-108074000D02*
X147794100Y-103518000D01*
X156272500Y-108074000D02*
X152350100Y-108074000D01*
X157308700Y-109110200D02*
X156272500Y-108074000D01*
X157308700Y-109404000D02*
X157308700Y-109110200D01*
X158484000Y-109404000D02*
X157308700Y-109404000D01*
X192580000Y-99200000D02*
X190040000Y-99200000D01*
X184960000Y-99200000D02*
X182420000Y-99200000D01*
X173820000Y-78400000D02*
X171280000Y-78400000D01*
X171280000Y-78400000D02*
X168740000Y-78400000D01*
X168740000Y-78400000D02*
X166200000Y-78400000D01*
X191910000Y-78250000D02*
X189370000Y-78250000D01*
X189370000Y-78250000D02*
X186830000Y-78250000D01*
X186830000Y-78250000D02*
X184290000Y-78250000D01*
X191860000Y-88650000D02*
X189320000Y-88650000D01*
X189320000Y-88650000D02*
X186780000Y-88650000D01*
X186780000Y-88650000D02*
X184240000Y-88650000D01*
X184240000Y-88650000D02*
X181700000Y-88650000D01*
X176310000Y-88600000D02*
X177485300Y-88600000D01*
X168690000Y-88600000D02*
X171230000Y-88600000D01*
X170600000Y-99050000D02*
X168060000Y-99050000D01*
X168060000Y-99050000D02*
X165520000Y-99050000D01*
X190350000Y-111050000D02*
X187810000Y-111050000D01*
X187810000Y-111050000D02*
X186445300Y-111050000D01*
X185857700Y-111050000D02*
X186445300Y-111050000D01*
X185857700Y-111050000D02*
X185270000Y-111050000D01*
X185270000Y-111050000D02*
X182730000Y-111050000D01*
X182730000Y-111050000D02*
X181365300Y-111050000D01*
X180777700Y-111050000D02*
X181365300Y-111050000D01*
X180777700Y-111050000D02*
X180190000Y-111050000D01*
X165590000Y-110950000D02*
X166765300Y-110950000D01*
X170670000Y-110950000D02*
X168130000Y-110950000D01*
X168130000Y-110950000D02*
X166765300Y-110950000D01*
X180474700Y-88600000D02*
X177485300Y-88600000D01*
X180524700Y-88650000D02*
X180474700Y-88600000D01*
X181700000Y-88650000D02*
X180524700Y-88650000D01*
X105200000Y-113250000D02*
X106375300Y-113250000D01*
X171230000Y-88600000D02*
X172405300Y-88600000D01*
X176310000Y-88600000D02*
X173770000Y-88600000D01*
X173770000Y-88600000D02*
X172405300Y-88600000D01*
X182420000Y-99200000D02*
X179880000Y-99200000D01*
X180190000Y-111050000D02*
X179014700Y-111050000D01*
X175750000Y-110950000D02*
X173210000Y-110950000D01*
X177025300Y-111050000D02*
X179014700Y-111050000D01*
X176925300Y-110950000D02*
X177025300Y-111050000D01*
X175750000Y-110950000D02*
X176925300Y-110950000D01*
X176360000Y-78400000D02*
X173820000Y-78400000D01*
X109066000Y-110559300D02*
X155884000Y-110559300D01*
X106375300Y-113250000D02*
X109066000Y-110559300D01*
X155884000Y-109384000D02*
X155884000Y-110559300D01*
X165590000Y-110950000D02*
X164414700Y-110950000D01*
X155884000Y-111924000D02*
X155884000Y-110711300D01*
X155884000Y-110711300D02*
X155884000Y-110559300D01*
X170600000Y-99050000D02*
X171775300Y-99050000D01*
X173140000Y-99050000D02*
X171775300Y-99050000D01*
X190040000Y-99200000D02*
X188864700Y-99200000D01*
X184960000Y-99200000D02*
X187500000Y-99200000D01*
X187500000Y-99200000D02*
X188864700Y-99200000D01*
X177685300Y-78250000D02*
X177535300Y-78400000D01*
X181750000Y-78250000D02*
X177685300Y-78250000D01*
X176360000Y-78400000D02*
X177535300Y-78400000D01*
X168690000Y-88600000D02*
X166150000Y-88600000D01*
X166150000Y-88600000D02*
X164974700Y-88600000D01*
X158500000Y-89540000D02*
X159675300Y-89540000D01*
X158500000Y-87000000D02*
X158500000Y-88175300D01*
X158604500Y-88175300D02*
X158500000Y-88175300D01*
X159675300Y-89246100D02*
X158604500Y-88175300D01*
X160556700Y-88364700D02*
X159675300Y-89246100D01*
X164739400Y-88364700D02*
X160556700Y-88364700D01*
X164974700Y-88600000D02*
X164739400Y-88364700D01*
X159675300Y-89246100D02*
X159675300Y-89540000D01*
X158500000Y-92080000D02*
X158500000Y-93255300D01*
X159703700Y-94459000D02*
X158500000Y-93255300D01*
X159703700Y-110711300D02*
X159703700Y-94459000D01*
X155884000Y-110711300D02*
X159703700Y-110711300D01*
X164176000Y-110711300D02*
X164414700Y-110950000D01*
X159703700Y-110711300D02*
X164176000Y-110711300D01*
X173140000Y-99050000D02*
X175680000Y-99050000D01*
X178554700Y-99050000D02*
X178704700Y-99200000D01*
X175680000Y-99050000D02*
X178554700Y-99050000D01*
X179880000Y-99200000D02*
X178704700Y-99200000D01*
X106375300Y-108359400D02*
X105200000Y-109534700D01*
X106375300Y-99803300D02*
X106375300Y-108359400D01*
X105567300Y-98995300D02*
X106375300Y-99803300D01*
X105200000Y-98995300D02*
X105567300Y-98995300D01*
X105200000Y-97820000D02*
X105200000Y-98995300D01*
X105200000Y-110710000D02*
X105200000Y-109534700D01*
M02*
