G04 #@! TF.FileFunction,Soldermask,Bot*
%FSLAX46Y46*%
G04 Gerber Fmt 4.6, Leading zero omitted, Abs format (unit mm)*
G04 Created by KiCad (PCBNEW 4.0.6) date 06/05/17 03:56:48*
%MOMM*%
%LPD*%
G01*
G04 APERTURE LIST*
%ADD10C,0.100000*%
%ADD11C,3.200000*%
%ADD12R,1.600000X1.600000*%
%ADD13C,1.600000*%
%ADD14R,3.500000X3.500000*%
%ADD15R,2.400000X2.400000*%
%ADD16O,2.400000X2.400000*%
%ADD17R,1.700000X1.700000*%
%ADD18O,1.700000X1.700000*%
%ADD19C,1.397000*%
%ADD20R,1.397000X1.397000*%
%ADD21C,3.000000*%
%ADD22R,3.000000X3.000000*%
G04 APERTURE END LIST*
D10*
D11*
X100000000Y-105000000D03*
X160900000Y-132000000D03*
X109200000Y-140300000D03*
X142000000Y-101000000D03*
X157000000Y-59000000D03*
D12*
X141259000Y-145948000D03*
D13*
X143759000Y-145948000D03*
X147569000Y-132486000D03*
X147569000Y-129986000D03*
D12*
X141259000Y-138074000D03*
D13*
X143759000Y-138074000D03*
D14*
X157400000Y-154300000D03*
X157400000Y-160300000D03*
X162100000Y-157300000D03*
D15*
X149961000Y-137344000D03*
D16*
X149961000Y-147504000D03*
D17*
X109220000Y-86360000D03*
D18*
X109220000Y-83820000D03*
X109220000Y-81280000D03*
X109220000Y-78740000D03*
X109220000Y-76200000D03*
X109220000Y-73660000D03*
X109220000Y-71120000D03*
X109220000Y-68580000D03*
D17*
X109220000Y-109220000D03*
D18*
X109220000Y-106680000D03*
X109220000Y-104140000D03*
X109220000Y-101600000D03*
X109220000Y-99060000D03*
X109220000Y-96520000D03*
X109220000Y-93980000D03*
X109220000Y-91440000D03*
D17*
X109301000Y-135926000D03*
D18*
X109301000Y-133386000D03*
X109301000Y-130846000D03*
X109301000Y-128306000D03*
X109301000Y-125766000D03*
X109301000Y-123226000D03*
X109301000Y-120686000D03*
X109301000Y-118146000D03*
X109301000Y-115606000D03*
X109301000Y-113066000D03*
D17*
X110490000Y-151540000D03*
D18*
X110490000Y-149000000D03*
X110490000Y-146460000D03*
D17*
X119100000Y-161480000D03*
D18*
X119100000Y-158940000D03*
X119100000Y-156400000D03*
X119100000Y-153860000D03*
X119100000Y-151320000D03*
X119100000Y-148780000D03*
X119100000Y-146240000D03*
X119100000Y-143700000D03*
X119100000Y-141160000D03*
X119100000Y-138620000D03*
X119100000Y-136080000D03*
X119100000Y-133540000D03*
X119100000Y-131000000D03*
X119100000Y-128460000D03*
X119100000Y-125920000D03*
X119100000Y-123380000D03*
X119100000Y-120840000D03*
X119100000Y-118300000D03*
X119100000Y-115760000D03*
X119100000Y-113220000D03*
X119100000Y-110680000D03*
X119100000Y-108140000D03*
X119100000Y-105600000D03*
X119100000Y-103060000D03*
D17*
X124206000Y-113284000D03*
D18*
X126746000Y-113284000D03*
X124206000Y-110744000D03*
X126746000Y-110744000D03*
X124206000Y-108204000D03*
X126746000Y-108204000D03*
X124206000Y-105664000D03*
X126746000Y-105664000D03*
X124206000Y-103124000D03*
X126746000Y-103124000D03*
D17*
X121700000Y-159004000D03*
D18*
X121700000Y-156464000D03*
X121700000Y-153924000D03*
X121700000Y-151384000D03*
X121700000Y-148844000D03*
D17*
X124206000Y-146304000D03*
D18*
X126746000Y-146304000D03*
X124206000Y-143764000D03*
X126746000Y-143764000D03*
X124206000Y-141224000D03*
X126746000Y-141224000D03*
X124206000Y-138684000D03*
X126746000Y-138684000D03*
D17*
X130937000Y-152718000D03*
D18*
X130937000Y-150178000D03*
X130937000Y-147638000D03*
X130937000Y-145098000D03*
D17*
X109220000Y-57960000D03*
D18*
X109220000Y-60500000D03*
X111760000Y-57960000D03*
X111760000Y-60500000D03*
X114300000Y-57960000D03*
X114300000Y-60500000D03*
X116840000Y-57960000D03*
X116840000Y-60500000D03*
X119380000Y-57960000D03*
X119380000Y-60500000D03*
X121920000Y-57960000D03*
X121920000Y-60500000D03*
X124460000Y-57960000D03*
X124460000Y-60500000D03*
X127000000Y-57960000D03*
X127000000Y-60500000D03*
X129540000Y-57960000D03*
X129540000Y-60500000D03*
X132080000Y-57960000D03*
X132080000Y-60500000D03*
X134620000Y-57960000D03*
X134620000Y-60500000D03*
X137160000Y-57960000D03*
X137160000Y-60500000D03*
X139700000Y-57960000D03*
X139700000Y-60500000D03*
X142240000Y-57960000D03*
X142240000Y-60500000D03*
X144780000Y-57960000D03*
X144780000Y-60500000D03*
X147320000Y-57960000D03*
X147320000Y-60500000D03*
X149860000Y-57960000D03*
X149860000Y-60500000D03*
X152400000Y-57960000D03*
X152400000Y-60500000D03*
D17*
X134366000Y-161544000D03*
D18*
X134366000Y-159004000D03*
X134366000Y-156464000D03*
X134366000Y-153924000D03*
X134366000Y-151384000D03*
X134366000Y-148844000D03*
X134366000Y-146304000D03*
X134366000Y-143764000D03*
X134366000Y-141224000D03*
X134366000Y-138684000D03*
X134366000Y-136144000D03*
X134366000Y-133604000D03*
X134366000Y-131064000D03*
X134366000Y-128524000D03*
X134366000Y-125984000D03*
X134366000Y-123444000D03*
X134366000Y-120904000D03*
X134366000Y-118364000D03*
X134366000Y-115824000D03*
X134366000Y-113284000D03*
X134366000Y-110744000D03*
X134366000Y-108204000D03*
X134366000Y-105664000D03*
X134366000Y-103124000D03*
D17*
X157480000Y-80772000D03*
D18*
X157480000Y-78232000D03*
X157480000Y-75692000D03*
X157480000Y-73152000D03*
X157480000Y-70612000D03*
X157480000Y-68072000D03*
X157480000Y-65532000D03*
X157480000Y-62992000D03*
D17*
X157480000Y-104140000D03*
D18*
X157480000Y-101600000D03*
X157480000Y-99060000D03*
X157480000Y-96520000D03*
X157480000Y-93980000D03*
X157480000Y-91440000D03*
X157480000Y-88900000D03*
X157480000Y-86360000D03*
D17*
X157480000Y-127000000D03*
D18*
X157480000Y-124460000D03*
X157480000Y-121920000D03*
X157480000Y-119380000D03*
X157480000Y-116840000D03*
X157480000Y-114300000D03*
X157480000Y-111760000D03*
X157480000Y-109220000D03*
D17*
X124206000Y-123444000D03*
D18*
X126746000Y-123444000D03*
X124206000Y-120904000D03*
X126746000Y-120904000D03*
X124206000Y-118364000D03*
X126746000Y-118364000D03*
D17*
X121666000Y-115824000D03*
D18*
X124206000Y-115824000D03*
X126746000Y-115824000D03*
X129286000Y-115824000D03*
X131826000Y-115824000D03*
D19*
X106680000Y-156464000D03*
X106680000Y-161544000D03*
X99060000Y-156464000D03*
X99060000Y-161544000D03*
X106426000Y-147066000D03*
X106426000Y-152146000D03*
X98806000Y-147066000D03*
X98806000Y-152146000D03*
D20*
X112268000Y-156210000D03*
D19*
X112268000Y-158750000D03*
X112268000Y-161290000D03*
D21*
X136900000Y-74910000D03*
D22*
X136900000Y-95400000D03*
D11*
X109000000Y-64400000D03*
D17*
X160800000Y-141100000D03*
D18*
X160800000Y-143640000D03*
X160800000Y-146180000D03*
D17*
X155448000Y-138176000D03*
D18*
X155448000Y-135636000D03*
M02*
