M48
;DRILL file {KiCad 4.0.6} date 06/05/17 03:56:56
;FORMAT={-:-/ absolute / metric / decimal}
FMAT,2
METRIC,TZ
T1C0.400
T2C0.800
T3C0.813
T4C1.000
T5C1.200
T6C1.500
%
G90
G05
M71
T1
X114.785Y-87.815
X117.988Y-145.206
X120.447Y-63.643
X121.653Y-137.481
X122.054Y-146.259
X123.729Y-149.515
X128.078Y-130.082
X129.349Y-66.564
X129.73Y-111.939
X130.3Y-139.588
X133.204Y-149.982
X136.016Y-158.427
X142.087Y-139.433
X142.734Y-90.091
X145.294Y-63.521
X146.217Y-65.254
X146.669Y-65.948
X146.702Y-62.004
X148.642Y-66.538
X152.379Y-120.333
T2
X141.259Y-138.074
X141.259Y-145.948
X143.759Y-138.074
X143.759Y-145.948
X147.569Y-129.986
X147.569Y-132.486
T3
X98.806Y-147.066
X98.806Y-152.146
X99.06Y-156.464
X99.06Y-161.544
X106.426Y-147.066
X106.426Y-152.146
X106.68Y-156.464
X106.68Y-161.544
X112.268Y-156.21
X112.268Y-158.75
X112.268Y-161.29
T4
X109.22Y-57.96
X109.22Y-60.5
X109.22Y-68.58
X109.22Y-71.12
X109.22Y-73.66
X109.22Y-76.2
X109.22Y-78.74
X109.22Y-81.28
X109.22Y-83.82
X109.22Y-86.36
X109.22Y-91.44
X109.22Y-93.98
X109.22Y-96.52
X109.22Y-99.06
X109.22Y-101.6
X109.22Y-104.14
X109.22Y-106.68
X109.22Y-109.22
X109.301Y-113.066
X109.301Y-115.606
X109.301Y-118.146
X109.301Y-120.686
X109.301Y-123.226
X109.301Y-125.766
X109.301Y-128.306
X109.301Y-130.846
X109.301Y-133.386
X109.301Y-135.926
X110.49Y-146.46
X110.49Y-149.
X110.49Y-151.54
X111.76Y-57.96
X111.76Y-60.5
X114.3Y-57.96
X114.3Y-60.5
X116.84Y-57.96
X116.84Y-60.5
X119.1Y-103.06
X119.1Y-105.6
X119.1Y-108.14
X119.1Y-110.68
X119.1Y-113.22
X119.1Y-115.76
X119.1Y-118.3
X119.1Y-120.84
X119.1Y-123.38
X119.1Y-125.92
X119.1Y-128.46
X119.1Y-131.
X119.1Y-133.54
X119.1Y-136.08
X119.1Y-138.62
X119.1Y-141.16
X119.1Y-143.7
X119.1Y-146.24
X119.1Y-148.78
X119.1Y-151.32
X119.1Y-153.86
X119.1Y-156.4
X119.1Y-158.94
X119.1Y-161.48
X119.38Y-57.96
X119.38Y-60.5
X121.666Y-115.824
X121.7Y-148.844
X121.7Y-151.384
X121.7Y-153.924
X121.7Y-156.464
X121.7Y-159.004
X121.92Y-57.96
X121.92Y-60.5
X124.206Y-103.124
X124.206Y-105.664
X124.206Y-108.204
X124.206Y-110.744
X124.206Y-113.284
X124.206Y-115.824
X124.206Y-118.364
X124.206Y-120.904
X124.206Y-123.444
X124.206Y-138.684
X124.206Y-141.224
X124.206Y-143.764
X124.206Y-146.304
X124.46Y-57.96
X124.46Y-60.5
X126.746Y-103.124
X126.746Y-105.664
X126.746Y-108.204
X126.746Y-110.744
X126.746Y-113.284
X126.746Y-115.824
X126.746Y-118.364
X126.746Y-120.904
X126.746Y-123.444
X126.746Y-138.684
X126.746Y-141.224
X126.746Y-143.764
X126.746Y-146.304
X127.Y-57.96
X127.Y-60.5
X129.286Y-115.824
X129.54Y-57.96
X129.54Y-60.5
X130.937Y-145.098
X130.937Y-147.638
X130.937Y-150.178
X130.937Y-152.718
X131.826Y-115.824
X132.08Y-57.96
X132.08Y-60.5
X134.366Y-103.124
X134.366Y-105.664
X134.366Y-108.204
X134.366Y-110.744
X134.366Y-113.284
X134.366Y-115.824
X134.366Y-118.364
X134.366Y-120.904
X134.366Y-123.444
X134.366Y-125.984
X134.366Y-128.524
X134.366Y-131.064
X134.366Y-133.604
X134.366Y-136.144
X134.366Y-138.684
X134.366Y-141.224
X134.366Y-143.764
X134.366Y-146.304
X134.366Y-148.844
X134.366Y-151.384
X134.366Y-153.924
X134.366Y-156.464
X134.366Y-159.004
X134.366Y-161.544
X134.62Y-57.96
X134.62Y-60.5
X137.16Y-57.96
X137.16Y-60.5
X139.7Y-57.96
X139.7Y-60.5
X142.24Y-57.96
X142.24Y-60.5
X144.78Y-57.96
X144.78Y-60.5
X147.32Y-57.96
X147.32Y-60.5
X149.86Y-57.96
X149.86Y-60.5
X152.4Y-57.96
X152.4Y-60.5
X155.448Y-135.636
X155.448Y-138.176
X157.48Y-62.992
X157.48Y-65.532
X157.48Y-68.072
X157.48Y-70.612
X157.48Y-73.152
X157.48Y-75.692
X157.48Y-78.232
X157.48Y-80.772
X157.48Y-86.36
X157.48Y-88.9
X157.48Y-91.44
X157.48Y-93.98
X157.48Y-96.52
X157.48Y-99.06
X157.48Y-101.6
X157.48Y-104.14
X157.48Y-109.22
X157.48Y-111.76
X157.48Y-114.3
X157.48Y-116.84
X157.48Y-119.38
X157.48Y-121.92
X157.48Y-124.46
X157.48Y-127.
X160.8Y-141.1
X160.8Y-143.64
X160.8Y-146.18
T5
X149.961Y-137.344
X149.961Y-147.504
T6
X136.9Y-74.91
X136.9Y-95.4
T4
X156.4Y-154.3G85X158.4Y-154.3
G05
X156.4Y-160.3G85X158.4Y-160.3
G05
X162.1Y-158.3G85X162.1Y-156.3
G05
T0
M30
