G04 #@! TF.FileFunction,Copper,L1,Top,Signal*
%FSLAX46Y46*%
G04 Gerber Fmt 4.6, Leading zero omitted, Abs format (unit mm)*
G04 Created by KiCad (PCBNEW 4.0.6) date 06/05/17 03:56:47*
%MOMM*%
%LPD*%
G01*
G04 APERTURE LIST*
%ADD10C,0.100000*%
%ADD11R,1.600000X1.600000*%
%ADD12C,1.600000*%
%ADD13R,3.500000X3.500000*%
%ADD14R,2.400000X2.400000*%
%ADD15O,2.400000X2.400000*%
%ADD16R,1.700000X1.700000*%
%ADD17O,1.700000X1.700000*%
%ADD18R,3.800000X2.000000*%
%ADD19R,1.500000X2.000000*%
%ADD20C,1.397000*%
%ADD21R,1.397000X1.397000*%
%ADD22C,3.000000*%
%ADD23R,3.000000X3.000000*%
%ADD24C,0.600000*%
%ADD25C,0.250000*%
G04 APERTURE END LIST*
D10*
D11*
X141259000Y-145948000D03*
D12*
X143759000Y-145948000D03*
X147569000Y-132486000D03*
X147569000Y-129986000D03*
D11*
X141259000Y-138074000D03*
D12*
X143759000Y-138074000D03*
D13*
X157400000Y-154300000D03*
X157400000Y-160300000D03*
X162100000Y-157300000D03*
D14*
X149961000Y-137344000D03*
D15*
X149961000Y-147504000D03*
D16*
X109220000Y-86360000D03*
D17*
X109220000Y-83820000D03*
X109220000Y-81280000D03*
X109220000Y-78740000D03*
X109220000Y-76200000D03*
X109220000Y-73660000D03*
X109220000Y-71120000D03*
X109220000Y-68580000D03*
D16*
X109220000Y-109220000D03*
D17*
X109220000Y-106680000D03*
X109220000Y-104140000D03*
X109220000Y-101600000D03*
X109220000Y-99060000D03*
X109220000Y-96520000D03*
X109220000Y-93980000D03*
X109220000Y-91440000D03*
D16*
X109301000Y-135926000D03*
D17*
X109301000Y-133386000D03*
X109301000Y-130846000D03*
X109301000Y-128306000D03*
X109301000Y-125766000D03*
X109301000Y-123226000D03*
X109301000Y-120686000D03*
X109301000Y-118146000D03*
X109301000Y-115606000D03*
X109301000Y-113066000D03*
D16*
X110490000Y-151540000D03*
D17*
X110490000Y-149000000D03*
X110490000Y-146460000D03*
D16*
X119100000Y-161480000D03*
D17*
X119100000Y-158940000D03*
X119100000Y-156400000D03*
X119100000Y-153860000D03*
X119100000Y-151320000D03*
X119100000Y-148780000D03*
X119100000Y-146240000D03*
X119100000Y-143700000D03*
X119100000Y-141160000D03*
X119100000Y-138620000D03*
X119100000Y-136080000D03*
X119100000Y-133540000D03*
X119100000Y-131000000D03*
X119100000Y-128460000D03*
X119100000Y-125920000D03*
X119100000Y-123380000D03*
X119100000Y-120840000D03*
X119100000Y-118300000D03*
X119100000Y-115760000D03*
X119100000Y-113220000D03*
X119100000Y-110680000D03*
X119100000Y-108140000D03*
X119100000Y-105600000D03*
X119100000Y-103060000D03*
D16*
X124206000Y-113284000D03*
D17*
X126746000Y-113284000D03*
X124206000Y-110744000D03*
X126746000Y-110744000D03*
X124206000Y-108204000D03*
X126746000Y-108204000D03*
X124206000Y-105664000D03*
X126746000Y-105664000D03*
X124206000Y-103124000D03*
X126746000Y-103124000D03*
D16*
X121700000Y-159004000D03*
D17*
X121700000Y-156464000D03*
X121700000Y-153924000D03*
X121700000Y-151384000D03*
X121700000Y-148844000D03*
D16*
X124206000Y-146304000D03*
D17*
X126746000Y-146304000D03*
X124206000Y-143764000D03*
X126746000Y-143764000D03*
X124206000Y-141224000D03*
X126746000Y-141224000D03*
X124206000Y-138684000D03*
X126746000Y-138684000D03*
D16*
X130937000Y-152718000D03*
D17*
X130937000Y-150178000D03*
X130937000Y-147638000D03*
X130937000Y-145098000D03*
D16*
X109220000Y-57960000D03*
D17*
X109220000Y-60500000D03*
X111760000Y-57960000D03*
X111760000Y-60500000D03*
X114300000Y-57960000D03*
X114300000Y-60500000D03*
X116840000Y-57960000D03*
X116840000Y-60500000D03*
X119380000Y-57960000D03*
X119380000Y-60500000D03*
X121920000Y-57960000D03*
X121920000Y-60500000D03*
X124460000Y-57960000D03*
X124460000Y-60500000D03*
X127000000Y-57960000D03*
X127000000Y-60500000D03*
X129540000Y-57960000D03*
X129540000Y-60500000D03*
X132080000Y-57960000D03*
X132080000Y-60500000D03*
X134620000Y-57960000D03*
X134620000Y-60500000D03*
X137160000Y-57960000D03*
X137160000Y-60500000D03*
X139700000Y-57960000D03*
X139700000Y-60500000D03*
X142240000Y-57960000D03*
X142240000Y-60500000D03*
X144780000Y-57960000D03*
X144780000Y-60500000D03*
X147320000Y-57960000D03*
X147320000Y-60500000D03*
X149860000Y-57960000D03*
X149860000Y-60500000D03*
X152400000Y-57960000D03*
X152400000Y-60500000D03*
D16*
X134366000Y-161544000D03*
D17*
X134366000Y-159004000D03*
X134366000Y-156464000D03*
X134366000Y-153924000D03*
X134366000Y-151384000D03*
X134366000Y-148844000D03*
X134366000Y-146304000D03*
X134366000Y-143764000D03*
X134366000Y-141224000D03*
X134366000Y-138684000D03*
X134366000Y-136144000D03*
X134366000Y-133604000D03*
X134366000Y-131064000D03*
X134366000Y-128524000D03*
X134366000Y-125984000D03*
X134366000Y-123444000D03*
X134366000Y-120904000D03*
X134366000Y-118364000D03*
X134366000Y-115824000D03*
X134366000Y-113284000D03*
X134366000Y-110744000D03*
X134366000Y-108204000D03*
X134366000Y-105664000D03*
X134366000Y-103124000D03*
D16*
X157480000Y-80772000D03*
D17*
X157480000Y-78232000D03*
X157480000Y-75692000D03*
X157480000Y-73152000D03*
X157480000Y-70612000D03*
X157480000Y-68072000D03*
X157480000Y-65532000D03*
X157480000Y-62992000D03*
D16*
X157480000Y-104140000D03*
D17*
X157480000Y-101600000D03*
X157480000Y-99060000D03*
X157480000Y-96520000D03*
X157480000Y-93980000D03*
X157480000Y-91440000D03*
X157480000Y-88900000D03*
X157480000Y-86360000D03*
D16*
X157480000Y-127000000D03*
D17*
X157480000Y-124460000D03*
X157480000Y-121920000D03*
X157480000Y-119380000D03*
X157480000Y-116840000D03*
X157480000Y-114300000D03*
X157480000Y-111760000D03*
X157480000Y-109220000D03*
D16*
X124206000Y-123444000D03*
D17*
X126746000Y-123444000D03*
X124206000Y-120904000D03*
X126746000Y-120904000D03*
X124206000Y-118364000D03*
X126746000Y-118364000D03*
D16*
X121666000Y-115824000D03*
D17*
X124206000Y-115824000D03*
X126746000Y-115824000D03*
X129286000Y-115824000D03*
X131826000Y-115824000D03*
D18*
X145796000Y-162433000D03*
D19*
X145796000Y-156133000D03*
X143496000Y-156133000D03*
X148096000Y-156133000D03*
D20*
X106680000Y-156464000D03*
X106680000Y-161544000D03*
X99060000Y-156464000D03*
X99060000Y-161544000D03*
X106426000Y-147066000D03*
X106426000Y-152146000D03*
X98806000Y-147066000D03*
X98806000Y-152146000D03*
D21*
X112268000Y-156210000D03*
D20*
X112268000Y-158750000D03*
X112268000Y-161290000D03*
D22*
X136900000Y-74910000D03*
D23*
X136900000Y-95400000D03*
D16*
X160800000Y-141100000D03*
D17*
X160800000Y-143640000D03*
X160800000Y-146180000D03*
D16*
X155448000Y-138176000D03*
D17*
X155448000Y-135636000D03*
D24*
X142734000Y-90090800D03*
X122053700Y-146259000D03*
X130299600Y-139587900D03*
X121652900Y-137480500D03*
X123728600Y-149515200D03*
X117988500Y-145206100D03*
X136015500Y-158426500D03*
X128077700Y-130081700D03*
X142087300Y-139432700D03*
X152378800Y-120333200D03*
X120447400Y-63643500D03*
X129349100Y-66564400D03*
X133203600Y-149982400D03*
X148641800Y-66537900D03*
X114785300Y-87815300D03*
X129730300Y-111939000D03*
X146669400Y-65948100D03*
X146217300Y-65253900D03*
X146702400Y-62003600D03*
X145294200Y-63521000D03*
D25*
X141259000Y-145948000D02*
X141259000Y-147073300D01*
X143496000Y-149310300D02*
X143496000Y-156133000D01*
X141259000Y-147073300D02*
X143496000Y-149310300D01*
X147569000Y-133426700D02*
X147569000Y-132486000D01*
X149961000Y-135818700D02*
X147569000Y-133426700D01*
X149961000Y-137344000D02*
X149961000Y-135818700D01*
X143759000Y-138074000D02*
X143759000Y-145948000D01*
X148096000Y-150285000D02*
X148096000Y-156133000D01*
X143759000Y-145948000D02*
X148096000Y-150285000D01*
X153338300Y-160300000D02*
X157400000Y-160300000D01*
X149171300Y-156133000D02*
X153338300Y-160300000D01*
X115255300Y-155130000D02*
X111665300Y-151540000D01*
X126776700Y-155130000D02*
X115255300Y-155130000D01*
X133190700Y-161544000D02*
X126776700Y-155130000D01*
X134366000Y-161544000D02*
X133190700Y-161544000D01*
X110490000Y-151540000D02*
X111665300Y-151540000D01*
X148096000Y-156133000D02*
X149171300Y-156133000D01*
X141259000Y-138074000D02*
X141259000Y-139199300D01*
X143284300Y-162719400D02*
X143570700Y-162433000D01*
X132114300Y-162719400D02*
X143284300Y-162719400D01*
X129574300Y-160179400D02*
X132114300Y-162719400D01*
X117261200Y-160179400D02*
X129574300Y-160179400D01*
X113291800Y-156210000D02*
X117261200Y-160179400D01*
X112268000Y-156210000D02*
X113291800Y-156210000D01*
X145796000Y-150500200D02*
X145796000Y-156133000D01*
X142384300Y-147088500D02*
X145796000Y-150500200D01*
X142384300Y-140614000D02*
X142384300Y-147088500D01*
X141259000Y-139488700D02*
X142384300Y-140614000D01*
X141259000Y-139199300D02*
X141259000Y-139488700D01*
X145796000Y-162433000D02*
X145773400Y-162433000D01*
X145773400Y-162433000D02*
X143570700Y-162433000D01*
X145773400Y-157480900D02*
X145796000Y-157458300D01*
X145773400Y-162433000D02*
X145773400Y-157480900D01*
X145796000Y-156133000D02*
X145796000Y-157458300D01*
X142734000Y-93690900D02*
X142734000Y-90090800D01*
X134476200Y-101948700D02*
X142734000Y-93690900D01*
X134366000Y-101948700D02*
X134476200Y-101948700D01*
X134366000Y-103124000D02*
X134366000Y-101948700D01*
X109220000Y-71120000D02*
X109220000Y-72295300D01*
X106629200Y-130714200D02*
X109301000Y-133386000D01*
X106629200Y-74518700D02*
X106629200Y-130714200D01*
X108852600Y-72295300D02*
X106629200Y-74518700D01*
X109220000Y-72295300D02*
X108852600Y-72295300D01*
X109301000Y-135926000D02*
X109301000Y-134750700D01*
X109220000Y-68580000D02*
X109220000Y-69755300D01*
X108933700Y-134750700D02*
X109301000Y-134750700D01*
X106178900Y-131995900D02*
X108933700Y-134750700D01*
X106178900Y-72431100D02*
X106178900Y-131995900D01*
X108854700Y-69755300D02*
X106178900Y-72431100D01*
X109220000Y-69755300D02*
X108854700Y-69755300D01*
X109220000Y-109220000D02*
X109220000Y-110395300D01*
X109660700Y-110395300D02*
X109220000Y-110395300D01*
X112197000Y-112931600D02*
X109660700Y-110395300D01*
X112197000Y-129658800D02*
X112197000Y-112931600D01*
X113881500Y-131343300D02*
X112197000Y-129658800D01*
X113881500Y-132562400D02*
X113881500Y-131343300D01*
X118669100Y-137350000D02*
X113881500Y-132562400D01*
X119534000Y-137350000D02*
X118669100Y-137350000D01*
X122053700Y-139869700D02*
X119534000Y-137350000D01*
X122053700Y-146259000D02*
X122053700Y-139869700D01*
X109220000Y-106680000D02*
X109220000Y-107855300D01*
X134366000Y-143764000D02*
X133190700Y-143764000D01*
X133190700Y-142479000D02*
X130299600Y-139587900D01*
X133190700Y-143764000D02*
X133190700Y-142479000D01*
X121652800Y-137480500D02*
X121652900Y-137480500D01*
X121652800Y-136970400D02*
X121652800Y-137480500D01*
X119492400Y-134810000D02*
X121652800Y-136970400D01*
X118690000Y-134810000D02*
X119492400Y-134810000D01*
X112647400Y-128767400D02*
X118690000Y-134810000D01*
X112647400Y-110474600D02*
X112647400Y-128767400D01*
X110028100Y-107855300D02*
X112647400Y-110474600D01*
X109220000Y-107855300D02*
X110028100Y-107855300D01*
X109220000Y-104140000D02*
X109220000Y-105315300D01*
X108852600Y-105315300D02*
X109220000Y-105315300D01*
X108044700Y-106123200D02*
X108852600Y-105315300D01*
X108044700Y-110224200D02*
X108044700Y-106123200D01*
X108989000Y-111168500D02*
X108044700Y-110224200D01*
X109723800Y-111168500D02*
X108989000Y-111168500D01*
X111702600Y-113147300D02*
X109723800Y-111168500D01*
X111702600Y-129801300D02*
X111702600Y-113147300D01*
X113431100Y-131529800D02*
X111702600Y-129801300D01*
X113431100Y-134645500D02*
X113431100Y-131529800D01*
X118675600Y-139890000D02*
X113431100Y-134645500D01*
X119560900Y-139890000D02*
X118675600Y-139890000D01*
X120851500Y-141180600D02*
X119560900Y-139890000D01*
X120851500Y-146293100D02*
X120851500Y-141180600D01*
X123728600Y-149170200D02*
X120851500Y-146293100D01*
X123728600Y-149515200D02*
X123728600Y-149170200D01*
X109220000Y-101600000D02*
X109220000Y-102775300D01*
X108852600Y-102775300D02*
X109220000Y-102775300D01*
X107570900Y-104057000D02*
X108852600Y-102775300D01*
X107570900Y-110420400D02*
X107570900Y-104057000D01*
X108911100Y-111760600D02*
X107570900Y-110420400D01*
X109679000Y-111760600D02*
X108911100Y-111760600D01*
X111208100Y-113289700D02*
X109679000Y-111760600D01*
X111208100Y-129998200D02*
X111208100Y-113289700D01*
X112755900Y-131546000D02*
X111208100Y-129998200D01*
X112755900Y-139973500D02*
X112755900Y-131546000D01*
X117988500Y-145206100D02*
X112755900Y-139973500D01*
X134366000Y-151384000D02*
X134366000Y-152559300D01*
X136015500Y-153841500D02*
X136015500Y-158426500D01*
X134733300Y-152559300D02*
X136015500Y-153841500D01*
X134366000Y-152559300D02*
X134733300Y-152559300D01*
X109517600Y-97695300D02*
X109220000Y-97695300D01*
X114597300Y-102775000D02*
X109517600Y-97695300D01*
X114597300Y-125716800D02*
X114597300Y-102775000D01*
X118610500Y-129730000D02*
X114597300Y-125716800D01*
X119492400Y-129730000D02*
X118610500Y-129730000D01*
X125476000Y-135713600D02*
X119492400Y-129730000D01*
X125476000Y-149449700D02*
X125476000Y-135713600D01*
X129950300Y-153924000D02*
X125476000Y-149449700D01*
X134366000Y-153924000D02*
X129950300Y-153924000D01*
X109220000Y-96520000D02*
X109220000Y-97695300D01*
X109220000Y-93980000D02*
X109220000Y-95155300D01*
X131845900Y-156464000D02*
X134366000Y-156464000D01*
X122771200Y-147389300D02*
X131845900Y-156464000D01*
X122771200Y-135548800D02*
X122771200Y-147389300D01*
X119492400Y-132270000D02*
X122771200Y-135548800D01*
X118703200Y-132270000D02*
X119492400Y-132270000D01*
X113960300Y-127527100D02*
X118703200Y-132270000D01*
X113960300Y-104676100D02*
X113960300Y-127527100D01*
X109614200Y-100330000D02*
X113960300Y-104676100D01*
X108731200Y-100330000D02*
X109614200Y-100330000D01*
X108044700Y-99643500D02*
X108731200Y-100330000D01*
X108044700Y-95963200D02*
X108044700Y-99643500D01*
X108852600Y-95155300D02*
X108044700Y-95963200D01*
X109220000Y-95155300D02*
X108852600Y-95155300D01*
X108852700Y-92615300D02*
X109220000Y-92615300D01*
X107079600Y-94388400D02*
X108852700Y-92615300D01*
X107079600Y-115132200D02*
X107079600Y-94388400D01*
X108823400Y-116876000D02*
X107079600Y-115132200D01*
X109720600Y-116876000D02*
X108823400Y-116876000D01*
X110663100Y-117818500D02*
X109720600Y-116876000D01*
X110663100Y-130353900D02*
X110663100Y-117818500D01*
X112305500Y-131996300D02*
X110663100Y-130353900D01*
X112305500Y-141161000D02*
X112305500Y-131996300D01*
X118654500Y-147510000D02*
X112305500Y-141161000D01*
X119562000Y-147510000D02*
X118654500Y-147510000D01*
X120337400Y-148285400D02*
X119562000Y-147510000D01*
X120337400Y-149181000D02*
X120337400Y-148285400D01*
X121270400Y-150114000D02*
X120337400Y-149181000D01*
X123443000Y-150114000D02*
X121270400Y-150114000D01*
X132333000Y-159004000D02*
X123443000Y-150114000D01*
X134366000Y-159004000D02*
X132333000Y-159004000D01*
X109220000Y-91440000D02*
X109220000Y-92615300D01*
X109668300Y-132021300D02*
X109301000Y-132021300D01*
X111824300Y-134177300D02*
X109668300Y-132021300D01*
X111824300Y-145741300D02*
X111824300Y-134177300D01*
X118673000Y-152590000D02*
X111824300Y-145741300D01*
X119558000Y-152590000D02*
X118673000Y-152590000D01*
X120524700Y-153556700D02*
X119558000Y-152590000D01*
X120524700Y-153924000D02*
X120524700Y-153556700D01*
X121700000Y-153924000D02*
X120524700Y-153924000D01*
X109301000Y-130846000D02*
X109301000Y-132021300D01*
X134366000Y-133604000D02*
X133190700Y-133604000D01*
X129668400Y-130081700D02*
X128077700Y-130081700D01*
X133190700Y-133604000D02*
X129668400Y-130081700D01*
X119100000Y-151320000D02*
X120275300Y-151320000D01*
X157480000Y-80772000D02*
X157480000Y-81947300D01*
X150301300Y-89126000D02*
X157480000Y-81947300D01*
X150301300Y-123437000D02*
X150301300Y-89126000D01*
X139138100Y-134600200D02*
X150301300Y-123437000D01*
X139138100Y-156193500D02*
X139138100Y-134600200D01*
X135107800Y-160223800D02*
X139138100Y-156193500D01*
X132915200Y-160223800D02*
X135107800Y-160223800D01*
X125250800Y-152559400D02*
X132915200Y-160223800D01*
X121147400Y-152559400D02*
X125250800Y-152559400D01*
X120275300Y-151687300D02*
X121147400Y-152559400D01*
X120275300Y-151320000D02*
X120275300Y-151687300D01*
X157112700Y-87535300D02*
X157480000Y-87535300D01*
X151393100Y-93254900D02*
X157112700Y-87535300D01*
X151393100Y-123287300D02*
X151393100Y-93254900D01*
X142384400Y-132296000D02*
X151393100Y-123287300D01*
X142384400Y-139135600D02*
X142384400Y-132296000D01*
X142087300Y-139432700D02*
X142384400Y-139135600D01*
X157480000Y-86360000D02*
X157480000Y-87535300D01*
X156672000Y-102775300D02*
X157480000Y-102775300D01*
X152378800Y-107068500D02*
X156672000Y-102775300D01*
X152378800Y-120333200D02*
X152378800Y-107068500D01*
X157480000Y-101600000D02*
X157480000Y-102775300D01*
X127000000Y-57960000D02*
X125824700Y-57960000D01*
X119100000Y-123380000D02*
X119100000Y-122204700D01*
X118798700Y-122204700D02*
X119100000Y-122204700D01*
X115047700Y-118453700D02*
X118798700Y-122204700D01*
X115047700Y-102257000D02*
X115047700Y-118453700D01*
X112661500Y-99870800D02*
X115047700Y-102257000D01*
X112661500Y-65055700D02*
X112661500Y-99870800D01*
X110544400Y-62938600D02*
X112661500Y-65055700D01*
X110544400Y-57445300D02*
X110544400Y-62938600D01*
X112137900Y-55851800D02*
X110544400Y-57445300D01*
X124083800Y-55851800D02*
X112137900Y-55851800D01*
X125824700Y-57592700D02*
X124083800Y-55851800D01*
X125824700Y-57960000D02*
X125824700Y-57592700D01*
X118732700Y-119664700D02*
X119100000Y-119664700D01*
X115498100Y-116430100D02*
X118732700Y-119664700D01*
X115498100Y-90545000D02*
X115498100Y-116430100D01*
X113111900Y-88158800D02*
X115498100Y-90545000D01*
X113111900Y-57452700D02*
X113111900Y-88158800D01*
X114239500Y-56325100D02*
X113111900Y-57452700D01*
X122017100Y-56325100D02*
X114239500Y-56325100D01*
X123284700Y-57592700D02*
X122017100Y-56325100D01*
X123284700Y-57960000D02*
X123284700Y-57592700D01*
X124460000Y-57960000D02*
X123284700Y-57960000D01*
X119100000Y-120840000D02*
X119100000Y-119664700D01*
X120744700Y-57592600D02*
X120744700Y-57960000D01*
X119936800Y-56784700D02*
X120744700Y-57592600D01*
X116334600Y-56784700D02*
X119936800Y-56784700D01*
X115664600Y-57454700D02*
X116334600Y-56784700D01*
X115664600Y-61391600D02*
X115664600Y-57454700D01*
X115948400Y-61675400D02*
X115664600Y-61391600D01*
X115948400Y-115148400D02*
X115948400Y-61675400D01*
X119100000Y-118300000D02*
X115948400Y-115148400D01*
X121920000Y-57960000D02*
X120744700Y-57960000D01*
X119419200Y-114584700D02*
X119100000Y-114584700D01*
X120447400Y-113556500D02*
X119419200Y-114584700D01*
X120447400Y-63643500D02*
X120447400Y-113556500D01*
X119100000Y-115760000D02*
X119100000Y-114584700D01*
X118732600Y-112044700D02*
X119100000Y-112044700D01*
X117924700Y-111236800D02*
X118732600Y-112044700D01*
X117924700Y-61675300D02*
X117924700Y-111236800D01*
X118017300Y-61582700D02*
X117924700Y-61675300D01*
X118017300Y-59945300D02*
X118017300Y-61582700D01*
X117207300Y-59135300D02*
X118017300Y-59945300D01*
X116840000Y-59135300D02*
X117207300Y-59135300D01*
X116840000Y-57960000D02*
X116840000Y-59135300D01*
X119100000Y-113220000D02*
X119100000Y-112044700D01*
X129026500Y-111003500D02*
X126746000Y-113284000D01*
X129026500Y-66887000D02*
X129026500Y-111003500D01*
X129349100Y-66564400D02*
X129026500Y-66887000D01*
X132080000Y-57960000D02*
X132080000Y-59135300D01*
X124206000Y-113284000D02*
X125381300Y-113284000D01*
X132447300Y-59135300D02*
X132080000Y-59135300D01*
X133274000Y-59962000D02*
X132447300Y-59135300D01*
X133274000Y-61381700D02*
X133274000Y-59962000D01*
X128393800Y-66261900D02*
X133274000Y-61381700D01*
X128393800Y-110762600D02*
X128393800Y-66261900D01*
X127047700Y-112108700D02*
X128393800Y-110762600D01*
X126189200Y-112108700D02*
X127047700Y-112108700D01*
X125381300Y-112916600D02*
X126189200Y-112108700D01*
X125381300Y-113284000D02*
X125381300Y-112916600D01*
X127000000Y-60500000D02*
X127000000Y-61675300D01*
X126746000Y-110744000D02*
X126746000Y-109568700D01*
X123030700Y-65644600D02*
X127000000Y-61675300D01*
X123030700Y-106153000D02*
X123030700Y-65644600D01*
X123845100Y-106967400D02*
X123030700Y-106153000D01*
X124653600Y-106967400D02*
X123845100Y-106967400D01*
X125570700Y-107884500D02*
X124653600Y-106967400D01*
X125570700Y-108760800D02*
X125570700Y-107884500D01*
X126378600Y-109568700D02*
X125570700Y-108760800D01*
X126746000Y-109568700D02*
X126378600Y-109568700D01*
X123838700Y-109568700D02*
X124206000Y-109568700D01*
X122541200Y-108271200D02*
X123838700Y-109568700D01*
X122541200Y-64864200D02*
X122541200Y-108271200D01*
X125730000Y-61675400D02*
X122541200Y-64864200D01*
X125730000Y-60069000D02*
X125730000Y-61675400D01*
X126663700Y-59135300D02*
X125730000Y-60069000D01*
X127556800Y-59135300D02*
X126663700Y-59135300D01*
X128364700Y-58327400D02*
X127556800Y-59135300D01*
X128364700Y-57960000D02*
X128364700Y-58327400D01*
X129540000Y-57960000D02*
X128364700Y-57960000D01*
X124206000Y-110744000D02*
X124206000Y-109568700D01*
X126378600Y-107028700D02*
X126746000Y-107028700D01*
X125570700Y-106220800D02*
X126378600Y-107028700D01*
X125570700Y-65644600D02*
X125570700Y-106220800D01*
X129540000Y-61675300D02*
X125570700Y-65644600D01*
X126746000Y-108204000D02*
X126746000Y-107028700D01*
X129540000Y-60500000D02*
X129540000Y-61675300D01*
X127113400Y-104488700D02*
X126746000Y-104488700D01*
X127921300Y-103680800D02*
X127113400Y-104488700D01*
X127921300Y-65834000D02*
X127921300Y-103680800D01*
X132080000Y-61675300D02*
X127921300Y-65834000D01*
X132080000Y-60500000D02*
X132080000Y-61675300D01*
X126746000Y-105664000D02*
X126746000Y-104488700D01*
X157480000Y-75692000D02*
X157480000Y-76867300D01*
X157112700Y-76867300D02*
X157480000Y-76867300D01*
X149851000Y-84129000D02*
X157112700Y-76867300D01*
X149851000Y-123250400D02*
X149851000Y-84129000D01*
X138687800Y-134413600D02*
X149851000Y-123250400D01*
X138687800Y-146202400D02*
X138687800Y-134413600D01*
X134863900Y-150026300D02*
X138687800Y-146202400D01*
X133247500Y-150026300D02*
X134863900Y-150026300D01*
X133203600Y-149982400D02*
X133247500Y-150026300D01*
X127113300Y-145128700D02*
X126746000Y-145128700D01*
X128563300Y-143678700D02*
X127113300Y-145128700D01*
X128563300Y-140417700D02*
X128563300Y-143678700D01*
X131567000Y-137414000D02*
X128563300Y-140417700D01*
X134846600Y-137414000D02*
X131567000Y-137414000D01*
X136169900Y-136090700D02*
X134846600Y-137414000D01*
X136169900Y-122105900D02*
X136169900Y-136090700D01*
X147861400Y-110414400D02*
X136169900Y-122105900D01*
X147861400Y-63673900D02*
X147861400Y-110414400D01*
X149860000Y-61675300D02*
X147861400Y-63673900D01*
X149860000Y-60500000D02*
X149860000Y-61675300D01*
X126746000Y-146304000D02*
X126746000Y-145128700D01*
X147320000Y-60500000D02*
X147320000Y-61675300D01*
X126746000Y-143764000D02*
X126746000Y-142588700D01*
X127113400Y-142588700D02*
X126746000Y-142588700D01*
X127921300Y-141780800D02*
X127113400Y-142588700D01*
X127921300Y-140400800D02*
X127921300Y-141780800D01*
X133448100Y-134874000D02*
X127921300Y-140400800D01*
X134758400Y-134874000D02*
X133448100Y-134874000D01*
X135665900Y-133966500D02*
X134758400Y-134874000D01*
X135665900Y-121973000D02*
X135665900Y-133966500D01*
X147372100Y-110266800D02*
X135665900Y-121973000D01*
X147372100Y-61727400D02*
X147372100Y-110266800D01*
X147320000Y-61675300D02*
X147372100Y-61727400D01*
X127106900Y-140048700D02*
X126746000Y-140048700D01*
X127961100Y-139194500D02*
X127106900Y-140048700D01*
X127961100Y-134314000D02*
X127961100Y-139194500D01*
X127446600Y-133799500D02*
X127961100Y-134314000D01*
X127446600Y-129828400D02*
X127446600Y-133799500D01*
X133096000Y-124179000D02*
X127446600Y-129828400D01*
X133096000Y-102577800D02*
X133096000Y-124179000D01*
X134294500Y-101379300D02*
X133096000Y-102577800D01*
X134380800Y-101379300D02*
X134294500Y-101379300D01*
X138725300Y-97034800D02*
X134380800Y-101379300D01*
X138725300Y-86966700D02*
X138725300Y-97034800D01*
X143604700Y-82087300D02*
X138725300Y-86966700D01*
X143604700Y-62850600D02*
X143604700Y-82087300D01*
X144780000Y-61675300D02*
X143604700Y-62850600D01*
X144780000Y-60500000D02*
X144780000Y-61675300D01*
X126746000Y-141224000D02*
X126746000Y-140048700D01*
X126746000Y-128788600D02*
X126746000Y-138684000D01*
X130616300Y-124918300D02*
X126746000Y-128788600D01*
X130616300Y-114403900D02*
X130616300Y-124918300D01*
X131839700Y-113180500D02*
X130616300Y-114403900D01*
X131839700Y-87514200D02*
X131839700Y-113180500D01*
X142240000Y-77113900D02*
X131839700Y-87514200D01*
X142240000Y-60500000D02*
X142240000Y-77113900D01*
X137160000Y-57960000D02*
X138335300Y-57960000D01*
X130937000Y-152718000D02*
X130937000Y-151542700D01*
X138335300Y-57592700D02*
X138335300Y-57960000D01*
X139169300Y-56758700D02*
X138335300Y-57592700D01*
X147781200Y-56758700D02*
X139169300Y-56758700D01*
X148684600Y-57662100D02*
X147781200Y-56758700D01*
X148684600Y-58485600D02*
X148684600Y-57662100D01*
X149523600Y-59324600D02*
X148684600Y-58485600D01*
X150385600Y-59324600D02*
X149523600Y-59324600D01*
X151045800Y-59984800D02*
X150385600Y-59324600D01*
X151045800Y-75768100D02*
X151045800Y-59984800D01*
X148866900Y-77947000D02*
X151045800Y-75768100D01*
X148866900Y-113188900D02*
X148866900Y-77947000D01*
X138237400Y-123818400D02*
X148866900Y-113188900D01*
X138237400Y-144098400D02*
X138237400Y-123818400D01*
X134681500Y-147654300D02*
X138237400Y-144098400D01*
X133837300Y-147654300D02*
X134681500Y-147654300D01*
X132112300Y-149379300D02*
X133837300Y-147654300D01*
X132112300Y-150734800D02*
X132112300Y-149379300D01*
X131304400Y-151542700D02*
X132112300Y-150734800D01*
X130937000Y-151542700D02*
X131304400Y-151542700D01*
X130937000Y-150178000D02*
X130937000Y-149002700D01*
X148311700Y-66868000D02*
X148641800Y-66537900D01*
X148311700Y-113107200D02*
X148311700Y-66868000D01*
X136925000Y-124493900D02*
X148311700Y-113107200D01*
X136925000Y-142881700D02*
X136925000Y-124493900D01*
X134772700Y-145034000D02*
X136925000Y-142881700D01*
X133882800Y-145034000D02*
X134772700Y-145034000D01*
X132740300Y-146176500D02*
X133882800Y-145034000D01*
X132740300Y-147561100D02*
X132740300Y-146176500D01*
X131298700Y-149002700D02*
X132740300Y-147561100D01*
X130937000Y-149002700D02*
X131298700Y-149002700D01*
X114300000Y-60500000D02*
X114300000Y-61675300D01*
X114785300Y-62160600D02*
X114785300Y-87815300D01*
X114300000Y-61675300D02*
X114785300Y-62160600D01*
X124206000Y-123444000D02*
X124206000Y-122268700D01*
X116840000Y-115226300D02*
X116840000Y-60500000D01*
X118643700Y-117030000D02*
X116840000Y-115226300D01*
X119568400Y-117030000D02*
X118643700Y-117030000D01*
X123030700Y-120492300D02*
X119568400Y-117030000D01*
X123030700Y-121460800D02*
X123030700Y-120492300D01*
X123838600Y-122268700D02*
X123030700Y-121460800D01*
X124206000Y-122268700D02*
X123838600Y-122268700D01*
X124206000Y-120904000D02*
X124206000Y-119728700D01*
X119380000Y-60500000D02*
X119380000Y-61675300D01*
X121072700Y-63368000D02*
X119380000Y-61675300D01*
X121072700Y-114066500D02*
X121072700Y-63368000D01*
X120490600Y-114648600D02*
X121072700Y-114066500D01*
X120490600Y-116821300D02*
X120490600Y-114648600D01*
X123398000Y-119728700D02*
X120490600Y-116821300D01*
X124206000Y-119728700D02*
X123398000Y-119728700D01*
X124206000Y-118364000D02*
X124206000Y-117188700D01*
X121920000Y-60500000D02*
X121920000Y-61675300D01*
X121920000Y-112220100D02*
X121920000Y-61675300D01*
X123030700Y-113330800D02*
X121920000Y-112220100D01*
X123030700Y-116380800D02*
X123030700Y-113330800D01*
X123838600Y-117188700D02*
X123030700Y-116380800D01*
X124206000Y-117188700D02*
X123838600Y-117188700D01*
X126746000Y-118364000D02*
X126746000Y-117188700D01*
X134620000Y-60500000D02*
X134620000Y-61675300D01*
X126378700Y-117188700D02*
X126746000Y-117188700D01*
X125570600Y-116380600D02*
X126378700Y-117188700D01*
X125570600Y-115298400D02*
X125570600Y-116380600D01*
X126315000Y-114554000D02*
X125570600Y-115298400D01*
X127162900Y-114554000D02*
X126315000Y-114554000D01*
X128991100Y-112725800D02*
X127162900Y-114554000D01*
X128991100Y-111793900D02*
X128991100Y-112725800D01*
X129476800Y-111308200D02*
X128991100Y-111793900D01*
X129476800Y-67830900D02*
X129476800Y-111308200D01*
X134620000Y-62687700D02*
X129476800Y-67830900D01*
X134620000Y-61675300D02*
X134620000Y-62687700D01*
X137160000Y-60500000D02*
X137160000Y-61675300D01*
X129927100Y-111742200D02*
X129730300Y-111939000D01*
X129927100Y-68908200D02*
X129927100Y-111742200D01*
X137160000Y-61675300D02*
X129927100Y-68908200D01*
X134366000Y-123444000D02*
X134366000Y-122268700D01*
X146669400Y-110332600D02*
X146669400Y-65948100D01*
X134733300Y-122268700D02*
X146669400Y-110332600D01*
X134366000Y-122268700D02*
X134733300Y-122268700D01*
X139700000Y-74697400D02*
X139700000Y-60500000D01*
X131301800Y-83095600D02*
X139700000Y-74697400D01*
X131301800Y-112066800D02*
X131301800Y-83095600D01*
X127921300Y-115447300D02*
X131301800Y-112066800D01*
X127921300Y-121460800D02*
X127921300Y-115447300D01*
X127113400Y-122268700D02*
X127921300Y-121460800D01*
X126746000Y-122268700D02*
X127113400Y-122268700D01*
X126746000Y-123444000D02*
X126746000Y-122268700D01*
X134366000Y-120904000D02*
X134366000Y-119728700D01*
X145775500Y-65695700D02*
X146217300Y-65253900D01*
X145775500Y-108686500D02*
X145775500Y-65695700D01*
X134733300Y-119728700D02*
X145775500Y-108686500D01*
X134366000Y-119728700D02*
X134733300Y-119728700D01*
X134366000Y-118364000D02*
X134366000Y-117188700D01*
X146702400Y-63634300D02*
X146702400Y-62003600D01*
X145325200Y-65011500D02*
X146702400Y-63634300D01*
X145325200Y-106596800D02*
X145325200Y-65011500D01*
X134733300Y-117188700D02*
X145325200Y-106596800D01*
X134366000Y-117188700D02*
X134733300Y-117188700D01*
X147320000Y-57960000D02*
X147320000Y-59135300D01*
X134366000Y-115824000D02*
X134366000Y-114648700D01*
X146952600Y-59135300D02*
X147320000Y-59135300D01*
X146009800Y-60078100D02*
X146952600Y-59135300D01*
X146009800Y-63690000D02*
X146009800Y-60078100D01*
X144765700Y-64934100D02*
X146009800Y-63690000D01*
X144765700Y-104616300D02*
X144765700Y-64934100D01*
X134733300Y-114648700D02*
X144765700Y-104616300D01*
X134366000Y-114648700D02*
X134733300Y-114648700D01*
X134366000Y-113284000D02*
X134366000Y-112108700D01*
X144315400Y-64499800D02*
X145294200Y-63521000D01*
X144315400Y-102526600D02*
X144315400Y-64499800D01*
X134733300Y-112108700D02*
X144315400Y-102526600D01*
X134366000Y-112108700D02*
X134733300Y-112108700D01*
X152400000Y-64654400D02*
X152400000Y-60500000D01*
X157087600Y-69342000D02*
X152400000Y-64654400D01*
X157969500Y-69342000D02*
X157087600Y-69342000D01*
X158657700Y-70030200D02*
X157969500Y-69342000D01*
X158657700Y-110582300D02*
X158657700Y-70030200D01*
X157480000Y-111760000D02*
X158657700Y-110582300D01*
X152400000Y-60500000D02*
X152400000Y-57960000D01*
X98004700Y-160488700D02*
X99060000Y-161544000D01*
X98004700Y-152947300D02*
X98004700Y-160488700D01*
X98806000Y-152146000D02*
X98004700Y-152947300D01*
X130377400Y-112192600D02*
X126746000Y-115824000D01*
X130377400Y-81432600D02*
X130377400Y-112192600D01*
X136900000Y-74910000D02*
X130377400Y-81432600D01*
X132313000Y-114161700D02*
X131826000Y-114648700D01*
X132313000Y-101812300D02*
X132313000Y-114161700D01*
X136900000Y-97225300D02*
X132313000Y-101812300D01*
X136900000Y-95400000D02*
X136900000Y-97225300D01*
X131826000Y-115824000D02*
X131826000Y-114648700D01*
X158288100Y-125635300D02*
X157480000Y-125635300D01*
X158655300Y-126002500D02*
X158288100Y-125635300D01*
X158655300Y-141128000D02*
X158655300Y-126002500D01*
X159992000Y-142464700D02*
X158655300Y-141128000D01*
X160800000Y-142464700D02*
X159992000Y-142464700D01*
X160800000Y-143640000D02*
X160800000Y-142464700D01*
X157480000Y-124460000D02*
X157480000Y-125635300D01*
X160432700Y-145004700D02*
X160800000Y-145004700D01*
X157223400Y-141795400D02*
X160432700Y-145004700D01*
X157223400Y-128903500D02*
X157223400Y-141795400D01*
X156304700Y-127984800D02*
X157223400Y-128903500D01*
X156304700Y-121363200D02*
X156304700Y-127984800D01*
X157112600Y-120555300D02*
X156304700Y-121363200D01*
X157480000Y-120555300D02*
X157112600Y-120555300D01*
X157480000Y-119380000D02*
X157480000Y-120555300D01*
X160800000Y-146180000D02*
X160800000Y-145004700D01*
X149961000Y-147504000D02*
X151486300Y-147504000D01*
X157400000Y-154300000D02*
X157400000Y-152224700D01*
X151715300Y-147733000D02*
X151486300Y-147504000D01*
X153343800Y-147733000D02*
X151715300Y-147733000D01*
X153343800Y-148168500D02*
X157400000Y-152224700D01*
X153343800Y-147733000D02*
X153343800Y-148168500D01*
X157480000Y-109220000D02*
X157480000Y-110395300D01*
X155448000Y-145628800D02*
X155448000Y-138176000D01*
X153343800Y-147733000D02*
X155448000Y-145628800D01*
X157112700Y-110395300D02*
X157480000Y-110395300D01*
X155841000Y-111667000D02*
X157112700Y-110395300D01*
X155841000Y-131398400D02*
X155841000Y-111667000D01*
X156661600Y-132219000D02*
X155841000Y-131398400D01*
X156661600Y-136154400D02*
X156661600Y-132219000D01*
X155815300Y-137000700D02*
X156661600Y-136154400D01*
X155448000Y-137000700D02*
X155815300Y-137000700D01*
X155448000Y-138176000D02*
X155448000Y-137000700D01*
X109220000Y-60500000D02*
X109220000Y-57960000D01*
X114998000Y-161480000D02*
X119100000Y-161480000D01*
X112268000Y-158750000D02*
X114998000Y-161480000D01*
X157847300Y-118015300D02*
X157480000Y-118015300D01*
X162856600Y-123024600D02*
X157847300Y-118015300D01*
X162856600Y-137868100D02*
X162856600Y-123024600D01*
X160800000Y-139924700D02*
X162856600Y-137868100D01*
X160800000Y-141100000D02*
X160800000Y-139924700D01*
X157480000Y-116840000D02*
X157480000Y-118015300D01*
M02*
