G04 #@! TF.FileFunction,Legend,Top*
%FSLAX46Y46*%
G04 Gerber Fmt 4.6, Leading zero omitted, Abs format (unit mm)*
G04 Created by KiCad (PCBNEW 4.0.6) date 06/05/17 03:56:48*
%MOMM*%
%LPD*%
G01*
G04 APERTURE LIST*
%ADD10C,0.100000*%
%ADD11C,0.300000*%
%ADD12C,0.200000*%
%ADD13C,0.120000*%
%ADD14C,0.150000*%
G04 APERTURE END LIST*
D10*
D11*
X154876572Y-141331143D02*
X156019429Y-141331143D01*
X155448000Y-141902571D02*
X155448000Y-140759714D01*
D12*
X163952381Y-145104762D02*
X162952381Y-145104762D01*
X162952381Y-144438096D02*
X162952381Y-144247619D01*
X163000000Y-144152381D01*
X163095238Y-144057143D01*
X163285714Y-144009524D01*
X163619048Y-144009524D01*
X163809524Y-144057143D01*
X163904762Y-144152381D01*
X163952381Y-144247619D01*
X163952381Y-144438096D01*
X163904762Y-144533334D01*
X163809524Y-144628572D01*
X163619048Y-144676191D01*
X163285714Y-144676191D01*
X163095238Y-144628572D01*
X163000000Y-144533334D01*
X162952381Y-144438096D01*
X163952381Y-143009524D02*
X163476190Y-143342858D01*
X163952381Y-143580953D02*
X162952381Y-143580953D01*
X162952381Y-143200000D01*
X163000000Y-143104762D01*
X163047619Y-143057143D01*
X163142857Y-143009524D01*
X163285714Y-143009524D01*
X163380952Y-143057143D01*
X163428571Y-143104762D01*
X163476190Y-143200000D01*
X163476190Y-143580953D01*
X163428571Y-142580953D02*
X163428571Y-142247619D01*
X163952381Y-142104762D02*
X163952381Y-142580953D01*
X162952381Y-142580953D01*
X162952381Y-142104762D01*
X163428571Y-141342857D02*
X163428571Y-141676191D01*
X163952381Y-141676191D02*
X162952381Y-141676191D01*
X162952381Y-141200000D01*
X161042857Y-151414285D02*
X161042857Y-150671428D01*
X161500000Y-151071428D01*
X161500000Y-150900000D01*
X161557143Y-150785714D01*
X161614286Y-150728571D01*
X161728571Y-150671428D01*
X162014286Y-150671428D01*
X162128571Y-150728571D01*
X162185714Y-150785714D01*
X162242857Y-150900000D01*
X162242857Y-151242857D01*
X162185714Y-151357143D01*
X162128571Y-151414285D01*
X162128571Y-150157143D02*
X162185714Y-150100000D01*
X162242857Y-150157143D01*
X162185714Y-150214286D01*
X162128571Y-150157143D01*
X162242857Y-150157143D01*
X161042857Y-149699999D02*
X161042857Y-148957142D01*
X161500000Y-149357142D01*
X161500000Y-149185714D01*
X161557143Y-149071428D01*
X161614286Y-149014285D01*
X161728571Y-148957142D01*
X162014286Y-148957142D01*
X162128571Y-149014285D01*
X162185714Y-149071428D01*
X162242857Y-149185714D01*
X162242857Y-149528571D01*
X162185714Y-149642857D01*
X162128571Y-149699999D01*
X161442857Y-148557142D02*
X162242857Y-148271428D01*
X161442857Y-147985714D01*
X161242857Y-138271428D02*
X161242857Y-138842857D01*
X161814286Y-138900000D01*
X161757143Y-138842857D01*
X161700000Y-138728571D01*
X161700000Y-138442857D01*
X161757143Y-138328571D01*
X161814286Y-138271428D01*
X161928571Y-138214285D01*
X162214286Y-138214285D01*
X162328571Y-138271428D01*
X162385714Y-138328571D01*
X162442857Y-138442857D01*
X162442857Y-138728571D01*
X162385714Y-138842857D01*
X162328571Y-138900000D01*
X161642857Y-137814285D02*
X162442857Y-137528571D01*
X161642857Y-137242857D01*
D11*
X112185714Y-145628571D02*
X112990476Y-145628571D01*
X112557143Y-146200000D01*
X112742857Y-146200000D01*
X112866667Y-146271429D01*
X112928571Y-146342857D01*
X112990476Y-146485714D01*
X112990476Y-146842857D01*
X112928571Y-146985714D01*
X112866667Y-147057143D01*
X112742857Y-147128571D01*
X112371429Y-147128571D01*
X112247619Y-147057143D01*
X112185714Y-146985714D01*
X113547619Y-146985714D02*
X113609524Y-147057143D01*
X113547619Y-147128571D01*
X113485714Y-147057143D01*
X113547619Y-146985714D01*
X113547619Y-147128571D01*
X114042857Y-145628571D02*
X114847619Y-145628571D01*
X114414286Y-146200000D01*
X114600000Y-146200000D01*
X114723810Y-146271429D01*
X114785714Y-146342857D01*
X114847619Y-146485714D01*
X114847619Y-146842857D01*
X114785714Y-146985714D01*
X114723810Y-147057143D01*
X114600000Y-147128571D01*
X114228572Y-147128571D01*
X114104762Y-147057143D01*
X114042857Y-146985714D01*
X115280952Y-146128571D02*
X115590476Y-147128571D01*
X115900000Y-146128571D01*
X112247619Y-149250000D02*
X112866667Y-149250000D01*
X112123810Y-149678571D02*
X112557143Y-148178571D01*
X112990476Y-149678571D01*
X114104762Y-148250000D02*
X113980953Y-148178571D01*
X113795238Y-148178571D01*
X113609524Y-148250000D01*
X113485715Y-148392857D01*
X113423810Y-148535714D01*
X113361905Y-148821429D01*
X113361905Y-149035714D01*
X113423810Y-149321429D01*
X113485715Y-149464286D01*
X113609524Y-149607143D01*
X113795238Y-149678571D01*
X113919048Y-149678571D01*
X114104762Y-149607143D01*
X114166667Y-149535714D01*
X114166667Y-149035714D01*
X113919048Y-149035714D01*
X114723810Y-149678571D02*
X114723810Y-148178571D01*
X115466667Y-149678571D01*
X115466667Y-148178571D01*
X116085715Y-149678571D02*
X116085715Y-148178571D01*
X116395239Y-148178571D01*
X116580953Y-148250000D01*
X116704762Y-148392857D01*
X116766667Y-148535714D01*
X116828572Y-148821429D01*
X116828572Y-149035714D01*
X116766667Y-149321429D01*
X116704762Y-149464286D01*
X116580953Y-149607143D01*
X116395239Y-149678571D01*
X116085715Y-149678571D01*
X112990476Y-150800000D02*
X112866667Y-150728571D01*
X112680952Y-150728571D01*
X112495238Y-150800000D01*
X112371429Y-150942857D01*
X112309524Y-151085714D01*
X112247619Y-151371429D01*
X112247619Y-151585714D01*
X112309524Y-151871429D01*
X112371429Y-152014286D01*
X112495238Y-152157143D01*
X112680952Y-152228571D01*
X112804762Y-152228571D01*
X112990476Y-152157143D01*
X113052381Y-152085714D01*
X113052381Y-151585714D01*
X112804762Y-151585714D01*
X113609524Y-152228571D02*
X113609524Y-150728571D01*
X114352381Y-152228571D01*
X114352381Y-150728571D01*
X114971429Y-152228571D02*
X114971429Y-150728571D01*
X115280953Y-150728571D01*
X115466667Y-150800000D01*
X115590476Y-150942857D01*
X115652381Y-151085714D01*
X115714286Y-151371429D01*
X115714286Y-151585714D01*
X115652381Y-151871429D01*
X115590476Y-152014286D01*
X115466667Y-152157143D01*
X115280953Y-152228571D01*
X114971429Y-152228571D01*
X113125000Y-68004762D02*
X113053571Y-68066666D01*
X112839286Y-68190476D01*
X112696429Y-68252381D01*
X112482143Y-68314285D01*
X112125000Y-68376190D01*
X111839286Y-68376190D01*
X111482143Y-68314285D01*
X111267857Y-68252381D01*
X111125000Y-68190476D01*
X110910714Y-68066666D01*
X110839286Y-68004762D01*
X111196429Y-67571428D02*
X111125000Y-67509523D01*
X111053571Y-67385714D01*
X111053571Y-67076190D01*
X111125000Y-66952380D01*
X111196429Y-66890476D01*
X111339286Y-66828571D01*
X111482143Y-66828571D01*
X111696429Y-66890476D01*
X112553571Y-67633333D01*
X112553571Y-66828571D01*
X111196429Y-66333333D02*
X111125000Y-66271428D01*
X111053571Y-66147619D01*
X111053571Y-65838095D01*
X111125000Y-65714285D01*
X111196429Y-65652381D01*
X111339286Y-65590476D01*
X111482143Y-65590476D01*
X111696429Y-65652381D01*
X112553571Y-66395238D01*
X112553571Y-65590476D01*
X113125000Y-65157143D02*
X113053571Y-65095238D01*
X112839286Y-64971428D01*
X112696429Y-64909524D01*
X112482143Y-64847619D01*
X112125000Y-64785714D01*
X111839286Y-64785714D01*
X111482143Y-64847619D01*
X111267857Y-64909524D01*
X111125000Y-64971428D01*
X110910714Y-65095238D01*
X110839286Y-65157143D01*
X111196429Y-64228571D02*
X111125000Y-64166666D01*
X111053571Y-64042857D01*
X111053571Y-63733333D01*
X111125000Y-63609523D01*
X111196429Y-63547619D01*
X111339286Y-63485714D01*
X111482143Y-63485714D01*
X111696429Y-63547619D01*
X112553571Y-64290476D01*
X112553571Y-63485714D01*
X112553571Y-62866666D02*
X112553571Y-62619047D01*
X112482143Y-62495238D01*
X112410714Y-62433333D01*
X112196429Y-62309524D01*
X111910714Y-62247619D01*
X111339286Y-62247619D01*
X111196429Y-62309524D01*
X111125000Y-62371428D01*
X111053571Y-62495238D01*
X111053571Y-62742857D01*
X111125000Y-62866666D01*
X111196429Y-62928571D01*
X111339286Y-62990476D01*
X111696429Y-62990476D01*
X111839286Y-62928571D01*
X111910714Y-62866666D01*
X111982143Y-62742857D01*
X111982143Y-62495238D01*
X111910714Y-62371428D01*
X111839286Y-62309524D01*
X111696429Y-62247619D01*
X113603571Y-64290476D02*
X113603571Y-63485714D01*
X114175000Y-63919047D01*
X114175000Y-63733333D01*
X114246429Y-63609523D01*
X114317857Y-63547619D01*
X114460714Y-63485714D01*
X114817857Y-63485714D01*
X114960714Y-63547619D01*
X115032143Y-63609523D01*
X115103571Y-63733333D01*
X115103571Y-64104761D01*
X115032143Y-64228571D01*
X114960714Y-64290476D01*
X113603571Y-62680952D02*
X113603571Y-62557143D01*
X113675000Y-62433333D01*
X113746429Y-62371428D01*
X113889286Y-62309524D01*
X114175000Y-62247619D01*
X114532143Y-62247619D01*
X114817857Y-62309524D01*
X114960714Y-62371428D01*
X115032143Y-62433333D01*
X115103571Y-62557143D01*
X115103571Y-62680952D01*
X115032143Y-62804762D01*
X114960714Y-62866666D01*
X114817857Y-62928571D01*
X114532143Y-62990476D01*
X114175000Y-62990476D01*
X113889286Y-62928571D01*
X113746429Y-62866666D01*
X113675000Y-62804762D01*
X113603571Y-62680952D01*
X116653571Y-63609523D02*
X117653571Y-63609523D01*
X116082143Y-63919047D02*
X117153571Y-64228571D01*
X117153571Y-63423809D01*
X116153571Y-62680952D02*
X116153571Y-62557143D01*
X116225000Y-62433333D01*
X116296429Y-62371428D01*
X116439286Y-62309524D01*
X116725000Y-62247619D01*
X117082143Y-62247619D01*
X117367857Y-62309524D01*
X117510714Y-62371428D01*
X117582143Y-62433333D01*
X117653571Y-62557143D01*
X117653571Y-62680952D01*
X117582143Y-62804762D01*
X117510714Y-62866666D01*
X117367857Y-62928571D01*
X117082143Y-62990476D01*
X116725000Y-62990476D01*
X116439286Y-62928571D01*
X116296429Y-62866666D01*
X116225000Y-62804762D01*
X116153571Y-62680952D01*
X119203571Y-63609523D02*
X120203571Y-63609523D01*
X118632143Y-63919047D02*
X119703571Y-64228571D01*
X119703571Y-63423809D01*
X120203571Y-62247619D02*
X120203571Y-62990476D01*
X120203571Y-62619047D02*
X118703571Y-62619047D01*
X118917857Y-62742857D01*
X119060714Y-62866666D01*
X119132143Y-62990476D01*
X121753571Y-63609523D02*
X122753571Y-63609523D01*
X121182143Y-63919047D02*
X122253571Y-64228571D01*
X122253571Y-63423809D01*
X121396429Y-62990476D02*
X121325000Y-62928571D01*
X121253571Y-62804762D01*
X121253571Y-62495238D01*
X121325000Y-62371428D01*
X121396429Y-62309524D01*
X121539286Y-62247619D01*
X121682143Y-62247619D01*
X121896429Y-62309524D01*
X122753571Y-63052381D01*
X122753571Y-62247619D01*
X124303571Y-63609523D02*
X125303571Y-63609523D01*
X123732143Y-63919047D02*
X124803571Y-64228571D01*
X124803571Y-63423809D01*
X123803571Y-63052381D02*
X123803571Y-62247619D01*
X124375000Y-62680952D01*
X124375000Y-62495238D01*
X124446429Y-62371428D01*
X124517857Y-62309524D01*
X124660714Y-62247619D01*
X125017857Y-62247619D01*
X125160714Y-62309524D01*
X125232143Y-62371428D01*
X125303571Y-62495238D01*
X125303571Y-62866666D01*
X125232143Y-62990476D01*
X125160714Y-63052381D01*
X126853571Y-63609523D02*
X127853571Y-63609523D01*
X126282143Y-63919047D02*
X127353571Y-64228571D01*
X127353571Y-63423809D01*
X126853571Y-62371428D02*
X127853571Y-62371428D01*
X126282143Y-62680952D02*
X127353571Y-62990476D01*
X127353571Y-62185714D01*
X129403571Y-63609523D02*
X130403571Y-63609523D01*
X128832143Y-63919047D02*
X129903571Y-64228571D01*
X129903571Y-63423809D01*
X128903571Y-62309524D02*
X128903571Y-62928571D01*
X129617857Y-62990476D01*
X129546429Y-62928571D01*
X129475000Y-62804762D01*
X129475000Y-62495238D01*
X129546429Y-62371428D01*
X129617857Y-62309524D01*
X129760714Y-62247619D01*
X130117857Y-62247619D01*
X130260714Y-62309524D01*
X130332143Y-62371428D01*
X130403571Y-62495238D01*
X130403571Y-62804762D01*
X130332143Y-62928571D01*
X130260714Y-62990476D01*
X131953571Y-63609523D02*
X132953571Y-63609523D01*
X131382143Y-63919047D02*
X132453571Y-64228571D01*
X132453571Y-63423809D01*
X131453571Y-62371428D02*
X131453571Y-62619047D01*
X131525000Y-62742857D01*
X131596429Y-62804762D01*
X131810714Y-62928571D01*
X132096429Y-62990476D01*
X132667857Y-62990476D01*
X132810714Y-62928571D01*
X132882143Y-62866666D01*
X132953571Y-62742857D01*
X132953571Y-62495238D01*
X132882143Y-62371428D01*
X132810714Y-62309524D01*
X132667857Y-62247619D01*
X132310714Y-62247619D01*
X132167857Y-62309524D01*
X132096429Y-62371428D01*
X132025000Y-62495238D01*
X132025000Y-62742857D01*
X132096429Y-62866666D01*
X132167857Y-62928571D01*
X132310714Y-62990476D01*
X134003571Y-63547619D02*
X134003571Y-64166666D01*
X134717857Y-64228571D01*
X134646429Y-64166666D01*
X134575000Y-64042857D01*
X134575000Y-63733333D01*
X134646429Y-63609523D01*
X134717857Y-63547619D01*
X134860714Y-63485714D01*
X135217857Y-63485714D01*
X135360714Y-63547619D01*
X135432143Y-63609523D01*
X135503571Y-63733333D01*
X135503571Y-64042857D01*
X135432143Y-64166666D01*
X135360714Y-64228571D01*
X135503571Y-62247619D02*
X135503571Y-62990476D01*
X135503571Y-62619047D02*
X134003571Y-62619047D01*
X134217857Y-62742857D01*
X134360714Y-62866666D01*
X134432143Y-62990476D01*
X136553571Y-63547619D02*
X136553571Y-64166666D01*
X137267857Y-64228571D01*
X137196429Y-64166666D01*
X137125000Y-64042857D01*
X137125000Y-63733333D01*
X137196429Y-63609523D01*
X137267857Y-63547619D01*
X137410714Y-63485714D01*
X137767857Y-63485714D01*
X137910714Y-63547619D01*
X137982143Y-63609523D01*
X138053571Y-63733333D01*
X138053571Y-64042857D01*
X137982143Y-64166666D01*
X137910714Y-64228571D01*
X136696429Y-62990476D02*
X136625000Y-62928571D01*
X136553571Y-62804762D01*
X136553571Y-62495238D01*
X136625000Y-62371428D01*
X136696429Y-62309524D01*
X136839286Y-62247619D01*
X136982143Y-62247619D01*
X137196429Y-62309524D01*
X138053571Y-63052381D01*
X138053571Y-62247619D01*
X139103571Y-63547619D02*
X139103571Y-64166666D01*
X139817857Y-64228571D01*
X139746429Y-64166666D01*
X139675000Y-64042857D01*
X139675000Y-63733333D01*
X139746429Y-63609523D01*
X139817857Y-63547619D01*
X139960714Y-63485714D01*
X140317857Y-63485714D01*
X140460714Y-63547619D01*
X140532143Y-63609523D01*
X140603571Y-63733333D01*
X140603571Y-64042857D01*
X140532143Y-64166666D01*
X140460714Y-64228571D01*
X139103571Y-63052381D02*
X139103571Y-62247619D01*
X139675000Y-62680952D01*
X139675000Y-62495238D01*
X139746429Y-62371428D01*
X139817857Y-62309524D01*
X139960714Y-62247619D01*
X140317857Y-62247619D01*
X140460714Y-62309524D01*
X140532143Y-62371428D01*
X140603571Y-62495238D01*
X140603571Y-62866666D01*
X140532143Y-62990476D01*
X140460714Y-63052381D01*
X141653571Y-63547619D02*
X141653571Y-64166666D01*
X142367857Y-64228571D01*
X142296429Y-64166666D01*
X142225000Y-64042857D01*
X142225000Y-63733333D01*
X142296429Y-63609523D01*
X142367857Y-63547619D01*
X142510714Y-63485714D01*
X142867857Y-63485714D01*
X143010714Y-63547619D01*
X143082143Y-63609523D01*
X143153571Y-63733333D01*
X143153571Y-64042857D01*
X143082143Y-64166666D01*
X143010714Y-64228571D01*
X142153571Y-62371428D02*
X143153571Y-62371428D01*
X141582143Y-62680952D02*
X142653571Y-62990476D01*
X142653571Y-62185714D01*
X144203571Y-63547619D02*
X144203571Y-64166666D01*
X144917857Y-64228571D01*
X144846429Y-64166666D01*
X144775000Y-64042857D01*
X144775000Y-63733333D01*
X144846429Y-63609523D01*
X144917857Y-63547619D01*
X145060714Y-63485714D01*
X145417857Y-63485714D01*
X145560714Y-63547619D01*
X145632143Y-63609523D01*
X145703571Y-63733333D01*
X145703571Y-64042857D01*
X145632143Y-64166666D01*
X145560714Y-64228571D01*
X144203571Y-62309524D02*
X144203571Y-62928571D01*
X144917857Y-62990476D01*
X144846429Y-62928571D01*
X144775000Y-62804762D01*
X144775000Y-62495238D01*
X144846429Y-62371428D01*
X144917857Y-62309524D01*
X145060714Y-62247619D01*
X145417857Y-62247619D01*
X145560714Y-62309524D01*
X145632143Y-62371428D01*
X145703571Y-62495238D01*
X145703571Y-62804762D01*
X145632143Y-62928571D01*
X145560714Y-62990476D01*
X146753571Y-63547619D02*
X146753571Y-64166666D01*
X147467857Y-64228571D01*
X147396429Y-64166666D01*
X147325000Y-64042857D01*
X147325000Y-63733333D01*
X147396429Y-63609523D01*
X147467857Y-63547619D01*
X147610714Y-63485714D01*
X147967857Y-63485714D01*
X148110714Y-63547619D01*
X148182143Y-63609523D01*
X148253571Y-63733333D01*
X148253571Y-64042857D01*
X148182143Y-64166666D01*
X148110714Y-64228571D01*
X146753571Y-62371428D02*
X146753571Y-62619047D01*
X146825000Y-62742857D01*
X146896429Y-62804762D01*
X147110714Y-62928571D01*
X147396429Y-62990476D01*
X147967857Y-62990476D01*
X148110714Y-62928571D01*
X148182143Y-62866666D01*
X148253571Y-62742857D01*
X148253571Y-62495238D01*
X148182143Y-62371428D01*
X148110714Y-62309524D01*
X147967857Y-62247619D01*
X147610714Y-62247619D01*
X147467857Y-62309524D01*
X147396429Y-62371428D01*
X147325000Y-62495238D01*
X147325000Y-62742857D01*
X147396429Y-62866666D01*
X147467857Y-62928571D01*
X147610714Y-62990476D01*
X151375000Y-68128571D02*
X151303571Y-68190475D01*
X151089286Y-68314285D01*
X150946429Y-68376190D01*
X150732143Y-68438094D01*
X150375000Y-68499999D01*
X150089286Y-68499999D01*
X149732143Y-68438094D01*
X149517857Y-68376190D01*
X149375000Y-68314285D01*
X149160714Y-68190475D01*
X149089286Y-68128571D01*
X149303571Y-67014285D02*
X149303571Y-67633332D01*
X150017857Y-67695237D01*
X149946429Y-67633332D01*
X149875000Y-67509523D01*
X149875000Y-67199999D01*
X149946429Y-67076189D01*
X150017857Y-67014285D01*
X150160714Y-66952380D01*
X150517857Y-66952380D01*
X150660714Y-67014285D01*
X150732143Y-67076189D01*
X150803571Y-67199999D01*
X150803571Y-67509523D01*
X150732143Y-67633332D01*
X150660714Y-67695237D01*
X149446429Y-66457142D02*
X149375000Y-66395237D01*
X149303571Y-66271428D01*
X149303571Y-65961904D01*
X149375000Y-65838094D01*
X149446429Y-65776190D01*
X149589286Y-65714285D01*
X149732143Y-65714285D01*
X149946429Y-65776190D01*
X150803571Y-66519047D01*
X150803571Y-65714285D01*
X149303571Y-63547619D02*
X149303571Y-64166666D01*
X150017857Y-64228571D01*
X149946429Y-64166666D01*
X149875000Y-64042857D01*
X149875000Y-63733333D01*
X149946429Y-63609523D01*
X150017857Y-63547619D01*
X150160714Y-63485714D01*
X150517857Y-63485714D01*
X150660714Y-63547619D01*
X150732143Y-63609523D01*
X150803571Y-63733333D01*
X150803571Y-64042857D01*
X150732143Y-64166666D01*
X150660714Y-64228571D01*
X149303571Y-63052381D02*
X149303571Y-62185714D01*
X150803571Y-62742857D01*
X151925000Y-64971429D02*
X151853571Y-65095238D01*
X151853571Y-65280953D01*
X151925000Y-65466667D01*
X152067857Y-65590476D01*
X152210714Y-65652381D01*
X152496429Y-65714286D01*
X152710714Y-65714286D01*
X152996429Y-65652381D01*
X153139286Y-65590476D01*
X153282143Y-65466667D01*
X153353571Y-65280953D01*
X153353571Y-65157143D01*
X153282143Y-64971429D01*
X153210714Y-64909524D01*
X152710714Y-64909524D01*
X152710714Y-65157143D01*
X153353571Y-64352381D02*
X151853571Y-64352381D01*
X153353571Y-63609524D01*
X151853571Y-63609524D01*
X153353571Y-62990476D02*
X151853571Y-62990476D01*
X151853571Y-62680952D01*
X151925000Y-62495238D01*
X152067857Y-62371429D01*
X152210714Y-62309524D01*
X152496429Y-62247619D01*
X152710714Y-62247619D01*
X152996429Y-62309524D01*
X153139286Y-62371429D01*
X153282143Y-62495238D01*
X153353571Y-62680952D01*
X153353571Y-62990476D01*
X108313571Y-53335214D02*
X108313571Y-53954261D01*
X109027857Y-54016166D01*
X108956429Y-53954261D01*
X108885000Y-53830452D01*
X108885000Y-53520928D01*
X108956429Y-53397118D01*
X109027857Y-53335214D01*
X109170714Y-53273309D01*
X109527857Y-53273309D01*
X109670714Y-53335214D01*
X109742143Y-53397118D01*
X109813571Y-53520928D01*
X109813571Y-53830452D01*
X109742143Y-53954261D01*
X109670714Y-54016166D01*
X108813571Y-52839976D02*
X109813571Y-52530452D01*
X108813571Y-52220928D01*
X111935000Y-54697119D02*
X111935000Y-54078071D01*
X112363571Y-54820928D02*
X110863571Y-54387595D01*
X112363571Y-53954262D01*
X112363571Y-52839976D02*
X112363571Y-53582833D01*
X112363571Y-53211404D02*
X110863571Y-53211404D01*
X111077857Y-53335214D01*
X111220714Y-53459023D01*
X111292143Y-53582833D01*
X110863571Y-51725690D02*
X110863571Y-51973309D01*
X110935000Y-52097119D01*
X111006429Y-52159024D01*
X111220714Y-52282833D01*
X111506429Y-52344738D01*
X112077857Y-52344738D01*
X112220714Y-52282833D01*
X112292143Y-52220928D01*
X112363571Y-52097119D01*
X112363571Y-51849500D01*
X112292143Y-51725690D01*
X112220714Y-51663786D01*
X112077857Y-51601881D01*
X111720714Y-51601881D01*
X111577857Y-51663786D01*
X111506429Y-51725690D01*
X111435000Y-51849500D01*
X111435000Y-52097119D01*
X111506429Y-52220928D01*
X111577857Y-52282833D01*
X111720714Y-52344738D01*
X114485000Y-54697119D02*
X114485000Y-54078071D01*
X114913571Y-54820928D02*
X113413571Y-54387595D01*
X114913571Y-53954262D01*
X114913571Y-52839976D02*
X114913571Y-53582833D01*
X114913571Y-53211404D02*
X113413571Y-53211404D01*
X113627857Y-53335214D01*
X113770714Y-53459023D01*
X113842143Y-53582833D01*
X113413571Y-52406643D02*
X113413571Y-51539976D01*
X114913571Y-52097119D01*
X117035000Y-54697119D02*
X117035000Y-54078071D01*
X117463571Y-54820928D02*
X115963571Y-54387595D01*
X117463571Y-53954262D01*
X117463571Y-52839976D02*
X117463571Y-53582833D01*
X117463571Y-53211404D02*
X115963571Y-53211404D01*
X116177857Y-53335214D01*
X116320714Y-53459023D01*
X116392143Y-53582833D01*
X116606429Y-52097119D02*
X116535000Y-52220928D01*
X116463571Y-52282833D01*
X116320714Y-52344738D01*
X116249286Y-52344738D01*
X116106429Y-52282833D01*
X116035000Y-52220928D01*
X115963571Y-52097119D01*
X115963571Y-51849500D01*
X116035000Y-51725690D01*
X116106429Y-51663786D01*
X116249286Y-51601881D01*
X116320714Y-51601881D01*
X116463571Y-51663786D01*
X116535000Y-51725690D01*
X116606429Y-51849500D01*
X116606429Y-52097119D01*
X116677857Y-52220928D01*
X116749286Y-52282833D01*
X116892143Y-52344738D01*
X117177857Y-52344738D01*
X117320714Y-52282833D01*
X117392143Y-52220928D01*
X117463571Y-52097119D01*
X117463571Y-51849500D01*
X117392143Y-51725690D01*
X117320714Y-51663786D01*
X117177857Y-51601881D01*
X116892143Y-51601881D01*
X116749286Y-51663786D01*
X116677857Y-51725690D01*
X116606429Y-51849500D01*
X119585000Y-54697119D02*
X119585000Y-54078071D01*
X120013571Y-54820928D02*
X118513571Y-54387595D01*
X120013571Y-53954262D01*
X120013571Y-52839976D02*
X120013571Y-53582833D01*
X120013571Y-53211404D02*
X118513571Y-53211404D01*
X118727857Y-53335214D01*
X118870714Y-53459023D01*
X118942143Y-53582833D01*
X120013571Y-52220928D02*
X120013571Y-51973309D01*
X119942143Y-51849500D01*
X119870714Y-51787595D01*
X119656429Y-51663786D01*
X119370714Y-51601881D01*
X118799286Y-51601881D01*
X118656429Y-51663786D01*
X118585000Y-51725690D01*
X118513571Y-51849500D01*
X118513571Y-52097119D01*
X118585000Y-52220928D01*
X118656429Y-52282833D01*
X118799286Y-52344738D01*
X119156429Y-52344738D01*
X119299286Y-52282833D01*
X119370714Y-52220928D01*
X119442143Y-52097119D01*
X119442143Y-51849500D01*
X119370714Y-51725690D01*
X119299286Y-51663786D01*
X119156429Y-51601881D01*
X122135000Y-54697119D02*
X122135000Y-54078071D01*
X122563571Y-54820928D02*
X121063571Y-54387595D01*
X122563571Y-53954262D01*
X121206429Y-53582833D02*
X121135000Y-53520928D01*
X121063571Y-53397119D01*
X121063571Y-53087595D01*
X121135000Y-52963785D01*
X121206429Y-52901881D01*
X121349286Y-52839976D01*
X121492143Y-52839976D01*
X121706429Y-52901881D01*
X122563571Y-53644738D01*
X122563571Y-52839976D01*
X121063571Y-52035214D02*
X121063571Y-51911405D01*
X121135000Y-51787595D01*
X121206429Y-51725690D01*
X121349286Y-51663786D01*
X121635000Y-51601881D01*
X121992143Y-51601881D01*
X122277857Y-51663786D01*
X122420714Y-51725690D01*
X122492143Y-51787595D01*
X122563571Y-51911405D01*
X122563571Y-52035214D01*
X122492143Y-52159024D01*
X122420714Y-52220928D01*
X122277857Y-52282833D01*
X121992143Y-52344738D01*
X121635000Y-52344738D01*
X121349286Y-52282833D01*
X121206429Y-52220928D01*
X121135000Y-52159024D01*
X121063571Y-52035214D01*
X124685000Y-54697119D02*
X124685000Y-54078071D01*
X125113571Y-54820928D02*
X123613571Y-54387595D01*
X125113571Y-53954262D01*
X123756429Y-53582833D02*
X123685000Y-53520928D01*
X123613571Y-53397119D01*
X123613571Y-53087595D01*
X123685000Y-52963785D01*
X123756429Y-52901881D01*
X123899286Y-52839976D01*
X124042143Y-52839976D01*
X124256429Y-52901881D01*
X125113571Y-53644738D01*
X125113571Y-52839976D01*
X125113571Y-51601881D02*
X125113571Y-52344738D01*
X125113571Y-51973309D02*
X123613571Y-51973309D01*
X123827857Y-52097119D01*
X123970714Y-52220928D01*
X124042143Y-52344738D01*
X127235000Y-54697119D02*
X127235000Y-54078071D01*
X127663571Y-54820928D02*
X126163571Y-54387595D01*
X127663571Y-53954262D01*
X126306429Y-53582833D02*
X126235000Y-53520928D01*
X126163571Y-53397119D01*
X126163571Y-53087595D01*
X126235000Y-52963785D01*
X126306429Y-52901881D01*
X126449286Y-52839976D01*
X126592143Y-52839976D01*
X126806429Y-52901881D01*
X127663571Y-53644738D01*
X127663571Y-52839976D01*
X126306429Y-52344738D02*
X126235000Y-52282833D01*
X126163571Y-52159024D01*
X126163571Y-51849500D01*
X126235000Y-51725690D01*
X126306429Y-51663786D01*
X126449286Y-51601881D01*
X126592143Y-51601881D01*
X126806429Y-51663786D01*
X127663571Y-52406643D01*
X127663571Y-51601881D01*
X129785000Y-54697119D02*
X129785000Y-54078071D01*
X130213571Y-54820928D02*
X128713571Y-54387595D01*
X130213571Y-53954262D01*
X128856429Y-53582833D02*
X128785000Y-53520928D01*
X128713571Y-53397119D01*
X128713571Y-53087595D01*
X128785000Y-52963785D01*
X128856429Y-52901881D01*
X128999286Y-52839976D01*
X129142143Y-52839976D01*
X129356429Y-52901881D01*
X130213571Y-53644738D01*
X130213571Y-52839976D01*
X128713571Y-52406643D02*
X128713571Y-51601881D01*
X129285000Y-52035214D01*
X129285000Y-51849500D01*
X129356429Y-51725690D01*
X129427857Y-51663786D01*
X129570714Y-51601881D01*
X129927857Y-51601881D01*
X130070714Y-51663786D01*
X130142143Y-51725690D01*
X130213571Y-51849500D01*
X130213571Y-52220928D01*
X130142143Y-52344738D01*
X130070714Y-52406643D01*
X132335000Y-54697119D02*
X132335000Y-54078071D01*
X132763571Y-54820928D02*
X131263571Y-54387595D01*
X132763571Y-53954262D01*
X131406429Y-53582833D02*
X131335000Y-53520928D01*
X131263571Y-53397119D01*
X131263571Y-53087595D01*
X131335000Y-52963785D01*
X131406429Y-52901881D01*
X131549286Y-52839976D01*
X131692143Y-52839976D01*
X131906429Y-52901881D01*
X132763571Y-53644738D01*
X132763571Y-52839976D01*
X131763571Y-51725690D02*
X132763571Y-51725690D01*
X131192143Y-52035214D02*
X132263571Y-52344738D01*
X132263571Y-51539976D01*
X134885000Y-54697119D02*
X134885000Y-54078071D01*
X135313571Y-54820928D02*
X133813571Y-54387595D01*
X135313571Y-53954262D01*
X133956429Y-53582833D02*
X133885000Y-53520928D01*
X133813571Y-53397119D01*
X133813571Y-53087595D01*
X133885000Y-52963785D01*
X133956429Y-52901881D01*
X134099286Y-52839976D01*
X134242143Y-52839976D01*
X134456429Y-52901881D01*
X135313571Y-53644738D01*
X135313571Y-52839976D01*
X133813571Y-51663786D02*
X133813571Y-52282833D01*
X134527857Y-52344738D01*
X134456429Y-52282833D01*
X134385000Y-52159024D01*
X134385000Y-51849500D01*
X134456429Y-51725690D01*
X134527857Y-51663786D01*
X134670714Y-51601881D01*
X135027857Y-51601881D01*
X135170714Y-51663786D01*
X135242143Y-51725690D01*
X135313571Y-51849500D01*
X135313571Y-52159024D01*
X135242143Y-52282833D01*
X135170714Y-52344738D01*
X137435000Y-54697119D02*
X137435000Y-54078071D01*
X137863571Y-54820928D02*
X136363571Y-54387595D01*
X137863571Y-53954262D01*
X136506429Y-53582833D02*
X136435000Y-53520928D01*
X136363571Y-53397119D01*
X136363571Y-53087595D01*
X136435000Y-52963785D01*
X136506429Y-52901881D01*
X136649286Y-52839976D01*
X136792143Y-52839976D01*
X137006429Y-52901881D01*
X137863571Y-53644738D01*
X137863571Y-52839976D01*
X136363571Y-51725690D02*
X136363571Y-51973309D01*
X136435000Y-52097119D01*
X136506429Y-52159024D01*
X136720714Y-52282833D01*
X137006429Y-52344738D01*
X137577857Y-52344738D01*
X137720714Y-52282833D01*
X137792143Y-52220928D01*
X137863571Y-52097119D01*
X137863571Y-51849500D01*
X137792143Y-51725690D01*
X137720714Y-51663786D01*
X137577857Y-51601881D01*
X137220714Y-51601881D01*
X137077857Y-51663786D01*
X137006429Y-51725690D01*
X136935000Y-51849500D01*
X136935000Y-52097119D01*
X137006429Y-52220928D01*
X137077857Y-52282833D01*
X137220714Y-52344738D01*
X139056429Y-54139976D02*
X138985000Y-54078071D01*
X138913571Y-53954262D01*
X138913571Y-53644738D01*
X138985000Y-53520928D01*
X139056429Y-53459024D01*
X139199286Y-53397119D01*
X139342143Y-53397119D01*
X139556429Y-53459024D01*
X140413571Y-54201881D01*
X140413571Y-53397119D01*
X139413571Y-52282833D02*
X140413571Y-52282833D01*
X138842143Y-52592357D02*
X139913571Y-52901881D01*
X139913571Y-52097119D01*
X141606429Y-54139976D02*
X141535000Y-54078071D01*
X141463571Y-53954262D01*
X141463571Y-53644738D01*
X141535000Y-53520928D01*
X141606429Y-53459024D01*
X141749286Y-53397119D01*
X141892143Y-53397119D01*
X142106429Y-53459024D01*
X142963571Y-54201881D01*
X142963571Y-53397119D01*
X141463571Y-52220929D02*
X141463571Y-52839976D01*
X142177857Y-52901881D01*
X142106429Y-52839976D01*
X142035000Y-52716167D01*
X142035000Y-52406643D01*
X142106429Y-52282833D01*
X142177857Y-52220929D01*
X142320714Y-52159024D01*
X142677857Y-52159024D01*
X142820714Y-52220929D01*
X142892143Y-52282833D01*
X142963571Y-52406643D01*
X142963571Y-52716167D01*
X142892143Y-52839976D01*
X142820714Y-52901881D01*
X144156429Y-54139976D02*
X144085000Y-54078071D01*
X144013571Y-53954262D01*
X144013571Y-53644738D01*
X144085000Y-53520928D01*
X144156429Y-53459024D01*
X144299286Y-53397119D01*
X144442143Y-53397119D01*
X144656429Y-53459024D01*
X145513571Y-54201881D01*
X145513571Y-53397119D01*
X144013571Y-52282833D02*
X144013571Y-52530452D01*
X144085000Y-52654262D01*
X144156429Y-52716167D01*
X144370714Y-52839976D01*
X144656429Y-52901881D01*
X145227857Y-52901881D01*
X145370714Y-52839976D01*
X145442143Y-52778071D01*
X145513571Y-52654262D01*
X145513571Y-52406643D01*
X145442143Y-52282833D01*
X145370714Y-52220929D01*
X145227857Y-52159024D01*
X144870714Y-52159024D01*
X144727857Y-52220929D01*
X144656429Y-52282833D01*
X144585000Y-52406643D01*
X144585000Y-52654262D01*
X144656429Y-52778071D01*
X144727857Y-52839976D01*
X144870714Y-52901881D01*
X146706429Y-54139976D02*
X146635000Y-54078071D01*
X146563571Y-53954262D01*
X146563571Y-53644738D01*
X146635000Y-53520928D01*
X146706429Y-53459024D01*
X146849286Y-53397119D01*
X146992143Y-53397119D01*
X147206429Y-53459024D01*
X148063571Y-54201881D01*
X148063571Y-53397119D01*
X146563571Y-52963786D02*
X146563571Y-52097119D01*
X148063571Y-52654262D01*
X149256429Y-54139976D02*
X149185000Y-54078071D01*
X149113571Y-53954262D01*
X149113571Y-53644738D01*
X149185000Y-53520928D01*
X149256429Y-53459024D01*
X149399286Y-53397119D01*
X149542143Y-53397119D01*
X149756429Y-53459024D01*
X150613571Y-54201881D01*
X150613571Y-53397119D01*
X149756429Y-52654262D02*
X149685000Y-52778071D01*
X149613571Y-52839976D01*
X149470714Y-52901881D01*
X149399286Y-52901881D01*
X149256429Y-52839976D01*
X149185000Y-52778071D01*
X149113571Y-52654262D01*
X149113571Y-52406643D01*
X149185000Y-52282833D01*
X149256429Y-52220929D01*
X149399286Y-52159024D01*
X149470714Y-52159024D01*
X149613571Y-52220929D01*
X149685000Y-52282833D01*
X149756429Y-52406643D01*
X149756429Y-52654262D01*
X149827857Y-52778071D01*
X149899286Y-52839976D01*
X150042143Y-52901881D01*
X150327857Y-52901881D01*
X150470714Y-52839976D01*
X150542143Y-52778071D01*
X150613571Y-52654262D01*
X150613571Y-52406643D01*
X150542143Y-52282833D01*
X150470714Y-52220929D01*
X150327857Y-52159024D01*
X150042143Y-52159024D01*
X149899286Y-52220929D01*
X149827857Y-52282833D01*
X149756429Y-52406643D01*
X151735000Y-54139976D02*
X151663571Y-54263785D01*
X151663571Y-54449500D01*
X151735000Y-54635214D01*
X151877857Y-54759023D01*
X152020714Y-54820928D01*
X152306429Y-54882833D01*
X152520714Y-54882833D01*
X152806429Y-54820928D01*
X152949286Y-54759023D01*
X153092143Y-54635214D01*
X153163571Y-54449500D01*
X153163571Y-54325690D01*
X153092143Y-54139976D01*
X153020714Y-54078071D01*
X152520714Y-54078071D01*
X152520714Y-54325690D01*
X153163571Y-53520928D02*
X151663571Y-53520928D01*
X153163571Y-52778071D01*
X151663571Y-52778071D01*
X153163571Y-52159023D02*
X151663571Y-52159023D01*
X151663571Y-51849499D01*
X151735000Y-51663785D01*
X151877857Y-51539976D01*
X152020714Y-51478071D01*
X152306429Y-51416166D01*
X152520714Y-51416166D01*
X152806429Y-51478071D01*
X152949286Y-51539976D01*
X153092143Y-51663785D01*
X153163571Y-51849499D01*
X153163571Y-52159023D01*
X159626286Y-108363571D02*
X160026286Y-109863571D01*
X160426286Y-108363571D01*
X160826285Y-109863571D02*
X160826285Y-108863571D01*
X160826285Y-108363571D02*
X160769142Y-108435000D01*
X160826285Y-108506429D01*
X160883428Y-108435000D01*
X160826285Y-108363571D01*
X160826285Y-108506429D01*
X161397714Y-108863571D02*
X161397714Y-109863571D01*
X161397714Y-109006429D02*
X161454857Y-108935000D01*
X161569143Y-108863571D01*
X161740571Y-108863571D01*
X161854857Y-108935000D01*
X161912000Y-109077857D01*
X161912000Y-109863571D01*
X160426286Y-110985000D02*
X160312000Y-110913571D01*
X160140571Y-110913571D01*
X159969143Y-110985000D01*
X159854857Y-111127857D01*
X159797714Y-111270714D01*
X159740571Y-111556429D01*
X159740571Y-111770714D01*
X159797714Y-112056429D01*
X159854857Y-112199286D01*
X159969143Y-112342143D01*
X160140571Y-112413571D01*
X160254857Y-112413571D01*
X160426286Y-112342143D01*
X160483429Y-112270714D01*
X160483429Y-111770714D01*
X160254857Y-111770714D01*
X160997714Y-112413571D02*
X160997714Y-110913571D01*
X161683429Y-112413571D01*
X161683429Y-110913571D01*
X162254857Y-112413571D02*
X162254857Y-110913571D01*
X162540572Y-110913571D01*
X162712000Y-110985000D01*
X162826286Y-111127857D01*
X162883429Y-111270714D01*
X162940572Y-111556429D01*
X162940572Y-111770714D01*
X162883429Y-112056429D01*
X162826286Y-112199286D01*
X162712000Y-112342143D01*
X162540572Y-112413571D01*
X162254857Y-112413571D01*
X160426286Y-113535000D02*
X160312000Y-113463571D01*
X160140571Y-113463571D01*
X159969143Y-113535000D01*
X159854857Y-113677857D01*
X159797714Y-113820714D01*
X159740571Y-114106429D01*
X159740571Y-114320714D01*
X159797714Y-114606429D01*
X159854857Y-114749286D01*
X159969143Y-114892143D01*
X160140571Y-114963571D01*
X160254857Y-114963571D01*
X160426286Y-114892143D01*
X160483429Y-114820714D01*
X160483429Y-114320714D01*
X160254857Y-114320714D01*
X160997714Y-114963571D02*
X160997714Y-113463571D01*
X161683429Y-114963571D01*
X161683429Y-113463571D01*
X162254857Y-114963571D02*
X162254857Y-113463571D01*
X162540572Y-113463571D01*
X162712000Y-113535000D01*
X162826286Y-113677857D01*
X162883429Y-113820714D01*
X162940572Y-114106429D01*
X162940572Y-114320714D01*
X162883429Y-114606429D01*
X162826286Y-114749286D01*
X162712000Y-114892143D01*
X162540572Y-114963571D01*
X162254857Y-114963571D01*
X160369143Y-116013571D02*
X159797714Y-116013571D01*
X159740571Y-116727857D01*
X159797714Y-116656429D01*
X159912000Y-116585000D01*
X160197714Y-116585000D01*
X160312000Y-116656429D01*
X160369143Y-116727857D01*
X160426286Y-116870714D01*
X160426286Y-117227857D01*
X160369143Y-117370714D01*
X160312000Y-117442143D01*
X160197714Y-117513571D01*
X159912000Y-117513571D01*
X159797714Y-117442143D01*
X159740571Y-117370714D01*
X160769143Y-116013571D02*
X161169143Y-117513571D01*
X161569143Y-116013571D01*
X159683429Y-118563571D02*
X160426286Y-118563571D01*
X160026286Y-119135000D01*
X160197714Y-119135000D01*
X160312000Y-119206429D01*
X160369143Y-119277857D01*
X160426286Y-119420714D01*
X160426286Y-119777857D01*
X160369143Y-119920714D01*
X160312000Y-119992143D01*
X160197714Y-120063571D01*
X159854857Y-120063571D01*
X159740571Y-119992143D01*
X159683429Y-119920714D01*
X160940571Y-119920714D02*
X160997714Y-119992143D01*
X160940571Y-120063571D01*
X160883428Y-119992143D01*
X160940571Y-119920714D01*
X160940571Y-120063571D01*
X161397715Y-118563571D02*
X162140572Y-118563571D01*
X161740572Y-119135000D01*
X161912000Y-119135000D01*
X162026286Y-119206429D01*
X162083429Y-119277857D01*
X162140572Y-119420714D01*
X162140572Y-119777857D01*
X162083429Y-119920714D01*
X162026286Y-119992143D01*
X161912000Y-120063571D01*
X161569143Y-120063571D01*
X161454857Y-119992143D01*
X161397715Y-119920714D01*
X162483429Y-118563571D02*
X162883429Y-120063571D01*
X163283429Y-118563571D01*
X160483429Y-122613571D02*
X160083429Y-121899286D01*
X159797714Y-122613571D02*
X159797714Y-121113571D01*
X160254857Y-121113571D01*
X160369143Y-121185000D01*
X160426286Y-121256429D01*
X160483429Y-121399286D01*
X160483429Y-121613571D01*
X160426286Y-121756429D01*
X160369143Y-121827857D01*
X160254857Y-121899286D01*
X159797714Y-121899286D01*
X160940571Y-122542143D02*
X161112000Y-122613571D01*
X161397714Y-122613571D01*
X161512000Y-122542143D01*
X161569143Y-122470714D01*
X161626286Y-122327857D01*
X161626286Y-122185000D01*
X161569143Y-122042143D01*
X161512000Y-121970714D01*
X161397714Y-121899286D01*
X161169143Y-121827857D01*
X161054857Y-121756429D01*
X160997714Y-121685000D01*
X160940571Y-121542143D01*
X160940571Y-121399286D01*
X160997714Y-121256429D01*
X161054857Y-121185000D01*
X161169143Y-121113571D01*
X161454857Y-121113571D01*
X161626286Y-121185000D01*
X161969143Y-121113571D02*
X162654857Y-121113571D01*
X162312000Y-122613571D02*
X162312000Y-121113571D01*
X159797714Y-125163571D02*
X159797714Y-123663571D01*
X160597715Y-123663571D02*
X160826286Y-123663571D01*
X160940572Y-123735000D01*
X161054858Y-123877857D01*
X161112000Y-124163571D01*
X161112000Y-124663571D01*
X161054858Y-124949286D01*
X160940572Y-125092143D01*
X160826286Y-125163571D01*
X160597715Y-125163571D01*
X160483429Y-125092143D01*
X160369143Y-124949286D01*
X160312000Y-124663571D01*
X160312000Y-124163571D01*
X160369143Y-123877857D01*
X160483429Y-123735000D01*
X160597715Y-123663571D01*
X162312001Y-125163571D02*
X161912001Y-124449286D01*
X161626286Y-125163571D02*
X161626286Y-123663571D01*
X162083429Y-123663571D01*
X162197715Y-123735000D01*
X162254858Y-123806429D01*
X162312001Y-123949286D01*
X162312001Y-124163571D01*
X162254858Y-124306429D01*
X162197715Y-124377857D01*
X162083429Y-124449286D01*
X161626286Y-124449286D01*
X162826286Y-124377857D02*
X163226286Y-124377857D01*
X163397715Y-125163571D02*
X162826286Y-125163571D01*
X162826286Y-123663571D01*
X163397715Y-123663571D01*
X164312000Y-124377857D02*
X163912000Y-124377857D01*
X163912000Y-125163571D02*
X163912000Y-123663571D01*
X164483429Y-123663571D01*
X159797714Y-127713571D02*
X159797714Y-126213571D01*
X160483429Y-127713571D01*
X160483429Y-126213571D01*
X161740572Y-127570714D02*
X161683429Y-127642143D01*
X161512000Y-127713571D01*
X161397714Y-127713571D01*
X161226286Y-127642143D01*
X161112000Y-127499286D01*
X161054857Y-127356429D01*
X160997714Y-127070714D01*
X160997714Y-126856429D01*
X161054857Y-126570714D01*
X161112000Y-126427857D01*
X161226286Y-126285000D01*
X161397714Y-126213571D01*
X161512000Y-126213571D01*
X161683429Y-126285000D01*
X161740572Y-126356429D01*
X160559714Y-86829000D02*
X161274000Y-86829000D01*
X160416857Y-87257571D02*
X160916857Y-85757571D01*
X161416857Y-87257571D01*
X161774000Y-85757571D02*
X162774000Y-85757571D01*
X162131143Y-87257571D01*
X160559714Y-89379000D02*
X161274000Y-89379000D01*
X160416857Y-89807571D02*
X160916857Y-88307571D01*
X161416857Y-89807571D01*
X162559714Y-88307571D02*
X162274000Y-88307571D01*
X162131143Y-88379000D01*
X162059714Y-88450429D01*
X161916857Y-88664714D01*
X161845428Y-88950429D01*
X161845428Y-89521857D01*
X161916857Y-89664714D01*
X161988285Y-89736143D01*
X162131143Y-89807571D01*
X162416857Y-89807571D01*
X162559714Y-89736143D01*
X162631143Y-89664714D01*
X162702571Y-89521857D01*
X162702571Y-89164714D01*
X162631143Y-89021857D01*
X162559714Y-88950429D01*
X162416857Y-88879000D01*
X162131143Y-88879000D01*
X161988285Y-88950429D01*
X161916857Y-89021857D01*
X161845428Y-89164714D01*
X160559714Y-91929000D02*
X161274000Y-91929000D01*
X160416857Y-92357571D02*
X160916857Y-90857571D01*
X161416857Y-92357571D01*
X162631143Y-90857571D02*
X161916857Y-90857571D01*
X161845428Y-91571857D01*
X161916857Y-91500429D01*
X162059714Y-91429000D01*
X162416857Y-91429000D01*
X162559714Y-91500429D01*
X162631143Y-91571857D01*
X162702571Y-91714714D01*
X162702571Y-92071857D01*
X162631143Y-92214714D01*
X162559714Y-92286143D01*
X162416857Y-92357571D01*
X162059714Y-92357571D01*
X161916857Y-92286143D01*
X161845428Y-92214714D01*
X160559714Y-94479000D02*
X161274000Y-94479000D01*
X160416857Y-94907571D02*
X160916857Y-93407571D01*
X161416857Y-94907571D01*
X162559714Y-93907571D02*
X162559714Y-94907571D01*
X162202571Y-93336143D02*
X161845428Y-94407571D01*
X162774000Y-94407571D01*
X160559714Y-97029000D02*
X161274000Y-97029000D01*
X160416857Y-97457571D02*
X160916857Y-95957571D01*
X161416857Y-97457571D01*
X161774000Y-95957571D02*
X162702571Y-95957571D01*
X162202571Y-96529000D01*
X162416857Y-96529000D01*
X162559714Y-96600429D01*
X162631143Y-96671857D01*
X162702571Y-96814714D01*
X162702571Y-97171857D01*
X162631143Y-97314714D01*
X162559714Y-97386143D01*
X162416857Y-97457571D01*
X161988285Y-97457571D01*
X161845428Y-97386143D01*
X161774000Y-97314714D01*
X160559714Y-99579000D02*
X161274000Y-99579000D01*
X160416857Y-100007571D02*
X160916857Y-98507571D01*
X161416857Y-100007571D01*
X161845428Y-98650429D02*
X161916857Y-98579000D01*
X162059714Y-98507571D01*
X162416857Y-98507571D01*
X162559714Y-98579000D01*
X162631143Y-98650429D01*
X162702571Y-98793286D01*
X162702571Y-98936143D01*
X162631143Y-99150429D01*
X161774000Y-100007571D01*
X162702571Y-100007571D01*
X160559714Y-102129000D02*
X161274000Y-102129000D01*
X160416857Y-102557571D02*
X160916857Y-101057571D01*
X161416857Y-102557571D01*
X162702571Y-102557571D02*
X161845428Y-102557571D01*
X162274000Y-102557571D02*
X162274000Y-101057571D01*
X162131143Y-101271857D01*
X161988285Y-101414714D01*
X161845428Y-101486143D01*
X160559714Y-104679000D02*
X161274000Y-104679000D01*
X160416857Y-105107571D02*
X160916857Y-103607571D01*
X161416857Y-105107571D01*
X162202571Y-103607571D02*
X162345428Y-103607571D01*
X162488285Y-103679000D01*
X162559714Y-103750429D01*
X162631143Y-103893286D01*
X162702571Y-104179000D01*
X162702571Y-104536143D01*
X162631143Y-104821857D01*
X162559714Y-104964714D01*
X162488285Y-105036143D01*
X162345428Y-105107571D01*
X162202571Y-105107571D01*
X162059714Y-105036143D01*
X161988285Y-104964714D01*
X161916857Y-104821857D01*
X161845428Y-104536143D01*
X161845428Y-104179000D01*
X161916857Y-103893286D01*
X161988285Y-103750429D01*
X162059714Y-103679000D01*
X162202571Y-103607571D01*
X160305714Y-62953000D02*
X161020000Y-62953000D01*
X160162857Y-63381571D02*
X160662857Y-61881571D01*
X161162857Y-63381571D01*
X162448571Y-63381571D02*
X161591428Y-63381571D01*
X162020000Y-63381571D02*
X162020000Y-61881571D01*
X161877143Y-62095857D01*
X161734285Y-62238714D01*
X161591428Y-62310143D01*
X163805714Y-61881571D02*
X163091428Y-61881571D01*
X163019999Y-62595857D01*
X163091428Y-62524429D01*
X163234285Y-62453000D01*
X163591428Y-62453000D01*
X163734285Y-62524429D01*
X163805714Y-62595857D01*
X163877142Y-62738714D01*
X163877142Y-63095857D01*
X163805714Y-63238714D01*
X163734285Y-63310143D01*
X163591428Y-63381571D01*
X163234285Y-63381571D01*
X163091428Y-63310143D01*
X163019999Y-63238714D01*
X160305714Y-65503000D02*
X161020000Y-65503000D01*
X160162857Y-65931571D02*
X160662857Y-64431571D01*
X161162857Y-65931571D01*
X162448571Y-65931571D02*
X161591428Y-65931571D01*
X162020000Y-65931571D02*
X162020000Y-64431571D01*
X161877143Y-64645857D01*
X161734285Y-64788714D01*
X161591428Y-64860143D01*
X163734285Y-64931571D02*
X163734285Y-65931571D01*
X163377142Y-64360143D02*
X163019999Y-65431571D01*
X163948571Y-65431571D01*
X160305714Y-68053000D02*
X161020000Y-68053000D01*
X160162857Y-68481571D02*
X160662857Y-66981571D01*
X161162857Y-68481571D01*
X162448571Y-68481571D02*
X161591428Y-68481571D01*
X162020000Y-68481571D02*
X162020000Y-66981571D01*
X161877143Y-67195857D01*
X161734285Y-67338714D01*
X161591428Y-67410143D01*
X162948571Y-66981571D02*
X163877142Y-66981571D01*
X163377142Y-67553000D01*
X163591428Y-67553000D01*
X163734285Y-67624429D01*
X163805714Y-67695857D01*
X163877142Y-67838714D01*
X163877142Y-68195857D01*
X163805714Y-68338714D01*
X163734285Y-68410143D01*
X163591428Y-68481571D01*
X163162856Y-68481571D01*
X163019999Y-68410143D01*
X162948571Y-68338714D01*
X160305714Y-70603000D02*
X161020000Y-70603000D01*
X160162857Y-71031571D02*
X160662857Y-69531571D01*
X161162857Y-71031571D01*
X162448571Y-71031571D02*
X161591428Y-71031571D01*
X162020000Y-71031571D02*
X162020000Y-69531571D01*
X161877143Y-69745857D01*
X161734285Y-69888714D01*
X161591428Y-69960143D01*
X163019999Y-69674429D02*
X163091428Y-69603000D01*
X163234285Y-69531571D01*
X163591428Y-69531571D01*
X163734285Y-69603000D01*
X163805714Y-69674429D01*
X163877142Y-69817286D01*
X163877142Y-69960143D01*
X163805714Y-70174429D01*
X162948571Y-71031571D01*
X163877142Y-71031571D01*
X160305714Y-73153000D02*
X161020000Y-73153000D01*
X160162857Y-73581571D02*
X160662857Y-72081571D01*
X161162857Y-73581571D01*
X162448571Y-73581571D02*
X161591428Y-73581571D01*
X162020000Y-73581571D02*
X162020000Y-72081571D01*
X161877143Y-72295857D01*
X161734285Y-72438714D01*
X161591428Y-72510143D01*
X163877142Y-73581571D02*
X163019999Y-73581571D01*
X163448571Y-73581571D02*
X163448571Y-72081571D01*
X163305714Y-72295857D01*
X163162856Y-72438714D01*
X163019999Y-72510143D01*
X160305714Y-75703000D02*
X161020000Y-75703000D01*
X160162857Y-76131571D02*
X160662857Y-74631571D01*
X161162857Y-76131571D01*
X162448571Y-76131571D02*
X161591428Y-76131571D01*
X162020000Y-76131571D02*
X162020000Y-74631571D01*
X161877143Y-74845857D01*
X161734285Y-74988714D01*
X161591428Y-75060143D01*
X163377142Y-74631571D02*
X163519999Y-74631571D01*
X163662856Y-74703000D01*
X163734285Y-74774429D01*
X163805714Y-74917286D01*
X163877142Y-75203000D01*
X163877142Y-75560143D01*
X163805714Y-75845857D01*
X163734285Y-75988714D01*
X163662856Y-76060143D01*
X163519999Y-76131571D01*
X163377142Y-76131571D01*
X163234285Y-76060143D01*
X163162856Y-75988714D01*
X163091428Y-75845857D01*
X163019999Y-75560143D01*
X163019999Y-75203000D01*
X163091428Y-74917286D01*
X163162856Y-74774429D01*
X163234285Y-74703000D01*
X163377142Y-74631571D01*
X160305714Y-78253000D02*
X161020000Y-78253000D01*
X160162857Y-78681571D02*
X160662857Y-77181571D01*
X161162857Y-78681571D01*
X161734285Y-78681571D02*
X162020000Y-78681571D01*
X162162857Y-78610143D01*
X162234285Y-78538714D01*
X162377143Y-78324429D01*
X162448571Y-78038714D01*
X162448571Y-77467286D01*
X162377143Y-77324429D01*
X162305714Y-77253000D01*
X162162857Y-77181571D01*
X161877143Y-77181571D01*
X161734285Y-77253000D01*
X161662857Y-77324429D01*
X161591428Y-77467286D01*
X161591428Y-77824429D01*
X161662857Y-77967286D01*
X161734285Y-78038714D01*
X161877143Y-78110143D01*
X162162857Y-78110143D01*
X162305714Y-78038714D01*
X162377143Y-77967286D01*
X162448571Y-77824429D01*
X160305714Y-80803000D02*
X161020000Y-80803000D01*
X160162857Y-81231571D02*
X160662857Y-79731571D01*
X161162857Y-81231571D01*
X161877143Y-80374429D02*
X161734285Y-80303000D01*
X161662857Y-80231571D01*
X161591428Y-80088714D01*
X161591428Y-80017286D01*
X161662857Y-79874429D01*
X161734285Y-79803000D01*
X161877143Y-79731571D01*
X162162857Y-79731571D01*
X162305714Y-79803000D01*
X162377143Y-79874429D01*
X162448571Y-80017286D01*
X162448571Y-80088714D01*
X162377143Y-80231571D01*
X162305714Y-80303000D01*
X162162857Y-80374429D01*
X161877143Y-80374429D01*
X161734285Y-80445857D01*
X161662857Y-80517286D01*
X161591428Y-80660143D01*
X161591428Y-80945857D01*
X161662857Y-81088714D01*
X161734285Y-81160143D01*
X161877143Y-81231571D01*
X162162857Y-81231571D01*
X162305714Y-81160143D01*
X162377143Y-81088714D01*
X162448571Y-80945857D01*
X162448571Y-80660143D01*
X162377143Y-80517286D01*
X162305714Y-80445857D01*
X162162857Y-80374429D01*
X101047620Y-92083571D02*
X100614287Y-91369286D01*
X100304763Y-92083571D02*
X100304763Y-90583571D01*
X100800001Y-90583571D01*
X100923810Y-90655000D01*
X100985715Y-90726429D01*
X101047620Y-90869286D01*
X101047620Y-91083571D01*
X100985715Y-91226429D01*
X100923810Y-91297857D01*
X100800001Y-91369286D01*
X100304763Y-91369286D01*
X101480953Y-90583571D02*
X102347620Y-92083571D01*
X102347620Y-90583571D02*
X101480953Y-92083571D01*
X103523810Y-92083571D02*
X102780953Y-92083571D01*
X103152382Y-92083571D02*
X103152382Y-90583571D01*
X103028572Y-90797857D01*
X102904763Y-90940714D01*
X102780953Y-91012143D01*
X105319048Y-90583571D02*
X105442857Y-90583571D01*
X105566667Y-90655000D01*
X105628572Y-90726429D01*
X105690476Y-90869286D01*
X105752381Y-91155000D01*
X105752381Y-91512143D01*
X105690476Y-91797857D01*
X105628572Y-91940714D01*
X105566667Y-92012143D01*
X105442857Y-92083571D01*
X105319048Y-92083571D01*
X105195238Y-92012143D01*
X105133334Y-91940714D01*
X105071429Y-91797857D01*
X105009524Y-91512143D01*
X105009524Y-91155000D01*
X105071429Y-90869286D01*
X105133334Y-90726429D01*
X105195238Y-90655000D01*
X105319048Y-90583571D01*
X100428573Y-93133571D02*
X101171430Y-93133571D01*
X100800001Y-94633571D02*
X100800001Y-93133571D01*
X101480953Y-93133571D02*
X102347620Y-94633571D01*
X102347620Y-93133571D02*
X101480953Y-94633571D01*
X103523810Y-94633571D02*
X102780953Y-94633571D01*
X103152382Y-94633571D02*
X103152382Y-93133571D01*
X103028572Y-93347857D01*
X102904763Y-93490714D01*
X102780953Y-93562143D01*
X105752381Y-94633571D02*
X105009524Y-94633571D01*
X105380953Y-94633571D02*
X105380953Y-93133571D01*
X105257143Y-93347857D01*
X105133334Y-93490714D01*
X105009524Y-93562143D01*
X105009524Y-95826429D02*
X105071429Y-95755000D01*
X105195238Y-95683571D01*
X105504762Y-95683571D01*
X105628572Y-95755000D01*
X105690476Y-95826429D01*
X105752381Y-95969286D01*
X105752381Y-96112143D01*
X105690476Y-96326429D01*
X104947619Y-97183571D01*
X105752381Y-97183571D01*
X99438095Y-99590714D02*
X99376190Y-99662143D01*
X99190476Y-99733571D01*
X99066666Y-99733571D01*
X98880952Y-99662143D01*
X98757143Y-99519286D01*
X98695238Y-99376429D01*
X98633333Y-99090714D01*
X98633333Y-98876429D01*
X98695238Y-98590714D01*
X98757143Y-98447857D01*
X98880952Y-98305000D01*
X99066666Y-98233571D01*
X99190476Y-98233571D01*
X99376190Y-98305000D01*
X99438095Y-98376429D01*
X99933333Y-99305000D02*
X100552381Y-99305000D01*
X99809524Y-99733571D02*
X100242857Y-98233571D01*
X100676190Y-99733571D01*
X101109524Y-99733571D02*
X101109524Y-98233571D01*
X101852381Y-99733571D01*
X101852381Y-98233571D01*
X102471429Y-99162143D02*
X103461905Y-99162143D01*
X103895239Y-98233571D02*
X104638096Y-98233571D01*
X104266667Y-99733571D02*
X104266667Y-98233571D01*
X104947619Y-98233571D02*
X105814286Y-99733571D01*
X105814286Y-98233571D02*
X104947619Y-99733571D01*
X99128571Y-102140714D02*
X99066666Y-102212143D01*
X98880952Y-102283571D01*
X98757142Y-102283571D01*
X98571428Y-102212143D01*
X98447619Y-102069286D01*
X98385714Y-101926429D01*
X98323809Y-101640714D01*
X98323809Y-101426429D01*
X98385714Y-101140714D01*
X98447619Y-100997857D01*
X98571428Y-100855000D01*
X98757142Y-100783571D01*
X98880952Y-100783571D01*
X99066666Y-100855000D01*
X99128571Y-100926429D01*
X99623809Y-101855000D02*
X100242857Y-101855000D01*
X99500000Y-102283571D02*
X99933333Y-100783571D01*
X100366666Y-102283571D01*
X100800000Y-102283571D02*
X100800000Y-100783571D01*
X101542857Y-102283571D01*
X101542857Y-100783571D01*
X102161905Y-101712143D02*
X103152381Y-101712143D01*
X104514286Y-102283571D02*
X104080953Y-101569286D01*
X103771429Y-102283571D02*
X103771429Y-100783571D01*
X104266667Y-100783571D01*
X104390476Y-100855000D01*
X104452381Y-100926429D01*
X104514286Y-101069286D01*
X104514286Y-101283571D01*
X104452381Y-101426429D01*
X104390476Y-101497857D01*
X104266667Y-101569286D01*
X103771429Y-101569286D01*
X104947619Y-100783571D02*
X105814286Y-102283571D01*
X105814286Y-100783571D02*
X104947619Y-102283571D01*
X105690476Y-103333571D02*
X105071429Y-103333571D01*
X105009524Y-104047857D01*
X105071429Y-103976429D01*
X105195238Y-103905000D01*
X105504762Y-103905000D01*
X105628572Y-103976429D01*
X105690476Y-104047857D01*
X105752381Y-104190714D01*
X105752381Y-104547857D01*
X105690476Y-104690714D01*
X105628572Y-104762143D01*
X105504762Y-104833571D01*
X105195238Y-104833571D01*
X105071429Y-104762143D01*
X105009524Y-104690714D01*
X105628572Y-105883571D02*
X105380953Y-105883571D01*
X105257143Y-105955000D01*
X105195238Y-106026429D01*
X105071429Y-106240714D01*
X105009524Y-106526429D01*
X105009524Y-107097857D01*
X105071429Y-107240714D01*
X105133334Y-107312143D01*
X105257143Y-107383571D01*
X105504762Y-107383571D01*
X105628572Y-107312143D01*
X105690476Y-107240714D01*
X105752381Y-107097857D01*
X105752381Y-106740714D01*
X105690476Y-106597857D01*
X105628572Y-106526429D01*
X105504762Y-106455000D01*
X105257143Y-106455000D01*
X105133334Y-106526429D01*
X105071429Y-106597857D01*
X105009524Y-106740714D01*
X101047620Y-109933571D02*
X100614287Y-109219286D01*
X100304763Y-109933571D02*
X100304763Y-108433571D01*
X100800001Y-108433571D01*
X100923810Y-108505000D01*
X100985715Y-108576429D01*
X101047620Y-108719286D01*
X101047620Y-108933571D01*
X100985715Y-109076429D01*
X100923810Y-109147857D01*
X100800001Y-109219286D01*
X100304763Y-109219286D01*
X101480953Y-108433571D02*
X102347620Y-109933571D01*
X102347620Y-108433571D02*
X101480953Y-109933571D01*
X102719048Y-108433571D02*
X103523810Y-108433571D01*
X103090477Y-109005000D01*
X103276191Y-109005000D01*
X103400001Y-109076429D01*
X103461905Y-109147857D01*
X103523810Y-109290714D01*
X103523810Y-109647857D01*
X103461905Y-109790714D01*
X103400001Y-109862143D01*
X103276191Y-109933571D01*
X102904763Y-109933571D01*
X102780953Y-109862143D01*
X102719048Y-109790714D01*
X104947619Y-108433571D02*
X105814286Y-108433571D01*
X105257143Y-109933571D01*
X111426858Y-117796571D02*
X112284001Y-117796571D01*
X111855430Y-119296571D02*
X111855430Y-117796571D01*
X112641144Y-117796571D02*
X113641144Y-119296571D01*
X113641144Y-117796571D02*
X112641144Y-119296571D01*
X114141143Y-117939429D02*
X114212572Y-117868000D01*
X114355429Y-117796571D01*
X114712572Y-117796571D01*
X114855429Y-117868000D01*
X114926858Y-117939429D01*
X114998286Y-118082286D01*
X114998286Y-118225143D01*
X114926858Y-118439429D01*
X114069715Y-119296571D01*
X114998286Y-119296571D01*
X103057744Y-112703571D02*
X103800601Y-112703571D01*
X103429172Y-114203571D02*
X103429172Y-112703571D01*
X104110124Y-112703571D02*
X104976791Y-114203571D01*
X104976791Y-112703571D02*
X104110124Y-114203571D01*
X105348219Y-112703571D02*
X106152981Y-112703571D01*
X105719648Y-113275000D01*
X105905362Y-113275000D01*
X106029172Y-113346429D01*
X106091076Y-113417857D01*
X106152981Y-113560714D01*
X106152981Y-113917857D01*
X106091076Y-114060714D01*
X106029172Y-114132143D01*
X105905362Y-114203571D01*
X105533934Y-114203571D01*
X105410124Y-114132143D01*
X105348219Y-114060714D01*
X100457744Y-116753571D02*
X100024411Y-116039286D01*
X99714887Y-116753571D02*
X99714887Y-115253571D01*
X100210125Y-115253571D01*
X100333934Y-115325000D01*
X100395839Y-115396429D01*
X100457744Y-115539286D01*
X100457744Y-115753571D01*
X100395839Y-115896429D01*
X100333934Y-115967857D01*
X100210125Y-116039286D01*
X99714887Y-116039286D01*
X100891077Y-115253571D02*
X101757744Y-116753571D01*
X101757744Y-115253571D02*
X100891077Y-116753571D01*
X102191077Y-115396429D02*
X102252982Y-115325000D01*
X102376791Y-115253571D01*
X102686315Y-115253571D01*
X102810125Y-115325000D01*
X102872029Y-115396429D01*
X102933934Y-115539286D01*
X102933934Y-115682143D01*
X102872029Y-115896429D01*
X102129172Y-116753571D01*
X102933934Y-116753571D01*
X105533934Y-116753571D02*
X105781553Y-116753571D01*
X105905362Y-116682143D01*
X105967267Y-116610714D01*
X106091076Y-116396429D01*
X106152981Y-116110714D01*
X106152981Y-115539286D01*
X106091076Y-115396429D01*
X106029172Y-115325000D01*
X105905362Y-115253571D01*
X105657743Y-115253571D01*
X105533934Y-115325000D01*
X105472029Y-115396429D01*
X105410124Y-115539286D01*
X105410124Y-115896429D01*
X105472029Y-116039286D01*
X105533934Y-116110714D01*
X105657743Y-116182143D01*
X105905362Y-116182143D01*
X106029172Y-116110714D01*
X106091076Y-116039286D01*
X106152981Y-115896429D01*
X101448220Y-119160714D02*
X101386315Y-119232143D01*
X101200601Y-119303571D01*
X101076791Y-119303571D01*
X100891077Y-119232143D01*
X100767268Y-119089286D01*
X100705363Y-118946429D01*
X100643458Y-118660714D01*
X100643458Y-118446429D01*
X100705363Y-118160714D01*
X100767268Y-118017857D01*
X100891077Y-117875000D01*
X101076791Y-117803571D01*
X101200601Y-117803571D01*
X101386315Y-117875000D01*
X101448220Y-117946429D01*
X101943458Y-119232143D02*
X102129172Y-119303571D01*
X102438696Y-119303571D01*
X102562506Y-119232143D01*
X102624410Y-119160714D01*
X102686315Y-119017857D01*
X102686315Y-118875000D01*
X102624410Y-118732143D01*
X102562506Y-118660714D01*
X102438696Y-118589286D01*
X102191077Y-118517857D01*
X102067268Y-118446429D01*
X102005363Y-118375000D01*
X101943458Y-118232143D01*
X101943458Y-118089286D01*
X102005363Y-117946429D01*
X102067268Y-117875000D01*
X102191077Y-117803571D01*
X102500601Y-117803571D01*
X102686315Y-117875000D01*
X104914886Y-119303571D02*
X104172029Y-119303571D01*
X104543458Y-119303571D02*
X104543458Y-117803571D01*
X104419648Y-118017857D01*
X104295839Y-118160714D01*
X104172029Y-118232143D01*
X105719648Y-117803571D02*
X105843457Y-117803571D01*
X105967267Y-117875000D01*
X106029172Y-117946429D01*
X106091076Y-118089286D01*
X106152981Y-118375000D01*
X106152981Y-118732143D01*
X106091076Y-119017857D01*
X106029172Y-119160714D01*
X105967267Y-119232143D01*
X105843457Y-119303571D01*
X105719648Y-119303571D01*
X105595838Y-119232143D01*
X105533934Y-119160714D01*
X105472029Y-119017857D01*
X105410124Y-118732143D01*
X105410124Y-118375000D01*
X105472029Y-118089286D01*
X105533934Y-117946429D01*
X105595838Y-117875000D01*
X105719648Y-117803571D01*
X98538696Y-121853571D02*
X98538696Y-120353571D01*
X98972029Y-121425000D01*
X99405362Y-120353571D01*
X99405362Y-121853571D01*
X100272029Y-120353571D02*
X100519648Y-120353571D01*
X100643457Y-120425000D01*
X100767267Y-120567857D01*
X100829172Y-120853571D01*
X100829172Y-121353571D01*
X100767267Y-121639286D01*
X100643457Y-121782143D01*
X100519648Y-121853571D01*
X100272029Y-121853571D01*
X100148219Y-121782143D01*
X100024410Y-121639286D01*
X99962505Y-121353571D01*
X99962505Y-120853571D01*
X100024410Y-120567857D01*
X100148219Y-120425000D01*
X100272029Y-120353571D01*
X101324410Y-121782143D02*
X101510124Y-121853571D01*
X101819648Y-121853571D01*
X101943458Y-121782143D01*
X102005362Y-121710714D01*
X102067267Y-121567857D01*
X102067267Y-121425000D01*
X102005362Y-121282143D01*
X101943458Y-121210714D01*
X101819648Y-121139286D01*
X101572029Y-121067857D01*
X101448220Y-120996429D01*
X101386315Y-120925000D01*
X101324410Y-120782143D01*
X101324410Y-120639286D01*
X101386315Y-120496429D01*
X101448220Y-120425000D01*
X101572029Y-120353571D01*
X101881553Y-120353571D01*
X102067267Y-120425000D01*
X102624410Y-121853571D02*
X102624410Y-120353571D01*
X104914886Y-121853571D02*
X104172029Y-121853571D01*
X104543458Y-121853571D02*
X104543458Y-120353571D01*
X104419648Y-120567857D01*
X104295839Y-120710714D01*
X104172029Y-120782143D01*
X106152981Y-121853571D02*
X105410124Y-121853571D01*
X105781553Y-121853571D02*
X105781553Y-120353571D01*
X105657743Y-120567857D01*
X105533934Y-120710714D01*
X105410124Y-120782143D01*
X98538696Y-124403571D02*
X98538696Y-122903571D01*
X98972029Y-123975000D01*
X99405362Y-122903571D01*
X99405362Y-124403571D01*
X100024410Y-124403571D02*
X100024410Y-122903571D01*
X100581553Y-124332143D02*
X100767267Y-124403571D01*
X101076791Y-124403571D01*
X101200601Y-124332143D01*
X101262505Y-124260714D01*
X101324410Y-124117857D01*
X101324410Y-123975000D01*
X101262505Y-123832143D01*
X101200601Y-123760714D01*
X101076791Y-123689286D01*
X100829172Y-123617857D01*
X100705363Y-123546429D01*
X100643458Y-123475000D01*
X100581553Y-123332143D01*
X100581553Y-123189286D01*
X100643458Y-123046429D01*
X100705363Y-122975000D01*
X100829172Y-122903571D01*
X101138696Y-122903571D01*
X101324410Y-122975000D01*
X102129172Y-122903571D02*
X102376791Y-122903571D01*
X102500600Y-122975000D01*
X102624410Y-123117857D01*
X102686315Y-123403571D01*
X102686315Y-123903571D01*
X102624410Y-124189286D01*
X102500600Y-124332143D01*
X102376791Y-124403571D01*
X102129172Y-124403571D01*
X102005362Y-124332143D01*
X101881553Y-124189286D01*
X101819648Y-123903571D01*
X101819648Y-123403571D01*
X101881553Y-123117857D01*
X102005362Y-122975000D01*
X102129172Y-122903571D01*
X104914886Y-124403571D02*
X104172029Y-124403571D01*
X104543458Y-124403571D02*
X104543458Y-122903571D01*
X104419648Y-123117857D01*
X104295839Y-123260714D01*
X104172029Y-123332143D01*
X105410124Y-123046429D02*
X105472029Y-122975000D01*
X105595838Y-122903571D01*
X105905362Y-122903571D01*
X106029172Y-122975000D01*
X106091076Y-123046429D01*
X106152981Y-123189286D01*
X106152981Y-123332143D01*
X106091076Y-123546429D01*
X105348219Y-124403571D01*
X106152981Y-124403571D01*
X99343458Y-126882143D02*
X99529172Y-126953571D01*
X99838696Y-126953571D01*
X99962506Y-126882143D01*
X100024410Y-126810714D01*
X100086315Y-126667857D01*
X100086315Y-126525000D01*
X100024410Y-126382143D01*
X99962506Y-126310714D01*
X99838696Y-126239286D01*
X99591077Y-126167857D01*
X99467268Y-126096429D01*
X99405363Y-126025000D01*
X99343458Y-125882143D01*
X99343458Y-125739286D01*
X99405363Y-125596429D01*
X99467268Y-125525000D01*
X99591077Y-125453571D01*
X99900601Y-125453571D01*
X100086315Y-125525000D01*
X101386315Y-126810714D02*
X101324410Y-126882143D01*
X101138696Y-126953571D01*
X101014886Y-126953571D01*
X100829172Y-126882143D01*
X100705363Y-126739286D01*
X100643458Y-126596429D01*
X100581553Y-126310714D01*
X100581553Y-126096429D01*
X100643458Y-125810714D01*
X100705363Y-125667857D01*
X100829172Y-125525000D01*
X101014886Y-125453571D01*
X101138696Y-125453571D01*
X101324410Y-125525000D01*
X101386315Y-125596429D01*
X101943458Y-126953571D02*
X101943458Y-125453571D01*
X102686315Y-126953571D02*
X102129172Y-126096429D01*
X102686315Y-125453571D02*
X101943458Y-126310714D01*
X104914886Y-126953571D02*
X104172029Y-126953571D01*
X104543458Y-126953571D02*
X104543458Y-125453571D01*
X104419648Y-125667857D01*
X104295839Y-125810714D01*
X104172029Y-125882143D01*
X105348219Y-125453571D02*
X106152981Y-125453571D01*
X105719648Y-126025000D01*
X105905362Y-126025000D01*
X106029172Y-126096429D01*
X106091076Y-126167857D01*
X106152981Y-126310714D01*
X106152981Y-126667857D01*
X106091076Y-126810714D01*
X106029172Y-126882143D01*
X105905362Y-126953571D01*
X105533934Y-126953571D01*
X105410124Y-126882143D01*
X105348219Y-126810714D01*
X103429171Y-128075000D02*
X103305362Y-128003571D01*
X103119647Y-128003571D01*
X102933933Y-128075000D01*
X102810124Y-128217857D01*
X102748219Y-128360714D01*
X102686314Y-128646429D01*
X102686314Y-128860714D01*
X102748219Y-129146429D01*
X102810124Y-129289286D01*
X102933933Y-129432143D01*
X103119647Y-129503571D01*
X103243457Y-129503571D01*
X103429171Y-129432143D01*
X103491076Y-129360714D01*
X103491076Y-128860714D01*
X103243457Y-128860714D01*
X104048219Y-129503571D02*
X104048219Y-128003571D01*
X104791076Y-129503571D01*
X104791076Y-128003571D01*
X105410124Y-129503571D02*
X105410124Y-128003571D01*
X105719648Y-128003571D01*
X105905362Y-128075000D01*
X106029171Y-128217857D01*
X106091076Y-128360714D01*
X106152981Y-128646429D01*
X106152981Y-128860714D01*
X106091076Y-129146429D01*
X106029171Y-129289286D01*
X105905362Y-129432143D01*
X105719648Y-129503571D01*
X105410124Y-129503571D01*
X101943457Y-131625000D02*
X102562505Y-131625000D01*
X101819648Y-132053571D02*
X102252981Y-130553571D01*
X102686314Y-132053571D01*
X103862505Y-132053571D02*
X103429172Y-131339286D01*
X103119648Y-132053571D02*
X103119648Y-130553571D01*
X103614886Y-130553571D01*
X103738695Y-130625000D01*
X103800600Y-130696429D01*
X103862505Y-130839286D01*
X103862505Y-131053571D01*
X103800600Y-131196429D01*
X103738695Y-131267857D01*
X103614886Y-131339286D01*
X103119648Y-131339286D01*
X104419648Y-131267857D02*
X104852981Y-131267857D01*
X105038695Y-132053571D02*
X104419648Y-132053571D01*
X104419648Y-130553571D01*
X105038695Y-130553571D01*
X106029171Y-131267857D02*
X105595838Y-131267857D01*
X105595838Y-132053571D02*
X105595838Y-130553571D01*
X106214885Y-130553571D01*
X102995838Y-134532143D02*
X103181552Y-134603571D01*
X103491076Y-134603571D01*
X103614886Y-134532143D01*
X103676790Y-134460714D01*
X103738695Y-134317857D01*
X103738695Y-134175000D01*
X103676790Y-134032143D01*
X103614886Y-133960714D01*
X103491076Y-133889286D01*
X103243457Y-133817857D01*
X103119648Y-133746429D01*
X103057743Y-133675000D01*
X102995838Y-133532143D01*
X102995838Y-133389286D01*
X103057743Y-133246429D01*
X103119648Y-133175000D01*
X103243457Y-133103571D01*
X103552981Y-133103571D01*
X103738695Y-133175000D01*
X104295838Y-134603571D02*
X104295838Y-133103571D01*
X104605362Y-133103571D01*
X104791076Y-133175000D01*
X104914885Y-133317857D01*
X104976790Y-133460714D01*
X105038695Y-133746429D01*
X105038695Y-133960714D01*
X104976790Y-134246429D01*
X104914885Y-134389286D01*
X104791076Y-134532143D01*
X104605362Y-134603571D01*
X104295838Y-134603571D01*
X105533933Y-134175000D02*
X106152981Y-134175000D01*
X105410124Y-134603571D02*
X105843457Y-133103571D01*
X106276790Y-134603571D01*
X103057743Y-137082143D02*
X103243457Y-137153571D01*
X103552981Y-137153571D01*
X103676791Y-137082143D01*
X103738695Y-137010714D01*
X103800600Y-136867857D01*
X103800600Y-136725000D01*
X103738695Y-136582143D01*
X103676791Y-136510714D01*
X103552981Y-136439286D01*
X103305362Y-136367857D01*
X103181553Y-136296429D01*
X103119648Y-136225000D01*
X103057743Y-136082143D01*
X103057743Y-135939286D01*
X103119648Y-135796429D01*
X103181553Y-135725000D01*
X103305362Y-135653571D01*
X103614886Y-135653571D01*
X103800600Y-135725000D01*
X105100600Y-137010714D02*
X105038695Y-137082143D01*
X104852981Y-137153571D01*
X104729171Y-137153571D01*
X104543457Y-137082143D01*
X104419648Y-136939286D01*
X104357743Y-136796429D01*
X104295838Y-136510714D01*
X104295838Y-136296429D01*
X104357743Y-136010714D01*
X104419648Y-135867857D01*
X104543457Y-135725000D01*
X104729171Y-135653571D01*
X104852981Y-135653571D01*
X105038695Y-135725000D01*
X105100600Y-135796429D01*
X106276790Y-137153571D02*
X105657743Y-137153571D01*
X105657743Y-135653571D01*
X101592286Y-69406143D02*
X101806572Y-69477571D01*
X102163715Y-69477571D01*
X102306572Y-69406143D01*
X102378001Y-69334714D01*
X102449429Y-69191857D01*
X102449429Y-69049000D01*
X102378001Y-68906143D01*
X102306572Y-68834714D01*
X102163715Y-68763286D01*
X101878001Y-68691857D01*
X101735143Y-68620429D01*
X101663715Y-68549000D01*
X101592286Y-68406143D01*
X101592286Y-68263286D01*
X101663715Y-68120429D01*
X101735143Y-68049000D01*
X101878001Y-67977571D01*
X102235143Y-67977571D01*
X102449429Y-68049000D01*
X103949429Y-69334714D02*
X103878000Y-69406143D01*
X103663714Y-69477571D01*
X103520857Y-69477571D01*
X103306572Y-69406143D01*
X103163714Y-69263286D01*
X103092286Y-69120429D01*
X103020857Y-68834714D01*
X103020857Y-68620429D01*
X103092286Y-68334714D01*
X103163714Y-68191857D01*
X103306572Y-68049000D01*
X103520857Y-67977571D01*
X103663714Y-67977571D01*
X103878000Y-68049000D01*
X103949429Y-68120429D01*
X105306572Y-69477571D02*
X104592286Y-69477571D01*
X104592286Y-67977571D01*
X101556572Y-71956143D02*
X101770858Y-72027571D01*
X102128001Y-72027571D01*
X102270858Y-71956143D01*
X102342287Y-71884714D01*
X102413715Y-71741857D01*
X102413715Y-71599000D01*
X102342287Y-71456143D01*
X102270858Y-71384714D01*
X102128001Y-71313286D01*
X101842287Y-71241857D01*
X101699429Y-71170429D01*
X101628001Y-71099000D01*
X101556572Y-70956143D01*
X101556572Y-70813286D01*
X101628001Y-70670429D01*
X101699429Y-70599000D01*
X101842287Y-70527571D01*
X102199429Y-70527571D01*
X102413715Y-70599000D01*
X103056572Y-72027571D02*
X103056572Y-70527571D01*
X103413715Y-70527571D01*
X103628000Y-70599000D01*
X103770858Y-70741857D01*
X103842286Y-70884714D01*
X103913715Y-71170429D01*
X103913715Y-71384714D01*
X103842286Y-71670429D01*
X103770858Y-71813286D01*
X103628000Y-71956143D01*
X103413715Y-72027571D01*
X103056572Y-72027571D01*
X104485143Y-71599000D02*
X105199429Y-71599000D01*
X104342286Y-72027571D02*
X104842286Y-70527571D01*
X105342286Y-72027571D01*
X102413715Y-74577571D02*
X101913715Y-73863286D01*
X101556572Y-74577571D02*
X101556572Y-73077571D01*
X102128000Y-73077571D01*
X102270858Y-73149000D01*
X102342286Y-73220429D01*
X102413715Y-73363286D01*
X102413715Y-73577571D01*
X102342286Y-73720429D01*
X102270858Y-73791857D01*
X102128000Y-73863286D01*
X101556572Y-73863286D01*
X102913715Y-73077571D02*
X103913715Y-74577571D01*
X103913715Y-73077571D02*
X102913715Y-74577571D01*
X105128000Y-73577571D02*
X105128000Y-74577571D01*
X104770857Y-73006143D02*
X104413714Y-74077571D01*
X105342286Y-74077571D01*
X101520858Y-75627571D02*
X102378001Y-75627571D01*
X101949430Y-77127571D02*
X101949430Y-75627571D01*
X102735144Y-75627571D02*
X103735144Y-77127571D01*
X103735144Y-75627571D02*
X102735144Y-77127571D01*
X104949429Y-76127571D02*
X104949429Y-77127571D01*
X104592286Y-75556143D02*
X104235143Y-76627571D01*
X105163715Y-76627571D01*
X102413715Y-79677571D02*
X101913715Y-78963286D01*
X101556572Y-79677571D02*
X101556572Y-78177571D01*
X102128000Y-78177571D01*
X102270858Y-78249000D01*
X102342286Y-78320429D01*
X102413715Y-78463286D01*
X102413715Y-78677571D01*
X102342286Y-78820429D01*
X102270858Y-78891857D01*
X102128000Y-78963286D01*
X101556572Y-78963286D01*
X102913715Y-78177571D02*
X103913715Y-79677571D01*
X103913715Y-78177571D02*
X102913715Y-79677571D01*
X105199429Y-78177571D02*
X104485143Y-78177571D01*
X104413714Y-78891857D01*
X104485143Y-78820429D01*
X104628000Y-78749000D01*
X104985143Y-78749000D01*
X105128000Y-78820429D01*
X105199429Y-78891857D01*
X105270857Y-79034714D01*
X105270857Y-79391857D01*
X105199429Y-79534714D01*
X105128000Y-79606143D01*
X104985143Y-79677571D01*
X104628000Y-79677571D01*
X104485143Y-79606143D01*
X104413714Y-79534714D01*
X101520858Y-80727571D02*
X102378001Y-80727571D01*
X101949430Y-82227571D02*
X101949430Y-80727571D01*
X102735144Y-80727571D02*
X103735144Y-82227571D01*
X103735144Y-80727571D02*
X102735144Y-82227571D01*
X105020858Y-80727571D02*
X104306572Y-80727571D01*
X104235143Y-81441857D01*
X104306572Y-81370429D01*
X104449429Y-81299000D01*
X104806572Y-81299000D01*
X104949429Y-81370429D01*
X105020858Y-81441857D01*
X105092286Y-81584714D01*
X105092286Y-81941857D01*
X105020858Y-82084714D01*
X104949429Y-82156143D01*
X104806572Y-82227571D01*
X104449429Y-82227571D01*
X104306572Y-82156143D01*
X104235143Y-82084714D01*
X102413715Y-84777571D02*
X101913715Y-84063286D01*
X101556572Y-84777571D02*
X101556572Y-83277571D01*
X102128000Y-83277571D01*
X102270858Y-83349000D01*
X102342286Y-83420429D01*
X102413715Y-83563286D01*
X102413715Y-83777571D01*
X102342286Y-83920429D01*
X102270858Y-83991857D01*
X102128000Y-84063286D01*
X101556572Y-84063286D01*
X102913715Y-83277571D02*
X103913715Y-84777571D01*
X103913715Y-83277571D02*
X102913715Y-84777571D01*
X105128000Y-83277571D02*
X104842286Y-83277571D01*
X104699429Y-83349000D01*
X104628000Y-83420429D01*
X104485143Y-83634714D01*
X104413714Y-83920429D01*
X104413714Y-84491857D01*
X104485143Y-84634714D01*
X104556571Y-84706143D01*
X104699429Y-84777571D01*
X104985143Y-84777571D01*
X105128000Y-84706143D01*
X105199429Y-84634714D01*
X105270857Y-84491857D01*
X105270857Y-84134714D01*
X105199429Y-83991857D01*
X105128000Y-83920429D01*
X104985143Y-83849000D01*
X104699429Y-83849000D01*
X104556571Y-83920429D01*
X104485143Y-83991857D01*
X104413714Y-84134714D01*
X101520858Y-85827571D02*
X102378001Y-85827571D01*
X101949430Y-87327571D02*
X101949430Y-85827571D01*
X102735144Y-85827571D02*
X103735144Y-87327571D01*
X103735144Y-85827571D02*
X102735144Y-87327571D01*
X104949429Y-85827571D02*
X104663715Y-85827571D01*
X104520858Y-85899000D01*
X104449429Y-85970429D01*
X104306572Y-86184714D01*
X104235143Y-86470429D01*
X104235143Y-87041857D01*
X104306572Y-87184714D01*
X104378000Y-87256143D01*
X104520858Y-87327571D01*
X104806572Y-87327571D01*
X104949429Y-87256143D01*
X105020858Y-87184714D01*
X105092286Y-87041857D01*
X105092286Y-86684714D01*
X105020858Y-86541857D01*
X104949429Y-86470429D01*
X104806572Y-86399000D01*
X104520858Y-86399000D01*
X104378000Y-86470429D01*
X104306572Y-86541857D01*
X104235143Y-86684714D01*
X113392858Y-153892857D02*
X113892858Y-153892857D01*
X114107144Y-154678571D02*
X113392858Y-154678571D01*
X113392858Y-153178571D01*
X114107144Y-153178571D01*
X114607144Y-153178571D02*
X115607144Y-154678571D01*
X115607144Y-153178571D02*
X114607144Y-154678571D01*
X115964286Y-153178571D02*
X116821429Y-153178571D01*
X116392858Y-154678571D02*
X116392858Y-153178571D01*
X108107143Y-163008571D02*
X108107143Y-164222857D01*
X108178571Y-164365714D01*
X108250000Y-164437143D01*
X108392857Y-164508571D01*
X108678571Y-164508571D01*
X108821429Y-164437143D01*
X108892857Y-164365714D01*
X108964286Y-164222857D01*
X108964286Y-163008571D01*
X109607143Y-164437143D02*
X109821429Y-164508571D01*
X110178572Y-164508571D01*
X110321429Y-164437143D01*
X110392858Y-164365714D01*
X110464286Y-164222857D01*
X110464286Y-164080000D01*
X110392858Y-163937143D01*
X110321429Y-163865714D01*
X110178572Y-163794286D01*
X109892858Y-163722857D01*
X109750000Y-163651429D01*
X109678572Y-163580000D01*
X109607143Y-163437143D01*
X109607143Y-163294286D01*
X109678572Y-163151429D01*
X109750000Y-163080000D01*
X109892858Y-163008571D01*
X110250000Y-163008571D01*
X110464286Y-163080000D01*
X111607143Y-163722857D02*
X111821429Y-163794286D01*
X111892857Y-163865714D01*
X111964286Y-164008571D01*
X111964286Y-164222857D01*
X111892857Y-164365714D01*
X111821429Y-164437143D01*
X111678571Y-164508571D01*
X111107143Y-164508571D01*
X111107143Y-163008571D01*
X111607143Y-163008571D01*
X111750000Y-163080000D01*
X111821429Y-163151429D01*
X111892857Y-163294286D01*
X111892857Y-163437143D01*
X111821429Y-163580000D01*
X111750000Y-163651429D01*
X111607143Y-163722857D01*
X111107143Y-163722857D01*
X100362000Y-145204571D02*
X100362000Y-143704571D01*
X100933428Y-143704571D01*
X101076286Y-143776000D01*
X101147714Y-143847429D01*
X101219143Y-143990286D01*
X101219143Y-144204571D01*
X101147714Y-144347429D01*
X101076286Y-144418857D01*
X100933428Y-144490286D01*
X100362000Y-144490286D01*
X102647714Y-143776000D02*
X102504857Y-143704571D01*
X102290571Y-143704571D01*
X102076286Y-143776000D01*
X101933428Y-143918857D01*
X101862000Y-144061714D01*
X101790571Y-144347429D01*
X101790571Y-144561714D01*
X101862000Y-144847429D01*
X101933428Y-144990286D01*
X102076286Y-145133143D01*
X102290571Y-145204571D01*
X102433428Y-145204571D01*
X102647714Y-145133143D01*
X102719143Y-145061714D01*
X102719143Y-144561714D01*
X102433428Y-144561714D01*
X103362000Y-145204571D02*
X103362000Y-143704571D01*
X103862000Y-144776000D01*
X104362000Y-143704571D01*
X104362000Y-145204571D01*
X102302572Y-164762571D02*
X101802572Y-164048286D01*
X101445429Y-164762571D02*
X101445429Y-163262571D01*
X102016857Y-163262571D01*
X102159715Y-163334000D01*
X102231143Y-163405429D01*
X102302572Y-163548286D01*
X102302572Y-163762571D01*
X102231143Y-163905429D01*
X102159715Y-163976857D01*
X102016857Y-164048286D01*
X101445429Y-164048286D01*
X102874000Y-164691143D02*
X103088286Y-164762571D01*
X103445429Y-164762571D01*
X103588286Y-164691143D01*
X103659715Y-164619714D01*
X103731143Y-164476857D01*
X103731143Y-164334000D01*
X103659715Y-164191143D01*
X103588286Y-164119714D01*
X103445429Y-164048286D01*
X103159715Y-163976857D01*
X103016857Y-163905429D01*
X102945429Y-163834000D01*
X102874000Y-163691143D01*
X102874000Y-163548286D01*
X102945429Y-163405429D01*
X103016857Y-163334000D01*
X103159715Y-163262571D01*
X103516857Y-163262571D01*
X103731143Y-163334000D01*
X104159714Y-163262571D02*
X105016857Y-163262571D01*
X104588286Y-164762571D02*
X104588286Y-163262571D01*
D13*
X145597440Y-144968643D02*
G75*
G03X139420764Y-144968000I-3088440J-979357D01*
G01*
X145597440Y-146927357D02*
G75*
G02X139420764Y-146928000I-3088440J979357D01*
G01*
X145597440Y-146927357D02*
G75*
G03X145597236Y-144968000I-3088440J979357D01*
G01*
X142509000Y-142748000D02*
X142509000Y-149148000D01*
X142549000Y-142748000D02*
X142549000Y-149148000D01*
X142589000Y-142748000D02*
X142589000Y-149148000D01*
X142629000Y-142750000D02*
X142629000Y-149146000D01*
X142669000Y-142751000D02*
X142669000Y-149145000D01*
X142709000Y-142754000D02*
X142709000Y-149142000D01*
X142749000Y-142756000D02*
X142749000Y-149140000D01*
X142789000Y-142760000D02*
X142789000Y-144968000D01*
X142789000Y-146928000D02*
X142789000Y-149136000D01*
X142829000Y-142763000D02*
X142829000Y-144968000D01*
X142829000Y-146928000D02*
X142829000Y-149133000D01*
X142869000Y-142768000D02*
X142869000Y-144968000D01*
X142869000Y-146928000D02*
X142869000Y-149128000D01*
X142909000Y-142772000D02*
X142909000Y-144968000D01*
X142909000Y-146928000D02*
X142909000Y-149124000D01*
X142949000Y-142778000D02*
X142949000Y-144968000D01*
X142949000Y-146928000D02*
X142949000Y-149118000D01*
X142989000Y-142783000D02*
X142989000Y-144968000D01*
X142989000Y-146928000D02*
X142989000Y-149113000D01*
X143029000Y-142790000D02*
X143029000Y-144968000D01*
X143029000Y-146928000D02*
X143029000Y-149106000D01*
X143069000Y-142796000D02*
X143069000Y-144968000D01*
X143069000Y-146928000D02*
X143069000Y-149100000D01*
X143109000Y-142804000D02*
X143109000Y-144968000D01*
X143109000Y-146928000D02*
X143109000Y-149092000D01*
X143149000Y-142811000D02*
X143149000Y-144968000D01*
X143149000Y-146928000D02*
X143149000Y-149085000D01*
X143189000Y-142820000D02*
X143189000Y-144968000D01*
X143189000Y-146928000D02*
X143189000Y-149076000D01*
X143230000Y-142829000D02*
X143230000Y-144968000D01*
X143230000Y-146928000D02*
X143230000Y-149067000D01*
X143270000Y-142838000D02*
X143270000Y-144968000D01*
X143270000Y-146928000D02*
X143270000Y-149058000D01*
X143310000Y-142848000D02*
X143310000Y-144968000D01*
X143310000Y-146928000D02*
X143310000Y-149048000D01*
X143350000Y-142858000D02*
X143350000Y-144968000D01*
X143350000Y-146928000D02*
X143350000Y-149038000D01*
X143390000Y-142869000D02*
X143390000Y-144968000D01*
X143390000Y-146928000D02*
X143390000Y-149027000D01*
X143430000Y-142881000D02*
X143430000Y-144968000D01*
X143430000Y-146928000D02*
X143430000Y-149015000D01*
X143470000Y-142893000D02*
X143470000Y-144968000D01*
X143470000Y-146928000D02*
X143470000Y-149003000D01*
X143510000Y-142906000D02*
X143510000Y-144968000D01*
X143510000Y-146928000D02*
X143510000Y-148990000D01*
X143550000Y-142919000D02*
X143550000Y-144968000D01*
X143550000Y-146928000D02*
X143550000Y-148977000D01*
X143590000Y-142933000D02*
X143590000Y-144968000D01*
X143590000Y-146928000D02*
X143590000Y-148963000D01*
X143630000Y-142947000D02*
X143630000Y-144968000D01*
X143630000Y-146928000D02*
X143630000Y-148949000D01*
X143670000Y-142962000D02*
X143670000Y-144968000D01*
X143670000Y-146928000D02*
X143670000Y-148934000D01*
X143710000Y-142978000D02*
X143710000Y-144968000D01*
X143710000Y-146928000D02*
X143710000Y-148918000D01*
X143750000Y-142994000D02*
X143750000Y-144968000D01*
X143750000Y-146928000D02*
X143750000Y-148902000D01*
X143790000Y-143011000D02*
X143790000Y-144968000D01*
X143790000Y-146928000D02*
X143790000Y-148885000D01*
X143830000Y-143029000D02*
X143830000Y-144968000D01*
X143830000Y-146928000D02*
X143830000Y-148867000D01*
X143870000Y-143047000D02*
X143870000Y-144968000D01*
X143870000Y-146928000D02*
X143870000Y-148849000D01*
X143910000Y-143066000D02*
X143910000Y-144968000D01*
X143910000Y-146928000D02*
X143910000Y-148830000D01*
X143950000Y-143085000D02*
X143950000Y-144968000D01*
X143950000Y-146928000D02*
X143950000Y-148811000D01*
X143990000Y-143105000D02*
X143990000Y-144968000D01*
X143990000Y-146928000D02*
X143990000Y-148791000D01*
X144030000Y-143126000D02*
X144030000Y-144968000D01*
X144030000Y-146928000D02*
X144030000Y-148770000D01*
X144070000Y-143148000D02*
X144070000Y-144968000D01*
X144070000Y-146928000D02*
X144070000Y-148748000D01*
X144110000Y-143170000D02*
X144110000Y-144968000D01*
X144110000Y-146928000D02*
X144110000Y-148726000D01*
X144150000Y-143193000D02*
X144150000Y-144968000D01*
X144150000Y-146928000D02*
X144150000Y-148703000D01*
X144190000Y-143217000D02*
X144190000Y-144968000D01*
X144190000Y-146928000D02*
X144190000Y-148679000D01*
X144230000Y-143242000D02*
X144230000Y-144968000D01*
X144230000Y-146928000D02*
X144230000Y-148654000D01*
X144270000Y-143267000D02*
X144270000Y-144968000D01*
X144270000Y-146928000D02*
X144270000Y-148629000D01*
X144310000Y-143294000D02*
X144310000Y-144968000D01*
X144310000Y-146928000D02*
X144310000Y-148602000D01*
X144350000Y-143321000D02*
X144350000Y-144968000D01*
X144350000Y-146928000D02*
X144350000Y-148575000D01*
X144390000Y-143349000D02*
X144390000Y-144968000D01*
X144390000Y-146928000D02*
X144390000Y-148547000D01*
X144430000Y-143378000D02*
X144430000Y-144968000D01*
X144430000Y-146928000D02*
X144430000Y-148518000D01*
X144470000Y-143408000D02*
X144470000Y-144968000D01*
X144470000Y-146928000D02*
X144470000Y-148488000D01*
X144510000Y-143438000D02*
X144510000Y-144968000D01*
X144510000Y-146928000D02*
X144510000Y-148458000D01*
X144550000Y-143470000D02*
X144550000Y-144968000D01*
X144550000Y-146928000D02*
X144550000Y-148426000D01*
X144590000Y-143503000D02*
X144590000Y-144968000D01*
X144590000Y-146928000D02*
X144590000Y-148393000D01*
X144630000Y-143537000D02*
X144630000Y-144968000D01*
X144630000Y-146928000D02*
X144630000Y-148359000D01*
X144670000Y-143573000D02*
X144670000Y-144968000D01*
X144670000Y-146928000D02*
X144670000Y-148323000D01*
X144710000Y-143609000D02*
X144710000Y-144968000D01*
X144710000Y-146928000D02*
X144710000Y-148287000D01*
X144750000Y-143647000D02*
X144750000Y-148249000D01*
X144790000Y-143686000D02*
X144790000Y-148210000D01*
X144830000Y-143726000D02*
X144830000Y-148170000D01*
X144870000Y-143768000D02*
X144870000Y-148128000D01*
X144910000Y-143811000D02*
X144910000Y-148085000D01*
X144950000Y-143856000D02*
X144950000Y-148040000D01*
X144990000Y-143903000D02*
X144990000Y-147993000D01*
X145030000Y-143951000D02*
X145030000Y-147945000D01*
X145070000Y-144002000D02*
X145070000Y-147894000D01*
X145110000Y-144054000D02*
X145110000Y-147842000D01*
X145150000Y-144109000D02*
X145150000Y-147787000D01*
X145190000Y-144167000D02*
X145190000Y-147729000D01*
X145230000Y-144227000D02*
X145230000Y-147669000D01*
X145270000Y-144290000D02*
X145270000Y-147606000D01*
X145310000Y-144357000D02*
X145310000Y-147539000D01*
X145350000Y-144428000D02*
X145350000Y-147468000D01*
X145390000Y-144503000D02*
X145390000Y-147393000D01*
X145430000Y-144584000D02*
X145430000Y-147312000D01*
X145470000Y-144670000D02*
X145470000Y-147226000D01*
X145510000Y-144764000D02*
X145510000Y-147132000D01*
X145550000Y-144867000D02*
X145550000Y-147029000D01*
X145590000Y-144982000D02*
X145590000Y-146914000D01*
X145630000Y-145114000D02*
X145630000Y-146782000D01*
X145670000Y-145272000D02*
X145670000Y-146624000D01*
X145710000Y-145480000D02*
X145710000Y-146416000D01*
X139059000Y-145948000D02*
X140259000Y-145948000D01*
X139659000Y-145298000D02*
X139659000Y-146598000D01*
X146509000Y-132796000D02*
X146509000Y-129676000D01*
X148629000Y-132796000D02*
X148629000Y-129676000D01*
X146509000Y-132796000D02*
X146573000Y-132796000D01*
X148565000Y-132796000D02*
X148629000Y-132796000D01*
X146509000Y-129676000D02*
X146573000Y-129676000D01*
X148565000Y-129676000D02*
X148629000Y-129676000D01*
X145597440Y-137094643D02*
G75*
G03X139420764Y-137094000I-3088440J-979357D01*
G01*
X145597440Y-139053357D02*
G75*
G02X139420764Y-139054000I-3088440J979357D01*
G01*
X145597440Y-139053357D02*
G75*
G03X145597236Y-137094000I-3088440J979357D01*
G01*
X142509000Y-134874000D02*
X142509000Y-141274000D01*
X142549000Y-134874000D02*
X142549000Y-141274000D01*
X142589000Y-134874000D02*
X142589000Y-141274000D01*
X142629000Y-134876000D02*
X142629000Y-141272000D01*
X142669000Y-134877000D02*
X142669000Y-141271000D01*
X142709000Y-134880000D02*
X142709000Y-141268000D01*
X142749000Y-134882000D02*
X142749000Y-141266000D01*
X142789000Y-134886000D02*
X142789000Y-137094000D01*
X142789000Y-139054000D02*
X142789000Y-141262000D01*
X142829000Y-134889000D02*
X142829000Y-137094000D01*
X142829000Y-139054000D02*
X142829000Y-141259000D01*
X142869000Y-134894000D02*
X142869000Y-137094000D01*
X142869000Y-139054000D02*
X142869000Y-141254000D01*
X142909000Y-134898000D02*
X142909000Y-137094000D01*
X142909000Y-139054000D02*
X142909000Y-141250000D01*
X142949000Y-134904000D02*
X142949000Y-137094000D01*
X142949000Y-139054000D02*
X142949000Y-141244000D01*
X142989000Y-134909000D02*
X142989000Y-137094000D01*
X142989000Y-139054000D02*
X142989000Y-141239000D01*
X143029000Y-134916000D02*
X143029000Y-137094000D01*
X143029000Y-139054000D02*
X143029000Y-141232000D01*
X143069000Y-134922000D02*
X143069000Y-137094000D01*
X143069000Y-139054000D02*
X143069000Y-141226000D01*
X143109000Y-134930000D02*
X143109000Y-137094000D01*
X143109000Y-139054000D02*
X143109000Y-141218000D01*
X143149000Y-134937000D02*
X143149000Y-137094000D01*
X143149000Y-139054000D02*
X143149000Y-141211000D01*
X143189000Y-134946000D02*
X143189000Y-137094000D01*
X143189000Y-139054000D02*
X143189000Y-141202000D01*
X143230000Y-134955000D02*
X143230000Y-137094000D01*
X143230000Y-139054000D02*
X143230000Y-141193000D01*
X143270000Y-134964000D02*
X143270000Y-137094000D01*
X143270000Y-139054000D02*
X143270000Y-141184000D01*
X143310000Y-134974000D02*
X143310000Y-137094000D01*
X143310000Y-139054000D02*
X143310000Y-141174000D01*
X143350000Y-134984000D02*
X143350000Y-137094000D01*
X143350000Y-139054000D02*
X143350000Y-141164000D01*
X143390000Y-134995000D02*
X143390000Y-137094000D01*
X143390000Y-139054000D02*
X143390000Y-141153000D01*
X143430000Y-135007000D02*
X143430000Y-137094000D01*
X143430000Y-139054000D02*
X143430000Y-141141000D01*
X143470000Y-135019000D02*
X143470000Y-137094000D01*
X143470000Y-139054000D02*
X143470000Y-141129000D01*
X143510000Y-135032000D02*
X143510000Y-137094000D01*
X143510000Y-139054000D02*
X143510000Y-141116000D01*
X143550000Y-135045000D02*
X143550000Y-137094000D01*
X143550000Y-139054000D02*
X143550000Y-141103000D01*
X143590000Y-135059000D02*
X143590000Y-137094000D01*
X143590000Y-139054000D02*
X143590000Y-141089000D01*
X143630000Y-135073000D02*
X143630000Y-137094000D01*
X143630000Y-139054000D02*
X143630000Y-141075000D01*
X143670000Y-135088000D02*
X143670000Y-137094000D01*
X143670000Y-139054000D02*
X143670000Y-141060000D01*
X143710000Y-135104000D02*
X143710000Y-137094000D01*
X143710000Y-139054000D02*
X143710000Y-141044000D01*
X143750000Y-135120000D02*
X143750000Y-137094000D01*
X143750000Y-139054000D02*
X143750000Y-141028000D01*
X143790000Y-135137000D02*
X143790000Y-137094000D01*
X143790000Y-139054000D02*
X143790000Y-141011000D01*
X143830000Y-135155000D02*
X143830000Y-137094000D01*
X143830000Y-139054000D02*
X143830000Y-140993000D01*
X143870000Y-135173000D02*
X143870000Y-137094000D01*
X143870000Y-139054000D02*
X143870000Y-140975000D01*
X143910000Y-135192000D02*
X143910000Y-137094000D01*
X143910000Y-139054000D02*
X143910000Y-140956000D01*
X143950000Y-135211000D02*
X143950000Y-137094000D01*
X143950000Y-139054000D02*
X143950000Y-140937000D01*
X143990000Y-135231000D02*
X143990000Y-137094000D01*
X143990000Y-139054000D02*
X143990000Y-140917000D01*
X144030000Y-135252000D02*
X144030000Y-137094000D01*
X144030000Y-139054000D02*
X144030000Y-140896000D01*
X144070000Y-135274000D02*
X144070000Y-137094000D01*
X144070000Y-139054000D02*
X144070000Y-140874000D01*
X144110000Y-135296000D02*
X144110000Y-137094000D01*
X144110000Y-139054000D02*
X144110000Y-140852000D01*
X144150000Y-135319000D02*
X144150000Y-137094000D01*
X144150000Y-139054000D02*
X144150000Y-140829000D01*
X144190000Y-135343000D02*
X144190000Y-137094000D01*
X144190000Y-139054000D02*
X144190000Y-140805000D01*
X144230000Y-135368000D02*
X144230000Y-137094000D01*
X144230000Y-139054000D02*
X144230000Y-140780000D01*
X144270000Y-135393000D02*
X144270000Y-137094000D01*
X144270000Y-139054000D02*
X144270000Y-140755000D01*
X144310000Y-135420000D02*
X144310000Y-137094000D01*
X144310000Y-139054000D02*
X144310000Y-140728000D01*
X144350000Y-135447000D02*
X144350000Y-137094000D01*
X144350000Y-139054000D02*
X144350000Y-140701000D01*
X144390000Y-135475000D02*
X144390000Y-137094000D01*
X144390000Y-139054000D02*
X144390000Y-140673000D01*
X144430000Y-135504000D02*
X144430000Y-137094000D01*
X144430000Y-139054000D02*
X144430000Y-140644000D01*
X144470000Y-135534000D02*
X144470000Y-137094000D01*
X144470000Y-139054000D02*
X144470000Y-140614000D01*
X144510000Y-135564000D02*
X144510000Y-137094000D01*
X144510000Y-139054000D02*
X144510000Y-140584000D01*
X144550000Y-135596000D02*
X144550000Y-137094000D01*
X144550000Y-139054000D02*
X144550000Y-140552000D01*
X144590000Y-135629000D02*
X144590000Y-137094000D01*
X144590000Y-139054000D02*
X144590000Y-140519000D01*
X144630000Y-135663000D02*
X144630000Y-137094000D01*
X144630000Y-139054000D02*
X144630000Y-140485000D01*
X144670000Y-135699000D02*
X144670000Y-137094000D01*
X144670000Y-139054000D02*
X144670000Y-140449000D01*
X144710000Y-135735000D02*
X144710000Y-137094000D01*
X144710000Y-139054000D02*
X144710000Y-140413000D01*
X144750000Y-135773000D02*
X144750000Y-140375000D01*
X144790000Y-135812000D02*
X144790000Y-140336000D01*
X144830000Y-135852000D02*
X144830000Y-140296000D01*
X144870000Y-135894000D02*
X144870000Y-140254000D01*
X144910000Y-135937000D02*
X144910000Y-140211000D01*
X144950000Y-135982000D02*
X144950000Y-140166000D01*
X144990000Y-136029000D02*
X144990000Y-140119000D01*
X145030000Y-136077000D02*
X145030000Y-140071000D01*
X145070000Y-136128000D02*
X145070000Y-140020000D01*
X145110000Y-136180000D02*
X145110000Y-139968000D01*
X145150000Y-136235000D02*
X145150000Y-139913000D01*
X145190000Y-136293000D02*
X145190000Y-139855000D01*
X145230000Y-136353000D02*
X145230000Y-139795000D01*
X145270000Y-136416000D02*
X145270000Y-139732000D01*
X145310000Y-136483000D02*
X145310000Y-139665000D01*
X145350000Y-136554000D02*
X145350000Y-139594000D01*
X145390000Y-136629000D02*
X145390000Y-139519000D01*
X145430000Y-136710000D02*
X145430000Y-139438000D01*
X145470000Y-136796000D02*
X145470000Y-139352000D01*
X145510000Y-136890000D02*
X145510000Y-139258000D01*
X145550000Y-136993000D02*
X145550000Y-139155000D01*
X145590000Y-137108000D02*
X145590000Y-139040000D01*
X145630000Y-137240000D02*
X145630000Y-138908000D01*
X145670000Y-137398000D02*
X145670000Y-138750000D01*
X145710000Y-137606000D02*
X145710000Y-138542000D01*
X139059000Y-138074000D02*
X140259000Y-138074000D01*
X139659000Y-137424000D02*
X139659000Y-138724000D01*
X162000000Y-159300000D02*
X162000000Y-168100000D01*
X162000000Y-168100000D02*
X152800000Y-168100000D01*
X159300000Y-153400000D02*
X162000000Y-153400000D01*
X162000000Y-153400000D02*
X162000000Y-155300000D01*
X152800000Y-168100000D02*
X152800000Y-153400000D01*
X152800000Y-153400000D02*
X155400000Y-153400000D01*
X151341000Y-138564000D02*
X151821000Y-138564000D01*
X151821000Y-138564000D02*
X151821000Y-146284000D01*
X151821000Y-146284000D02*
X151341000Y-146284000D01*
X148581000Y-138564000D02*
X148101000Y-138564000D01*
X148101000Y-138564000D02*
X148101000Y-146284000D01*
X148101000Y-146284000D02*
X148581000Y-146284000D01*
X151821000Y-139764000D02*
X148101000Y-139764000D01*
X110550000Y-85090000D02*
X110550000Y-67250000D01*
X110550000Y-67250000D02*
X107890000Y-67250000D01*
X107890000Y-67250000D02*
X107890000Y-85090000D01*
X107890000Y-85090000D02*
X110550000Y-85090000D01*
X110550000Y-86360000D02*
X110550000Y-87690000D01*
X110550000Y-87690000D02*
X109220000Y-87690000D01*
X110550000Y-107950000D02*
X110550000Y-90110000D01*
X110550000Y-90110000D02*
X107890000Y-90110000D01*
X107890000Y-90110000D02*
X107890000Y-107950000D01*
X107890000Y-107950000D02*
X110550000Y-107950000D01*
X110550000Y-109220000D02*
X110550000Y-110550000D01*
X110550000Y-110550000D02*
X109220000Y-110550000D01*
X110631000Y-134656000D02*
X110631000Y-111736000D01*
X110631000Y-111736000D02*
X107971000Y-111736000D01*
X107971000Y-111736000D02*
X107971000Y-134656000D01*
X107971000Y-134656000D02*
X110631000Y-134656000D01*
X110631000Y-135926000D02*
X110631000Y-137256000D01*
X110631000Y-137256000D02*
X109301000Y-137256000D01*
X111820000Y-150270000D02*
X111820000Y-145130000D01*
X111820000Y-145130000D02*
X109160000Y-145130000D01*
X109160000Y-145130000D02*
X109160000Y-150270000D01*
X109160000Y-150270000D02*
X111820000Y-150270000D01*
X111820000Y-151540000D02*
X111820000Y-152870000D01*
X111820000Y-152870000D02*
X110490000Y-152870000D01*
X120430000Y-160210000D02*
X120430000Y-101730000D01*
X120430000Y-101730000D02*
X117770000Y-101730000D01*
X117770000Y-101730000D02*
X117770000Y-160210000D01*
X117770000Y-160210000D02*
X120430000Y-160210000D01*
X120430000Y-161480000D02*
X120430000Y-162810000D01*
X120430000Y-162810000D02*
X119100000Y-162810000D01*
X122876000Y-112014000D02*
X122876000Y-101794000D01*
X122876000Y-101794000D02*
X128076000Y-101794000D01*
X128076000Y-101794000D02*
X128076000Y-114614000D01*
X128076000Y-114614000D02*
X125476000Y-114614000D01*
X125476000Y-114614000D02*
X125476000Y-112014000D01*
X125476000Y-112014000D02*
X122876000Y-112014000D01*
X122876000Y-113284000D02*
X122876000Y-114614000D01*
X122876000Y-114614000D02*
X124146000Y-114614000D01*
X123030000Y-157734000D02*
X123030000Y-147514000D01*
X123030000Y-147514000D02*
X120370000Y-147514000D01*
X120370000Y-147514000D02*
X120370000Y-157734000D01*
X120370000Y-157734000D02*
X123030000Y-157734000D01*
X123030000Y-159004000D02*
X123030000Y-160334000D01*
X123030000Y-160334000D02*
X121700000Y-160334000D01*
X122876000Y-145034000D02*
X122876000Y-137354000D01*
X122876000Y-137354000D02*
X128076000Y-137354000D01*
X128076000Y-137354000D02*
X128076000Y-147634000D01*
X128076000Y-147634000D02*
X125476000Y-147634000D01*
X125476000Y-147634000D02*
X125476000Y-145034000D01*
X125476000Y-145034000D02*
X122876000Y-145034000D01*
X122876000Y-146304000D02*
X122876000Y-147634000D01*
X122876000Y-147634000D02*
X124146000Y-147634000D01*
X132267000Y-151448000D02*
X132267000Y-143768000D01*
X132267000Y-143768000D02*
X129607000Y-143768000D01*
X129607000Y-143768000D02*
X129607000Y-151448000D01*
X129607000Y-151448000D02*
X132267000Y-151448000D01*
X132267000Y-152718000D02*
X132267000Y-154048000D01*
X132267000Y-154048000D02*
X130937000Y-154048000D01*
X110490000Y-56630000D02*
X153730000Y-56630000D01*
X153730000Y-56630000D02*
X153730000Y-61830000D01*
X153730000Y-61830000D02*
X107890000Y-61830000D01*
X107890000Y-61830000D02*
X107890000Y-59230000D01*
X107890000Y-59230000D02*
X110490000Y-59230000D01*
X110490000Y-59230000D02*
X110490000Y-56630000D01*
X109220000Y-56630000D02*
X107890000Y-56630000D01*
X107890000Y-56630000D02*
X107890000Y-57900000D01*
X135696000Y-160274000D02*
X135696000Y-101794000D01*
X135696000Y-101794000D02*
X133036000Y-101794000D01*
X133036000Y-101794000D02*
X133036000Y-160274000D01*
X133036000Y-160274000D02*
X135696000Y-160274000D01*
X135696000Y-161544000D02*
X135696000Y-162874000D01*
X135696000Y-162874000D02*
X134366000Y-162874000D01*
X158810000Y-79502000D02*
X158810000Y-61662000D01*
X158810000Y-61662000D02*
X156150000Y-61662000D01*
X156150000Y-61662000D02*
X156150000Y-79502000D01*
X156150000Y-79502000D02*
X158810000Y-79502000D01*
X158810000Y-80772000D02*
X158810000Y-82102000D01*
X158810000Y-82102000D02*
X157480000Y-82102000D01*
X158810000Y-102870000D02*
X158810000Y-85030000D01*
X158810000Y-85030000D02*
X156150000Y-85030000D01*
X156150000Y-85030000D02*
X156150000Y-102870000D01*
X156150000Y-102870000D02*
X158810000Y-102870000D01*
X158810000Y-104140000D02*
X158810000Y-105470000D01*
X158810000Y-105470000D02*
X157480000Y-105470000D01*
X158810000Y-125730000D02*
X158810000Y-107890000D01*
X158810000Y-107890000D02*
X156150000Y-107890000D01*
X156150000Y-107890000D02*
X156150000Y-125730000D01*
X156150000Y-125730000D02*
X158810000Y-125730000D01*
X158810000Y-127000000D02*
X158810000Y-128330000D01*
X158810000Y-128330000D02*
X157480000Y-128330000D01*
X122876000Y-122174000D02*
X122876000Y-117034000D01*
X122876000Y-117034000D02*
X128076000Y-117034000D01*
X128076000Y-117034000D02*
X128076000Y-124774000D01*
X128076000Y-124774000D02*
X125476000Y-124774000D01*
X125476000Y-124774000D02*
X125476000Y-122174000D01*
X125476000Y-122174000D02*
X122876000Y-122174000D01*
X122876000Y-123444000D02*
X122876000Y-124774000D01*
X122876000Y-124774000D02*
X124146000Y-124774000D01*
X122936000Y-117154000D02*
X133156000Y-117154000D01*
X133156000Y-117154000D02*
X133156000Y-114494000D01*
X133156000Y-114494000D02*
X122936000Y-114494000D01*
X122936000Y-114494000D02*
X122936000Y-117154000D01*
X121666000Y-117154000D02*
X120336000Y-117154000D01*
X120336000Y-117154000D02*
X120336000Y-115824000D01*
X142386000Y-161193000D02*
X143646000Y-161193000D01*
X149206000Y-161193000D02*
X147946000Y-161193000D01*
X142386000Y-157433000D02*
X142386000Y-161193000D01*
X149206000Y-155183000D02*
X149206000Y-161193000D01*
X105410000Y-159004000D02*
G75*
G03X105410000Y-159004000I-2540000J0D01*
G01*
X99060000Y-155194000D02*
X106680000Y-155194000D01*
X106680000Y-155194000D02*
X106680000Y-162814000D01*
X106680000Y-162814000D02*
X99060000Y-162814000D01*
X99060000Y-155194000D02*
X99060000Y-162814000D01*
X105156000Y-149606000D02*
G75*
G03X105156000Y-149606000I-2540000J0D01*
G01*
X98806000Y-145796000D02*
X106426000Y-145796000D01*
X106426000Y-145796000D02*
X106426000Y-153416000D01*
X106426000Y-153416000D02*
X98806000Y-153416000D01*
X98806000Y-145796000D02*
X98806000Y-153416000D01*
X110998000Y-154940000D02*
X113538000Y-154940000D01*
X113538000Y-154940000D02*
X113538000Y-162560000D01*
X113538000Y-162560000D02*
X110998000Y-162560000D01*
X110998000Y-162560000D02*
X110998000Y-154940000D01*
X113538000Y-157480000D02*
X110998000Y-157480000D01*
X136854719Y-68704329D02*
G75*
G02X140400000Y-91150000I45281J-11495671D01*
G01*
X140426384Y-91148246D02*
G75*
G03X139900000Y-91900000I273616J-751754D01*
G01*
X136945281Y-68704329D02*
G75*
G03X133400000Y-91150000I-45281J-11495671D01*
G01*
X133373616Y-91148246D02*
G75*
G02X133900000Y-91900000I-273616J-751754D01*
G01*
X133900000Y-97600000D02*
X133900000Y-91900000D01*
X139900000Y-97600000D02*
X133900000Y-97600000D01*
X139900000Y-97600000D02*
X139900000Y-91900000D01*
X159470000Y-142370000D02*
X159470000Y-147510000D01*
X159470000Y-147510000D02*
X162130000Y-147510000D01*
X162130000Y-147510000D02*
X162130000Y-142370000D01*
X162130000Y-142370000D02*
X159470000Y-142370000D01*
X159470000Y-141100000D02*
X159470000Y-139770000D01*
X159470000Y-139770000D02*
X160800000Y-139770000D01*
X156778000Y-136906000D02*
X156778000Y-134306000D01*
X156778000Y-134306000D02*
X154118000Y-134306000D01*
X154118000Y-134306000D02*
X154118000Y-136906000D01*
X154118000Y-136906000D02*
X156778000Y-136906000D01*
X156778000Y-138176000D02*
X156778000Y-139506000D01*
X156778000Y-139506000D02*
X155448000Y-139506000D01*
D14*
X98952381Y-101252381D02*
X98619047Y-100776190D01*
X98380952Y-101252381D02*
X98380952Y-100252381D01*
X98761905Y-100252381D01*
X98857143Y-100300000D01*
X98904762Y-100347619D01*
X98952381Y-100442857D01*
X98952381Y-100585714D01*
X98904762Y-100680952D01*
X98857143Y-100728571D01*
X98761905Y-100776190D01*
X98380952Y-100776190D01*
X99380952Y-100728571D02*
X99714286Y-100728571D01*
X99857143Y-101252381D02*
X99380952Y-101252381D01*
X99380952Y-100252381D01*
X99857143Y-100252381D01*
X100619048Y-100728571D02*
X100285714Y-100728571D01*
X100285714Y-101252381D02*
X100285714Y-100252381D01*
X100761905Y-100252381D01*
X101095238Y-100347619D02*
X101142857Y-100300000D01*
X101238095Y-100252381D01*
X101476191Y-100252381D01*
X101571429Y-100300000D01*
X101619048Y-100347619D01*
X101666667Y-100442857D01*
X101666667Y-100538095D01*
X101619048Y-100680952D01*
X101047619Y-101252381D01*
X101666667Y-101252381D01*
X159852381Y-128252381D02*
X159519047Y-127776190D01*
X159280952Y-128252381D02*
X159280952Y-127252381D01*
X159661905Y-127252381D01*
X159757143Y-127300000D01*
X159804762Y-127347619D01*
X159852381Y-127442857D01*
X159852381Y-127585714D01*
X159804762Y-127680952D01*
X159757143Y-127728571D01*
X159661905Y-127776190D01*
X159280952Y-127776190D01*
X160280952Y-127728571D02*
X160614286Y-127728571D01*
X160757143Y-128252381D02*
X160280952Y-128252381D01*
X160280952Y-127252381D01*
X160757143Y-127252381D01*
X161519048Y-127728571D02*
X161185714Y-127728571D01*
X161185714Y-128252381D02*
X161185714Y-127252381D01*
X161661905Y-127252381D01*
X162471429Y-127585714D02*
X162471429Y-128252381D01*
X162233333Y-127204762D02*
X161995238Y-127919048D01*
X162614286Y-127919048D01*
X108152381Y-136552381D02*
X107819047Y-136076190D01*
X107580952Y-136552381D02*
X107580952Y-135552381D01*
X107961905Y-135552381D01*
X108057143Y-135600000D01*
X108104762Y-135647619D01*
X108152381Y-135742857D01*
X108152381Y-135885714D01*
X108104762Y-135980952D01*
X108057143Y-136028571D01*
X107961905Y-136076190D01*
X107580952Y-136076190D01*
X108580952Y-136028571D02*
X108914286Y-136028571D01*
X109057143Y-136552381D02*
X108580952Y-136552381D01*
X108580952Y-135552381D01*
X109057143Y-135552381D01*
X109819048Y-136028571D02*
X109485714Y-136028571D01*
X109485714Y-136552381D02*
X109485714Y-135552381D01*
X109961905Y-135552381D01*
X110247619Y-135552381D02*
X110866667Y-135552381D01*
X110533333Y-135933333D01*
X110676191Y-135933333D01*
X110771429Y-135980952D01*
X110819048Y-136028571D01*
X110866667Y-136123810D01*
X110866667Y-136361905D01*
X110819048Y-136457143D01*
X110771429Y-136504762D01*
X110676191Y-136552381D01*
X110390476Y-136552381D01*
X110295238Y-136504762D01*
X110247619Y-136457143D01*
X140666667Y-97252381D02*
X140333333Y-96776190D01*
X140095238Y-97252381D02*
X140095238Y-96252381D01*
X140476191Y-96252381D01*
X140571429Y-96300000D01*
X140619048Y-96347619D01*
X140666667Y-96442857D01*
X140666667Y-96585714D01*
X140619048Y-96680952D01*
X140571429Y-96728571D01*
X140476191Y-96776190D01*
X140095238Y-96776190D01*
X141095238Y-96728571D02*
X141428572Y-96728571D01*
X141571429Y-97252381D02*
X141095238Y-97252381D01*
X141095238Y-96252381D01*
X141571429Y-96252381D01*
X142333334Y-96728571D02*
X142000000Y-96728571D01*
X142000000Y-97252381D02*
X142000000Y-96252381D01*
X142476191Y-96252381D01*
X143000000Y-96252381D02*
X143000000Y-96490476D01*
X142761905Y-96395238D02*
X143000000Y-96490476D01*
X143238096Y-96395238D01*
X142857143Y-96680952D02*
X143000000Y-96490476D01*
X143142858Y-96680952D01*
X143761905Y-96252381D02*
X143761905Y-96490476D01*
X143523810Y-96395238D02*
X143761905Y-96490476D01*
X144000001Y-96395238D01*
X143619048Y-96680952D02*
X143761905Y-96490476D01*
X143904763Y-96680952D01*
X155952381Y-55252381D02*
X155619047Y-54776190D01*
X155380952Y-55252381D02*
X155380952Y-54252381D01*
X155761905Y-54252381D01*
X155857143Y-54300000D01*
X155904762Y-54347619D01*
X155952381Y-54442857D01*
X155952381Y-54585714D01*
X155904762Y-54680952D01*
X155857143Y-54728571D01*
X155761905Y-54776190D01*
X155380952Y-54776190D01*
X156380952Y-54728571D02*
X156714286Y-54728571D01*
X156857143Y-55252381D02*
X156380952Y-55252381D01*
X156380952Y-54252381D01*
X156857143Y-54252381D01*
X157619048Y-54728571D02*
X157285714Y-54728571D01*
X157285714Y-55252381D02*
X157285714Y-54252381D01*
X157761905Y-54252381D01*
X158619048Y-54252381D02*
X158142857Y-54252381D01*
X158095238Y-54728571D01*
X158142857Y-54680952D01*
X158238095Y-54633333D01*
X158476191Y-54633333D01*
X158571429Y-54680952D01*
X158619048Y-54728571D01*
X158666667Y-54823810D01*
X158666667Y-55061905D01*
X158619048Y-55157143D01*
X158571429Y-55204762D01*
X158476191Y-55252381D01*
X158238095Y-55252381D01*
X158142857Y-55204762D01*
X158095238Y-55157143D01*
X142342334Y-142095143D02*
X142294715Y-142142762D01*
X142151858Y-142190381D01*
X142056620Y-142190381D01*
X141913762Y-142142762D01*
X141818524Y-142047524D01*
X141770905Y-141952286D01*
X141723286Y-141761810D01*
X141723286Y-141618952D01*
X141770905Y-141428476D01*
X141818524Y-141333238D01*
X141913762Y-141238000D01*
X142056620Y-141190381D01*
X142151858Y-141190381D01*
X142294715Y-141238000D01*
X142342334Y-141285619D01*
X143294715Y-142190381D02*
X142723286Y-142190381D01*
X143009000Y-142190381D02*
X143009000Y-141190381D01*
X142913762Y-141333238D01*
X142818524Y-141428476D01*
X142723286Y-141476095D01*
X145866143Y-131402666D02*
X145913762Y-131450285D01*
X145961381Y-131593142D01*
X145961381Y-131688380D01*
X145913762Y-131831238D01*
X145818524Y-131926476D01*
X145723286Y-131974095D01*
X145532810Y-132021714D01*
X145389952Y-132021714D01*
X145199476Y-131974095D01*
X145104238Y-131926476D01*
X145009000Y-131831238D01*
X144961381Y-131688380D01*
X144961381Y-131593142D01*
X145009000Y-131450285D01*
X145056619Y-131402666D01*
X145056619Y-131021714D02*
X145009000Y-130974095D01*
X144961381Y-130878857D01*
X144961381Y-130640761D01*
X145009000Y-130545523D01*
X145056619Y-130497904D01*
X145151857Y-130450285D01*
X145247095Y-130450285D01*
X145389952Y-130497904D01*
X145961381Y-131069333D01*
X145961381Y-130450285D01*
X142342334Y-134221143D02*
X142294715Y-134268762D01*
X142151858Y-134316381D01*
X142056620Y-134316381D01*
X141913762Y-134268762D01*
X141818524Y-134173524D01*
X141770905Y-134078286D01*
X141723286Y-133887810D01*
X141723286Y-133744952D01*
X141770905Y-133554476D01*
X141818524Y-133459238D01*
X141913762Y-133364000D01*
X142056620Y-133316381D01*
X142151858Y-133316381D01*
X142294715Y-133364000D01*
X142342334Y-133411619D01*
X142675667Y-133316381D02*
X143294715Y-133316381D01*
X142961381Y-133697333D01*
X143104239Y-133697333D01*
X143199477Y-133744952D01*
X143247096Y-133792571D01*
X143294715Y-133887810D01*
X143294715Y-134125905D01*
X143247096Y-134221143D01*
X143199477Y-134268762D01*
X143104239Y-134316381D01*
X142818524Y-134316381D01*
X142723286Y-134268762D01*
X142675667Y-134221143D01*
X163507143Y-163964285D02*
X163554762Y-164011904D01*
X163602381Y-164154761D01*
X163602381Y-164249999D01*
X163554762Y-164392857D01*
X163459524Y-164488095D01*
X163364286Y-164535714D01*
X163173810Y-164583333D01*
X163030952Y-164583333D01*
X162840476Y-164535714D01*
X162745238Y-164488095D01*
X162650000Y-164392857D01*
X162602381Y-164249999D01*
X162602381Y-164154761D01*
X162650000Y-164011904D01*
X162697619Y-163964285D01*
X162602381Y-163345238D02*
X162602381Y-163154761D01*
X162650000Y-163059523D01*
X162745238Y-162964285D01*
X162935714Y-162916666D01*
X163269048Y-162916666D01*
X163459524Y-162964285D01*
X163554762Y-163059523D01*
X163602381Y-163154761D01*
X163602381Y-163345238D01*
X163554762Y-163440476D01*
X163459524Y-163535714D01*
X163269048Y-163583333D01*
X162935714Y-163583333D01*
X162745238Y-163535714D01*
X162650000Y-163440476D01*
X162602381Y-163345238D01*
X163602381Y-162488095D02*
X162602381Y-162488095D01*
X163602381Y-161916666D01*
X162602381Y-161916666D01*
X163602381Y-160916666D02*
X163602381Y-161488095D01*
X163602381Y-161202381D02*
X162602381Y-161202381D01*
X162745238Y-161297619D01*
X162840476Y-161392857D01*
X162888095Y-161488095D01*
X150413381Y-143282095D02*
X149413381Y-143282095D01*
X149413381Y-143044000D01*
X149461000Y-142901142D01*
X149556238Y-142805904D01*
X149651476Y-142758285D01*
X149841952Y-142710666D01*
X149984810Y-142710666D01*
X150175286Y-142758285D01*
X150270524Y-142805904D01*
X150365762Y-142901142D01*
X150413381Y-143044000D01*
X150413381Y-143282095D01*
X150413381Y-141758285D02*
X150413381Y-142329714D01*
X150413381Y-142044000D02*
X149413381Y-142044000D01*
X149556238Y-142139238D01*
X149651476Y-142234476D01*
X149699095Y-142329714D01*
X108481905Y-89142381D02*
X108481905Y-88142381D01*
X108862858Y-88142381D01*
X108958096Y-88190000D01*
X109005715Y-88237619D01*
X109053334Y-88332857D01*
X109053334Y-88475714D01*
X109005715Y-88570952D01*
X108958096Y-88618571D01*
X108862858Y-88666190D01*
X108481905Y-88666190D01*
X110005715Y-89142381D02*
X109434286Y-89142381D01*
X109720000Y-89142381D02*
X109720000Y-88142381D01*
X109624762Y-88285238D01*
X109529524Y-88380476D01*
X109434286Y-88428095D01*
X108481905Y-112002381D02*
X108481905Y-111002381D01*
X108862858Y-111002381D01*
X108958096Y-111050000D01*
X109005715Y-111097619D01*
X109053334Y-111192857D01*
X109053334Y-111335714D01*
X109005715Y-111430952D01*
X108958096Y-111478571D01*
X108862858Y-111526190D01*
X108481905Y-111526190D01*
X109434286Y-111097619D02*
X109481905Y-111050000D01*
X109577143Y-111002381D01*
X109815239Y-111002381D01*
X109910477Y-111050000D01*
X109958096Y-111097619D01*
X110005715Y-111192857D01*
X110005715Y-111288095D01*
X109958096Y-111430952D01*
X109386667Y-112002381D01*
X110005715Y-112002381D01*
X108562905Y-138708381D02*
X108562905Y-137708381D01*
X108943858Y-137708381D01*
X109039096Y-137756000D01*
X109086715Y-137803619D01*
X109134334Y-137898857D01*
X109134334Y-138041714D01*
X109086715Y-138136952D01*
X109039096Y-138184571D01*
X108943858Y-138232190D01*
X108562905Y-138232190D01*
X109467667Y-137708381D02*
X110086715Y-137708381D01*
X109753381Y-138089333D01*
X109896239Y-138089333D01*
X109991477Y-138136952D01*
X110039096Y-138184571D01*
X110086715Y-138279810D01*
X110086715Y-138517905D01*
X110039096Y-138613143D01*
X109991477Y-138660762D01*
X109896239Y-138708381D01*
X109610524Y-138708381D01*
X109515286Y-138660762D01*
X109467667Y-138613143D01*
X109751905Y-154322381D02*
X109751905Y-153322381D01*
X110132858Y-153322381D01*
X110228096Y-153370000D01*
X110275715Y-153417619D01*
X110323334Y-153512857D01*
X110323334Y-153655714D01*
X110275715Y-153750952D01*
X110228096Y-153798571D01*
X110132858Y-153846190D01*
X109751905Y-153846190D01*
X111180477Y-153655714D02*
X111180477Y-154322381D01*
X110942381Y-153274762D02*
X110704286Y-153989048D01*
X111323334Y-153989048D01*
X118361905Y-164262381D02*
X118361905Y-163262381D01*
X118742858Y-163262381D01*
X118838096Y-163310000D01*
X118885715Y-163357619D01*
X118933334Y-163452857D01*
X118933334Y-163595714D01*
X118885715Y-163690952D01*
X118838096Y-163738571D01*
X118742858Y-163786190D01*
X118361905Y-163786190D01*
X119838096Y-163262381D02*
X119361905Y-163262381D01*
X119314286Y-163738571D01*
X119361905Y-163690952D01*
X119457143Y-163643333D01*
X119695239Y-163643333D01*
X119790477Y-163690952D01*
X119838096Y-163738571D01*
X119885715Y-163833810D01*
X119885715Y-164071905D01*
X119838096Y-164167143D01*
X119790477Y-164214762D01*
X119695239Y-164262381D01*
X119457143Y-164262381D01*
X119361905Y-164214762D01*
X119314286Y-164167143D01*
X124737905Y-116066381D02*
X124737905Y-115066381D01*
X125118858Y-115066381D01*
X125214096Y-115114000D01*
X125261715Y-115161619D01*
X125309334Y-115256857D01*
X125309334Y-115399714D01*
X125261715Y-115494952D01*
X125214096Y-115542571D01*
X125118858Y-115590190D01*
X124737905Y-115590190D01*
X126166477Y-115066381D02*
X125976000Y-115066381D01*
X125880762Y-115114000D01*
X125833143Y-115161619D01*
X125737905Y-115304476D01*
X125690286Y-115494952D01*
X125690286Y-115875905D01*
X125737905Y-115971143D01*
X125785524Y-116018762D01*
X125880762Y-116066381D01*
X126071239Y-116066381D01*
X126166477Y-116018762D01*
X126214096Y-115971143D01*
X126261715Y-115875905D01*
X126261715Y-115637810D01*
X126214096Y-115542571D01*
X126166477Y-115494952D01*
X126071239Y-115447333D01*
X125880762Y-115447333D01*
X125785524Y-115494952D01*
X125737905Y-115542571D01*
X125690286Y-115637810D01*
X120961905Y-161786381D02*
X120961905Y-160786381D01*
X121342858Y-160786381D01*
X121438096Y-160834000D01*
X121485715Y-160881619D01*
X121533334Y-160976857D01*
X121533334Y-161119714D01*
X121485715Y-161214952D01*
X121438096Y-161262571D01*
X121342858Y-161310190D01*
X120961905Y-161310190D01*
X121866667Y-160786381D02*
X122533334Y-160786381D01*
X122104762Y-161786381D01*
X124737905Y-149086381D02*
X124737905Y-148086381D01*
X125118858Y-148086381D01*
X125214096Y-148134000D01*
X125261715Y-148181619D01*
X125309334Y-148276857D01*
X125309334Y-148419714D01*
X125261715Y-148514952D01*
X125214096Y-148562571D01*
X125118858Y-148610190D01*
X124737905Y-148610190D01*
X125880762Y-148514952D02*
X125785524Y-148467333D01*
X125737905Y-148419714D01*
X125690286Y-148324476D01*
X125690286Y-148276857D01*
X125737905Y-148181619D01*
X125785524Y-148134000D01*
X125880762Y-148086381D01*
X126071239Y-148086381D01*
X126166477Y-148134000D01*
X126214096Y-148181619D01*
X126261715Y-148276857D01*
X126261715Y-148324476D01*
X126214096Y-148419714D01*
X126166477Y-148467333D01*
X126071239Y-148514952D01*
X125880762Y-148514952D01*
X125785524Y-148562571D01*
X125737905Y-148610190D01*
X125690286Y-148705429D01*
X125690286Y-148895905D01*
X125737905Y-148991143D01*
X125785524Y-149038762D01*
X125880762Y-149086381D01*
X126071239Y-149086381D01*
X126166477Y-149038762D01*
X126214096Y-148991143D01*
X126261715Y-148895905D01*
X126261715Y-148705429D01*
X126214096Y-148610190D01*
X126166477Y-148562571D01*
X126071239Y-148514952D01*
X130198905Y-155500381D02*
X130198905Y-154500381D01*
X130579858Y-154500381D01*
X130675096Y-154548000D01*
X130722715Y-154595619D01*
X130770334Y-154690857D01*
X130770334Y-154833714D01*
X130722715Y-154928952D01*
X130675096Y-154976571D01*
X130579858Y-155024190D01*
X130198905Y-155024190D01*
X131246524Y-155500381D02*
X131437000Y-155500381D01*
X131532239Y-155452762D01*
X131579858Y-155405143D01*
X131675096Y-155262286D01*
X131722715Y-155071810D01*
X131722715Y-154690857D01*
X131675096Y-154595619D01*
X131627477Y-154548000D01*
X131532239Y-154500381D01*
X131341762Y-154500381D01*
X131246524Y-154548000D01*
X131198905Y-154595619D01*
X131151286Y-154690857D01*
X131151286Y-154928952D01*
X131198905Y-155024190D01*
X131246524Y-155071810D01*
X131341762Y-155119429D01*
X131532239Y-155119429D01*
X131627477Y-155071810D01*
X131675096Y-155024190D01*
X131722715Y-154928952D01*
X107342381Y-60444286D02*
X106342381Y-60444286D01*
X106342381Y-60063333D01*
X106390000Y-59968095D01*
X106437619Y-59920476D01*
X106532857Y-59872857D01*
X106675714Y-59872857D01*
X106770952Y-59920476D01*
X106818571Y-59968095D01*
X106866190Y-60063333D01*
X106866190Y-60444286D01*
X107342381Y-58920476D02*
X107342381Y-59491905D01*
X107342381Y-59206191D02*
X106342381Y-59206191D01*
X106485238Y-59301429D01*
X106580476Y-59396667D01*
X106628095Y-59491905D01*
X106342381Y-58301429D02*
X106342381Y-58206190D01*
X106390000Y-58110952D01*
X106437619Y-58063333D01*
X106532857Y-58015714D01*
X106723333Y-57968095D01*
X106961429Y-57968095D01*
X107151905Y-58015714D01*
X107247143Y-58063333D01*
X107294762Y-58110952D01*
X107342381Y-58206190D01*
X107342381Y-58301429D01*
X107294762Y-58396667D01*
X107247143Y-58444286D01*
X107151905Y-58491905D01*
X106961429Y-58539524D01*
X106723333Y-58539524D01*
X106532857Y-58491905D01*
X106437619Y-58444286D01*
X106390000Y-58396667D01*
X106342381Y-58301429D01*
X133151714Y-164326381D02*
X133151714Y-163326381D01*
X133532667Y-163326381D01*
X133627905Y-163374000D01*
X133675524Y-163421619D01*
X133723143Y-163516857D01*
X133723143Y-163659714D01*
X133675524Y-163754952D01*
X133627905Y-163802571D01*
X133532667Y-163850190D01*
X133151714Y-163850190D01*
X134675524Y-164326381D02*
X134104095Y-164326381D01*
X134389809Y-164326381D02*
X134389809Y-163326381D01*
X134294571Y-163469238D01*
X134199333Y-163564476D01*
X134104095Y-163612095D01*
X135627905Y-164326381D02*
X135056476Y-164326381D01*
X135342190Y-164326381D02*
X135342190Y-163326381D01*
X135246952Y-163469238D01*
X135151714Y-163564476D01*
X135056476Y-163612095D01*
X156265714Y-83554381D02*
X156265714Y-82554381D01*
X156646667Y-82554381D01*
X156741905Y-82602000D01*
X156789524Y-82649619D01*
X156837143Y-82744857D01*
X156837143Y-82887714D01*
X156789524Y-82982952D01*
X156741905Y-83030571D01*
X156646667Y-83078190D01*
X156265714Y-83078190D01*
X157789524Y-83554381D02*
X157218095Y-83554381D01*
X157503809Y-83554381D02*
X157503809Y-82554381D01*
X157408571Y-82697238D01*
X157313333Y-82792476D01*
X157218095Y-82840095D01*
X158170476Y-82649619D02*
X158218095Y-82602000D01*
X158313333Y-82554381D01*
X158551429Y-82554381D01*
X158646667Y-82602000D01*
X158694286Y-82649619D01*
X158741905Y-82744857D01*
X158741905Y-82840095D01*
X158694286Y-82982952D01*
X158122857Y-83554381D01*
X158741905Y-83554381D01*
X156265714Y-106922381D02*
X156265714Y-105922381D01*
X156646667Y-105922381D01*
X156741905Y-105970000D01*
X156789524Y-106017619D01*
X156837143Y-106112857D01*
X156837143Y-106255714D01*
X156789524Y-106350952D01*
X156741905Y-106398571D01*
X156646667Y-106446190D01*
X156265714Y-106446190D01*
X157789524Y-106922381D02*
X157218095Y-106922381D01*
X157503809Y-106922381D02*
X157503809Y-105922381D01*
X157408571Y-106065238D01*
X157313333Y-106160476D01*
X157218095Y-106208095D01*
X158122857Y-105922381D02*
X158741905Y-105922381D01*
X158408571Y-106303333D01*
X158551429Y-106303333D01*
X158646667Y-106350952D01*
X158694286Y-106398571D01*
X158741905Y-106493810D01*
X158741905Y-106731905D01*
X158694286Y-106827143D01*
X158646667Y-106874762D01*
X158551429Y-106922381D01*
X158265714Y-106922381D01*
X158170476Y-106874762D01*
X158122857Y-106827143D01*
X156265714Y-129782381D02*
X156265714Y-128782381D01*
X156646667Y-128782381D01*
X156741905Y-128830000D01*
X156789524Y-128877619D01*
X156837143Y-128972857D01*
X156837143Y-129115714D01*
X156789524Y-129210952D01*
X156741905Y-129258571D01*
X156646667Y-129306190D01*
X156265714Y-129306190D01*
X157789524Y-129782381D02*
X157218095Y-129782381D01*
X157503809Y-129782381D02*
X157503809Y-128782381D01*
X157408571Y-128925238D01*
X157313333Y-129020476D01*
X157218095Y-129068095D01*
X158646667Y-129115714D02*
X158646667Y-129782381D01*
X158408571Y-128734762D02*
X158170476Y-129449048D01*
X158789524Y-129449048D01*
X124261714Y-126226381D02*
X124261714Y-125226381D01*
X124642667Y-125226381D01*
X124737905Y-125274000D01*
X124785524Y-125321619D01*
X124833143Y-125416857D01*
X124833143Y-125559714D01*
X124785524Y-125654952D01*
X124737905Y-125702571D01*
X124642667Y-125750190D01*
X124261714Y-125750190D01*
X125785524Y-126226381D02*
X125214095Y-126226381D01*
X125499809Y-126226381D02*
X125499809Y-125226381D01*
X125404571Y-125369238D01*
X125309333Y-125464476D01*
X125214095Y-125512095D01*
X126690286Y-125226381D02*
X126214095Y-125226381D01*
X126166476Y-125702571D01*
X126214095Y-125654952D01*
X126309333Y-125607333D01*
X126547429Y-125607333D01*
X126642667Y-125654952D01*
X126690286Y-125702571D01*
X126737905Y-125797810D01*
X126737905Y-126035905D01*
X126690286Y-126131143D01*
X126642667Y-126178762D01*
X126547429Y-126226381D01*
X126309333Y-126226381D01*
X126214095Y-126178762D01*
X126166476Y-126131143D01*
X119788381Y-117038286D02*
X118788381Y-117038286D01*
X118788381Y-116657333D01*
X118836000Y-116562095D01*
X118883619Y-116514476D01*
X118978857Y-116466857D01*
X119121714Y-116466857D01*
X119216952Y-116514476D01*
X119264571Y-116562095D01*
X119312190Y-116657333D01*
X119312190Y-117038286D01*
X119788381Y-115514476D02*
X119788381Y-116085905D01*
X119788381Y-115800191D02*
X118788381Y-115800191D01*
X118931238Y-115895429D01*
X119026476Y-115990667D01*
X119074095Y-116085905D01*
X118788381Y-114657333D02*
X118788381Y-114847810D01*
X118836000Y-114943048D01*
X118883619Y-114990667D01*
X119026476Y-115085905D01*
X119216952Y-115133524D01*
X119597905Y-115133524D01*
X119693143Y-115085905D01*
X119740762Y-115038286D01*
X119788381Y-114943048D01*
X119788381Y-114752571D01*
X119740762Y-114657333D01*
X119693143Y-114609714D01*
X119597905Y-114562095D01*
X119359810Y-114562095D01*
X119264571Y-114609714D01*
X119216952Y-114657333D01*
X119169333Y-114752571D01*
X119169333Y-114943048D01*
X119216952Y-115038286D01*
X119264571Y-115085905D01*
X119359810Y-115133524D01*
X149748381Y-160044905D02*
X150557905Y-160044905D01*
X150653143Y-159997286D01*
X150700762Y-159949667D01*
X150748381Y-159854429D01*
X150748381Y-159663952D01*
X150700762Y-159568714D01*
X150653143Y-159521095D01*
X150557905Y-159473476D01*
X149748381Y-159473476D01*
X150748381Y-158473476D02*
X150748381Y-159044905D01*
X150748381Y-158759191D02*
X149748381Y-158759191D01*
X149891238Y-158854429D01*
X149986476Y-158949667D01*
X150034095Y-159044905D01*
X101536667Y-158646762D02*
X101679524Y-158694381D01*
X101917620Y-158694381D01*
X102012858Y-158646762D01*
X102060477Y-158599143D01*
X102108096Y-158503905D01*
X102108096Y-158408667D01*
X102060477Y-158313429D01*
X102012858Y-158265810D01*
X101917620Y-158218190D01*
X101727143Y-158170571D01*
X101631905Y-158122952D01*
X101584286Y-158075333D01*
X101536667Y-157980095D01*
X101536667Y-157884857D01*
X101584286Y-157789619D01*
X101631905Y-157742000D01*
X101727143Y-157694381D01*
X101965239Y-157694381D01*
X102108096Y-157742000D01*
X102441429Y-157694381D02*
X102679524Y-158694381D01*
X102870001Y-157980095D01*
X103060477Y-158694381D01*
X103298572Y-157694381D01*
X103584286Y-157694381D02*
X104203334Y-157694381D01*
X103870000Y-158075333D01*
X104012858Y-158075333D01*
X104108096Y-158122952D01*
X104155715Y-158170571D01*
X104203334Y-158265810D01*
X104203334Y-158503905D01*
X104155715Y-158599143D01*
X104108096Y-158646762D01*
X104012858Y-158694381D01*
X103727143Y-158694381D01*
X103631905Y-158646762D01*
X103584286Y-158599143D01*
X101282667Y-149248762D02*
X101425524Y-149296381D01*
X101663620Y-149296381D01*
X101758858Y-149248762D01*
X101806477Y-149201143D01*
X101854096Y-149105905D01*
X101854096Y-149010667D01*
X101806477Y-148915429D01*
X101758858Y-148867810D01*
X101663620Y-148820190D01*
X101473143Y-148772571D01*
X101377905Y-148724952D01*
X101330286Y-148677333D01*
X101282667Y-148582095D01*
X101282667Y-148486857D01*
X101330286Y-148391619D01*
X101377905Y-148344000D01*
X101473143Y-148296381D01*
X101711239Y-148296381D01*
X101854096Y-148344000D01*
X102187429Y-148296381D02*
X102425524Y-149296381D01*
X102616001Y-148582095D01*
X102806477Y-149296381D01*
X103044572Y-148296381D01*
X103377905Y-148391619D02*
X103425524Y-148344000D01*
X103520762Y-148296381D01*
X103758858Y-148296381D01*
X103854096Y-148344000D01*
X103901715Y-148391619D01*
X103949334Y-148486857D01*
X103949334Y-148582095D01*
X103901715Y-148724952D01*
X103330286Y-149296381D01*
X103949334Y-149296381D01*
X115212762Y-160083333D02*
X115260381Y-159940476D01*
X115260381Y-159702380D01*
X115212762Y-159607142D01*
X115165143Y-159559523D01*
X115069905Y-159511904D01*
X114974667Y-159511904D01*
X114879429Y-159559523D01*
X114831810Y-159607142D01*
X114784190Y-159702380D01*
X114736571Y-159892857D01*
X114688952Y-159988095D01*
X114641333Y-160035714D01*
X114546095Y-160083333D01*
X114450857Y-160083333D01*
X114355619Y-160035714D01*
X114308000Y-159988095D01*
X114260381Y-159892857D01*
X114260381Y-159654761D01*
X114308000Y-159511904D01*
X114260381Y-159178571D02*
X115260381Y-158940476D01*
X114546095Y-158749999D01*
X115260381Y-158559523D01*
X114260381Y-158321428D01*
X115260381Y-157416666D02*
X115260381Y-157988095D01*
X115260381Y-157702381D02*
X114260381Y-157702381D01*
X114403238Y-157797619D01*
X114498476Y-157892857D01*
X114546095Y-157988095D01*
X132528571Y-96185714D02*
X132576190Y-96042857D01*
X132623810Y-95995238D01*
X132719048Y-95947619D01*
X132861905Y-95947619D01*
X132957143Y-95995238D01*
X133004762Y-96042857D01*
X133052381Y-96138095D01*
X133052381Y-96519048D01*
X132052381Y-96519048D01*
X132052381Y-96185714D01*
X132100000Y-96090476D01*
X132147619Y-96042857D01*
X132242857Y-95995238D01*
X132338095Y-95995238D01*
X132433333Y-96042857D01*
X132480952Y-96090476D01*
X132528571Y-96185714D01*
X132528571Y-96519048D01*
X132052381Y-95661905D02*
X132052381Y-95090476D01*
X133052381Y-95376191D02*
X132052381Y-95376191D01*
X133052381Y-94233333D02*
X133052381Y-94804762D01*
X133052381Y-94519048D02*
X132052381Y-94519048D01*
X132195238Y-94614286D01*
X132290476Y-94709524D01*
X132338095Y-94804762D01*
X137007143Y-93221428D02*
X137007143Y-92078571D01*
X137578571Y-92650000D02*
X136435714Y-92650000D01*
X107952381Y-60652381D02*
X107619047Y-60176190D01*
X107380952Y-60652381D02*
X107380952Y-59652381D01*
X107761905Y-59652381D01*
X107857143Y-59700000D01*
X107904762Y-59747619D01*
X107952381Y-59842857D01*
X107952381Y-59985714D01*
X107904762Y-60080952D01*
X107857143Y-60128571D01*
X107761905Y-60176190D01*
X107380952Y-60176190D01*
X108380952Y-60128571D02*
X108714286Y-60128571D01*
X108857143Y-60652381D02*
X108380952Y-60652381D01*
X108380952Y-59652381D01*
X108857143Y-59652381D01*
X109619048Y-60128571D02*
X109285714Y-60128571D01*
X109285714Y-60652381D02*
X109285714Y-59652381D01*
X109761905Y-59652381D01*
X110666667Y-60652381D02*
X110095238Y-60652381D01*
X110380952Y-60652381D02*
X110380952Y-59652381D01*
X110285714Y-59795238D01*
X110190476Y-59890476D01*
X110095238Y-59938095D01*
X155114667Y-132040381D02*
X155114667Y-132754667D01*
X155067047Y-132897524D01*
X154971809Y-132992762D01*
X154828952Y-133040381D01*
X154733714Y-133040381D01*
X155543238Y-132135619D02*
X155590857Y-132088000D01*
X155686095Y-132040381D01*
X155924191Y-132040381D01*
X156019429Y-132088000D01*
X156067048Y-132135619D01*
X156114667Y-132230857D01*
X156114667Y-132326095D01*
X156067048Y-132468952D01*
X155495619Y-133040381D01*
X156114667Y-133040381D01*
M02*
