M48
;DRILL file {KiCad 4.0.4-stable} date 01/06/17 20:43:17
;FORMAT={-:-/ absolute / metric / decimal}
FMAT,2
METRIC,TZ
T1C0.400
T2C0.813
T3C1.001
T4C1.016
T5C1.300
T6C2.301
T7C3.200
%
G90
G05
M71
T1
X117.347Y-73.487
T2
X103.124Y-116.332
X103.124Y-121.412
X110.744Y-116.332
X110.744Y-121.412
X114.554Y-116.332
X114.554Y-121.412
X122.174Y-116.332
X122.174Y-121.412
T3
X103.124Y-45.085
X105.664Y-45.085
X107.696Y-45.085
X110.236Y-45.085
T4
X73.914Y-116.332
X73.914Y-120.142
X76.2Y-50.8
X76.2Y-53.34
X76.2Y-55.88
X76.2Y-58.42
X76.2Y-60.96
X76.2Y-68.58
X76.2Y-71.12
X76.2Y-73.66
X76.2Y-76.2
X76.2Y-87.63
X76.2Y-90.17
X76.2Y-92.71
X76.2Y-99.314
X76.2Y-101.854
X76.2Y-104.394
X76.2Y-106.934
X76.2Y-109.474
X76.454Y-116.332
X76.454Y-120.142
X78.994Y-116.332
X78.994Y-120.142
X81.534Y-116.332
X81.534Y-120.142
X84.074Y-116.332
X84.074Y-120.142
X85.09Y-53.34
X85.09Y-55.88
X85.09Y-58.42
X85.09Y-60.96
X85.09Y-63.5
X85.09Y-66.04
X85.09Y-68.58
X85.09Y-71.12
X85.09Y-73.66
X85.09Y-76.2
X85.09Y-78.74
X85.09Y-81.28
X85.09Y-83.82
X85.09Y-88.9
X85.09Y-91.44
X85.09Y-93.98
X85.09Y-96.52
X85.09Y-99.06
X85.09Y-101.6
X85.09Y-104.14
X85.09Y-106.68
X85.09Y-109.22
X86.614Y-116.332
X86.614Y-120.142
X87.63Y-53.34
X87.63Y-55.88
X87.63Y-58.42
X87.63Y-60.96
X87.63Y-63.5
X87.63Y-66.04
X87.63Y-68.58
X87.63Y-71.12
X87.63Y-73.66
X87.63Y-76.2
X87.63Y-78.74
X87.63Y-81.28
X87.63Y-83.82
X87.63Y-88.9
X87.63Y-91.44
X87.63Y-93.98
X87.63Y-96.52
X87.63Y-99.06
X87.63Y-101.6
X87.63Y-104.14
X87.63Y-106.68
X87.63Y-109.22
X89.154Y-116.332
X89.154Y-120.142
X90.17Y-50.8
X90.17Y-53.34
X90.17Y-55.88
X90.17Y-58.42
X90.17Y-60.96
X90.17Y-63.5
X90.17Y-66.04
X90.17Y-68.58
X90.17Y-71.12
X90.17Y-73.66
X90.17Y-76.2
X90.17Y-78.74
X90.17Y-81.28
X90.17Y-83.82
X90.17Y-86.36
X90.17Y-88.9
X90.17Y-91.44
X90.17Y-93.98
X90.17Y-96.52
X90.17Y-99.06
X90.17Y-101.6
X90.17Y-104.14
X90.17Y-106.68
X90.17Y-109.22
X91.694Y-116.332
X91.694Y-120.142
X92.71Y-86.36
X94.234Y-116.332
X94.234Y-120.142
X95.25Y-86.36
X96.774Y-116.332
X96.774Y-120.142
X97.79Y-86.36
X104.14Y-50.8
X104.14Y-53.34
X104.14Y-55.88
X104.14Y-58.42
X104.14Y-60.96
X104.14Y-63.5
X104.14Y-66.04
X104.14Y-68.58
X104.14Y-71.12
X104.14Y-73.66
X104.14Y-76.2
X104.14Y-78.74
X104.14Y-81.28
X104.14Y-83.82
X104.14Y-86.36
X104.14Y-88.9
X104.14Y-91.44
X104.14Y-93.98
X104.14Y-96.52
X104.14Y-99.06
X104.14Y-101.6
X104.14Y-104.14
X104.14Y-106.68
X104.14Y-109.22
X106.68Y-96.52
X107.95Y-57.404
X107.95Y-59.944
X107.95Y-62.484
X107.95Y-65.024
X107.95Y-67.564
X109.22Y-96.52
X111.76Y-66.04
X111.76Y-68.58
X111.76Y-71.12
X111.76Y-73.66
X111.76Y-88.9
X111.76Y-91.44
X111.76Y-93.98
X111.76Y-96.52
X111.76Y-99.06
X111.76Y-101.6
X111.76Y-104.14
X111.76Y-106.68
X111.76Y-109.22
X114.3Y-66.04
X114.3Y-68.58
X114.3Y-71.12
X114.3Y-73.66
X114.3Y-88.9
X114.3Y-91.44
X114.3Y-93.98
X114.3Y-96.52
X114.3Y-99.06
X114.3Y-101.6
X114.3Y-104.14
X114.3Y-106.68
X114.3Y-109.22
X116.84Y-53.34
X116.84Y-58.42
X116.84Y-60.96
X116.84Y-63.5
X116.84Y-96.52
X119.38Y-50.8
X119.38Y-53.34
X119.38Y-55.88
X119.38Y-58.42
X119.38Y-60.96
X119.38Y-63.5
X119.38Y-66.04
X119.38Y-68.58
X119.38Y-71.12
X119.38Y-73.66
X119.38Y-76.2
X119.38Y-78.74
X119.38Y-81.28
X119.38Y-83.82
X119.38Y-86.36
X119.38Y-88.9
X119.38Y-91.44
X119.38Y-93.98
X119.38Y-96.52
X119.38Y-99.06
X119.38Y-101.6
X119.38Y-104.14
X119.38Y-106.68
X119.38Y-109.22
X125.73Y-86.36
X128.27Y-86.36
X129.794Y-116.332
X129.794Y-120.142
X130.81Y-86.36
X132.08Y-38.1
X132.334Y-116.332
X132.334Y-120.142
X133.35Y-50.8
X133.35Y-53.34
X133.35Y-55.88
X133.35Y-58.42
X133.35Y-60.96
X133.35Y-63.5
X133.35Y-66.04
X133.35Y-68.58
X133.35Y-71.12
X133.35Y-73.66
X133.35Y-76.2
X133.35Y-78.74
X133.35Y-81.28
X133.35Y-83.82
X133.35Y-86.36
X133.35Y-88.9
X133.35Y-91.44
X133.35Y-93.98
X133.35Y-96.52
X133.35Y-99.06
X133.35Y-101.6
X133.35Y-104.14
X133.35Y-106.68
X133.35Y-109.22
X134.62Y-38.1
X134.874Y-116.332
X134.874Y-120.142
X135.89Y-53.34
X135.89Y-55.88
X135.89Y-58.42
X135.89Y-60.96
X135.89Y-63.5
X135.89Y-66.04
X135.89Y-68.58
X135.89Y-71.12
X135.89Y-73.66
X135.89Y-76.2
X135.89Y-78.74
X135.89Y-81.28
X135.89Y-83.82
X135.89Y-88.9
X135.89Y-91.44
X135.89Y-93.98
X135.89Y-96.52
X135.89Y-99.06
X135.89Y-101.6
X135.89Y-104.14
X135.89Y-106.68
X135.89Y-109.22
X137.16Y-38.1
X137.414Y-116.332
X137.414Y-120.142
X138.43Y-53.34
X138.43Y-55.88
X138.43Y-58.42
X138.43Y-60.96
X138.43Y-63.5
X138.43Y-66.04
X138.43Y-68.58
X138.43Y-71.12
X138.43Y-73.66
X138.43Y-76.2
X138.43Y-78.74
X138.43Y-81.28
X138.43Y-83.82
X138.43Y-88.9
X138.43Y-91.44
X138.43Y-93.98
X138.43Y-96.52
X138.43Y-99.06
X138.43Y-101.6
X138.43Y-104.14
X138.43Y-106.68
X138.43Y-109.22
X139.954Y-116.332
X139.954Y-120.142
X142.494Y-116.332
X142.494Y-120.142
X145.034Y-116.332
X145.034Y-120.142
X147.32Y-41.91
X147.32Y-44.45
X147.32Y-59.69
X147.32Y-62.23
X147.32Y-64.77
X147.32Y-67.31
X147.32Y-69.85
X147.32Y-72.39
X147.32Y-74.93
X147.32Y-86.36
X147.32Y-88.9
X147.32Y-91.44
X147.32Y-97.79
X147.32Y-100.33
X147.32Y-102.87
X147.32Y-105.41
X147.32Y-107.95
X147.574Y-116.332
X147.574Y-120.142
X150.114Y-116.332
X150.114Y-120.142
X152.654Y-116.332
X152.654Y-120.142
T5
X77.627Y-40.64
X82.629Y-36.84
X87.63Y-40.64
T6
X100.076Y-42.418
X113.792Y-42.418
T7
X70.104Y-126.492
X70.866Y-45.974
X153.67Y-36.83
X154.432Y-126.238
T0
M30
