G04 #@! TF.FileFunction,Other,User*
%FSLAX46Y46*%
G04 Gerber Fmt 4.6, Leading zero omitted, Abs format (unit mm)*
G04 Created by KiCad (PCBNEW 4.0.4-stable) date 01/06/17 20:43:13*
%MOMM*%
%LPD*%
G01*
G04 APERTURE LIST*
%ADD10C,0.100000*%
%ADD11C,0.050000*%
G04 APERTURE END LIST*
D10*
D11*
X128044000Y-121892000D02*
X154444000Y-121892000D01*
X128044000Y-118392000D02*
X154444000Y-118392000D01*
X128044000Y-121892000D02*
X128044000Y-118392000D01*
X154444000Y-121892000D02*
X154444000Y-118392000D01*
X72164000Y-121892000D02*
X98564000Y-121892000D01*
X72164000Y-118392000D02*
X98564000Y-118392000D01*
X72164000Y-121892000D02*
X72164000Y-118392000D01*
X98564000Y-121892000D02*
X98564000Y-118392000D01*
X72164000Y-118082000D02*
X98564000Y-118082000D01*
X72164000Y-114582000D02*
X98564000Y-114582000D01*
X72164000Y-118082000D02*
X72164000Y-114582000D01*
X98564000Y-118082000D02*
X98564000Y-114582000D01*
X83340000Y-51590000D02*
X83340000Y-85590000D01*
X86840000Y-51590000D02*
X86840000Y-85590000D01*
X83340000Y-51590000D02*
X86840000Y-51590000D01*
X83340000Y-85590000D02*
X86840000Y-85590000D01*
X83340000Y-87150000D02*
X83340000Y-111000000D01*
X86840000Y-87150000D02*
X86840000Y-111000000D01*
X83340000Y-87150000D02*
X86840000Y-87150000D01*
X83340000Y-111000000D02*
X86840000Y-111000000D01*
X85880000Y-51590000D02*
X85880000Y-85590000D01*
X89380000Y-51590000D02*
X89380000Y-85590000D01*
X85880000Y-51590000D02*
X89380000Y-51590000D01*
X85880000Y-85590000D02*
X89380000Y-85590000D01*
X85880000Y-87150000D02*
X85880000Y-111000000D01*
X89380000Y-87150000D02*
X89380000Y-111000000D01*
X85880000Y-87150000D02*
X89380000Y-87150000D01*
X85880000Y-111000000D02*
X89380000Y-111000000D01*
X90960000Y-88110000D02*
X99560000Y-88110000D01*
X90960000Y-84610000D02*
X99560000Y-84610000D01*
X90960000Y-88110000D02*
X90960000Y-84610000D01*
X99560000Y-88110000D02*
X99560000Y-84610000D01*
X132560000Y-84610000D02*
X123960000Y-84610000D01*
X132560000Y-88110000D02*
X123960000Y-88110000D01*
X132560000Y-84610000D02*
X132560000Y-88110000D01*
X123960000Y-84610000D02*
X123960000Y-88110000D01*
X130330000Y-39850000D02*
X138930000Y-39850000D01*
X130330000Y-36350000D02*
X138930000Y-36350000D01*
X130330000Y-39850000D02*
X130330000Y-36350000D01*
X138930000Y-39850000D02*
X138930000Y-36350000D01*
X88420000Y-49050000D02*
X88420000Y-111000000D01*
X91920000Y-49050000D02*
X91920000Y-111000000D01*
X88420000Y-49050000D02*
X91920000Y-49050000D01*
X88420000Y-111000000D02*
X91920000Y-111000000D01*
X105890000Y-49050000D02*
X102390000Y-49050000D01*
X105890000Y-111000000D02*
X102390000Y-111000000D01*
X105890000Y-49050000D02*
X105890000Y-111000000D01*
X102390000Y-49050000D02*
X102390000Y-111000000D01*
X74450000Y-85880000D02*
X74450000Y-94480000D01*
X77950000Y-85880000D02*
X77950000Y-94480000D01*
X74450000Y-85880000D02*
X77950000Y-85880000D01*
X74450000Y-94480000D02*
X77950000Y-94480000D01*
X121130000Y-49050000D02*
X117630000Y-49050000D01*
X121130000Y-111000000D02*
X117630000Y-111000000D01*
X121130000Y-49050000D02*
X121130000Y-111000000D01*
X117630000Y-49050000D02*
X117630000Y-111000000D01*
X131600000Y-49050000D02*
X131600000Y-111000000D01*
X135100000Y-49050000D02*
X135100000Y-111000000D01*
X131600000Y-49050000D02*
X135100000Y-49050000D01*
X131600000Y-111000000D02*
X135100000Y-111000000D01*
X134140000Y-51590000D02*
X134140000Y-85590000D01*
X137640000Y-51590000D02*
X137640000Y-85590000D01*
X134140000Y-51590000D02*
X137640000Y-51590000D01*
X134140000Y-85590000D02*
X137640000Y-85590000D01*
X134140000Y-87150000D02*
X134140000Y-111000000D01*
X137640000Y-87150000D02*
X137640000Y-111000000D01*
X134140000Y-87150000D02*
X137640000Y-87150000D01*
X134140000Y-111000000D02*
X137640000Y-111000000D01*
X136680000Y-51590000D02*
X136680000Y-85590000D01*
X140180000Y-51590000D02*
X140180000Y-85590000D01*
X136680000Y-51590000D02*
X140180000Y-51590000D01*
X136680000Y-85590000D02*
X140180000Y-85590000D01*
X136680000Y-87150000D02*
X136680000Y-111000000D01*
X140180000Y-87150000D02*
X140180000Y-111000000D01*
X136680000Y-87150000D02*
X140180000Y-87150000D01*
X136680000Y-111000000D02*
X140180000Y-111000000D01*
X115090000Y-65250000D02*
X118590000Y-65250000D01*
X115090000Y-56650000D02*
X118590000Y-56650000D01*
X115090000Y-65250000D02*
X115090000Y-56650000D01*
X118590000Y-65250000D02*
X118590000Y-56650000D01*
X77950000Y-77950000D02*
X77950000Y-66800000D01*
X74450000Y-77950000D02*
X74450000Y-66800000D01*
X77950000Y-77950000D02*
X74450000Y-77950000D01*
X77950000Y-66800000D02*
X74450000Y-66800000D01*
X116050000Y-64290000D02*
X110000000Y-64290000D01*
X116050000Y-75440000D02*
X110000000Y-75440000D01*
X116050000Y-64290000D02*
X116050000Y-75440000D01*
X110000000Y-64290000D02*
X110000000Y-75440000D01*
X110010000Y-95730000D02*
X116060000Y-95730000D01*
X110010000Y-87130000D02*
X116060000Y-87130000D01*
X110010000Y-95730000D02*
X110010000Y-87130000D01*
X116060000Y-95730000D02*
X116060000Y-87130000D01*
X110010000Y-110970000D02*
X116060000Y-110970000D01*
X110010000Y-97270000D02*
X116060000Y-97270000D01*
X110010000Y-110970000D02*
X110010000Y-97270000D01*
X116060000Y-110970000D02*
X116060000Y-97270000D01*
X115090000Y-51590000D02*
X115090000Y-55090000D01*
X118590000Y-51590000D02*
X118590000Y-55090000D01*
X115090000Y-51590000D02*
X118590000Y-51590000D01*
X115090000Y-55090000D02*
X118590000Y-55090000D01*
X145570000Y-40160000D02*
X145570000Y-46210000D01*
X149070000Y-40160000D02*
X149070000Y-46210000D01*
X145570000Y-40160000D02*
X149070000Y-40160000D01*
X145570000Y-46210000D02*
X149070000Y-46210000D01*
X145570000Y-57940000D02*
X145570000Y-76690000D01*
X149070000Y-57940000D02*
X149070000Y-76690000D01*
X145570000Y-57940000D02*
X149070000Y-57940000D01*
X145570000Y-76690000D02*
X149070000Y-76690000D01*
X74450000Y-97564000D02*
X74450000Y-111264000D01*
X77950000Y-97564000D02*
X77950000Y-111264000D01*
X74450000Y-97564000D02*
X77950000Y-97564000D01*
X74450000Y-111264000D02*
X77950000Y-111264000D01*
X118590000Y-98270000D02*
X118590000Y-94770000D01*
X104890000Y-98270000D02*
X104890000Y-94770000D01*
X118590000Y-98270000D02*
X104890000Y-98270000D01*
X118590000Y-94770000D02*
X104890000Y-94770000D01*
X149070000Y-109700000D02*
X149070000Y-96000000D01*
X145570000Y-109700000D02*
X145570000Y-96000000D01*
X149070000Y-109700000D02*
X145570000Y-109700000D01*
X149070000Y-96000000D02*
X145570000Y-96000000D01*
X128044000Y-118082000D02*
X154444000Y-118082000D01*
X128044000Y-114582000D02*
X154444000Y-114582000D01*
X128044000Y-118082000D02*
X128044000Y-114582000D01*
X154444000Y-118082000D02*
X154444000Y-114582000D01*
X149070000Y-93190000D02*
X149070000Y-84590000D01*
X145570000Y-93190000D02*
X145570000Y-84590000D01*
X149070000Y-93190000D02*
X145570000Y-93190000D01*
X149070000Y-84590000D02*
X145570000Y-84590000D01*
X109700000Y-55654000D02*
X106200000Y-55654000D01*
X109700000Y-69354000D02*
X106200000Y-69354000D01*
X109700000Y-55654000D02*
X109700000Y-69354000D01*
X106200000Y-55654000D02*
X106200000Y-69354000D01*
X77950000Y-62710000D02*
X77950000Y-49010000D01*
X74450000Y-62710000D02*
X74450000Y-49010000D01*
X77950000Y-62710000D02*
X74450000Y-62710000D01*
X77950000Y-49010000D02*
X74450000Y-49010000D01*
X115537000Y-31882900D02*
X115537000Y-46482900D01*
X98287000Y-46482900D02*
X98287000Y-31882900D01*
X115537000Y-31882900D02*
X98287000Y-31882900D01*
X115537000Y-46482900D02*
X98287000Y-46482900D01*
M02*
