G04 #@! TF.FileFunction,Copper,L1,Top,Signal*
%FSLAX46Y46*%
G04 Gerber Fmt 4.6, Leading zero omitted, Abs format (unit mm)*
G04 Created by KiCad (PCBNEW 4.0.4-stable) date 01/06/17 20:43:12*
%MOMM*%
%LPD*%
G01*
G04 APERTURE LIST*
%ADD10C,0.100000*%
%ADD11C,1.397000*%
%ADD12R,1.727200X2.032000*%
%ADD13O,1.727200X2.032000*%
%ADD14C,2.499360*%
%ADD15R,2.032000X1.727200*%
%ADD16O,2.032000X1.727200*%
%ADD17R,1.727200X1.727200*%
%ADD18O,1.727200X1.727200*%
%ADD19R,2.235200X2.235200*%
%ADD20R,2.032000X2.032000*%
%ADD21O,2.032000X2.032000*%
%ADD22C,5.000000*%
%ADD23C,1.501140*%
%ADD24C,2.999740*%
%ADD25C,0.600000*%
%ADD26C,0.250000*%
G04 APERTURE END LIST*
D10*
D11*
X122174000Y-116332000D03*
X122174000Y-121412000D03*
X114554000Y-116332000D03*
X114554000Y-121412000D03*
D12*
X129794000Y-120142000D03*
D13*
X132334000Y-120142000D03*
X134874000Y-120142000D03*
X137414000Y-120142000D03*
X139954000Y-120142000D03*
X142494000Y-120142000D03*
X145034000Y-120142000D03*
X147574000Y-120142000D03*
X150114000Y-120142000D03*
X152654000Y-120142000D03*
D12*
X73914000Y-120142000D03*
D13*
X76454000Y-120142000D03*
X78994000Y-120142000D03*
X81534000Y-120142000D03*
X84074000Y-120142000D03*
X86614000Y-120142000D03*
X89154000Y-120142000D03*
X91694000Y-120142000D03*
X94234000Y-120142000D03*
X96774000Y-120142000D03*
D12*
X73914000Y-116332000D03*
D13*
X76454000Y-116332000D03*
X78994000Y-116332000D03*
X81534000Y-116332000D03*
X84074000Y-116332000D03*
X86614000Y-116332000D03*
X89154000Y-116332000D03*
X91694000Y-116332000D03*
X94234000Y-116332000D03*
X96774000Y-116332000D03*
D14*
X77627440Y-40640020D03*
X82628700Y-36840180D03*
X87629960Y-40640020D03*
D15*
X85090000Y-53340000D03*
D16*
X85090000Y-55880000D03*
X85090000Y-58420000D03*
X85090000Y-60960000D03*
X85090000Y-63500000D03*
X85090000Y-66040000D03*
X85090000Y-68580000D03*
X85090000Y-71120000D03*
X85090000Y-73660000D03*
X85090000Y-76200000D03*
X85090000Y-78740000D03*
X85090000Y-81280000D03*
X85090000Y-83820000D03*
D15*
X85090000Y-88900000D03*
D16*
X85090000Y-91440000D03*
X85090000Y-93980000D03*
X85090000Y-96520000D03*
X85090000Y-99060000D03*
X85090000Y-101600000D03*
X85090000Y-104140000D03*
X85090000Y-106680000D03*
X85090000Y-109220000D03*
D15*
X87630000Y-53340000D03*
D16*
X87630000Y-55880000D03*
X87630000Y-58420000D03*
X87630000Y-60960000D03*
X87630000Y-63500000D03*
X87630000Y-66040000D03*
X87630000Y-68580000D03*
X87630000Y-71120000D03*
X87630000Y-73660000D03*
X87630000Y-76200000D03*
X87630000Y-78740000D03*
X87630000Y-81280000D03*
X87630000Y-83820000D03*
D15*
X87630000Y-88900000D03*
D16*
X87630000Y-91440000D03*
X87630000Y-93980000D03*
X87630000Y-96520000D03*
X87630000Y-99060000D03*
X87630000Y-101600000D03*
X87630000Y-104140000D03*
X87630000Y-106680000D03*
X87630000Y-109220000D03*
D12*
X92710000Y-86360000D03*
D13*
X95250000Y-86360000D03*
X97790000Y-86360000D03*
D12*
X130810000Y-86360000D03*
D13*
X128270000Y-86360000D03*
X125730000Y-86360000D03*
D12*
X132080000Y-38100000D03*
D13*
X134620000Y-38100000D03*
X137160000Y-38100000D03*
D15*
X90170000Y-50800000D03*
D16*
X90170000Y-53340000D03*
X90170000Y-55880000D03*
X90170000Y-58420000D03*
X90170000Y-60960000D03*
X90170000Y-63500000D03*
X90170000Y-66040000D03*
X90170000Y-68580000D03*
X90170000Y-71120000D03*
X90170000Y-73660000D03*
X90170000Y-76200000D03*
X90170000Y-78740000D03*
X90170000Y-81280000D03*
X90170000Y-83820000D03*
X90170000Y-86360000D03*
X90170000Y-88900000D03*
X90170000Y-91440000D03*
X90170000Y-93980000D03*
X90170000Y-96520000D03*
X90170000Y-99060000D03*
X90170000Y-101600000D03*
X90170000Y-104140000D03*
X90170000Y-106680000D03*
X90170000Y-109220000D03*
D15*
X104140000Y-50800000D03*
D16*
X104140000Y-53340000D03*
X104140000Y-55880000D03*
X104140000Y-58420000D03*
X104140000Y-60960000D03*
X104140000Y-63500000D03*
X104140000Y-66040000D03*
X104140000Y-68580000D03*
X104140000Y-71120000D03*
X104140000Y-73660000D03*
X104140000Y-76200000D03*
X104140000Y-78740000D03*
X104140000Y-81280000D03*
X104140000Y-83820000D03*
X104140000Y-86360000D03*
X104140000Y-88900000D03*
X104140000Y-91440000D03*
X104140000Y-93980000D03*
X104140000Y-96520000D03*
X104140000Y-99060000D03*
X104140000Y-101600000D03*
X104140000Y-104140000D03*
X104140000Y-106680000D03*
X104140000Y-109220000D03*
D15*
X76200000Y-87630000D03*
D16*
X76200000Y-90170000D03*
X76200000Y-92710000D03*
D15*
X119380000Y-50800000D03*
D16*
X119380000Y-53340000D03*
X119380000Y-55880000D03*
X119380000Y-58420000D03*
X119380000Y-60960000D03*
X119380000Y-63500000D03*
X119380000Y-66040000D03*
X119380000Y-68580000D03*
X119380000Y-71120000D03*
X119380000Y-73660000D03*
X119380000Y-76200000D03*
X119380000Y-78740000D03*
X119380000Y-81280000D03*
X119380000Y-83820000D03*
X119380000Y-86360000D03*
X119380000Y-88900000D03*
X119380000Y-91440000D03*
X119380000Y-93980000D03*
X119380000Y-96520000D03*
X119380000Y-99060000D03*
X119380000Y-101600000D03*
X119380000Y-104140000D03*
X119380000Y-106680000D03*
X119380000Y-109220000D03*
D15*
X133350000Y-50800000D03*
D16*
X133350000Y-53340000D03*
X133350000Y-55880000D03*
X133350000Y-58420000D03*
X133350000Y-60960000D03*
X133350000Y-63500000D03*
X133350000Y-66040000D03*
X133350000Y-68580000D03*
X133350000Y-71120000D03*
X133350000Y-73660000D03*
X133350000Y-76200000D03*
X133350000Y-78740000D03*
X133350000Y-81280000D03*
X133350000Y-83820000D03*
X133350000Y-86360000D03*
X133350000Y-88900000D03*
X133350000Y-91440000D03*
X133350000Y-93980000D03*
X133350000Y-96520000D03*
X133350000Y-99060000D03*
X133350000Y-101600000D03*
X133350000Y-104140000D03*
X133350000Y-106680000D03*
X133350000Y-109220000D03*
D15*
X135890000Y-53340000D03*
D16*
X135890000Y-55880000D03*
X135890000Y-58420000D03*
X135890000Y-60960000D03*
X135890000Y-63500000D03*
X135890000Y-66040000D03*
X135890000Y-68580000D03*
X135890000Y-71120000D03*
X135890000Y-73660000D03*
X135890000Y-76200000D03*
X135890000Y-78740000D03*
X135890000Y-81280000D03*
X135890000Y-83820000D03*
D15*
X135890000Y-88900000D03*
D16*
X135890000Y-91440000D03*
X135890000Y-93980000D03*
X135890000Y-96520000D03*
X135890000Y-99060000D03*
X135890000Y-101600000D03*
X135890000Y-104140000D03*
X135890000Y-106680000D03*
X135890000Y-109220000D03*
D15*
X138430000Y-53340000D03*
D16*
X138430000Y-55880000D03*
X138430000Y-58420000D03*
X138430000Y-60960000D03*
X138430000Y-63500000D03*
X138430000Y-66040000D03*
X138430000Y-68580000D03*
X138430000Y-71120000D03*
X138430000Y-73660000D03*
X138430000Y-76200000D03*
X138430000Y-78740000D03*
X138430000Y-81280000D03*
X138430000Y-83820000D03*
D15*
X138430000Y-88900000D03*
D16*
X138430000Y-91440000D03*
X138430000Y-93980000D03*
X138430000Y-96520000D03*
X138430000Y-99060000D03*
X138430000Y-101600000D03*
X138430000Y-104140000D03*
X138430000Y-106680000D03*
X138430000Y-109220000D03*
D15*
X116840000Y-63500000D03*
D16*
X116840000Y-60960000D03*
X116840000Y-58420000D03*
D15*
X76200000Y-76200000D03*
D16*
X76200000Y-73660000D03*
X76200000Y-71120000D03*
X76200000Y-68580000D03*
D17*
X114300000Y-66040000D03*
D18*
X111760000Y-66040000D03*
X114300000Y-68580000D03*
X111760000Y-68580000D03*
X114300000Y-71120000D03*
X111760000Y-71120000D03*
X114300000Y-73660000D03*
X111760000Y-73660000D03*
D17*
X111760000Y-93980000D03*
D18*
X114300000Y-93980000D03*
X111760000Y-91440000D03*
X114300000Y-91440000D03*
X111760000Y-88900000D03*
X114300000Y-88900000D03*
D17*
X111760000Y-109220000D03*
D18*
X114300000Y-109220000D03*
X111760000Y-106680000D03*
X114300000Y-106680000D03*
X111760000Y-104140000D03*
X114300000Y-104140000D03*
X111760000Y-101600000D03*
X114300000Y-101600000D03*
X111760000Y-99060000D03*
X114300000Y-99060000D03*
D19*
X116840000Y-53340000D03*
D20*
X147320000Y-41910000D03*
D21*
X147320000Y-44450000D03*
D15*
X147320000Y-59690000D03*
D16*
X147320000Y-62230000D03*
X147320000Y-64770000D03*
X147320000Y-67310000D03*
X147320000Y-69850000D03*
X147320000Y-72390000D03*
X147320000Y-74930000D03*
D15*
X76200000Y-99314000D03*
D16*
X76200000Y-101854000D03*
X76200000Y-104394000D03*
X76200000Y-106934000D03*
X76200000Y-109474000D03*
D12*
X116840000Y-96520000D03*
D13*
X114300000Y-96520000D03*
X111760000Y-96520000D03*
X109220000Y-96520000D03*
X106680000Y-96520000D03*
D15*
X147320000Y-107950000D03*
D16*
X147320000Y-105410000D03*
X147320000Y-102870000D03*
X147320000Y-100330000D03*
X147320000Y-97790000D03*
D12*
X129794000Y-116332000D03*
D13*
X132334000Y-116332000D03*
X134874000Y-116332000D03*
X137414000Y-116332000D03*
X139954000Y-116332000D03*
X142494000Y-116332000D03*
X145034000Y-116332000D03*
X147574000Y-116332000D03*
X150114000Y-116332000D03*
X152654000Y-116332000D03*
D11*
X110744000Y-116332000D03*
X110744000Y-121412000D03*
X103124000Y-116332000D03*
X103124000Y-121412000D03*
D15*
X147320000Y-91440000D03*
D16*
X147320000Y-88900000D03*
X147320000Y-86360000D03*
D22*
X153670000Y-36830000D03*
X70866000Y-45974000D03*
X70104000Y-126492000D03*
X154432000Y-126238000D03*
D15*
X107950000Y-57404000D03*
D16*
X107950000Y-59944000D03*
X107950000Y-62484000D03*
X107950000Y-65024000D03*
X107950000Y-67564000D03*
D15*
X76200000Y-60960000D03*
D16*
X76200000Y-58420000D03*
X76200000Y-55880000D03*
X76200000Y-53340000D03*
X76200000Y-50800000D03*
D23*
X103124140Y-45085020D03*
X105664140Y-45085020D03*
X107696140Y-45085020D03*
X110236140Y-45085020D03*
D24*
X100076140Y-42418020D03*
X113792140Y-42418020D03*
D25*
X117347000Y-73487200D03*
D26*
X93392600Y-46402600D02*
X87630000Y-40640000D01*
X93392600Y-62269100D02*
X93392600Y-46402600D01*
X103514000Y-72390000D02*
X93392600Y-62269100D01*
X106680000Y-72390000D02*
X103514000Y-72390000D01*
X106680000Y-96520000D02*
X106680000Y-72390000D01*
X138349000Y-38100000D02*
X137160000Y-38100000D01*
X138349000Y-52070000D02*
X138349000Y-38100000D01*
X138430000Y-52151100D02*
X138349000Y-52070000D01*
X138430000Y-53340000D02*
X138430000Y-52151100D01*
X85090000Y-88900000D02*
X85090000Y-83820000D01*
X138430000Y-88900000D02*
X138430000Y-83820000D01*
X82628700Y-49689800D02*
X82628700Y-36840200D01*
X85090000Y-52151100D02*
X82628700Y-49689800D01*
X85090000Y-52151000D02*
X85090000Y-52151100D01*
X90007900Y-52151000D02*
X85090000Y-52151000D01*
X90170000Y-51988900D02*
X90007900Y-52151000D01*
X90170000Y-50800000D02*
X90170000Y-51988900D01*
X85090000Y-58420000D02*
X85090000Y-55880000D01*
X138430000Y-60960000D02*
X138430000Y-58420000D01*
X85090000Y-106680000D02*
X85090000Y-104140000D01*
X138430000Y-73660000D02*
X138430000Y-71120000D01*
X138430000Y-106680000D02*
X138430000Y-104140000D01*
X85090000Y-109220000D02*
X85090000Y-106680000D01*
X137414000Y-110155000D02*
X137414000Y-116332000D01*
X138430000Y-109139000D02*
X137414000Y-110155000D01*
X85176500Y-110496000D02*
X85262900Y-110582000D01*
X85176500Y-110496000D02*
X85176500Y-116332000D01*
X85090000Y-110409000D02*
X85176500Y-110496000D01*
X85090000Y-109220000D02*
X85090000Y-110409000D01*
X85262900Y-116332000D02*
X85176500Y-116332000D01*
X85176500Y-116332000D02*
X84074000Y-116332000D01*
X138430000Y-109220000D02*
X138430000Y-109139000D01*
X138430000Y-109139000D02*
X138430000Y-106680000D01*
X85090000Y-104140000D02*
X85090000Y-101600000D01*
X85090000Y-101600000D02*
X85090000Y-99060000D01*
X138430000Y-71120000D02*
X138430000Y-68580000D01*
X138430000Y-68580000D02*
X138430000Y-66040000D01*
X138430000Y-83820000D02*
X138430000Y-81280000D01*
X138430000Y-81280000D02*
X138430000Y-78740000D01*
X138430000Y-104140000D02*
X138430000Y-101600000D01*
X138430000Y-101600000D02*
X138430000Y-99060000D01*
X138430000Y-78740000D02*
X138430000Y-76200000D01*
X138430000Y-76200000D02*
X138430000Y-73660000D01*
X85090000Y-99060000D02*
X85090000Y-96520000D01*
X85090000Y-96520000D02*
X85090000Y-93980000D01*
X85090000Y-63500000D02*
X85090000Y-60960000D01*
X85090000Y-60960000D02*
X85090000Y-58420000D01*
X138430000Y-66040000D02*
X138430000Y-63500000D01*
X138430000Y-63500000D02*
X138430000Y-60960000D01*
X85090000Y-68580000D02*
X85090000Y-66040000D01*
X85090000Y-66040000D02*
X85090000Y-63500000D01*
X138430000Y-93980000D02*
X138430000Y-91440000D01*
X138430000Y-91440000D02*
X138430000Y-88900000D01*
X85090000Y-93980000D02*
X85090000Y-91440000D01*
X85090000Y-91440000D02*
X85090000Y-88900000D01*
X85090000Y-73660000D02*
X85090000Y-71120000D01*
X85090000Y-71120000D02*
X85090000Y-68580000D01*
X138430000Y-99060000D02*
X138430000Y-96520000D01*
X138430000Y-96520000D02*
X138430000Y-93980000D01*
X138430000Y-58420000D02*
X138430000Y-55880000D01*
X138430000Y-55880000D02*
X138430000Y-53340000D01*
X85090000Y-55880000D02*
X85090000Y-53340000D01*
X85090000Y-53340000D02*
X85090000Y-52151100D01*
X85090000Y-78740000D02*
X85090000Y-76200000D01*
X85090000Y-76200000D02*
X85090000Y-73660000D01*
X85090000Y-83820000D02*
X85090000Y-81280000D01*
X85090000Y-81280000D02*
X85090000Y-78740000D01*
X87630000Y-88900000D02*
X87630000Y-83820000D01*
X135890000Y-88900000D02*
X135890000Y-83820000D01*
X87630000Y-63500000D02*
X87630000Y-60960000D01*
X135890000Y-60960000D02*
X135890000Y-58420000D01*
X87630000Y-101600000D02*
X87630000Y-99060000D01*
X135890000Y-41910000D02*
X135890000Y-47143100D01*
X133269000Y-39288900D02*
X135890000Y-41910000D01*
X133269000Y-38100000D02*
X133269000Y-39288900D01*
X132080000Y-38100000D02*
X133269000Y-38100000D01*
X135890000Y-47143100D02*
X135890000Y-53340000D01*
X133422000Y-49611100D02*
X135890000Y-47143100D01*
X133350000Y-49611100D02*
X133422000Y-49611100D01*
X133350000Y-50800000D02*
X133350000Y-49611100D01*
X87630000Y-60960000D02*
X87630000Y-58420000D01*
X135890000Y-83820000D02*
X135890000Y-81280000D01*
X135890000Y-73660000D02*
X135890000Y-71120000D01*
X135890000Y-106680000D02*
X135890000Y-104140000D01*
X135890000Y-81280000D02*
X135890000Y-78740000D01*
X135890000Y-109220000D02*
X135890000Y-106680000D01*
X87803000Y-107950000D02*
X87884000Y-108031000D01*
X87630000Y-107950000D02*
X87803000Y-107950000D01*
X87630000Y-107950000D02*
X87630000Y-106680000D01*
X87884000Y-108839000D02*
X87884000Y-120061000D01*
X87630000Y-108585000D02*
X87884000Y-108839000D01*
X87965100Y-120142000D02*
X87884000Y-120061000D01*
X89154000Y-120142000D02*
X87965100Y-120142000D01*
X87802900Y-120142000D02*
X86614000Y-120142000D01*
X87884000Y-120061000D02*
X87802900Y-120142000D01*
X135890000Y-110409000D02*
X135890000Y-109220000D01*
X136225000Y-110744000D02*
X135890000Y-110409000D01*
X136144000Y-110825000D02*
X136225000Y-110744000D01*
X136144000Y-120142000D02*
X136144000Y-110825000D01*
X133350000Y-51988900D02*
X121562000Y-51988900D01*
X133350000Y-50800000D02*
X133350000Y-51988900D01*
X134874000Y-120142000D02*
X136144000Y-120142000D01*
X136144000Y-120142000D02*
X137414000Y-120142000D01*
X87630000Y-109220000D02*
X87630000Y-108585000D01*
X87630000Y-108585000D02*
X87630000Y-107950000D01*
X135890000Y-104140000D02*
X135890000Y-101600000D01*
X135890000Y-101600000D02*
X135890000Y-99060000D01*
X135890000Y-78740000D02*
X135890000Y-76200000D01*
X135890000Y-76200000D02*
X135890000Y-73660000D01*
X87630000Y-58420000D02*
X87630000Y-55880000D01*
X87630000Y-55880000D02*
X87630000Y-53340000D01*
X135890000Y-71120000D02*
X135890000Y-68580000D01*
X135890000Y-68580000D02*
X135890000Y-66040000D01*
X135890000Y-99060000D02*
X135890000Y-96520000D01*
X135890000Y-96520000D02*
X135890000Y-93980000D01*
X135890000Y-66040000D02*
X135890000Y-63500000D01*
X135890000Y-63500000D02*
X135890000Y-60960000D01*
X87630000Y-68580000D02*
X87630000Y-66040000D01*
X87630000Y-66040000D02*
X87630000Y-63500000D01*
X135890000Y-93980000D02*
X135890000Y-91440000D01*
X135890000Y-91440000D02*
X135890000Y-88900000D01*
X87630000Y-93980000D02*
X87630000Y-91440000D01*
X87630000Y-91440000D02*
X87630000Y-88900000D01*
X87630000Y-106680000D02*
X87630000Y-104140000D01*
X87630000Y-104140000D02*
X87630000Y-101600000D01*
X87630000Y-99060000D02*
X87630000Y-96520000D01*
X87630000Y-96520000D02*
X87630000Y-93980000D01*
X135890000Y-58420000D02*
X135890000Y-55880000D01*
X135890000Y-55880000D02*
X135890000Y-53340000D01*
X87630000Y-78740000D02*
X87630000Y-76200000D01*
X87630000Y-76200000D02*
X87630000Y-73660000D01*
X87630000Y-73660000D02*
X87630000Y-71120000D01*
X87630000Y-71120000D02*
X87630000Y-68580000D01*
X87630000Y-83820000D02*
X87630000Y-81280000D01*
X87630000Y-81280000D02*
X87630000Y-78740000D01*
X121562000Y-51988900D02*
X120731000Y-52819700D01*
X120731000Y-52819700D02*
X119900000Y-51988900D01*
X119900000Y-51988900D02*
X119380000Y-51988900D01*
X119593000Y-121412000D02*
X120884000Y-120122000D01*
X114554000Y-121412000D02*
X119593000Y-121412000D01*
X122174000Y-121412000D02*
X120884000Y-120122000D01*
X119532000Y-86360000D02*
X119380000Y-86360000D01*
X120721000Y-87548600D02*
X119532000Y-86360000D01*
X120883000Y-87711000D02*
X120721000Y-87548600D01*
X120884000Y-87711000D02*
X120883000Y-87711000D01*
X120884000Y-120122000D02*
X120884000Y-87711000D01*
X117347000Y-72484900D02*
X117347000Y-73487200D01*
X114631000Y-69768900D02*
X117347000Y-72484900D01*
X113766000Y-69768900D02*
X114631000Y-69768900D01*
X112949000Y-68951600D02*
X113766000Y-69768900D01*
X112949000Y-68580000D02*
X112949000Y-68951600D01*
X111760000Y-68580000D02*
X112949000Y-68580000D01*
X114300000Y-96520000D02*
X113111000Y-96520000D01*
X115489000Y-115397000D02*
X114554000Y-116332000D01*
X115489000Y-96520000D02*
X115489000Y-115397000D01*
X114300000Y-96520000D02*
X115489000Y-96520000D01*
X110236000Y-53929000D02*
X110236000Y-48603600D01*
X107950000Y-56215100D02*
X110236000Y-53929000D01*
X107950000Y-57404000D02*
X107950000Y-56215100D01*
X110236000Y-48603600D02*
X110236000Y-45085000D01*
X110236100Y-48603500D02*
X110236100Y-45085000D01*
X110236000Y-48603600D02*
X110236100Y-48603500D01*
X106114000Y-45535300D02*
X105664000Y-45085000D01*
X106114000Y-59979600D02*
X106114000Y-45535300D01*
X107430000Y-61295100D02*
X106114000Y-59979600D01*
X107950000Y-61295100D02*
X107430000Y-61295100D01*
X107950000Y-62484000D02*
X107950000Y-61295100D01*
X105664100Y-45085000D02*
X105664000Y-45085000D01*
X105495000Y-47456200D02*
X103124000Y-45085000D01*
X105495000Y-61900500D02*
X105495000Y-47456200D01*
X107430000Y-63835100D02*
X105495000Y-61900500D01*
X107950000Y-63835100D02*
X107430000Y-63835100D01*
X107950000Y-65024000D02*
X107950000Y-63835100D01*
X103124100Y-45085000D02*
X103124000Y-45085000D01*
X119380000Y-51988900D02*
X119380000Y-50800000D01*
M02*
