G04 #@! TF.FileFunction,Other,Fab,Top*
%FSLAX46Y46*%
G04 Gerber Fmt 4.6, Leading zero omitted, Abs format (unit mm)*
G04 Created by KiCad (PCBNEW 4.0.4-stable) date 01/06/17 20:43:13*
%MOMM*%
%LPD*%
G01*
G04 APERTURE LIST*
%ADD10C,0.100000*%
%ADD11C,0.150000*%
G04 APERTURE END LIST*
D10*
D11*
X112800666Y-124356762D02*
X112943523Y-124404381D01*
X113181619Y-124404381D01*
X113276857Y-124356762D01*
X113324476Y-124309143D01*
X113372095Y-124213905D01*
X113372095Y-124118667D01*
X113324476Y-124023429D01*
X113276857Y-123975810D01*
X113181619Y-123928190D01*
X112991142Y-123880571D01*
X112895904Y-123832952D01*
X112848285Y-123785333D01*
X112800666Y-123690095D01*
X112800666Y-123594857D01*
X112848285Y-123499619D01*
X112895904Y-123452000D01*
X112991142Y-123404381D01*
X113229238Y-123404381D01*
X113372095Y-123452000D01*
X113705428Y-123404381D02*
X113943523Y-124404381D01*
X114134000Y-123690095D01*
X114324476Y-124404381D01*
X114562571Y-123404381D01*
X114705428Y-124499619D02*
X115467333Y-124499619D01*
X115705428Y-124404381D02*
X115705428Y-123404381D01*
X116086381Y-123404381D01*
X116181619Y-123452000D01*
X116229238Y-123499619D01*
X116276857Y-123594857D01*
X116276857Y-123737714D01*
X116229238Y-123832952D01*
X116181619Y-123880571D01*
X116086381Y-123928190D01*
X115705428Y-123928190D01*
X116705428Y-123404381D02*
X116705428Y-124213905D01*
X116753047Y-124309143D01*
X116800666Y-124356762D01*
X116895904Y-124404381D01*
X117086381Y-124404381D01*
X117181619Y-124356762D01*
X117229238Y-124309143D01*
X117276857Y-124213905D01*
X117276857Y-123404381D01*
X117705428Y-124356762D02*
X117848285Y-124404381D01*
X118086381Y-124404381D01*
X118181619Y-124356762D01*
X118229238Y-124309143D01*
X118276857Y-124213905D01*
X118276857Y-124118667D01*
X118229238Y-124023429D01*
X118181619Y-123975810D01*
X118086381Y-123928190D01*
X117895904Y-123880571D01*
X117800666Y-123832952D01*
X117753047Y-123785333D01*
X117705428Y-123690095D01*
X117705428Y-123594857D01*
X117753047Y-123499619D01*
X117800666Y-123452000D01*
X117895904Y-123404381D01*
X118134000Y-123404381D01*
X118276857Y-123452000D01*
X118705428Y-124404381D02*
X118705428Y-123404381D01*
X118705428Y-123880571D02*
X119276857Y-123880571D01*
X119276857Y-124404381D02*
X119276857Y-123404381D01*
X119514952Y-124499619D02*
X120276857Y-124499619D01*
X120467333Y-124356762D02*
X120610190Y-124404381D01*
X120848286Y-124404381D01*
X120943524Y-124356762D01*
X120991143Y-124309143D01*
X121038762Y-124213905D01*
X121038762Y-124118667D01*
X120991143Y-124023429D01*
X120943524Y-123975810D01*
X120848286Y-123928190D01*
X120657809Y-123880571D01*
X120562571Y-123832952D01*
X120514952Y-123785333D01*
X120467333Y-123690095D01*
X120467333Y-123594857D01*
X120514952Y-123499619D01*
X120562571Y-123452000D01*
X120657809Y-123404381D01*
X120895905Y-123404381D01*
X121038762Y-123452000D01*
X121467333Y-124404381D02*
X121467333Y-123404381D01*
X121800667Y-124118667D01*
X122134000Y-123404381D01*
X122134000Y-124404381D01*
X122562571Y-124118667D02*
X123038762Y-124118667D01*
X122467333Y-124404381D02*
X122800666Y-123404381D01*
X123134000Y-124404381D01*
X123943524Y-124404381D02*
X123467333Y-124404381D01*
X123467333Y-123404381D01*
X124753048Y-124404381D02*
X124276857Y-124404381D01*
X124276857Y-123404381D01*
X124848286Y-124499619D02*
X125610191Y-124499619D01*
X125848286Y-124404381D02*
X125848286Y-123404381D01*
X125848286Y-123880571D02*
X126419715Y-123880571D01*
X126419715Y-124404381D02*
X126419715Y-123404381D01*
X130850191Y-124309143D02*
X130802572Y-124356762D01*
X130659715Y-124404381D01*
X130564477Y-124404381D01*
X130421619Y-124356762D01*
X130326381Y-124261524D01*
X130278762Y-124166286D01*
X130231143Y-123975810D01*
X130231143Y-123832952D01*
X130278762Y-123642476D01*
X130326381Y-123547238D01*
X130421619Y-123452000D01*
X130564477Y-123404381D01*
X130659715Y-123404381D01*
X130802572Y-123452000D01*
X130850191Y-123499619D01*
X131469238Y-123404381D02*
X131659715Y-123404381D01*
X131754953Y-123452000D01*
X131850191Y-123547238D01*
X131897810Y-123737714D01*
X131897810Y-124071048D01*
X131850191Y-124261524D01*
X131754953Y-124356762D01*
X131659715Y-124404381D01*
X131469238Y-124404381D01*
X131374000Y-124356762D01*
X131278762Y-124261524D01*
X131231143Y-124071048D01*
X131231143Y-123737714D01*
X131278762Y-123547238D01*
X131374000Y-123452000D01*
X131469238Y-123404381D01*
X132326381Y-124404381D02*
X132326381Y-123404381D01*
X132897810Y-124404381D01*
X132897810Y-123404381D01*
X133374000Y-124404381D02*
X133374000Y-123404381D01*
X133945429Y-124404381D01*
X133945429Y-123404381D01*
X134183524Y-124499619D02*
X134945429Y-124499619D01*
X135374000Y-123404381D02*
X135469239Y-123404381D01*
X135564477Y-123452000D01*
X135612096Y-123499619D01*
X135659715Y-123594857D01*
X135707334Y-123785333D01*
X135707334Y-124023429D01*
X135659715Y-124213905D01*
X135612096Y-124309143D01*
X135564477Y-124356762D01*
X135469239Y-124404381D01*
X135374000Y-124404381D01*
X135278762Y-124356762D01*
X135231143Y-124309143D01*
X135183524Y-124213905D01*
X135135905Y-124023429D01*
X135135905Y-123785333D01*
X135183524Y-123594857D01*
X135231143Y-123499619D01*
X135278762Y-123452000D01*
X135374000Y-123404381D01*
X136659715Y-124404381D02*
X136088286Y-124404381D01*
X136374000Y-124404381D02*
X136374000Y-123404381D01*
X136278762Y-123547238D01*
X136183524Y-123642476D01*
X136088286Y-123690095D01*
X136993048Y-123404381D02*
X137659715Y-124404381D01*
X137659715Y-123404381D02*
X136993048Y-124404381D01*
X138564477Y-124404381D02*
X137993048Y-124404381D01*
X138278762Y-124404381D02*
X138278762Y-123404381D01*
X138183524Y-123547238D01*
X138088286Y-123642476D01*
X137993048Y-123690095D01*
X139183524Y-123404381D02*
X139278763Y-123404381D01*
X139374001Y-123452000D01*
X139421620Y-123499619D01*
X139469239Y-123594857D01*
X139516858Y-123785333D01*
X139516858Y-124023429D01*
X139469239Y-124213905D01*
X139421620Y-124309143D01*
X139374001Y-124356762D01*
X139278763Y-124404381D01*
X139183524Y-124404381D01*
X139088286Y-124356762D01*
X139040667Y-124309143D01*
X138993048Y-124213905D01*
X138945429Y-124023429D01*
X138945429Y-123785333D01*
X138993048Y-123594857D01*
X139040667Y-123499619D01*
X139088286Y-123452000D01*
X139183524Y-123404381D01*
X73700191Y-124309143D02*
X73652572Y-124356762D01*
X73509715Y-124404381D01*
X73414477Y-124404381D01*
X73271619Y-124356762D01*
X73176381Y-124261524D01*
X73128762Y-124166286D01*
X73081143Y-123975810D01*
X73081143Y-123832952D01*
X73128762Y-123642476D01*
X73176381Y-123547238D01*
X73271619Y-123452000D01*
X73414477Y-123404381D01*
X73509715Y-123404381D01*
X73652572Y-123452000D01*
X73700191Y-123499619D01*
X74319238Y-123404381D02*
X74509715Y-123404381D01*
X74604953Y-123452000D01*
X74700191Y-123547238D01*
X74747810Y-123737714D01*
X74747810Y-124071048D01*
X74700191Y-124261524D01*
X74604953Y-124356762D01*
X74509715Y-124404381D01*
X74319238Y-124404381D01*
X74224000Y-124356762D01*
X74128762Y-124261524D01*
X74081143Y-124071048D01*
X74081143Y-123737714D01*
X74128762Y-123547238D01*
X74224000Y-123452000D01*
X74319238Y-123404381D01*
X75176381Y-124404381D02*
X75176381Y-123404381D01*
X75747810Y-124404381D01*
X75747810Y-123404381D01*
X76224000Y-124404381D02*
X76224000Y-123404381D01*
X76795429Y-124404381D01*
X76795429Y-123404381D01*
X77033524Y-124499619D02*
X77795429Y-124499619D01*
X78224000Y-123404381D02*
X78319239Y-123404381D01*
X78414477Y-123452000D01*
X78462096Y-123499619D01*
X78509715Y-123594857D01*
X78557334Y-123785333D01*
X78557334Y-124023429D01*
X78509715Y-124213905D01*
X78462096Y-124309143D01*
X78414477Y-124356762D01*
X78319239Y-124404381D01*
X78224000Y-124404381D01*
X78128762Y-124356762D01*
X78081143Y-124309143D01*
X78033524Y-124213905D01*
X77985905Y-124023429D01*
X77985905Y-123785333D01*
X78033524Y-123594857D01*
X78081143Y-123499619D01*
X78128762Y-123452000D01*
X78224000Y-123404381D01*
X79509715Y-124404381D02*
X78938286Y-124404381D01*
X79224000Y-124404381D02*
X79224000Y-123404381D01*
X79128762Y-123547238D01*
X79033524Y-123642476D01*
X78938286Y-123690095D01*
X79843048Y-123404381D02*
X80509715Y-124404381D01*
X80509715Y-123404381D02*
X79843048Y-124404381D01*
X81414477Y-124404381D02*
X80843048Y-124404381D01*
X81128762Y-124404381D02*
X81128762Y-123404381D01*
X81033524Y-123547238D01*
X80938286Y-123642476D01*
X80843048Y-123690095D01*
X82033524Y-123404381D02*
X82128763Y-123404381D01*
X82224001Y-123452000D01*
X82271620Y-123499619D01*
X82319239Y-123594857D01*
X82366858Y-123785333D01*
X82366858Y-124023429D01*
X82319239Y-124213905D01*
X82271620Y-124309143D01*
X82224001Y-124356762D01*
X82128763Y-124404381D01*
X82033524Y-124404381D01*
X81938286Y-124356762D01*
X81890667Y-124309143D01*
X81843048Y-124213905D01*
X81795429Y-124023429D01*
X81795429Y-123785333D01*
X81843048Y-123594857D01*
X81890667Y-123499619D01*
X81938286Y-123452000D01*
X82033524Y-123404381D01*
X73700191Y-112879143D02*
X73652572Y-112926762D01*
X73509715Y-112974381D01*
X73414477Y-112974381D01*
X73271619Y-112926762D01*
X73176381Y-112831524D01*
X73128762Y-112736286D01*
X73081143Y-112545810D01*
X73081143Y-112402952D01*
X73128762Y-112212476D01*
X73176381Y-112117238D01*
X73271619Y-112022000D01*
X73414477Y-111974381D01*
X73509715Y-111974381D01*
X73652572Y-112022000D01*
X73700191Y-112069619D01*
X74319238Y-111974381D02*
X74509715Y-111974381D01*
X74604953Y-112022000D01*
X74700191Y-112117238D01*
X74747810Y-112307714D01*
X74747810Y-112641048D01*
X74700191Y-112831524D01*
X74604953Y-112926762D01*
X74509715Y-112974381D01*
X74319238Y-112974381D01*
X74224000Y-112926762D01*
X74128762Y-112831524D01*
X74081143Y-112641048D01*
X74081143Y-112307714D01*
X74128762Y-112117238D01*
X74224000Y-112022000D01*
X74319238Y-111974381D01*
X75176381Y-112974381D02*
X75176381Y-111974381D01*
X75747810Y-112974381D01*
X75747810Y-111974381D01*
X76224000Y-112974381D02*
X76224000Y-111974381D01*
X76795429Y-112974381D01*
X76795429Y-111974381D01*
X77033524Y-113069619D02*
X77795429Y-113069619D01*
X78224000Y-111974381D02*
X78319239Y-111974381D01*
X78414477Y-112022000D01*
X78462096Y-112069619D01*
X78509715Y-112164857D01*
X78557334Y-112355333D01*
X78557334Y-112593429D01*
X78509715Y-112783905D01*
X78462096Y-112879143D01*
X78414477Y-112926762D01*
X78319239Y-112974381D01*
X78224000Y-112974381D01*
X78128762Y-112926762D01*
X78081143Y-112879143D01*
X78033524Y-112783905D01*
X77985905Y-112593429D01*
X77985905Y-112355333D01*
X78033524Y-112164857D01*
X78081143Y-112069619D01*
X78128762Y-112022000D01*
X78224000Y-111974381D01*
X79509715Y-112974381D02*
X78938286Y-112974381D01*
X79224000Y-112974381D02*
X79224000Y-111974381D01*
X79128762Y-112117238D01*
X79033524Y-112212476D01*
X78938286Y-112260095D01*
X79843048Y-111974381D02*
X80509715Y-112974381D01*
X80509715Y-111974381D02*
X79843048Y-112974381D01*
X81414477Y-112974381D02*
X80843048Y-112974381D01*
X81128762Y-112974381D02*
X81128762Y-111974381D01*
X81033524Y-112117238D01*
X80938286Y-112212476D01*
X80843048Y-112260095D01*
X82033524Y-111974381D02*
X82128763Y-111974381D01*
X82224001Y-112022000D01*
X82271620Y-112069619D01*
X82319239Y-112164857D01*
X82366858Y-112355333D01*
X82366858Y-112593429D01*
X82319239Y-112783905D01*
X82271620Y-112879143D01*
X82224001Y-112926762D01*
X82128763Y-112974381D01*
X82033524Y-112974381D01*
X81938286Y-112926762D01*
X81890667Y-112879143D01*
X81843048Y-112783905D01*
X81795429Y-112593429D01*
X81795429Y-112355333D01*
X81843048Y-112164857D01*
X81890667Y-112069619D01*
X81938286Y-112022000D01*
X82033524Y-111974381D01*
X81637143Y-53553809D02*
X81684762Y-53601428D01*
X81732381Y-53744285D01*
X81732381Y-53839523D01*
X81684762Y-53982381D01*
X81589524Y-54077619D01*
X81494286Y-54125238D01*
X81303810Y-54172857D01*
X81160952Y-54172857D01*
X80970476Y-54125238D01*
X80875238Y-54077619D01*
X80780000Y-53982381D01*
X80732381Y-53839523D01*
X80732381Y-53744285D01*
X80780000Y-53601428D01*
X80827619Y-53553809D01*
X80732381Y-52934762D02*
X80732381Y-52744285D01*
X80780000Y-52649047D01*
X80875238Y-52553809D01*
X81065714Y-52506190D01*
X81399048Y-52506190D01*
X81589524Y-52553809D01*
X81684762Y-52649047D01*
X81732381Y-52744285D01*
X81732381Y-52934762D01*
X81684762Y-53030000D01*
X81589524Y-53125238D01*
X81399048Y-53172857D01*
X81065714Y-53172857D01*
X80875238Y-53125238D01*
X80780000Y-53030000D01*
X80732381Y-52934762D01*
X81732381Y-52077619D02*
X80732381Y-52077619D01*
X81732381Y-51506190D01*
X80732381Y-51506190D01*
X81732381Y-51030000D02*
X80732381Y-51030000D01*
X81732381Y-50458571D01*
X80732381Y-50458571D01*
X81827619Y-50220476D02*
X81827619Y-49458571D01*
X80732381Y-49030000D02*
X80732381Y-48934761D01*
X80780000Y-48839523D01*
X80827619Y-48791904D01*
X80922857Y-48744285D01*
X81113333Y-48696666D01*
X81351429Y-48696666D01*
X81541905Y-48744285D01*
X81637143Y-48791904D01*
X81684762Y-48839523D01*
X81732381Y-48934761D01*
X81732381Y-49030000D01*
X81684762Y-49125238D01*
X81637143Y-49172857D01*
X81541905Y-49220476D01*
X81351429Y-49268095D01*
X81113333Y-49268095D01*
X80922857Y-49220476D01*
X80827619Y-49172857D01*
X80780000Y-49125238D01*
X80732381Y-49030000D01*
X81732381Y-47744285D02*
X81732381Y-48315714D01*
X81732381Y-48030000D02*
X80732381Y-48030000D01*
X80875238Y-48125238D01*
X80970476Y-48220476D01*
X81018095Y-48315714D01*
X80732381Y-47410952D02*
X81732381Y-46744285D01*
X80732381Y-46744285D02*
X81732381Y-47410952D01*
X81732381Y-45839523D02*
X81732381Y-46410952D01*
X81732381Y-46125238D02*
X80732381Y-46125238D01*
X80875238Y-46220476D01*
X80970476Y-46315714D01*
X81018095Y-46410952D01*
X80732381Y-45506190D02*
X80732381Y-44887142D01*
X81113333Y-45220476D01*
X81113333Y-45077618D01*
X81160952Y-44982380D01*
X81208571Y-44934761D01*
X81303810Y-44887142D01*
X81541905Y-44887142D01*
X81637143Y-44934761D01*
X81684762Y-44982380D01*
X81732381Y-45077618D01*
X81732381Y-45363333D01*
X81684762Y-45458571D01*
X81637143Y-45506190D01*
X82907143Y-99273809D02*
X82954762Y-99321428D01*
X83002381Y-99464285D01*
X83002381Y-99559523D01*
X82954762Y-99702381D01*
X82859524Y-99797619D01*
X82764286Y-99845238D01*
X82573810Y-99892857D01*
X82430952Y-99892857D01*
X82240476Y-99845238D01*
X82145238Y-99797619D01*
X82050000Y-99702381D01*
X82002381Y-99559523D01*
X82002381Y-99464285D01*
X82050000Y-99321428D01*
X82097619Y-99273809D01*
X82002381Y-98654762D02*
X82002381Y-98464285D01*
X82050000Y-98369047D01*
X82145238Y-98273809D01*
X82335714Y-98226190D01*
X82669048Y-98226190D01*
X82859524Y-98273809D01*
X82954762Y-98369047D01*
X83002381Y-98464285D01*
X83002381Y-98654762D01*
X82954762Y-98750000D01*
X82859524Y-98845238D01*
X82669048Y-98892857D01*
X82335714Y-98892857D01*
X82145238Y-98845238D01*
X82050000Y-98750000D01*
X82002381Y-98654762D01*
X83002381Y-97797619D02*
X82002381Y-97797619D01*
X83002381Y-97226190D01*
X82002381Y-97226190D01*
X83002381Y-96750000D02*
X82002381Y-96750000D01*
X83002381Y-96178571D01*
X82002381Y-96178571D01*
X83097619Y-95940476D02*
X83097619Y-95178571D01*
X82002381Y-94750000D02*
X82002381Y-94654761D01*
X82050000Y-94559523D01*
X82097619Y-94511904D01*
X82192857Y-94464285D01*
X82383333Y-94416666D01*
X82621429Y-94416666D01*
X82811905Y-94464285D01*
X82907143Y-94511904D01*
X82954762Y-94559523D01*
X83002381Y-94654761D01*
X83002381Y-94750000D01*
X82954762Y-94845238D01*
X82907143Y-94892857D01*
X82811905Y-94940476D01*
X82621429Y-94988095D01*
X82383333Y-94988095D01*
X82192857Y-94940476D01*
X82097619Y-94892857D01*
X82050000Y-94845238D01*
X82002381Y-94750000D01*
X83002381Y-93464285D02*
X83002381Y-94035714D01*
X83002381Y-93750000D02*
X82002381Y-93750000D01*
X82145238Y-93845238D01*
X82240476Y-93940476D01*
X82288095Y-94035714D01*
X82002381Y-93130952D02*
X83002381Y-92464285D01*
X82002381Y-92464285D02*
X83002381Y-93130952D01*
X82002381Y-91892857D02*
X82002381Y-91797618D01*
X82050000Y-91702380D01*
X82097619Y-91654761D01*
X82192857Y-91607142D01*
X82383333Y-91559523D01*
X82621429Y-91559523D01*
X82811905Y-91607142D01*
X82907143Y-91654761D01*
X82954762Y-91702380D01*
X83002381Y-91797618D01*
X83002381Y-91892857D01*
X82954762Y-91988095D01*
X82907143Y-92035714D01*
X82811905Y-92083333D01*
X82621429Y-92130952D01*
X82383333Y-92130952D01*
X82192857Y-92083333D01*
X82097619Y-92035714D01*
X82050000Y-91988095D01*
X82002381Y-91892857D01*
X83002381Y-91083333D02*
X83002381Y-90892857D01*
X82954762Y-90797618D01*
X82907143Y-90749999D01*
X82764286Y-90654761D01*
X82573810Y-90607142D01*
X82192857Y-90607142D01*
X82097619Y-90654761D01*
X82050000Y-90702380D01*
X82002381Y-90797618D01*
X82002381Y-90988095D01*
X82050000Y-91083333D01*
X82097619Y-91130952D01*
X82192857Y-91178571D01*
X82430952Y-91178571D01*
X82526190Y-91130952D01*
X82573810Y-91083333D01*
X82621429Y-90988095D01*
X82621429Y-90797618D01*
X82573810Y-90702380D01*
X82526190Y-90654761D01*
X82430952Y-90607142D01*
X82907143Y-56093809D02*
X82954762Y-56141428D01*
X83002381Y-56284285D01*
X83002381Y-56379523D01*
X82954762Y-56522381D01*
X82859524Y-56617619D01*
X82764286Y-56665238D01*
X82573810Y-56712857D01*
X82430952Y-56712857D01*
X82240476Y-56665238D01*
X82145238Y-56617619D01*
X82050000Y-56522381D01*
X82002381Y-56379523D01*
X82002381Y-56284285D01*
X82050000Y-56141428D01*
X82097619Y-56093809D01*
X82002381Y-55474762D02*
X82002381Y-55284285D01*
X82050000Y-55189047D01*
X82145238Y-55093809D01*
X82335714Y-55046190D01*
X82669048Y-55046190D01*
X82859524Y-55093809D01*
X82954762Y-55189047D01*
X83002381Y-55284285D01*
X83002381Y-55474762D01*
X82954762Y-55570000D01*
X82859524Y-55665238D01*
X82669048Y-55712857D01*
X82335714Y-55712857D01*
X82145238Y-55665238D01*
X82050000Y-55570000D01*
X82002381Y-55474762D01*
X83002381Y-54617619D02*
X82002381Y-54617619D01*
X83002381Y-54046190D01*
X82002381Y-54046190D01*
X83002381Y-53570000D02*
X82002381Y-53570000D01*
X83002381Y-52998571D01*
X82002381Y-52998571D01*
X83097619Y-52760476D02*
X83097619Y-51998571D01*
X82002381Y-51570000D02*
X82002381Y-51474761D01*
X82050000Y-51379523D01*
X82097619Y-51331904D01*
X82192857Y-51284285D01*
X82383333Y-51236666D01*
X82621429Y-51236666D01*
X82811905Y-51284285D01*
X82907143Y-51331904D01*
X82954762Y-51379523D01*
X83002381Y-51474761D01*
X83002381Y-51570000D01*
X82954762Y-51665238D01*
X82907143Y-51712857D01*
X82811905Y-51760476D01*
X82621429Y-51808095D01*
X82383333Y-51808095D01*
X82192857Y-51760476D01*
X82097619Y-51712857D01*
X82050000Y-51665238D01*
X82002381Y-51570000D01*
X83002381Y-50284285D02*
X83002381Y-50855714D01*
X83002381Y-50570000D02*
X82002381Y-50570000D01*
X82145238Y-50665238D01*
X82240476Y-50760476D01*
X82288095Y-50855714D01*
X82002381Y-49950952D02*
X83002381Y-49284285D01*
X82002381Y-49284285D02*
X83002381Y-49950952D01*
X83002381Y-48379523D02*
X83002381Y-48950952D01*
X83002381Y-48665238D02*
X82002381Y-48665238D01*
X82145238Y-48760476D01*
X82240476Y-48855714D01*
X82288095Y-48950952D01*
X82002381Y-48046190D02*
X82002381Y-47427142D01*
X82383333Y-47760476D01*
X82383333Y-47617618D01*
X82430952Y-47522380D01*
X82478571Y-47474761D01*
X82573810Y-47427142D01*
X82811905Y-47427142D01*
X82907143Y-47474761D01*
X82954762Y-47522380D01*
X83002381Y-47617618D01*
X83002381Y-47903333D01*
X82954762Y-47998571D01*
X82907143Y-48046190D01*
X81637143Y-100543809D02*
X81684762Y-100591428D01*
X81732381Y-100734285D01*
X81732381Y-100829523D01*
X81684762Y-100972381D01*
X81589524Y-101067619D01*
X81494286Y-101115238D01*
X81303810Y-101162857D01*
X81160952Y-101162857D01*
X80970476Y-101115238D01*
X80875238Y-101067619D01*
X80780000Y-100972381D01*
X80732381Y-100829523D01*
X80732381Y-100734285D01*
X80780000Y-100591428D01*
X80827619Y-100543809D01*
X80732381Y-99924762D02*
X80732381Y-99734285D01*
X80780000Y-99639047D01*
X80875238Y-99543809D01*
X81065714Y-99496190D01*
X81399048Y-99496190D01*
X81589524Y-99543809D01*
X81684762Y-99639047D01*
X81732381Y-99734285D01*
X81732381Y-99924762D01*
X81684762Y-100020000D01*
X81589524Y-100115238D01*
X81399048Y-100162857D01*
X81065714Y-100162857D01*
X80875238Y-100115238D01*
X80780000Y-100020000D01*
X80732381Y-99924762D01*
X81732381Y-99067619D02*
X80732381Y-99067619D01*
X81732381Y-98496190D01*
X80732381Y-98496190D01*
X81732381Y-98020000D02*
X80732381Y-98020000D01*
X81732381Y-97448571D01*
X80732381Y-97448571D01*
X81827619Y-97210476D02*
X81827619Y-96448571D01*
X80732381Y-96020000D02*
X80732381Y-95924761D01*
X80780000Y-95829523D01*
X80827619Y-95781904D01*
X80922857Y-95734285D01*
X81113333Y-95686666D01*
X81351429Y-95686666D01*
X81541905Y-95734285D01*
X81637143Y-95781904D01*
X81684762Y-95829523D01*
X81732381Y-95924761D01*
X81732381Y-96020000D01*
X81684762Y-96115238D01*
X81637143Y-96162857D01*
X81541905Y-96210476D01*
X81351429Y-96258095D01*
X81113333Y-96258095D01*
X80922857Y-96210476D01*
X80827619Y-96162857D01*
X80780000Y-96115238D01*
X80732381Y-96020000D01*
X81732381Y-94734285D02*
X81732381Y-95305714D01*
X81732381Y-95020000D02*
X80732381Y-95020000D01*
X80875238Y-95115238D01*
X80970476Y-95210476D01*
X81018095Y-95305714D01*
X80732381Y-94400952D02*
X81732381Y-93734285D01*
X80732381Y-93734285D02*
X81732381Y-94400952D01*
X80732381Y-93162857D02*
X80732381Y-93067618D01*
X80780000Y-92972380D01*
X80827619Y-92924761D01*
X80922857Y-92877142D01*
X81113333Y-92829523D01*
X81351429Y-92829523D01*
X81541905Y-92877142D01*
X81637143Y-92924761D01*
X81684762Y-92972380D01*
X81732381Y-93067618D01*
X81732381Y-93162857D01*
X81684762Y-93258095D01*
X81637143Y-93305714D01*
X81541905Y-93353333D01*
X81351429Y-93400952D01*
X81113333Y-93400952D01*
X80922857Y-93353333D01*
X80827619Y-93305714D01*
X80780000Y-93258095D01*
X80732381Y-93162857D01*
X81732381Y-92353333D02*
X81732381Y-92162857D01*
X81684762Y-92067618D01*
X81637143Y-92019999D01*
X81494286Y-91924761D01*
X81303810Y-91877142D01*
X80922857Y-91877142D01*
X80827619Y-91924761D01*
X80780000Y-91972380D01*
X80732381Y-92067618D01*
X80732381Y-92258095D01*
X80780000Y-92353333D01*
X80827619Y-92400952D01*
X80922857Y-92448571D01*
X81160952Y-92448571D01*
X81256190Y-92400952D01*
X81303810Y-92353333D01*
X81351429Y-92258095D01*
X81351429Y-92067618D01*
X81303810Y-91972380D01*
X81256190Y-91924761D01*
X81160952Y-91877142D01*
X95607143Y-96733809D02*
X95654762Y-96781428D01*
X95702381Y-96924285D01*
X95702381Y-97019523D01*
X95654762Y-97162381D01*
X95559524Y-97257619D01*
X95464286Y-97305238D01*
X95273810Y-97352857D01*
X95130952Y-97352857D01*
X94940476Y-97305238D01*
X94845238Y-97257619D01*
X94750000Y-97162381D01*
X94702381Y-97019523D01*
X94702381Y-96924285D01*
X94750000Y-96781428D01*
X94797619Y-96733809D01*
X94702381Y-96114762D02*
X94702381Y-95924285D01*
X94750000Y-95829047D01*
X94845238Y-95733809D01*
X95035714Y-95686190D01*
X95369048Y-95686190D01*
X95559524Y-95733809D01*
X95654762Y-95829047D01*
X95702381Y-95924285D01*
X95702381Y-96114762D01*
X95654762Y-96210000D01*
X95559524Y-96305238D01*
X95369048Y-96352857D01*
X95035714Y-96352857D01*
X94845238Y-96305238D01*
X94750000Y-96210000D01*
X94702381Y-96114762D01*
X95702381Y-95257619D02*
X94702381Y-95257619D01*
X95702381Y-94686190D01*
X94702381Y-94686190D01*
X95702381Y-94210000D02*
X94702381Y-94210000D01*
X95702381Y-93638571D01*
X94702381Y-93638571D01*
X95797619Y-93400476D02*
X95797619Y-92638571D01*
X94702381Y-92210000D02*
X94702381Y-92114761D01*
X94750000Y-92019523D01*
X94797619Y-91971904D01*
X94892857Y-91924285D01*
X95083333Y-91876666D01*
X95321429Y-91876666D01*
X95511905Y-91924285D01*
X95607143Y-91971904D01*
X95654762Y-92019523D01*
X95702381Y-92114761D01*
X95702381Y-92210000D01*
X95654762Y-92305238D01*
X95607143Y-92352857D01*
X95511905Y-92400476D01*
X95321429Y-92448095D01*
X95083333Y-92448095D01*
X94892857Y-92400476D01*
X94797619Y-92352857D01*
X94750000Y-92305238D01*
X94702381Y-92210000D01*
X95702381Y-90924285D02*
X95702381Y-91495714D01*
X95702381Y-91210000D02*
X94702381Y-91210000D01*
X94845238Y-91305238D01*
X94940476Y-91400476D01*
X94988095Y-91495714D01*
X94702381Y-90590952D02*
X95702381Y-89924285D01*
X94702381Y-89924285D02*
X95702381Y-90590952D01*
X94702381Y-89352857D02*
X94702381Y-89257618D01*
X94750000Y-89162380D01*
X94797619Y-89114761D01*
X94892857Y-89067142D01*
X95083333Y-89019523D01*
X95321429Y-89019523D01*
X95511905Y-89067142D01*
X95607143Y-89114761D01*
X95654762Y-89162380D01*
X95702381Y-89257618D01*
X95702381Y-89352857D01*
X95654762Y-89448095D01*
X95607143Y-89495714D01*
X95511905Y-89543333D01*
X95321429Y-89590952D01*
X95083333Y-89590952D01*
X94892857Y-89543333D01*
X94797619Y-89495714D01*
X94750000Y-89448095D01*
X94702381Y-89352857D01*
X94702381Y-88686190D02*
X94702381Y-88067142D01*
X95083333Y-88400476D01*
X95083333Y-88257618D01*
X95130952Y-88162380D01*
X95178571Y-88114761D01*
X95273810Y-88067142D01*
X95511905Y-88067142D01*
X95607143Y-88114761D01*
X95654762Y-88162380D01*
X95702381Y-88257618D01*
X95702381Y-88543333D01*
X95654762Y-88638571D01*
X95607143Y-88686190D01*
X123547143Y-90383809D02*
X123594762Y-90431428D01*
X123642381Y-90574285D01*
X123642381Y-90669523D01*
X123594762Y-90812381D01*
X123499524Y-90907619D01*
X123404286Y-90955238D01*
X123213810Y-91002857D01*
X123070952Y-91002857D01*
X122880476Y-90955238D01*
X122785238Y-90907619D01*
X122690000Y-90812381D01*
X122642381Y-90669523D01*
X122642381Y-90574285D01*
X122690000Y-90431428D01*
X122737619Y-90383809D01*
X122642381Y-89764762D02*
X122642381Y-89574285D01*
X122690000Y-89479047D01*
X122785238Y-89383809D01*
X122975714Y-89336190D01*
X123309048Y-89336190D01*
X123499524Y-89383809D01*
X123594762Y-89479047D01*
X123642381Y-89574285D01*
X123642381Y-89764762D01*
X123594762Y-89860000D01*
X123499524Y-89955238D01*
X123309048Y-90002857D01*
X122975714Y-90002857D01*
X122785238Y-89955238D01*
X122690000Y-89860000D01*
X122642381Y-89764762D01*
X123642381Y-88907619D02*
X122642381Y-88907619D01*
X123642381Y-88336190D01*
X122642381Y-88336190D01*
X123642381Y-87860000D02*
X122642381Y-87860000D01*
X123642381Y-87288571D01*
X122642381Y-87288571D01*
X123737619Y-87050476D02*
X123737619Y-86288571D01*
X122642381Y-85860000D02*
X122642381Y-85764761D01*
X122690000Y-85669523D01*
X122737619Y-85621904D01*
X122832857Y-85574285D01*
X123023333Y-85526666D01*
X123261429Y-85526666D01*
X123451905Y-85574285D01*
X123547143Y-85621904D01*
X123594762Y-85669523D01*
X123642381Y-85764761D01*
X123642381Y-85860000D01*
X123594762Y-85955238D01*
X123547143Y-86002857D01*
X123451905Y-86050476D01*
X123261429Y-86098095D01*
X123023333Y-86098095D01*
X122832857Y-86050476D01*
X122737619Y-86002857D01*
X122690000Y-85955238D01*
X122642381Y-85860000D01*
X123642381Y-84574285D02*
X123642381Y-85145714D01*
X123642381Y-84860000D02*
X122642381Y-84860000D01*
X122785238Y-84955238D01*
X122880476Y-85050476D01*
X122928095Y-85145714D01*
X122642381Y-84240952D02*
X123642381Y-83574285D01*
X122642381Y-83574285D02*
X123642381Y-84240952D01*
X122642381Y-83002857D02*
X122642381Y-82907618D01*
X122690000Y-82812380D01*
X122737619Y-82764761D01*
X122832857Y-82717142D01*
X123023333Y-82669523D01*
X123261429Y-82669523D01*
X123451905Y-82717142D01*
X123547143Y-82764761D01*
X123594762Y-82812380D01*
X123642381Y-82907618D01*
X123642381Y-83002857D01*
X123594762Y-83098095D01*
X123547143Y-83145714D01*
X123451905Y-83193333D01*
X123261429Y-83240952D01*
X123023333Y-83240952D01*
X122832857Y-83193333D01*
X122737619Y-83145714D01*
X122690000Y-83098095D01*
X122642381Y-83002857D01*
X122642381Y-82336190D02*
X122642381Y-81717142D01*
X123023333Y-82050476D01*
X123023333Y-81907618D01*
X123070952Y-81812380D01*
X123118571Y-81764761D01*
X123213810Y-81717142D01*
X123451905Y-81717142D01*
X123547143Y-81764761D01*
X123594762Y-81812380D01*
X123642381Y-81907618D01*
X123642381Y-82193333D01*
X123594762Y-82288571D01*
X123547143Y-82336190D01*
X129337143Y-42123809D02*
X129384762Y-42171428D01*
X129432381Y-42314285D01*
X129432381Y-42409523D01*
X129384762Y-42552381D01*
X129289524Y-42647619D01*
X129194286Y-42695238D01*
X129003810Y-42742857D01*
X128860952Y-42742857D01*
X128670476Y-42695238D01*
X128575238Y-42647619D01*
X128480000Y-42552381D01*
X128432381Y-42409523D01*
X128432381Y-42314285D01*
X128480000Y-42171428D01*
X128527619Y-42123809D01*
X128432381Y-41504762D02*
X128432381Y-41314285D01*
X128480000Y-41219047D01*
X128575238Y-41123809D01*
X128765714Y-41076190D01*
X129099048Y-41076190D01*
X129289524Y-41123809D01*
X129384762Y-41219047D01*
X129432381Y-41314285D01*
X129432381Y-41504762D01*
X129384762Y-41600000D01*
X129289524Y-41695238D01*
X129099048Y-41742857D01*
X128765714Y-41742857D01*
X128575238Y-41695238D01*
X128480000Y-41600000D01*
X128432381Y-41504762D01*
X129432381Y-40647619D02*
X128432381Y-40647619D01*
X129432381Y-40076190D01*
X128432381Y-40076190D01*
X129432381Y-39600000D02*
X128432381Y-39600000D01*
X129432381Y-39028571D01*
X128432381Y-39028571D01*
X129527619Y-38790476D02*
X129527619Y-38028571D01*
X128432381Y-37600000D02*
X128432381Y-37504761D01*
X128480000Y-37409523D01*
X128527619Y-37361904D01*
X128622857Y-37314285D01*
X128813333Y-37266666D01*
X129051429Y-37266666D01*
X129241905Y-37314285D01*
X129337143Y-37361904D01*
X129384762Y-37409523D01*
X129432381Y-37504761D01*
X129432381Y-37600000D01*
X129384762Y-37695238D01*
X129337143Y-37742857D01*
X129241905Y-37790476D01*
X129051429Y-37838095D01*
X128813333Y-37838095D01*
X128622857Y-37790476D01*
X128527619Y-37742857D01*
X128480000Y-37695238D01*
X128432381Y-37600000D01*
X129432381Y-36314285D02*
X129432381Y-36885714D01*
X129432381Y-36600000D02*
X128432381Y-36600000D01*
X128575238Y-36695238D01*
X128670476Y-36790476D01*
X128718095Y-36885714D01*
X128432381Y-35980952D02*
X129432381Y-35314285D01*
X128432381Y-35314285D02*
X129432381Y-35980952D01*
X128432381Y-34742857D02*
X128432381Y-34647618D01*
X128480000Y-34552380D01*
X128527619Y-34504761D01*
X128622857Y-34457142D01*
X128813333Y-34409523D01*
X129051429Y-34409523D01*
X129241905Y-34457142D01*
X129337143Y-34504761D01*
X129384762Y-34552380D01*
X129432381Y-34647618D01*
X129432381Y-34742857D01*
X129384762Y-34838095D01*
X129337143Y-34885714D01*
X129241905Y-34933333D01*
X129051429Y-34980952D01*
X128813333Y-34980952D01*
X128622857Y-34933333D01*
X128527619Y-34885714D01*
X128480000Y-34838095D01*
X128432381Y-34742857D01*
X128432381Y-34076190D02*
X128432381Y-33457142D01*
X128813333Y-33790476D01*
X128813333Y-33647618D01*
X128860952Y-33552380D01*
X128908571Y-33504761D01*
X129003810Y-33457142D01*
X129241905Y-33457142D01*
X129337143Y-33504761D01*
X129384762Y-33552380D01*
X129432381Y-33647618D01*
X129432381Y-33933333D01*
X129384762Y-34028571D01*
X129337143Y-34076190D01*
X88686191Y-47347143D02*
X88638572Y-47394762D01*
X88495715Y-47442381D01*
X88400477Y-47442381D01*
X88257619Y-47394762D01*
X88162381Y-47299524D01*
X88114762Y-47204286D01*
X88067143Y-47013810D01*
X88067143Y-46870952D01*
X88114762Y-46680476D01*
X88162381Y-46585238D01*
X88257619Y-46490000D01*
X88400477Y-46442381D01*
X88495715Y-46442381D01*
X88638572Y-46490000D01*
X88686191Y-46537619D01*
X89305238Y-46442381D02*
X89495715Y-46442381D01*
X89590953Y-46490000D01*
X89686191Y-46585238D01*
X89733810Y-46775714D01*
X89733810Y-47109048D01*
X89686191Y-47299524D01*
X89590953Y-47394762D01*
X89495715Y-47442381D01*
X89305238Y-47442381D01*
X89210000Y-47394762D01*
X89114762Y-47299524D01*
X89067143Y-47109048D01*
X89067143Y-46775714D01*
X89114762Y-46585238D01*
X89210000Y-46490000D01*
X89305238Y-46442381D01*
X90162381Y-47442381D02*
X90162381Y-46442381D01*
X90733810Y-47442381D01*
X90733810Y-46442381D01*
X91210000Y-47442381D02*
X91210000Y-46442381D01*
X91781429Y-47442381D01*
X91781429Y-46442381D01*
X92019524Y-47537619D02*
X92781429Y-47537619D01*
X93210000Y-46442381D02*
X93305239Y-46442381D01*
X93400477Y-46490000D01*
X93448096Y-46537619D01*
X93495715Y-46632857D01*
X93543334Y-46823333D01*
X93543334Y-47061429D01*
X93495715Y-47251905D01*
X93448096Y-47347143D01*
X93400477Y-47394762D01*
X93305239Y-47442381D01*
X93210000Y-47442381D01*
X93114762Y-47394762D01*
X93067143Y-47347143D01*
X93019524Y-47251905D01*
X92971905Y-47061429D01*
X92971905Y-46823333D01*
X93019524Y-46632857D01*
X93067143Y-46537619D01*
X93114762Y-46490000D01*
X93210000Y-46442381D01*
X94495715Y-47442381D02*
X93924286Y-47442381D01*
X94210000Y-47442381D02*
X94210000Y-46442381D01*
X94114762Y-46585238D01*
X94019524Y-46680476D01*
X93924286Y-46728095D01*
X94829048Y-46442381D02*
X95495715Y-47442381D01*
X95495715Y-46442381D02*
X94829048Y-47442381D01*
X95829048Y-46537619D02*
X95876667Y-46490000D01*
X95971905Y-46442381D01*
X96210001Y-46442381D01*
X96305239Y-46490000D01*
X96352858Y-46537619D01*
X96400477Y-46632857D01*
X96400477Y-46728095D01*
X96352858Y-46870952D01*
X95781429Y-47442381D01*
X96400477Y-47442381D01*
X97257620Y-46775714D02*
X97257620Y-47442381D01*
X97019524Y-46394762D02*
X96781429Y-47109048D01*
X97400477Y-47109048D01*
X107597143Y-54823809D02*
X107644762Y-54871428D01*
X107692381Y-55014285D01*
X107692381Y-55109523D01*
X107644762Y-55252381D01*
X107549524Y-55347619D01*
X107454286Y-55395238D01*
X107263810Y-55442857D01*
X107120952Y-55442857D01*
X106930476Y-55395238D01*
X106835238Y-55347619D01*
X106740000Y-55252381D01*
X106692381Y-55109523D01*
X106692381Y-55014285D01*
X106740000Y-54871428D01*
X106787619Y-54823809D01*
X106692381Y-54204762D02*
X106692381Y-54014285D01*
X106740000Y-53919047D01*
X106835238Y-53823809D01*
X107025714Y-53776190D01*
X107359048Y-53776190D01*
X107549524Y-53823809D01*
X107644762Y-53919047D01*
X107692381Y-54014285D01*
X107692381Y-54204762D01*
X107644762Y-54300000D01*
X107549524Y-54395238D01*
X107359048Y-54442857D01*
X107025714Y-54442857D01*
X106835238Y-54395238D01*
X106740000Y-54300000D01*
X106692381Y-54204762D01*
X107692381Y-53347619D02*
X106692381Y-53347619D01*
X107692381Y-52776190D01*
X106692381Y-52776190D01*
X107692381Y-52300000D02*
X106692381Y-52300000D01*
X107692381Y-51728571D01*
X106692381Y-51728571D01*
X107787619Y-51490476D02*
X107787619Y-50728571D01*
X106692381Y-50300000D02*
X106692381Y-50204761D01*
X106740000Y-50109523D01*
X106787619Y-50061904D01*
X106882857Y-50014285D01*
X107073333Y-49966666D01*
X107311429Y-49966666D01*
X107501905Y-50014285D01*
X107597143Y-50061904D01*
X107644762Y-50109523D01*
X107692381Y-50204761D01*
X107692381Y-50300000D01*
X107644762Y-50395238D01*
X107597143Y-50442857D01*
X107501905Y-50490476D01*
X107311429Y-50538095D01*
X107073333Y-50538095D01*
X106882857Y-50490476D01*
X106787619Y-50442857D01*
X106740000Y-50395238D01*
X106692381Y-50300000D01*
X107692381Y-49014285D02*
X107692381Y-49585714D01*
X107692381Y-49300000D02*
X106692381Y-49300000D01*
X106835238Y-49395238D01*
X106930476Y-49490476D01*
X106978095Y-49585714D01*
X106692381Y-48680952D02*
X107692381Y-48014285D01*
X106692381Y-48014285D02*
X107692381Y-48680952D01*
X106787619Y-47680952D02*
X106740000Y-47633333D01*
X106692381Y-47538095D01*
X106692381Y-47299999D01*
X106740000Y-47204761D01*
X106787619Y-47157142D01*
X106882857Y-47109523D01*
X106978095Y-47109523D01*
X107120952Y-47157142D01*
X107692381Y-47728571D01*
X107692381Y-47109523D01*
X107025714Y-46252380D02*
X107692381Y-46252380D01*
X106644762Y-46490476D02*
X107359048Y-46728571D01*
X107359048Y-46109523D01*
X79097143Y-94193809D02*
X79144762Y-94241428D01*
X79192381Y-94384285D01*
X79192381Y-94479523D01*
X79144762Y-94622381D01*
X79049524Y-94717619D01*
X78954286Y-94765238D01*
X78763810Y-94812857D01*
X78620952Y-94812857D01*
X78430476Y-94765238D01*
X78335238Y-94717619D01*
X78240000Y-94622381D01*
X78192381Y-94479523D01*
X78192381Y-94384285D01*
X78240000Y-94241428D01*
X78287619Y-94193809D01*
X78192381Y-93574762D02*
X78192381Y-93384285D01*
X78240000Y-93289047D01*
X78335238Y-93193809D01*
X78525714Y-93146190D01*
X78859048Y-93146190D01*
X79049524Y-93193809D01*
X79144762Y-93289047D01*
X79192381Y-93384285D01*
X79192381Y-93574762D01*
X79144762Y-93670000D01*
X79049524Y-93765238D01*
X78859048Y-93812857D01*
X78525714Y-93812857D01*
X78335238Y-93765238D01*
X78240000Y-93670000D01*
X78192381Y-93574762D01*
X79192381Y-92717619D02*
X78192381Y-92717619D01*
X79192381Y-92146190D01*
X78192381Y-92146190D01*
X79192381Y-91670000D02*
X78192381Y-91670000D01*
X79192381Y-91098571D01*
X78192381Y-91098571D01*
X79287619Y-90860476D02*
X79287619Y-90098571D01*
X78192381Y-89670000D02*
X78192381Y-89574761D01*
X78240000Y-89479523D01*
X78287619Y-89431904D01*
X78382857Y-89384285D01*
X78573333Y-89336666D01*
X78811429Y-89336666D01*
X79001905Y-89384285D01*
X79097143Y-89431904D01*
X79144762Y-89479523D01*
X79192381Y-89574761D01*
X79192381Y-89670000D01*
X79144762Y-89765238D01*
X79097143Y-89812857D01*
X79001905Y-89860476D01*
X78811429Y-89908095D01*
X78573333Y-89908095D01*
X78382857Y-89860476D01*
X78287619Y-89812857D01*
X78240000Y-89765238D01*
X78192381Y-89670000D01*
X79192381Y-88384285D02*
X79192381Y-88955714D01*
X79192381Y-88670000D02*
X78192381Y-88670000D01*
X78335238Y-88765238D01*
X78430476Y-88860476D01*
X78478095Y-88955714D01*
X78192381Y-88050952D02*
X79192381Y-87384285D01*
X78192381Y-87384285D02*
X79192381Y-88050952D01*
X78192381Y-86812857D02*
X78192381Y-86717618D01*
X78240000Y-86622380D01*
X78287619Y-86574761D01*
X78382857Y-86527142D01*
X78573333Y-86479523D01*
X78811429Y-86479523D01*
X79001905Y-86527142D01*
X79097143Y-86574761D01*
X79144762Y-86622380D01*
X79192381Y-86717618D01*
X79192381Y-86812857D01*
X79144762Y-86908095D01*
X79097143Y-86955714D01*
X79001905Y-87003333D01*
X78811429Y-87050952D01*
X78573333Y-87050952D01*
X78382857Y-87003333D01*
X78287619Y-86955714D01*
X78240000Y-86908095D01*
X78192381Y-86812857D01*
X78192381Y-86146190D02*
X78192381Y-85527142D01*
X78573333Y-85860476D01*
X78573333Y-85717618D01*
X78620952Y-85622380D01*
X78668571Y-85574761D01*
X78763810Y-85527142D01*
X79001905Y-85527142D01*
X79097143Y-85574761D01*
X79144762Y-85622380D01*
X79192381Y-85717618D01*
X79192381Y-86003333D01*
X79144762Y-86098571D01*
X79097143Y-86146190D01*
X122277143Y-57363809D02*
X122324762Y-57411428D01*
X122372381Y-57554285D01*
X122372381Y-57649523D01*
X122324762Y-57792381D01*
X122229524Y-57887619D01*
X122134286Y-57935238D01*
X121943810Y-57982857D01*
X121800952Y-57982857D01*
X121610476Y-57935238D01*
X121515238Y-57887619D01*
X121420000Y-57792381D01*
X121372381Y-57649523D01*
X121372381Y-57554285D01*
X121420000Y-57411428D01*
X121467619Y-57363809D01*
X121372381Y-56744762D02*
X121372381Y-56554285D01*
X121420000Y-56459047D01*
X121515238Y-56363809D01*
X121705714Y-56316190D01*
X122039048Y-56316190D01*
X122229524Y-56363809D01*
X122324762Y-56459047D01*
X122372381Y-56554285D01*
X122372381Y-56744762D01*
X122324762Y-56840000D01*
X122229524Y-56935238D01*
X122039048Y-56982857D01*
X121705714Y-56982857D01*
X121515238Y-56935238D01*
X121420000Y-56840000D01*
X121372381Y-56744762D01*
X122372381Y-55887619D02*
X121372381Y-55887619D01*
X122372381Y-55316190D01*
X121372381Y-55316190D01*
X122372381Y-54840000D02*
X121372381Y-54840000D01*
X122372381Y-54268571D01*
X121372381Y-54268571D01*
X122467619Y-54030476D02*
X122467619Y-53268571D01*
X121372381Y-52840000D02*
X121372381Y-52744761D01*
X121420000Y-52649523D01*
X121467619Y-52601904D01*
X121562857Y-52554285D01*
X121753333Y-52506666D01*
X121991429Y-52506666D01*
X122181905Y-52554285D01*
X122277143Y-52601904D01*
X122324762Y-52649523D01*
X122372381Y-52744761D01*
X122372381Y-52840000D01*
X122324762Y-52935238D01*
X122277143Y-52982857D01*
X122181905Y-53030476D01*
X121991429Y-53078095D01*
X121753333Y-53078095D01*
X121562857Y-53030476D01*
X121467619Y-52982857D01*
X121420000Y-52935238D01*
X121372381Y-52840000D01*
X122372381Y-51554285D02*
X122372381Y-52125714D01*
X122372381Y-51840000D02*
X121372381Y-51840000D01*
X121515238Y-51935238D01*
X121610476Y-52030476D01*
X121658095Y-52125714D01*
X121372381Y-51220952D02*
X122372381Y-50554285D01*
X121372381Y-50554285D02*
X122372381Y-51220952D01*
X121467619Y-50220952D02*
X121420000Y-50173333D01*
X121372381Y-50078095D01*
X121372381Y-49839999D01*
X121420000Y-49744761D01*
X121467619Y-49697142D01*
X121562857Y-49649523D01*
X121658095Y-49649523D01*
X121800952Y-49697142D01*
X122372381Y-50268571D01*
X122372381Y-49649523D01*
X121705714Y-48792380D02*
X122372381Y-48792380D01*
X121324762Y-49030476D02*
X122039048Y-49268571D01*
X122039048Y-48649523D01*
X131167143Y-53553809D02*
X131214762Y-53601428D01*
X131262381Y-53744285D01*
X131262381Y-53839523D01*
X131214762Y-53982381D01*
X131119524Y-54077619D01*
X131024286Y-54125238D01*
X130833810Y-54172857D01*
X130690952Y-54172857D01*
X130500476Y-54125238D01*
X130405238Y-54077619D01*
X130310000Y-53982381D01*
X130262381Y-53839523D01*
X130262381Y-53744285D01*
X130310000Y-53601428D01*
X130357619Y-53553809D01*
X130262381Y-52934762D02*
X130262381Y-52744285D01*
X130310000Y-52649047D01*
X130405238Y-52553809D01*
X130595714Y-52506190D01*
X130929048Y-52506190D01*
X131119524Y-52553809D01*
X131214762Y-52649047D01*
X131262381Y-52744285D01*
X131262381Y-52934762D01*
X131214762Y-53030000D01*
X131119524Y-53125238D01*
X130929048Y-53172857D01*
X130595714Y-53172857D01*
X130405238Y-53125238D01*
X130310000Y-53030000D01*
X130262381Y-52934762D01*
X131262381Y-52077619D02*
X130262381Y-52077619D01*
X131262381Y-51506190D01*
X130262381Y-51506190D01*
X131262381Y-51030000D02*
X130262381Y-51030000D01*
X131262381Y-50458571D01*
X130262381Y-50458571D01*
X131357619Y-50220476D02*
X131357619Y-49458571D01*
X130262381Y-49030000D02*
X130262381Y-48934761D01*
X130310000Y-48839523D01*
X130357619Y-48791904D01*
X130452857Y-48744285D01*
X130643333Y-48696666D01*
X130881429Y-48696666D01*
X131071905Y-48744285D01*
X131167143Y-48791904D01*
X131214762Y-48839523D01*
X131262381Y-48934761D01*
X131262381Y-49030000D01*
X131214762Y-49125238D01*
X131167143Y-49172857D01*
X131071905Y-49220476D01*
X130881429Y-49268095D01*
X130643333Y-49268095D01*
X130452857Y-49220476D01*
X130357619Y-49172857D01*
X130310000Y-49125238D01*
X130262381Y-49030000D01*
X131262381Y-47744285D02*
X131262381Y-48315714D01*
X131262381Y-48030000D02*
X130262381Y-48030000D01*
X130405238Y-48125238D01*
X130500476Y-48220476D01*
X130548095Y-48315714D01*
X130262381Y-47410952D02*
X131262381Y-46744285D01*
X130262381Y-46744285D02*
X131262381Y-47410952D01*
X130357619Y-46410952D02*
X130310000Y-46363333D01*
X130262381Y-46268095D01*
X130262381Y-46029999D01*
X130310000Y-45934761D01*
X130357619Y-45887142D01*
X130452857Y-45839523D01*
X130548095Y-45839523D01*
X130690952Y-45887142D01*
X131262381Y-46458571D01*
X131262381Y-45839523D01*
X130595714Y-44982380D02*
X131262381Y-44982380D01*
X130214762Y-45220476D02*
X130929048Y-45458571D01*
X130929048Y-44839523D01*
X142597143Y-54823809D02*
X142644762Y-54871428D01*
X142692381Y-55014285D01*
X142692381Y-55109523D01*
X142644762Y-55252381D01*
X142549524Y-55347619D01*
X142454286Y-55395238D01*
X142263810Y-55442857D01*
X142120952Y-55442857D01*
X141930476Y-55395238D01*
X141835238Y-55347619D01*
X141740000Y-55252381D01*
X141692381Y-55109523D01*
X141692381Y-55014285D01*
X141740000Y-54871428D01*
X141787619Y-54823809D01*
X141692381Y-54204762D02*
X141692381Y-54014285D01*
X141740000Y-53919047D01*
X141835238Y-53823809D01*
X142025714Y-53776190D01*
X142359048Y-53776190D01*
X142549524Y-53823809D01*
X142644762Y-53919047D01*
X142692381Y-54014285D01*
X142692381Y-54204762D01*
X142644762Y-54300000D01*
X142549524Y-54395238D01*
X142359048Y-54442857D01*
X142025714Y-54442857D01*
X141835238Y-54395238D01*
X141740000Y-54300000D01*
X141692381Y-54204762D01*
X142692381Y-53347619D02*
X141692381Y-53347619D01*
X142692381Y-52776190D01*
X141692381Y-52776190D01*
X142692381Y-52300000D02*
X141692381Y-52300000D01*
X142692381Y-51728571D01*
X141692381Y-51728571D01*
X142787619Y-51490476D02*
X142787619Y-50728571D01*
X141692381Y-50300000D02*
X141692381Y-50204761D01*
X141740000Y-50109523D01*
X141787619Y-50061904D01*
X141882857Y-50014285D01*
X142073333Y-49966666D01*
X142311429Y-49966666D01*
X142501905Y-50014285D01*
X142597143Y-50061904D01*
X142644762Y-50109523D01*
X142692381Y-50204761D01*
X142692381Y-50300000D01*
X142644762Y-50395238D01*
X142597143Y-50442857D01*
X142501905Y-50490476D01*
X142311429Y-50538095D01*
X142073333Y-50538095D01*
X141882857Y-50490476D01*
X141787619Y-50442857D01*
X141740000Y-50395238D01*
X141692381Y-50300000D01*
X142692381Y-49014285D02*
X142692381Y-49585714D01*
X142692381Y-49300000D02*
X141692381Y-49300000D01*
X141835238Y-49395238D01*
X141930476Y-49490476D01*
X141978095Y-49585714D01*
X141692381Y-48680952D02*
X142692381Y-48014285D01*
X141692381Y-48014285D02*
X142692381Y-48680952D01*
X142692381Y-47109523D02*
X142692381Y-47680952D01*
X142692381Y-47395238D02*
X141692381Y-47395238D01*
X141835238Y-47490476D01*
X141930476Y-47585714D01*
X141978095Y-47680952D01*
X141692381Y-46776190D02*
X141692381Y-46157142D01*
X142073333Y-46490476D01*
X142073333Y-46347618D01*
X142120952Y-46252380D01*
X142168571Y-46204761D01*
X142263810Y-46157142D01*
X142501905Y-46157142D01*
X142597143Y-46204761D01*
X142644762Y-46252380D01*
X142692381Y-46347618D01*
X142692381Y-46633333D01*
X142644762Y-46728571D01*
X142597143Y-46776190D01*
X131866191Y-86157143D02*
X131818572Y-86204762D01*
X131675715Y-86252381D01*
X131580477Y-86252381D01*
X131437619Y-86204762D01*
X131342381Y-86109524D01*
X131294762Y-86014286D01*
X131247143Y-85823810D01*
X131247143Y-85680952D01*
X131294762Y-85490476D01*
X131342381Y-85395238D01*
X131437619Y-85300000D01*
X131580477Y-85252381D01*
X131675715Y-85252381D01*
X131818572Y-85300000D01*
X131866191Y-85347619D01*
X132485238Y-85252381D02*
X132675715Y-85252381D01*
X132770953Y-85300000D01*
X132866191Y-85395238D01*
X132913810Y-85585714D01*
X132913810Y-85919048D01*
X132866191Y-86109524D01*
X132770953Y-86204762D01*
X132675715Y-86252381D01*
X132485238Y-86252381D01*
X132390000Y-86204762D01*
X132294762Y-86109524D01*
X132247143Y-85919048D01*
X132247143Y-85585714D01*
X132294762Y-85395238D01*
X132390000Y-85300000D01*
X132485238Y-85252381D01*
X133342381Y-86252381D02*
X133342381Y-85252381D01*
X133913810Y-86252381D01*
X133913810Y-85252381D01*
X134390000Y-86252381D02*
X134390000Y-85252381D01*
X134961429Y-86252381D01*
X134961429Y-85252381D01*
X135199524Y-86347619D02*
X135961429Y-86347619D01*
X136390000Y-85252381D02*
X136485239Y-85252381D01*
X136580477Y-85300000D01*
X136628096Y-85347619D01*
X136675715Y-85442857D01*
X136723334Y-85633333D01*
X136723334Y-85871429D01*
X136675715Y-86061905D01*
X136628096Y-86157143D01*
X136580477Y-86204762D01*
X136485239Y-86252381D01*
X136390000Y-86252381D01*
X136294762Y-86204762D01*
X136247143Y-86157143D01*
X136199524Y-86061905D01*
X136151905Y-85871429D01*
X136151905Y-85633333D01*
X136199524Y-85442857D01*
X136247143Y-85347619D01*
X136294762Y-85300000D01*
X136390000Y-85252381D01*
X137675715Y-86252381D02*
X137104286Y-86252381D01*
X137390000Y-86252381D02*
X137390000Y-85252381D01*
X137294762Y-85395238D01*
X137199524Y-85490476D01*
X137104286Y-85538095D01*
X138009048Y-85252381D02*
X138675715Y-86252381D01*
X138675715Y-85252381D02*
X138009048Y-86252381D01*
X139247143Y-85252381D02*
X139342382Y-85252381D01*
X139437620Y-85300000D01*
X139485239Y-85347619D01*
X139532858Y-85442857D01*
X139580477Y-85633333D01*
X139580477Y-85871429D01*
X139532858Y-86061905D01*
X139485239Y-86157143D01*
X139437620Y-86204762D01*
X139342382Y-86252381D01*
X139247143Y-86252381D01*
X139151905Y-86204762D01*
X139104286Y-86157143D01*
X139056667Y-86061905D01*
X139009048Y-85871429D01*
X139009048Y-85633333D01*
X139056667Y-85442857D01*
X139104286Y-85347619D01*
X139151905Y-85300000D01*
X139247143Y-85252381D01*
X140056667Y-86252381D02*
X140247143Y-86252381D01*
X140342382Y-86204762D01*
X140390001Y-86157143D01*
X140485239Y-86014286D01*
X140532858Y-85823810D01*
X140532858Y-85442857D01*
X140485239Y-85347619D01*
X140437620Y-85300000D01*
X140342382Y-85252381D01*
X140151905Y-85252381D01*
X140056667Y-85300000D01*
X140009048Y-85347619D01*
X139961429Y-85442857D01*
X139961429Y-85680952D01*
X140009048Y-85776190D01*
X140056667Y-85823810D01*
X140151905Y-85871429D01*
X140342382Y-85871429D01*
X140437620Y-85823810D01*
X140485239Y-85776190D01*
X140532858Y-85680952D01*
X141327143Y-58633809D02*
X141374762Y-58681428D01*
X141422381Y-58824285D01*
X141422381Y-58919523D01*
X141374762Y-59062381D01*
X141279524Y-59157619D01*
X141184286Y-59205238D01*
X140993810Y-59252857D01*
X140850952Y-59252857D01*
X140660476Y-59205238D01*
X140565238Y-59157619D01*
X140470000Y-59062381D01*
X140422381Y-58919523D01*
X140422381Y-58824285D01*
X140470000Y-58681428D01*
X140517619Y-58633809D01*
X140422381Y-58014762D02*
X140422381Y-57824285D01*
X140470000Y-57729047D01*
X140565238Y-57633809D01*
X140755714Y-57586190D01*
X141089048Y-57586190D01*
X141279524Y-57633809D01*
X141374762Y-57729047D01*
X141422381Y-57824285D01*
X141422381Y-58014762D01*
X141374762Y-58110000D01*
X141279524Y-58205238D01*
X141089048Y-58252857D01*
X140755714Y-58252857D01*
X140565238Y-58205238D01*
X140470000Y-58110000D01*
X140422381Y-58014762D01*
X141422381Y-57157619D02*
X140422381Y-57157619D01*
X141422381Y-56586190D01*
X140422381Y-56586190D01*
X141422381Y-56110000D02*
X140422381Y-56110000D01*
X141422381Y-55538571D01*
X140422381Y-55538571D01*
X141517619Y-55300476D02*
X141517619Y-54538571D01*
X140422381Y-54110000D02*
X140422381Y-54014761D01*
X140470000Y-53919523D01*
X140517619Y-53871904D01*
X140612857Y-53824285D01*
X140803333Y-53776666D01*
X141041429Y-53776666D01*
X141231905Y-53824285D01*
X141327143Y-53871904D01*
X141374762Y-53919523D01*
X141422381Y-54014761D01*
X141422381Y-54110000D01*
X141374762Y-54205238D01*
X141327143Y-54252857D01*
X141231905Y-54300476D01*
X141041429Y-54348095D01*
X140803333Y-54348095D01*
X140612857Y-54300476D01*
X140517619Y-54252857D01*
X140470000Y-54205238D01*
X140422381Y-54110000D01*
X141422381Y-52824285D02*
X141422381Y-53395714D01*
X141422381Y-53110000D02*
X140422381Y-53110000D01*
X140565238Y-53205238D01*
X140660476Y-53300476D01*
X140708095Y-53395714D01*
X140422381Y-52490952D02*
X141422381Y-51824285D01*
X140422381Y-51824285D02*
X141422381Y-52490952D01*
X141422381Y-50919523D02*
X141422381Y-51490952D01*
X141422381Y-51205238D02*
X140422381Y-51205238D01*
X140565238Y-51300476D01*
X140660476Y-51395714D01*
X140708095Y-51490952D01*
X140422381Y-50586190D02*
X140422381Y-49967142D01*
X140803333Y-50300476D01*
X140803333Y-50157618D01*
X140850952Y-50062380D01*
X140898571Y-50014761D01*
X140993810Y-49967142D01*
X141231905Y-49967142D01*
X141327143Y-50014761D01*
X141374762Y-50062380D01*
X141422381Y-50157618D01*
X141422381Y-50443333D01*
X141374762Y-50538571D01*
X141327143Y-50586190D01*
X134406191Y-86157143D02*
X134358572Y-86204762D01*
X134215715Y-86252381D01*
X134120477Y-86252381D01*
X133977619Y-86204762D01*
X133882381Y-86109524D01*
X133834762Y-86014286D01*
X133787143Y-85823810D01*
X133787143Y-85680952D01*
X133834762Y-85490476D01*
X133882381Y-85395238D01*
X133977619Y-85300000D01*
X134120477Y-85252381D01*
X134215715Y-85252381D01*
X134358572Y-85300000D01*
X134406191Y-85347619D01*
X135025238Y-85252381D02*
X135215715Y-85252381D01*
X135310953Y-85300000D01*
X135406191Y-85395238D01*
X135453810Y-85585714D01*
X135453810Y-85919048D01*
X135406191Y-86109524D01*
X135310953Y-86204762D01*
X135215715Y-86252381D01*
X135025238Y-86252381D01*
X134930000Y-86204762D01*
X134834762Y-86109524D01*
X134787143Y-85919048D01*
X134787143Y-85585714D01*
X134834762Y-85395238D01*
X134930000Y-85300000D01*
X135025238Y-85252381D01*
X135882381Y-86252381D02*
X135882381Y-85252381D01*
X136453810Y-86252381D01*
X136453810Y-85252381D01*
X136930000Y-86252381D02*
X136930000Y-85252381D01*
X137501429Y-86252381D01*
X137501429Y-85252381D01*
X137739524Y-86347619D02*
X138501429Y-86347619D01*
X138930000Y-85252381D02*
X139025239Y-85252381D01*
X139120477Y-85300000D01*
X139168096Y-85347619D01*
X139215715Y-85442857D01*
X139263334Y-85633333D01*
X139263334Y-85871429D01*
X139215715Y-86061905D01*
X139168096Y-86157143D01*
X139120477Y-86204762D01*
X139025239Y-86252381D01*
X138930000Y-86252381D01*
X138834762Y-86204762D01*
X138787143Y-86157143D01*
X138739524Y-86061905D01*
X138691905Y-85871429D01*
X138691905Y-85633333D01*
X138739524Y-85442857D01*
X138787143Y-85347619D01*
X138834762Y-85300000D01*
X138930000Y-85252381D01*
X140215715Y-86252381D02*
X139644286Y-86252381D01*
X139930000Y-86252381D02*
X139930000Y-85252381D01*
X139834762Y-85395238D01*
X139739524Y-85490476D01*
X139644286Y-85538095D01*
X140549048Y-85252381D02*
X141215715Y-86252381D01*
X141215715Y-85252381D02*
X140549048Y-86252381D01*
X142120477Y-86252381D02*
X141549048Y-86252381D01*
X141834762Y-86252381D02*
X141834762Y-85252381D01*
X141739524Y-85395238D01*
X141644286Y-85490476D01*
X141549048Y-85538095D01*
X142739524Y-85252381D02*
X142834763Y-85252381D01*
X142930001Y-85300000D01*
X142977620Y-85347619D01*
X143025239Y-85442857D01*
X143072858Y-85633333D01*
X143072858Y-85871429D01*
X143025239Y-86061905D01*
X142977620Y-86157143D01*
X142930001Y-86204762D01*
X142834763Y-86252381D01*
X142739524Y-86252381D01*
X142644286Y-86204762D01*
X142596667Y-86157143D01*
X142549048Y-86061905D01*
X142501429Y-85871429D01*
X142501429Y-85633333D01*
X142549048Y-85442857D01*
X142596667Y-85347619D01*
X142644286Y-85300000D01*
X142739524Y-85252381D01*
X112117143Y-61173809D02*
X112164762Y-61221428D01*
X112212381Y-61364285D01*
X112212381Y-61459523D01*
X112164762Y-61602381D01*
X112069524Y-61697619D01*
X111974286Y-61745238D01*
X111783810Y-61792857D01*
X111640952Y-61792857D01*
X111450476Y-61745238D01*
X111355238Y-61697619D01*
X111260000Y-61602381D01*
X111212381Y-61459523D01*
X111212381Y-61364285D01*
X111260000Y-61221428D01*
X111307619Y-61173809D01*
X111212381Y-60554762D02*
X111212381Y-60364285D01*
X111260000Y-60269047D01*
X111355238Y-60173809D01*
X111545714Y-60126190D01*
X111879048Y-60126190D01*
X112069524Y-60173809D01*
X112164762Y-60269047D01*
X112212381Y-60364285D01*
X112212381Y-60554762D01*
X112164762Y-60650000D01*
X112069524Y-60745238D01*
X111879048Y-60792857D01*
X111545714Y-60792857D01*
X111355238Y-60745238D01*
X111260000Y-60650000D01*
X111212381Y-60554762D01*
X112212381Y-59697619D02*
X111212381Y-59697619D01*
X112212381Y-59126190D01*
X111212381Y-59126190D01*
X112212381Y-58650000D02*
X111212381Y-58650000D01*
X112212381Y-58078571D01*
X111212381Y-58078571D01*
X112307619Y-57840476D02*
X112307619Y-57078571D01*
X111212381Y-56650000D02*
X111212381Y-56554761D01*
X111260000Y-56459523D01*
X111307619Y-56411904D01*
X111402857Y-56364285D01*
X111593333Y-56316666D01*
X111831429Y-56316666D01*
X112021905Y-56364285D01*
X112117143Y-56411904D01*
X112164762Y-56459523D01*
X112212381Y-56554761D01*
X112212381Y-56650000D01*
X112164762Y-56745238D01*
X112117143Y-56792857D01*
X112021905Y-56840476D01*
X111831429Y-56888095D01*
X111593333Y-56888095D01*
X111402857Y-56840476D01*
X111307619Y-56792857D01*
X111260000Y-56745238D01*
X111212381Y-56650000D01*
X112212381Y-55364285D02*
X112212381Y-55935714D01*
X112212381Y-55650000D02*
X111212381Y-55650000D01*
X111355238Y-55745238D01*
X111450476Y-55840476D01*
X111498095Y-55935714D01*
X111212381Y-55030952D02*
X112212381Y-54364285D01*
X111212381Y-54364285D02*
X112212381Y-55030952D01*
X111212381Y-53792857D02*
X111212381Y-53697618D01*
X111260000Y-53602380D01*
X111307619Y-53554761D01*
X111402857Y-53507142D01*
X111593333Y-53459523D01*
X111831429Y-53459523D01*
X112021905Y-53507142D01*
X112117143Y-53554761D01*
X112164762Y-53602380D01*
X112212381Y-53697618D01*
X112212381Y-53792857D01*
X112164762Y-53888095D01*
X112117143Y-53935714D01*
X112021905Y-53983333D01*
X111831429Y-54030952D01*
X111593333Y-54030952D01*
X111402857Y-53983333D01*
X111307619Y-53935714D01*
X111260000Y-53888095D01*
X111212381Y-53792857D01*
X111212381Y-53126190D02*
X111212381Y-52507142D01*
X111593333Y-52840476D01*
X111593333Y-52697618D01*
X111640952Y-52602380D01*
X111688571Y-52554761D01*
X111783810Y-52507142D01*
X112021905Y-52507142D01*
X112117143Y-52554761D01*
X112164762Y-52602380D01*
X112212381Y-52697618D01*
X112212381Y-52983333D01*
X112164762Y-53078571D01*
X112117143Y-53126190D01*
X79097143Y-76413809D02*
X79144762Y-76461428D01*
X79192381Y-76604285D01*
X79192381Y-76699523D01*
X79144762Y-76842381D01*
X79049524Y-76937619D01*
X78954286Y-76985238D01*
X78763810Y-77032857D01*
X78620952Y-77032857D01*
X78430476Y-76985238D01*
X78335238Y-76937619D01*
X78240000Y-76842381D01*
X78192381Y-76699523D01*
X78192381Y-76604285D01*
X78240000Y-76461428D01*
X78287619Y-76413809D01*
X78192381Y-75794762D02*
X78192381Y-75604285D01*
X78240000Y-75509047D01*
X78335238Y-75413809D01*
X78525714Y-75366190D01*
X78859048Y-75366190D01*
X79049524Y-75413809D01*
X79144762Y-75509047D01*
X79192381Y-75604285D01*
X79192381Y-75794762D01*
X79144762Y-75890000D01*
X79049524Y-75985238D01*
X78859048Y-76032857D01*
X78525714Y-76032857D01*
X78335238Y-75985238D01*
X78240000Y-75890000D01*
X78192381Y-75794762D01*
X79192381Y-74937619D02*
X78192381Y-74937619D01*
X79192381Y-74366190D01*
X78192381Y-74366190D01*
X79192381Y-73890000D02*
X78192381Y-73890000D01*
X79192381Y-73318571D01*
X78192381Y-73318571D01*
X79287619Y-73080476D02*
X79287619Y-72318571D01*
X78192381Y-71890000D02*
X78192381Y-71794761D01*
X78240000Y-71699523D01*
X78287619Y-71651904D01*
X78382857Y-71604285D01*
X78573333Y-71556666D01*
X78811429Y-71556666D01*
X79001905Y-71604285D01*
X79097143Y-71651904D01*
X79144762Y-71699523D01*
X79192381Y-71794761D01*
X79192381Y-71890000D01*
X79144762Y-71985238D01*
X79097143Y-72032857D01*
X79001905Y-72080476D01*
X78811429Y-72128095D01*
X78573333Y-72128095D01*
X78382857Y-72080476D01*
X78287619Y-72032857D01*
X78240000Y-71985238D01*
X78192381Y-71890000D01*
X79192381Y-70604285D02*
X79192381Y-71175714D01*
X79192381Y-70890000D02*
X78192381Y-70890000D01*
X78335238Y-70985238D01*
X78430476Y-71080476D01*
X78478095Y-71175714D01*
X78192381Y-70270952D02*
X79192381Y-69604285D01*
X78192381Y-69604285D02*
X79192381Y-70270952D01*
X78192381Y-69032857D02*
X78192381Y-68937618D01*
X78240000Y-68842380D01*
X78287619Y-68794761D01*
X78382857Y-68747142D01*
X78573333Y-68699523D01*
X78811429Y-68699523D01*
X79001905Y-68747142D01*
X79097143Y-68794761D01*
X79144762Y-68842380D01*
X79192381Y-68937618D01*
X79192381Y-69032857D01*
X79144762Y-69128095D01*
X79097143Y-69175714D01*
X79001905Y-69223333D01*
X78811429Y-69270952D01*
X78573333Y-69270952D01*
X78382857Y-69223333D01*
X78287619Y-69175714D01*
X78240000Y-69128095D01*
X78192381Y-69032857D01*
X78525714Y-67842380D02*
X79192381Y-67842380D01*
X78144762Y-68080476D02*
X78859048Y-68318571D01*
X78859048Y-67699523D01*
X117197143Y-73873809D02*
X117244762Y-73921428D01*
X117292381Y-74064285D01*
X117292381Y-74159523D01*
X117244762Y-74302381D01*
X117149524Y-74397619D01*
X117054286Y-74445238D01*
X116863810Y-74492857D01*
X116720952Y-74492857D01*
X116530476Y-74445238D01*
X116435238Y-74397619D01*
X116340000Y-74302381D01*
X116292381Y-74159523D01*
X116292381Y-74064285D01*
X116340000Y-73921428D01*
X116387619Y-73873809D01*
X116292381Y-73254762D02*
X116292381Y-73064285D01*
X116340000Y-72969047D01*
X116435238Y-72873809D01*
X116625714Y-72826190D01*
X116959048Y-72826190D01*
X117149524Y-72873809D01*
X117244762Y-72969047D01*
X117292381Y-73064285D01*
X117292381Y-73254762D01*
X117244762Y-73350000D01*
X117149524Y-73445238D01*
X116959048Y-73492857D01*
X116625714Y-73492857D01*
X116435238Y-73445238D01*
X116340000Y-73350000D01*
X116292381Y-73254762D01*
X117292381Y-72397619D02*
X116292381Y-72397619D01*
X117292381Y-71826190D01*
X116292381Y-71826190D01*
X117292381Y-71350000D02*
X116292381Y-71350000D01*
X117292381Y-70778571D01*
X116292381Y-70778571D01*
X117387619Y-70540476D02*
X117387619Y-69778571D01*
X116292381Y-69350000D02*
X116292381Y-69254761D01*
X116340000Y-69159523D01*
X116387619Y-69111904D01*
X116482857Y-69064285D01*
X116673333Y-69016666D01*
X116911429Y-69016666D01*
X117101905Y-69064285D01*
X117197143Y-69111904D01*
X117244762Y-69159523D01*
X117292381Y-69254761D01*
X117292381Y-69350000D01*
X117244762Y-69445238D01*
X117197143Y-69492857D01*
X117101905Y-69540476D01*
X116911429Y-69588095D01*
X116673333Y-69588095D01*
X116482857Y-69540476D01*
X116387619Y-69492857D01*
X116340000Y-69445238D01*
X116292381Y-69350000D01*
X116387619Y-68635714D02*
X116340000Y-68588095D01*
X116292381Y-68492857D01*
X116292381Y-68254761D01*
X116340000Y-68159523D01*
X116387619Y-68111904D01*
X116482857Y-68064285D01*
X116578095Y-68064285D01*
X116720952Y-68111904D01*
X117292381Y-68683333D01*
X117292381Y-68064285D01*
X116292381Y-67730952D02*
X117292381Y-67064285D01*
X116292381Y-67064285D02*
X117292381Y-67730952D01*
X116292381Y-66492857D02*
X116292381Y-66397618D01*
X116340000Y-66302380D01*
X116387619Y-66254761D01*
X116482857Y-66207142D01*
X116673333Y-66159523D01*
X116911429Y-66159523D01*
X117101905Y-66207142D01*
X117197143Y-66254761D01*
X117244762Y-66302380D01*
X117292381Y-66397618D01*
X117292381Y-66492857D01*
X117244762Y-66588095D01*
X117197143Y-66635714D01*
X117101905Y-66683333D01*
X116911429Y-66730952D01*
X116673333Y-66730952D01*
X116482857Y-66683333D01*
X116387619Y-66635714D01*
X116340000Y-66588095D01*
X116292381Y-66492857D01*
X116625714Y-65302380D02*
X117292381Y-65302380D01*
X116244762Y-65540476D02*
X116959048Y-65778571D01*
X116959048Y-65159523D01*
X109577143Y-89113809D02*
X109624762Y-89161428D01*
X109672381Y-89304285D01*
X109672381Y-89399523D01*
X109624762Y-89542381D01*
X109529524Y-89637619D01*
X109434286Y-89685238D01*
X109243810Y-89732857D01*
X109100952Y-89732857D01*
X108910476Y-89685238D01*
X108815238Y-89637619D01*
X108720000Y-89542381D01*
X108672381Y-89399523D01*
X108672381Y-89304285D01*
X108720000Y-89161428D01*
X108767619Y-89113809D01*
X108672381Y-88494762D02*
X108672381Y-88304285D01*
X108720000Y-88209047D01*
X108815238Y-88113809D01*
X109005714Y-88066190D01*
X109339048Y-88066190D01*
X109529524Y-88113809D01*
X109624762Y-88209047D01*
X109672381Y-88304285D01*
X109672381Y-88494762D01*
X109624762Y-88590000D01*
X109529524Y-88685238D01*
X109339048Y-88732857D01*
X109005714Y-88732857D01*
X108815238Y-88685238D01*
X108720000Y-88590000D01*
X108672381Y-88494762D01*
X109672381Y-87637619D02*
X108672381Y-87637619D01*
X109672381Y-87066190D01*
X108672381Y-87066190D01*
X109672381Y-86590000D02*
X108672381Y-86590000D01*
X109672381Y-86018571D01*
X108672381Y-86018571D01*
X109767619Y-85780476D02*
X109767619Y-85018571D01*
X108672381Y-84590000D02*
X108672381Y-84494761D01*
X108720000Y-84399523D01*
X108767619Y-84351904D01*
X108862857Y-84304285D01*
X109053333Y-84256666D01*
X109291429Y-84256666D01*
X109481905Y-84304285D01*
X109577143Y-84351904D01*
X109624762Y-84399523D01*
X109672381Y-84494761D01*
X109672381Y-84590000D01*
X109624762Y-84685238D01*
X109577143Y-84732857D01*
X109481905Y-84780476D01*
X109291429Y-84828095D01*
X109053333Y-84828095D01*
X108862857Y-84780476D01*
X108767619Y-84732857D01*
X108720000Y-84685238D01*
X108672381Y-84590000D01*
X108767619Y-83875714D02*
X108720000Y-83828095D01*
X108672381Y-83732857D01*
X108672381Y-83494761D01*
X108720000Y-83399523D01*
X108767619Y-83351904D01*
X108862857Y-83304285D01*
X108958095Y-83304285D01*
X109100952Y-83351904D01*
X109672381Y-83923333D01*
X109672381Y-83304285D01*
X108672381Y-82970952D02*
X109672381Y-82304285D01*
X108672381Y-82304285D02*
X109672381Y-82970952D01*
X108672381Y-81732857D02*
X108672381Y-81637618D01*
X108720000Y-81542380D01*
X108767619Y-81494761D01*
X108862857Y-81447142D01*
X109053333Y-81399523D01*
X109291429Y-81399523D01*
X109481905Y-81447142D01*
X109577143Y-81494761D01*
X109624762Y-81542380D01*
X109672381Y-81637618D01*
X109672381Y-81732857D01*
X109624762Y-81828095D01*
X109577143Y-81875714D01*
X109481905Y-81923333D01*
X109291429Y-81970952D01*
X109053333Y-81970952D01*
X108862857Y-81923333D01*
X108767619Y-81875714D01*
X108720000Y-81828095D01*
X108672381Y-81732857D01*
X108672381Y-81066190D02*
X108672381Y-80447142D01*
X109053333Y-80780476D01*
X109053333Y-80637618D01*
X109100952Y-80542380D01*
X109148571Y-80494761D01*
X109243810Y-80447142D01*
X109481905Y-80447142D01*
X109577143Y-80494761D01*
X109624762Y-80542380D01*
X109672381Y-80637618D01*
X109672381Y-80923333D01*
X109624762Y-81018571D01*
X109577143Y-81066190D01*
X110276191Y-113387143D02*
X110228572Y-113434762D01*
X110085715Y-113482381D01*
X109990477Y-113482381D01*
X109847619Y-113434762D01*
X109752381Y-113339524D01*
X109704762Y-113244286D01*
X109657143Y-113053810D01*
X109657143Y-112910952D01*
X109704762Y-112720476D01*
X109752381Y-112625238D01*
X109847619Y-112530000D01*
X109990477Y-112482381D01*
X110085715Y-112482381D01*
X110228572Y-112530000D01*
X110276191Y-112577619D01*
X110895238Y-112482381D02*
X111085715Y-112482381D01*
X111180953Y-112530000D01*
X111276191Y-112625238D01*
X111323810Y-112815714D01*
X111323810Y-113149048D01*
X111276191Y-113339524D01*
X111180953Y-113434762D01*
X111085715Y-113482381D01*
X110895238Y-113482381D01*
X110800000Y-113434762D01*
X110704762Y-113339524D01*
X110657143Y-113149048D01*
X110657143Y-112815714D01*
X110704762Y-112625238D01*
X110800000Y-112530000D01*
X110895238Y-112482381D01*
X111752381Y-113482381D02*
X111752381Y-112482381D01*
X112323810Y-113482381D01*
X112323810Y-112482381D01*
X112800000Y-113482381D02*
X112800000Y-112482381D01*
X113371429Y-113482381D01*
X113371429Y-112482381D01*
X113609524Y-113577619D02*
X114371429Y-113577619D01*
X114800000Y-112482381D02*
X114895239Y-112482381D01*
X114990477Y-112530000D01*
X115038096Y-112577619D01*
X115085715Y-112672857D01*
X115133334Y-112863333D01*
X115133334Y-113101429D01*
X115085715Y-113291905D01*
X115038096Y-113387143D01*
X114990477Y-113434762D01*
X114895239Y-113482381D01*
X114800000Y-113482381D01*
X114704762Y-113434762D01*
X114657143Y-113387143D01*
X114609524Y-113291905D01*
X114561905Y-113101429D01*
X114561905Y-112863333D01*
X114609524Y-112672857D01*
X114657143Y-112577619D01*
X114704762Y-112530000D01*
X114800000Y-112482381D01*
X115514286Y-112577619D02*
X115561905Y-112530000D01*
X115657143Y-112482381D01*
X115895239Y-112482381D01*
X115990477Y-112530000D01*
X116038096Y-112577619D01*
X116085715Y-112672857D01*
X116085715Y-112768095D01*
X116038096Y-112910952D01*
X115466667Y-113482381D01*
X116085715Y-113482381D01*
X116419048Y-112482381D02*
X117085715Y-113482381D01*
X117085715Y-112482381D02*
X116419048Y-113482381D01*
X117657143Y-112482381D02*
X117752382Y-112482381D01*
X117847620Y-112530000D01*
X117895239Y-112577619D01*
X117942858Y-112672857D01*
X117990477Y-112863333D01*
X117990477Y-113101429D01*
X117942858Y-113291905D01*
X117895239Y-113387143D01*
X117847620Y-113434762D01*
X117752382Y-113482381D01*
X117657143Y-113482381D01*
X117561905Y-113434762D01*
X117514286Y-113387143D01*
X117466667Y-113291905D01*
X117419048Y-113101429D01*
X117419048Y-112863333D01*
X117466667Y-112672857D01*
X117514286Y-112577619D01*
X117561905Y-112530000D01*
X117657143Y-112482381D01*
X118895239Y-112482381D02*
X118419048Y-112482381D01*
X118371429Y-112958571D01*
X118419048Y-112910952D01*
X118514286Y-112863333D01*
X118752382Y-112863333D01*
X118847620Y-112910952D01*
X118895239Y-112958571D01*
X118942858Y-113053810D01*
X118942858Y-113291905D01*
X118895239Y-113387143D01*
X118847620Y-113434762D01*
X118752382Y-113482381D01*
X118514286Y-113482381D01*
X118419048Y-113434762D01*
X118371429Y-113387143D01*
X113387143Y-54823809D02*
X113434762Y-54871428D01*
X113482381Y-55014285D01*
X113482381Y-55109523D01*
X113434762Y-55252381D01*
X113339524Y-55347619D01*
X113244286Y-55395238D01*
X113053810Y-55442857D01*
X112910952Y-55442857D01*
X112720476Y-55395238D01*
X112625238Y-55347619D01*
X112530000Y-55252381D01*
X112482381Y-55109523D01*
X112482381Y-55014285D01*
X112530000Y-54871428D01*
X112577619Y-54823809D01*
X112482381Y-54204762D02*
X112482381Y-54014285D01*
X112530000Y-53919047D01*
X112625238Y-53823809D01*
X112815714Y-53776190D01*
X113149048Y-53776190D01*
X113339524Y-53823809D01*
X113434762Y-53919047D01*
X113482381Y-54014285D01*
X113482381Y-54204762D01*
X113434762Y-54300000D01*
X113339524Y-54395238D01*
X113149048Y-54442857D01*
X112815714Y-54442857D01*
X112625238Y-54395238D01*
X112530000Y-54300000D01*
X112482381Y-54204762D01*
X113482381Y-53347619D02*
X112482381Y-53347619D01*
X113482381Y-52776190D01*
X112482381Y-52776190D01*
X113482381Y-52300000D02*
X112482381Y-52300000D01*
X113482381Y-51728571D01*
X112482381Y-51728571D01*
X113577619Y-51490476D02*
X113577619Y-50728571D01*
X112482381Y-50300000D02*
X112482381Y-50204761D01*
X112530000Y-50109523D01*
X112577619Y-50061904D01*
X112672857Y-50014285D01*
X112863333Y-49966666D01*
X113101429Y-49966666D01*
X113291905Y-50014285D01*
X113387143Y-50061904D01*
X113434762Y-50109523D01*
X113482381Y-50204761D01*
X113482381Y-50300000D01*
X113434762Y-50395238D01*
X113387143Y-50442857D01*
X113291905Y-50490476D01*
X113101429Y-50538095D01*
X112863333Y-50538095D01*
X112672857Y-50490476D01*
X112577619Y-50442857D01*
X112530000Y-50395238D01*
X112482381Y-50300000D01*
X113482381Y-49014285D02*
X113482381Y-49585714D01*
X113482381Y-49300000D02*
X112482381Y-49300000D01*
X112625238Y-49395238D01*
X112720476Y-49490476D01*
X112768095Y-49585714D01*
X112482381Y-48680952D02*
X113482381Y-48014285D01*
X112482381Y-48014285D02*
X113482381Y-48680952D01*
X112482381Y-47442857D02*
X112482381Y-47347618D01*
X112530000Y-47252380D01*
X112577619Y-47204761D01*
X112672857Y-47157142D01*
X112863333Y-47109523D01*
X113101429Y-47109523D01*
X113291905Y-47157142D01*
X113387143Y-47204761D01*
X113434762Y-47252380D01*
X113482381Y-47347618D01*
X113482381Y-47442857D01*
X113434762Y-47538095D01*
X113387143Y-47585714D01*
X113291905Y-47633333D01*
X113101429Y-47680952D01*
X112863333Y-47680952D01*
X112672857Y-47633333D01*
X112577619Y-47585714D01*
X112530000Y-47538095D01*
X112482381Y-47442857D01*
X113482381Y-46157142D02*
X113482381Y-46728571D01*
X113482381Y-46442857D02*
X112482381Y-46442857D01*
X112625238Y-46538095D01*
X112720476Y-46633333D01*
X112768095Y-46728571D01*
X143296191Y-39167143D02*
X143248572Y-39214762D01*
X143105715Y-39262381D01*
X143010477Y-39262381D01*
X142867619Y-39214762D01*
X142772381Y-39119524D01*
X142724762Y-39024286D01*
X142677143Y-38833810D01*
X142677143Y-38690952D01*
X142724762Y-38500476D01*
X142772381Y-38405238D01*
X142867619Y-38310000D01*
X143010477Y-38262381D01*
X143105715Y-38262381D01*
X143248572Y-38310000D01*
X143296191Y-38357619D01*
X143915238Y-38262381D02*
X144105715Y-38262381D01*
X144200953Y-38310000D01*
X144296191Y-38405238D01*
X144343810Y-38595714D01*
X144343810Y-38929048D01*
X144296191Y-39119524D01*
X144200953Y-39214762D01*
X144105715Y-39262381D01*
X143915238Y-39262381D01*
X143820000Y-39214762D01*
X143724762Y-39119524D01*
X143677143Y-38929048D01*
X143677143Y-38595714D01*
X143724762Y-38405238D01*
X143820000Y-38310000D01*
X143915238Y-38262381D01*
X144772381Y-39262381D02*
X144772381Y-38262381D01*
X145343810Y-39262381D01*
X145343810Y-38262381D01*
X145820000Y-39262381D02*
X145820000Y-38262381D01*
X146391429Y-39262381D01*
X146391429Y-38262381D01*
X146629524Y-39357619D02*
X147391429Y-39357619D01*
X147820000Y-38262381D02*
X147915239Y-38262381D01*
X148010477Y-38310000D01*
X148058096Y-38357619D01*
X148105715Y-38452857D01*
X148153334Y-38643333D01*
X148153334Y-38881429D01*
X148105715Y-39071905D01*
X148058096Y-39167143D01*
X148010477Y-39214762D01*
X147915239Y-39262381D01*
X147820000Y-39262381D01*
X147724762Y-39214762D01*
X147677143Y-39167143D01*
X147629524Y-39071905D01*
X147581905Y-38881429D01*
X147581905Y-38643333D01*
X147629524Y-38452857D01*
X147677143Y-38357619D01*
X147724762Y-38310000D01*
X147820000Y-38262381D01*
X149105715Y-39262381D02*
X148534286Y-39262381D01*
X148820000Y-39262381D02*
X148820000Y-38262381D01*
X148724762Y-38405238D01*
X148629524Y-38500476D01*
X148534286Y-38548095D01*
X149439048Y-38262381D02*
X150105715Y-39262381D01*
X150105715Y-38262381D02*
X149439048Y-39262381D01*
X150677143Y-38262381D02*
X150772382Y-38262381D01*
X150867620Y-38310000D01*
X150915239Y-38357619D01*
X150962858Y-38452857D01*
X151010477Y-38643333D01*
X151010477Y-38881429D01*
X150962858Y-39071905D01*
X150915239Y-39167143D01*
X150867620Y-39214762D01*
X150772382Y-39262381D01*
X150677143Y-39262381D01*
X150581905Y-39214762D01*
X150534286Y-39167143D01*
X150486667Y-39071905D01*
X150439048Y-38881429D01*
X150439048Y-38643333D01*
X150486667Y-38452857D01*
X150534286Y-38357619D01*
X150581905Y-38310000D01*
X150677143Y-38262381D01*
X151391429Y-38357619D02*
X151439048Y-38310000D01*
X151534286Y-38262381D01*
X151772382Y-38262381D01*
X151867620Y-38310000D01*
X151915239Y-38357619D01*
X151962858Y-38452857D01*
X151962858Y-38548095D01*
X151915239Y-38690952D01*
X151343810Y-39262381D01*
X151962858Y-39262381D01*
X143296191Y-56947143D02*
X143248572Y-56994762D01*
X143105715Y-57042381D01*
X143010477Y-57042381D01*
X142867619Y-56994762D01*
X142772381Y-56899524D01*
X142724762Y-56804286D01*
X142677143Y-56613810D01*
X142677143Y-56470952D01*
X142724762Y-56280476D01*
X142772381Y-56185238D01*
X142867619Y-56090000D01*
X143010477Y-56042381D01*
X143105715Y-56042381D01*
X143248572Y-56090000D01*
X143296191Y-56137619D01*
X143915238Y-56042381D02*
X144105715Y-56042381D01*
X144200953Y-56090000D01*
X144296191Y-56185238D01*
X144343810Y-56375714D01*
X144343810Y-56709048D01*
X144296191Y-56899524D01*
X144200953Y-56994762D01*
X144105715Y-57042381D01*
X143915238Y-57042381D01*
X143820000Y-56994762D01*
X143724762Y-56899524D01*
X143677143Y-56709048D01*
X143677143Y-56375714D01*
X143724762Y-56185238D01*
X143820000Y-56090000D01*
X143915238Y-56042381D01*
X144772381Y-57042381D02*
X144772381Y-56042381D01*
X145343810Y-57042381D01*
X145343810Y-56042381D01*
X145820000Y-57042381D02*
X145820000Y-56042381D01*
X146391429Y-57042381D01*
X146391429Y-56042381D01*
X146629524Y-57137619D02*
X147391429Y-57137619D01*
X147820000Y-56042381D02*
X147915239Y-56042381D01*
X148010477Y-56090000D01*
X148058096Y-56137619D01*
X148105715Y-56232857D01*
X148153334Y-56423333D01*
X148153334Y-56661429D01*
X148105715Y-56851905D01*
X148058096Y-56947143D01*
X148010477Y-56994762D01*
X147915239Y-57042381D01*
X147820000Y-57042381D01*
X147724762Y-56994762D01*
X147677143Y-56947143D01*
X147629524Y-56851905D01*
X147581905Y-56661429D01*
X147581905Y-56423333D01*
X147629524Y-56232857D01*
X147677143Y-56137619D01*
X147724762Y-56090000D01*
X147820000Y-56042381D01*
X149105715Y-57042381D02*
X148534286Y-57042381D01*
X148820000Y-57042381D02*
X148820000Y-56042381D01*
X148724762Y-56185238D01*
X148629524Y-56280476D01*
X148534286Y-56328095D01*
X149439048Y-56042381D02*
X150105715Y-57042381D01*
X150105715Y-56042381D02*
X149439048Y-57042381D01*
X150677143Y-56042381D02*
X150772382Y-56042381D01*
X150867620Y-56090000D01*
X150915239Y-56137619D01*
X150962858Y-56232857D01*
X151010477Y-56423333D01*
X151010477Y-56661429D01*
X150962858Y-56851905D01*
X150915239Y-56947143D01*
X150867620Y-56994762D01*
X150772382Y-57042381D01*
X150677143Y-57042381D01*
X150581905Y-56994762D01*
X150534286Y-56947143D01*
X150486667Y-56851905D01*
X150439048Y-56661429D01*
X150439048Y-56423333D01*
X150486667Y-56232857D01*
X150534286Y-56137619D01*
X150581905Y-56090000D01*
X150677143Y-56042381D01*
X151581905Y-56470952D02*
X151486667Y-56423333D01*
X151439048Y-56375714D01*
X151391429Y-56280476D01*
X151391429Y-56232857D01*
X151439048Y-56137619D01*
X151486667Y-56090000D01*
X151581905Y-56042381D01*
X151772382Y-56042381D01*
X151867620Y-56090000D01*
X151915239Y-56137619D01*
X151962858Y-56232857D01*
X151962858Y-56280476D01*
X151915239Y-56375714D01*
X151867620Y-56423333D01*
X151772382Y-56470952D01*
X151581905Y-56470952D01*
X151486667Y-56518571D01*
X151439048Y-56566190D01*
X151391429Y-56661429D01*
X151391429Y-56851905D01*
X151439048Y-56947143D01*
X151486667Y-56994762D01*
X151581905Y-57042381D01*
X151772382Y-57042381D01*
X151867620Y-56994762D01*
X151915239Y-56947143D01*
X151962858Y-56851905D01*
X151962858Y-56661429D01*
X151915239Y-56566190D01*
X151867620Y-56518571D01*
X151772382Y-56470952D01*
X79097143Y-108417809D02*
X79144762Y-108465428D01*
X79192381Y-108608285D01*
X79192381Y-108703523D01*
X79144762Y-108846381D01*
X79049524Y-108941619D01*
X78954286Y-108989238D01*
X78763810Y-109036857D01*
X78620952Y-109036857D01*
X78430476Y-108989238D01*
X78335238Y-108941619D01*
X78240000Y-108846381D01*
X78192381Y-108703523D01*
X78192381Y-108608285D01*
X78240000Y-108465428D01*
X78287619Y-108417809D01*
X78192381Y-107798762D02*
X78192381Y-107608285D01*
X78240000Y-107513047D01*
X78335238Y-107417809D01*
X78525714Y-107370190D01*
X78859048Y-107370190D01*
X79049524Y-107417809D01*
X79144762Y-107513047D01*
X79192381Y-107608285D01*
X79192381Y-107798762D01*
X79144762Y-107894000D01*
X79049524Y-107989238D01*
X78859048Y-108036857D01*
X78525714Y-108036857D01*
X78335238Y-107989238D01*
X78240000Y-107894000D01*
X78192381Y-107798762D01*
X79192381Y-106941619D02*
X78192381Y-106941619D01*
X79192381Y-106370190D01*
X78192381Y-106370190D01*
X79192381Y-105894000D02*
X78192381Y-105894000D01*
X79192381Y-105322571D01*
X78192381Y-105322571D01*
X79287619Y-105084476D02*
X79287619Y-104322571D01*
X78192381Y-103894000D02*
X78192381Y-103798761D01*
X78240000Y-103703523D01*
X78287619Y-103655904D01*
X78382857Y-103608285D01*
X78573333Y-103560666D01*
X78811429Y-103560666D01*
X79001905Y-103608285D01*
X79097143Y-103655904D01*
X79144762Y-103703523D01*
X79192381Y-103798761D01*
X79192381Y-103894000D01*
X79144762Y-103989238D01*
X79097143Y-104036857D01*
X79001905Y-104084476D01*
X78811429Y-104132095D01*
X78573333Y-104132095D01*
X78382857Y-104084476D01*
X78287619Y-104036857D01*
X78240000Y-103989238D01*
X78192381Y-103894000D01*
X79192381Y-102608285D02*
X79192381Y-103179714D01*
X79192381Y-102894000D02*
X78192381Y-102894000D01*
X78335238Y-102989238D01*
X78430476Y-103084476D01*
X78478095Y-103179714D01*
X78192381Y-102274952D02*
X79192381Y-101608285D01*
X78192381Y-101608285D02*
X79192381Y-102274952D01*
X78192381Y-101036857D02*
X78192381Y-100941618D01*
X78240000Y-100846380D01*
X78287619Y-100798761D01*
X78382857Y-100751142D01*
X78573333Y-100703523D01*
X78811429Y-100703523D01*
X79001905Y-100751142D01*
X79097143Y-100798761D01*
X79144762Y-100846380D01*
X79192381Y-100941618D01*
X79192381Y-101036857D01*
X79144762Y-101132095D01*
X79097143Y-101179714D01*
X79001905Y-101227333D01*
X78811429Y-101274952D01*
X78573333Y-101274952D01*
X78382857Y-101227333D01*
X78287619Y-101179714D01*
X78240000Y-101132095D01*
X78192381Y-101036857D01*
X78192381Y-99798761D02*
X78192381Y-100274952D01*
X78668571Y-100322571D01*
X78620952Y-100274952D01*
X78573333Y-100179714D01*
X78573333Y-99941618D01*
X78620952Y-99846380D01*
X78668571Y-99798761D01*
X78763810Y-99751142D01*
X79001905Y-99751142D01*
X79097143Y-99798761D01*
X79144762Y-99846380D01*
X79192381Y-99941618D01*
X79192381Y-100179714D01*
X79144762Y-100274952D01*
X79097143Y-100322571D01*
X109006191Y-94337143D02*
X108958572Y-94384762D01*
X108815715Y-94432381D01*
X108720477Y-94432381D01*
X108577619Y-94384762D01*
X108482381Y-94289524D01*
X108434762Y-94194286D01*
X108387143Y-94003810D01*
X108387143Y-93860952D01*
X108434762Y-93670476D01*
X108482381Y-93575238D01*
X108577619Y-93480000D01*
X108720477Y-93432381D01*
X108815715Y-93432381D01*
X108958572Y-93480000D01*
X109006191Y-93527619D01*
X109625238Y-93432381D02*
X109815715Y-93432381D01*
X109910953Y-93480000D01*
X110006191Y-93575238D01*
X110053810Y-93765714D01*
X110053810Y-94099048D01*
X110006191Y-94289524D01*
X109910953Y-94384762D01*
X109815715Y-94432381D01*
X109625238Y-94432381D01*
X109530000Y-94384762D01*
X109434762Y-94289524D01*
X109387143Y-94099048D01*
X109387143Y-93765714D01*
X109434762Y-93575238D01*
X109530000Y-93480000D01*
X109625238Y-93432381D01*
X110482381Y-94432381D02*
X110482381Y-93432381D01*
X111053810Y-94432381D01*
X111053810Y-93432381D01*
X111530000Y-94432381D02*
X111530000Y-93432381D01*
X112101429Y-94432381D01*
X112101429Y-93432381D01*
X112339524Y-94527619D02*
X113101429Y-94527619D01*
X113530000Y-93432381D02*
X113625239Y-93432381D01*
X113720477Y-93480000D01*
X113768096Y-93527619D01*
X113815715Y-93622857D01*
X113863334Y-93813333D01*
X113863334Y-94051429D01*
X113815715Y-94241905D01*
X113768096Y-94337143D01*
X113720477Y-94384762D01*
X113625239Y-94432381D01*
X113530000Y-94432381D01*
X113434762Y-94384762D01*
X113387143Y-94337143D01*
X113339524Y-94241905D01*
X113291905Y-94051429D01*
X113291905Y-93813333D01*
X113339524Y-93622857D01*
X113387143Y-93527619D01*
X113434762Y-93480000D01*
X113530000Y-93432381D01*
X114815715Y-94432381D02*
X114244286Y-94432381D01*
X114530000Y-94432381D02*
X114530000Y-93432381D01*
X114434762Y-93575238D01*
X114339524Y-93670476D01*
X114244286Y-93718095D01*
X115149048Y-93432381D02*
X115815715Y-94432381D01*
X115815715Y-93432381D02*
X115149048Y-94432381D01*
X116387143Y-93432381D02*
X116482382Y-93432381D01*
X116577620Y-93480000D01*
X116625239Y-93527619D01*
X116672858Y-93622857D01*
X116720477Y-93813333D01*
X116720477Y-94051429D01*
X116672858Y-94241905D01*
X116625239Y-94337143D01*
X116577620Y-94384762D01*
X116482382Y-94432381D01*
X116387143Y-94432381D01*
X116291905Y-94384762D01*
X116244286Y-94337143D01*
X116196667Y-94241905D01*
X116149048Y-94051429D01*
X116149048Y-93813333D01*
X116196667Y-93622857D01*
X116244286Y-93527619D01*
X116291905Y-93480000D01*
X116387143Y-93432381D01*
X117625239Y-93432381D02*
X117149048Y-93432381D01*
X117101429Y-93908571D01*
X117149048Y-93860952D01*
X117244286Y-93813333D01*
X117482382Y-93813333D01*
X117577620Y-93860952D01*
X117625239Y-93908571D01*
X117672858Y-94003810D01*
X117672858Y-94241905D01*
X117625239Y-94337143D01*
X117577620Y-94384762D01*
X117482382Y-94432381D01*
X117244286Y-94432381D01*
X117149048Y-94384762D01*
X117101429Y-94337143D01*
X143296191Y-112117143D02*
X143248572Y-112164762D01*
X143105715Y-112212381D01*
X143010477Y-112212381D01*
X142867619Y-112164762D01*
X142772381Y-112069524D01*
X142724762Y-111974286D01*
X142677143Y-111783810D01*
X142677143Y-111640952D01*
X142724762Y-111450476D01*
X142772381Y-111355238D01*
X142867619Y-111260000D01*
X143010477Y-111212381D01*
X143105715Y-111212381D01*
X143248572Y-111260000D01*
X143296191Y-111307619D01*
X143915238Y-111212381D02*
X144105715Y-111212381D01*
X144200953Y-111260000D01*
X144296191Y-111355238D01*
X144343810Y-111545714D01*
X144343810Y-111879048D01*
X144296191Y-112069524D01*
X144200953Y-112164762D01*
X144105715Y-112212381D01*
X143915238Y-112212381D01*
X143820000Y-112164762D01*
X143724762Y-112069524D01*
X143677143Y-111879048D01*
X143677143Y-111545714D01*
X143724762Y-111355238D01*
X143820000Y-111260000D01*
X143915238Y-111212381D01*
X144772381Y-112212381D02*
X144772381Y-111212381D01*
X145343810Y-112212381D01*
X145343810Y-111212381D01*
X145820000Y-112212381D02*
X145820000Y-111212381D01*
X146391429Y-112212381D01*
X146391429Y-111212381D01*
X146629524Y-112307619D02*
X147391429Y-112307619D01*
X147820000Y-111212381D02*
X147915239Y-111212381D01*
X148010477Y-111260000D01*
X148058096Y-111307619D01*
X148105715Y-111402857D01*
X148153334Y-111593333D01*
X148153334Y-111831429D01*
X148105715Y-112021905D01*
X148058096Y-112117143D01*
X148010477Y-112164762D01*
X147915239Y-112212381D01*
X147820000Y-112212381D01*
X147724762Y-112164762D01*
X147677143Y-112117143D01*
X147629524Y-112021905D01*
X147581905Y-111831429D01*
X147581905Y-111593333D01*
X147629524Y-111402857D01*
X147677143Y-111307619D01*
X147724762Y-111260000D01*
X147820000Y-111212381D01*
X149105715Y-112212381D02*
X148534286Y-112212381D01*
X148820000Y-112212381D02*
X148820000Y-111212381D01*
X148724762Y-111355238D01*
X148629524Y-111450476D01*
X148534286Y-111498095D01*
X149439048Y-111212381D02*
X150105715Y-112212381D01*
X150105715Y-111212381D02*
X149439048Y-112212381D01*
X150677143Y-111212381D02*
X150772382Y-111212381D01*
X150867620Y-111260000D01*
X150915239Y-111307619D01*
X150962858Y-111402857D01*
X151010477Y-111593333D01*
X151010477Y-111831429D01*
X150962858Y-112021905D01*
X150915239Y-112117143D01*
X150867620Y-112164762D01*
X150772382Y-112212381D01*
X150677143Y-112212381D01*
X150581905Y-112164762D01*
X150534286Y-112117143D01*
X150486667Y-112021905D01*
X150439048Y-111831429D01*
X150439048Y-111593333D01*
X150486667Y-111402857D01*
X150534286Y-111307619D01*
X150581905Y-111260000D01*
X150677143Y-111212381D01*
X151915239Y-111212381D02*
X151439048Y-111212381D01*
X151391429Y-111688571D01*
X151439048Y-111640952D01*
X151534286Y-111593333D01*
X151772382Y-111593333D01*
X151867620Y-111640952D01*
X151915239Y-111688571D01*
X151962858Y-111783810D01*
X151962858Y-112021905D01*
X151915239Y-112117143D01*
X151867620Y-112164762D01*
X151772382Y-112212381D01*
X151534286Y-112212381D01*
X151439048Y-112164762D01*
X151391429Y-112117143D01*
X130850191Y-112879143D02*
X130802572Y-112926762D01*
X130659715Y-112974381D01*
X130564477Y-112974381D01*
X130421619Y-112926762D01*
X130326381Y-112831524D01*
X130278762Y-112736286D01*
X130231143Y-112545810D01*
X130231143Y-112402952D01*
X130278762Y-112212476D01*
X130326381Y-112117238D01*
X130421619Y-112022000D01*
X130564477Y-111974381D01*
X130659715Y-111974381D01*
X130802572Y-112022000D01*
X130850191Y-112069619D01*
X131469238Y-111974381D02*
X131659715Y-111974381D01*
X131754953Y-112022000D01*
X131850191Y-112117238D01*
X131897810Y-112307714D01*
X131897810Y-112641048D01*
X131850191Y-112831524D01*
X131754953Y-112926762D01*
X131659715Y-112974381D01*
X131469238Y-112974381D01*
X131374000Y-112926762D01*
X131278762Y-112831524D01*
X131231143Y-112641048D01*
X131231143Y-112307714D01*
X131278762Y-112117238D01*
X131374000Y-112022000D01*
X131469238Y-111974381D01*
X132326381Y-112974381D02*
X132326381Y-111974381D01*
X132897810Y-112974381D01*
X132897810Y-111974381D01*
X133374000Y-112974381D02*
X133374000Y-111974381D01*
X133945429Y-112974381D01*
X133945429Y-111974381D01*
X134183524Y-113069619D02*
X134945429Y-113069619D01*
X135374000Y-111974381D02*
X135469239Y-111974381D01*
X135564477Y-112022000D01*
X135612096Y-112069619D01*
X135659715Y-112164857D01*
X135707334Y-112355333D01*
X135707334Y-112593429D01*
X135659715Y-112783905D01*
X135612096Y-112879143D01*
X135564477Y-112926762D01*
X135469239Y-112974381D01*
X135374000Y-112974381D01*
X135278762Y-112926762D01*
X135231143Y-112879143D01*
X135183524Y-112783905D01*
X135135905Y-112593429D01*
X135135905Y-112355333D01*
X135183524Y-112164857D01*
X135231143Y-112069619D01*
X135278762Y-112022000D01*
X135374000Y-111974381D01*
X136659715Y-112974381D02*
X136088286Y-112974381D01*
X136374000Y-112974381D02*
X136374000Y-111974381D01*
X136278762Y-112117238D01*
X136183524Y-112212476D01*
X136088286Y-112260095D01*
X136993048Y-111974381D02*
X137659715Y-112974381D01*
X137659715Y-111974381D02*
X136993048Y-112974381D01*
X138564477Y-112974381D02*
X137993048Y-112974381D01*
X138278762Y-112974381D02*
X138278762Y-111974381D01*
X138183524Y-112117238D01*
X138088286Y-112212476D01*
X137993048Y-112260095D01*
X139183524Y-111974381D02*
X139278763Y-111974381D01*
X139374001Y-112022000D01*
X139421620Y-112069619D01*
X139469239Y-112164857D01*
X139516858Y-112355333D01*
X139516858Y-112593429D01*
X139469239Y-112783905D01*
X139421620Y-112879143D01*
X139374001Y-112926762D01*
X139278763Y-112974381D01*
X139183524Y-112974381D01*
X139088286Y-112926762D01*
X139040667Y-112879143D01*
X138993048Y-112783905D01*
X138945429Y-112593429D01*
X138945429Y-112355333D01*
X138993048Y-112164857D01*
X139040667Y-112069619D01*
X139088286Y-112022000D01*
X139183524Y-111974381D01*
X98830666Y-124356762D02*
X98973523Y-124404381D01*
X99211619Y-124404381D01*
X99306857Y-124356762D01*
X99354476Y-124309143D01*
X99402095Y-124213905D01*
X99402095Y-124118667D01*
X99354476Y-124023429D01*
X99306857Y-123975810D01*
X99211619Y-123928190D01*
X99021142Y-123880571D01*
X98925904Y-123832952D01*
X98878285Y-123785333D01*
X98830666Y-123690095D01*
X98830666Y-123594857D01*
X98878285Y-123499619D01*
X98925904Y-123452000D01*
X99021142Y-123404381D01*
X99259238Y-123404381D01*
X99402095Y-123452000D01*
X99735428Y-123404381D02*
X99973523Y-124404381D01*
X100164000Y-123690095D01*
X100354476Y-124404381D01*
X100592571Y-123404381D01*
X100735428Y-124499619D02*
X101497333Y-124499619D01*
X101735428Y-124404381D02*
X101735428Y-123404381D01*
X102116381Y-123404381D01*
X102211619Y-123452000D01*
X102259238Y-123499619D01*
X102306857Y-123594857D01*
X102306857Y-123737714D01*
X102259238Y-123832952D01*
X102211619Y-123880571D01*
X102116381Y-123928190D01*
X101735428Y-123928190D01*
X102735428Y-123404381D02*
X102735428Y-124213905D01*
X102783047Y-124309143D01*
X102830666Y-124356762D01*
X102925904Y-124404381D01*
X103116381Y-124404381D01*
X103211619Y-124356762D01*
X103259238Y-124309143D01*
X103306857Y-124213905D01*
X103306857Y-123404381D01*
X103735428Y-124356762D02*
X103878285Y-124404381D01*
X104116381Y-124404381D01*
X104211619Y-124356762D01*
X104259238Y-124309143D01*
X104306857Y-124213905D01*
X104306857Y-124118667D01*
X104259238Y-124023429D01*
X104211619Y-123975810D01*
X104116381Y-123928190D01*
X103925904Y-123880571D01*
X103830666Y-123832952D01*
X103783047Y-123785333D01*
X103735428Y-123690095D01*
X103735428Y-123594857D01*
X103783047Y-123499619D01*
X103830666Y-123452000D01*
X103925904Y-123404381D01*
X104164000Y-123404381D01*
X104306857Y-123452000D01*
X104735428Y-124404381D02*
X104735428Y-123404381D01*
X104735428Y-123880571D02*
X105306857Y-123880571D01*
X105306857Y-124404381D02*
X105306857Y-123404381D01*
X105544952Y-124499619D02*
X106306857Y-124499619D01*
X106497333Y-124356762D02*
X106640190Y-124404381D01*
X106878286Y-124404381D01*
X106973524Y-124356762D01*
X107021143Y-124309143D01*
X107068762Y-124213905D01*
X107068762Y-124118667D01*
X107021143Y-124023429D01*
X106973524Y-123975810D01*
X106878286Y-123928190D01*
X106687809Y-123880571D01*
X106592571Y-123832952D01*
X106544952Y-123785333D01*
X106497333Y-123690095D01*
X106497333Y-123594857D01*
X106544952Y-123499619D01*
X106592571Y-123452000D01*
X106687809Y-123404381D01*
X106925905Y-123404381D01*
X107068762Y-123452000D01*
X107497333Y-124404381D02*
X107497333Y-123404381D01*
X107830667Y-124118667D01*
X108164000Y-123404381D01*
X108164000Y-124404381D01*
X108592571Y-124118667D02*
X109068762Y-124118667D01*
X108497333Y-124404381D02*
X108830666Y-123404381D01*
X109164000Y-124404381D01*
X109973524Y-124404381D02*
X109497333Y-124404381D01*
X109497333Y-123404381D01*
X110783048Y-124404381D02*
X110306857Y-124404381D01*
X110306857Y-123404381D01*
X110878286Y-124499619D02*
X111640191Y-124499619D01*
X111878286Y-124404381D02*
X111878286Y-123404381D01*
X111878286Y-123880571D02*
X112449715Y-123880571D01*
X112449715Y-124404381D02*
X112449715Y-123404381D01*
X145137143Y-92923809D02*
X145184762Y-92971428D01*
X145232381Y-93114285D01*
X145232381Y-93209523D01*
X145184762Y-93352381D01*
X145089524Y-93447619D01*
X144994286Y-93495238D01*
X144803810Y-93542857D01*
X144660952Y-93542857D01*
X144470476Y-93495238D01*
X144375238Y-93447619D01*
X144280000Y-93352381D01*
X144232381Y-93209523D01*
X144232381Y-93114285D01*
X144280000Y-92971428D01*
X144327619Y-92923809D01*
X144232381Y-92304762D02*
X144232381Y-92114285D01*
X144280000Y-92019047D01*
X144375238Y-91923809D01*
X144565714Y-91876190D01*
X144899048Y-91876190D01*
X145089524Y-91923809D01*
X145184762Y-92019047D01*
X145232381Y-92114285D01*
X145232381Y-92304762D01*
X145184762Y-92400000D01*
X145089524Y-92495238D01*
X144899048Y-92542857D01*
X144565714Y-92542857D01*
X144375238Y-92495238D01*
X144280000Y-92400000D01*
X144232381Y-92304762D01*
X145232381Y-91447619D02*
X144232381Y-91447619D01*
X145232381Y-90876190D01*
X144232381Y-90876190D01*
X145232381Y-90400000D02*
X144232381Y-90400000D01*
X145232381Y-89828571D01*
X144232381Y-89828571D01*
X145327619Y-89590476D02*
X145327619Y-88828571D01*
X144232381Y-88400000D02*
X144232381Y-88304761D01*
X144280000Y-88209523D01*
X144327619Y-88161904D01*
X144422857Y-88114285D01*
X144613333Y-88066666D01*
X144851429Y-88066666D01*
X145041905Y-88114285D01*
X145137143Y-88161904D01*
X145184762Y-88209523D01*
X145232381Y-88304761D01*
X145232381Y-88400000D01*
X145184762Y-88495238D01*
X145137143Y-88542857D01*
X145041905Y-88590476D01*
X144851429Y-88638095D01*
X144613333Y-88638095D01*
X144422857Y-88590476D01*
X144327619Y-88542857D01*
X144280000Y-88495238D01*
X144232381Y-88400000D01*
X145232381Y-87114285D02*
X145232381Y-87685714D01*
X145232381Y-87400000D02*
X144232381Y-87400000D01*
X144375238Y-87495238D01*
X144470476Y-87590476D01*
X144518095Y-87685714D01*
X144232381Y-86780952D02*
X145232381Y-86114285D01*
X144232381Y-86114285D02*
X145232381Y-86780952D01*
X144232381Y-85542857D02*
X144232381Y-85447618D01*
X144280000Y-85352380D01*
X144327619Y-85304761D01*
X144422857Y-85257142D01*
X144613333Y-85209523D01*
X144851429Y-85209523D01*
X145041905Y-85257142D01*
X145137143Y-85304761D01*
X145184762Y-85352380D01*
X145232381Y-85447618D01*
X145232381Y-85542857D01*
X145184762Y-85638095D01*
X145137143Y-85685714D01*
X145041905Y-85733333D01*
X144851429Y-85780952D01*
X144613333Y-85780952D01*
X144422857Y-85733333D01*
X144327619Y-85685714D01*
X144280000Y-85638095D01*
X144232381Y-85542857D01*
X144232381Y-84876190D02*
X144232381Y-84257142D01*
X144613333Y-84590476D01*
X144613333Y-84447618D01*
X144660952Y-84352380D01*
X144708571Y-84304761D01*
X144803810Y-84257142D01*
X145041905Y-84257142D01*
X145137143Y-84304761D01*
X145184762Y-84352380D01*
X145232381Y-84447618D01*
X145232381Y-84733333D01*
X145184762Y-84828571D01*
X145137143Y-84876190D01*
X70008858Y-49220381D02*
X69437429Y-49220381D01*
X69723143Y-49220381D02*
X69723143Y-48220381D01*
X69627905Y-48363238D01*
X69532667Y-48458476D01*
X69437429Y-48506095D01*
X70437429Y-48553714D02*
X70437429Y-49553714D01*
X70437429Y-48601333D02*
X70532667Y-48553714D01*
X70723144Y-48553714D01*
X70818382Y-48601333D01*
X70866001Y-48648952D01*
X70913620Y-48744190D01*
X70913620Y-49029905D01*
X70866001Y-49125143D01*
X70818382Y-49172762D01*
X70723144Y-49220381D01*
X70532667Y-49220381D01*
X70437429Y-49172762D01*
X71342191Y-49220381D02*
X71342191Y-48553714D01*
X71342191Y-48220381D02*
X71294572Y-48268000D01*
X71342191Y-48315619D01*
X71389810Y-48268000D01*
X71342191Y-48220381D01*
X71342191Y-48315619D01*
X71818381Y-48553714D02*
X71818381Y-49220381D01*
X71818381Y-48648952D02*
X71866000Y-48601333D01*
X71961238Y-48553714D01*
X72104096Y-48553714D01*
X72199334Y-48601333D01*
X72246953Y-48696571D01*
X72246953Y-49220381D01*
X69246858Y-129738381D02*
X68675429Y-129738381D01*
X68961143Y-129738381D02*
X68961143Y-128738381D01*
X68865905Y-128881238D01*
X68770667Y-128976476D01*
X68675429Y-129024095D01*
X69675429Y-129071714D02*
X69675429Y-130071714D01*
X69675429Y-129119333D02*
X69770667Y-129071714D01*
X69961144Y-129071714D01*
X70056382Y-129119333D01*
X70104001Y-129166952D01*
X70151620Y-129262190D01*
X70151620Y-129547905D01*
X70104001Y-129643143D01*
X70056382Y-129690762D01*
X69961144Y-129738381D01*
X69770667Y-129738381D01*
X69675429Y-129690762D01*
X70580191Y-129738381D02*
X70580191Y-129071714D01*
X70580191Y-128738381D02*
X70532572Y-128786000D01*
X70580191Y-128833619D01*
X70627810Y-128786000D01*
X70580191Y-128738381D01*
X70580191Y-128833619D01*
X71056381Y-129071714D02*
X71056381Y-129738381D01*
X71056381Y-129166952D02*
X71104000Y-129119333D01*
X71199238Y-129071714D01*
X71342096Y-129071714D01*
X71437334Y-129119333D01*
X71484953Y-129214571D01*
X71484953Y-129738381D01*
X153574858Y-129484381D02*
X153003429Y-129484381D01*
X153289143Y-129484381D02*
X153289143Y-128484381D01*
X153193905Y-128627238D01*
X153098667Y-128722476D01*
X153003429Y-128770095D01*
X154003429Y-128817714D02*
X154003429Y-129817714D01*
X154003429Y-128865333D02*
X154098667Y-128817714D01*
X154289144Y-128817714D01*
X154384382Y-128865333D01*
X154432001Y-128912952D01*
X154479620Y-129008190D01*
X154479620Y-129293905D01*
X154432001Y-129389143D01*
X154384382Y-129436762D01*
X154289144Y-129484381D01*
X154098667Y-129484381D01*
X154003429Y-129436762D01*
X154908191Y-129484381D02*
X154908191Y-128817714D01*
X154908191Y-128484381D02*
X154860572Y-128532000D01*
X154908191Y-128579619D01*
X154955810Y-128532000D01*
X154908191Y-128484381D01*
X154908191Y-128579619D01*
X155384381Y-128817714D02*
X155384381Y-129484381D01*
X155384381Y-128912952D02*
X155432000Y-128865333D01*
X155527238Y-128817714D01*
X155670096Y-128817714D01*
X155765334Y-128865333D01*
X155812953Y-128960571D01*
X155812953Y-129484381D01*
X111407143Y-61427809D02*
X111454762Y-61475428D01*
X111502381Y-61618285D01*
X111502381Y-61713523D01*
X111454762Y-61856381D01*
X111359524Y-61951619D01*
X111264286Y-61999238D01*
X111073810Y-62046857D01*
X110930952Y-62046857D01*
X110740476Y-61999238D01*
X110645238Y-61951619D01*
X110550000Y-61856381D01*
X110502381Y-61713523D01*
X110502381Y-61618285D01*
X110550000Y-61475428D01*
X110597619Y-61427809D01*
X110502381Y-60808762D02*
X110502381Y-60618285D01*
X110550000Y-60523047D01*
X110645238Y-60427809D01*
X110835714Y-60380190D01*
X111169048Y-60380190D01*
X111359524Y-60427809D01*
X111454762Y-60523047D01*
X111502381Y-60618285D01*
X111502381Y-60808762D01*
X111454762Y-60904000D01*
X111359524Y-60999238D01*
X111169048Y-61046857D01*
X110835714Y-61046857D01*
X110645238Y-60999238D01*
X110550000Y-60904000D01*
X110502381Y-60808762D01*
X111502381Y-59951619D02*
X110502381Y-59951619D01*
X111502381Y-59380190D01*
X110502381Y-59380190D01*
X111502381Y-58904000D02*
X110502381Y-58904000D01*
X111502381Y-58332571D01*
X110502381Y-58332571D01*
X111597619Y-58094476D02*
X111597619Y-57332571D01*
X110502381Y-56904000D02*
X110502381Y-56808761D01*
X110550000Y-56713523D01*
X110597619Y-56665904D01*
X110692857Y-56618285D01*
X110883333Y-56570666D01*
X111121429Y-56570666D01*
X111311905Y-56618285D01*
X111407143Y-56665904D01*
X111454762Y-56713523D01*
X111502381Y-56808761D01*
X111502381Y-56904000D01*
X111454762Y-56999238D01*
X111407143Y-57046857D01*
X111311905Y-57094476D01*
X111121429Y-57142095D01*
X110883333Y-57142095D01*
X110692857Y-57094476D01*
X110597619Y-57046857D01*
X110550000Y-56999238D01*
X110502381Y-56904000D01*
X111502381Y-55618285D02*
X111502381Y-56189714D01*
X111502381Y-55904000D02*
X110502381Y-55904000D01*
X110645238Y-55999238D01*
X110740476Y-56094476D01*
X110788095Y-56189714D01*
X110502381Y-55284952D02*
X111502381Y-54618285D01*
X110502381Y-54618285D02*
X111502381Y-55284952D01*
X110502381Y-54046857D02*
X110502381Y-53951618D01*
X110550000Y-53856380D01*
X110597619Y-53808761D01*
X110692857Y-53761142D01*
X110883333Y-53713523D01*
X111121429Y-53713523D01*
X111311905Y-53761142D01*
X111407143Y-53808761D01*
X111454762Y-53856380D01*
X111502381Y-53951618D01*
X111502381Y-54046857D01*
X111454762Y-54142095D01*
X111407143Y-54189714D01*
X111311905Y-54237333D01*
X111121429Y-54284952D01*
X110883333Y-54284952D01*
X110692857Y-54237333D01*
X110597619Y-54189714D01*
X110550000Y-54142095D01*
X110502381Y-54046857D01*
X110502381Y-52808761D02*
X110502381Y-53284952D01*
X110978571Y-53332571D01*
X110930952Y-53284952D01*
X110883333Y-53189714D01*
X110883333Y-52951618D01*
X110930952Y-52856380D01*
X110978571Y-52808761D01*
X111073810Y-52761142D01*
X111311905Y-52761142D01*
X111407143Y-52808761D01*
X111454762Y-52856380D01*
X111502381Y-52951618D01*
X111502381Y-53189714D01*
X111454762Y-53284952D01*
X111407143Y-53332571D01*
X72176191Y-64417143D02*
X72128572Y-64464762D01*
X71985715Y-64512381D01*
X71890477Y-64512381D01*
X71747619Y-64464762D01*
X71652381Y-64369524D01*
X71604762Y-64274286D01*
X71557143Y-64083810D01*
X71557143Y-63940952D01*
X71604762Y-63750476D01*
X71652381Y-63655238D01*
X71747619Y-63560000D01*
X71890477Y-63512381D01*
X71985715Y-63512381D01*
X72128572Y-63560000D01*
X72176191Y-63607619D01*
X72795238Y-63512381D02*
X72985715Y-63512381D01*
X73080953Y-63560000D01*
X73176191Y-63655238D01*
X73223810Y-63845714D01*
X73223810Y-64179048D01*
X73176191Y-64369524D01*
X73080953Y-64464762D01*
X72985715Y-64512381D01*
X72795238Y-64512381D01*
X72700000Y-64464762D01*
X72604762Y-64369524D01*
X72557143Y-64179048D01*
X72557143Y-63845714D01*
X72604762Y-63655238D01*
X72700000Y-63560000D01*
X72795238Y-63512381D01*
X73652381Y-64512381D02*
X73652381Y-63512381D01*
X74223810Y-64512381D01*
X74223810Y-63512381D01*
X74700000Y-64512381D02*
X74700000Y-63512381D01*
X75271429Y-64512381D01*
X75271429Y-63512381D01*
X75509524Y-64607619D02*
X76271429Y-64607619D01*
X76700000Y-63512381D02*
X76795239Y-63512381D01*
X76890477Y-63560000D01*
X76938096Y-63607619D01*
X76985715Y-63702857D01*
X77033334Y-63893333D01*
X77033334Y-64131429D01*
X76985715Y-64321905D01*
X76938096Y-64417143D01*
X76890477Y-64464762D01*
X76795239Y-64512381D01*
X76700000Y-64512381D01*
X76604762Y-64464762D01*
X76557143Y-64417143D01*
X76509524Y-64321905D01*
X76461905Y-64131429D01*
X76461905Y-63893333D01*
X76509524Y-63702857D01*
X76557143Y-63607619D01*
X76604762Y-63560000D01*
X76700000Y-63512381D01*
X77985715Y-64512381D02*
X77414286Y-64512381D01*
X77700000Y-64512381D02*
X77700000Y-63512381D01*
X77604762Y-63655238D01*
X77509524Y-63750476D01*
X77414286Y-63798095D01*
X78319048Y-63512381D02*
X78985715Y-64512381D01*
X78985715Y-63512381D02*
X78319048Y-64512381D01*
X79557143Y-63512381D02*
X79652382Y-63512381D01*
X79747620Y-63560000D01*
X79795239Y-63607619D01*
X79842858Y-63702857D01*
X79890477Y-63893333D01*
X79890477Y-64131429D01*
X79842858Y-64321905D01*
X79795239Y-64417143D01*
X79747620Y-64464762D01*
X79652382Y-64512381D01*
X79557143Y-64512381D01*
X79461905Y-64464762D01*
X79414286Y-64417143D01*
X79366667Y-64321905D01*
X79319048Y-64131429D01*
X79319048Y-63893333D01*
X79366667Y-63702857D01*
X79414286Y-63607619D01*
X79461905Y-63560000D01*
X79557143Y-63512381D01*
X80795239Y-63512381D02*
X80319048Y-63512381D01*
X80271429Y-63988571D01*
X80319048Y-63940952D01*
X80414286Y-63893333D01*
X80652382Y-63893333D01*
X80747620Y-63940952D01*
X80795239Y-63988571D01*
X80842858Y-64083810D01*
X80842858Y-64321905D01*
X80795239Y-64417143D01*
X80747620Y-64464762D01*
X80652382Y-64512381D01*
X80414286Y-64512381D01*
X80319048Y-64464762D01*
X80271429Y-64417143D01*
X106641571Y-34773282D02*
X106641571Y-35582806D01*
X106689190Y-35678044D01*
X106736809Y-35725663D01*
X106832047Y-35773282D01*
X107022524Y-35773282D01*
X107117762Y-35725663D01*
X107165381Y-35678044D01*
X107213000Y-35582806D01*
X107213000Y-34773282D01*
X107641571Y-35725663D02*
X107784428Y-35773282D01*
X108022524Y-35773282D01*
X108117762Y-35725663D01*
X108165381Y-35678044D01*
X108213000Y-35582806D01*
X108213000Y-35487568D01*
X108165381Y-35392330D01*
X108117762Y-35344711D01*
X108022524Y-35297091D01*
X107832047Y-35249472D01*
X107736809Y-35201853D01*
X107689190Y-35154234D01*
X107641571Y-35058996D01*
X107641571Y-34963758D01*
X107689190Y-34868520D01*
X107736809Y-34820901D01*
X107832047Y-34773282D01*
X108070143Y-34773282D01*
X108213000Y-34820901D01*
X108974905Y-35249472D02*
X109117762Y-35297091D01*
X109165381Y-35344711D01*
X109213000Y-35439949D01*
X109213000Y-35582806D01*
X109165381Y-35678044D01*
X109117762Y-35725663D01*
X109022524Y-35773282D01*
X108641571Y-35773282D01*
X108641571Y-34773282D01*
X108974905Y-34773282D01*
X109070143Y-34820901D01*
X109117762Y-34868520D01*
X109165381Y-34963758D01*
X109165381Y-35058996D01*
X109117762Y-35154234D01*
X109070143Y-35201853D01*
X108974905Y-35249472D01*
X108641571Y-35249472D01*
X109403476Y-35868520D02*
X110165381Y-35868520D01*
X110355857Y-35487568D02*
X110832048Y-35487568D01*
X110260619Y-35773282D02*
X110593952Y-34773282D01*
X110927286Y-35773282D01*
M02*
